<?xml version="1.0" encoding="UTF-8" standalone="no"?>
<!DOCTYPE svg PUBLIC "-//W3C//DTD SVG 1.1//EN"
 "http://www.w3.org/Graphics/SVG/1.1/DTD/svg11.dtd">
<!-- Generated by graphviz version 2.44.0 ()
 -->
<!-- Title: cpc_cpinti_debug_plus_cpinticore Pages: 1 -->
<svg width="777pt" height="1411pt"
 viewBox="0.00 0.00 777.00 1411.36" xmlns="http://www.w3.org/2000/svg" xmlns:xlink="http://www.w3.org/1999/xlink">
<g id="graph0" class="graph" transform="scale(1 1) rotate(0) translate(4 1407.36)">
<title>cpc_cpinti_debug_plus_cpinticore</title>
<polygon fill="white" stroke="transparent" points="-4,4 -4,-1407.36 773,-1407.36 773,4 -4,4"/>
<!-- Node1 -->
<g id="node1" class="node">
<title>Node1</title>
<g id="a_node1"><a xlink:title=" ">
<polygon fill="#bfbfbf" stroke="black" points="653,-650.5 653,-680.5 769,-680.5 769,-650.5 653,-650.5"/>
<text text-anchor="start" x="661" y="-668.5" font-family="Helvetica,sans-Serif" font-size="10.00">cpc_cpinti_debug_plus</text>
<text text-anchor="middle" x="711" y="-657.5" font-family="Helvetica,sans-Serif" font-size="10.00">_cpinticore</text>
</a>
</g>
</g>
<!-- Node2 -->
<g id="node2" class="node">
<title>Node2</title>
<g id="a_node2"><a xlink:href="namespacecpinti__dbg.html#a119c14f1b5f4849696decac82a512762" target="_top" xlink:title=" ">
<polygon fill="white" stroke="black" points="508,-675.5 508,-705.5 606,-705.5 606,-675.5 508,-675.5"/>
<text text-anchor="start" x="516" y="-693.5" font-family="Helvetica,sans-Serif" font-size="10.00">cpinti_dbg::CPINTI</text>
<text text-anchor="middle" x="557" y="-682.5" font-family="Helvetica,sans-Serif" font-size="10.00">_DEBUG</text>
</a>
</g>
</g>
<!-- Node1&#45;&gt;Node2 -->
<g id="edge1" class="edge">
<title>Node1&#45;&gt;Node2</title>
<path fill="none" stroke="midnightblue" d="M642.78,-676.56C630.53,-678.57 617.96,-680.64 606.39,-682.54"/>
<polygon fill="midnightblue" stroke="midnightblue" points="643.67,-679.96 652.97,-674.88 642.53,-673.05 643.67,-679.96"/>
</g>
<!-- Node39 -->
<g id="node39" class="node">
<title>Node39</title>
<g id="a_node39"><a xlink:href="class_cpcdos_o_sx___c_pinti_core.html#a27f2b54b40f204711faa951d44bb5f76" target="_top" xlink:title=" ">
<polygon fill="white" stroke="black" points="497,-626.5 497,-656.5 617,-656.5 617,-626.5 497,-626.5"/>
<text text-anchor="start" x="505" y="-644.5" font-family="Helvetica,sans-Serif" font-size="10.00">CpcdosOSx_CPintiCore</text>
<text text-anchor="middle" x="557" y="-633.5" font-family="Helvetica,sans-Serif" font-size="10.00">::debug_log_plus</text>
</a>
</g>
</g>
<!-- Node1&#45;&gt;Node39 -->
<g id="edge55" class="edge">
<title>Node1&#45;&gt;Node39</title>
<path fill="none" stroke="midnightblue" d="M642.96,-654.92C634.36,-653.56 625.59,-652.17 617.13,-650.84"/>
<polygon fill="midnightblue" stroke="midnightblue" points="642.54,-658.39 652.97,-656.5 643.64,-651.48 642.54,-658.39"/>
</g>
<!-- Node3 -->
<g id="node3" class="node">
<title>Node3</title>
<g id="a_node3"><a xlink:href="namespacecpinti_1_1gestionnaire__tache.html#a0ac5449471b1ca1bd90d9febec477342" target="_top" xlink:title=" ">
<polygon fill="white" stroke="black" points="330,-1332.5 330,-1362.5 461,-1362.5 461,-1332.5 330,-1332.5"/>
<text text-anchor="start" x="338" y="-1350.5" font-family="Helvetica,sans-Serif" font-size="10.00">cpinti::gestionnaire</text>
<text text-anchor="middle" x="395.5" y="-1339.5" font-family="Helvetica,sans-Serif" font-size="10.00">_tache::ajouter_Processus</text>
</a>
</g>
</g>
<!-- Node2&#45;&gt;Node3 -->
<g id="edge2" class="edge">
<title>Node2&#45;&gt;Node3</title>
<path fill="none" stroke="midnightblue" d="M555.28,-716.03C551.85,-821.18 534.16,-1219.83 461,-1317.5 456.41,-1323.63 450.26,-1328.55 443.57,-1332.48"/>
<polygon fill="midnightblue" stroke="midnightblue" points="558.79,-715.84 555.6,-705.73 551.79,-715.62 558.79,-715.84"/>
</g>
<!-- Node4 -->
<g id="node4" class="node">
<title>Node4</title>
<g id="a_node4"><a xlink:href="namespacecpinti_1_1gestionnaire__tache.html#a8c7c5649614ba9fb24d07fc01370efdb" target="_top" xlink:title=" ">
<polygon fill="white" stroke="black" points="171,-1351 171,-1392 272,-1392 272,-1351 171,-1351"/>
<text text-anchor="start" x="179" y="-1380" font-family="Helvetica,sans-Serif" font-size="10.00">cpinti::gestionnaire</text>
<text text-anchor="start" x="179" y="-1369" font-family="Helvetica,sans-Serif" font-size="10.00">_tache::cpinti_creer</text>
<text text-anchor="middle" x="221.5" y="-1358" font-family="Helvetica,sans-Serif" font-size="10.00">_processus</text>
</a>
</g>
</g>
<!-- Node2&#45;&gt;Node4 -->
<g id="edge11" class="edge">
<title>Node2&#45;&gt;Node4</title>
<path fill="none" stroke="midnightblue" d="M554.41,-715.77C546.74,-833.95 511.78,-1328.31 461,-1372.5 409.62,-1417.22 325.79,-1404.05 272.43,-1388.93"/>
<polygon fill="midnightblue" stroke="midnightblue" points="557.92,-715.74 555.07,-705.53 550.94,-715.29 557.92,-715.74"/>
</g>
<!-- Node5 -->
<g id="node5" class="node">
<title>Node5</title>
<g id="a_node5"><a xlink:href="namespacecpinti_1_1gestionnaire__tache.html#a6e5e5771fd2998d286a459f65136f6ab" target="_top" xlink:title=" ">
<polygon fill="white" stroke="black" points="164,-1244.5 164,-1274.5 279,-1274.5 279,-1244.5 164,-1244.5"/>
<text text-anchor="start" x="172" y="-1262.5" font-family="Helvetica,sans-Serif" font-size="10.00">cpinti::gestionnaire</text>
<text text-anchor="middle" x="221.5" y="-1251.5" font-family="Helvetica,sans-Serif" font-size="10.00">_tache::ajouter_Thread</text>
</a>
</g>
</g>
<!-- Node2&#45;&gt;Node5 -->
<g id="edge4" class="edge">
<title>Node2&#45;&gt;Node5</title>
<path fill="none" stroke="midnightblue" d="M554.85,-715.79C550.11,-808.91 528.99,-1130.94 461,-1202.5 414.38,-1251.57 333.66,-1261.68 279.19,-1262.29"/>
<polygon fill="midnightblue" stroke="midnightblue" points="558.36,-715.76 555.35,-705.6 551.37,-715.42 558.36,-715.76"/>
</g>
<!-- Node6 -->
<g id="node6" class="node">
<title>Node6</title>
<g id="a_node6"><a xlink:href="namespacecpinti_1_1gestionnaire__tache.html#a0c6d8878452d6e0ebb31a9ae9910d859" target="_top" xlink:title=" ">
<polygon fill="white" stroke="black" points="6,-1261 6,-1302 107,-1302 107,-1261 6,-1261"/>
<text text-anchor="start" x="14" y="-1290" font-family="Helvetica,sans-Serif" font-size="10.00">cpinti::gestionnaire</text>
<text text-anchor="start" x="14" y="-1279" font-family="Helvetica,sans-Serif" font-size="10.00">_tache::cpinti_creer</text>
<text text-anchor="middle" x="56.5" y="-1268" font-family="Helvetica,sans-Serif" font-size="10.00">_thread</text>
</a>
</g>
</g>
<!-- Node2&#45;&gt;Node6 -->
<g id="edge12" class="edge">
<title>Node2&#45;&gt;Node6</title>
<path fill="none" stroke="midnightblue" d="M555.24,-715.93C551.76,-814.03 534.31,-1166.24 461,-1244.5 370.1,-1341.53 193.49,-1315.46 107.27,-1295.16"/>
<polygon fill="midnightblue" stroke="midnightblue" points="558.74,-715.86 555.58,-705.75 551.74,-715.63 558.74,-715.86"/>
</g>
<!-- Node7 -->
<g id="node7" class="node">
<title>Node7</title>
<g id="a_node7"><a xlink:href="namespacecpinti_1_1gestionnaire__fichier.html#ae04b7d30580d07875a05ce6d49a89191" target="_top" xlink:title=" ">
<polygon fill="white" stroke="black" points="338.5,-1021.5 338.5,-1051.5 452.5,-1051.5 452.5,-1021.5 338.5,-1021.5"/>
<text text-anchor="start" x="346.5" y="-1039.5" font-family="Helvetica,sans-Serif" font-size="10.00">cpinti::gestionnaire</text>
<text text-anchor="middle" x="395.5" y="-1028.5" font-family="Helvetica,sans-Serif" font-size="10.00">_fichier::Copier_Fichier</text>
</a>
</g>
</g>
<!-- Node2&#45;&gt;Node7 -->
<g id="edge6" class="edge">
<title>Node2&#45;&gt;Node7</title>
<path fill="none" stroke="midnightblue" d="M555.17,-715.9C551.96,-774.23 536.4,-919.44 461,-1006.5 455.74,-1012.57 449,-1017.49 441.86,-1021.45"/>
<polygon fill="midnightblue" stroke="midnightblue" points="558.67,-715.9 555.65,-705.74 551.68,-715.57 558.67,-715.9"/>
</g>
<!-- Node8 -->
<g id="node8" class="node">
<title>Node8</title>
<g id="a_node8"><a xlink:href="namespacecpinti_1_1gestionnaire__fichier.html#a52067ff600f55ed2731bb7f304f10273" target="_top" xlink:title=" ">
<polygon fill="white" stroke="black" points="167.5,-1021 167.5,-1062 275.5,-1062 275.5,-1021 167.5,-1021"/>
<text text-anchor="start" x="175.5" y="-1050" font-family="Helvetica,sans-Serif" font-size="10.00">cpinti::gestionnaire</text>
<text text-anchor="start" x="175.5" y="-1039" font-family="Helvetica,sans-Serif" font-size="10.00">_fichier::cpinti_Copier</text>
<text text-anchor="middle" x="221.5" y="-1028" font-family="Helvetica,sans-Serif" font-size="10.00">_Fichier</text>
</a>
</g>
</g>
<!-- Node2&#45;&gt;Node8 -->
<g id="edge10" class="edge">
<title>Node2&#45;&gt;Node8</title>
<path fill="none" stroke="midnightblue" d="M553.49,-715.71C545.31,-792.07 516.69,-1018.27 461,-1061.5 405.86,-1104.3 320.37,-1082.31 268.12,-1062.14"/>
<polygon fill="midnightblue" stroke="midnightblue" points="556.99,-715.88 554.55,-705.57 550.03,-715.15 556.99,-715.88"/>
</g>
<!-- Node9 -->
<g id="node9" class="node">
<title>Node9</title>
<g id="a_node9"><a xlink:href="namespacecpinti_1_1gestionnaire__tache.html#ac39e89c68667f074a252569a20c74975" target="_top" xlink:title=" ">
<polygon fill="white" stroke="black" points="3,-950 3,-991 110,-991 110,-950 3,-950"/>
<text text-anchor="start" x="11" y="-979" font-family="Helvetica,sans-Serif" font-size="10.00">cpinti::gestionnaire</text>
<text text-anchor="start" x="11" y="-968" font-family="Helvetica,sans-Serif" font-size="10.00">_tache::cpinti_arreter</text>
<text text-anchor="middle" x="56.5" y="-957" font-family="Helvetica,sans-Serif" font-size="10.00">_processus</text>
</a>
</g>
</g>
<!-- Node2&#45;&gt;Node9 -->
<g id="edge8" class="edge">
<title>Node2&#45;&gt;Node9</title>
<path fill="none" stroke="midnightblue" d="M554.38,-715.76C549.65,-767.08 531.31,-883.65 461,-942.5 361.25,-1025.99 194.57,-1003.31 110.07,-984.4"/>
<polygon fill="midnightblue" stroke="midnightblue" points="557.89,-715.82 555.22,-705.57 550.91,-715.25 557.89,-715.82"/>
</g>
<!-- Node10 -->
<g id="node10" class="node">
<title>Node10</title>
<g id="a_node10"><a xlink:href="namespacecpinti_1_1net.html#a0c070039715652789e0814e8a98beb39" target="_top" xlink:title=" ">
<polygon fill="white" stroke="black" points="13.5,-688.5 13.5,-718.5 99.5,-718.5 99.5,-688.5 13.5,-688.5"/>
<text text-anchor="start" x="21.5" y="-706.5" font-family="Helvetica,sans-Serif" font-size="10.00">cpinti::net::cpinti</text>
<text text-anchor="middle" x="56.5" y="-695.5" font-family="Helvetica,sans-Serif" font-size="10.00">_client</text>
</a>
</g>
</g>
<!-- Node2&#45;&gt;Node10 -->
<g id="edge9" class="edge">
<title>Node2&#45;&gt;Node10</title>
<path fill="none" stroke="midnightblue" d="M497.67,-704.22C418.5,-720.96 272.69,-745.09 149,-728.5 132.68,-726.31 115.15,-722.02 99.84,-717.6"/>
<polygon fill="midnightblue" stroke="midnightblue" points="498.89,-707.54 507.93,-702.01 497.41,-700.7 498.89,-707.54"/>
</g>
<!-- Node11 -->
<g id="node11" class="node">
<title>Node11</title>
<g id="a_node11"><a xlink:href="namespacecpinti__dbg.html#a8ac29b30b0d3e7b95ab20f421d7ec3d9" target="_top" xlink:title=" ">
<polygon fill="white" stroke="black" points="346.5,-536.5 346.5,-566.5 444.5,-566.5 444.5,-536.5 346.5,-536.5"/>
<text text-anchor="start" x="354.5" y="-554.5" font-family="Helvetica,sans-Serif" font-size="10.00">cpinti_dbg::CPINTI</text>
<text text-anchor="middle" x="395.5" y="-543.5" font-family="Helvetica,sans-Serif" font-size="10.00">_DEBUG_C</text>
</a>
</g>
</g>
<!-- Node2&#45;&gt;Node11 -->
<g id="edge13" class="edge">
<title>Node2&#45;&gt;Node11</title>
<path fill="none" stroke="midnightblue" d="M500.4,-669.57C499.22,-668.59 498.08,-667.57 497,-666.5 467.78,-637.7 489.5,-611.01 461,-581.5 455.17,-575.46 447.88,-570.51 440.33,-566.5"/>
<polygon fill="midnightblue" stroke="midnightblue" points="498.56,-672.55 508.76,-675.41 502.57,-666.81 498.56,-672.55"/>
</g>
<!-- Node12 -->
<g id="node12" class="node">
<title>Node12</title>
<g id="a_node12"><a xlink:href="namespacecpinti_1_1gestionnaire__fichier.html#a01b259b43b24dd5a9f1db1dd4c6b3875" target="_top" xlink:title=" ">
<polygon fill="white" stroke="black" points="343,-477 343,-518 448,-518 448,-477 343,-477"/>
<text text-anchor="start" x="351" y="-506" font-family="Helvetica,sans-Serif" font-size="10.00">cpinti::gestionnaire</text>
<text text-anchor="start" x="351" y="-495" font-family="Helvetica,sans-Serif" font-size="10.00">_fichier::cpinti_Ecrire</text>
<text text-anchor="middle" x="395.5" y="-484" font-family="Helvetica,sans-Serif" font-size="10.00">_Fichier_complet</text>
</a>
</g>
</g>
<!-- Node2&#45;&gt;Node12 -->
<g id="edge14" class="edge">
<title>Node2&#45;&gt;Node12</title>
<path fill="none" stroke="midnightblue" d="M499.78,-669.4C498.81,-668.47 497.88,-667.51 497,-666.5 454.97,-618.48 501.84,-576.54 461,-527.5 457.36,-523.13 452.95,-519.37 448.16,-516.13"/>
<polygon fill="midnightblue" stroke="midnightblue" points="497.89,-672.36 507.94,-675.74 502.19,-666.84 497.89,-672.36"/>
</g>
<!-- Node13 -->
<g id="node13" class="node">
<title>Node13</title>
<g id="a_node13"><a xlink:href="namespacecpinti_1_1gestionnaire__fichier.html#a0f57ea0f0a609783526dc0680b05e201" target="_top" xlink:title=" ">
<polygon fill="white" stroke="black" points="340.5,-319 340.5,-360 450.5,-360 450.5,-319 340.5,-319"/>
<text text-anchor="start" x="348.5" y="-348" font-family="Helvetica,sans-Serif" font-size="10.00">cpinti::gestionnaire</text>
<text text-anchor="start" x="348.5" y="-337" font-family="Helvetica,sans-Serif" font-size="10.00">_fichier::cpinti_Fichier</text>
<text text-anchor="middle" x="395.5" y="-326" font-family="Helvetica,sans-Serif" font-size="10.00">_Existe</text>
</a>
</g>
</g>
<!-- Node2&#45;&gt;Node13 -->
<g id="edge15" class="edge">
<title>Node2&#45;&gt;Node13</title>
<path fill="none" stroke="midnightblue" d="M500.05,-670.02C498.97,-668.91 497.95,-667.73 497,-666.5 417.5,-562.69 534.63,-482.56 461,-374.5 457.2,-368.92 452.21,-364.15 446.68,-360.09"/>
<polygon fill="midnightblue" stroke="midnightblue" points="498.04,-672.89 507.99,-676.52 502.47,-667.48 498.04,-672.89"/>
</g>
<!-- Node14 -->
<g id="node14" class="node">
<title>Node14</title>
<g id="a_node14"><a xlink:href="namespacecpinti_1_1gestionnaire__fichier.html#aa88fdf5496d3109c3cf1b0c9f76c0d1d" target="_top" xlink:title=" ">
<polygon fill="white" stroke="black" points="173,-368 173,-409 270,-409 270,-368 173,-368"/>
<text text-anchor="start" x="181" y="-397" font-family="Helvetica,sans-Serif" font-size="10.00">cpinti::gestionnaire</text>
<text text-anchor="start" x="181" y="-386" font-family="Helvetica,sans-Serif" font-size="10.00">_fichier::cpinti_Lire</text>
<text text-anchor="middle" x="221.5" y="-375" font-family="Helvetica,sans-Serif" font-size="10.00">_Fichier_complet</text>
</a>
</g>
</g>
<!-- Node2&#45;&gt;Node14 -->
<g id="edge25" class="edge">
<title>Node2&#45;&gt;Node14</title>
<path fill="none" stroke="midnightblue" d="M500,-669.92C498.94,-668.84 497.93,-667.7 497,-666.5 425.63,-574.78 545.55,-487.23 461,-407.5 434.41,-382.42 331.65,-382.85 270.03,-385.56"/>
<polygon fill="midnightblue" stroke="midnightblue" points="497.82,-672.66 507.78,-676.28 502.25,-667.24 497.82,-672.66"/>
</g>
<!-- Node15 -->
<g id="node15" class="node">
<title>Node15</title>
<g id="a_node15"><a xlink:href="namespacecpinti.html#af3fb396e744daa5441044b785ca8b200" target="_top" xlink:title=" ">
<polygon fill="white" stroke="black" points="330,-662 330,-681 461,-681 461,-662 330,-662"/>
<text text-anchor="middle" x="395.5" y="-669" font-family="Helvetica,sans-Serif" font-size="10.00">cpinti::cpinti_GEST_BUFF</text>
</a>
</g>
</g>
<!-- Node2&#45;&gt;Node15 -->
<g id="edge17" class="edge">
<title>Node2&#45;&gt;Node15</title>
<path fill="none" stroke="midnightblue" d="M497.51,-683.53C485.67,-682.12 473.15,-680.63 461.12,-679.2"/>
<polygon fill="midnightblue" stroke="midnightblue" points="497.37,-687.04 507.71,-684.75 498.2,-680.09 497.37,-687.04"/>
</g>
<!-- Node17 -->
<g id="node17" class="node">
<title>Node17</title>
<g id="a_node17"><a xlink:href="namespacecpinti_1_1net.html#ae75f979d2adaeb1c19ba2a45f8ad2eeb" target="_top" xlink:title=" ">
<polygon fill="white" stroke="black" points="13.5,-513.5 13.5,-543.5 99.5,-543.5 99.5,-513.5 13.5,-513.5"/>
<text text-anchor="start" x="21.5" y="-531.5" font-family="Helvetica,sans-Serif" font-size="10.00">cpinti::net::cpinti</text>
<text text-anchor="middle" x="56.5" y="-520.5" font-family="Helvetica,sans-Serif" font-size="10.00">_serveur</text>
</a>
</g>
</g>
<!-- Node2&#45;&gt;Node17 -->
<g id="edge26" class="edge">
<title>Node2&#45;&gt;Node17</title>
<path fill="none" stroke="midnightblue" d="M501.79,-670.15C500.13,-668.99 498.53,-667.78 497,-666.5 474.02,-647.27 485.26,-627.08 461,-609.5 412.38,-574.27 376.8,-614.11 330,-576.5 302.11,-554.09 324.43,-523.31 294,-504.5 230.46,-465.23 138.54,-493.49 90.14,-513.42"/>
<polygon fill="midnightblue" stroke="midnightblue" points="500.15,-673.25 510.51,-675.46 503.79,-667.27 500.15,-673.25"/>
</g>
<!-- Node18 -->
<g id="node18" class="node">
<title>Node18</title>
<g id="a_node18"><a xlink:href="namespacecpinti_1_1net__client.html#a2c0e37d915c8350e880ce82fe14cbe43" target="_top" xlink:title=" ">
<polygon fill="white" stroke="black" points="177,-688.5 177,-718.5 266,-718.5 266,-688.5 177,-688.5"/>
<text text-anchor="start" x="185" y="-706.5" font-family="Helvetica,sans-Serif" font-size="10.00">cpinti::net_client</text>
<text text-anchor="middle" x="221.5" y="-695.5" font-family="Helvetica,sans-Serif" font-size="10.00">::Demarrer_client</text>
</a>
</g>
</g>
<!-- Node2&#45;&gt;Node18 -->
<g id="edge30" class="edge">
<title>Node2&#45;&gt;Node18</title>
<path fill="none" stroke="midnightblue" d="M497.61,-692.78C431.52,-695.35 325.37,-699.49 266.11,-701.8"/>
<polygon fill="midnightblue" stroke="midnightblue" points="498.01,-696.26 507.86,-692.38 497.73,-689.27 498.01,-696.26"/>
</g>
<!-- Node19 -->
<g id="node19" class="node">
<title>Node19</title>
<g id="a_node19"><a xlink:href="namespacecpinti_1_1net__server.html#a8dd4cfd770dcd100f4ababcc7f3dbaa9" target="_top" xlink:title=" ">
<polygon fill="white" stroke="black" points="172.5,-513.5 172.5,-543.5 270.5,-543.5 270.5,-513.5 172.5,-513.5"/>
<text text-anchor="start" x="180.5" y="-531.5" font-family="Helvetica,sans-Serif" font-size="10.00">cpinti::net_server</text>
<text text-anchor="middle" x="221.5" y="-520.5" font-family="Helvetica,sans-Serif" font-size="10.00">::Demarrer_serveur</text>
</a>
</g>
</g>
<!-- Node2&#45;&gt;Node19 -->
<g id="edge31" class="edge">
<title>Node2&#45;&gt;Node19</title>
<path fill="none" stroke="midnightblue" d="M509.67,-671.65C490.5,-663.92 470.54,-655.97 461,-652.5 403.41,-631.55 378.32,-647.18 330,-609.5 306.37,-591.07 317.57,-571 294,-552.5 287.1,-547.08 278.91,-542.86 270.59,-539.57"/>
<polygon fill="midnightblue" stroke="midnightblue" points="508.39,-674.91 518.97,-675.41 511.01,-668.42 508.39,-674.91"/>
</g>
<!-- Node20 -->
<g id="node20" class="node">
<title>Node20</title>
<g id="a_node20"><a xlink:href="namespacecpinti_1_1gestionnaire__fichier.html#a15ed875c00b9407b80b72b1f56d72e17" target="_top" xlink:title=" ">
<polygon fill="white" stroke="black" points="333,-259 333,-300 458,-300 458,-259 333,-259"/>
<text text-anchor="start" x="341" y="-288" font-family="Helvetica,sans-Serif" font-size="10.00">cpinti::gestionnaire</text>
<text text-anchor="start" x="341" y="-277" font-family="Helvetica,sans-Serif" font-size="10.00">_fichier::cpinti_Supprimer</text>
<text text-anchor="middle" x="395.5" y="-266" font-family="Helvetica,sans-Serif" font-size="10.00">_Fichier</text>
</a>
</g>
</g>
<!-- Node2&#45;&gt;Node20 -->
<g id="edge27" class="edge">
<title>Node2&#45;&gt;Node20</title>
<path fill="none" stroke="midnightblue" d="M500.01,-670.05C498.94,-668.93 497.93,-667.74 497,-666.5 401.45,-538.83 553.4,-439.48 461,-309.5 458.5,-305.98 455.47,-302.86 452.11,-300.09"/>
<polygon fill="midnightblue" stroke="midnightblue" points="497.97,-672.9 507.9,-676.58 502.44,-667.51 497.97,-672.9"/>
</g>
<!-- Node21 -->
<g id="node21" class="node">
<title>Node21</title>
<g id="a_node21"><a xlink:href="namespacecpinti_1_1gestionnaire__fichier.html#a389584e265b41ce10ca6ca8ea808cd4f" target="_top" xlink:title=" ">
<polygon fill="white" stroke="black" points="343.5,-199 343.5,-240 447.5,-240 447.5,-199 343.5,-199"/>
<text text-anchor="start" x="351.5" y="-228" font-family="Helvetica,sans-Serif" font-size="10.00">cpinti::gestionnaire</text>
<text text-anchor="start" x="351.5" y="-217" font-family="Helvetica,sans-Serif" font-size="10.00">_fichier::cpinti_Taille</text>
<text text-anchor="middle" x="395.5" y="-206" font-family="Helvetica,sans-Serif" font-size="10.00">_Fichier</text>
</a>
</g>
</g>
<!-- Node2&#45;&gt;Node21 -->
<g id="edge28" class="edge">
<title>Node2&#45;&gt;Node21</title>
<path fill="none" stroke="midnightblue" d="M499.99,-670.06C498.92,-668.94 497.92,-667.75 497,-666.5 441.81,-591.64 514.34,-325.69 461,-249.5 457.46,-244.44 452.84,-240.21 447.7,-236.69"/>
<polygon fill="midnightblue" stroke="midnightblue" points="497.93,-672.9 507.85,-676.63 502.41,-667.53 497.93,-672.9"/>
</g>
<!-- Node22 -->
<g id="node22" class="node">
<title>Node22</title>
<g id="a_node22"><a xlink:href="namespace_wrapper___cpcdos.html#a05d09b6fe335777e722d96ad69326bd3" target="_top" xlink:title=" ">
<polygon fill="white" stroke="black" points="336,-150.5 336,-180.5 455,-180.5 455,-150.5 336,-150.5"/>
<text text-anchor="start" x="344" y="-168.5" font-family="Helvetica,sans-Serif" font-size="10.00">Wrapper_Cpcdos::cpinti</text>
<text text-anchor="middle" x="395.5" y="-157.5" font-family="Helvetica,sans-Serif" font-size="10.00">_WRAPPER</text>
</a>
</g>
</g>
<!-- Node2&#45;&gt;Node22 -->
<g id="edge29" class="edge">
<title>Node2&#45;&gt;Node22</title>
<path fill="none" stroke="midnightblue" d="M499.97,-670.08C498.91,-668.95 497.92,-667.76 497,-666.5 434.38,-580.6 524.9,-274.45 461,-189.5 458.41,-186.06 455.28,-183.12 451.8,-180.59"/>
<polygon fill="midnightblue" stroke="midnightblue" points="497.89,-672.91 507.8,-676.66 502.4,-667.55 497.89,-672.91"/>
</g>
<!-- Node23 -->
<g id="node23" class="node">
<title>Node23</title>
<g id="a_node23"><a xlink:href="namespacecpinti_1_1gestionnaire__tache.html#aace982c0d3bc1618caf70ececf929141" target="_top" xlink:title=" ">
<polygon fill="white" stroke="black" points="170.5,-884.5 170.5,-914.5 272.5,-914.5 272.5,-884.5 170.5,-884.5"/>
<text text-anchor="start" x="178.5" y="-902.5" font-family="Helvetica,sans-Serif" font-size="10.00">cpinti::gestionnaire</text>
<text text-anchor="middle" x="221.5" y="-891.5" font-family="Helvetica,sans-Serif" font-size="10.00">_tache::fermer_core</text>
</a>
</g>
</g>
<!-- Node2&#45;&gt;Node23 -->
<g id="edge32" class="edge">
<title>Node2&#45;&gt;Node23</title>
<path fill="none" stroke="midnightblue" d="M551.08,-715.72C541.59,-756.85 516.59,-837.6 461,-875.5 405.3,-913.47 324.58,-913 272.82,-907.53"/>
<polygon fill="midnightblue" stroke="midnightblue" points="554.55,-716.21 553.26,-705.7 547.71,-714.72 554.55,-716.21"/>
</g>
<!-- Node24 -->
<g id="node24" class="node">
<title>Node24</title>
<g id="a_node24"><a xlink:href="namespacecpinti_1_1interception.html#a71269205d7f5572d106bf3d75cfcf104" target="_top" xlink:title=" ">
<polygon fill="white" stroke="black" points="339.5,-91 339.5,-132 451.5,-132 451.5,-91 339.5,-91"/>
<text text-anchor="start" x="347.5" y="-120" font-family="Helvetica,sans-Serif" font-size="10.00">cpinti::interception</text>
<text text-anchor="start" x="347.5" y="-109" font-family="Helvetica,sans-Serif" font-size="10.00">::initialise_interception</text>
<text text-anchor="middle" x="395.5" y="-98" font-family="Helvetica,sans-Serif" font-size="10.00">_exception</text>
</a>
</g>
</g>
<!-- Node2&#45;&gt;Node24 -->
<g id="edge33" class="edge">
<title>Node2&#45;&gt;Node24</title>
<path fill="none" stroke="midnightblue" d="M499.96,-670.08C498.9,-668.95 497.91,-667.76 497,-666.5 428.44,-571.77 527.22,-237.89 461,-141.5 458.41,-137.73 455.23,-134.43 451.67,-131.53"/>
<polygon fill="midnightblue" stroke="midnightblue" points="497.87,-672.91 507.77,-676.68 502.39,-667.56 497.87,-672.91"/>
</g>
<!-- Node25 -->
<g id="node25" class="node">
<title>Node25</title>
<g id="a_node25"><a xlink:href="namespacecpinti_1_1gestionnaire__tache.html#ad386876c980cb034a2f757e09a1c4977" target="_top" xlink:title=" ">
<polygon fill="white" stroke="black" points="152,-1195.5 152,-1225.5 291,-1225.5 291,-1195.5 152,-1195.5"/>
<text text-anchor="start" x="160" y="-1213.5" font-family="Helvetica,sans-Serif" font-size="10.00">cpinti::gestionnaire</text>
<text text-anchor="middle" x="221.5" y="-1202.5" font-family="Helvetica,sans-Serif" font-size="10.00">_tache::initialiser_Multitache</text>
</a>
</g>
</g>
<!-- Node2&#45;&gt;Node25 -->
<g id="edge34" class="edge">
<title>Node2&#45;&gt;Node25</title>
<path fill="none" stroke="midnightblue" d="M554.52,-715.95C548.82,-804.83 525.3,-1099.44 461,-1163.5 416.98,-1207.36 344.69,-1216.32 291.22,-1216.01"/>
<polygon fill="midnightblue" stroke="midnightblue" points="558.03,-715.91 555.15,-705.71 551.04,-715.48 558.03,-715.91"/>
</g>
<!-- Node26 -->
<g id="node26" class="node">
<title>Node26</title>
<g id="a_node26"><a xlink:href="namespacecpinti_1_1gestionnaire__tache.html#a640f909bd791a0d1c0f4d87e58fbb5ae" target="_top" xlink:title=" ">
<polygon fill="white" stroke="black" points="331,-1123.5 331,-1153.5 460,-1153.5 460,-1123.5 331,-1123.5"/>
<text text-anchor="start" x="339" y="-1141.5" font-family="Helvetica,sans-Serif" font-size="10.00">cpinti::gestionnaire</text>
<text text-anchor="middle" x="395.5" y="-1130.5" font-family="Helvetica,sans-Serif" font-size="10.00">_tache::Interruption_Timer</text>
</a>
</g>
</g>
<!-- Node2&#45;&gt;Node26 -->
<g id="edge35" class="edge">
<title>Node2&#45;&gt;Node26</title>
<path fill="none" stroke="midnightblue" d="M556.17,-715.74C555.42,-783.32 545.4,-971.55 461,-1094.5 452.72,-1106.57 439.94,-1116.29 427.94,-1123.49"/>
<polygon fill="midnightblue" stroke="midnightblue" points="559.67,-715.63 556.22,-705.61 552.67,-715.59 559.67,-715.63"/>
</g>
<!-- Node30 -->
<g id="node30" class="node">
<title>Node30</title>
<g id="a_node30"><a xlink:href="namespacecpinti_1_1gestionnaire__fichier.html#a0639698a01d0468162c52cde6b75db06" target="_top" xlink:title=" ">
<polygon fill="white" stroke="black" points="344,-417 344,-458 447,-458 447,-417 344,-417"/>
<text text-anchor="start" x="352" y="-446" font-family="Helvetica,sans-Serif" font-size="10.00">cpinti::gestionnaire</text>
<text text-anchor="start" x="352" y="-435" font-family="Helvetica,sans-Serif" font-size="10.00">_fichier::Lire_Fichier</text>
<text text-anchor="middle" x="395.5" y="-424" font-family="Helvetica,sans-Serif" font-size="10.00">_complet</text>
</a>
</g>
</g>
<!-- Node2&#45;&gt;Node30 -->
<g id="edge42" class="edge">
<title>Node2&#45;&gt;Node30</title>
<path fill="none" stroke="midnightblue" d="M500.07,-669.87C498.98,-668.8 497.96,-667.68 497,-666.5 440.36,-596.71 515.91,-538.66 461,-467.5 457.23,-462.61 452.47,-458.49 447.25,-455.02"/>
<polygon fill="midnightblue" stroke="midnightblue" points="497.94,-672.65 507.94,-676.16 502.31,-667.18 497.94,-672.65"/>
</g>
<!-- Node31 -->
<g id="node31" class="node">
<title>Node31</title>
<g id="a_node31"><a xlink:href="namespacecpinti_1_1net__ping.html#a4a1768e58ae8d951dae035575be366f5" target="_top" xlink:title=" ">
<polygon fill="white" stroke="black" points="343.5,-53 343.5,-72 447.5,-72 447.5,-53 343.5,-53"/>
<text text-anchor="middle" x="395.5" y="-60" font-family="Helvetica,sans-Serif" font-size="10.00">cpinti::net_ping::ping</text>
</a>
</g>
</g>
<!-- Node2&#45;&gt;Node31 -->
<g id="edge44" class="edge">
<title>Node2&#45;&gt;Node31</title>
<path fill="none" stroke="midnightblue" d="M499.95,-670.09C498.89,-668.96 497.91,-667.76 497,-666.5 421.01,-560.72 542.18,-183.36 461,-81.5 457.36,-76.94 452.68,-73.43 447.51,-70.74"/>
<polygon fill="midnightblue" stroke="midnightblue" points="497.85,-672.91 507.75,-676.7 502.38,-667.57 497.85,-672.91"/>
</g>
<!-- Node33 -->
<g id="node33" class="node">
<title>Node33</title>
<g id="a_node33"><a xlink:href="namespacecpinti_1_1gestionnaire__tache.html#a828c970178672d3dbc14cdc8d5426968" target="_top" xlink:title=" ">
<polygon fill="white" stroke="black" points="340.5,-2.5 340.5,-32.5 450.5,-32.5 450.5,-2.5 340.5,-2.5"/>
<text text-anchor="start" x="348.5" y="-20.5" font-family="Helvetica,sans-Serif" font-size="10.00">cpinti::gestionnaire</text>
<text text-anchor="middle" x="395.5" y="-9.5" font-family="Helvetica,sans-Serif" font-size="10.00">_tache::SCHEDULER</text>
</a>
</g>
</g>
<!-- Node2&#45;&gt;Node33 -->
<g id="edge46" class="edge">
<title>Node2&#45;&gt;Node33</title>
<path fill="none" stroke="midnightblue" d="M499.94,-670.1C498.89,-668.96 497.9,-667.76 497,-666.5 416.3,-553.72 541.88,-156.15 461,-43.5 457.9,-39.18 453.96,-35.58 449.56,-32.58"/>
<polygon fill="midnightblue" stroke="midnightblue" points="497.84,-672.91 507.73,-676.71 502.37,-667.57 497.84,-672.91"/>
</g>
<!-- Node35 -->
<g id="node35" class="node">
<title>Node35</title>
<g id="a_node35"><a xlink:href="namespacecpinti_1_1gestionnaire__tache.html#ac43c3c3801eaf41bc3e0b0d184461f96" target="_top" xlink:title=" ">
<polygon fill="white" stroke="black" points="149,-933.5 149,-963.5 294,-963.5 294,-933.5 149,-933.5"/>
<text text-anchor="start" x="157" y="-951.5" font-family="Helvetica,sans-Serif" font-size="10.00">cpinti::gestionnaire</text>
<text text-anchor="middle" x="221.5" y="-940.5" font-family="Helvetica,sans-Serif" font-size="10.00">_tache::supprimer_Processus</text>
</a>
</g>
</g>
<!-- Node2&#45;&gt;Node35 -->
<g id="edge48" class="edge">
<title>Node2&#45;&gt;Node35</title>
<path fill="none" stroke="midnightblue" d="M552.66,-715.74C545.18,-761.56 522.61,-858.15 461,-906.5 413.95,-943.42 345.55,-952.28 294.05,-952.86"/>
<polygon fill="midnightblue" stroke="midnightblue" points="556.14,-716.16 554.18,-705.75 549.22,-715.11 556.14,-716.16"/>
</g>
<!-- Node36 -->
<g id="node36" class="node">
<title>Node36</title>
<g id="a_node36"><a xlink:href="namespacecpinti_1_1gestionnaire__tache.html#ace8684d7861881e3535f5eaa6008b94f" target="_top" xlink:title=" ">
<polygon fill="white" stroke="black" points="331.5,-835.5 331.5,-865.5 459.5,-865.5 459.5,-835.5 331.5,-835.5"/>
<text text-anchor="start" x="339.5" y="-853.5" font-family="Helvetica,sans-Serif" font-size="10.00">cpinti::gestionnaire</text>
<text text-anchor="middle" x="395.5" y="-842.5" font-family="Helvetica,sans-Serif" font-size="10.00">_tache::supprimer_Thread</text>
</a>
</g>
</g>
<!-- Node2&#45;&gt;Node36 -->
<g id="edge50" class="edge">
<title>Node2&#45;&gt;Node36</title>
<path fill="none" stroke="midnightblue" d="M533.63,-712.94C500.63,-746.04 439.78,-807.08 411.58,-835.37"/>
<polygon fill="midnightblue" stroke="midnightblue" points="536.41,-715.11 540.99,-705.55 531.46,-710.16 536.41,-715.11"/>
</g>
<!-- Node3&#45;&gt;Node4 -->
<g id="edge3" class="edge">
<title>Node3&#45;&gt;Node4</title>
<path fill="none" stroke="midnightblue" d="M319.97,-1357.9C303.77,-1360.16 287.02,-1362.5 272.07,-1364.58"/>
<polygon fill="midnightblue" stroke="midnightblue" points="320.54,-1361.35 329.96,-1356.5 319.58,-1354.42 320.54,-1361.35"/>
</g>
<!-- Node5&#45;&gt;Node6 -->
<g id="edge5" class="edge">
<title>Node5&#45;&gt;Node6</title>
<path fill="none" stroke="midnightblue" d="M153.83,-1268.5C138.22,-1270.6 121.87,-1272.81 107.16,-1274.8"/>
<polygon fill="midnightblue" stroke="midnightblue" points="154.51,-1271.94 163.95,-1267.13 153.57,-1265 154.51,-1271.94"/>
</g>
<!-- Node7&#45;&gt;Node8 -->
<g id="edge7" class="edge">
<title>Node7&#45;&gt;Node8</title>
<path fill="none" stroke="midnightblue" d="M328.12,-1038.43C310.77,-1038.93 292.3,-1039.47 275.73,-1039.95"/>
<polygon fill="midnightblue" stroke="midnightblue" points="328.29,-1041.93 338.18,-1038.14 328.08,-1034.93 328.29,-1041.93"/>
</g>
<!-- Node13&#45;&gt;Node14 -->
<g id="edge16" class="edge">
<title>Node13&#45;&gt;Node14</title>
<path fill="none" stroke="midnightblue" d="M330.43,-357.75C310.47,-363.44 288.82,-369.61 270.18,-374.92"/>
<polygon fill="midnightblue" stroke="midnightblue" points="331.42,-361.11 340.08,-355 329.5,-354.38 331.42,-361.11"/>
</g>
<!-- Node15&#45;&gt;Node10 -->
<g id="edge18" class="edge">
<title>Node15&#45;&gt;Node10</title>
<path fill="none" stroke="midnightblue" d="M357.71,-658.43C348.6,-655.02 338.89,-651.25 330,-647.5 313.69,-640.63 311.27,-634.37 294,-630.5 231.12,-616.4 209.83,-609.21 149,-630.5 116.2,-641.98 86.39,-670.7 70.22,-688.5"/>
<polygon fill="midnightblue" stroke="midnightblue" points="356.72,-661.79 367.31,-661.96 359.14,-655.22 356.72,-661.79"/>
</g>
<!-- Node16 -->
<g id="node16" class="node">
<title>Node16</title>
<g id="a_node16"><a xlink:href="namespacecpinti.html#a8e50a29571c8f05af1d4735a6530688d" target="_top" xlink:title=" ">
<polygon fill="white" stroke="black" points="172,-639.5 172,-669.5 271,-669.5 271,-639.5 172,-639.5"/>
<text text-anchor="start" x="180" y="-657.5" font-family="Helvetica,sans-Serif" font-size="10.00">cpinti::cpinti_GEST</text>
<text text-anchor="middle" x="221.5" y="-646.5" font-family="Helvetica,sans-Serif" font-size="10.00">_BUFF_c</text>
</a>
</g>
</g>
<!-- Node15&#45;&gt;Node16 -->
<g id="edge19" class="edge">
<title>Node15&#45;&gt;Node16</title>
<path fill="none" stroke="midnightblue" d="M319.82,-664.12C303.38,-662.49 286.37,-660.81 271.27,-659.32"/>
<polygon fill="midnightblue" stroke="midnightblue" points="319.67,-667.62 329.96,-665.12 320.36,-660.65 319.67,-667.62"/>
</g>
<!-- Node15&#45;&gt;Node17 -->
<g id="edge20" class="edge">
<title>Node15&#45;&gt;Node17</title>
<path fill="none" stroke="midnightblue" d="M350.96,-658.14C343.71,-655.12 336.46,-651.58 330,-647.5 311.14,-635.58 312.95,-624.28 294,-612.5 260.88,-591.91 158.45,-559.04 99.83,-541.14"/>
<polygon fill="midnightblue" stroke="midnightblue" points="350.19,-661.59 360.78,-661.92 352.71,-655.06 350.19,-661.59"/>
</g>
<!-- Node15&#45;&gt;Node18 -->
<g id="edge21" class="edge">
<title>Node15&#45;&gt;Node18</title>
<path fill="none" stroke="midnightblue" d="M333.36,-682.88C311.16,-687 286.56,-691.58 266.17,-695.37"/>
<polygon fill="midnightblue" stroke="midnightblue" points="334.17,-686.28 343.36,-681.01 332.89,-679.4 334.17,-686.28"/>
</g>
<!-- Node15&#45;&gt;Node19 -->
<g id="edge23" class="edge">
<title>Node15&#45;&gt;Node19</title>
<path fill="none" stroke="midnightblue" d="M343.94,-657.54C338.85,-654.77 334.07,-651.46 330,-647.5 299.41,-617.76 323.98,-588.87 294,-558.5 287.47,-551.89 279.27,-546.66 270.77,-542.56"/>
<polygon fill="midnightblue" stroke="midnightblue" points="342.8,-660.88 353.34,-661.98 345.78,-654.55 342.8,-660.88"/>
</g>
<!-- Node18&#45;&gt;Node10 -->
<g id="edge22" class="edge">
<title>Node18&#45;&gt;Node10</title>
<path fill="none" stroke="midnightblue" d="M166.71,-703.5C144.89,-703.5 120.07,-703.5 99.61,-703.5"/>
<polygon fill="midnightblue" stroke="midnightblue" points="166.82,-707 176.82,-703.5 166.82,-700 166.82,-707"/>
</g>
<!-- Node19&#45;&gt;Node17 -->
<g id="edge24" class="edge">
<title>Node19&#45;&gt;Node17</title>
<path fill="none" stroke="midnightblue" d="M162.22,-528.5C141.55,-528.5 118.71,-528.5 99.65,-528.5"/>
<polygon fill="midnightblue" stroke="midnightblue" points="162.48,-532 172.48,-528.5 162.48,-525 162.48,-532"/>
</g>
<!-- Node26&#45;&gt;Node5 -->
<g id="edge36" class="edge">
<title>Node26&#45;&gt;Node5</title>
<path fill="none" stroke="midnightblue" d="M375.93,-1161.59C357.29,-1183.39 326.71,-1215.63 294,-1235.5 288.4,-1238.9 282.27,-1241.88 276.01,-1244.49"/>
<polygon fill="midnightblue" stroke="midnightblue" points="378.73,-1163.7 382.47,-1153.79 373.36,-1159.2 378.73,-1163.7"/>
</g>
<!-- Node26&#45;&gt;Node25 -->
<g id="edge40" class="edge">
<title>Node26&#45;&gt;Node25</title>
<path fill="none" stroke="midnightblue" d="M354.86,-1158.17C336.53,-1166.97 314.35,-1177.21 294,-1185.5 285.6,-1188.92 276.53,-1192.32 267.77,-1195.45"/>
<polygon fill="midnightblue" stroke="midnightblue" points="356.59,-1161.22 364.07,-1153.71 353.54,-1154.92 356.59,-1161.22"/>
</g>
<!-- Node27 -->
<g id="node27" class="node">
<title>Node27</title>
<g id="a_node27"><a xlink:href="namespacecpinti.html#add88e43780041b1587942a9bc7aa6f0d" target="_top" xlink:title=" ">
<polygon fill="white" stroke="black" points="0,-1138 0,-1157 113,-1157 113,-1138 0,-1138"/>
<text text-anchor="middle" x="56.5" y="-1145" font-family="Helvetica,sans-Serif" font-size="10.00">cpinti::cpinti_doevents</text>
</a>
</g>
</g>
<!-- Node26&#45;&gt;Node27 -->
<g id="edge37" class="edge">
<title>Node26&#45;&gt;Node27</title>
<path fill="none" stroke="midnightblue" d="M320.53,-1140.48C258.02,-1142.14 169.87,-1144.5 113.2,-1146.01"/>
<polygon fill="midnightblue" stroke="midnightblue" points="320.81,-1143.97 330.72,-1140.2 320.63,-1136.97 320.81,-1143.97"/>
</g>
<!-- Node28 -->
<g id="node28" class="node">
<title>Node28</title>
<g id="a_node28"><a xlink:href="namespacecpinti.html#a8235499e69d1e950b8ad549075f21a3d" target="_top" xlink:title=" ">
<polygon fill="white" stroke="black" points="169,-1157 169,-1176 274,-1176 274,-1157 169,-1157"/>
<text text-anchor="middle" x="221.5" y="-1164" font-family="Helvetica,sans-Serif" font-size="10.00">cpinti::cpinti_USleep</text>
</a>
</g>
</g>
<!-- Node26&#45;&gt;Node28 -->
<g id="edge38" class="edge">
<title>Node26&#45;&gt;Node28</title>
<path fill="none" stroke="midnightblue" d="M320.71,-1150.51C304.97,-1153.07 288.68,-1155.73 274,-1158.12"/>
<polygon fill="midnightblue" stroke="midnightblue" points="321.63,-1153.91 330.94,-1148.85 320.51,-1147 321.63,-1153.91"/>
</g>
<!-- Node29 -->
<g id="node29" class="node">
<title>Node29</title>
<g id="a_node29"><a xlink:href="core_8cpp.html#a8072a106077bf5b87885ed3fbafc7229" target="_top" xlink:title=" ">
<polygon fill="white" stroke="black" points="174,-1081 174,-1100 269,-1100 269,-1081 174,-1081"/>
<text text-anchor="middle" x="221.5" y="-1088" font-family="Helvetica,sans-Serif" font-size="10.00">Interruption_Timer</text>
</a>
</g>
</g>
<!-- Node26&#45;&gt;Node29 -->
<g id="edge41" class="edge">
<title>Node26&#45;&gt;Node29</title>
<path fill="none" stroke="midnightblue" d="M330.73,-1120.71C305.67,-1113.71 277.91,-1105.96 256.77,-1100.06"/>
<polygon fill="midnightblue" stroke="midnightblue" points="329.98,-1124.13 340.55,-1123.44 331.86,-1117.38 329.98,-1124.13"/>
</g>
<!-- Node28&#45;&gt;Node27 -->
<g id="edge39" class="edge">
<title>Node28&#45;&gt;Node27</title>
<path fill="none" stroke="midnightblue" d="M158.75,-1159.3C143.8,-1157.56 127.91,-1155.71 113.25,-1154"/>
<polygon fill="midnightblue" stroke="midnightblue" points="158.59,-1162.81 168.93,-1160.49 159.4,-1155.85 158.59,-1162.81"/>
</g>
<!-- Node30&#45;&gt;Node14 -->
<g id="edge43" class="edge">
<title>Node30&#45;&gt;Node14</title>
<path fill="none" stroke="midnightblue" d="M334.06,-420.28C313.11,-414.31 289.94,-407.71 270.16,-402.08"/>
<polygon fill="midnightblue" stroke="midnightblue" points="333.25,-423.69 343.82,-423.06 335.17,-416.96 333.25,-423.69"/>
</g>
<!-- Node32 -->
<g id="node32" class="node">
<title>Node32</title>
<g id="a_node32"><a xlink:href="namespacecpinti_1_1net.html#a127fd61520e3c48357ce8511fb41ca38" target="_top" xlink:title=" ">
<polygon fill="white" stroke="black" points="178.5,-49.5 178.5,-79.5 264.5,-79.5 264.5,-49.5 178.5,-49.5"/>
<text text-anchor="start" x="186.5" y="-67.5" font-family="Helvetica,sans-Serif" font-size="10.00">cpinti::net::cpinti</text>
<text text-anchor="middle" x="221.5" y="-56.5" font-family="Helvetica,sans-Serif" font-size="10.00">_ping_icmp</text>
</a>
</g>
</g>
<!-- Node31&#45;&gt;Node32 -->
<g id="edge45" class="edge">
<title>Node31&#45;&gt;Node32</title>
<path fill="none" stroke="midnightblue" d="M333.15,-63.21C310.5,-63.48 285.35,-63.77 264.76,-64.01"/>
<polygon fill="midnightblue" stroke="midnightblue" points="333.4,-66.71 343.36,-63.09 333.32,-59.71 333.4,-66.71"/>
</g>
<!-- Node34 -->
<g id="node34" class="node">
<title>Node34</title>
<g id="a_node34"><a xlink:href="namespacecpinti_1_1gestionnaire__tache.html#a673eddce3cf102d14f24f4b0a7b916ba" target="_top" xlink:title=" ">
<polygon fill="white" stroke="black" points="163.5,-0.5 163.5,-30.5 279.5,-30.5 279.5,-0.5 163.5,-0.5"/>
<text text-anchor="start" x="171.5" y="-18.5" font-family="Helvetica,sans-Serif" font-size="10.00">cpinti::gestionnaire</text>
<text text-anchor="middle" x="221.5" y="-7.5" font-family="Helvetica,sans-Serif" font-size="10.00">_tache::switch_context</text>
</a>
</g>
</g>
<!-- Node33&#45;&gt;Node34 -->
<g id="edge47" class="edge">
<title>Node33&#45;&gt;Node34</title>
<path fill="none" stroke="midnightblue" d="M329.94,-16.75C313.38,-16.56 295.68,-16.35 279.53,-16.16"/>
<polygon fill="midnightblue" stroke="midnightblue" points="330.04,-20.25 340.08,-16.87 330.12,-13.25 330.04,-20.25"/>
</g>
<!-- Node35&#45;&gt;Node9 -->
<g id="edge49" class="edge">
<title>Node35&#45;&gt;Node9</title>
<path fill="none" stroke="midnightblue" d="M138.6,-959.55C129.04,-960.84 119.5,-962.13 110.48,-963.35"/>
<polygon fill="midnightblue" stroke="midnightblue" points="139.09,-963.02 148.53,-958.21 138.15,-956.08 139.09,-963.02"/>
</g>
<!-- Node36&#45;&gt;Node23 -->
<g id="edge53" class="edge">
<title>Node36&#45;&gt;Node23</title>
<path fill="none" stroke="midnightblue" d="M331.8,-868.36C312.35,-873.9 291.17,-879.94 272.69,-885.2"/>
<polygon fill="midnightblue" stroke="midnightblue" points="332.83,-871.71 341.49,-865.6 330.91,-864.98 332.83,-871.71"/>
</g>
<!-- Node36&#45;&gt;Node35 -->
<g id="edge54" class="edge">
<title>Node36&#45;&gt;Node35</title>
<path fill="none" stroke="midnightblue" d="M369.67,-872.21C350.17,-888.38 321.76,-910.07 294,-924.5 287.61,-927.82 280.67,-930.82 273.7,-933.49"/>
<polygon fill="midnightblue" stroke="midnightblue" points="372.06,-874.77 377.46,-865.65 367.55,-869.42 372.06,-874.77"/>
</g>
<!-- Node37 -->
<g id="node37" class="node">
<title>Node37</title>
<g id="a_node37"><a xlink:href="namespacecpinti_1_1gestionnaire__tache.html#a575898d4f3044f265c999aca5721a17f" target="_top" xlink:title=" ">
<polygon fill="white" stroke="black" points="168,-776 168,-817 275,-817 275,-776 168,-776"/>
<text text-anchor="start" x="176" y="-805" font-family="Helvetica,sans-Serif" font-size="10.00">cpinti::gestionnaire</text>
<text text-anchor="start" x="176" y="-794" font-family="Helvetica,sans-Serif" font-size="10.00">_tache::cpinti_arreter</text>
<text text-anchor="middle" x="221.5" y="-783" font-family="Helvetica,sans-Serif" font-size="10.00">_thread</text>
</a>
</g>
</g>
<!-- Node36&#45;&gt;Node37 -->
<g id="edge51" class="edge">
<title>Node36&#45;&gt;Node37</title>
<path fill="none" stroke="midnightblue" d="M337.01,-832.45C317.07,-826.19 294.83,-819.21 275.29,-813.07"/>
<polygon fill="midnightblue" stroke="midnightblue" points="336,-835.8 346.59,-835.46 338.1,-829.12 336,-835.8"/>
</g>
<!-- Node38 -->
<g id="node38" class="node">
<title>Node38</title>
<g id="a_node38"><a xlink:href="namespacecpinti_1_1gestionnaire__tache.html#a0c0510966125e1a76026b112613397e5" target="_top" xlink:title=" ">
<polygon fill="white" stroke="black" points="161,-835.5 161,-865.5 282,-865.5 282,-835.5 161,-835.5"/>
<text text-anchor="start" x="169" y="-853.5" font-family="Helvetica,sans-Serif" font-size="10.00">cpinti::gestionnaire</text>
<text text-anchor="middle" x="221.5" y="-842.5" font-family="Helvetica,sans-Serif" font-size="10.00">_tache::cpinti_fin_thread</text>
</a>
</g>
</g>
<!-- Node36&#45;&gt;Node38 -->
<g id="edge52" class="edge">
<title>Node36&#45;&gt;Node38</title>
<path fill="none" stroke="midnightblue" d="M321.11,-850.5C308.1,-850.5 294.7,-850.5 282.13,-850.5"/>
<polygon fill="midnightblue" stroke="midnightblue" points="321.43,-854 331.43,-850.5 321.43,-847 321.43,-854"/>
</g>
</g>
</svg>
