<?xml version="1.0" encoding="UTF-8" standalone="no"?>
<!DOCTYPE svg PUBLIC "-//W3C//DTD SVG 1.1//EN"
 "http://www.w3.org/Graphics/SVG/1.1/DTD/svg11.dtd">
<!-- Generated by graphviz version 2.44.0 ()
 -->
<!-- Title: cpc_cpinti_debug_cpinticore Pages: 1 -->
<svg width="304pt" height="88pt"
 viewBox="0.00 0.00 304.00 88.00" xmlns="http://www.w3.org/2000/svg" xmlns:xlink="http://www.w3.org/1999/xlink">
<g id="graph0" class="graph" transform="scale(1 1) rotate(0) translate(4 84)">
<title>cpc_cpinti_debug_cpinticore</title>
<polygon fill="white" stroke="transparent" points="-4,4 -4,-84 300,-84 300,4 -4,4"/>
<!-- Node1 -->
<g id="node1" class="node">
<title>Node1</title>
<g id="a_node1"><a xlink:title=" ">
<polygon fill="#bfbfbf" stroke="black" points="156,-30 156,-49 296,-49 296,-30 156,-30"/>
<text text-anchor="middle" x="226" y="-37" font-family="Helvetica,sans-Serif" font-size="10.00">cpc_cpinti_debug_cpinticore</text>
</a>
</g>
</g>
<!-- Node2 -->
<g id="node2" class="node">
<title>Node2</title>
<g id="a_node2"><a xlink:href="class_cpcdos_o_sx___c_pinti_core.html#abce822b73edea7e720f4afa7c677bbce" target="_top" xlink:title=" ">
<polygon fill="white" stroke="black" points="0,-49.5 0,-79.5 120,-79.5 120,-49.5 0,-49.5"/>
<text text-anchor="start" x="8" y="-67.5" font-family="Helvetica,sans-Serif" font-size="10.00">CpcdosOSx_CPintiCore</text>
<text text-anchor="middle" x="60" y="-56.5" font-family="Helvetica,sans-Serif" font-size="10.00">::debug_log</text>
</a>
</g>
</g>
<!-- Node1&#45;&gt;Node2 -->
<g id="edge1" class="edge">
<title>Node1&#45;&gt;Node2</title>
<path fill="none" stroke="midnightblue" d="M152.62,-50.53C141.73,-52.19 130.62,-53.89 120.05,-55.5"/>
<polygon fill="midnightblue" stroke="midnightblue" points="153.17,-53.99 162.53,-49.02 152.12,-47.07 153.17,-53.99"/>
</g>
<!-- Node3 -->
<g id="node3" class="node">
<title>Node3</title>
<g id="a_node3"><a xlink:href="class_cpcdos_o_sx___c_pinti_core.html#aa3eccd1bc4021930209decf74e086635" target="_top" xlink:title=" ">
<polygon fill="white" stroke="black" points="0,-0.5 0,-30.5 120,-30.5 120,-0.5 0,-0.5"/>
<text text-anchor="start" x="8" y="-18.5" font-family="Helvetica,sans-Serif" font-size="10.00">CpcdosOSx_CPintiCore</text>
<text text-anchor="middle" x="60" y="-7.5" font-family="Helvetica,sans-Serif" font-size="10.00">::fdebug_log</text>
</a>
</g>
</g>
<!-- Node1&#45;&gt;Node3 -->
<g id="edge2" class="edge">
<title>Node1&#45;&gt;Node3</title>
<path fill="none" stroke="midnightblue" d="M149.53,-28.46C139.7,-27.02 129.73,-25.56 120.22,-24.17"/>
<polygon fill="midnightblue" stroke="midnightblue" points="149.31,-31.96 159.71,-29.95 150.32,-25.03 149.31,-31.96"/>
</g>
</g>
</svg>
