<?xml version="1.0" encoding="UTF-8" standalone="no"?>
<!DOCTYPE svg PUBLIC "-//W3C//DTD SVG 1.1//EN"
 "http://www.w3.org/Graphics/SVG/1.1/DTD/svg11.dtd">
<!-- Generated by graphviz version 2.44.0 ()
 -->
<!-- Title: cpc_cpinti_debug_plus_cpinticore Pages: 1 -->
<svg width="777pt" height="1417pt"
 viewBox="0.00 0.00 777.00 1417.00" xmlns="http://www.w3.org/2000/svg" xmlns:xlink="http://www.w3.org/1999/xlink">
<g id="graph0" class="graph" transform="scale(1 1) rotate(0) translate(4 1413)">
<title>cpc_cpinti_debug_plus_cpinticore</title>
<polygon fill="white" stroke="transparent" points="-4,4 -4,-1413 773,-1413 773,4 -4,4"/>
<!-- Node1 -->
<g id="node1" class="node">
<title>Node1</title>
<g id="a_node1"><a xlink:title=" ">
<polygon fill="#bfbfbf" stroke="black" points="653,-743.5 653,-773.5 769,-773.5 769,-743.5 653,-743.5"/>
<text text-anchor="start" x="661" y="-761.5" font-family="Helvetica,sans-Serif" font-size="10.00">cpc_cpinti_debug_plus</text>
<text text-anchor="middle" x="711" y="-750.5" font-family="Helvetica,sans-Serif" font-size="10.00">_cpinticore</text>
</a>
</g>
</g>
<!-- Node2 -->
<g id="node2" class="node">
<title>Node2</title>
<g id="a_node2"><a xlink:href="namespacecpinti__dbg.html#a119c14f1b5f4849696decac82a512762" target="_top" xlink:title=" ">
<polygon fill="white" stroke="black" points="508,-768.5 508,-798.5 606,-798.5 606,-768.5 508,-768.5"/>
<text text-anchor="start" x="516" y="-786.5" font-family="Helvetica,sans-Serif" font-size="10.00">cpinti_dbg::CPINTI</text>
<text text-anchor="middle" x="557" y="-775.5" font-family="Helvetica,sans-Serif" font-size="10.00">_DEBUG</text>
</a>
</g>
</g>
<!-- Node1&#45;&gt;Node2 -->
<g id="edge1" class="edge">
<title>Node1&#45;&gt;Node2</title>
<path fill="none" stroke="midnightblue" d="M642.78,-769.56C630.53,-771.57 617.96,-773.64 606.39,-775.54"/>
<polygon fill="midnightblue" stroke="midnightblue" points="643.67,-772.96 652.97,-767.88 642.53,-766.05 643.67,-772.96"/>
</g>
<!-- Node40 -->
<g id="node40" class="node">
<title>Node40</title>
<g id="a_node40"><a xlink:href="class_cpcdos_o_sx___c_pinti_core.html#a27f2b54b40f204711faa951d44bb5f76" target="_top" xlink:title=" ">
<polygon fill="white" stroke="black" points="497,-719.5 497,-749.5 617,-749.5 617,-719.5 497,-719.5"/>
<text text-anchor="start" x="505" y="-737.5" font-family="Helvetica,sans-Serif" font-size="10.00">CpcdosOSx_CPintiCore</text>
<text text-anchor="middle" x="557" y="-726.5" font-family="Helvetica,sans-Serif" font-size="10.00">::debug_log_plus</text>
</a>
</g>
</g>
<!-- Node1&#45;&gt;Node40 -->
<g id="edge55" class="edge">
<title>Node1&#45;&gt;Node40</title>
<path fill="none" stroke="midnightblue" d="M642.96,-747.92C634.36,-746.56 625.59,-745.17 617.13,-743.84"/>
<polygon fill="midnightblue" stroke="midnightblue" points="642.54,-751.39 652.97,-749.5 643.64,-744.48 642.54,-751.39"/>
</g>
<!-- Node3 -->
<g id="node3" class="node">
<title>Node3</title>
<g id="a_node3"><a xlink:href="namespacecpinti_1_1gestionnaire__tache.html#a0ac5449471b1ca1bd90d9febec477342" target="_top" xlink:title=" ">
<polygon fill="white" stroke="black" points="330,-1378.5 330,-1408.5 461,-1408.5 461,-1378.5 330,-1378.5"/>
<text text-anchor="start" x="338" y="-1396.5" font-family="Helvetica,sans-Serif" font-size="10.00">cpinti::gestionnaire</text>
<text text-anchor="middle" x="395.5" y="-1385.5" font-family="Helvetica,sans-Serif" font-size="10.00">_tache::ajouter_Processus</text>
</a>
</g>
</g>
<!-- Node2&#45;&gt;Node3 -->
<g id="edge2" class="edge">
<title>Node2&#45;&gt;Node3</title>
<path fill="none" stroke="midnightblue" d="M554.95,-808.72C550.33,-908.4 528.98,-1273.88 461,-1363.5 456.37,-1369.6 450.2,-1374.51 443.51,-1378.44"/>
<polygon fill="midnightblue" stroke="midnightblue" points="558.45,-808.8 555.4,-798.66 551.45,-808.49 558.45,-808.8"/>
</g>
<!-- Node4 -->
<g id="node4" class="node">
<title>Node4</title>
<g id="a_node4"><a xlink:href="namespacecpinti_1_1gestionnaire__tache.html#a8c7c5649614ba9fb24d07fc01370efdb" target="_top" xlink:title=" ">
<polygon fill="white" stroke="black" points="171,-1338 171,-1379 272,-1379 272,-1338 171,-1338"/>
<text text-anchor="start" x="179" y="-1367" font-family="Helvetica,sans-Serif" font-size="10.00">cpinti::gestionnaire</text>
<text text-anchor="start" x="179" y="-1356" font-family="Helvetica,sans-Serif" font-size="10.00">_tache::cpinti_creer</text>
<text text-anchor="middle" x="221.5" y="-1345" font-family="Helvetica,sans-Serif" font-size="10.00">_processus</text>
</a>
</g>
</g>
<!-- Node2&#45;&gt;Node4 -->
<g id="edge11" class="edge">
<title>Node2&#45;&gt;Node4</title>
<path fill="none" stroke="midnightblue" d="M555.45,-808.88C552.79,-906.73 537.93,-1257.69 461,-1330.5 434.66,-1355.43 333.94,-1359.41 272.13,-1359.4"/>
<polygon fill="midnightblue" stroke="midnightblue" points="558.96,-808.81 555.71,-798.72 551.96,-808.63 558.96,-808.81"/>
</g>
<!-- Node5 -->
<g id="node5" class="node">
<title>Node5</title>
<g id="a_node5"><a xlink:href="namespacecpinti_1_1gestionnaire__tache.html#a6e5e5771fd2998d286a459f65136f6ab" target="_top" xlink:title=" ">
<polygon fill="white" stroke="black" points="338,-1290.5 338,-1320.5 453,-1320.5 453,-1290.5 338,-1290.5"/>
<text text-anchor="start" x="346" y="-1308.5" font-family="Helvetica,sans-Serif" font-size="10.00">cpinti::gestionnaire</text>
<text text-anchor="middle" x="395.5" y="-1297.5" font-family="Helvetica,sans-Serif" font-size="10.00">_tache::ajouter_Thread</text>
</a>
</g>
</g>
<!-- Node2&#45;&gt;Node5 -->
<g id="edge4" class="edge">
<title>Node2&#45;&gt;Node5</title>
<path fill="none" stroke="midnightblue" d="M554.15,-808.56C547.07,-898.12 519.22,-1200.97 461,-1275.5 456.29,-1281.53 450.07,-1286.41 443.36,-1290.32"/>
<polygon fill="midnightblue" stroke="midnightblue" points="557.64,-808.74 554.92,-798.5 550.66,-808.2 557.64,-808.74"/>
</g>
<!-- Node6 -->
<g id="node6" class="node">
<title>Node6</title>
<g id="a_node6"><a xlink:href="namespacecpinti_1_1gestionnaire__tache.html#a51999b0d5e6551d7384fd8da9cd6620e" target="_top" xlink:title=" ">
<polygon fill="white" stroke="black" points="171,-1275 171,-1316 272,-1316 272,-1275 171,-1275"/>
<text text-anchor="start" x="179" y="-1304" font-family="Helvetica,sans-Serif" font-size="10.00">cpinti::gestionnaire</text>
<text text-anchor="start" x="179" y="-1293" font-family="Helvetica,sans-Serif" font-size="10.00">_tache::cpinti_creer</text>
<text text-anchor="middle" x="221.5" y="-1282" font-family="Helvetica,sans-Serif" font-size="10.00">_thread</text>
</a>
</g>
</g>
<!-- Node2&#45;&gt;Node6 -->
<g id="edge12" class="edge">
<title>Node2&#45;&gt;Node6</title>
<path fill="none" stroke="midnightblue" d="M554.31,-808.73C547.97,-895.51 522.76,-1179.83 461,-1242.5 447.77,-1255.92 337.93,-1276.26 272.02,-1287.43"/>
<polygon fill="midnightblue" stroke="midnightblue" points="557.8,-808.93 555.02,-798.71 550.82,-808.44 557.8,-808.93"/>
</g>
<!-- Node7 -->
<g id="node7" class="node">
<title>Node7</title>
<g id="a_node7"><a xlink:href="namespacecpinti_1_1gestionnaire__fichier.html#ae04b7d30580d07875a05ce6d49a89191" target="_top" xlink:title=" ">
<polygon fill="white" stroke="black" points="338.5,-1202.5 338.5,-1232.5 452.5,-1232.5 452.5,-1202.5 338.5,-1202.5"/>
<text text-anchor="start" x="346.5" y="-1220.5" font-family="Helvetica,sans-Serif" font-size="10.00">cpinti::gestionnaire</text>
<text text-anchor="middle" x="395.5" y="-1209.5" font-family="Helvetica,sans-Serif" font-size="10.00">_fichier::Copier_Fichier</text>
</a>
</g>
</g>
<!-- Node2&#45;&gt;Node7 -->
<g id="edge6" class="edge">
<title>Node2&#45;&gt;Node7</title>
<path fill="none" stroke="midnightblue" d="M552.96,-808.85C543.03,-887.87 509.44,-1127.99 461,-1187.5 456.09,-1193.53 449.69,-1198.42 442.83,-1202.35"/>
<polygon fill="midnightblue" stroke="midnightblue" points="556.45,-809.16 554.2,-798.8 549.5,-808.3 556.45,-809.16"/>
</g>
<!-- Node8 -->
<g id="node8" class="node">
<title>Node8</title>
<g id="a_node8"><a xlink:href="namespacecpinti_1_1gestionnaire__fichier.html#a52067ff600f55ed2731bb7f304f10273" target="_top" xlink:title=" ">
<polygon fill="white" stroke="black" points="167.5,-1209 167.5,-1250 275.5,-1250 275.5,-1209 167.5,-1209"/>
<text text-anchor="start" x="175.5" y="-1238" font-family="Helvetica,sans-Serif" font-size="10.00">cpinti::gestionnaire</text>
<text text-anchor="start" x="175.5" y="-1227" font-family="Helvetica,sans-Serif" font-size="10.00">_fichier::cpinti_Copier</text>
<text text-anchor="middle" x="221.5" y="-1216" font-family="Helvetica,sans-Serif" font-size="10.00">_Fichier</text>
</a>
</g>
</g>
<!-- Node2&#45;&gt;Node8 -->
<g id="edge10" class="edge">
<title>Node2&#45;&gt;Node8</title>
<path fill="none" stroke="midnightblue" d="M552.56,-809.09C542.04,-883.7 508.17,-1098.93 461,-1149.5 460.9,-1149.61 345.96,-1188.14 275.7,-1211.68"/>
<polygon fill="midnightblue" stroke="midnightblue" points="556.08,-809.14 553.99,-798.75 549.15,-808.18 556.08,-809.14"/>
</g>
<!-- Node9 -->
<g id="node9" class="node">
<title>Node9</title>
<g id="a_node9"><a xlink:href="namespacecpinti_1_1gestionnaire__tache.html#ac39e89c68667f074a252569a20c74975" target="_top" xlink:title=" ">
<polygon fill="white" stroke="black" points="3,-1138 3,-1179 110,-1179 110,-1138 3,-1138"/>
<text text-anchor="start" x="11" y="-1167" font-family="Helvetica,sans-Serif" font-size="10.00">cpinti::gestionnaire</text>
<text text-anchor="start" x="11" y="-1156" font-family="Helvetica,sans-Serif" font-size="10.00">_tache::cpinti_arreter</text>
<text text-anchor="middle" x="56.5" y="-1145" font-family="Helvetica,sans-Serif" font-size="10.00">_processus</text>
</a>
</g>
</g>
<!-- Node2&#45;&gt;Node9 -->
<g id="edge8" class="edge">
<title>Node2&#45;&gt;Node9</title>
<path fill="none" stroke="midnightblue" d="M556.14,-808.99C555.07,-869.4 543.84,-1022.56 461,-1107.5 418.31,-1151.27 388.11,-1130.5 330,-1149.5 313.97,-1154.74 310.65,-1158.8 294,-1161.5 230.39,-1171.82 213.44,-1162.56 149,-1161.5 136.45,-1161.29 122.93,-1160.93 110.23,-1160.52"/>
<polygon fill="midnightblue" stroke="midnightblue" points="559.65,-808.86 556.24,-798.83 552.65,-808.79 559.65,-808.86"/>
</g>
<!-- Node10 -->
<g id="node10" class="node">
<title>Node10</title>
<g id="a_node10"><a xlink:href="namespacecpinti_1_1net.html#a0c070039715652789e0814e8a98beb39" target="_top" xlink:title=" ">
<polygon fill="white" stroke="black" points="13.5,-876.5 13.5,-906.5 99.5,-906.5 99.5,-876.5 13.5,-876.5"/>
<text text-anchor="start" x="21.5" y="-894.5" font-family="Helvetica,sans-Serif" font-size="10.00">cpinti::net::cpinti</text>
<text text-anchor="middle" x="56.5" y="-883.5" font-family="Helvetica,sans-Serif" font-size="10.00">_client</text>
</a>
</g>
</g>
<!-- Node2&#45;&gt;Node10 -->
<g id="edge9" class="edge">
<title>Node2&#45;&gt;Node10</title>
<path fill="none" stroke="midnightblue" d="M544.53,-807.86C529.67,-836.34 500.86,-882.27 461,-903.5 343.01,-966.35 176.83,-928.87 99.78,-905.69"/>
<polygon fill="midnightblue" stroke="midnightblue" points="547.83,-809.09 549.2,-798.58 541.57,-805.94 547.83,-809.09"/>
</g>
<!-- Node11 -->
<g id="node11" class="node">
<title>Node11</title>
<g id="a_node11"><a xlink:href="namespacecpinti__dbg.html#a8ac29b30b0d3e7b95ab20f421d7ec3d9" target="_top" xlink:title=" ">
<polygon fill="white" stroke="black" points="346.5,-724.5 346.5,-754.5 444.5,-754.5 444.5,-724.5 346.5,-724.5"/>
<text text-anchor="start" x="354.5" y="-742.5" font-family="Helvetica,sans-Serif" font-size="10.00">cpinti_dbg::CPINTI</text>
<text text-anchor="middle" x="395.5" y="-731.5" font-family="Helvetica,sans-Serif" font-size="10.00">_DEBUG_C</text>
</a>
</g>
</g>
<!-- Node2&#45;&gt;Node11 -->
<g id="edge13" class="edge">
<title>Node2&#45;&gt;Node11</title>
<path fill="none" stroke="midnightblue" d="M497.65,-767.4C480.22,-762.6 461.32,-757.38 444.62,-752.78"/>
<polygon fill="midnightblue" stroke="midnightblue" points="497.14,-770.89 507.71,-770.18 499,-764.15 497.14,-770.89"/>
</g>
<!-- Node12 -->
<g id="node12" class="node">
<title>Node12</title>
<g id="a_node12"><a xlink:href="namespacecpinti_1_1gestionnaire__fichier.html#a01b259b43b24dd5a9f1db1dd4c6b3875" target="_top" xlink:title=" ">
<polygon fill="white" stroke="black" points="343,-665 343,-706 448,-706 448,-665 343,-665"/>
<text text-anchor="start" x="351" y="-694" font-family="Helvetica,sans-Serif" font-size="10.00">cpinti::gestionnaire</text>
<text text-anchor="start" x="351" y="-683" font-family="Helvetica,sans-Serif" font-size="10.00">_fichier::cpinti_Ecrire</text>
<text text-anchor="middle" x="395.5" y="-672" font-family="Helvetica,sans-Serif" font-size="10.00">_Fichier_complet</text>
</a>
</g>
</g>
<!-- Node2&#45;&gt;Node12 -->
<g id="edge14" class="edge">
<title>Node2&#45;&gt;Node12</title>
<path fill="none" stroke="midnightblue" d="M502.77,-763.39C500.78,-762.16 498.84,-760.86 497,-759.5 476.67,-744.5 480.96,-731 461,-715.5 456.61,-712.09 451.77,-708.95 446.78,-706.1"/>
<polygon fill="midnightblue" stroke="midnightblue" points="501.38,-766.63 511.82,-768.42 504.78,-760.51 501.38,-766.63"/>
</g>
<!-- Node13 -->
<g id="node13" class="node">
<title>Node13</title>
<g id="a_node13"><a xlink:href="namespacecpinti_1_1gestionnaire__fichier.html#a0f57ea0f0a609783526dc0680b05e201" target="_top" xlink:title=" ">
<polygon fill="white" stroke="black" points="340.5,-605 340.5,-646 450.5,-646 450.5,-605 340.5,-605"/>
<text text-anchor="start" x="348.5" y="-634" font-family="Helvetica,sans-Serif" font-size="10.00">cpinti::gestionnaire</text>
<text text-anchor="start" x="348.5" y="-623" font-family="Helvetica,sans-Serif" font-size="10.00">_fichier::cpinti_Fichier</text>
<text text-anchor="middle" x="395.5" y="-612" font-family="Helvetica,sans-Serif" font-size="10.00">_Existe</text>
</a>
</g>
</g>
<!-- Node2&#45;&gt;Node13 -->
<g id="edge15" class="edge">
<title>Node2&#45;&gt;Node13</title>
<path fill="none" stroke="midnightblue" d="M499.89,-762.3C498.89,-761.4 497.92,-760.47 497,-759.5 463.34,-724.01 493.78,-691.81 461,-655.5 457.86,-652.02 454.22,-648.91 450.32,-646.14"/>
<polygon fill="midnightblue" stroke="midnightblue" points="498.11,-765.34 508.23,-768.47 502.27,-759.71 498.11,-765.34"/>
</g>
<!-- Node14 -->
<g id="node14" class="node">
<title>Node14</title>
<g id="a_node14"><a xlink:href="namespacecpinti_1_1gestionnaire__fichier.html#aa88fdf5496d3109c3cf1b0c9f76c0d1d" target="_top" xlink:title=" ">
<polygon fill="white" stroke="black" points="173,-545 173,-586 270,-586 270,-545 173,-545"/>
<text text-anchor="start" x="181" y="-574" font-family="Helvetica,sans-Serif" font-size="10.00">cpinti::gestionnaire</text>
<text text-anchor="start" x="181" y="-563" font-family="Helvetica,sans-Serif" font-size="10.00">_fichier::cpinti_Lire</text>
<text text-anchor="middle" x="221.5" y="-552" font-family="Helvetica,sans-Serif" font-size="10.00">_Fichier_complet</text>
</a>
</g>
</g>
<!-- Node2&#45;&gt;Node14 -->
<g id="edge26" class="edge">
<title>Node2&#45;&gt;Node14</title>
<path fill="none" stroke="midnightblue" d="M500.03,-762.9C498.96,-761.82 497.95,-760.69 497,-759.5 434.23,-680.58 537.75,-600.9 461,-535.5 404.94,-487.73 312.81,-520.09 261,-544.8"/>
<polygon fill="midnightblue" stroke="midnightblue" points="497.88,-765.66 507.86,-769.22 502.28,-760.21 497.88,-765.66"/>
</g>
<!-- Node15 -->
<g id="node15" class="node">
<title>Node15</title>
<g id="a_node15"><a xlink:href="namespacecpinti.html#af3fb396e744daa5441044b785ca8b200" target="_top" xlink:title=" ">
<polygon fill="white" stroke="black" points="330,-850 330,-869 461,-869 461,-850 330,-850"/>
<text text-anchor="middle" x="395.5" y="-857" font-family="Helvetica,sans-Serif" font-size="10.00">cpinti::cpinti_GEST_BUFF</text>
</a>
</g>
</g>
<!-- Node2&#45;&gt;Node15 -->
<g id="edge17" class="edge">
<title>Node2&#45;&gt;Node15</title>
<path fill="none" stroke="midnightblue" d="M521.84,-803.76C504.02,-813.93 481.68,-826.05 461,-835.5 449.37,-840.81 436.2,-845.88 424.8,-849.97"/>
<polygon fill="midnightblue" stroke="midnightblue" points="523.79,-806.68 530.71,-798.65 520.3,-800.61 523.79,-806.68"/>
</g>
<!-- Node17 -->
<g id="node17" class="node">
<title>Node17</title>
<g id="a_node17"><a xlink:href="namespacecpinti_1_1net.html#ae75f979d2adaeb1c19ba2a45f8ad2eeb" target="_top" xlink:title=" ">
<polygon fill="white" stroke="black" points="13.5,-701.5 13.5,-731.5 99.5,-731.5 99.5,-701.5 13.5,-701.5"/>
<text text-anchor="start" x="21.5" y="-719.5" font-family="Helvetica,sans-Serif" font-size="10.00">cpinti::net::cpinti</text>
<text text-anchor="middle" x="56.5" y="-708.5" font-family="Helvetica,sans-Serif" font-size="10.00">_serveur</text>
</a>
</g>
</g>
<!-- Node2&#45;&gt;Node17 -->
<g id="edge27" class="edge">
<title>Node2&#45;&gt;Node17</title>
<path fill="none" stroke="midnightblue" d="M497.75,-793.39C448.8,-798.47 379.15,-797.8 330,-764.5 300.38,-744.43 324.43,-711.31 294,-692.5 230.46,-653.23 138.54,-681.49 90.14,-701.42"/>
<polygon fill="midnightblue" stroke="midnightblue" points="498.33,-796.84 507.87,-792.23 497.53,-789.89 498.33,-796.84"/>
</g>
<!-- Node18 -->
<g id="node18" class="node">
<title>Node18</title>
<g id="a_node18"><a xlink:href="namespacecpinti_1_1net__client.html#a2c0e37d915c8350e880ce82fe14cbe43" target="_top" xlink:title=" ">
<polygon fill="white" stroke="black" points="177,-876.5 177,-906.5 266,-906.5 266,-876.5 177,-876.5"/>
<text text-anchor="start" x="185" y="-894.5" font-family="Helvetica,sans-Serif" font-size="10.00">cpinti::net_client</text>
<text text-anchor="middle" x="221.5" y="-883.5" font-family="Helvetica,sans-Serif" font-size="10.00">::Demarrer_client</text>
</a>
</g>
</g>
<!-- Node2&#45;&gt;Node18 -->
<g id="edge31" class="edge">
<title>Node2&#45;&gt;Node18</title>
<path fill="none" stroke="midnightblue" d="M540.47,-806.93C523.84,-829.77 495.18,-863.24 461,-878.5 397.77,-906.73 315.54,-903.66 266.01,-898.12"/>
<polygon fill="midnightblue" stroke="midnightblue" points="543.34,-808.94 546.24,-798.75 537.62,-804.9 543.34,-808.94"/>
</g>
<!-- Node19 -->
<g id="node19" class="node">
<title>Node19</title>
<g id="a_node19"><a xlink:href="namespacecpinti_1_1net__server.html#a8dd4cfd770dcd100f4ababcc7f3dbaa9" target="_top" xlink:title=" ">
<polygon fill="white" stroke="black" points="172.5,-701.5 172.5,-731.5 270.5,-731.5 270.5,-701.5 172.5,-701.5"/>
<text text-anchor="start" x="180.5" y="-719.5" font-family="Helvetica,sans-Serif" font-size="10.00">cpinti::net_server</text>
<text text-anchor="middle" x="221.5" y="-708.5" font-family="Helvetica,sans-Serif" font-size="10.00">::Demarrer_serveur</text>
</a>
</g>
</g>
<!-- Node2&#45;&gt;Node19 -->
<g id="edge32" class="edge">
<title>Node2&#45;&gt;Node19</title>
<path fill="none" stroke="midnightblue" d="M504.91,-801.47C456.76,-815.13 384.12,-827.05 330,-797.5 304.03,-783.32 317.23,-759.83 294,-741.5 287.08,-736.04 278.89,-731.73 270.56,-728.34"/>
<polygon fill="midnightblue" stroke="midnightblue" points="506.2,-804.74 514.79,-798.54 504.21,-798.03 506.2,-804.74"/>
</g>
<!-- Node20 -->
<g id="node20" class="node">
<title>Node20</title>
<g id="a_node20"><a xlink:href="namespacecpinti_1_1gestionnaire__tache.html#a7ad157c33a0e2a1cfe9adbde0c4760d8" target="_top" xlink:title=" ">
<polygon fill="white" stroke="black" points="337.5,-447 337.5,-488 453.5,-488 453.5,-447 337.5,-447"/>
<text text-anchor="start" x="345.5" y="-476" font-family="Helvetica,sans-Serif" font-size="10.00">cpinti::gestionnaire</text>
<text text-anchor="start" x="345.5" y="-465" font-family="Helvetica,sans-Serif" font-size="10.00">_tache::cpinti_get_nom</text>
<text text-anchor="middle" x="395.5" y="-454" font-family="Helvetica,sans-Serif" font-size="10.00">_processus</text>
</a>
</g>
</g>
<!-- Node2&#45;&gt;Node20 -->
<g id="edge25" class="edge">
<title>Node2&#45;&gt;Node20</title>
<path fill="none" stroke="midnightblue" d="M500,-762.92C498.94,-761.84 497.93,-760.7 497,-759.5 426.12,-668.51 526.73,-597.27 461,-502.5 457.15,-496.95 452.13,-492.2 446.59,-488.15"/>
<polygon fill="midnightblue" stroke="midnightblue" points="497.82,-765.66 507.78,-769.28 502.25,-760.24 497.82,-765.66"/>
</g>
<!-- Node21 -->
<g id="node21" class="node">
<title>Node21</title>
<g id="a_node21"><a xlink:href="namespacecpinti_1_1gestionnaire__fichier.html#a15ed875c00b9407b80b72b1f56d72e17" target="_top" xlink:title=" ">
<polygon fill="white" stroke="black" points="333,-387 333,-428 458,-428 458,-387 333,-387"/>
<text text-anchor="start" x="341" y="-416" font-family="Helvetica,sans-Serif" font-size="10.00">cpinti::gestionnaire</text>
<text text-anchor="start" x="341" y="-405" font-family="Helvetica,sans-Serif" font-size="10.00">_fichier::cpinti_Supprimer</text>
<text text-anchor="middle" x="395.5" y="-394" font-family="Helvetica,sans-Serif" font-size="10.00">_Fichier</text>
</a>
</g>
</g>
<!-- Node2&#45;&gt;Node21 -->
<g id="edge28" class="edge">
<title>Node2&#45;&gt;Node21</title>
<path fill="none" stroke="midnightblue" d="M500.03,-763.03C498.95,-761.92 497.94,-760.74 497,-759.5 410.09,-644.68 545.07,-554.42 461,-437.5 458.48,-433.99 455.44,-430.88 452.07,-428.12"/>
<polygon fill="midnightblue" stroke="midnightblue" points="498,-765.9 507.95,-769.55 502.45,-760.49 498,-765.9"/>
</g>
<!-- Node22 -->
<g id="node22" class="node">
<title>Node22</title>
<g id="a_node22"><a xlink:href="namespacecpinti_1_1gestionnaire__fichier.html#a389584e265b41ce10ca6ca8ea808cd4f" target="_top" xlink:title=" ">
<polygon fill="white" stroke="black" points="343.5,-327 343.5,-368 447.5,-368 447.5,-327 343.5,-327"/>
<text text-anchor="start" x="351.5" y="-356" font-family="Helvetica,sans-Serif" font-size="10.00">cpinti::gestionnaire</text>
<text text-anchor="start" x="351.5" y="-345" font-family="Helvetica,sans-Serif" font-size="10.00">_fichier::cpinti_Taille</text>
<text text-anchor="middle" x="395.5" y="-334" font-family="Helvetica,sans-Serif" font-size="10.00">_Fichier</text>
</a>
</g>
</g>
<!-- Node2&#45;&gt;Node22 -->
<g id="edge29" class="edge">
<title>Node2&#45;&gt;Node22</title>
<path fill="none" stroke="midnightblue" d="M500,-763.05C498.93,-761.93 497.93,-760.75 497,-759.5 395.27,-622.64 559.35,-516.81 461,-377.5 457.44,-372.46 452.81,-368.24 447.66,-364.71"/>
<polygon fill="midnightblue" stroke="midnightblue" points="497.95,-765.9 507.88,-769.6 502.43,-760.52 497.95,-765.9"/>
</g>
<!-- Node23 -->
<g id="node23" class="node">
<title>Node23</title>
<g id="a_node23"><a xlink:href="namespace_wrapper___cpcdos.html#a05d09b6fe335777e722d96ad69326bd3" target="_top" xlink:title=" ">
<polygon fill="white" stroke="black" points="336,-278.5 336,-308.5 455,-308.5 455,-278.5 336,-278.5"/>
<text text-anchor="start" x="344" y="-296.5" font-family="Helvetica,sans-Serif" font-size="10.00">Wrapper_Cpcdos::cpinti</text>
<text text-anchor="middle" x="395.5" y="-285.5" font-family="Helvetica,sans-Serif" font-size="10.00">_WRAPPER</text>
</a>
</g>
</g>
<!-- Node2&#45;&gt;Node23 -->
<g id="edge30" class="edge">
<title>Node2&#45;&gt;Node23</title>
<path fill="none" stroke="midnightblue" d="M499.98,-763.07C498.92,-761.94 497.92,-760.75 497,-759.5 438.71,-680.04 520.48,-396.08 461,-317.5 458.4,-314.07 455.26,-311.13 451.78,-308.61"/>
<polygon fill="midnightblue" stroke="midnightblue" points="497.91,-765.9 507.83,-769.64 502.41,-760.54 497.91,-765.9"/>
</g>
<!-- Node24 -->
<g id="node24" class="node">
<title>Node24</title>
<g id="a_node24"><a xlink:href="namespacecpinti_1_1gestionnaire__tache.html#aace982c0d3bc1618caf70ececf929141" target="_top" xlink:title=" ">
<polygon fill="white" stroke="black" points="170.5,-1072.5 170.5,-1102.5 272.5,-1102.5 272.5,-1072.5 170.5,-1072.5"/>
<text text-anchor="start" x="178.5" y="-1090.5" font-family="Helvetica,sans-Serif" font-size="10.00">cpinti::gestionnaire</text>
<text text-anchor="middle" x="221.5" y="-1079.5" font-family="Helvetica,sans-Serif" font-size="10.00">_tache::fermer_core</text>
</a>
</g>
</g>
<!-- Node2&#45;&gt;Node24 -->
<g id="edge33" class="edge">
<title>Node2&#45;&gt;Node24</title>
<path fill="none" stroke="midnightblue" d="M554.52,-808.85C550.05,-860.88 532.16,-979.87 461,-1040.5 433.21,-1064.17 334.06,-1077.32 272.69,-1083.35"/>
<polygon fill="midnightblue" stroke="midnightblue" points="558.02,-809.05 555.29,-798.82 551.04,-808.52 558.02,-809.05"/>
</g>
<!-- Node25 -->
<g id="node25" class="node">
<title>Node25</title>
<g id="a_node25"><a xlink:href="namespacecpinti_1_1interception.html#a71269205d7f5572d106bf3d75cfcf104" target="_top" xlink:title=" ">
<polygon fill="white" stroke="black" points="339.5,-219 339.5,-260 451.5,-260 451.5,-219 339.5,-219"/>
<text text-anchor="start" x="347.5" y="-248" font-family="Helvetica,sans-Serif" font-size="10.00">cpinti::interception</text>
<text text-anchor="start" x="347.5" y="-237" font-family="Helvetica,sans-Serif" font-size="10.00">::initialise_interception</text>
<text text-anchor="middle" x="395.5" y="-226" font-family="Helvetica,sans-Serif" font-size="10.00">_exception</text>
</a>
</g>
</g>
<!-- Node2&#45;&gt;Node25 -->
<g id="edge34" class="edge">
<title>Node2&#45;&gt;Node25</title>
<path fill="none" stroke="midnightblue" d="M499.97,-763.08C498.91,-761.95 497.91,-760.76 497,-759.5 432.77,-671.21 523.04,-359.34 461,-269.5 458.4,-265.74 455.21,-262.44 451.65,-259.55"/>
<polygon fill="midnightblue" stroke="midnightblue" points="497.89,-765.91 507.79,-769.67 502.4,-760.55 497.89,-765.91"/>
</g>
<!-- Node26 -->
<g id="node26" class="node">
<title>Node26</title>
<g id="a_node26"><a xlink:href="namespacecpinti_1_1gestionnaire__tache.html#ad386876c980cb034a2f757e09a1c4977" target="_top" xlink:title=" ">
<polygon fill="white" stroke="black" points="152,-213.5 152,-243.5 291,-243.5 291,-213.5 152,-213.5"/>
<text text-anchor="start" x="160" y="-231.5" font-family="Helvetica,sans-Serif" font-size="10.00">cpinti::gestionnaire</text>
<text text-anchor="middle" x="221.5" y="-220.5" font-family="Helvetica,sans-Serif" font-size="10.00">_tache::initialiser_Multitache</text>
</a>
</g>
</g>
<!-- Node2&#45;&gt;Node26 -->
<g id="edge35" class="edge">
<title>Node2&#45;&gt;Node26</title>
<path fill="none" stroke="midnightblue" d="M499.95,-763.09C498.9,-761.96 497.91,-760.76 497,-759.5 425.34,-660.16 550.39,-293.23 461,-209.5 436.41,-186.46 347.18,-200.26 285.13,-213.45"/>
<polygon fill="midnightblue" stroke="midnightblue" points="497.86,-765.91 507.76,-769.69 502.38,-760.56 497.86,-765.91"/>
</g>
<!-- Node27 -->
<g id="node27" class="node">
<title>Node27</title>
<g id="a_node27"><a xlink:href="namespacecpinti_1_1gestionnaire__tache.html#a640f909bd791a0d1c0f4d87e58fbb5ae" target="_top" xlink:title=" ">
<polygon fill="white" stroke="black" points="331,-131.5 331,-161.5 460,-161.5 460,-131.5 331,-131.5"/>
<text text-anchor="start" x="339" y="-149.5" font-family="Helvetica,sans-Serif" font-size="10.00">cpinti::gestionnaire</text>
<text text-anchor="middle" x="395.5" y="-138.5" font-family="Helvetica,sans-Serif" font-size="10.00">_tache::Interruption_Timer</text>
</a>
</g>
</g>
<!-- Node2&#45;&gt;Node27 -->
<g id="edge36" class="edge">
<title>Node2&#45;&gt;Node27</title>
<path fill="none" stroke="midnightblue" d="M499.95,-763.09C498.89,-761.96 497.91,-760.76 497,-759.5 421.26,-654.09 534.14,-283.74 461,-176.5 456.82,-170.38 451.06,-165.48 444.69,-161.56"/>
<polygon fill="midnightblue" stroke="midnightblue" points="497.85,-765.91 507.75,-769.7 502.38,-760.57 497.85,-765.91"/>
</g>
<!-- Node31 -->
<g id="node31" class="node">
<title>Node31</title>
<g id="a_node31"><a xlink:href="namespacecpinti_1_1gestionnaire__fichier.html#a0639698a01d0468162c52cde6b75db06" target="_top" xlink:title=" ">
<polygon fill="white" stroke="black" points="344,-545 344,-586 447,-586 447,-545 344,-545"/>
<text text-anchor="start" x="352" y="-574" font-family="Helvetica,sans-Serif" font-size="10.00">cpinti::gestionnaire</text>
<text text-anchor="start" x="352" y="-563" font-family="Helvetica,sans-Serif" font-size="10.00">_fichier::Lire_Fichier</text>
<text text-anchor="middle" x="395.5" y="-552" font-family="Helvetica,sans-Serif" font-size="10.00">_complet</text>
</a>
</g>
</g>
<!-- Node2&#45;&gt;Node31 -->
<g id="edge42" class="edge">
<title>Node2&#45;&gt;Node31</title>
<path fill="none" stroke="midnightblue" d="M499.73,-762.44C498.77,-761.5 497.86,-760.52 497,-759.5 448.91,-702.44 507.68,-653.72 461,-595.5 457.14,-590.68 452.32,-586.6 447.08,-583.15"/>
<polygon fill="midnightblue" stroke="midnightblue" points="497.79,-765.37 507.8,-768.86 502.15,-759.89 497.79,-765.37"/>
</g>
<!-- Node32 -->
<g id="node32" class="node">
<title>Node32</title>
<g id="a_node32"><a xlink:href="namespacecpinti_1_1net__ping.html#a4a1768e58ae8d951dae035575be366f5" target="_top" xlink:title=" ">
<polygon fill="white" stroke="black" points="343.5,-74 343.5,-93 447.5,-93 447.5,-74 343.5,-74"/>
<text text-anchor="middle" x="395.5" y="-81" font-family="Helvetica,sans-Serif" font-size="10.00">cpinti::net_ping::ping</text>
</a>
</g>
</g>
<!-- Node2&#45;&gt;Node32 -->
<g id="edge44" class="edge">
<title>Node2&#45;&gt;Node32</title>
<path fill="none" stroke="midnightblue" d="M499.94,-763.1C498.89,-761.96 497.9,-760.77 497,-759.5 414.57,-644.14 534.1,-243.98 461,-122.5 452.77,-108.82 437.73,-99.32 424.25,-93.13"/>
<polygon fill="midnightblue" stroke="midnightblue" points="497.84,-765.91 507.72,-769.72 502.37,-760.57 497.84,-765.91"/>
</g>
<!-- Node34 -->
<g id="node34" class="node">
<title>Node34</title>
<g id="a_node34"><a xlink:href="namespacecpinti_1_1gestionnaire__tache.html#a828c970178672d3dbc14cdc8d5426968" target="_top" xlink:title=" ">
<polygon fill="white" stroke="black" points="340.5,-22.5 340.5,-52.5 450.5,-52.5 450.5,-22.5 340.5,-22.5"/>
<text text-anchor="start" x="348.5" y="-40.5" font-family="Helvetica,sans-Serif" font-size="10.00">cpinti::gestionnaire</text>
<text text-anchor="middle" x="395.5" y="-29.5" font-family="Helvetica,sans-Serif" font-size="10.00">_tache::SCHEDULER</text>
</a>
</g>
</g>
<!-- Node2&#45;&gt;Node34 -->
<g id="edge46" class="edge">
<title>Node2&#45;&gt;Node34</title>
<path fill="none" stroke="midnightblue" d="M500,-763.18C498.92,-762.02 497.92,-760.8 497,-759.5 407.38,-633.46 549.98,-190.99 461,-64.5 457.65,-59.73 453.28,-55.81 448.41,-52.57"/>
<polygon fill="midnightblue" stroke="midnightblue" points="498.08,-766.14 507.98,-769.92 502.59,-760.79 498.08,-766.14"/>
</g>
<!-- Node36 -->
<g id="node36" class="node">
<title>Node36</title>
<g id="a_node36"><a xlink:href="namespacecpinti_1_1gestionnaire__tache.html#ac43c3c3801eaf41bc3e0b0d184461f96" target="_top" xlink:title=" ">
<polygon fill="white" stroke="black" points="149,-1121.5 149,-1151.5 294,-1151.5 294,-1121.5 149,-1121.5"/>
<text text-anchor="start" x="157" y="-1139.5" font-family="Helvetica,sans-Serif" font-size="10.00">cpinti::gestionnaire</text>
<text text-anchor="middle" x="221.5" y="-1128.5" font-family="Helvetica,sans-Serif" font-size="10.00">_tache::supprimer_Processus</text>
</a>
</g>
</g>
<!-- Node2&#45;&gt;Node36 -->
<g id="edge48" class="edge">
<title>Node2&#45;&gt;Node36</title>
<path fill="none" stroke="midnightblue" d="M555.3,-808.67C552.36,-864.43 537.27,-999.14 461,-1071.5 436.99,-1094.28 355.32,-1113.21 294.2,-1124.65"/>
<polygon fill="midnightblue" stroke="midnightblue" points="558.8,-808.76 555.75,-798.61 551.81,-808.45 558.8,-808.76"/>
</g>
<!-- Node37 -->
<g id="node37" class="node">
<title>Node37</title>
<g id="a_node37"><a xlink:href="namespacecpinti_1_1gestionnaire__tache.html#ace8684d7861881e3535f5eaa6008b94f" target="_top" xlink:title=" ">
<polygon fill="white" stroke="black" points="331.5,-1000.5 331.5,-1030.5 459.5,-1030.5 459.5,-1000.5 331.5,-1000.5"/>
<text text-anchor="start" x="339.5" y="-1018.5" font-family="Helvetica,sans-Serif" font-size="10.00">cpinti::gestionnaire</text>
<text text-anchor="middle" x="395.5" y="-1007.5" font-family="Helvetica,sans-Serif" font-size="10.00">_tache::supprimer_Thread</text>
</a>
</g>
</g>
<!-- Node2&#45;&gt;Node37 -->
<g id="edge50" class="edge">
<title>Node2&#45;&gt;Node37</title>
<path fill="none" stroke="midnightblue" d="M544.44,-808.01C528.12,-841.5 496.34,-902.71 461,-949.5 446.71,-968.42 427.38,-987.52 413.62,-1000.27"/>
<polygon fill="midnightblue" stroke="midnightblue" points="547.62,-809.48 548.81,-798.95 541.32,-806.44 547.62,-809.48"/>
</g>
<!-- Node3&#45;&gt;Node4 -->
<g id="edge3" class="edge">
<title>Node3&#45;&gt;Node4</title>
<path fill="none" stroke="midnightblue" d="M319.97,-1378.33C303.77,-1375.04 287.02,-1371.63 272.07,-1368.59"/>
<polygon fill="midnightblue" stroke="midnightblue" points="319.47,-1381.8 329.96,-1380.37 320.86,-1374.94 319.47,-1381.8"/>
</g>
<!-- Node5&#45;&gt;Node6 -->
<g id="edge5" class="edge">
<title>Node5&#45;&gt;Node6</title>
<path fill="none" stroke="midnightblue" d="M327.58,-1301.61C309.08,-1300.53 289.33,-1299.39 272.02,-1298.38"/>
<polygon fill="midnightblue" stroke="midnightblue" points="327.52,-1305.11 337.7,-1302.2 327.92,-1298.12 327.52,-1305.11"/>
</g>
<!-- Node7&#45;&gt;Node8 -->
<g id="edge7" class="edge">
<title>Node7&#45;&gt;Node8</title>
<path fill="none" stroke="midnightblue" d="M328.12,-1222.13C310.77,-1223.34 292.3,-1224.63 275.73,-1225.79"/>
<polygon fill="midnightblue" stroke="midnightblue" points="328.45,-1225.62 338.18,-1221.43 327.96,-1218.63 328.45,-1225.62"/>
</g>
<!-- Node13&#45;&gt;Node14 -->
<g id="edge16" class="edge">
<title>Node13&#45;&gt;Node14</title>
<path fill="none" stroke="midnightblue" d="M330.43,-603.15C310.47,-596.19 288.82,-588.63 270.18,-582.13"/>
<polygon fill="midnightblue" stroke="midnightblue" points="329.48,-606.53 340.08,-606.52 331.79,-599.92 329.48,-606.53"/>
</g>
<!-- Node15&#45;&gt;Node10 -->
<g id="edge18" class="edge">
<title>Node15&#45;&gt;Node10</title>
<path fill="none" stroke="midnightblue" d="M319.63,-857.61C270.81,-857.44 205.83,-859.23 149,-867.5 132.75,-869.87 115.23,-874.05 99.92,-878.26"/>
<polygon fill="midnightblue" stroke="midnightblue" points="319.78,-861.11 329.8,-857.68 319.82,-854.11 319.78,-861.11"/>
</g>
<!-- Node16 -->
<g id="node16" class="node">
<title>Node16</title>
<g id="a_node16"><a xlink:href="namespacecpinti.html#a8e50a29571c8f05af1d4735a6530688d" target="_top" xlink:title=" ">
<polygon fill="white" stroke="black" points="172,-750.5 172,-780.5 271,-780.5 271,-750.5 172,-750.5"/>
<text text-anchor="start" x="180" y="-768.5" font-family="Helvetica,sans-Serif" font-size="10.00">cpinti::cpinti_GEST</text>
<text text-anchor="middle" x="221.5" y="-757.5" font-family="Helvetica,sans-Serif" font-size="10.00">_BUFF_c</text>
</a>
</g>
</g>
<!-- Node15&#45;&gt;Node16 -->
<g id="edge19" class="edge">
<title>Node15&#45;&gt;Node16</title>
<path fill="none" stroke="midnightblue" d="M350.03,-846.2C343.04,-843.21 336.11,-839.66 330,-835.5 310.22,-822.05 313.5,-809.35 294,-795.5 285.77,-789.65 276.22,-784.66 266.84,-780.52"/>
<polygon fill="midnightblue" stroke="midnightblue" points="348.94,-849.53 359.53,-849.94 351.51,-843.02 348.94,-849.53"/>
</g>
<!-- Node15&#45;&gt;Node17 -->
<g id="edge20" class="edge">
<title>Node15&#45;&gt;Node17</title>
<path fill="none" stroke="midnightblue" d="M326.07,-848.02C275.22,-837.68 205.23,-819.56 149,-790.5 118.87,-774.93 89.34,-748.44 72.3,-731.73"/>
<polygon fill="midnightblue" stroke="midnightblue" points="325.48,-851.47 335.97,-849.99 326.85,-844.61 325.48,-851.47"/>
</g>
<!-- Node15&#45;&gt;Node18 -->
<g id="edge21" class="edge">
<title>Node15&#45;&gt;Node18</title>
<path fill="none" stroke="midnightblue" d="M333.36,-870.88C311.16,-875 286.56,-879.58 266.17,-883.37"/>
<polygon fill="midnightblue" stroke="midnightblue" points="334.17,-874.28 343.36,-869.01 332.89,-867.4 334.17,-874.28"/>
</g>
<!-- Node15&#45;&gt;Node19 -->
<g id="edge23" class="edge">
<title>Node15&#45;&gt;Node19</title>
<path fill="none" stroke="midnightblue" d="M343.66,-845.51C338.66,-842.74 333.98,-839.44 330,-835.5 298.22,-804.02 326.1,-772.67 294,-741.5 287.49,-735.18 279.3,-730.45 270.8,-726.91"/>
<polygon fill="midnightblue" stroke="midnightblue" points="342.38,-848.78 352.91,-849.93 345.4,-842.46 342.38,-848.78"/>
</g>
<!-- Node18&#45;&gt;Node10 -->
<g id="edge22" class="edge">
<title>Node18&#45;&gt;Node10</title>
<path fill="none" stroke="midnightblue" d="M166.71,-891.5C144.89,-891.5 120.07,-891.5 99.61,-891.5"/>
<polygon fill="midnightblue" stroke="midnightblue" points="166.82,-895 176.82,-891.5 166.82,-888 166.82,-895"/>
</g>
<!-- Node19&#45;&gt;Node17 -->
<g id="edge24" class="edge">
<title>Node19&#45;&gt;Node17</title>
<path fill="none" stroke="midnightblue" d="M162.22,-716.5C141.55,-716.5 118.71,-716.5 99.65,-716.5"/>
<polygon fill="midnightblue" stroke="midnightblue" points="162.48,-720 172.48,-716.5 162.48,-713 162.48,-720"/>
</g>
<!-- Node27&#45;&gt;Node26 -->
<g id="edge40" class="edge">
<title>Node27&#45;&gt;Node26</title>
<path fill="none" stroke="midnightblue" d="M349.61,-165.9C342.92,-169.22 336.19,-172.79 330,-176.5 312.84,-186.77 311.65,-194.09 294,-203.5 287.15,-207.15 279.67,-210.45 272.2,-213.36"/>
<polygon fill="midnightblue" stroke="midnightblue" points="351.16,-169.04 358.67,-161.56 348.14,-162.73 351.16,-169.04"/>
</g>
<!-- Node28 -->
<g id="node28" class="node">
<title>Node28</title>
<g id="a_node28"><a xlink:href="namespacecpinti.html#add88e43780041b1587942a9bc7aa6f0d" target="_top" xlink:title=" ">
<polygon fill="white" stroke="black" points="0,-137 0,-156 113,-156 113,-137 0,-137"/>
<text text-anchor="middle" x="56.5" y="-144" font-family="Helvetica,sans-Serif" font-size="10.00">cpinti::cpinti_doevents</text>
</a>
</g>
</g>
<!-- Node27&#45;&gt;Node28 -->
<g id="edge37" class="edge">
<title>Node27&#45;&gt;Node28</title>
<path fill="none" stroke="midnightblue" d="M320.85,-130.95C311.84,-129.53 302.73,-128.32 294,-127.5 229.84,-121.49 213.11,-120.91 149,-127.5 130.92,-129.36 111.15,-133.23 94.63,-136.99"/>
<polygon fill="midnightblue" stroke="midnightblue" points="320.52,-134.44 330.96,-132.63 321.67,-127.54 320.52,-134.44"/>
</g>
<!-- Node29 -->
<g id="node29" class="node">
<title>Node29</title>
<g id="a_node29"><a xlink:href="namespacecpinti.html#a8235499e69d1e950b8ad549075f21a3d" target="_top" xlink:title=" ">
<polygon fill="white" stroke="black" points="169,-175 169,-194 274,-194 274,-175 169,-175"/>
<text text-anchor="middle" x="221.5" y="-182" font-family="Helvetica,sans-Serif" font-size="10.00">cpinti::cpinti_USleep</text>
</a>
</g>
</g>
<!-- Node27&#45;&gt;Node29 -->
<g id="edge38" class="edge">
<title>Node27&#45;&gt;Node29</title>
<path fill="none" stroke="midnightblue" d="M321.15,-162.7C302.25,-166.88 282.51,-171.24 265.7,-174.96"/>
<polygon fill="midnightblue" stroke="midnightblue" points="321.93,-166.12 330.94,-160.54 320.42,-159.28 321.93,-166.12"/>
</g>
<!-- Node30 -->
<g id="node30" class="node">
<title>Node30</title>
<g id="a_node30"><a xlink:href="core_8cpp.html#a8072a106077bf5b87885ed3fbafc7229" target="_top" xlink:title=" ">
<polygon fill="white" stroke="black" points="174,-137 174,-156 269,-156 269,-137 174,-137"/>
<text text-anchor="middle" x="221.5" y="-144" font-family="Helvetica,sans-Serif" font-size="10.00">Interruption_Timer</text>
</a>
</g>
</g>
<!-- Node27&#45;&gt;Node30 -->
<g id="edge41" class="edge">
<title>Node27&#45;&gt;Node30</title>
<path fill="none" stroke="midnightblue" d="M320.74,-146.5C303.23,-146.5 285.04,-146.5 269.13,-146.5"/>
<polygon fill="midnightblue" stroke="midnightblue" points="320.94,-150 330.94,-146.5 320.94,-143 320.94,-150"/>
</g>
<!-- Node29&#45;&gt;Node28 -->
<g id="edge39" class="edge">
<title>Node29&#45;&gt;Node28</title>
<path fill="none" stroke="midnightblue" d="M169.47,-172.6C146.56,-167.26 119.9,-161.05 98.34,-156.02"/>
<polygon fill="midnightblue" stroke="midnightblue" points="168.83,-176.05 179.37,-174.91 170.42,-169.23 168.83,-176.05"/>
</g>
<!-- Node31&#45;&gt;Node14 -->
<g id="edge43" class="edge">
<title>Node31&#45;&gt;Node14</title>
<path fill="none" stroke="midnightblue" d="M333.78,-565.5C312.9,-565.5 289.85,-565.5 270.16,-565.5"/>
<polygon fill="midnightblue" stroke="midnightblue" points="333.82,-569 343.82,-565.5 333.82,-562 333.82,-569"/>
</g>
<!-- Node33 -->
<g id="node33" class="node">
<title>Node33</title>
<g id="a_node33"><a xlink:href="namespacecpinti_1_1net.html#a127fd61520e3c48357ce8511fb41ca38" target="_top" xlink:title=" ">
<polygon fill="white" stroke="black" points="178.5,-49.5 178.5,-79.5 264.5,-79.5 264.5,-49.5 178.5,-49.5"/>
<text text-anchor="start" x="186.5" y="-67.5" font-family="Helvetica,sans-Serif" font-size="10.00">cpinti::net::cpinti</text>
<text text-anchor="middle" x="221.5" y="-56.5" font-family="Helvetica,sans-Serif" font-size="10.00">_ping_icmp</text>
</a>
</g>
</g>
<!-- Node32&#45;&gt;Node33 -->
<g id="edge45" class="edge">
<title>Node32&#45;&gt;Node33</title>
<path fill="none" stroke="midnightblue" d="M333.15,-76.72C310.5,-74.22 285.35,-71.44 264.76,-69.17"/>
<polygon fill="midnightblue" stroke="midnightblue" points="333.04,-80.23 343.36,-77.85 333.8,-73.27 333.04,-80.23"/>
</g>
<!-- Node35 -->
<g id="node35" class="node">
<title>Node35</title>
<g id="a_node35"><a xlink:href="namespacecpinti_1_1gestionnaire__tache.html#a673eddce3cf102d14f24f4b0a7b916ba" target="_top" xlink:title=" ">
<polygon fill="white" stroke="black" points="163.5,-0.5 163.5,-30.5 279.5,-30.5 279.5,-0.5 163.5,-0.5"/>
<text text-anchor="start" x="171.5" y="-18.5" font-family="Helvetica,sans-Serif" font-size="10.00">cpinti::gestionnaire</text>
<text text-anchor="middle" x="221.5" y="-7.5" font-family="Helvetica,sans-Serif" font-size="10.00">_tache::switch_context</text>
</a>
</g>
</g>
<!-- Node34&#45;&gt;Node35 -->
<g id="edge47" class="edge">
<title>Node34&#45;&gt;Node35</title>
<path fill="none" stroke="midnightblue" d="M329.94,-29.24C313.38,-27.12 295.68,-24.86 279.53,-22.8"/>
<polygon fill="midnightblue" stroke="midnightblue" points="329.71,-32.74 340.08,-30.54 330.6,-25.8 329.71,-32.74"/>
</g>
<!-- Node36&#45;&gt;Node9 -->
<g id="edge49" class="edge">
<title>Node36&#45;&gt;Node9</title>
<path fill="none" stroke="midnightblue" d="M138.6,-1147.55C129.04,-1148.84 119.5,-1150.13 110.48,-1151.35"/>
<polygon fill="midnightblue" stroke="midnightblue" points="139.09,-1151.02 148.53,-1146.21 138.15,-1144.08 139.09,-1151.02"/>
</g>
<!-- Node37&#45;&gt;Node24 -->
<g id="edge53" class="edge">
<title>Node37&#45;&gt;Node24</title>
<path fill="none" stroke="midnightblue" d="M352.33,-1034.91C344.87,-1038.4 337.2,-1042.03 330,-1045.5 313.89,-1053.27 310.52,-1056.64 294,-1063.5 286.5,-1066.61 278.44,-1069.63 270.53,-1072.41"/>
<polygon fill="midnightblue" stroke="midnightblue" points="354.02,-1037.98 361.6,-1030.58 351.06,-1031.64 354.02,-1037.98"/>
</g>
<!-- Node37&#45;&gt;Node36 -->
<g id="edge54" class="edge">
<title>Node37&#45;&gt;Node36</title>
<path fill="none" stroke="midnightblue" d="M373.45,-1038C349.5,-1063.2 311.47,-1101.89 294,-1112.5 288.4,-1115.9 282.27,-1118.88 276.01,-1121.49"/>
<polygon fill="midnightblue" stroke="midnightblue" points="376.06,-1040.34 380.39,-1030.67 370.98,-1035.53 376.06,-1040.34"/>
</g>
<!-- Node38 -->
<g id="node38" class="node">
<title>Node38</title>
<g id="a_node38"><a xlink:href="namespacecpinti_1_1gestionnaire__tache.html#a575898d4f3044f265c999aca5721a17f" target="_top" xlink:title=" ">
<polygon fill="white" stroke="black" points="168,-1013 168,-1054 275,-1054 275,-1013 168,-1013"/>
<text text-anchor="start" x="176" y="-1042" font-family="Helvetica,sans-Serif" font-size="10.00">cpinti::gestionnaire</text>
<text text-anchor="start" x="176" y="-1031" font-family="Helvetica,sans-Serif" font-size="10.00">_tache::cpinti_arreter</text>
<text text-anchor="middle" x="221.5" y="-1020" font-family="Helvetica,sans-Serif" font-size="10.00">_thread</text>
</a>
</g>
</g>
<!-- Node37&#45;&gt;Node38 -->
<g id="edge51" class="edge">
<title>Node37&#45;&gt;Node38</title>
<path fill="none" stroke="midnightblue" d="M321.33,-1023.16C305.8,-1024.78 289.7,-1026.47 275.12,-1027.99"/>
<polygon fill="midnightblue" stroke="midnightblue" points="321.85,-1026.62 331.43,-1022.1 321.12,-1019.66 321.85,-1026.62"/>
</g>
<!-- Node39 -->
<g id="node39" class="node">
<title>Node39</title>
<g id="a_node39"><a xlink:href="namespacecpinti_1_1gestionnaire__tache.html#a0c0510966125e1a76026b112613397e5" target="_top" xlink:title=" ">
<polygon fill="white" stroke="black" points="161,-964.5 161,-994.5 282,-994.5 282,-964.5 161,-964.5"/>
<text text-anchor="start" x="169" y="-982.5" font-family="Helvetica,sans-Serif" font-size="10.00">cpinti::gestionnaire</text>
<text text-anchor="middle" x="221.5" y="-971.5" font-family="Helvetica,sans-Serif" font-size="10.00">_tache::cpinti_fin_thread</text>
</a>
</g>
</g>
<!-- Node37&#45;&gt;Node39 -->
<g id="edge52" class="edge">
<title>Node37&#45;&gt;Node39</title>
<path fill="none" stroke="midnightblue" d="M321.49,-1000.22C308.36,-997.47 294.82,-994.64 282.13,-991.98"/>
<polygon fill="midnightblue" stroke="midnightblue" points="320.93,-1003.68 331.43,-1002.3 322.36,-996.82 320.93,-1003.68"/>
</g>
</g>
</svg>
