<?xml version="1.0" encoding="UTF-8" standalone="no"?>
<!DOCTYPE svg PUBLIC "-//W3C//DTD SVG 1.1//EN"
 "http://www.w3.org/Graphics/SVG/1.1/DTD/svg11.dtd">
<!-- Generated by graphviz version 2.44.0 ()
 -->
<!-- Title: OS2.1/CPinti/core/memoire/alloc.cpp Pages: 1 -->
<svg width="597pt" height="151pt"
 viewBox="0.00 0.00 596.50 151.00" xmlns="http://www.w3.org/2000/svg" xmlns:xlink="http://www.w3.org/1999/xlink">
<g id="graph0" class="graph" transform="scale(1 1) rotate(0) translate(4 147)">
<title>OS2.1/CPinti/core/memoire/alloc.cpp</title>
<polygon fill="white" stroke="transparent" points="-4,4 -4,-147 592.5,-147 592.5,4 -4,4"/>
<!-- Node1 -->
<g id="node1" class="node">
<title>Node1</title>
<g id="a_node1"><a xlink:title=" ">
<polygon fill="#bfbfbf" stroke="black" points="176,-112.5 176,-142.5 311,-142.5 311,-112.5 176,-112.5"/>
<text text-anchor="start" x="184" y="-130.5" font-family="Helvetica,sans-Serif" font-size="10.00">OS2.1/CPinti/core/memoire</text>
<text text-anchor="middle" x="243.5" y="-119.5" font-family="Helvetica,sans-Serif" font-size="10.00">/alloc.cpp</text>
</a>
</g>
</g>
<!-- Node2 -->
<g id="node2" class="node">
<title>Node2</title>
<g id="a_node2"><a xlink:title=" ">
<polygon fill="white" stroke="#bfbfbf" points="0,-0.5 0,-19.5 51,-19.5 51,-0.5 0,-0.5"/>
<text text-anchor="middle" x="25.5" y="-7.5" font-family="Helvetica,sans-Serif" font-size="10.00">memory</text>
</a>
</g>
</g>
<!-- Node1&#45;&gt;Node2 -->
<g id="edge1" class="edge">
<title>Node1&#45;&gt;Node2</title>
<path fill="none" stroke="midnightblue" d="M175.97,-120.53C117.04,-113.76 37.98,-100.34 18.5,-76 8,-62.88 11.99,-43.19 17.22,-28.92"/>
<polygon fill="midnightblue" stroke="midnightblue" points="20.46,-30.24 21.05,-19.66 13.99,-27.56 20.46,-30.24"/>
</g>
<!-- Node3 -->
<g id="node3" class="node">
<title>Node3</title>
<g id="a_node3"><a xlink:title=" ">
<polygon fill="white" stroke="#bfbfbf" points="196.5,-0.5 196.5,-19.5 240.5,-19.5 240.5,-0.5 196.5,-0.5"/>
<text text-anchor="middle" x="218.5" y="-7.5" font-family="Helvetica,sans-Serif" font-size="10.00">vector</text>
</a>
</g>
</g>
<!-- Node1&#45;&gt;Node3 -->
<g id="edge2" class="edge">
<title>Node1&#45;&gt;Node3</title>
<path fill="none" stroke="midnightblue" d="M290.66,-112.49C322.85,-100.37 356.79,-80.88 339.5,-56 319.68,-27.48 279.51,-17 250.9,-13.17"/>
<polygon fill="midnightblue" stroke="midnightblue" points="251.27,-9.69 240.94,-12.04 250.48,-16.64 251.27,-9.69"/>
</g>
<!-- Node4 -->
<g id="node4" class="node">
<title>Node4</title>
<g id="a_node4"><a xlink:title=" ">
<polygon fill="white" stroke="#bfbfbf" points="93.5,-56.5 93.5,-75.5 139.5,-75.5 139.5,-56.5 93.5,-56.5"/>
<text text-anchor="middle" x="116.5" y="-63.5" font-family="Helvetica,sans-Serif" font-size="10.00">cstring</text>
</a>
</g>
</g>
<!-- Node1&#45;&gt;Node4 -->
<g id="edge3" class="edge">
<title>Node1&#45;&gt;Node4</title>
<path fill="none" stroke="midnightblue" d="M213.4,-112.4C192.38,-102.55 164.53,-89.5 144.08,-79.92"/>
<polygon fill="midnightblue" stroke="midnightblue" points="145.52,-76.73 134.98,-75.66 142.55,-83.07 145.52,-76.73"/>
</g>
<!-- Node5 -->
<g id="node5" class="node">
<title>Node5</title>
<g id="a_node5"><a xlink:title=" ">
<polygon fill="white" stroke="#bfbfbf" points="158,-56.5 158,-75.5 203,-75.5 203,-56.5 158,-56.5"/>
<text text-anchor="middle" x="180.5" y="-63.5" font-family="Helvetica,sans-Serif" font-size="10.00">cstdlib</text>
</a>
</g>
</g>
<!-- Node1&#45;&gt;Node5 -->
<g id="edge4" class="edge">
<title>Node1&#45;&gt;Node5</title>
<path fill="none" stroke="midnightblue" d="M228.57,-112.4C219.13,-103.49 206.92,-91.95 197.17,-82.74"/>
<polygon fill="midnightblue" stroke="midnightblue" points="199.34,-79.98 189.67,-75.66 194.53,-85.07 199.34,-79.98"/>
</g>
<!-- Node6 -->
<g id="node6" class="node">
<title>Node6</title>
<g id="a_node6"><a xlink:title=" ">
<polygon fill="white" stroke="#bfbfbf" points="221,-56.5 221,-75.5 266,-75.5 266,-56.5 221,-56.5"/>
<text text-anchor="middle" x="243.5" y="-63.5" font-family="Helvetica,sans-Serif" font-size="10.00">stdio.h</text>
</a>
</g>
</g>
<!-- Node1&#45;&gt;Node6 -->
<g id="edge5" class="edge">
<title>Node1&#45;&gt;Node6</title>
<path fill="none" stroke="midnightblue" d="M243.5,-112.4C243.5,-104.47 243.5,-94.46 243.5,-85.86"/>
<polygon fill="midnightblue" stroke="midnightblue" points="247,-85.66 243.5,-75.66 240,-85.66 247,-85.66"/>
</g>
<!-- Node7 -->
<g id="node7" class="node">
<title>Node7</title>
<g id="a_node7"><a xlink:title=" ">
<polygon fill="white" stroke="#bfbfbf" points="284,-56.5 284,-75.5 331,-75.5 331,-56.5 284,-56.5"/>
<text text-anchor="middle" x="307.5" y="-63.5" font-family="Helvetica,sans-Serif" font-size="10.00">stdlib.h</text>
</a>
</g>
</g>
<!-- Node1&#45;&gt;Node7 -->
<g id="edge6" class="edge">
<title>Node1&#45;&gt;Node7</title>
<path fill="none" stroke="midnightblue" d="M258.67,-112.4C268.25,-103.49 280.66,-91.95 290.57,-82.74"/>
<polygon fill="midnightblue" stroke="midnightblue" points="293.25,-85.03 298.19,-75.66 288.48,-79.9 293.25,-85.03"/>
</g>
<!-- Node8 -->
<g id="node8" class="node">
<title>Node8</title>
<g id="a_node8"><a xlink:href="debug_8h.html" target="_top" xlink:title=" ">
<polygon fill="white" stroke="black" points="387.5,-56.5 387.5,-75.5 437.5,-75.5 437.5,-56.5 387.5,-56.5"/>
<text text-anchor="middle" x="412.5" y="-63.5" font-family="Helvetica,sans-Serif" font-size="10.00">debug.h</text>
</a>
</g>
</g>
<!-- Node1&#45;&gt;Node8 -->
<g id="edge7" class="edge">
<title>Node1&#45;&gt;Node8</title>
<path fill="none" stroke="midnightblue" d="M283.55,-112.4C312.41,-102.24 350.95,-88.67 378.35,-79.02"/>
<polygon fill="midnightblue" stroke="midnightblue" points="379.64,-82.28 387.91,-75.66 377.31,-75.68 379.64,-82.28"/>
</g>
<!-- Node10 -->
<g id="node10" class="node">
<title>Node10</title>
<g id="a_node10"><a xlink:href="func__cpi_8h.html" target="_top" xlink:title=" ">
<polygon fill="white" stroke="black" points="457,-56.5 457,-75.5 518,-75.5 518,-56.5 457,-56.5"/>
<text text-anchor="middle" x="487.5" y="-63.5" font-family="Helvetica,sans-Serif" font-size="10.00">func_cpi.h</text>
</a>
</g>
</g>
<!-- Node1&#45;&gt;Node10 -->
<g id="edge9" class="edge">
<title>Node1&#45;&gt;Node10</title>
<path fill="none" stroke="midnightblue" d="M301.02,-112.47C345.86,-101.54 407.02,-86.63 446.88,-76.91"/>
<polygon fill="midnightblue" stroke="midnightblue" points="447.89,-80.26 456.78,-74.49 446.23,-73.46 447.89,-80.26"/>
</g>
<!-- Node13 -->
<g id="node13" class="node">
<title>Node13</title>
<g id="a_node13"><a xlink:href="cpinti_8h.html" target="_top" xlink:title=" ">
<polygon fill="white" stroke="black" points="28,-56.5 28,-75.5 75,-75.5 75,-56.5 28,-56.5"/>
<text text-anchor="middle" x="51.5" y="-63.5" font-family="Helvetica,sans-Serif" font-size="10.00">cpinti.h</text>
</a>
</g>
</g>
<!-- Node1&#45;&gt;Node13 -->
<g id="edge13" class="edge">
<title>Node1&#45;&gt;Node13</title>
<path fill="none" stroke="midnightblue" d="M198,-112.4C163.18,-101.61 115.96,-86.98 84.66,-77.27"/>
<polygon fill="midnightblue" stroke="midnightblue" points="85.67,-73.93 75.09,-74.31 83.6,-80.61 85.67,-73.93"/>
</g>
<!-- Node9 -->
<g id="node9" class="node">
<title>Node9</title>
<g id="a_node9"><a xlink:title=" ">
<polygon fill="white" stroke="#bfbfbf" points="384.5,-0.5 384.5,-19.5 438.5,-19.5 438.5,-0.5 384.5,-0.5"/>
<text text-anchor="middle" x="411.5" y="-7.5" font-family="Helvetica,sans-Serif" font-size="10.00">iostream</text>
</a>
</g>
</g>
<!-- Node8&#45;&gt;Node9 -->
<g id="edge8" class="edge">
<title>Node8&#45;&gt;Node9</title>
<path fill="none" stroke="midnightblue" d="M412.33,-56.08C412.2,-49.01 412.02,-38.86 411.85,-29.99"/>
<polygon fill="midnightblue" stroke="midnightblue" points="415.35,-29.68 411.66,-19.75 408.35,-29.81 415.35,-29.68"/>
</g>
<!-- Node10&#45;&gt;Node9 -->
<g id="edge10" class="edge">
<title>Node10&#45;&gt;Node9</title>
<path fill="none" stroke="midnightblue" d="M475.29,-56.32C463.72,-48.11 446.12,-35.6 432.34,-25.81"/>
<polygon fill="midnightblue" stroke="midnightblue" points="434.11,-22.77 423.93,-19.83 430.06,-28.48 434.11,-22.77"/>
</g>
<!-- Node11 -->
<g id="node11" class="node">
<title>Node11</title>
<g id="a_node11"><a xlink:title=" ">
<polygon fill="white" stroke="#bfbfbf" points="536.5,-0.5 536.5,-19.5 588.5,-19.5 588.5,-0.5 536.5,-0.5"/>
<text text-anchor="middle" x="562.5" y="-7.5" font-family="Helvetica,sans-Serif" font-size="10.00">sstream</text>
</a>
</g>
</g>
<!-- Node10&#45;&gt;Node11 -->
<g id="edge11" class="edge">
<title>Node10&#45;&gt;Node11</title>
<path fill="none" stroke="midnightblue" d="M499.55,-56.32C510.96,-48.11 528.33,-35.6 541.93,-25.81"/>
<polygon fill="midnightblue" stroke="midnightblue" points="544.16,-28.52 550.23,-19.83 540.07,-22.84 544.16,-28.52"/>
</g>
<!-- Node12 -->
<g id="node12" class="node">
<title>Node12</title>
<g id="a_node12"><a xlink:title=" ">
<polygon fill="white" stroke="#bfbfbf" points="457,-0.5 457,-19.5 518,-19.5 518,-0.5 457,-0.5"/>
<text text-anchor="middle" x="487.5" y="-7.5" font-family="Helvetica,sans-Serif" font-size="10.00">sys/time.h</text>
</a>
</g>
</g>
<!-- Node10&#45;&gt;Node12 -->
<g id="edge12" class="edge">
<title>Node10&#45;&gt;Node12</title>
<path fill="none" stroke="midnightblue" d="M487.5,-56.08C487.5,-49.01 487.5,-38.86 487.5,-29.99"/>
<polygon fill="midnightblue" stroke="midnightblue" points="491,-29.75 487.5,-19.75 484,-29.75 491,-29.75"/>
</g>
<!-- Node13&#45;&gt;Node2 -->
<g id="edge14" class="edge">
<title>Node13&#45;&gt;Node2</title>
<path fill="none" stroke="midnightblue" d="M47.21,-56.08C43.65,-48.69 38.48,-37.95 34.08,-28.81"/>
<polygon fill="midnightblue" stroke="midnightblue" points="37.21,-27.24 29.71,-19.75 30.9,-30.28 37.21,-27.24"/>
</g>
<!-- Node13&#45;&gt;Node3 -->
<g id="edge15" class="edge">
<title>Node13&#45;&gt;Node3</title>
<path fill="none" stroke="midnightblue" d="M75.07,-57.38C104.2,-47.96 153.88,-31.89 186.45,-21.36"/>
<polygon fill="midnightblue" stroke="midnightblue" points="187.94,-24.56 196.38,-18.15 185.79,-17.9 187.94,-24.56"/>
</g>
</g>
</svg>
