<?xml version="1.0" encoding="UTF-8" standalone="no"?>
<!DOCTYPE svg PUBLIC "-//W3C//DTD SVG 1.1//EN"
 "http://www.w3.org/Graphics/SVG/1.1/DTD/svg11.dtd">
<!-- Generated by graphviz version 2.44.0 ()
 -->
<!-- Title: OS2.1/CPinti/core/buffer.cpp Pages: 1 -->
<svg width="593pt" height="140pt"
 viewBox="0.00 0.00 592.50 140.00" xmlns="http://www.w3.org/2000/svg" xmlns:xlink="http://www.w3.org/1999/xlink">
<g id="graph0" class="graph" transform="scale(1 1) rotate(0) translate(4 136)">
<title>OS2.1/CPinti/core/buffer.cpp</title>
<polygon fill="white" stroke="transparent" points="-4,4 -4,-136 588.5,-136 588.5,4 -4,4"/>
<!-- Node1 -->
<g id="node1" class="node">
<title>Node1</title>
<g id="a_node1"><a xlink:title=" ">
<polygon fill="#bfbfbf" stroke="black" points="225.5,-112.5 225.5,-131.5 365.5,-131.5 365.5,-112.5 225.5,-112.5"/>
<text text-anchor="middle" x="295.5" y="-119.5" font-family="Helvetica,sans-Serif" font-size="10.00">OS2.1/CPinti/core/buffer.cpp</text>
</a>
</g>
</g>
<!-- Node2 -->
<g id="node2" class="node">
<title>Node2</title>
<g id="a_node2"><a xlink:title=" ">
<polygon fill="white" stroke="#bfbfbf" points="0,-56.5 0,-75.5 47,-75.5 47,-56.5 0,-56.5"/>
<text text-anchor="middle" x="23.5" y="-63.5" font-family="Helvetica,sans-Serif" font-size="10.00">stdlib.h</text>
</a>
</g>
</g>
<!-- Node1&#45;&gt;Node2 -->
<g id="edge1" class="edge">
<title>Node1&#45;&gt;Node2</title>
<path fill="none" stroke="midnightblue" d="M242.31,-112.42C195.78,-104.6 126.18,-92.15 57.35,-76.29"/>
<polygon fill="midnightblue" stroke="midnightblue" points="57.74,-72.78 47.2,-73.92 56.15,-79.6 57.74,-72.78"/>
</g>
<!-- Node3 -->
<g id="node3" class="node">
<title>Node3</title>
<g id="a_node3"><a xlink:title=" ">
<polygon fill="white" stroke="#bfbfbf" points="65,-56.5 65,-75.5 118,-75.5 118,-56.5 65,-56.5"/>
<text text-anchor="middle" x="91.5" y="-63.5" font-family="Helvetica,sans-Serif" font-size="10.00">malloc.h</text>
</a>
</g>
</g>
<!-- Node1&#45;&gt;Node3 -->
<g id="edge2" class="edge">
<title>Node1&#45;&gt;Node3</title>
<path fill="none" stroke="midnightblue" d="M263.18,-112.44C226.36,-102.7 166.34,-86.81 127.9,-76.64"/>
<polygon fill="midnightblue" stroke="midnightblue" points="128.71,-73.23 118.15,-74.05 126.92,-80 128.71,-73.23"/>
</g>
<!-- Node4 -->
<g id="node4" class="node">
<title>Node4</title>
<g id="a_node4"><a xlink:title=" ">
<polygon fill="white" stroke="#bfbfbf" points="353.5,-0.5 353.5,-19.5 407.5,-19.5 407.5,-0.5 353.5,-0.5"/>
<text text-anchor="middle" x="380.5" y="-7.5" font-family="Helvetica,sans-Serif" font-size="10.00">iostream</text>
</a>
</g>
</g>
<!-- Node1&#45;&gt;Node4 -->
<g id="edge3" class="edge">
<title>Node1&#45;&gt;Node4</title>
<path fill="none" stroke="midnightblue" d="M340.2,-112.48C360.73,-106.09 383.2,-95.02 395.5,-76 404.71,-61.76 398.47,-42.54 391.45,-28.7"/>
<polygon fill="midnightblue" stroke="midnightblue" points="394.35,-26.72 386.4,-19.72 388.25,-30.15 394.35,-26.72"/>
</g>
<!-- Node5 -->
<g id="node5" class="node">
<title>Node5</title>
<g id="a_node5"><a xlink:href="cpinti_8h.html" target="_top" xlink:title=" ">
<polygon fill="white" stroke="black" points="136.5,-56.5 136.5,-75.5 186.5,-75.5 186.5,-56.5 136.5,-56.5"/>
<text text-anchor="middle" x="161.5" y="-63.5" font-family="Helvetica,sans-Serif" font-size="10.00">CPinti.h</text>
</a>
</g>
</g>
<!-- Node1&#45;&gt;Node5 -->
<g id="edge4" class="edge">
<title>Node1&#45;&gt;Node5</title>
<path fill="none" stroke="midnightblue" d="M274.27,-112.44C252.12,-103.52 217.18,-89.44 192.06,-79.32"/>
<polygon fill="midnightblue" stroke="midnightblue" points="193.22,-76.01 182.63,-75.52 190.6,-82.5 193.22,-76.01"/>
</g>
<!-- Node8 -->
<g id="node8" class="node">
<title>Node8</title>
<g id="a_node8"><a xlink:href="stack_8h.html" target="_top" xlink:title=" ">
<polygon fill="white" stroke="black" points="204.5,-56.5 204.5,-75.5 252.5,-75.5 252.5,-56.5 204.5,-56.5"/>
<text text-anchor="middle" x="228.5" y="-63.5" font-family="Helvetica,sans-Serif" font-size="10.00">stack.h</text>
</a>
</g>
</g>
<!-- Node1&#45;&gt;Node8 -->
<g id="edge7" class="edge">
<title>Node1&#45;&gt;Node8</title>
<path fill="none" stroke="midnightblue" d="M284.74,-112.32C274.73,-104.26 259.61,-92.08 247.57,-82.37"/>
<polygon fill="midnightblue" stroke="midnightblue" points="249.44,-79.38 239.46,-75.83 245.05,-84.83 249.44,-79.38"/>
</g>
<!-- Node10 -->
<g id="node10" class="node">
<title>Node10</title>
<g id="a_node10"><a xlink:href="buffer_8h.html" target="_top" xlink:title=" ">
<polygon fill="white" stroke="black" points="338.5,-56.5 338.5,-75.5 386.5,-75.5 386.5,-56.5 338.5,-56.5"/>
<text text-anchor="middle" x="362.5" y="-63.5" font-family="Helvetica,sans-Serif" font-size="10.00">buffer.h</text>
</a>
</g>
</g>
<!-- Node1&#45;&gt;Node10 -->
<g id="edge12" class="edge">
<title>Node1&#45;&gt;Node10</title>
<path fill="none" stroke="midnightblue" d="M306.26,-112.32C316.27,-104.26 331.39,-92.08 343.43,-82.37"/>
<polygon fill="midnightblue" stroke="midnightblue" points="345.95,-84.83 351.54,-75.83 341.56,-79.38 345.95,-84.83"/>
</g>
<!-- Node11 -->
<g id="node11" class="node">
<title>Node11</title>
<g id="a_node11"><a xlink:href="debug_8h.html" target="_top" xlink:title=" ">
<polygon fill="white" stroke="black" points="270.5,-56.5 270.5,-75.5 320.5,-75.5 320.5,-56.5 270.5,-56.5"/>
<text text-anchor="middle" x="295.5" y="-63.5" font-family="Helvetica,sans-Serif" font-size="10.00">debug.h</text>
</a>
</g>
</g>
<!-- Node1&#45;&gt;Node11 -->
<g id="edge13" class="edge">
<title>Node1&#45;&gt;Node11</title>
<path fill="none" stroke="midnightblue" d="M295.5,-112.08C295.5,-105.01 295.5,-94.86 295.5,-85.99"/>
<polygon fill="midnightblue" stroke="midnightblue" points="299,-85.75 295.5,-75.75 292,-85.75 299,-85.75"/>
</g>
<!-- Node12 -->
<g id="node12" class="node">
<title>Node12</title>
<g id="a_node12"><a xlink:href="func__cpi_8h.html" target="_top" xlink:title=" ">
<polygon fill="white" stroke="black" points="443,-56.5 443,-75.5 504,-75.5 504,-56.5 443,-56.5"/>
<text text-anchor="middle" x="473.5" y="-63.5" font-family="Helvetica,sans-Serif" font-size="10.00">func_cpi.h</text>
</a>
</g>
</g>
<!-- Node1&#45;&gt;Node12 -->
<g id="edge15" class="edge">
<title>Node1&#45;&gt;Node12</title>
<path fill="none" stroke="midnightblue" d="M323.7,-112.44C353.91,-103.28 402.01,-88.69 435.53,-78.52"/>
<polygon fill="midnightblue" stroke="midnightblue" points="436.87,-81.77 445.43,-75.52 434.84,-75.07 436.87,-81.77"/>
</g>
<!-- Node15 -->
<g id="node15" class="node">
<title>Node15</title>
<g id="a_node15"><a xlink:href="meminfo_8h.html" target="_top" xlink:title=" ">
<polygon fill="white" stroke="black" points="522.5,-56.5 522.5,-75.5 584.5,-75.5 584.5,-56.5 522.5,-56.5"/>
<text text-anchor="middle" x="553.5" y="-63.5" font-family="Helvetica,sans-Serif" font-size="10.00">meminfo.h</text>
</a>
</g>
</g>
<!-- Node1&#45;&gt;Node15 -->
<g id="edge19" class="edge">
<title>Node1&#45;&gt;Node15</title>
<path fill="none" stroke="midnightblue" d="M338.15,-112.43C379.99,-103.97 445.85,-90.51 511.9,-76.32"/>
<polygon fill="midnightblue" stroke="midnightblue" points="513.03,-79.66 522.07,-74.13 511.56,-72.81 513.03,-79.66"/>
</g>
<!-- Node6 -->
<g id="node6" class="node">
<title>Node6</title>
<g id="a_node6"><a xlink:title=" ">
<polygon fill="white" stroke="#bfbfbf" points="136,-0.5 136,-19.5 187,-19.5 187,-0.5 136,-0.5"/>
<text text-anchor="middle" x="161.5" y="-7.5" font-family="Helvetica,sans-Serif" font-size="10.00">memory</text>
</a>
</g>
</g>
<!-- Node5&#45;&gt;Node6 -->
<g id="edge5" class="edge">
<title>Node5&#45;&gt;Node6</title>
<path fill="none" stroke="midnightblue" d="M161.5,-56.08C161.5,-49.01 161.5,-38.86 161.5,-29.99"/>
<polygon fill="midnightblue" stroke="midnightblue" points="165,-29.75 161.5,-19.75 158,-29.75 165,-29.75"/>
</g>
<!-- Node7 -->
<g id="node7" class="node">
<title>Node7</title>
<g id="a_node7"><a xlink:title=" ">
<polygon fill="white" stroke="#bfbfbf" points="205.5,-0.5 205.5,-19.5 249.5,-19.5 249.5,-0.5 205.5,-0.5"/>
<text text-anchor="middle" x="227.5" y="-7.5" font-family="Helvetica,sans-Serif" font-size="10.00">vector</text>
</a>
</g>
</g>
<!-- Node5&#45;&gt;Node7 -->
<g id="edge6" class="edge">
<title>Node5&#45;&gt;Node7</title>
<path fill="none" stroke="midnightblue" d="M172.1,-56.32C181.96,-48.26 196.85,-36.08 208.72,-26.37"/>
<polygon fill="midnightblue" stroke="midnightblue" points="211.18,-28.88 216.7,-19.83 206.75,-23.46 211.18,-28.88"/>
</g>
<!-- Node8&#45;&gt;Node4 -->
<g id="edge8" class="edge">
<title>Node8&#45;&gt;Node4</title>
<path fill="none" stroke="midnightblue" d="M252.58,-56.44C278.04,-47.4 318.39,-33.06 346.96,-22.92"/>
<polygon fill="midnightblue" stroke="midnightblue" points="348.28,-26.16 356.53,-19.52 345.93,-19.57 348.28,-26.16"/>
</g>
<!-- Node8&#45;&gt;Node6 -->
<g id="edge9" class="edge">
<title>Node8&#45;&gt;Node6</title>
<path fill="none" stroke="midnightblue" d="M217.74,-56.32C207.73,-48.26 192.61,-36.08 180.57,-26.37"/>
<polygon fill="midnightblue" stroke="midnightblue" points="182.44,-23.38 172.46,-19.83 178.05,-28.83 182.44,-23.38"/>
</g>
<!-- Node8&#45;&gt;Node7 -->
<g id="edge10" class="edge">
<title>Node8&#45;&gt;Node7</title>
<path fill="none" stroke="midnightblue" d="M228.33,-56.08C228.2,-49.01 228.02,-38.86 227.85,-29.99"/>
<polygon fill="midnightblue" stroke="midnightblue" points="231.35,-29.68 227.66,-19.75 224.35,-29.81 231.35,-29.68"/>
</g>
<!-- Node9 -->
<g id="node9" class="node">
<title>Node9</title>
<g id="a_node9"><a xlink:title=" ">
<polygon fill="white" stroke="#bfbfbf" points="267.5,-0.5 267.5,-19.5 313.5,-19.5 313.5,-0.5 267.5,-0.5"/>
<text text-anchor="middle" x="290.5" y="-7.5" font-family="Helvetica,sans-Serif" font-size="10.00">cstring</text>
</a>
</g>
</g>
<!-- Node8&#45;&gt;Node9 -->
<g id="edge11" class="edge">
<title>Node8&#45;&gt;Node9</title>
<path fill="none" stroke="midnightblue" d="M238.46,-56.32C247.63,-48.34 261.44,-36.31 272.53,-26.65"/>
<polygon fill="midnightblue" stroke="midnightblue" points="275.12,-29.04 280.36,-19.83 270.52,-23.76 275.12,-29.04"/>
</g>
<!-- Node11&#45;&gt;Node4 -->
<g id="edge14" class="edge">
<title>Node11&#45;&gt;Node4</title>
<path fill="none" stroke="midnightblue" d="M309.16,-56.32C322.42,-47.9 342.77,-34.97 358.35,-25.07"/>
<polygon fill="midnightblue" stroke="midnightblue" points="360.31,-27.97 366.88,-19.65 356.56,-22.06 360.31,-27.97"/>
</g>
<!-- Node12&#45;&gt;Node4 -->
<g id="edge16" class="edge">
<title>Node12&#45;&gt;Node4</title>
<path fill="none" stroke="midnightblue" d="M458.56,-56.32C443.91,-47.82 421.37,-34.73 404.26,-24.8"/>
<polygon fill="midnightblue" stroke="midnightblue" points="405.81,-21.65 395.4,-19.65 402.3,-27.7 405.81,-21.65"/>
</g>
<!-- Node13 -->
<g id="node13" class="node">
<title>Node13</title>
<g id="a_node13"><a xlink:title=" ">
<polygon fill="white" stroke="#bfbfbf" points="436.5,-0.5 436.5,-19.5 488.5,-19.5 488.5,-0.5 436.5,-0.5"/>
<text text-anchor="middle" x="462.5" y="-7.5" font-family="Helvetica,sans-Serif" font-size="10.00">sstream</text>
</a>
</g>
</g>
<!-- Node12&#45;&gt;Node13 -->
<g id="edge17" class="edge">
<title>Node12&#45;&gt;Node13</title>
<path fill="none" stroke="midnightblue" d="M471.68,-56.08C470.23,-48.93 468.13,-38.64 466.31,-29.69"/>
<polygon fill="midnightblue" stroke="midnightblue" points="469.71,-28.85 464.28,-19.75 462.85,-30.25 469.71,-28.85"/>
</g>
<!-- Node14 -->
<g id="node14" class="node">
<title>Node14</title>
<g id="a_node14"><a xlink:title=" ">
<polygon fill="white" stroke="#bfbfbf" points="507,-0.5 507,-19.5 568,-19.5 568,-0.5 507,-0.5"/>
<text text-anchor="middle" x="537.5" y="-7.5" font-family="Helvetica,sans-Serif" font-size="10.00">sys/time.h</text>
</a>
</g>
</g>
<!-- Node12&#45;&gt;Node14 -->
<g id="edge18" class="edge">
<title>Node12&#45;&gt;Node14</title>
<path fill="none" stroke="midnightblue" d="M483.78,-56.32C493.34,-48.26 507.78,-36.08 519.28,-26.37"/>
<polygon fill="midnightblue" stroke="midnightblue" points="521.64,-28.96 527.03,-19.83 517.13,-23.61 521.64,-28.96"/>
</g>
</g>
</svg>
