<?xml version="1.0" encoding="UTF-8" standalone="no"?>
<!DOCTYPE svg PUBLIC "-//W3C//DTD SVG 1.1//EN"
 "http://www.w3.org/Graphics/SVG/1.1/DTD/svg11.dtd">
<!-- Generated by graphviz version 2.44.0 ()
 -->
<!-- Title: cpinti::cpinti_stack_inv::set_Stack Pages: 1 -->
<svg width="375pt" height="88pt"
 viewBox="0.00 0.00 375.00 88.00" xmlns="http://www.w3.org/2000/svg" xmlns:xlink="http://www.w3.org/1999/xlink">
<g id="graph0" class="graph" transform="scale(1 1) rotate(0) translate(4 84)">
<title>cpinti::cpinti_stack_inv::set_Stack</title>
<polygon fill="white" stroke="transparent" points="-4,4 -4,-84 371,-84 371,4 -4,4"/>
<!-- Node1 -->
<g id="node1" class="node">
<title>Node1</title>
<g id="a_node1"><a xlink:title=" ">
<polygon fill="#bfbfbf" stroke="black" points="270,-24.5 270,-54.5 367,-54.5 367,-24.5 270,-24.5"/>
<text text-anchor="start" x="278" y="-42.5" font-family="Helvetica,sans-Serif" font-size="10.00">cpinti::cpinti_stack</text>
<text text-anchor="middle" x="318.5" y="-31.5" font-family="Helvetica,sans-Serif" font-size="10.00">_inv::set_Stack</text>
</a>
</g>
</g>
<!-- Node2 -->
<g id="node2" class="node">
<title>Node2</title>
<g id="a_node2"><a xlink:href="classcpinti_1_1cpinti__stack__inv.html#a0f7d754d52c85f8ea179ff8f815d238c" target="_top" xlink:title=" ">
<polygon fill="white" stroke="black" points="133,-49.5 133,-79.5 234,-79.5 234,-49.5 133,-49.5"/>
<text text-anchor="start" x="141" y="-67.5" font-family="Helvetica,sans-Serif" font-size="10.00">cpinti::cpinti_stack</text>
<text text-anchor="middle" x="183.5" y="-56.5" font-family="Helvetica,sans-Serif" font-size="10.00">_inv::CLEAR_stack</text>
</a>
</g>
</g>
<!-- Node1&#45;&gt;Node2 -->
<g id="edge1" class="edge">
<title>Node1&#45;&gt;Node2</title>
<path fill="none" stroke="midnightblue" d="M259.89,-50.33C251.28,-51.95 242.47,-53.6 234.05,-55.19"/>
<polygon fill="midnightblue" stroke="midnightblue" points="260.68,-53.74 269.86,-48.45 259.39,-46.86 260.68,-53.74"/>
</g>
<!-- Node4 -->
<g id="node4" class="node">
<title>Node4</title>
<g id="a_node4"><a xlink:href="classcpinti_1_1cpinti__stack__inv.html#abc69de4cf8fdafb235e9272814ec49b1" target="_top" xlink:title=" ">
<polygon fill="white" stroke="black" points="135,-0.5 135,-30.5 232,-30.5 232,-0.5 135,-0.5"/>
<text text-anchor="start" x="143" y="-18.5" font-family="Helvetica,sans-Serif" font-size="10.00">cpinti::cpinti_stack</text>
<text text-anchor="middle" x="183.5" y="-7.5" font-family="Helvetica,sans-Serif" font-size="10.00">_inv::set_Stack_c</text>
</a>
</g>
</g>
<!-- Node1&#45;&gt;Node4 -->
<g id="edge3" class="edge">
<title>Node1&#45;&gt;Node4</title>
<path fill="none" stroke="midnightblue" d="M259.96,-29.12C250.71,-27.45 241.24,-25.74 232.25,-24.12"/>
<polygon fill="midnightblue" stroke="midnightblue" points="259.4,-32.57 269.86,-30.9 260.64,-25.68 259.4,-32.57"/>
</g>
<!-- Node3 -->
<g id="node3" class="node">
<title>Node3</title>
<g id="a_node3"><a xlink:href="classcpinti_1_1cpinti__stack__inv.html#a2b9b3ac05f573dde863918458c02b05a" target="_top" xlink:title=" ">
<polygon fill="white" stroke="black" points="0,-49.5 0,-79.5 97,-79.5 97,-49.5 0,-49.5"/>
<text text-anchor="start" x="8" y="-67.5" font-family="Helvetica,sans-Serif" font-size="10.00">cpinti::cpinti_stack</text>
<text text-anchor="middle" x="48.5" y="-56.5" font-family="Helvetica,sans-Serif" font-size="10.00">_inv::stack__init</text>
</a>
</g>
</g>
<!-- Node2&#45;&gt;Node3 -->
<g id="edge2" class="edge">
<title>Node2&#45;&gt;Node3</title>
<path fill="none" stroke="midnightblue" d="M122.71,-64.5C114.2,-64.5 105.54,-64.5 97.3,-64.5"/>
<polygon fill="midnightblue" stroke="midnightblue" points="122.98,-68 132.98,-64.5 122.98,-61 122.98,-68"/>
</g>
</g>
</svg>
