<?xml version="1.0" encoding="UTF-8" standalone="no"?>
<!DOCTYPE svg PUBLIC "-//W3C//DTD SVG 1.1//EN"
 "http://www.w3.org/Graphics/SVG/1.1/DTD/svg11.dtd">
<!-- Generated by graphviz version 2.44.0 ()
 -->
<!-- Title: cpinti::cpinti_stack_inv::stack__init Pages: 1 -->
<svg width="521pt" height="39pt"
 viewBox="0.00 0.00 521.00 39.00" xmlns="http://www.w3.org/2000/svg" xmlns:xlink="http://www.w3.org/1999/xlink">
<g id="graph0" class="graph" transform="scale(1 1) rotate(0) translate(4 35)">
<title>cpinti::cpinti_stack_inv::stack__init</title>
<polygon fill="white" stroke="transparent" points="-4,4 -4,-35 517,-35 517,4 -4,4"/>
<!-- Node1 -->
<g id="node1" class="node">
<title>Node1</title>
<g id="a_node1"><a xlink:title=" ">
<polygon fill="#bfbfbf" stroke="black" points="0,-0.5 0,-30.5 97,-30.5 97,-0.5 0,-0.5"/>
<text text-anchor="start" x="8" y="-18.5" font-family="Helvetica,sans-Serif" font-size="10.00">cpinti::cpinti_stack</text>
<text text-anchor="middle" x="48.5" y="-7.5" font-family="Helvetica,sans-Serif" font-size="10.00">_inv::stack__init</text>
</a>
</g>
</g>
<!-- Node2 -->
<g id="node2" class="node">
<title>Node2</title>
<g id="a_node2"><a xlink:href="classcpinti_1_1cpinti__stack__inv.html#a0f7d754d52c85f8ea179ff8f815d238c" target="_top" xlink:title=" ">
<polygon fill="white" stroke="black" points="133,-0.5 133,-30.5 234,-30.5 234,-0.5 133,-0.5"/>
<text text-anchor="start" x="141" y="-18.5" font-family="Helvetica,sans-Serif" font-size="10.00">cpinti::cpinti_stack</text>
<text text-anchor="middle" x="183.5" y="-7.5" font-family="Helvetica,sans-Serif" font-size="10.00">_inv::CLEAR_stack</text>
</a>
</g>
</g>
<!-- Node1&#45;&gt;Node2 -->
<g id="edge1" class="edge">
<title>Node1&#45;&gt;Node2</title>
<path fill="none" stroke="midnightblue" d="M97.14,-15.5C105.5,-15.5 114.29,-15.5 122.92,-15.5"/>
<polygon fill="midnightblue" stroke="midnightblue" points="122.95,-19 132.95,-15.5 122.95,-12 122.95,-19"/>
</g>
<!-- Node3 -->
<g id="node3" class="node">
<title>Node3</title>
<g id="a_node3"><a xlink:href="classcpinti_1_1cpinti__stack__inv.html#a247e1b97e717caae5148a2ca995d0fcc" target="_top" xlink:title=" ">
<polygon fill="white" stroke="black" points="270,-0.5 270,-30.5 367,-30.5 367,-0.5 270,-0.5"/>
<text text-anchor="start" x="278" y="-18.5" font-family="Helvetica,sans-Serif" font-size="10.00">cpinti::cpinti_stack</text>
<text text-anchor="middle" x="318.5" y="-7.5" font-family="Helvetica,sans-Serif" font-size="10.00">_inv::set_Stack</text>
</a>
</g>
</g>
<!-- Node2&#45;&gt;Node3 -->
<g id="edge2" class="edge">
<title>Node2&#45;&gt;Node3</title>
<path fill="none" stroke="midnightblue" d="M234.02,-15.5C242.32,-15.5 250.99,-15.5 259.48,-15.5"/>
<polygon fill="midnightblue" stroke="midnightblue" points="259.7,-19 269.7,-15.5 259.7,-12 259.7,-19"/>
</g>
<!-- Node4 -->
<g id="node4" class="node">
<title>Node4</title>
<g id="a_node4"><a xlink:href="classcpinti_1_1cpinti__stack__inv.html#afc56f6ec8dbd1736983b9f8d58a0cfdb" target="_top" xlink:title=" ">
<polygon fill="white" stroke="black" points="403,-0.5 403,-30.5 513,-30.5 513,-0.5 403,-0.5"/>
<text text-anchor="start" x="411" y="-18.5" font-family="Helvetica,sans-Serif" font-size="10.00">cpinti::cpinti_stack</text>
<text text-anchor="middle" x="458" y="-7.5" font-family="Helvetica,sans-Serif" font-size="10.00">_inv::get_Taille_stack</text>
</a>
</g>
</g>
<!-- Node3&#45;&gt;Node4 -->
<g id="edge3" class="edge">
<title>Node3&#45;&gt;Node4</title>
<path fill="none" stroke="midnightblue" d="M367.2,-15.5C375.46,-15.5 384.15,-15.5 392.76,-15.5"/>
<polygon fill="midnightblue" stroke="midnightblue" points="392.78,-19 402.78,-15.5 392.78,-12 392.78,-19"/>
</g>
</g>
</svg>
