<?xml version="1.0" encoding="UTF-8" standalone="no"?>
<!DOCTYPE svg PUBLIC "-//W3C//DTD SVG 1.1//EN"
 "http://www.w3.org/Graphics/SVG/1.1/DTD/svg11.dtd">
<!-- Generated by graphviz version 2.44.0 ()
 -->
<!-- Title: cpinti::cpinti_stack_inv::get_Taille_stack Pages: 1 -->
<svg width="542pt" height="259pt"
 viewBox="0.00 0.00 542.00 259.00" xmlns="http://www.w3.org/2000/svg" xmlns:xlink="http://www.w3.org/1999/xlink">
<g id="graph0" class="graph" transform="scale(1 1) rotate(0) translate(4 255)">
<title>cpinti::cpinti_stack_inv::get_Taille_stack</title>
<polygon fill="white" stroke="transparent" points="-4,4 -4,-255 538,-255 538,4 -4,4"/>
<!-- Node1 -->
<g id="node1" class="node">
<title>Node1</title>
<g id="a_node1"><a xlink:title=" ">
<polygon fill="#bfbfbf" stroke="black" points="424,-122.5 424,-152.5 534,-152.5 534,-122.5 424,-122.5"/>
<text text-anchor="start" x="432" y="-140.5" font-family="Helvetica,sans-Serif" font-size="10.00">cpinti::cpinti_stack</text>
<text text-anchor="middle" x="479" y="-129.5" font-family="Helvetica,sans-Serif" font-size="10.00">_inv::get_Taille_stack</text>
</a>
</g>
</g>
<!-- Node2 -->
<g id="node2" class="node">
<title>Node2</title>
<g id="a_node2"><a xlink:href="classcpinti_1_1cpinti__stack__inv.html#a502f07d3fbd4cdaeb9168873ec13c525" target="_top" xlink:title=" ">
<polygon fill="white" stroke="black" points="280.5,-220.5 280.5,-250.5 377.5,-250.5 377.5,-220.5 280.5,-220.5"/>
<text text-anchor="start" x="288.5" y="-238.5" font-family="Helvetica,sans-Serif" font-size="10.00">cpinti::cpinti_stack</text>
<text text-anchor="middle" x="329" y="-227.5" font-family="Helvetica,sans-Serif" font-size="10.00">_inv::add_Stack</text>
</a>
</g>
</g>
<!-- Node1&#45;&gt;Node2 -->
<g id="edge1" class="edge">
<title>Node1&#45;&gt;Node2</title>
<path fill="none" stroke="midnightblue" d="M455.09,-159.59C437.71,-175.51 412.67,-196.7 388,-211.5 382.58,-214.75 376.64,-217.76 370.69,-220.47"/>
<polygon fill="midnightblue" stroke="midnightblue" points="457.57,-162.06 462.51,-152.69 452.8,-156.94 457.57,-162.06"/>
</g>
<!-- Node4 -->
<g id="node4" class="node">
<title>Node4</title>
<g id="a_node4"><a xlink:href="classcpinti_1_1cpinti__stack__inv.html#a46bf20b1e9fbc1b2987f7f24548c3b41" target="_top" xlink:title=" ">
<polygon fill="white" stroke="black" points="280.5,-171.5 280.5,-201.5 377.5,-201.5 377.5,-171.5 280.5,-171.5"/>
<text text-anchor="start" x="288.5" y="-189.5" font-family="Helvetica,sans-Serif" font-size="10.00">cpinti::cpinti_stack</text>
<text text-anchor="middle" x="329" y="-178.5" font-family="Helvetica,sans-Serif" font-size="10.00">_inv::get_Stack</text>
</a>
</g>
</g>
<!-- Node1&#45;&gt;Node4 -->
<g id="edge3" class="edge">
<title>Node1&#45;&gt;Node4</title>
<path fill="none" stroke="midnightblue" d="M422.85,-155.76C407.24,-160.93 390.43,-166.49 375.46,-171.45"/>
<polygon fill="midnightblue" stroke="midnightblue" points="423.99,-159.07 432.39,-152.6 421.79,-152.42 423.99,-159.07"/>
</g>
<!-- Node6 -->
<g id="node6" class="node">
<title>Node6</title>
<g id="a_node6"><a xlink:href="classcpinti_1_1cpinti__stack__inv.html#a61f59560dd61b29a3ffa56bc95776e9e" target="_top" xlink:title=" ">
<polygon fill="white" stroke="black" points="277,-122.5 277,-152.5 381,-152.5 381,-122.5 277,-122.5"/>
<text text-anchor="start" x="285" y="-140.5" font-family="Helvetica,sans-Serif" font-size="10.00">cpinti::cpinti_stack</text>
<text text-anchor="middle" x="329" y="-129.5" font-family="Helvetica,sans-Serif" font-size="10.00">_inv::get_Taille_libre</text>
</a>
</g>
</g>
<!-- Node1&#45;&gt;Node6 -->
<g id="edge5" class="edge">
<title>Node1&#45;&gt;Node6</title>
<path fill="none" stroke="midnightblue" d="M413.52,-137.5C402.74,-137.5 391.7,-137.5 381.31,-137.5"/>
<polygon fill="midnightblue" stroke="midnightblue" points="413.73,-141 423.73,-137.5 413.73,-134 413.73,-141"/>
</g>
<!-- Node7 -->
<g id="node7" class="node">
<title>Node7</title>
<g id="a_node7"><a xlink:href="classcpinti_1_1cpinti__stack__inv.html#af1c923b47f480f57b361fbb4021953b5" target="_top" xlink:title=" ">
<polygon fill="white" stroke="black" points="270,-73.5 270,-103.5 388,-103.5 388,-73.5 270,-73.5"/>
<text text-anchor="start" x="278" y="-91.5" font-family="Helvetica,sans-Serif" font-size="10.00">cpinti::cpinti_stack</text>
<text text-anchor="middle" x="329" y="-80.5" font-family="Helvetica,sans-Serif" font-size="10.00">_inv::get_Taille_occupe</text>
</a>
</g>
</g>
<!-- Node1&#45;&gt;Node7 -->
<g id="edge6" class="edge">
<title>Node1&#45;&gt;Node7</title>
<path fill="none" stroke="midnightblue" d="M422.85,-119.24C407.24,-114.07 390.43,-108.51 375.46,-103.55"/>
<polygon fill="midnightblue" stroke="midnightblue" points="421.79,-122.58 432.39,-122.4 423.99,-115.93 421.79,-122.58"/>
</g>
<!-- Node8 -->
<g id="node8" class="node">
<title>Node8</title>
<g id="a_node8"><a xlink:href="classcpinti_1_1cpinti__stack__inv.html#a247e1b97e717caae5148a2ca995d0fcc" target="_top" xlink:title=" ">
<polygon fill="white" stroke="black" points="280.5,-24.5 280.5,-54.5 377.5,-54.5 377.5,-24.5 280.5,-24.5"/>
<text text-anchor="start" x="288.5" y="-42.5" font-family="Helvetica,sans-Serif" font-size="10.00">cpinti::cpinti_stack</text>
<text text-anchor="middle" x="329" y="-31.5" font-family="Helvetica,sans-Serif" font-size="10.00">_inv::set_Stack</text>
</a>
</g>
</g>
<!-- Node1&#45;&gt;Node8 -->
<g id="edge7" class="edge">
<title>Node1&#45;&gt;Node8</title>
<path fill="none" stroke="midnightblue" d="M454.65,-115.55C437.23,-99.94 412.33,-79.22 388,-64.5 382.09,-60.92 375.58,-57.59 369.11,-54.6"/>
<polygon fill="midnightblue" stroke="midnightblue" points="452.35,-118.18 462.1,-122.32 457.06,-113 452.35,-118.18"/>
</g>
<!-- Node3 -->
<g id="node3" class="node">
<title>Node3</title>
<g id="a_node3"><a xlink:href="classcpinti_1_1cpinti__stack__inv.html#a405367c498de93ccc84d879b43fd9dd1" target="_top" xlink:title=" ">
<polygon fill="white" stroke="black" points="135,-220.5 135,-250.5 232,-250.5 232,-220.5 135,-220.5"/>
<text text-anchor="start" x="143" y="-238.5" font-family="Helvetica,sans-Serif" font-size="10.00">cpinti::cpinti_stack</text>
<text text-anchor="middle" x="183.5" y="-227.5" font-family="Helvetica,sans-Serif" font-size="10.00">_inv::add_Stack_c</text>
</a>
</g>
</g>
<!-- Node2&#45;&gt;Node3 -->
<g id="edge2" class="edge">
<title>Node2&#45;&gt;Node3</title>
<path fill="none" stroke="midnightblue" d="M269.84,-235.5C257.29,-235.5 244.17,-235.5 232.07,-235.5"/>
<polygon fill="midnightblue" stroke="midnightblue" points="270.22,-239 280.22,-235.5 270.22,-232 270.22,-239"/>
</g>
<!-- Node5 -->
<g id="node5" class="node">
<title>Node5</title>
<g id="a_node5"><a xlink:href="classcpinti_1_1cpinti__stack__inv.html#acbaf87746ceaf4c687d5ba3d82152ff2" target="_top" xlink:title=" ">
<polygon fill="white" stroke="black" points="135,-171.5 135,-201.5 232,-201.5 232,-171.5 135,-171.5"/>
<text text-anchor="start" x="143" y="-189.5" font-family="Helvetica,sans-Serif" font-size="10.00">cpinti::cpinti_stack</text>
<text text-anchor="middle" x="183.5" y="-178.5" font-family="Helvetica,sans-Serif" font-size="10.00">_inv::get_Stack_c</text>
</a>
</g>
</g>
<!-- Node4&#45;&gt;Node5 -->
<g id="edge4" class="edge">
<title>Node4&#45;&gt;Node5</title>
<path fill="none" stroke="midnightblue" d="M269.84,-186.5C257.29,-186.5 244.17,-186.5 232.07,-186.5"/>
<polygon fill="midnightblue" stroke="midnightblue" points="270.22,-190 280.22,-186.5 270.22,-183 270.22,-190"/>
</g>
<!-- Node9 -->
<g id="node9" class="node">
<title>Node9</title>
<g id="a_node9"><a xlink:href="classcpinti_1_1cpinti__stack__inv.html#a0f7d754d52c85f8ea179ff8f815d238c" target="_top" xlink:title=" ">
<polygon fill="white" stroke="black" points="133,-49.5 133,-79.5 234,-79.5 234,-49.5 133,-49.5"/>
<text text-anchor="start" x="141" y="-67.5" font-family="Helvetica,sans-Serif" font-size="10.00">cpinti::cpinti_stack</text>
<text text-anchor="middle" x="183.5" y="-56.5" font-family="Helvetica,sans-Serif" font-size="10.00">_inv::CLEAR_stack</text>
</a>
</g>
</g>
<!-- Node8&#45;&gt;Node9 -->
<g id="edge8" class="edge">
<title>Node8&#45;&gt;Node9</title>
<path fill="none" stroke="midnightblue" d="M270.29,-49.55C258.28,-51.65 245.72,-53.83 234.04,-55.87"/>
<polygon fill="midnightblue" stroke="midnightblue" points="270.97,-52.99 280.22,-47.82 269.76,-46.09 270.97,-52.99"/>
</g>
<!-- Node11 -->
<g id="node11" class="node">
<title>Node11</title>
<g id="a_node11"><a xlink:href="classcpinti_1_1cpinti__stack__inv.html#abc69de4cf8fdafb235e9272814ec49b1" target="_top" xlink:title=" ">
<polygon fill="white" stroke="black" points="135,-0.5 135,-30.5 232,-30.5 232,-0.5 135,-0.5"/>
<text text-anchor="start" x="143" y="-18.5" font-family="Helvetica,sans-Serif" font-size="10.00">cpinti::cpinti_stack</text>
<text text-anchor="middle" x="183.5" y="-7.5" font-family="Helvetica,sans-Serif" font-size="10.00">_inv::set_Stack_c</text>
</a>
</g>
</g>
<!-- Node8&#45;&gt;Node11 -->
<g id="edge10" class="edge">
<title>Node8&#45;&gt;Node11</title>
<path fill="none" stroke="midnightblue" d="M270.22,-29.84C257.56,-27.72 244.29,-25.5 232.07,-23.46"/>
<polygon fill="midnightblue" stroke="midnightblue" points="269.78,-33.31 280.22,-31.51 270.93,-26.41 269.78,-33.31"/>
</g>
<!-- Node10 -->
<g id="node10" class="node">
<title>Node10</title>
<g id="a_node10"><a xlink:href="classcpinti_1_1cpinti__stack__inv.html#a2b9b3ac05f573dde863918458c02b05a" target="_top" xlink:title=" ">
<polygon fill="white" stroke="black" points="0,-49.5 0,-79.5 97,-79.5 97,-49.5 0,-49.5"/>
<text text-anchor="start" x="8" y="-67.5" font-family="Helvetica,sans-Serif" font-size="10.00">cpinti::cpinti_stack</text>
<text text-anchor="middle" x="48.5" y="-56.5" font-family="Helvetica,sans-Serif" font-size="10.00">_inv::stack__init</text>
</a>
</g>
</g>
<!-- Node9&#45;&gt;Node10 -->
<g id="edge9" class="edge">
<title>Node9&#45;&gt;Node10</title>
<path fill="none" stroke="midnightblue" d="M122.71,-64.5C114.2,-64.5 105.54,-64.5 97.3,-64.5"/>
<polygon fill="midnightblue" stroke="midnightblue" points="122.98,-68 132.98,-64.5 122.98,-61 122.98,-68"/>
</g>
</g>
</svg>
