<?xml version="1.0" encoding="UTF-8" standalone="no"?>
<!DOCTYPE svg PUBLIC "-//W3C//DTD SVG 1.1//EN"
 "http://www.w3.org/Graphics/SVG/1.1/DTD/svg11.dtd">
<!-- Generated by graphviz version 2.44.0 ()
 -->
<!-- Title: OS2.1/CPinti/network/client.cpp Pages: 1 -->
<svg width="1261pt" height="151pt"
 viewBox="0.00 0.00 1261.00 151.00" xmlns="http://www.w3.org/2000/svg" xmlns:xlink="http://www.w3.org/1999/xlink">
<g id="graph0" class="graph" transform="scale(1 1) rotate(0) translate(4 147)">
<title>OS2.1/CPinti/network/client.cpp</title>
<polygon fill="white" stroke="transparent" points="-4,4 -4,-147 1257,-147 1257,4 -4,4"/>
<!-- Node1 -->
<g id="node1" class="node">
<title>Node1</title>
<g id="a_node1"><a xlink:title=" ">
<polygon fill="#bfbfbf" stroke="black" points="512,-112.5 512,-142.5 622,-142.5 622,-112.5 512,-112.5"/>
<text text-anchor="start" x="520" y="-130.5" font-family="Helvetica,sans-Serif" font-size="10.00">OS2.1/CPinti/network</text>
<text text-anchor="middle" x="567" y="-119.5" font-family="Helvetica,sans-Serif" font-size="10.00">/client.cpp</text>
</a>
</g>
</g>
<!-- Node2 -->
<g id="node2" class="node">
<title>Node2</title>
<g id="a_node2"><a xlink:title=" ">
<polygon fill="white" stroke="#bfbfbf" points="0,-56.5 0,-75.5 48,-75.5 48,-56.5 0,-56.5"/>
<text text-anchor="middle" x="24" y="-63.5" font-family="Helvetica,sans-Serif" font-size="10.00">netdb.h</text>
</a>
</g>
</g>
<!-- Node1&#45;&gt;Node2 -->
<g id="edge1" class="edge">
<title>Node1&#45;&gt;Node2</title>
<path fill="none" stroke="midnightblue" d="M511.86,-124.07C419.65,-119.35 228.31,-106.73 57.94,-75.87"/>
<polygon fill="midnightblue" stroke="midnightblue" points="58.51,-72.42 48.04,-74.06 57.25,-79.31 58.51,-72.42"/>
</g>
<!-- Node3 -->
<g id="node3" class="node">
<title>Node3</title>
<g id="a_node3"><a xlink:title=" ">
<polygon fill="white" stroke="#bfbfbf" points="66.5,-56.5 66.5,-75.5 111.5,-75.5 111.5,-56.5 66.5,-56.5"/>
<text text-anchor="middle" x="89" y="-63.5" font-family="Helvetica,sans-Serif" font-size="10.00">stdio.h</text>
</a>
</g>
</g>
<!-- Node1&#45;&gt;Node3 -->
<g id="edge2" class="edge">
<title>Node1&#45;&gt;Node3</title>
<path fill="none" stroke="midnightblue" d="M511.83,-123.3C428.87,-117.81 267.04,-104.55 121.58,-76.03"/>
<polygon fill="midnightblue" stroke="midnightblue" points="122.07,-72.56 111.58,-74.04 120.7,-79.42 122.07,-72.56"/>
</g>
<!-- Node4 -->
<g id="node4" class="node">
<title>Node4</title>
<g id="a_node4"><a xlink:title=" ">
<polygon fill="white" stroke="#bfbfbf" points="129.5,-56.5 129.5,-75.5 176.5,-75.5 176.5,-56.5 129.5,-56.5"/>
<text text-anchor="middle" x="153" y="-63.5" font-family="Helvetica,sans-Serif" font-size="10.00">stdlib.h</text>
</a>
</g>
</g>
<!-- Node1&#45;&gt;Node4 -->
<g id="edge3" class="edge">
<title>Node1&#45;&gt;Node4</title>
<path fill="none" stroke="midnightblue" d="M511.72,-121.53C439.22,-114.48 307.94,-99.94 186.54,-75.85"/>
<polygon fill="midnightblue" stroke="midnightblue" points="187.2,-72.41 176.7,-73.87 185.82,-79.28 187.2,-72.41"/>
</g>
<!-- Node5 -->
<g id="node5" class="node">
<title>Node5</title>
<g id="a_node5"><a xlink:title=" ">
<polygon fill="white" stroke="#bfbfbf" points="195,-56.5 195,-75.5 243,-75.5 243,-56.5 195,-56.5"/>
<text text-anchor="middle" x="219" y="-63.5" font-family="Helvetica,sans-Serif" font-size="10.00">string.h</text>
</a>
</g>
</g>
<!-- Node1&#45;&gt;Node5 -->
<g id="edge4" class="edge">
<title>Node1&#45;&gt;Node5</title>
<path fill="none" stroke="midnightblue" d="M511.91,-118.73C449.76,-109.69 345.77,-93.72 257,-76 255.73,-75.75 254.43,-75.48 253.13,-75.2"/>
<polygon fill="midnightblue" stroke="midnightblue" points="253.59,-71.72 243.07,-72.97 252.07,-78.56 253.59,-71.72"/>
</g>
<!-- Node6 -->
<g id="node6" class="node">
<title>Node6</title>
<g id="a_node6"><a xlink:title=" ">
<polygon fill="white" stroke="#bfbfbf" points="236.5,-0.5 236.5,-19.5 287.5,-19.5 287.5,-0.5 236.5,-0.5"/>
<text text-anchor="middle" x="262" y="-7.5" font-family="Helvetica,sans-Serif" font-size="10.00">memory</text>
</a>
</g>
</g>
<!-- Node1&#45;&gt;Node6 -->
<g id="edge5" class="edge">
<title>Node1&#45;&gt;Node6</title>
<path fill="none" stroke="midnightblue" d="M511.71,-122.56C440.96,-116.49 323.52,-102.67 290,-76 275.75,-64.66 268.61,-44.66 265.13,-29.83"/>
<polygon fill="midnightblue" stroke="midnightblue" points="268.51,-28.86 263.12,-19.73 261.64,-30.22 268.51,-28.86"/>
</g>
<!-- Node7 -->
<g id="node7" class="node">
<title>Node7</title>
<g id="a_node7"><a xlink:title=" ">
<polygon fill="white" stroke="#bfbfbf" points="650,-56.5 650,-75.5 718,-75.5 718,-56.5 650,-56.5"/>
<text text-anchor="middle" x="684" y="-63.5" font-family="Helvetica,sans-Serif" font-size="10.00">sys/select.h</text>
</a>
</g>
</g>
<!-- Node1&#45;&gt;Node7 -->
<g id="edge6" class="edge">
<title>Node1&#45;&gt;Node7</title>
<path fill="none" stroke="midnightblue" d="M594.73,-112.4C613.83,-102.68 639.06,-89.86 657.82,-80.31"/>
<polygon fill="midnightblue" stroke="midnightblue" points="659.65,-83.31 666.98,-75.66 656.48,-77.07 659.65,-83.31"/>
</g>
<!-- Node8 -->
<g id="node8" class="node">
<title>Node8</title>
<g id="a_node8"><a xlink:title=" ">
<polygon fill="white" stroke="#bfbfbf" points="736,-56.5 736,-75.5 798,-75.5 798,-56.5 736,-56.5"/>
<text text-anchor="middle" x="767" y="-63.5" font-family="Helvetica,sans-Serif" font-size="10.00">arpa/inet.h</text>
</a>
</g>
</g>
<!-- Node1&#45;&gt;Node8 -->
<g id="edge7" class="edge">
<title>Node1&#45;&gt;Node8</title>
<path fill="none" stroke="midnightblue" d="M614.14,-112.47C649.1,-102.08 696.15,-88.08 728.77,-78.37"/>
<polygon fill="midnightblue" stroke="midnightblue" points="729.82,-81.71 738.41,-75.51 727.82,-75 729.82,-81.71"/>
</g>
<!-- Node9 -->
<g id="node9" class="node">
<title>Node9</title>
<g id="a_node9"><a xlink:title=" ">
<polygon fill="white" stroke="#bfbfbf" points="816,-56.5 816,-75.5 880,-75.5 880,-56.5 816,-56.5"/>
<text text-anchor="middle" x="848" y="-63.5" font-family="Helvetica,sans-Serif" font-size="10.00">netinet/in.h</text>
</a>
</g>
</g>
<!-- Node1&#45;&gt;Node9 -->
<g id="edge8" class="edge">
<title>Node1&#45;&gt;Node9</title>
<path fill="none" stroke="midnightblue" d="M622.32,-115C668.7,-105.33 736.96,-91.02 805.64,-76.28"/>
<polygon fill="midnightblue" stroke="midnightblue" points="806.74,-79.62 815.78,-74.1 805.26,-72.78 806.74,-79.62"/>
</g>
<!-- Node10 -->
<g id="node10" class="node">
<title>Node10</title>
<g id="a_node10"><a xlink:title=" ">
<polygon fill="white" stroke="#bfbfbf" points="898.5,-56.5 898.5,-75.5 963.5,-75.5 963.5,-56.5 898.5,-56.5"/>
<text text-anchor="middle" x="931" y="-63.5" font-family="Helvetica,sans-Serif" font-size="10.00">sys/types.h</text>
</a>
</g>
</g>
<!-- Node1&#45;&gt;Node10 -->
<g id="edge9" class="edge">
<title>Node1&#45;&gt;Node10</title>
<path fill="none" stroke="midnightblue" d="M622.14,-118.8C684.32,-109.91 788.67,-94.35 888.52,-76"/>
<polygon fill="midnightblue" stroke="midnightblue" points="889.28,-79.42 898.48,-74.16 888.01,-72.53 889.28,-79.42"/>
</g>
<!-- Node11 -->
<g id="node11" class="node">
<title>Node11</title>
<g id="a_node11"><a xlink:title=" ">
<polygon fill="white" stroke="#bfbfbf" points="982,-56.5 982,-75.5 1032,-75.5 1032,-56.5 982,-56.5"/>
<text text-anchor="middle" x="1007" y="-63.5" font-family="Helvetica,sans-Serif" font-size="10.00">unistd.h</text>
</a>
</g>
</g>
<!-- Node1&#45;&gt;Node11 -->
<g id="edge10" class="edge">
<title>Node1&#45;&gt;Node11</title>
<path fill="none" stroke="midnightblue" d="M622.2,-122.02C698.67,-115.28 841.23,-100.83 971.67,-76.03"/>
<polygon fill="midnightblue" stroke="midnightblue" points="972.68,-79.39 981.84,-74.07 971.35,-72.52 972.68,-79.39"/>
</g>
<!-- Node12 -->
<g id="node12" class="node">
<title>Node12</title>
<g id="a_node12"><a xlink:href="cpinti_8h.html" target="_top" xlink:title=" ">
<polygon fill="white" stroke="black" points="299.5,-56.5 299.5,-75.5 346.5,-75.5 346.5,-56.5 299.5,-56.5"/>
<text text-anchor="middle" x="323" y="-63.5" font-family="Helvetica,sans-Serif" font-size="10.00">cpinti.h</text>
</a>
</g>
</g>
<!-- Node1&#45;&gt;Node12 -->
<g id="edge11" class="edge">
<title>Node1&#45;&gt;Node12</title>
<path fill="none" stroke="midnightblue" d="M511.79,-113.79C471.41,-104.37 415.05,-91 356.56,-76.08"/>
<polygon fill="midnightblue" stroke="midnightblue" points="357.33,-72.67 346.77,-73.58 355.59,-79.45 357.33,-72.67"/>
</g>
<!-- Node14 -->
<g id="node14" class="node">
<title>Node14</title>
<g id="a_node14"><a xlink:href="func__cpi_8h.html" target="_top" xlink:title=" ">
<polygon fill="white" stroke="black" points="499.5,-56.5 499.5,-75.5 560.5,-75.5 560.5,-56.5 499.5,-56.5"/>
<text text-anchor="middle" x="530" y="-63.5" font-family="Helvetica,sans-Serif" font-size="10.00">func_cpi.h</text>
</a>
</g>
</g>
<!-- Node1&#45;&gt;Node14 -->
<g id="edge14" class="edge">
<title>Node1&#45;&gt;Node14</title>
<path fill="none" stroke="midnightblue" d="M558.23,-112.4C553.02,-104.02 546.37,-93.33 540.83,-84.42"/>
<polygon fill="midnightblue" stroke="midnightblue" points="543.64,-82.3 535.38,-75.66 537.69,-86 543.64,-82.3"/>
</g>
<!-- Node18 -->
<g id="node18" class="node">
<title>Node18</title>
<g id="a_node18"><a xlink:href="debug_8h.html" target="_top" xlink:title=" ">
<polygon fill="white" stroke="black" points="431,-56.5 431,-75.5 481,-75.5 481,-56.5 431,-56.5"/>
<text text-anchor="middle" x="456" y="-63.5" font-family="Helvetica,sans-Serif" font-size="10.00">debug.h</text>
</a>
</g>
</g>
<!-- Node1&#45;&gt;Node18 -->
<g id="edge18" class="edge">
<title>Node1&#45;&gt;Node18</title>
<path fill="none" stroke="midnightblue" d="M540.69,-112.4C522.74,-102.77 499.08,-90.09 481.33,-80.58"/>
<polygon fill="midnightblue" stroke="midnightblue" points="482.62,-77.3 472.15,-75.66 479.31,-83.47 482.62,-77.3"/>
</g>
<!-- Node19 -->
<g id="node19" class="node">
<title>Node19</title>
<g id="a_node19"><a xlink:title=" ">
<polygon fill="white" stroke="#bfbfbf" points="1050.5,-56.5 1050.5,-75.5 1121.5,-75.5 1121.5,-56.5 1050.5,-56.5"/>
<text text-anchor="middle" x="1086" y="-63.5" font-family="Helvetica,sans-Serif" font-size="10.00">sys/socket.h</text>
</a>
</g>
</g>
<!-- Node1&#45;&gt;Node19 -->
<g id="edge20" class="edge">
<title>Node1&#45;&gt;Node19</title>
<path fill="none" stroke="midnightblue" d="M622.31,-122.26C709.07,-115.24 882.61,-99.74 1039.86,-76.04"/>
<polygon fill="midnightblue" stroke="midnightblue" points="1040.83,-79.43 1050.19,-74.47 1039.78,-72.51 1040.83,-79.43"/>
</g>
<!-- Node20 -->
<g id="node20" class="node">
<title>Node20</title>
<g id="a_node20"><a xlink:href="client_8h.html" target="_top" xlink:title=" ">
<polygon fill="white" stroke="black" points="1139.5,-56.5 1139.5,-75.5 1186.5,-75.5 1186.5,-56.5 1139.5,-56.5"/>
<text text-anchor="middle" x="1163" y="-63.5" font-family="Helvetica,sans-Serif" font-size="10.00">client.h</text>
</a>
</g>
</g>
<!-- Node1&#45;&gt;Node20 -->
<g id="edge21" class="edge">
<title>Node1&#45;&gt;Node20</title>
<path fill="none" stroke="midnightblue" d="M622.3,-124.94C722.11,-121.38 938.99,-110.28 1129.44,-75.99"/>
<polygon fill="midnightblue" stroke="midnightblue" points="1130.14,-79.42 1139.35,-74.18 1128.88,-72.53 1130.14,-79.42"/>
</g>
<!-- Node21 -->
<g id="node21" class="node">
<title>Node21</title>
<g id="a_node21"><a xlink:href="stack_8h.html" target="_top" xlink:title=" ">
<polygon fill="white" stroke="black" points="365,-56.5 365,-75.5 413,-75.5 413,-56.5 365,-56.5"/>
<text text-anchor="middle" x="389" y="-63.5" font-family="Helvetica,sans-Serif" font-size="10.00">stack.h</text>
</a>
</g>
</g>
<!-- Node1&#45;&gt;Node21 -->
<g id="edge22" class="edge">
<title>Node1&#45;&gt;Node21</title>
<path fill="none" stroke="midnightblue" d="M524.82,-112.4C493.64,-101.98 451.75,-87.98 422.77,-78.29"/>
<polygon fill="midnightblue" stroke="midnightblue" points="423.7,-74.91 413.1,-75.06 421.48,-81.55 423.7,-74.91"/>
</g>
<!-- Node23 -->
<g id="node23" class="node">
<title>Node23</title>
<g id="a_node23"><a xlink:href="taches_8h.html" target="_top" xlink:title=" ">
<polygon fill="white" stroke="black" points="578.5,-56.5 578.5,-75.5 631.5,-75.5 631.5,-56.5 578.5,-56.5"/>
<text text-anchor="middle" x="605" y="-63.5" font-family="Helvetica,sans-Serif" font-size="10.00">taches.h</text>
</a>
</g>
</g>
<!-- Node1&#45;&gt;Node23 -->
<g id="edge27" class="edge">
<title>Node1&#45;&gt;Node23</title>
<path fill="none" stroke="midnightblue" d="M576.01,-112.4C581.41,-103.93 588.33,-93.1 594.05,-84.14"/>
<polygon fill="midnightblue" stroke="midnightblue" points="597.04,-85.97 599.47,-75.66 591.14,-82.2 597.04,-85.97"/>
</g>
<!-- Node24 -->
<g id="node24" class="node">
<title>Node24</title>
<g id="a_node24"><a xlink:href="buffer_8h.html" target="_top" xlink:title=" ">
<polygon fill="white" stroke="black" points="1205,-56.5 1205,-75.5 1253,-75.5 1253,-56.5 1205,-56.5"/>
<text text-anchor="middle" x="1229" y="-63.5" font-family="Helvetica,sans-Serif" font-size="10.00">buffer.h</text>
</a>
</g>
</g>
<!-- Node1&#45;&gt;Node24 -->
<g id="edge29" class="edge">
<title>Node1&#45;&gt;Node24</title>
<path fill="none" stroke="midnightblue" d="M622.12,-125.51C730.4,-122.83 978.45,-113.02 1195,-75.84"/>
<polygon fill="midnightblue" stroke="midnightblue" points="1195.71,-79.27 1204.97,-74.11 1194.51,-72.38 1195.71,-79.27"/>
</g>
<!-- Node12&#45;&gt;Node6 -->
<g id="edge12" class="edge">
<title>Node12&#45;&gt;Node6</title>
<path fill="none" stroke="midnightblue" d="M313.2,-56.32C304.18,-48.34 290.59,-36.31 279.68,-26.65"/>
<polygon fill="midnightblue" stroke="midnightblue" points="281.79,-23.84 271.98,-19.83 277.15,-29.08 281.79,-23.84"/>
</g>
<!-- Node13 -->
<g id="node13" class="node">
<title>Node13</title>
<g id="a_node13"><a xlink:title=" ">
<polygon fill="white" stroke="#bfbfbf" points="306,-0.5 306,-19.5 350,-19.5 350,-0.5 306,-0.5"/>
<text text-anchor="middle" x="328" y="-7.5" font-family="Helvetica,sans-Serif" font-size="10.00">vector</text>
</a>
</g>
</g>
<!-- Node12&#45;&gt;Node13 -->
<g id="edge13" class="edge">
<title>Node12&#45;&gt;Node13</title>
<path fill="none" stroke="midnightblue" d="M323.83,-56.08C324.48,-49.01 325.42,-38.86 326.24,-29.99"/>
<polygon fill="midnightblue" stroke="midnightblue" points="329.75,-30.03 327.19,-19.75 322.78,-29.39 329.75,-30.03"/>
</g>
<!-- Node15 -->
<g id="node15" class="node">
<title>Node15</title>
<g id="a_node15"><a xlink:title=" ">
<polygon fill="white" stroke="#bfbfbf" points="432,-0.5 432,-19.5 486,-19.5 486,-0.5 432,-0.5"/>
<text text-anchor="middle" x="459" y="-7.5" font-family="Helvetica,sans-Serif" font-size="10.00">iostream</text>
</a>
</g>
</g>
<!-- Node14&#45;&gt;Node15 -->
<g id="edge15" class="edge">
<title>Node14&#45;&gt;Node15</title>
<path fill="none" stroke="midnightblue" d="M518.59,-56.32C507.89,-48.18 491.66,-35.84 478.84,-26.09"/>
<polygon fill="midnightblue" stroke="midnightblue" points="480.69,-23.1 470.61,-19.83 476.46,-28.67 480.69,-23.1"/>
</g>
<!-- Node16 -->
<g id="node16" class="node">
<title>Node16</title>
<g id="a_node16"><a xlink:title=" ">
<polygon fill="white" stroke="#bfbfbf" points="504,-0.5 504,-19.5 556,-19.5 556,-0.5 504,-0.5"/>
<text text-anchor="middle" x="530" y="-7.5" font-family="Helvetica,sans-Serif" font-size="10.00">sstream</text>
</a>
</g>
</g>
<!-- Node14&#45;&gt;Node16 -->
<g id="edge16" class="edge">
<title>Node14&#45;&gt;Node16</title>
<path fill="none" stroke="midnightblue" d="M530,-56.08C530,-49.01 530,-38.86 530,-29.99"/>
<polygon fill="midnightblue" stroke="midnightblue" points="533.5,-29.75 530,-19.75 526.5,-29.75 533.5,-29.75"/>
</g>
<!-- Node17 -->
<g id="node17" class="node">
<title>Node17</title>
<g id="a_node17"><a xlink:title=" ">
<polygon fill="white" stroke="#bfbfbf" points="574.5,-0.5 574.5,-19.5 635.5,-19.5 635.5,-0.5 574.5,-0.5"/>
<text text-anchor="middle" x="605" y="-7.5" font-family="Helvetica,sans-Serif" font-size="10.00">sys/time.h</text>
</a>
</g>
</g>
<!-- Node14&#45;&gt;Node17 -->
<g id="edge17" class="edge">
<title>Node14&#45;&gt;Node17</title>
<path fill="none" stroke="midnightblue" d="M542.05,-56.32C553.46,-48.11 570.83,-35.6 584.43,-25.81"/>
<polygon fill="midnightblue" stroke="midnightblue" points="586.66,-28.52 592.73,-19.83 582.57,-22.84 586.66,-28.52"/>
</g>
<!-- Node18&#45;&gt;Node15 -->
<g id="edge19" class="edge">
<title>Node18&#45;&gt;Node15</title>
<path fill="none" stroke="midnightblue" d="M456.5,-56.08C456.89,-49.01 457.45,-38.86 457.95,-29.99"/>
<polygon fill="midnightblue" stroke="midnightblue" points="461.45,-29.93 458.51,-19.75 454.46,-29.54 461.45,-29.93"/>
</g>
<!-- Node21&#45;&gt;Node6 -->
<g id="edge24" class="edge">
<title>Node21&#45;&gt;Node6</title>
<path fill="none" stroke="midnightblue" d="M368.88,-56.44C347.98,-47.56 315.07,-33.56 291.28,-23.45"/>
<polygon fill="midnightblue" stroke="midnightblue" points="292.6,-20.21 282.03,-19.52 289.86,-26.65 292.6,-20.21"/>
</g>
<!-- Node21&#45;&gt;Node13 -->
<g id="edge25" class="edge">
<title>Node21&#45;&gt;Node13</title>
<path fill="none" stroke="midnightblue" d="M379.2,-56.32C370.18,-48.34 356.59,-36.31 345.68,-26.65"/>
<polygon fill="midnightblue" stroke="midnightblue" points="347.79,-23.84 337.98,-19.83 343.15,-29.08 347.79,-23.84"/>
</g>
<!-- Node21&#45;&gt;Node15 -->
<g id="edge23" class="edge">
<title>Node21&#45;&gt;Node15</title>
<path fill="none" stroke="midnightblue" d="M400.25,-56.32C410.8,-48.18 426.8,-35.84 439.44,-26.09"/>
<polygon fill="midnightblue" stroke="midnightblue" points="441.77,-28.71 447.55,-19.83 437.49,-23.17 441.77,-28.71"/>
</g>
<!-- Node22 -->
<g id="node22" class="node">
<title>Node22</title>
<g id="a_node22"><a xlink:title=" ">
<polygon fill="white" stroke="#bfbfbf" points="368,-0.5 368,-19.5 414,-19.5 414,-0.5 368,-0.5"/>
<text text-anchor="middle" x="391" y="-7.5" font-family="Helvetica,sans-Serif" font-size="10.00">cstring</text>
</a>
</g>
</g>
<!-- Node21&#45;&gt;Node22 -->
<g id="edge26" class="edge">
<title>Node21&#45;&gt;Node22</title>
<path fill="none" stroke="midnightblue" d="M389.33,-56.08C389.59,-49.01 389.97,-38.86 390.3,-29.99"/>
<polygon fill="midnightblue" stroke="midnightblue" points="393.8,-29.87 390.68,-19.75 386.81,-29.61 393.8,-29.87"/>
</g>
<!-- Node23&#45;&gt;Node17 -->
<g id="edge28" class="edge">
<title>Node23&#45;&gt;Node17</title>
<path fill="none" stroke="midnightblue" d="M605,-56.08C605,-49.01 605,-38.86 605,-29.99"/>
<polygon fill="midnightblue" stroke="midnightblue" points="608.5,-29.75 605,-19.75 601.5,-29.75 608.5,-29.75"/>
</g>
</g>
</svg>
