<?xml version="1.0" encoding="UTF-8" standalone="no"?>
<!DOCTYPE svg PUBLIC "-//W3C//DTD SVG 1.1//EN"
 "http://www.w3.org/Graphics/SVG/1.1/DTD/svg11.dtd">
<!-- Generated by graphviz version 2.44.0 ()
 -->
<!-- Title: OS2.1/CPinti/io/copier.cpp Pages: 1 -->
<svg width="663pt" height="140pt"
 viewBox="0.00 0.00 662.50 140.00" xmlns="http://www.w3.org/2000/svg" xmlns:xlink="http://www.w3.org/1999/xlink">
<g id="graph0" class="graph" transform="scale(1 1) rotate(0) translate(4 136)">
<title>OS2.1/CPinti/io/copier.cpp</title>
<polygon fill="white" stroke="transparent" points="-4,4 -4,-136 658.5,-136 658.5,4 -4,4"/>
<!-- Node1 -->
<g id="node1" class="node">
<title>Node1</title>
<g id="a_node1"><a xlink:title=" ">
<polygon fill="#bfbfbf" stroke="black" points="179,-112.5 179,-131.5 310,-131.5 310,-112.5 179,-112.5"/>
<text text-anchor="middle" x="244.5" y="-119.5" font-family="Helvetica,sans-Serif" font-size="10.00">OS2.1/CPinti/io/copier.cpp</text>
</a>
</g>
</g>
<!-- Node2 -->
<g id="node2" class="node">
<title>Node2</title>
<g id="a_node2"><a xlink:title=" ">
<polygon fill="white" stroke="#bfbfbf" points="0,-56.5 0,-75.5 45,-75.5 45,-56.5 0,-56.5"/>
<text text-anchor="middle" x="22.5" y="-63.5" font-family="Helvetica,sans-Serif" font-size="10.00">stdio.h</text>
</a>
</g>
</g>
<!-- Node1&#45;&gt;Node2 -->
<g id="edge1" class="edge">
<title>Node1&#45;&gt;Node2</title>
<path fill="none" stroke="midnightblue" d="M206.53,-112.5C170.13,-104.23 113.39,-91.08 54.96,-76.04"/>
<polygon fill="midnightblue" stroke="midnightblue" points="55.75,-72.63 45.19,-73.51 54,-79.4 55.75,-72.63"/>
</g>
<!-- Node3 -->
<g id="node3" class="node">
<title>Node3</title>
<g id="a_node3"><a xlink:title=" ">
<polygon fill="white" stroke="#bfbfbf" points="63.5,-56.5 63.5,-75.5 109.5,-75.5 109.5,-56.5 63.5,-56.5"/>
<text text-anchor="middle" x="86.5" y="-63.5" font-family="Helvetica,sans-Serif" font-size="10.00">errno.h</text>
</a>
</g>
</g>
<!-- Node1&#45;&gt;Node3 -->
<g id="edge2" class="edge">
<title>Node1&#45;&gt;Node3</title>
<path fill="none" stroke="midnightblue" d="M219.46,-112.44C192.34,-103.17 148.95,-88.34 119.16,-78.16"/>
<polygon fill="midnightblue" stroke="midnightblue" points="120.21,-74.82 109.62,-74.9 117.95,-81.45 120.21,-74.82"/>
</g>
<!-- Node4 -->
<g id="node4" class="node">
<title>Node4</title>
<g id="a_node4"><a xlink:title=" ">
<polygon fill="white" stroke="#bfbfbf" points="127.5,-56.5 127.5,-75.5 175.5,-75.5 175.5,-56.5 127.5,-56.5"/>
<text text-anchor="middle" x="151.5" y="-63.5" font-family="Helvetica,sans-Serif" font-size="10.00">string.h</text>
</a>
</g>
</g>
<!-- Node1&#45;&gt;Node4 -->
<g id="edge3" class="edge">
<title>Node1&#45;&gt;Node4</title>
<path fill="none" stroke="midnightblue" d="M229.56,-112.32C214.91,-103.82 192.37,-90.73 175.26,-80.8"/>
<polygon fill="midnightblue" stroke="midnightblue" points="176.81,-77.65 166.4,-75.65 173.3,-83.7 176.81,-77.65"/>
</g>
<!-- Node5 -->
<g id="node5" class="node">
<title>Node5</title>
<g id="a_node5"><a xlink:title=" ">
<polygon fill="white" stroke="#bfbfbf" points="193.5,-56.5 193.5,-75.5 239.5,-75.5 239.5,-56.5 193.5,-56.5"/>
<text text-anchor="middle" x="216.5" y="-63.5" font-family="Helvetica,sans-Serif" font-size="10.00">math.h</text>
</a>
</g>
</g>
<!-- Node1&#45;&gt;Node5 -->
<g id="edge4" class="edge">
<title>Node1&#45;&gt;Node5</title>
<path fill="none" stroke="midnightblue" d="M239.88,-112.08C236.04,-104.69 230.48,-93.95 225.74,-84.81"/>
<polygon fill="midnightblue" stroke="midnightblue" points="228.75,-83.02 221.04,-75.75 222.53,-86.24 228.75,-83.02"/>
</g>
<!-- Node6 -->
<g id="node6" class="node">
<title>Node6</title>
<g id="a_node6"><a xlink:href="_i_o_8h.html" target="_top" xlink:title=" ">
<polygon fill="white" stroke="black" points="257.5,-56.5 257.5,-75.5 289.5,-75.5 289.5,-56.5 257.5,-56.5"/>
<text text-anchor="middle" x="273.5" y="-63.5" font-family="Helvetica,sans-Serif" font-size="10.00">io.h</text>
</a>
</g>
</g>
<!-- Node1&#45;&gt;Node6 -->
<g id="edge5" class="edge">
<title>Node1&#45;&gt;Node6</title>
<path fill="none" stroke="midnightblue" d="M249.29,-112.08C253.26,-104.69 259.03,-93.95 263.93,-84.81"/>
<polygon fill="midnightblue" stroke="midnightblue" points="267.15,-86.22 268.8,-75.75 260.99,-82.91 267.15,-86.22"/>
</g>
<!-- Node7 -->
<g id="node7" class="node">
<title>Node7</title>
<g id="a_node7"><a xlink:href="func__cpi_8h.html" target="_top" xlink:title=" ">
<polygon fill="white" stroke="black" points="376,-56.5 376,-75.5 437,-75.5 437,-56.5 376,-56.5"/>
<text text-anchor="middle" x="406.5" y="-63.5" font-family="Helvetica,sans-Serif" font-size="10.00">func_cpi.h</text>
</a>
</g>
</g>
<!-- Node1&#45;&gt;Node7 -->
<g id="edge6" class="edge">
<title>Node1&#45;&gt;Node7</title>
<path fill="none" stroke="midnightblue" d="M270.17,-112.44C297.42,-103.36 340.68,-88.94 371.15,-78.78"/>
<polygon fill="midnightblue" stroke="midnightblue" points="372.57,-82 380.95,-75.52 370.36,-75.36 372.57,-82"/>
</g>
<!-- Node11 -->
<g id="node11" class="node">
<title>Node11</title>
<g id="a_node11"><a xlink:href="debug_8h.html" target="_top" xlink:title=" ">
<polygon fill="white" stroke="black" points="307.5,-56.5 307.5,-75.5 357.5,-75.5 357.5,-56.5 307.5,-56.5"/>
<text text-anchor="middle" x="332.5" y="-63.5" font-family="Helvetica,sans-Serif" font-size="10.00">debug.h</text>
</a>
</g>
</g>
<!-- Node1&#45;&gt;Node11 -->
<g id="edge10" class="edge">
<title>Node1&#45;&gt;Node11</title>
<path fill="none" stroke="midnightblue" d="M258.64,-112.32C272.37,-103.9 293.44,-90.97 309.56,-81.07"/>
<polygon fill="midnightblue" stroke="midnightblue" points="311.7,-83.87 318.4,-75.65 308.04,-77.9 311.7,-83.87"/>
</g>
<!-- Node12 -->
<g id="node12" class="node">
<title>Node12</title>
<g id="a_node12"><a xlink:href="core_8h.html" target="_top" xlink:title=" ">
<polygon fill="white" stroke="black" points="495,-56.5 495,-75.5 538,-75.5 538,-56.5 495,-56.5"/>
<text text-anchor="middle" x="516.5" y="-63.5" font-family="Helvetica,sans-Serif" font-size="10.00">core.h</text>
</a>
</g>
</g>
<!-- Node1&#45;&gt;Node12 -->
<g id="edge12" class="edge">
<title>Node1&#45;&gt;Node12</title>
<path fill="none" stroke="midnightblue" d="M287.6,-112.44C342.45,-101.55 435.9,-83 484.7,-73.31"/>
<polygon fill="midnightblue" stroke="midnightblue" points="485.57,-76.71 494.69,-71.33 484.2,-69.84 485.57,-76.71"/>
</g>
<!-- Node8 -->
<g id="node8" class="node">
<title>Node8</title>
<g id="a_node8"><a xlink:title=" ">
<polygon fill="white" stroke="#bfbfbf" points="305.5,-0.5 305.5,-19.5 359.5,-19.5 359.5,-0.5 305.5,-0.5"/>
<text text-anchor="middle" x="332.5" y="-7.5" font-family="Helvetica,sans-Serif" font-size="10.00">iostream</text>
</a>
</g>
</g>
<!-- Node7&#45;&gt;Node8 -->
<g id="edge7" class="edge">
<title>Node7&#45;&gt;Node8</title>
<path fill="none" stroke="midnightblue" d="M394.61,-56.32C383.35,-48.11 366.21,-35.6 352.79,-25.81"/>
<polygon fill="midnightblue" stroke="midnightblue" points="354.75,-22.9 344.61,-19.83 350.62,-28.56 354.75,-22.9"/>
</g>
<!-- Node9 -->
<g id="node9" class="node">
<title>Node9</title>
<g id="a_node9"><a xlink:title=" ">
<polygon fill="white" stroke="#bfbfbf" points="377.5,-0.5 377.5,-19.5 429.5,-19.5 429.5,-0.5 377.5,-0.5"/>
<text text-anchor="middle" x="403.5" y="-7.5" font-family="Helvetica,sans-Serif" font-size="10.00">sstream</text>
</a>
</g>
</g>
<!-- Node7&#45;&gt;Node9 -->
<g id="edge8" class="edge">
<title>Node7&#45;&gt;Node9</title>
<path fill="none" stroke="midnightblue" d="M406,-56.08C405.61,-49.01 405.05,-38.86 404.55,-29.99"/>
<polygon fill="midnightblue" stroke="midnightblue" points="408.04,-29.54 403.99,-19.75 401.05,-29.93 408.04,-29.54"/>
</g>
<!-- Node10 -->
<g id="node10" class="node">
<title>Node10</title>
<g id="a_node10"><a xlink:title=" ">
<polygon fill="white" stroke="#bfbfbf" points="448,-0.5 448,-19.5 509,-19.5 509,-0.5 448,-0.5"/>
<text text-anchor="middle" x="478.5" y="-7.5" font-family="Helvetica,sans-Serif" font-size="10.00">sys/time.h</text>
</a>
</g>
</g>
<!-- Node7&#45;&gt;Node10 -->
<g id="edge9" class="edge">
<title>Node7&#45;&gt;Node10</title>
<path fill="none" stroke="midnightblue" d="M418.07,-56.32C428.92,-48.18 445.38,-35.84 458.38,-26.09"/>
<polygon fill="midnightblue" stroke="midnightblue" points="460.82,-28.63 466.72,-19.83 456.62,-23.03 460.82,-28.63"/>
</g>
<!-- Node11&#45;&gt;Node8 -->
<g id="edge11" class="edge">
<title>Node11&#45;&gt;Node8</title>
<path fill="none" stroke="midnightblue" d="M332.5,-56.08C332.5,-49.01 332.5,-38.86 332.5,-29.99"/>
<polygon fill="midnightblue" stroke="midnightblue" points="336,-29.75 332.5,-19.75 329,-29.75 336,-29.75"/>
</g>
<!-- Node12&#45;&gt;Node10 -->
<g id="edge14" class="edge">
<title>Node12&#45;&gt;Node10</title>
<path fill="none" stroke="midnightblue" d="M510.23,-56.08C504.86,-48.46 496.98,-37.26 490.42,-27.94"/>
<polygon fill="midnightblue" stroke="midnightblue" points="493.28,-25.91 484.66,-19.75 487.55,-29.94 493.28,-25.91"/>
</g>
<!-- Node13 -->
<g id="node13" class="node">
<title>Node13</title>
<g id="a_node13"><a xlink:title=" ">
<polygon fill="white" stroke="#bfbfbf" points="527,-0.5 527,-19.5 580,-19.5 580,-0.5 527,-0.5"/>
<text text-anchor="middle" x="553.5" y="-7.5" font-family="Helvetica,sans-Serif" font-size="10.00">setjmp.h</text>
</a>
</g>
</g>
<!-- Node12&#45;&gt;Node13 -->
<g id="edge13" class="edge">
<title>Node12&#45;&gt;Node13</title>
<path fill="none" stroke="midnightblue" d="M522.61,-56.08C527.78,-48.53 535.35,-37.49 541.69,-28.23"/>
<polygon fill="midnightblue" stroke="midnightblue" points="544.74,-29.98 547.5,-19.75 538.96,-26.02 544.74,-29.98"/>
</g>
<!-- Node14 -->
<g id="node14" class="node">
<title>Node14</title>
<g id="a_node14"><a xlink:title=" ">
<polygon fill="white" stroke="#bfbfbf" points="598.5,-0.5 598.5,-19.5 654.5,-19.5 654.5,-0.5 598.5,-0.5"/>
<text text-anchor="middle" x="626.5" y="-7.5" font-family="Helvetica,sans-Serif" font-size="10.00">pthread.h</text>
</a>
</g>
</g>
<!-- Node12&#45;&gt;Node14 -->
<g id="edge15" class="edge">
<title>Node12&#45;&gt;Node14</title>
<path fill="none" stroke="midnightblue" d="M534.17,-56.32C551.89,-47.62 579.4,-34.12 599.79,-24.11"/>
<polygon fill="midnightblue" stroke="midnightblue" points="601.44,-27.2 608.87,-19.65 598.35,-20.92 601.44,-27.2"/>
</g>
</g>
</svg>
