<?xml version="1.0" encoding="UTF-8" standalone="no"?>
<!DOCTYPE svg PUBLIC "-//W3C//DTD SVG 1.1//EN"
 "http://www.w3.org/Graphics/SVG/1.1/DTD/svg11.dtd">
<!-- Generated by graphviz version 2.44.0 ()
 -->
<!-- Title: OS2.1/CPinti/include/core.h Pages: 1 -->
<svg width="1124pt" height="106pt"
 viewBox="0.00 0.00 1124.00 106.00" xmlns="http://www.w3.org/2000/svg" xmlns:xlink="http://www.w3.org/1999/xlink">
<g id="graph0" class="graph" transform="scale(1 1) rotate(0) translate(4 102)">
<title>OS2.1/CPinti/include/core.h</title>
<polygon fill="white" stroke="transparent" points="-4,4 -4,-102 1120,-102 1120,4 -4,4"/>
<!-- Node1 -->
<g id="node1" class="node">
<title>Node1</title>
<g id="a_node1"><a xlink:title=" ">
<polygon fill="#bfbfbf" stroke="black" points="498.5,-67.5 498.5,-97.5 605.5,-97.5 605.5,-67.5 498.5,-67.5"/>
<text text-anchor="start" x="506.5" y="-85.5" font-family="Helvetica,sans-Serif" font-size="10.00">OS2.1/CPinti/include</text>
<text text-anchor="middle" x="552" y="-74.5" font-family="Helvetica,sans-Serif" font-size="10.00">/core.h</text>
</a>
</g>
</g>
<!-- Node2 -->
<g id="node2" class="node">
<title>Node2</title>
<g id="a_node2"><a xlink:href="core_8cpp.html" target="_top" xlink:title=" ">
<polygon fill="white" stroke="black" points="0,-6 0,-25 134,-25 134,-6 0,-6"/>
<text text-anchor="middle" x="67" y="-13" font-family="Helvetica,sans-Serif" font-size="10.00">OS2.1/CPinti/core/core.cpp</text>
</a>
</g>
</g>
<!-- Node1&#45;&gt;Node2 -->
<g id="edge1" class="edge">
<title>Node1&#45;&gt;Node2</title>
<path fill="none" stroke="midnightblue" d="M488.25,-74.94C407.64,-66.34 264.67,-50.1 143,-31 131.99,-29.27 120.12,-27.14 109.12,-25.05"/>
<polygon fill="midnightblue" stroke="midnightblue" points="487.93,-78.43 498.25,-76 488.67,-71.47 487.93,-78.43"/>
</g>
<!-- Node3 -->
<g id="node3" class="node">
<title>Node3</title>
<g id="a_node3"><a xlink:href="func__cpi_8cpp.html" target="_top" xlink:title=" ">
<polygon fill="white" stroke="black" points="152,-0.5 152,-30.5 268,-30.5 268,-0.5 152,-0.5"/>
<text text-anchor="start" x="160" y="-18.5" font-family="Helvetica,sans-Serif" font-size="10.00">OS2.1/CPinti/core/func</text>
<text text-anchor="middle" x="210" y="-7.5" font-family="Helvetica,sans-Serif" font-size="10.00">_cpi.cpp</text>
</a>
</g>
</g>
<!-- Node1&#45;&gt;Node3 -->
<g id="edge2" class="edge">
<title>Node1&#45;&gt;Node3</title>
<path fill="none" stroke="midnightblue" d="M488.32,-70.39C432.52,-60.52 349.26,-45.45 277,-31 274.08,-30.42 271.1,-29.81 268.08,-29.19"/>
<polygon fill="midnightblue" stroke="midnightblue" points="487.96,-73.88 498.41,-72.18 489.18,-66.99 487.96,-73.88"/>
</g>
<!-- Node4 -->
<g id="node4" class="node">
<title>Node4</title>
<g id="a_node4"><a xlink:href="int_8cpp.html" target="_top" xlink:title=" ">
<polygon fill="white" stroke="black" points="286,-6 286,-25 412,-25 412,-6 286,-6"/>
<text text-anchor="middle" x="349" y="-13" font-family="Helvetica,sans-Serif" font-size="10.00">OS2.1/CPinti/core/int.cpp</text>
</a>
</g>
</g>
<!-- Node1&#45;&gt;Node4 -->
<g id="edge3" class="edge">
<title>Node1&#45;&gt;Node4</title>
<path fill="none" stroke="midnightblue" d="M498.19,-64.27C458.63,-51.6 406.57,-34.93 375.57,-25.01"/>
<polygon fill="midnightblue" stroke="midnightblue" points="497.36,-67.68 507.95,-67.4 499.5,-61.01 497.36,-67.68"/>
</g>
<!-- Node5 -->
<g id="node5" class="node">
<title>Node5</title>
<g id="a_node5"><a xlink:href="wpr__process_8cpp.html" target="_top" xlink:title=" ">
<polygon fill="white" stroke="black" points="430.5,-0.5 430.5,-30.5 543.5,-30.5 543.5,-0.5 430.5,-0.5"/>
<text text-anchor="start" x="438.5" y="-18.5" font-family="Helvetica,sans-Serif" font-size="10.00">OS2.1/CPinti/core/wpr</text>
<text text-anchor="middle" x="487" y="-7.5" font-family="Helvetica,sans-Serif" font-size="10.00">_process.cpp</text>
</a>
</g>
</g>
<!-- Node1&#45;&gt;Node5 -->
<g id="edge4" class="edge">
<title>Node1&#45;&gt;Node5</title>
<path fill="none" stroke="midnightblue" d="M530.81,-60.31C521.06,-50.56 509.76,-39.26 501.08,-30.58"/>
<polygon fill="midnightblue" stroke="midnightblue" points="528.35,-62.8 537.9,-67.4 533.3,-57.85 528.35,-62.8"/>
</g>
<!-- Node6 -->
<g id="node6" class="node">
<title>Node6</title>
<g id="a_node6"><a xlink:href="wpr__thread_8cpp.html" target="_top" xlink:title=" ">
<polygon fill="white" stroke="black" points="561.5,-0.5 561.5,-30.5 674.5,-30.5 674.5,-0.5 561.5,-0.5"/>
<text text-anchor="start" x="569.5" y="-18.5" font-family="Helvetica,sans-Serif" font-size="10.00">OS2.1/CPinti/core/wpr</text>
<text text-anchor="middle" x="618" y="-7.5" font-family="Helvetica,sans-Serif" font-size="10.00">_thread.cpp</text>
</a>
</g>
</g>
<!-- Node1&#45;&gt;Node6 -->
<g id="edge5" class="edge">
<title>Node1&#45;&gt;Node6</title>
<path fill="none" stroke="midnightblue" d="M573.51,-60.31C583.41,-50.56 594.89,-39.26 603.71,-30.58"/>
<polygon fill="midnightblue" stroke="midnightblue" points="570.99,-57.89 566.32,-67.4 575.9,-62.87 570.99,-57.89"/>
</g>
<!-- Node7 -->
<g id="node7" class="node">
<title>Node7</title>
<g id="a_node7"><a xlink:href="copier_8cpp.html" target="_top" xlink:title=" ">
<polygon fill="white" stroke="black" points="692.5,-6 692.5,-25 823.5,-25 823.5,-6 692.5,-6"/>
<text text-anchor="middle" x="758" y="-13" font-family="Helvetica,sans-Serif" font-size="10.00">OS2.1/CPinti/io/copier.cpp</text>
</a>
</g>
</g>
<!-- Node1&#45;&gt;Node7 -->
<g id="edge6" class="edge">
<title>Node1&#45;&gt;Node7</title>
<path fill="none" stroke="midnightblue" d="M606.1,-64.43C646.27,-51.75 699.37,-35 730.97,-25.03"/>
<polygon fill="midnightblue" stroke="midnightblue" points="604.93,-61.13 596.45,-67.48 607.04,-67.8 604.93,-61.13"/>
</g>
<!-- Node8 -->
<g id="node8" class="node">
<title>Node8</title>
<g id="a_node8"><a xlink:href="lecture_8cpp.html" target="_top" xlink:title=" ">
<polygon fill="white" stroke="black" points="842,-6 842,-25 976,-25 976,-6 842,-6"/>
<text text-anchor="middle" x="909" y="-13" font-family="Helvetica,sans-Serif" font-size="10.00">OS2.1/CPinti/io/lecture.cpp</text>
</a>
</g>
</g>
<!-- Node1&#45;&gt;Node8 -->
<g id="edge7" class="edge">
<title>Node1&#45;&gt;Node8</title>
<path fill="none" stroke="midnightblue" d="M615.58,-70.27C672.56,-60.17 758.4,-44.82 833,-31 843.3,-29.09 854.38,-27 864.81,-25.01"/>
<polygon fill="midnightblue" stroke="midnightblue" points="614.87,-66.84 605.64,-72.04 616.1,-73.74 614.87,-66.84"/>
</g>
<!-- Node9 -->
<g id="node9" class="node">
<title>Node9</title>
<g id="a_node9"><a xlink:href="size_8cpp.html" target="_top" xlink:title=" ">
<polygon fill="white" stroke="black" points="994,-6 994,-25 1116,-25 1116,-6 994,-6"/>
<text text-anchor="middle" x="1055" y="-13" font-family="Helvetica,sans-Serif" font-size="10.00">OS2.1/CPinti/io/size.cpp</text>
</a>
</g>
</g>
<!-- Node1&#45;&gt;Node9 -->
<g id="edge8" class="edge">
<title>Node1&#45;&gt;Node9</title>
<path fill="none" stroke="midnightblue" d="M615.5,-75.86C700.11,-67.95 854.33,-52.11 985,-31 995.41,-29.32 1006.63,-27.15 1016.97,-25.01"/>
<polygon fill="midnightblue" stroke="midnightblue" points="615.17,-72.38 605.54,-76.79 615.82,-79.35 615.17,-72.38"/>
</g>
</g>
</svg>
