<?xml version="1.0" encoding="UTF-8" standalone="no"?>
<!DOCTYPE svg PUBLIC "-//W3C//DTD SVG 1.1//EN"
 "http://www.w3.org/Graphics/SVG/1.1/DTD/svg11.dtd">
<!-- Generated by graphviz version 2.44.0 ()
 -->
<!-- Title: OS2.1/CPinti/core/core.cpp Pages: 1 -->
<svg width="1038pt" height="140pt"
 viewBox="0.00 0.00 1038.23 140.00" xmlns="http://www.w3.org/2000/svg" xmlns:xlink="http://www.w3.org/1999/xlink">
<g id="graph0" class="graph" transform="scale(1 1) rotate(0) translate(4 136)">
<title>OS2.1/CPinti/core/core.cpp</title>
<polygon fill="white" stroke="transparent" points="-4,4 -4,-136 1034.23,-136 1034.23,4 -4,4"/>
<!-- Node1 -->
<g id="node1" class="node">
<title>Node1</title>
<g id="a_node1"><a xlink:title=" ">
<polygon fill="#bfbfbf" stroke="black" points="354.23,-112.5 354.23,-131.5 488.23,-131.5 488.23,-112.5 354.23,-112.5"/>
<text text-anchor="middle" x="421.23" y="-119.5" font-family="Helvetica,sans-Serif" font-size="10.00">OS2.1/CPinti/core/core.cpp</text>
</a>
</g>
</g>
<!-- Node2 -->
<g id="node2" class="node">
<title>Node2</title>
<g id="a_node2"><a xlink:title=" ">
<polygon fill="white" stroke="#bfbfbf" points="681.23,-0.5 681.23,-19.5 735.23,-19.5 735.23,-0.5 681.23,-0.5"/>
<text text-anchor="middle" x="708.23" y="-7.5" font-family="Helvetica,sans-Serif" font-size="10.00">iostream</text>
</a>
</g>
</g>
<!-- Node1&#45;&gt;Node2 -->
<g id="edge1" class="edge">
<title>Node1&#45;&gt;Node2</title>
<path fill="none" stroke="midnightblue" d="M353.98,-120.53C224.52,-118.46 -42.47,-107.93 6.23,-56 29.13,-31.58 527.89,-15.98 670.47,-12"/>
<polygon fill="midnightblue" stroke="midnightblue" points="670.98,-15.49 680.88,-11.72 670.78,-8.49 670.98,-15.49"/>
</g>
<!-- Node3 -->
<g id="node3" class="node">
<title>Node3</title>
<g id="a_node3"><a xlink:title=" ">
<polygon fill="white" stroke="#bfbfbf" points="15.73,-56.5 15.73,-75.5 62.73,-75.5 62.73,-56.5 15.73,-56.5"/>
<text text-anchor="middle" x="39.23" y="-63.5" font-family="Helvetica,sans-Serif" font-size="10.00">stdlib.h</text>
</a>
</g>
</g>
<!-- Node1&#45;&gt;Node3 -->
<g id="edge2" class="edge">
<title>Node1&#45;&gt;Node3</title>
<path fill="none" stroke="midnightblue" d="M354.21,-115.13C285.82,-108.52 176.53,-96.22 72.94,-75.88"/>
<polygon fill="midnightblue" stroke="midnightblue" points="73.42,-72.41 62.93,-73.88 72.05,-79.27 73.42,-72.41"/>
</g>
<!-- Node4 -->
<g id="node4" class="node">
<title>Node4</title>
<g id="a_node4"><a xlink:title=" ">
<polygon fill="white" stroke="#bfbfbf" points="81.23,-56.5 81.23,-75.5 129.23,-75.5 129.23,-56.5 81.23,-56.5"/>
<text text-anchor="middle" x="105.23" y="-63.5" font-family="Helvetica,sans-Serif" font-size="10.00">string.h</text>
</a>
</g>
</g>
<!-- Node1&#45;&gt;Node4 -->
<g id="edge3" class="edge">
<title>Node1&#45;&gt;Node4</title>
<path fill="none" stroke="midnightblue" d="M354.52,-112.48C299.3,-104.94 218.62,-92.85 139.46,-76.07"/>
<polygon fill="midnightblue" stroke="midnightblue" points="139.82,-72.57 129.31,-73.89 138.35,-79.41 139.82,-72.57"/>
</g>
<!-- Node5 -->
<g id="node5" class="node">
<title>Node5</title>
<g id="a_node5"><a xlink:title=" ">
<polygon fill="white" stroke="#bfbfbf" points="147.73,-56.5 147.73,-75.5 190.73,-75.5 190.73,-56.5 147.73,-56.5"/>
<text text-anchor="middle" x="169.23" y="-63.5" font-family="Helvetica,sans-Serif" font-size="10.00">time.h</text>
</a>
</g>
</g>
<!-- Node1&#45;&gt;Node5 -->
<g id="edge4" class="edge">
<title>Node1&#45;&gt;Node5</title>
<path fill="none" stroke="midnightblue" d="M373.56,-112.46C330.82,-104.54 266.23,-91.93 200.91,-76"/>
<polygon fill="midnightblue" stroke="midnightblue" points="201.4,-72.51 190.85,-73.52 199.72,-79.31 201.4,-72.51"/>
</g>
<!-- Node6 -->
<g id="node6" class="node">
<title>Node6</title>
<g id="a_node6"><a xlink:title=" ">
<polygon fill="white" stroke="#bfbfbf" points="209.23,-56.5 209.23,-75.5 249.23,-75.5 249.23,-56.5 209.23,-56.5"/>
<text text-anchor="middle" x="229.23" y="-63.5" font-family="Helvetica,sans-Serif" font-size="10.00">dos.h</text>
</a>
</g>
</g>
<!-- Node1&#45;&gt;Node6 -->
<g id="edge5" class="edge">
<title>Node1&#45;&gt;Node6</title>
<path fill="none" stroke="midnightblue" d="M388.98,-112.42C358.03,-104.11 309.74,-90.97 259.27,-76.24"/>
<polygon fill="midnightblue" stroke="midnightblue" points="260.07,-72.83 249.49,-73.38 258.1,-79.55 260.07,-72.83"/>
</g>
<!-- Node7 -->
<g id="node7" class="node">
<title>Node7</title>
<g id="a_node7"><a xlink:title=" ">
<polygon fill="white" stroke="#bfbfbf" points="267.23,-56.5 267.23,-75.5 317.23,-75.5 317.23,-56.5 267.23,-56.5"/>
<text text-anchor="middle" x="292.23" y="-63.5" font-family="Helvetica,sans-Serif" font-size="10.00">signal.h</text>
</a>
</g>
</g>
<!-- Node1&#45;&gt;Node7 -->
<g id="edge6" class="edge">
<title>Node1&#45;&gt;Node7</title>
<path fill="none" stroke="midnightblue" d="M400.79,-112.44C379.56,-103.56 346.13,-89.56 321.98,-79.45"/>
<polygon fill="midnightblue" stroke="midnightblue" points="323.15,-76.15 312.58,-75.52 320.45,-82.61 323.15,-76.15"/>
</g>
<!-- Node8 -->
<g id="node8" class="node">
<title>Node8</title>
<g id="a_node8"><a xlink:title=" ">
<polygon fill="white" stroke="#bfbfbf" points="335.23,-56.5 335.23,-75.5 381.23,-75.5 381.23,-56.5 335.23,-56.5"/>
<text text-anchor="middle" x="358.23" y="-63.5" font-family="Helvetica,sans-Serif" font-size="10.00">math.h</text>
</a>
</g>
</g>
<!-- Node1&#45;&gt;Node8 -->
<g id="edge7" class="edge">
<title>Node1&#45;&gt;Node8</title>
<path fill="none" stroke="midnightblue" d="M411.11,-112.32C401.71,-104.26 387.49,-92.08 376.16,-82.37"/>
<polygon fill="midnightblue" stroke="midnightblue" points="378.41,-79.68 368.54,-75.83 373.85,-85 378.41,-79.68"/>
</g>
<!-- Node9 -->
<g id="node9" class="node">
<title>Node9</title>
<g id="a_node9"><a xlink:title=" ">
<polygon fill="white" stroke="#bfbfbf" points="399.73,-56.5 399.73,-75.5 442.73,-75.5 442.73,-56.5 399.73,-56.5"/>
<text text-anchor="middle" x="421.23" y="-63.5" font-family="Helvetica,sans-Serif" font-size="10.00">cstdio</text>
</a>
</g>
</g>
<!-- Node1&#45;&gt;Node9 -->
<g id="edge8" class="edge">
<title>Node1&#45;&gt;Node9</title>
<path fill="none" stroke="midnightblue" d="M421.23,-112.08C421.23,-105.01 421.23,-94.86 421.23,-85.99"/>
<polygon fill="midnightblue" stroke="midnightblue" points="424.73,-85.75 421.23,-75.75 417.73,-85.75 424.73,-85.75"/>
</g>
<!-- Node10 -->
<g id="node10" class="node">
<title>Node10</title>
<g id="a_node10"><a xlink:title=" ">
<polygon fill="white" stroke="#bfbfbf" points="461.23,-56.5 461.23,-75.5 511.23,-75.5 511.23,-56.5 461.23,-56.5"/>
<text text-anchor="middle" x="486.23" y="-63.5" font-family="Helvetica,sans-Serif" font-size="10.00">unistd.h</text>
</a>
</g>
</g>
<!-- Node1&#45;&gt;Node10 -->
<g id="edge9" class="edge">
<title>Node1&#45;&gt;Node10</title>
<path fill="none" stroke="midnightblue" d="M431.68,-112.32C441.38,-104.26 456.05,-92.08 467.73,-82.37"/>
<polygon fill="midnightblue" stroke="midnightblue" points="470.14,-84.92 475.6,-75.83 465.67,-79.53 470.14,-84.92"/>
</g>
<!-- Node11 -->
<g id="node11" class="node">
<title>Node11</title>
<g id="a_node11"><a xlink:title=" ">
<polygon fill="white" stroke="#bfbfbf" points="529.73,-56.5 529.73,-75.5 574.73,-75.5 574.73,-56.5 529.73,-56.5"/>
<text text-anchor="middle" x="552.23" y="-63.5" font-family="Helvetica,sans-Serif" font-size="10.00">cstdlib</text>
</a>
</g>
</g>
<!-- Node1&#45;&gt;Node11 -->
<g id="edge10" class="edge">
<title>Node1&#45;&gt;Node11</title>
<path fill="none" stroke="midnightblue" d="M441.99,-112.44C463.55,-103.56 497.49,-89.56 522.03,-79.45"/>
<polygon fill="midnightblue" stroke="midnightblue" points="523.66,-82.56 531.57,-75.52 520.99,-76.09 523.66,-82.56"/>
</g>
<!-- Node12 -->
<g id="node12" class="node">
<title>Node12</title>
<g id="a_node12"><a xlink:title=" ">
<polygon fill="white" stroke="#bfbfbf" points="592.73,-56.5 592.73,-75.5 637.73,-75.5 637.73,-56.5 592.73,-56.5"/>
<text text-anchor="middle" x="615.23" y="-63.5" font-family="Helvetica,sans-Serif" font-size="10.00">stdio.h</text>
</a>
</g>
</g>
<!-- Node1&#45;&gt;Node12 -->
<g id="edge11" class="edge">
<title>Node1&#45;&gt;Node12</title>
<path fill="none" stroke="midnightblue" d="M451.99,-112.49C482.68,-103.99 531.41,-90.47 582.87,-76.09"/>
<polygon fill="midnightblue" stroke="midnightblue" points="583.82,-79.46 592.51,-73.4 581.94,-72.72 583.82,-79.46"/>
</g>
<!-- Node13 -->
<g id="node13" class="node">
<title>Node13</title>
<g id="a_node13"><a xlink:title=" ">
<polygon fill="white" stroke="#bfbfbf" points="655.73,-56.5 655.73,-75.5 700.73,-75.5 700.73,-56.5 655.73,-56.5"/>
<text text-anchor="middle" x="678.23" y="-63.5" font-family="Helvetica,sans-Serif" font-size="10.00">dpmi.h</text>
</a>
</g>
</g>
<!-- Node1&#45;&gt;Node13 -->
<g id="edge12" class="edge">
<title>Node1&#45;&gt;Node13</title>
<path fill="none" stroke="midnightblue" d="M469.31,-112.49C512.88,-104.53 579.05,-91.82 645.72,-75.97"/>
<polygon fill="midnightblue" stroke="midnightblue" points="646.66,-79.35 655.56,-73.61 645.02,-72.54 646.66,-79.35"/>
</g>
<!-- Node14 -->
<g id="node14" class="node">
<title>Node14</title>
<g id="a_node14"><a xlink:href="debug_8h.html" target="_top" xlink:title=" ">
<polygon fill="white" stroke="black" points="719.23,-56.5 719.23,-75.5 769.23,-75.5 769.23,-56.5 719.23,-56.5"/>
<text text-anchor="middle" x="744.23" y="-63.5" font-family="Helvetica,sans-Serif" font-size="10.00">debug.h</text>
</a>
</g>
</g>
<!-- Node1&#45;&gt;Node14 -->
<g id="edge13" class="edge">
<title>Node1&#45;&gt;Node14</title>
<path fill="none" stroke="midnightblue" d="M487.62,-112.48C546.2,-104.53 633.77,-91.56 709.23,-76 709.33,-75.98 709.43,-75.96 709.53,-75.94"/>
<polygon fill="midnightblue" stroke="midnightblue" points="710.08,-79.4 719.06,-73.78 708.54,-72.57 710.08,-79.4"/>
</g>
<!-- Node15 -->
<g id="node15" class="node">
<title>Node15</title>
<g id="a_node15"><a xlink:href="func__cpi_8h.html" target="_top" xlink:title=" ">
<polygon fill="white" stroke="black" points="787.23,-56.5 787.23,-75.5 851.23,-75.5 851.23,-56.5 787.23,-56.5"/>
<text text-anchor="middle" x="819.23" y="-63.5" font-family="Helvetica,sans-Serif" font-size="10.00">Func_cpi.h</text>
</a>
</g>
</g>
<!-- Node1&#45;&gt;Node15 -->
<g id="edge15" class="edge">
<title>Node1&#45;&gt;Node15</title>
<path fill="none" stroke="midnightblue" d="M488.28,-114.38C558.06,-107.08 670.66,-94.14 777.11,-76.06"/>
<polygon fill="midnightblue" stroke="midnightblue" points="777.79,-79.49 787.06,-74.35 776.61,-72.59 777.79,-79.49"/>
</g>
<!-- Node18 -->
<g id="node18" class="node">
<title>Node18</title>
<g id="a_node18"><a xlink:href="core_8h.html" target="_top" xlink:title=" ">
<polygon fill="white" stroke="black" points="888.73,-56.5 888.73,-75.5 931.73,-75.5 931.73,-56.5 888.73,-56.5"/>
<text text-anchor="middle" x="910.23" y="-63.5" font-family="Helvetica,sans-Serif" font-size="10.00">core.h</text>
</a>
</g>
</g>
<!-- Node1&#45;&gt;Node18 -->
<g id="edge19" class="edge">
<title>Node1&#45;&gt;Node18</title>
<path fill="none" stroke="midnightblue" d="M488.36,-115.71C574.65,-108.55 728.99,-94.51 860.23,-76 866.16,-75.16 872.46,-74.14 878.52,-73.08"/>
<polygon fill="midnightblue" stroke="midnightblue" points="879.16,-76.52 888.38,-71.3 877.92,-69.63 879.16,-76.52"/>
</g>
<!-- Node14&#45;&gt;Node2 -->
<g id="edge14" class="edge">
<title>Node14&#45;&gt;Node2</title>
<path fill="none" stroke="midnightblue" d="M738.29,-56.08C733.25,-48.53 725.89,-37.49 719.72,-28.23"/>
<polygon fill="midnightblue" stroke="midnightblue" points="722.52,-26.13 714.07,-19.75 716.7,-30.01 722.52,-26.13"/>
</g>
<!-- Node15&#45;&gt;Node2 -->
<g id="edge16" class="edge">
<title>Node15&#45;&gt;Node2</title>
<path fill="none" stroke="midnightblue" d="M801.4,-56.32C783.52,-47.62 755.76,-34.12 735.19,-24.11"/>
<polygon fill="midnightblue" stroke="midnightblue" points="736.54,-20.88 726.02,-19.65 733.48,-27.18 736.54,-20.88"/>
</g>
<!-- Node16 -->
<g id="node16" class="node">
<title>Node16</title>
<g id="a_node16"><a xlink:title=" ">
<polygon fill="white" stroke="#bfbfbf" points="753.23,-0.5 753.23,-19.5 805.23,-19.5 805.23,-0.5 753.23,-0.5"/>
<text text-anchor="middle" x="779.23" y="-7.5" font-family="Helvetica,sans-Serif" font-size="10.00">sstream</text>
</a>
</g>
</g>
<!-- Node15&#45;&gt;Node16 -->
<g id="edge17" class="edge">
<title>Node15&#45;&gt;Node16</title>
<path fill="none" stroke="midnightblue" d="M812.63,-56.08C806.98,-48.46 798.69,-37.26 791.78,-27.94"/>
<polygon fill="midnightblue" stroke="midnightblue" points="794.48,-25.7 785.71,-19.75 788.85,-29.87 794.48,-25.7"/>
</g>
<!-- Node17 -->
<g id="node17" class="node">
<title>Node17</title>
<g id="a_node17"><a xlink:title=" ">
<polygon fill="white" stroke="#bfbfbf" points="823.73,-0.5 823.73,-19.5 884.73,-19.5 884.73,-0.5 823.73,-0.5"/>
<text text-anchor="middle" x="854.23" y="-7.5" font-family="Helvetica,sans-Serif" font-size="10.00">sys/time.h</text>
</a>
</g>
</g>
<!-- Node15&#45;&gt;Node17 -->
<g id="edge18" class="edge">
<title>Node15&#45;&gt;Node17</title>
<path fill="none" stroke="midnightblue" d="M825.01,-56.08C829.9,-48.53 837.06,-37.49 843.06,-28.23"/>
<polygon fill="midnightblue" stroke="midnightblue" points="846.06,-30.05 848.56,-19.75 840.18,-26.24 846.06,-30.05"/>
</g>
<!-- Node18&#45;&gt;Node17 -->
<g id="edge21" class="edge">
<title>Node18&#45;&gt;Node17</title>
<path fill="none" stroke="midnightblue" d="M901.23,-56.32C893.04,-48.42 880.73,-36.55 870.76,-26.94"/>
<polygon fill="midnightblue" stroke="midnightblue" points="873.02,-24.26 863.39,-19.83 868.16,-29.29 873.02,-24.26"/>
</g>
<!-- Node19 -->
<g id="node19" class="node">
<title>Node19</title>
<g id="a_node19"><a xlink:title=" ">
<polygon fill="white" stroke="#bfbfbf" points="902.73,-0.5 902.73,-19.5 955.73,-19.5 955.73,-0.5 902.73,-0.5"/>
<text text-anchor="middle" x="929.23" y="-7.5" font-family="Helvetica,sans-Serif" font-size="10.00">setjmp.h</text>
</a>
</g>
</g>
<!-- Node18&#45;&gt;Node19 -->
<g id="edge20" class="edge">
<title>Node18&#45;&gt;Node19</title>
<path fill="none" stroke="midnightblue" d="M913.37,-56.08C915.91,-48.85 919.59,-38.41 922.76,-29.4"/>
<polygon fill="midnightblue" stroke="midnightblue" points="926.14,-30.35 926.15,-19.75 919.53,-28.02 926.14,-30.35"/>
</g>
<!-- Node20 -->
<g id="node20" class="node">
<title>Node20</title>
<g id="a_node20"><a xlink:title=" ">
<polygon fill="white" stroke="#bfbfbf" points="974.23,-0.5 974.23,-19.5 1030.23,-19.5 1030.23,-0.5 974.23,-0.5"/>
<text text-anchor="middle" x="1002.23" y="-7.5" font-family="Helvetica,sans-Serif" font-size="10.00">pthread.h</text>
</a>
</g>
</g>
<!-- Node18&#45;&gt;Node20 -->
<g id="edge22" class="edge">
<title>Node18&#45;&gt;Node20</title>
<path fill="none" stroke="midnightblue" d="M925.01,-56.32C939.5,-47.82 961.8,-34.73 978.72,-24.8"/>
<polygon fill="midnightblue" stroke="midnightblue" points="980.63,-27.74 987.49,-19.65 977.09,-21.7 980.63,-27.74"/>
</g>
</g>
</svg>
