<?xml version="1.0" encoding="UTF-8" standalone="no"?>
<!DOCTYPE svg PUBLIC "-//W3C//DTD SVG 1.1//EN"
 "http://www.w3.org/Graphics/SVG/1.1/DTD/svg11.dtd">
<!-- Generated by graphviz version 2.44.0 ()
 -->
<!-- Title: OS2.1/CPinti/include/cpinti.h Pages: 1 -->
<svg width="1369pt" height="106pt"
 viewBox="0.00 0.00 1369.00 106.00" xmlns="http://www.w3.org/2000/svg" xmlns:xlink="http://www.w3.org/1999/xlink">
<g id="graph0" class="graph" transform="scale(1 1) rotate(0) translate(4 102)">
<title>OS2.1/CPinti/include/cpinti.h</title>
<polygon fill="white" stroke="transparent" points="-4,4 -4,-102 1365,-102 1365,4 -4,4"/>
<!-- Node1 -->
<g id="node1" class="node">
<title>Node1</title>
<g id="a_node1"><a xlink:title=" ">
<polygon fill="#bfbfbf" stroke="black" points="689.5,-67.5 689.5,-97.5 796.5,-97.5 796.5,-67.5 689.5,-67.5"/>
<text text-anchor="start" x="697.5" y="-85.5" font-family="Helvetica,sans-Serif" font-size="10.00">OS2.1/CPinti/include</text>
<text text-anchor="middle" x="743" y="-74.5" font-family="Helvetica,sans-Serif" font-size="10.00">/cpinti.h</text>
</a>
</g>
</g>
<!-- Node2 -->
<g id="node2" class="node">
<title>Node2</title>
<g id="a_node2"><a xlink:href="buffer_8cpp.html" target="_top" xlink:title=" ">
<polygon fill="white" stroke="black" points="0,-6 0,-25 140,-25 140,-6 0,-6"/>
<text text-anchor="middle" x="70" y="-13" font-family="Helvetica,sans-Serif" font-size="10.00">OS2.1/CPinti/core/buffer.cpp</text>
</a>
</g>
</g>
<!-- Node1&#45;&gt;Node2 -->
<g id="edge1" class="edge">
<title>Node1&#45;&gt;Node2</title>
<path fill="none" stroke="midnightblue" d="M678.98,-78.09C569.87,-71.83 341.04,-56.73 149,-31 136.98,-29.39 124,-27.2 112.11,-25.01"/>
<polygon fill="midnightblue" stroke="midnightblue" points="678.98,-81.6 689.16,-78.67 679.38,-74.61 678.98,-81.6"/>
</g>
<!-- Node3 -->
<g id="node3" class="node">
<title>Node3</title>
<g id="a_node3"><a xlink:href="alloc_8cpp.html" target="_top" xlink:title=" ">
<polygon fill="white" stroke="black" points="158.5,-0.5 158.5,-30.5 293.5,-30.5 293.5,-0.5 158.5,-0.5"/>
<text text-anchor="start" x="166.5" y="-18.5" font-family="Helvetica,sans-Serif" font-size="10.00">OS2.1/CPinti/core/memoire</text>
<text text-anchor="middle" x="226" y="-7.5" font-family="Helvetica,sans-Serif" font-size="10.00">/alloc.cpp</text>
</a>
</g>
</g>
<!-- Node1&#45;&gt;Node3 -->
<g id="edge2" class="edge">
<title>Node1&#45;&gt;Node3</title>
<path fill="none" stroke="midnightblue" d="M679.08,-75.69C593.11,-67.53 435.6,-51.37 302,-31 299.21,-30.57 296.37,-30.12 293.5,-29.65"/>
<polygon fill="midnightblue" stroke="midnightblue" points="678.91,-79.19 689.2,-76.64 679.57,-72.22 678.91,-79.19"/>
</g>
<!-- Node4 -->
<g id="node4" class="node">
<title>Node4</title>
<g id="a_node4"><a xlink:href="meminfo_8cpp.html" target="_top" xlink:title=" ">
<polygon fill="white" stroke="black" points="311.5,-0.5 311.5,-30.5 446.5,-30.5 446.5,-0.5 311.5,-0.5"/>
<text text-anchor="start" x="319.5" y="-18.5" font-family="Helvetica,sans-Serif" font-size="10.00">OS2.1/CPinti/core/memoire</text>
<text text-anchor="middle" x="379" y="-7.5" font-family="Helvetica,sans-Serif" font-size="10.00">/meminfo.cpp</text>
</a>
</g>
</g>
<!-- Node1&#45;&gt;Node4 -->
<g id="edge3" class="edge">
<title>Node1&#45;&gt;Node4</title>
<path fill="none" stroke="midnightblue" d="M679.13,-70.49C620.94,-60.4 532.65,-44.96 456,-31 452.92,-30.44 449.78,-29.86 446.6,-29.28"/>
<polygon fill="midnightblue" stroke="midnightblue" points="678.83,-73.99 689.28,-72.24 680.02,-67.09 678.83,-73.99"/>
</g>
<!-- Node5 -->
<g id="node5" class="node">
<title>Node5</title>
<g id="a_node5"><a xlink:href="stack_8cpp.html" target="_top" xlink:title=" ">
<polygon fill="white" stroke="black" points="465,-6 465,-25 605,-25 605,-6 465,-6"/>
<text text-anchor="middle" x="535" y="-13" font-family="Helvetica,sans-Serif" font-size="10.00">OS2.1/CPinti/core/stack.cpp</text>
</a>
</g>
</g>
<!-- Node1&#45;&gt;Node5 -->
<g id="edge4" class="edge">
<title>Node1&#45;&gt;Node5</title>
<path fill="none" stroke="midnightblue" d="M688.38,-64.43C647.81,-51.75 594.2,-35 562.29,-25.03"/>
<polygon fill="midnightblue" stroke="midnightblue" points="687.53,-67.83 698.12,-67.48 689.62,-61.15 687.53,-67.83"/>
</g>
<!-- Node6 -->
<g id="node6" class="node">
<title>Node6</title>
<g id="a_node6"><a xlink:href="wpr__exec_8cpp.html" target="_top" xlink:title=" ">
<polygon fill="white" stroke="black" points="623.5,-0.5 623.5,-30.5 736.5,-30.5 736.5,-0.5 623.5,-0.5"/>
<text text-anchor="start" x="631.5" y="-18.5" font-family="Helvetica,sans-Serif" font-size="10.00">OS2.1/CPinti/core/wpr</text>
<text text-anchor="middle" x="680" y="-7.5" font-family="Helvetica,sans-Serif" font-size="10.00">_exec.cpp</text>
</a>
</g>
</g>
<!-- Node1&#45;&gt;Node6 -->
<g id="edge5" class="edge">
<title>Node1&#45;&gt;Node6</title>
<path fill="none" stroke="midnightblue" d="M722.19,-60.02C712.8,-50.34 701.98,-39.17 693.64,-30.58"/>
<polygon fill="midnightblue" stroke="midnightblue" points="719.86,-62.65 729.33,-67.4 724.88,-57.78 719.86,-62.65"/>
</g>
<!-- Node7 -->
<g id="node7" class="node">
<title>Node7</title>
<g id="a_node7"><a xlink:href="debug_8cpp.html" target="_top" xlink:title=" ">
<polygon fill="white" stroke="black" points="755,-0.5 755,-30.5 857,-30.5 857,-0.5 755,-0.5"/>
<text text-anchor="start" x="763" y="-18.5" font-family="Helvetica,sans-Serif" font-size="10.00">OS2.1/CPinti/debug</text>
<text text-anchor="middle" x="806" y="-7.5" font-family="Helvetica,sans-Serif" font-size="10.00">/debug.cpp</text>
</a>
</g>
</g>
<!-- Node1&#45;&gt;Node7 -->
<g id="edge6" class="edge">
<title>Node1&#45;&gt;Node7</title>
<path fill="none" stroke="midnightblue" d="M763.81,-60.02C773.2,-50.34 784.02,-39.17 792.36,-30.58"/>
<polygon fill="midnightblue" stroke="midnightblue" points="761.12,-57.78 756.67,-67.4 766.14,-62.65 761.12,-57.78"/>
</g>
<!-- Node8 -->
<g id="node8" class="node">
<title>Node8</title>
<g id="a_node8"><a xlink:href="wpr__io_8cpp.html" target="_top" xlink:title=" ">
<polygon fill="white" stroke="black" points="875,-0.5 875,-30.5 977,-30.5 977,-0.5 875,-0.5"/>
<text text-anchor="start" x="883" y="-18.5" font-family="Helvetica,sans-Serif" font-size="10.00">OS2.1/CPinti/io/wpr</text>
<text text-anchor="middle" x="926" y="-7.5" font-family="Helvetica,sans-Serif" font-size="10.00">_io.cpp</text>
</a>
</g>
</g>
<!-- Node1&#45;&gt;Node8 -->
<g id="edge7" class="edge">
<title>Node1&#45;&gt;Node8</title>
<path fill="none" stroke="midnightblue" d="M792.4,-63.96C821.87,-53.48 858.81,-40.37 886.37,-30.58"/>
<polygon fill="midnightblue" stroke="midnightblue" points="790.96,-60.75 782.71,-67.4 793.3,-67.35 790.96,-60.75"/>
</g>
<!-- Node9 -->
<g id="node9" class="node">
<title>Node9</title>
<g id="a_node9"><a xlink:href="client_8cpp.html" target="_top" xlink:title=" ">
<polygon fill="white" stroke="black" points="995,-0.5 995,-30.5 1105,-30.5 1105,-0.5 995,-0.5"/>
<text text-anchor="start" x="1003" y="-18.5" font-family="Helvetica,sans-Serif" font-size="10.00">OS2.1/CPinti/network</text>
<text text-anchor="middle" x="1050" y="-7.5" font-family="Helvetica,sans-Serif" font-size="10.00">/client.cpp</text>
</a>
</g>
</g>
<!-- Node1&#45;&gt;Node9 -->
<g id="edge8" class="edge">
<title>Node1&#45;&gt;Node9</title>
<path fill="none" stroke="midnightblue" d="M806.47,-68.63C855.54,-58.61 925.14,-44.22 986,-31 988.89,-30.37 991.86,-29.72 994.86,-29.06"/>
<polygon fill="midnightblue" stroke="midnightblue" points="805.73,-65.21 796.63,-70.64 807.13,-72.07 805.73,-65.21"/>
</g>
<!-- Node10 -->
<g id="node10" class="node">
<title>Node10</title>
<g id="a_node10"><a xlink:href="serveur_8cpp.html" target="_top" xlink:title=" ">
<polygon fill="white" stroke="black" points="1123,-0.5 1123,-30.5 1233,-30.5 1233,-0.5 1123,-0.5"/>
<text text-anchor="start" x="1131" y="-18.5" font-family="Helvetica,sans-Serif" font-size="10.00">OS2.1/CPinti/network</text>
<text text-anchor="middle" x="1178" y="-7.5" font-family="Helvetica,sans-Serif" font-size="10.00">/serveur.cpp</text>
</a>
</g>
</g>
<!-- Node1&#45;&gt;Node10 -->
<g id="edge9" class="edge">
<title>Node1&#45;&gt;Node10</title>
<path fill="none" stroke="midnightblue" d="M806.79,-74.54C880.92,-66.05 1006.79,-50.4 1114,-31 1116.91,-30.47 1119.9,-29.9 1122.9,-29.3"/>
<polygon fill="midnightblue" stroke="midnightblue" points="806.22,-71.08 796.68,-75.69 807.01,-78.03 806.22,-71.08"/>
</g>
<!-- Node11 -->
<g id="node11" class="node">
<title>Node11</title>
<g id="a_node11"><a xlink:href="wpr__net_8cpp.html" target="_top" xlink:title=" ">
<polygon fill="white" stroke="black" points="1251,-0.5 1251,-30.5 1361,-30.5 1361,-0.5 1251,-0.5"/>
<text text-anchor="start" x="1259" y="-18.5" font-family="Helvetica,sans-Serif" font-size="10.00">OS2.1/CPinti/network</text>
<text text-anchor="middle" x="1306" y="-7.5" font-family="Helvetica,sans-Serif" font-size="10.00">/wpr_net.cpp</text>
</a>
</g>
</g>
<!-- Node1&#45;&gt;Node11 -->
<g id="edge10" class="edge">
<title>Node1&#45;&gt;Node11</title>
<path fill="none" stroke="midnightblue" d="M806.87,-77.54C902.09,-71.07 1086.74,-56.35 1242,-31 1244.92,-30.52 1247.91,-29.99 1250.93,-29.43"/>
<polygon fill="midnightblue" stroke="midnightblue" points="806.56,-74.05 796.82,-78.21 807.03,-81.04 806.56,-74.05"/>
</g>
</g>
</svg>
