<?xml version="1.0" encoding="UTF-8" standalone="no"?>
<!DOCTYPE svg PUBLIC "-//W3C//DTD SVG 1.1//EN"
 "http://www.w3.org/Graphics/SVG/1.1/DTD/svg11.dtd">
<!-- Generated by graphviz version 2.44.0 ()
 -->
<!-- Title: OS2.1/CPinti/chrono/datetime.cpp Pages: 1 -->
<svg width="252pt" height="151pt"
 viewBox="0.00 0.00 251.50 151.00" xmlns="http://www.w3.org/2000/svg" xmlns:xlink="http://www.w3.org/1999/xlink">
<g id="graph0" class="graph" transform="scale(1 1) rotate(0) translate(4 147)">
<title>OS2.1/CPinti/chrono/datetime.cpp</title>
<polygon fill="white" stroke="transparent" points="-4,4 -4,-147 247.5,-147 247.5,4 -4,4"/>
<!-- Node1 -->
<g id="node1" class="node">
<title>Node1</title>
<g id="a_node1"><a xlink:title=" ">
<polygon fill="#bfbfbf" stroke="black" points="78,-112.5 78,-142.5 183,-142.5 183,-112.5 78,-112.5"/>
<text text-anchor="start" x="86" y="-130.5" font-family="Helvetica,sans-Serif" font-size="10.00">OS2.1/CPinti/chrono</text>
<text text-anchor="middle" x="130.5" y="-119.5" font-family="Helvetica,sans-Serif" font-size="10.00">/datetime.cpp</text>
</a>
</g>
</g>
<!-- Node2 -->
<g id="node2" class="node">
<title>Node2</title>
<g id="a_node2"><a xlink:href="datetime_8hpp.html" target="_top" xlink:title=" ">
<polygon fill="white" stroke="black" points="0,-56.5 0,-75.5 131,-75.5 131,-56.5 0,-56.5"/>
<text text-anchor="middle" x="65.5" y="-63.5" font-family="Helvetica,sans-Serif" font-size="10.00">cpinti/chrono/datetime.hpp</text>
</a>
</g>
</g>
<!-- Node1&#45;&gt;Node2 -->
<g id="edge1" class="edge">
<title>Node1&#45;&gt;Node2</title>
<path fill="none" stroke="midnightblue" d="M115.1,-112.4C105.26,-103.4 92.51,-91.72 82.39,-82.47"/>
<polygon fill="midnightblue" stroke="midnightblue" points="84.7,-79.83 74.96,-75.66 79.97,-84.99 84.7,-79.83"/>
</g>
<!-- Node5 -->
<g id="node5" class="node">
<title>Node5</title>
<g id="a_node5"><a xlink:title=" ">
<polygon fill="white" stroke="#bfbfbf" points="149.5,-56.5 149.5,-75.5 243.5,-75.5 243.5,-56.5 149.5,-56.5"/>
<text text-anchor="middle" x="196.5" y="-63.5" font-family="Helvetica,sans-Serif" font-size="10.00">cpinti/core/rtc.hpp</text>
</a>
</g>
</g>
<!-- Node1&#45;&gt;Node5 -->
<g id="edge4" class="edge">
<title>Node1&#45;&gt;Node5</title>
<path fill="none" stroke="midnightblue" d="M146.14,-112.4C156.13,-103.4 169.08,-91.72 179.35,-82.47"/>
<polygon fill="midnightblue" stroke="midnightblue" points="181.81,-84.95 186.9,-75.66 177.13,-79.75 181.81,-84.95"/>
</g>
<!-- Node3 -->
<g id="node3" class="node">
<title>Node3</title>
<g id="a_node3"><a xlink:title=" ">
<polygon fill="white" stroke="#bfbfbf" points="8.5,-0.5 8.5,-19.5 54.5,-19.5 54.5,-0.5 8.5,-0.5"/>
<text text-anchor="middle" x="31.5" y="-7.5" font-family="Helvetica,sans-Serif" font-size="10.00">cstdint</text>
</a>
</g>
</g>
<!-- Node2&#45;&gt;Node3 -->
<g id="edge2" class="edge">
<title>Node2&#45;&gt;Node3</title>
<path fill="none" stroke="midnightblue" d="M59.89,-56.08C55.13,-48.53 48.18,-37.49 42.35,-28.23"/>
<polygon fill="midnightblue" stroke="midnightblue" points="45.3,-26.35 37.01,-19.75 39.38,-30.08 45.3,-26.35"/>
</g>
<!-- Node4 -->
<g id="node4" class="node">
<title>Node4</title>
<g id="a_node4"><a xlink:title=" ">
<polygon fill="white" stroke="#bfbfbf" points="72.5,-0.5 72.5,-19.5 126.5,-19.5 126.5,-0.5 72.5,-0.5"/>
<text text-anchor="middle" x="99.5" y="-7.5" font-family="Helvetica,sans-Serif" font-size="10.00">iostream</text>
</a>
</g>
</g>
<!-- Node2&#45;&gt;Node4 -->
<g id="edge3" class="edge">
<title>Node2&#45;&gt;Node4</title>
<path fill="none" stroke="midnightblue" d="M71.11,-56.08C75.87,-48.53 82.82,-37.49 88.65,-28.23"/>
<polygon fill="midnightblue" stroke="midnightblue" points="91.62,-30.08 93.99,-19.75 85.7,-26.35 91.62,-30.08"/>
</g>
</g>
</svg>
