<?xml version="1.0" encoding="UTF-8" standalone="no"?>
<!DOCTYPE svg PUBLIC "-//W3C//DTD SVG 1.1//EN"
 "http://www.w3.org/Graphics/SVG/1.1/DTD/svg11.dtd">
<!-- Generated by graphviz version 2.44.0 ()
 -->
<!-- Title: OS2.1/CPinti/include/debug.h Pages: 1 -->
<svg width="2185pt" height="106pt"
 viewBox="0.00 0.00 2185.00 106.00" xmlns="http://www.w3.org/2000/svg" xmlns:xlink="http://www.w3.org/1999/xlink">
<g id="graph0" class="graph" transform="scale(1 1) rotate(0) translate(4 102)">
<title>OS2.1/CPinti/include/debug.h</title>
<polygon fill="white" stroke="transparent" points="-4,4 -4,-102 2181,-102 2181,4 -4,4"/>
<!-- Node1 -->
<g id="node1" class="node">
<title>Node1</title>
<g id="a_node1"><a xlink:title=" ">
<polygon fill="#bfbfbf" stroke="black" points="1065.5,-67.5 1065.5,-97.5 1172.5,-97.5 1172.5,-67.5 1065.5,-67.5"/>
<text text-anchor="start" x="1073.5" y="-85.5" font-family="Helvetica,sans-Serif" font-size="10.00">OS2.1/CPinti/include</text>
<text text-anchor="middle" x="1119" y="-74.5" font-family="Helvetica,sans-Serif" font-size="10.00">/debug.h</text>
</a>
</g>
</g>
<!-- Node2 -->
<g id="node2" class="node">
<title>Node2</title>
<g id="a_node2"><a xlink:href="buffer_8cpp.html" target="_top" xlink:title=" ">
<polygon fill="white" stroke="black" points="0,-6 0,-25 140,-25 140,-6 0,-6"/>
<text text-anchor="middle" x="70" y="-13" font-family="Helvetica,sans-Serif" font-size="10.00">OS2.1/CPinti/core/buffer.cpp</text>
</a>
</g>
</g>
<!-- Node1&#45;&gt;Node2 -->
<g id="edge1" class="edge">
<title>Node1&#45;&gt;Node2</title>
<path fill="none" stroke="midnightblue" d="M1055.12,-81.03C899.56,-79.26 488.93,-70.87 149,-31 136.54,-29.54 123.07,-27.31 110.85,-25.04"/>
<polygon fill="midnightblue" stroke="midnightblue" points="1055.39,-84.53 1065.43,-81.14 1055.47,-77.53 1055.39,-84.53"/>
</g>
<!-- Node3 -->
<g id="node3" class="node">
<title>Node3</title>
<g id="a_node3"><a xlink:href="core_8cpp.html" target="_top" xlink:title=" ">
<polygon fill="white" stroke="black" points="158,-6 158,-25 292,-25 292,-6 158,-6"/>
<text text-anchor="middle" x="225" y="-13" font-family="Helvetica,sans-Serif" font-size="10.00">OS2.1/CPinti/core/core.cpp</text>
</a>
</g>
</g>
<!-- Node1&#45;&gt;Node3 -->
<g id="edge2" class="edge">
<title>Node1&#45;&gt;Node3</title>
<path fill="none" stroke="midnightblue" d="M1054.78,-80.3C916.47,-77.12 580.3,-66.12 301,-31 289.14,-29.51 276.34,-27.3 264.69,-25.06"/>
<polygon fill="midnightblue" stroke="midnightblue" points="1055.11,-83.81 1065.18,-80.54 1055.27,-76.81 1055.11,-83.81"/>
</g>
<!-- Node4 -->
<g id="node4" class="node">
<title>Node4</title>
<g id="a_node4"><a xlink:href="int_8cpp.html" target="_top" xlink:title=" ">
<polygon fill="white" stroke="black" points="310,-6 310,-25 436,-25 436,-6 310,-6"/>
<text text-anchor="middle" x="373" y="-13" font-family="Helvetica,sans-Serif" font-size="10.00">OS2.1/CPinti/core/int.cpp</text>
</a>
</g>
</g>
<!-- Node1&#45;&gt;Node4 -->
<g id="edge3" class="edge">
<title>Node1&#45;&gt;Node4</title>
<path fill="none" stroke="midnightblue" d="M1055.36,-79.36C935.46,-74.75 668.08,-61.7 445,-31 433.88,-29.47 421.9,-27.28 410.96,-25.06"/>
<polygon fill="midnightblue" stroke="midnightblue" points="1055.34,-82.86 1065.46,-79.74 1055.6,-75.87 1055.34,-82.86"/>
</g>
<!-- Node5 -->
<g id="node5" class="node">
<title>Node5</title>
<g id="a_node5"><a xlink:href="alloc_8cpp.html" target="_top" xlink:title=" ">
<polygon fill="white" stroke="black" points="454.5,-0.5 454.5,-30.5 589.5,-30.5 589.5,-0.5 454.5,-0.5"/>
<text text-anchor="start" x="462.5" y="-18.5" font-family="Helvetica,sans-Serif" font-size="10.00">OS2.1/CPinti/core/memoire</text>
<text text-anchor="middle" x="522" y="-7.5" font-family="Helvetica,sans-Serif" font-size="10.00">/alloc.cpp</text>
</a>
</g>
</g>
<!-- Node1&#45;&gt;Node5 -->
<g id="edge4" class="edge">
<title>Node1&#45;&gt;Node5</title>
<path fill="none" stroke="midnightblue" d="M1055.09,-77.21C956.62,-70.16 761.98,-54.54 598,-31 595.34,-30.62 592.63,-30.21 589.9,-29.78"/>
<polygon fill="midnightblue" stroke="midnightblue" points="1054.96,-80.71 1065.18,-77.92 1055.45,-73.72 1054.96,-80.71"/>
</g>
<!-- Node6 -->
<g id="node6" class="node">
<title>Node6</title>
<g id="a_node6"><a xlink:href="wpr__exec_8cpp.html" target="_top" xlink:title=" ">
<polygon fill="white" stroke="black" points="607.5,-0.5 607.5,-30.5 720.5,-30.5 720.5,-0.5 607.5,-0.5"/>
<text text-anchor="start" x="615.5" y="-18.5" font-family="Helvetica,sans-Serif" font-size="10.00">OS2.1/CPinti/core/wpr</text>
<text text-anchor="middle" x="664" y="-7.5" font-family="Helvetica,sans-Serif" font-size="10.00">_exec.cpp</text>
</a>
</g>
</g>
<!-- Node1&#45;&gt;Node6 -->
<g id="edge5" class="edge">
<title>Node1&#45;&gt;Node6</title>
<path fill="none" stroke="midnightblue" d="M1055.39,-75.06C977.96,-66.8 843.39,-51.12 729,-31 726.27,-30.52 723.48,-30 720.66,-29.46"/>
<polygon fill="midnightblue" stroke="midnightblue" points="1055.15,-78.55 1065.46,-76.12 1055.89,-71.59 1055.15,-78.55"/>
</g>
<!-- Node7 -->
<g id="node7" class="node">
<title>Node7</title>
<g id="a_node7"><a xlink:href="wpr__process_8cpp.html" target="_top" xlink:title=" ">
<polygon fill="white" stroke="black" points="738.5,-0.5 738.5,-30.5 851.5,-30.5 851.5,-0.5 738.5,-0.5"/>
<text text-anchor="start" x="746.5" y="-18.5" font-family="Helvetica,sans-Serif" font-size="10.00">OS2.1/CPinti/core/wpr</text>
<text text-anchor="middle" x="795" y="-7.5" font-family="Helvetica,sans-Serif" font-size="10.00">_process.cpp</text>
</a>
</g>
</g>
<!-- Node1&#45;&gt;Node7 -->
<g id="edge6" class="edge">
<title>Node1&#45;&gt;Node7</title>
<path fill="none" stroke="midnightblue" d="M1055.5,-69.61C1003.01,-59.67 926.56,-44.91 860,-31 857.28,-30.43 854.51,-29.84 851.7,-29.24"/>
<polygon fill="midnightblue" stroke="midnightblue" points="1054.87,-73.05 1065.34,-71.47 1056.17,-66.18 1054.87,-73.05"/>
</g>
<!-- Node8 -->
<g id="node8" class="node">
<title>Node8</title>
<g id="a_node8"><a xlink:href="wpr__thread_8cpp.html" target="_top" xlink:title=" ">
<polygon fill="white" stroke="black" points="869.5,-0.5 869.5,-30.5 982.5,-30.5 982.5,-0.5 869.5,-0.5"/>
<text text-anchor="start" x="877.5" y="-18.5" font-family="Helvetica,sans-Serif" font-size="10.00">OS2.1/CPinti/core/wpr</text>
<text text-anchor="middle" x="926" y="-7.5" font-family="Helvetica,sans-Serif" font-size="10.00">_thread.cpp</text>
</a>
</g>
</g>
<!-- Node1&#45;&gt;Node8 -->
<g id="edge7" class="edge">
<title>Node1&#45;&gt;Node8</title>
<path fill="none" stroke="midnightblue" d="M1067.31,-64.09C1036.16,-53.6 996.99,-40.41 967.8,-30.58"/>
<polygon fill="midnightblue" stroke="midnightblue" points="1066.53,-67.52 1077.12,-67.4 1068.76,-60.89 1066.53,-67.52"/>
</g>
<!-- Node9 -->
<g id="node9" class="node">
<title>Node9</title>
<g id="a_node9"><a xlink:href="debug_8cpp.html" target="_top" xlink:title=" ">
<polygon fill="white" stroke="black" points="1001,-0.5 1001,-30.5 1103,-30.5 1103,-0.5 1001,-0.5"/>
<text text-anchor="start" x="1009" y="-18.5" font-family="Helvetica,sans-Serif" font-size="10.00">OS2.1/CPinti/debug</text>
<text text-anchor="middle" x="1052" y="-7.5" font-family="Helvetica,sans-Serif" font-size="10.00">/debug.cpp</text>
</a>
</g>
</g>
<!-- Node1&#45;&gt;Node9 -->
<g id="edge8" class="edge">
<title>Node1&#45;&gt;Node9</title>
<path fill="none" stroke="midnightblue" d="M1097.16,-60.31C1087.11,-50.56 1075.46,-39.26 1066.51,-30.58"/>
<polygon fill="midnightblue" stroke="midnightblue" points="1094.85,-62.94 1104.46,-67.4 1099.72,-57.92 1094.85,-62.94"/>
</g>
<!-- Node10 -->
<g id="node10" class="node">
<title>Node10</title>
<g id="a_node10"><a xlink:href="copier_8cpp.html" target="_top" xlink:title=" ">
<polygon fill="white" stroke="black" points="1121.5,-6 1121.5,-25 1252.5,-25 1252.5,-6 1121.5,-6"/>
<text text-anchor="middle" x="1187" y="-13" font-family="Helvetica,sans-Serif" font-size="10.00">OS2.1/CPinti/io/copier.cpp</text>
</a>
</g>
</g>
<!-- Node1&#45;&gt;Node10 -->
<g id="edge9" class="edge">
<title>Node1&#45;&gt;Node10</title>
<path fill="none" stroke="midnightblue" d="M1141.14,-60.34C1153.63,-48.4 1168.55,-34.14 1177.9,-25.19"/>
<polygon fill="midnightblue" stroke="midnightblue" points="1138.57,-57.96 1133.75,-67.4 1143.4,-63.02 1138.57,-57.96"/>
</g>
<!-- Node11 -->
<g id="node11" class="node">
<title>Node11</title>
<g id="a_node11"><a xlink:href="lecture_8cpp.html" target="_top" xlink:title=" ">
<polygon fill="white" stroke="black" points="1271,-6 1271,-25 1405,-25 1405,-6 1271,-6"/>
<text text-anchor="middle" x="1338" y="-13" font-family="Helvetica,sans-Serif" font-size="10.00">OS2.1/CPinti/io/lecture.cpp</text>
</a>
</g>
</g>
<!-- Node1&#45;&gt;Node11 -->
<g id="edge10" class="edge">
<title>Node1&#45;&gt;Node11</title>
<path fill="none" stroke="midnightblue" d="M1175.97,-64.59C1218.74,-51.9 1275.52,-35.04 1309.26,-25.03"/>
<polygon fill="midnightblue" stroke="midnightblue" points="1174.84,-61.28 1166.25,-67.48 1176.83,-67.99 1174.84,-61.28"/>
</g>
<!-- Node12 -->
<g id="node12" class="node">
<title>Node12</title>
<g id="a_node12"><a xlink:href="size_8cpp.html" target="_top" xlink:title=" ">
<polygon fill="white" stroke="black" points="1423,-6 1423,-25 1545,-25 1545,-6 1423,-6"/>
<text text-anchor="middle" x="1484" y="-13" font-family="Helvetica,sans-Serif" font-size="10.00">OS2.1/CPinti/io/size.cpp</text>
</a>
</g>
</g>
<!-- Node1&#45;&gt;Node12 -->
<g id="edge11" class="edge">
<title>Node1&#45;&gt;Node12</title>
<path fill="none" stroke="midnightblue" d="M1182.71,-71.25C1242.54,-61.47 1334.49,-46.04 1414,-31 1423.76,-29.16 1434.25,-27.05 1444.07,-25.02"/>
<polygon fill="midnightblue" stroke="midnightblue" points="1181.97,-67.82 1172.66,-72.89 1183.09,-74.73 1181.97,-67.82"/>
</g>
<!-- Node13 -->
<g id="node13" class="node">
<title>Node13</title>
<g id="a_node13"><a xlink:href="wpr__io_8cpp.html" target="_top" xlink:title=" ">
<polygon fill="white" stroke="black" points="1563,-0.5 1563,-30.5 1665,-30.5 1665,-0.5 1563,-0.5"/>
<text text-anchor="start" x="1571" y="-18.5" font-family="Helvetica,sans-Serif" font-size="10.00">OS2.1/CPinti/io/wpr</text>
<text text-anchor="middle" x="1614" y="-7.5" font-family="Helvetica,sans-Serif" font-size="10.00">_io.cpp</text>
</a>
</g>
</g>
<!-- Node1&#45;&gt;Node13 -->
<g id="edge12" class="edge">
<title>Node1&#45;&gt;Node13</title>
<path fill="none" stroke="midnightblue" d="M1182.56,-76.56C1267.6,-69.39 1422.92,-54.36 1554,-31 1556.85,-30.49 1559.76,-29.93 1562.7,-29.33"/>
<polygon fill="midnightblue" stroke="midnightblue" points="1182.22,-73.07 1172.54,-77.39 1182.8,-80.05 1182.22,-73.07"/>
</g>
<!-- Node14 -->
<g id="node14" class="node">
<title>Node14</title>
<g id="a_node14"><a xlink:href="client_8cpp.html" target="_top" xlink:title=" ">
<polygon fill="white" stroke="black" points="1683,-0.5 1683,-30.5 1793,-30.5 1793,-0.5 1683,-0.5"/>
<text text-anchor="start" x="1691" y="-18.5" font-family="Helvetica,sans-Serif" font-size="10.00">OS2.1/CPinti/network</text>
<text text-anchor="middle" x="1738" y="-7.5" font-family="Helvetica,sans-Serif" font-size="10.00">/client.cpp</text>
</a>
</g>
</g>
<!-- Node1&#45;&gt;Node14 -->
<g id="edge13" class="edge">
<title>Node1&#45;&gt;Node14</title>
<path fill="none" stroke="midnightblue" d="M1182.85,-78.44C1286.45,-72.85 1497.35,-58.92 1674,-31 1676.93,-30.54 1679.92,-30.02 1682.93,-29.46"/>
<polygon fill="midnightblue" stroke="midnightblue" points="1182.67,-74.94 1172.87,-78.97 1183.04,-81.93 1182.67,-74.94"/>
</g>
<!-- Node15 -->
<g id="node15" class="node">
<title>Node15</title>
<g id="a_node15"><a xlink:href="ping_8cpp.html" target="_top" xlink:title=" ">
<polygon fill="white" stroke="black" points="1811,-0.5 1811,-30.5 1921,-30.5 1921,-0.5 1811,-0.5"/>
<text text-anchor="start" x="1819" y="-18.5" font-family="Helvetica,sans-Serif" font-size="10.00">OS2.1/CPinti/network</text>
<text text-anchor="middle" x="1866" y="-7.5" font-family="Helvetica,sans-Serif" font-size="10.00">/ping.cpp</text>
</a>
</g>
</g>
<!-- Node1&#45;&gt;Node15 -->
<g id="edge14" class="edge">
<title>Node1&#45;&gt;Node15</title>
<path fill="none" stroke="midnightblue" d="M1183.1,-79.94C1304.5,-76.29 1576.04,-64.76 1802,-31 1804.93,-30.56 1807.92,-30.06 1810.94,-29.52"/>
<polygon fill="midnightblue" stroke="midnightblue" points="1182.77,-76.45 1172.87,-80.24 1182.97,-83.45 1182.77,-76.45"/>
</g>
<!-- Node16 -->
<g id="node16" class="node">
<title>Node16</title>
<g id="a_node16"><a xlink:href="serveur_8cpp.html" target="_top" xlink:title=" ">
<polygon fill="white" stroke="black" points="1939,-0.5 1939,-30.5 2049,-30.5 2049,-0.5 1939,-0.5"/>
<text text-anchor="start" x="1947" y="-18.5" font-family="Helvetica,sans-Serif" font-size="10.00">OS2.1/CPinti/network</text>
<text text-anchor="middle" x="1994" y="-7.5" font-family="Helvetica,sans-Serif" font-size="10.00">/serveur.cpp</text>
</a>
</g>
</g>
<!-- Node1&#45;&gt;Node16 -->
<g id="edge15" class="edge">
<title>Node1&#45;&gt;Node16</title>
<path fill="none" stroke="midnightblue" d="M1183.28,-81C1320.91,-79.15 1654.07,-70.59 1930,-31 1932.93,-30.58 1935.93,-30.09 1938.95,-29.56"/>
<polygon fill="midnightblue" stroke="midnightblue" points="1182.88,-77.5 1172.92,-81.13 1182.96,-84.5 1182.88,-77.5"/>
</g>
<!-- Node17 -->
<g id="node17" class="node">
<title>Node17</title>
<g id="a_node17"><a xlink:href="wpr__net_8cpp.html" target="_top" xlink:title=" ">
<polygon fill="white" stroke="black" points="2067,-0.5 2067,-30.5 2177,-30.5 2177,-0.5 2067,-0.5"/>
<text text-anchor="start" x="2075" y="-18.5" font-family="Helvetica,sans-Serif" font-size="10.00">OS2.1/CPinti/network</text>
<text text-anchor="middle" x="2122" y="-7.5" font-family="Helvetica,sans-Serif" font-size="10.00">/wpr_net.cpp</text>
</a>
</g>
</g>
<!-- Node1&#45;&gt;Node17 -->
<g id="edge16" class="edge">
<title>Node1&#45;&gt;Node17</title>
<path fill="none" stroke="midnightblue" d="M1182.6,-81.77C1334.67,-81.63 1731,-76.5 2058,-31 2060.93,-30.59 2063.93,-30.12 2066.95,-29.59"/>
<polygon fill="midnightblue" stroke="midnightblue" points="1182.51,-78.27 1172.51,-81.78 1182.51,-85.27 1182.51,-78.27"/>
</g>
</g>
</svg>
