<?xml version="1.0" encoding="UTF-8" standalone="no"?>
<!DOCTYPE svg PUBLIC "-//W3C//DTD SVG 1.1//EN"
 "http://www.w3.org/Graphics/SVG/1.1/DTD/svg11.dtd">
<!-- Generated by graphviz version 2.44.0 ()
 -->
<!-- Title: OS2.1/CPinti/network Pages: 1 -->
<svg width="94pt" height="167pt"
 viewBox="0.00 0.00 94.00 167.00" xmlns="http://www.w3.org/2000/svg" xmlns:xlink="http://www.w3.org/1999/xlink">
<g id="graph0" class="graph" transform="scale(1 1) rotate(0) translate(4 163)">
<title>OS2.1/CPinti/network</title>
<polygon fill="white" stroke="transparent" points="-4,4 -4,-163 90,-163 90,4 -4,4"/>
<g id="clust1" class="cluster">
<title>clusterdir_aba61afab05a726df7dae8eace3517d5</title>
<g id="a_clust1"><a xlink:href="dir_aba61afab05a726df7dae8eace3517d5.html" target="_top" xlink:title="CPinti">
<polygon fill="#ddddee" stroke="black" points="8,-8 8,-151 78,-151 78,-8 8,-8"/>
<text text-anchor="middle" x="43" y="-139" font-family="Helvetica,sans-Serif" font-size="10.00">CPinti</text>
</a>
</g>
</g>
<!-- dir_6bbfed0211d500186e9d5a60a31b2cdd -->
<g id="node1" class="node">
<title>dir_6bbfed0211d500186e9d5a60a31b2cdd</title>
<g id="a_node1"><a xlink:href="dir_6bbfed0211d500186e9d5a60a31b2cdd.html" target="_top" xlink:title="include">
<polygon fill="white" stroke="red" points="70,-52 16,-52 16,-16 70,-16 70,-52"/>
<text text-anchor="middle" x="43" y="-31.5" font-family="Helvetica,sans-Serif" font-size="10.00">include</text>
</a>
</g>
</g>
<!-- dir_466cda4e9578917928675367dcd11a22 -->
<g id="node2" class="node">
<title>dir_466cda4e9578917928675367dcd11a22</title>
<g id="a_node2"><a xlink:href="dir_466cda4e9578917928675367dcd11a22.html" target="_top" xlink:title="network">
<polygon fill="#eeeeff" stroke="black" points="70,-124 16,-124 16,-88 70,-88 70,-124"/>
<text text-anchor="middle" x="43" y="-103.5" font-family="Helvetica,sans-Serif" font-size="10.00">network</text>
</a>
</g>
</g>
<!-- dir_466cda4e9578917928675367dcd11a22&#45;&gt;dir_6bbfed0211d500186e9d5a60a31b2cdd -->
<g id="edge1" class="edge">
<title>dir_466cda4e9578917928675367dcd11a22&#45;&gt;dir_6bbfed0211d500186e9d5a60a31b2cdd</title>
<path fill="none" stroke="black" d="M43,-87.7C43,-79.98 43,-70.71 43,-62.11"/>
<polygon fill="black" stroke="black" points="46.5,-62.1 43,-52.1 39.5,-62.1 46.5,-62.1"/>
<g id="a_edge1&#45;headlabel"><a xlink:href="dir_000012_000007.html" target="_top" xlink:title="27">
<text text-anchor="middle" x="49.34" y="-63.2" font-family="Helvetica,sans-Serif" font-size="10.00">27</text>
</a>
</g>
</g>
</g>
</svg>
