<?xml version="1.0" encoding="UTF-8" standalone="no"?>
<!DOCTYPE svg PUBLIC "-//W3C//DTD SVG 1.1//EN"
 "http://www.w3.org/Graphics/SVG/1.1/DTD/svg11.dtd">
<!-- Generated by graphviz version 2.44.0 ()
 -->
<!-- Title: OS2.1/CPinti Pages: 1 -->
<svg width="542pt" height="183pt"
 viewBox="0.00 0.00 542.00 183.00" xmlns="http://www.w3.org/2000/svg" xmlns:xlink="http://www.w3.org/1999/xlink">
<g id="graph0" class="graph" transform="scale(1 1) rotate(0) translate(4 179)">
<title>OS2.1/CPinti</title>
<polygon fill="white" stroke="transparent" points="-4,4 -4,-179 538,-179 538,4 -4,4"/>
<g id="clust1" class="cluster">
<title>clusterdir_405df7bedc8fea89380e68f08120baaa</title>
<g id="a_clust1"><a xlink:href="dir_405df7bedc8fea89380e68f08120baaa.html" target="_top" xlink:title="OS2.1">
<polygon fill="#ddddee" stroke="black" points="8,-8 8,-167 526,-167 526,-8 8,-8"/>
<text text-anchor="middle" x="267" y="-155" font-family="Helvetica,sans-Serif" font-size="10.00">OS2.1</text>
</a>
</g>
</g>
<g id="clust2" class="cluster">
<title>clusterdir_aba61afab05a726df7dae8eace3517d5</title>
<g id="a_clust2"><a xlink:href="dir_aba61afab05a726df7dae8eace3517d5.html" target="_top">
<polygon fill="#eeeeff" stroke="black" points="16,-16 16,-140 518,-140 518,-16 16,-16"/>
</a>
</g>
</g>
<!-- dir_aba61afab05a726df7dae8eace3517d5 -->
<g id="node1" class="node">
<title>dir_aba61afab05a726df7dae8eace3517d5</title>
<text text-anchor="middle" x="483" y="-111.5" font-family="Helvetica,sans-Serif" font-size="10.00">CPinti</text>
</g>
<!-- dir_fb28e310a016690873a8791029567a05 -->
<g id="node2" class="node">
<title>dir_fb28e310a016690873a8791029567a05</title>
<g id="a_node2"><a xlink:href="dir_fb28e310a016690873a8791029567a05.html" target="_top" xlink:title="chrono">
<polygon fill="white" stroke="black" points="438,-132 384,-132 384,-96 438,-96 438,-132"/>
<text text-anchor="middle" x="411" y="-111.5" font-family="Helvetica,sans-Serif" font-size="10.00">chrono</text>
</a>
</g>
</g>
<!-- dir_6bbfed0211d500186e9d5a60a31b2cdd -->
<g id="node6" class="node">
<title>dir_6bbfed0211d500186e9d5a60a31b2cdd</title>
<g id="a_node6"><a xlink:href="dir_6bbfed0211d500186e9d5a60a31b2cdd.html" target="_top" xlink:title="include">
<polygon fill="white" stroke="red" points="294,-60 240,-60 240,-24 294,-24 294,-60"/>
<text text-anchor="middle" x="267" y="-39.5" font-family="Helvetica,sans-Serif" font-size="10.00">include</text>
</a>
</g>
</g>
<!-- dir_fb28e310a016690873a8791029567a05&#45;&gt;dir_6bbfed0211d500186e9d5a60a31b2cdd -->
<g id="edge3" class="edge">
<title>dir_fb28e310a016690873a8791029567a05&#45;&gt;dir_6bbfed0211d500186e9d5a60a31b2cdd</title>
<path fill="none" stroke="black" d="M383.91,-99.83C361.23,-88.81 328.64,-72.97 303.63,-60.81"/>
<polygon fill="black" stroke="black" points="304.98,-57.57 294.45,-56.35 301.92,-63.87 304.98,-57.57"/>
<g id="a_edge3&#45;headlabel"><a xlink:href="dir_000002_000007.html" target="_top" xlink:title="1">
<text text-anchor="middle" x="309.45" y="-54.09" font-family="Helvetica,sans-Serif" font-size="10.00">1</text>
</a>
</g>
</g>
<!-- dir_ae0b151b6e88a9bf7c2f899fb181d967 -->
<g id="node3" class="node">
<title>dir_ae0b151b6e88a9bf7c2f899fb181d967</title>
<g id="a_node3"><a xlink:href="dir_ae0b151b6e88a9bf7c2f899fb181d967.html" target="_top" xlink:title="core">
<polygon fill="white" stroke="red" points="366,-132 312,-132 312,-96 366,-96 366,-132"/>
<text text-anchor="middle" x="339" y="-111.5" font-family="Helvetica,sans-Serif" font-size="10.00">core</text>
</a>
</g>
</g>
<!-- dir_ae0b151b6e88a9bf7c2f899fb181d967&#45;&gt;dir_6bbfed0211d500186e9d5a60a31b2cdd -->
<g id="edge4" class="edge">
<title>dir_ae0b151b6e88a9bf7c2f899fb181d967&#45;&gt;dir_6bbfed0211d500186e9d5a60a31b2cdd</title>
<path fill="none" stroke="black" d="M321.2,-95.7C312.4,-87.14 301.62,-76.66 292,-67.3"/>
<polygon fill="black" stroke="black" points="294.2,-64.57 284.59,-60.1 289.32,-69.58 294.2,-64.57"/>
<g id="a_edge4&#45;headlabel"><a xlink:href="dir_000003_000007.html" target="_top" xlink:title="34">
<text text-anchor="middle" x="298.76" y="-62.54" font-family="Helvetica,sans-Serif" font-size="10.00">34</text>
</a>
</g>
</g>
<!-- dir_703cd3f953d171587081c12d74c3e1af -->
<g id="node4" class="node">
<title>dir_703cd3f953d171587081c12d74c3e1af</title>
<g id="a_node4"><a xlink:href="dir_703cd3f953d171587081c12d74c3e1af.html" target="_top" xlink:title="debug">
<polygon fill="white" stroke="black" points="294,-132 240,-132 240,-96 294,-96 294,-132"/>
<text text-anchor="middle" x="267" y="-111.5" font-family="Helvetica,sans-Serif" font-size="10.00">debug</text>
</a>
</g>
</g>
<!-- dir_703cd3f953d171587081c12d74c3e1af&#45;&gt;dir_6bbfed0211d500186e9d5a60a31b2cdd -->
<g id="edge5" class="edge">
<title>dir_703cd3f953d171587081c12d74c3e1af&#45;&gt;dir_6bbfed0211d500186e9d5a60a31b2cdd</title>
<path fill="none" stroke="black" d="M267,-95.7C267,-87.98 267,-78.71 267,-70.11"/>
<polygon fill="black" stroke="black" points="270.5,-70.1 267,-60.1 263.5,-70.1 270.5,-70.1"/>
<g id="a_edge5&#45;headlabel"><a xlink:href="dir_000005_000007.html" target="_top" xlink:title="3">
<text text-anchor="middle" x="273.34" y="-71.2" font-family="Helvetica,sans-Serif" font-size="10.00">3</text>
</a>
</g>
</g>
<!-- dir_561579c9b17e5b4e486ff4ae08853195 -->
<g id="node5" class="node">
<title>dir_561579c9b17e5b4e486ff4ae08853195</title>
<g id="a_node5"><a xlink:href="dir_561579c9b17e5b4e486ff4ae08853195.html" target="_top" xlink:title="fs">
<polygon fill="white" stroke="black" points="222,-132 168,-132 168,-96 222,-96 222,-132"/>
<text text-anchor="middle" x="195" y="-111.5" font-family="Helvetica,sans-Serif" font-size="10.00">fs</text>
</a>
</g>
</g>
<!-- dir_247e53cf68cf2c42fd8de264ac90bfc8 -->
<g id="node7" class="node">
<title>dir_247e53cf68cf2c42fd8de264ac90bfc8</title>
<g id="a_node7"><a xlink:href="dir_247e53cf68cf2c42fd8de264ac90bfc8.html" target="_top" xlink:title="io">
<polygon fill="white" stroke="black" points="150,-132 96,-132 96,-96 150,-96 150,-132"/>
<text text-anchor="middle" x="123" y="-111.5" font-family="Helvetica,sans-Serif" font-size="10.00">io</text>
</a>
</g>
</g>
<!-- dir_247e53cf68cf2c42fd8de264ac90bfc8&#45;&gt;dir_6bbfed0211d500186e9d5a60a31b2cdd -->
<g id="edge2" class="edge">
<title>dir_247e53cf68cf2c42fd8de264ac90bfc8&#45;&gt;dir_6bbfed0211d500186e9d5a60a31b2cdd</title>
<path fill="none" stroke="black" d="M150.09,-99.83C172.77,-88.81 205.36,-72.97 230.37,-60.81"/>
<polygon fill="black" stroke="black" points="232.08,-63.87 239.55,-56.35 229.02,-57.57 232.08,-63.87"/>
<g id="a_edge2&#45;headlabel"><a xlink:href="dir_000011_000007.html" target="_top" xlink:title="16">
<text text-anchor="middle" x="230.09" y="-65.49" font-family="Helvetica,sans-Serif" font-size="10.00">16</text>
</a>
</g>
</g>
<!-- dir_466cda4e9578917928675367dcd11a22 -->
<g id="node8" class="node">
<title>dir_466cda4e9578917928675367dcd11a22</title>
<g id="a_node8"><a xlink:href="dir_466cda4e9578917928675367dcd11a22.html" target="_top" xlink:title="network">
<polygon fill="white" stroke="black" points="78,-132 24,-132 24,-96 78,-96 78,-132"/>
<text text-anchor="middle" x="51" y="-111.5" font-family="Helvetica,sans-Serif" font-size="10.00">network</text>
</a>
</g>
</g>
<!-- dir_466cda4e9578917928675367dcd11a22&#45;&gt;dir_6bbfed0211d500186e9d5a60a31b2cdd -->
<g id="edge1" class="edge">
<title>dir_466cda4e9578917928675367dcd11a22&#45;&gt;dir_6bbfed0211d500186e9d5a60a31b2cdd</title>
<path fill="none" stroke="black" d="M78.33,-99.56C81.23,-98.29 84.16,-97.08 87,-96 135.42,-77.57 193.15,-61.58 229.94,-52.12"/>
<polygon fill="black" stroke="black" points="230.9,-55.48 239.73,-49.62 229.18,-48.7 230.9,-55.48"/>
<g id="a_edge1&#45;headlabel"><a xlink:href="dir_000012_000007.html" target="_top" xlink:title="27">
<text text-anchor="middle" x="228.12" y="-56.62" font-family="Helvetica,sans-Serif" font-size="10.00">27</text>
</a>
</g>
</g>
</g>
</svg>
