<?xml version="1.0" encoding="UTF-8" standalone="no"?>
<!DOCTYPE svg PUBLIC "-//W3C//DTD SVG 1.1//EN"
 "http://www.w3.org/Graphics/SVG/1.1/DTD/svg11.dtd">
<!-- Generated by graphviz version 2.44.0 ()
 -->
<!-- Title: OS2.1/CPinti/core Pages: 1 -->
<svg width="182pt" height="175pt"
 viewBox="0.00 0.00 182.00 175.00" xmlns="http://www.w3.org/2000/svg" xmlns:xlink="http://www.w3.org/1999/xlink">
<g id="graph0" class="graph" transform="scale(1 1) rotate(0) translate(4 171)">
<title>OS2.1/CPinti/core</title>
<polygon fill="white" stroke="transparent" points="-4,4 -4,-171 178,-171 178,4 -4,4"/>
<g id="clust1" class="cluster">
<title>clusterdir_aba61afab05a726df7dae8eace3517d5</title>
<g id="a_clust1"><a xlink:href="dir_aba61afab05a726df7dae8eace3517d5.html" target="_top" xlink:title="CPinti">
<polygon fill="#ddddee" stroke="black" points="8,-8 8,-159 166,-159 166,-8 8,-8"/>
<text text-anchor="middle" x="87" y="-147" font-family="Helvetica,sans-Serif" font-size="10.00">CPinti</text>
</a>
</g>
</g>
<g id="clust2" class="cluster">
<title>clusterdir_ae0b151b6e88a9bf7c2f899fb181d967</title>
<g id="a_clust2"><a xlink:href="dir_ae0b151b6e88a9bf7c2f899fb181d967.html" target="_top">
<polygon fill="#eeeeff" stroke="black" points="16,-80 16,-132 158,-132 158,-80 16,-80"/>
</a>
</g>
</g>
<!-- dir_6bbfed0211d500186e9d5a60a31b2cdd -->
<g id="node1" class="node">
<title>dir_6bbfed0211d500186e9d5a60a31b2cdd</title>
<g id="a_node1"><a xlink:href="dir_6bbfed0211d500186e9d5a60a31b2cdd.html" target="_top" xlink:title="include">
<polygon fill="white" stroke="red" points="114,-52 60,-52 60,-16 114,-16 114,-52"/>
<text text-anchor="middle" x="87" y="-31.5" font-family="Helvetica,sans-Serif" font-size="10.00">include</text>
</a>
</g>
</g>
<!-- dir_ae0b151b6e88a9bf7c2f899fb181d967 -->
<g id="node2" class="node">
<title>dir_ae0b151b6e88a9bf7c2f899fb181d967</title>
<text text-anchor="middle" x="123" y="-103.5" font-family="Helvetica,sans-Serif" font-size="10.00">core</text>
</g>
<!-- dir_ae0b151b6e88a9bf7c2f899fb181d967&#45;&gt;dir_6bbfed0211d500186e9d5a60a31b2cdd -->
<g id="edge2" class="edge">
<title>dir_ae0b151b6e88a9bf7c2f899fb181d967&#45;&gt;dir_6bbfed0211d500186e9d5a60a31b2cdd</title>
<path fill="none" stroke="black" d="M114.1,-87.7C110,-79.73 105.05,-70.1 100.51,-61.26"/>
<polygon fill="black" stroke="black" points="103.48,-59.4 95.8,-52.1 97.26,-62.6 103.48,-59.4"/>
<g id="a_edge2&#45;headlabel"><a xlink:href="dir_000003_000007.html" target="_top" xlink:title="34">
<text text-anchor="middle" x="107.65" y="-58.79" font-family="Helvetica,sans-Serif" font-size="10.00">34</text>
</a>
</g>
</g>
<!-- dir_a0a045a43471be114649a39a8b2bbe11 -->
<g id="node3" class="node">
<title>dir_a0a045a43471be114649a39a8b2bbe11</title>
<g id="a_node3"><a xlink:href="dir_a0a045a43471be114649a39a8b2bbe11.html" target="_top" xlink:title="memoire">
<polygon fill="white" stroke="black" points="78,-124 24,-124 24,-88 78,-88 78,-124"/>
<text text-anchor="middle" x="51" y="-103.5" font-family="Helvetica,sans-Serif" font-size="10.00">memoire</text>
</a>
</g>
</g>
<!-- dir_a0a045a43471be114649a39a8b2bbe11&#45;&gt;dir_6bbfed0211d500186e9d5a60a31b2cdd -->
<g id="edge1" class="edge">
<title>dir_a0a045a43471be114649a39a8b2bbe11&#45;&gt;dir_6bbfed0211d500186e9d5a60a31b2cdd</title>
<path fill="none" stroke="black" d="M59.9,-87.7C64,-79.73 68.95,-70.1 73.49,-61.26"/>
<polygon fill="black" stroke="black" points="76.74,-62.6 78.2,-52.1 70.52,-59.4 76.74,-62.6"/>
<g id="a_edge1&#45;headlabel"><a xlink:href="dir_000004_000007.html" target="_top" xlink:title="6">
<text text-anchor="middle" x="77.62" y="-64.59" font-family="Helvetica,sans-Serif" font-size="10.00">6</text>
</a>
</g>
</g>
</g>
</svg>
