<?xml version="1.0" encoding="UTF-8" standalone="no"?>
<!DOCTYPE svg PUBLIC "-//W3C//DTD SVG 1.1//EN"
 "http://www.w3.org/Graphics/SVG/1.1/DTD/svg11.dtd">
<!-- Generated by graphviz version 2.44.0 ()
 -->
<!-- Title: OS2.1/CPinti/core/memoire Pages: 1 -->
<svg width="94pt" height="151pt"
 viewBox="0.00 0.00 94.00 151.00" xmlns="http://www.w3.org/2000/svg" xmlns:xlink="http://www.w3.org/1999/xlink">
<g id="graph0" class="graph" transform="scale(1 1) rotate(0) translate(4 147)">
<title>OS2.1/CPinti/core/memoire</title>
<polygon fill="white" stroke="transparent" points="-4,4 -4,-147 90,-147 90,4 -4,4"/>
<g id="clust1" class="cluster">
<title>clusterdir_ae0b151b6e88a9bf7c2f899fb181d967</title>
<g id="a_clust1"><a xlink:href="dir_ae0b151b6e88a9bf7c2f899fb181d967.html" target="_top" xlink:title="core">
<polygon fill="#ddddee" stroke="black" points="8,-64 8,-135 78,-135 78,-64 8,-64"/>
<text text-anchor="middle" x="43" y="-123" font-family="Helvetica,sans-Serif" font-size="10.00">core</text>
</a>
</g>
</g>
<!-- dir_a0a045a43471be114649a39a8b2bbe11 -->
<g id="node1" class="node">
<title>dir_a0a045a43471be114649a39a8b2bbe11</title>
<g id="a_node1"><a xlink:href="dir_a0a045a43471be114649a39a8b2bbe11.html" target="_top" xlink:title="memoire">
<polygon fill="#eeeeff" stroke="black" points="70,-108 16,-108 16,-72 70,-72 70,-108"/>
<text text-anchor="middle" x="43" y="-87.5" font-family="Helvetica,sans-Serif" font-size="10.00">memoire</text>
</a>
</g>
</g>
<!-- dir_6bbfed0211d500186e9d5a60a31b2cdd -->
<g id="node2" class="node">
<title>dir_6bbfed0211d500186e9d5a60a31b2cdd</title>
<g id="a_node2"><a xlink:href="dir_6bbfed0211d500186e9d5a60a31b2cdd.html" target="_top" xlink:title="include">
<polygon fill="white" stroke="red" points="70,-36 16,-36 16,0 70,0 70,-36"/>
<text text-anchor="middle" x="43" y="-15.5" font-family="Helvetica,sans-Serif" font-size="10.00">include</text>
</a>
</g>
</g>
<!-- dir_a0a045a43471be114649a39a8b2bbe11&#45;&gt;dir_6bbfed0211d500186e9d5a60a31b2cdd -->
<g id="edge1" class="edge">
<title>dir_a0a045a43471be114649a39a8b2bbe11&#45;&gt;dir_6bbfed0211d500186e9d5a60a31b2cdd</title>
<path fill="none" stroke="black" d="M43,-71.7C43,-63.98 43,-54.71 43,-46.11"/>
<polygon fill="black" stroke="black" points="46.5,-46.1 43,-36.1 39.5,-46.1 46.5,-46.1"/>
<g id="a_edge1&#45;headlabel"><a xlink:href="dir_000003_000006.html" target="_top" xlink:title="6">
<text text-anchor="middle" x="49.34" y="-47.2" font-family="Helvetica,sans-Serif" font-size="10.00">6</text>
</a>
</g>
</g>
</g>
</svg>
