<?xml version="1.0" encoding="UTF-8" standalone="no"?>
<!DOCTYPE svg PUBLIC "-//W3C//DTD SVG 1.1//EN"
 "http://www.w3.org/Graphics/SVG/1.1/DTD/svg11.dtd">
<!-- Generated by graphviz version 2.44.0 ()
 -->
<!-- Title: OS2.1/CPinti/include/func_cpi.h Pages: 1 -->
<svg width="1936pt" height="106pt"
 viewBox="0.00 0.00 1936.00 106.00" xmlns="http://www.w3.org/2000/svg" xmlns:xlink="http://www.w3.org/1999/xlink">
<g id="graph0" class="graph" transform="scale(1 1) rotate(0) translate(4 102)">
<title>OS2.1/CPinti/include/func_cpi.h</title>
<polygon fill="white" stroke="transparent" points="-4,4 -4,-102 1932,-102 1932,4 -4,4"/>
<!-- Node1 -->
<g id="node1" class="node">
<title>Node1</title>
<g id="a_node1"><a xlink:title=" ">
<polygon fill="#bfbfbf" stroke="black" points="954.5,-67.5 954.5,-97.5 1061.5,-97.5 1061.5,-67.5 954.5,-67.5"/>
<text text-anchor="start" x="962.5" y="-85.5" font-family="Helvetica,sans-Serif" font-size="10.00">OS2.1/CPinti/include</text>
<text text-anchor="middle" x="1008" y="-74.5" font-family="Helvetica,sans-Serif" font-size="10.00">/func_cpi.h</text>
</a>
</g>
</g>
<!-- Node2 -->
<g id="node2" class="node">
<title>Node2</title>
<g id="a_node2"><a xlink:href="buffer_8cpp.html" target="_top" xlink:title=" ">
<polygon fill="white" stroke="black" points="0,-6 0,-25 140,-25 140,-6 0,-6"/>
<text text-anchor="middle" x="70" y="-13" font-family="Helvetica,sans-Serif" font-size="10.00">OS2.1/CPinti/core/buffer.cpp</text>
</a>
</g>
</g>
<!-- Node1&#45;&gt;Node2 -->
<g id="edge1" class="edge">
<title>Node1&#45;&gt;Node2</title>
<path fill="none" stroke="midnightblue" d="M943.67,-80.41C800.43,-77.41 444.53,-66.67 149,-31 136.68,-29.51 123.38,-27.31 111.26,-25.06"/>
<polygon fill="midnightblue" stroke="midnightblue" points="943.95,-83.92 954.02,-80.63 944.1,-76.92 943.95,-83.92"/>
</g>
<!-- Node3 -->
<g id="node3" class="node">
<title>Node3</title>
<g id="a_node3"><a xlink:href="core_8cpp.html" target="_top" xlink:title=" ">
<polygon fill="white" stroke="black" points="158,-6 158,-25 292,-25 292,-6 158,-6"/>
<text text-anchor="middle" x="225" y="-13" font-family="Helvetica,sans-Serif" font-size="10.00">OS2.1/CPinti/core/core.cpp</text>
</a>
</g>
</g>
<!-- Node1&#45;&gt;Node3 -->
<g id="edge2" class="edge">
<title>Node1&#45;&gt;Node3</title>
<path fill="none" stroke="midnightblue" d="M944.02,-79.44C819.67,-74.89 536.88,-61.82 301,-31 289.28,-29.47 276.64,-27.28 265.09,-25.06"/>
<polygon fill="midnightblue" stroke="midnightblue" points="944.01,-82.94 954.13,-79.81 944.26,-75.95 944.01,-82.94"/>
</g>
<!-- Node4 -->
<g id="node4" class="node">
<title>Node4</title>
<g id="a_node4"><a xlink:href="func__cpi_8cpp.html" target="_top" xlink:title=" ">
<polygon fill="white" stroke="black" points="310,-0.5 310,-30.5 426,-30.5 426,-0.5 310,-0.5"/>
<text text-anchor="start" x="318" y="-18.5" font-family="Helvetica,sans-Serif" font-size="10.00">OS2.1/CPinti/core/func</text>
<text text-anchor="middle" x="368" y="-7.5" font-family="Helvetica,sans-Serif" font-size="10.00">_cpi.cpp</text>
</a>
</g>
</g>
<!-- Node1&#45;&gt;Node4 -->
<g id="edge3" class="edge">
<title>Node1&#45;&gt;Node4</title>
<path fill="none" stroke="midnightblue" d="M944.19,-78.49C838.04,-72.9 618.7,-58.86 435,-31 432.06,-30.55 429.05,-30.06 426.02,-29.52"/>
<polygon fill="midnightblue" stroke="midnightblue" points="944.24,-82 954.41,-79.02 944.61,-75.01 944.24,-82"/>
</g>
<!-- Node5 -->
<g id="node5" class="node">
<title>Node5</title>
<g id="a_node5"><a xlink:href="alloc_8cpp.html" target="_top" xlink:title=" ">
<polygon fill="white" stroke="black" points="444.5,-0.5 444.5,-30.5 579.5,-30.5 579.5,-0.5 444.5,-0.5"/>
<text text-anchor="start" x="452.5" y="-18.5" font-family="Helvetica,sans-Serif" font-size="10.00">OS2.1/CPinti/core/memoire</text>
<text text-anchor="middle" x="512" y="-7.5" font-family="Helvetica,sans-Serif" font-size="10.00">/alloc.cpp</text>
</a>
</g>
</g>
<!-- Node1&#45;&gt;Node5 -->
<g id="edge4" class="edge">
<title>Node1&#45;&gt;Node5</title>
<path fill="none" stroke="midnightblue" d="M944.5,-75.24C862.09,-66.8 713.92,-50.56 588,-31 585.21,-30.57 582.37,-30.11 579.5,-29.63"/>
<polygon fill="midnightblue" stroke="midnightblue" points="944.16,-78.72 954.47,-76.26 944.87,-71.76 944.16,-78.72"/>
</g>
<!-- Node6 -->
<g id="node6" class="node">
<title>Node6</title>
<g id="a_node6"><a xlink:href="meminfo_8cpp.html" target="_top" xlink:title=" ">
<polygon fill="white" stroke="black" points="597.5,-0.5 597.5,-30.5 732.5,-30.5 732.5,-0.5 597.5,-0.5"/>
<text text-anchor="start" x="605.5" y="-18.5" font-family="Helvetica,sans-Serif" font-size="10.00">OS2.1/CPinti/core/memoire</text>
<text text-anchor="middle" x="665" y="-7.5" font-family="Helvetica,sans-Serif" font-size="10.00">/meminfo.cpp</text>
</a>
</g>
</g>
<!-- Node1&#45;&gt;Node6 -->
<g id="edge5" class="edge">
<title>Node1&#45;&gt;Node6</title>
<path fill="none" stroke="midnightblue" d="M944.17,-69.46C890.07,-59.24 810.45,-44.19 741,-31 738.23,-30.47 735.4,-29.94 732.54,-29.39"/>
<polygon fill="midnightblue" stroke="midnightblue" points="943.82,-72.95 954.3,-71.37 945.12,-66.07 943.82,-72.95"/>
</g>
<!-- Node7 -->
<g id="node7" class="node">
<title>Node7</title>
<g id="a_node7"><a xlink:href="wpr__exec_8cpp.html" target="_top" xlink:title=" ">
<polygon fill="white" stroke="black" points="750.5,-0.5 750.5,-30.5 863.5,-30.5 863.5,-0.5 750.5,-0.5"/>
<text text-anchor="start" x="758.5" y="-18.5" font-family="Helvetica,sans-Serif" font-size="10.00">OS2.1/CPinti/core/wpr</text>
<text text-anchor="middle" x="807" y="-7.5" font-family="Helvetica,sans-Serif" font-size="10.00">_exec.cpp</text>
</a>
</g>
</g>
<!-- Node1&#45;&gt;Node7 -->
<g id="edge6" class="edge">
<title>Node1&#45;&gt;Node7</title>
<path fill="none" stroke="midnightblue" d="M954.59,-64.23C922.07,-53.71 881.06,-40.45 850.53,-30.58"/>
<polygon fill="midnightblue" stroke="midnightblue" points="953.79,-67.65 964.39,-67.4 955.95,-60.99 953.79,-67.65"/>
</g>
<!-- Node8 -->
<g id="node8" class="node">
<title>Node8</title>
<g id="a_node8"><a xlink:href="wpr__thread_8cpp.html" target="_top" xlink:title=" ">
<polygon fill="white" stroke="black" points="881.5,-0.5 881.5,-30.5 994.5,-30.5 994.5,-0.5 881.5,-0.5"/>
<text text-anchor="start" x="889.5" y="-18.5" font-family="Helvetica,sans-Serif" font-size="10.00">OS2.1/CPinti/core/wpr</text>
<text text-anchor="middle" x="938" y="-7.5" font-family="Helvetica,sans-Serif" font-size="10.00">_thread.cpp</text>
</a>
</g>
</g>
<!-- Node1&#45;&gt;Node8 -->
<g id="edge7" class="edge">
<title>Node1&#45;&gt;Node8</title>
<path fill="none" stroke="midnightblue" d="M985.18,-60.31C974.68,-50.56 962.51,-39.26 953.16,-30.58"/>
<polygon fill="midnightblue" stroke="midnightblue" points="983.1,-63.16 992.81,-67.4 987.86,-58.03 983.1,-63.16"/>
</g>
<!-- Node9 -->
<g id="node9" class="node">
<title>Node9</title>
<g id="a_node9"><a xlink:href="copier_8cpp.html" target="_top" xlink:title=" ">
<polygon fill="white" stroke="black" points="1012.5,-6 1012.5,-25 1143.5,-25 1143.5,-6 1012.5,-6"/>
<text text-anchor="middle" x="1078" y="-13" font-family="Helvetica,sans-Serif" font-size="10.00">OS2.1/CPinti/io/copier.cpp</text>
</a>
</g>
</g>
<!-- Node1&#45;&gt;Node9 -->
<g id="edge8" class="edge">
<title>Node1&#45;&gt;Node9</title>
<path fill="none" stroke="midnightblue" d="M1030.79,-60.34C1043.65,-48.4 1059.01,-34.14 1068.64,-25.19"/>
<polygon fill="midnightblue" stroke="midnightblue" points="1028.14,-58.03 1023.19,-67.4 1032.9,-63.16 1028.14,-58.03"/>
</g>
<!-- Node10 -->
<g id="node10" class="node">
<title>Node10</title>
<g id="a_node10"><a xlink:href="lecture_8cpp.html" target="_top" xlink:title=" ">
<polygon fill="white" stroke="black" points="1162,-6 1162,-25 1296,-25 1296,-6 1162,-6"/>
<text text-anchor="middle" x="1229" y="-13" font-family="Helvetica,sans-Serif" font-size="10.00">OS2.1/CPinti/io/lecture.cpp</text>
</a>
</g>
</g>
<!-- Node1&#45;&gt;Node10 -->
<g id="edge9" class="edge">
<title>Node1&#45;&gt;Node10</title>
<path fill="none" stroke="midnightblue" d="M1065.49,-64.59C1108.65,-51.9 1165.95,-35.04 1200,-25.03"/>
<polygon fill="midnightblue" stroke="midnightblue" points="1064.29,-61.3 1055.68,-67.48 1066.26,-68.01 1064.29,-61.3"/>
</g>
<!-- Node11 -->
<g id="node11" class="node">
<title>Node11</title>
<g id="a_node11"><a xlink:href="wpr__io_8cpp.html" target="_top" xlink:title=" ">
<polygon fill="white" stroke="black" points="1314,-0.5 1314,-30.5 1416,-30.5 1416,-0.5 1314,-0.5"/>
<text text-anchor="start" x="1322" y="-18.5" font-family="Helvetica,sans-Serif" font-size="10.00">OS2.1/CPinti/io/wpr</text>
<text text-anchor="middle" x="1365" y="-7.5" font-family="Helvetica,sans-Serif" font-size="10.00">_io.cpp</text>
</a>
</g>
</g>
<!-- Node1&#45;&gt;Node11 -->
<g id="edge10" class="edge">
<title>Node1&#45;&gt;Node11</title>
<path fill="none" stroke="midnightblue" d="M1071.72,-71.96C1132.02,-62.63 1224.97,-47.45 1305,-31 1307.94,-30.4 1310.95,-29.75 1313.99,-29.08"/>
<polygon fill="midnightblue" stroke="midnightblue" points="1070.94,-68.54 1061.59,-73.52 1072.01,-75.46 1070.94,-68.54"/>
</g>
<!-- Node12 -->
<g id="node12" class="node">
<title>Node12</title>
<g id="a_node12"><a xlink:href="client_8cpp.html" target="_top" xlink:title=" ">
<polygon fill="white" stroke="black" points="1434,-0.5 1434,-30.5 1544,-30.5 1544,-0.5 1434,-0.5"/>
<text text-anchor="start" x="1442" y="-18.5" font-family="Helvetica,sans-Serif" font-size="10.00">OS2.1/CPinti/network</text>
<text text-anchor="middle" x="1489" y="-7.5" font-family="Helvetica,sans-Serif" font-size="10.00">/client.cpp</text>
</a>
</g>
</g>
<!-- Node1&#45;&gt;Node12 -->
<g id="edge11" class="edge">
<title>Node1&#45;&gt;Node12</title>
<path fill="none" stroke="midnightblue" d="M1071.74,-75.83C1153.8,-68.05 1300.62,-52.56 1425,-31 1427.92,-30.49 1430.9,-29.94 1433.91,-29.36"/>
<polygon fill="midnightblue" stroke="midnightblue" points="1071.2,-72.36 1061.57,-76.78 1071.86,-79.33 1071.2,-72.36"/>
</g>
<!-- Node13 -->
<g id="node13" class="node">
<title>Node13</title>
<g id="a_node13"><a xlink:href="ping_8cpp.html" target="_top" xlink:title=" ">
<polygon fill="white" stroke="black" points="1562,-0.5 1562,-30.5 1672,-30.5 1672,-0.5 1562,-0.5"/>
<text text-anchor="start" x="1570" y="-18.5" font-family="Helvetica,sans-Serif" font-size="10.00">OS2.1/CPinti/network</text>
<text text-anchor="middle" x="1617" y="-7.5" font-family="Helvetica,sans-Serif" font-size="10.00">/ping.cpp</text>
</a>
</g>
</g>
<!-- Node1&#45;&gt;Node13 -->
<g id="edge12" class="edge">
<title>Node1&#45;&gt;Node13</title>
<path fill="none" stroke="midnightblue" d="M1071.81,-78.29C1173.93,-72.55 1380.16,-58.47 1553,-31 1555.93,-30.54 1558.92,-30.02 1561.93,-29.46"/>
<polygon fill="midnightblue" stroke="midnightblue" points="1071.46,-74.81 1061.67,-78.85 1071.84,-81.79 1071.46,-74.81"/>
</g>
<!-- Node14 -->
<g id="node14" class="node">
<title>Node14</title>
<g id="a_node14"><a xlink:href="serveur_8cpp.html" target="_top" xlink:title=" ">
<polygon fill="white" stroke="black" points="1690,-0.5 1690,-30.5 1800,-30.5 1800,-0.5 1690,-0.5"/>
<text text-anchor="start" x="1698" y="-18.5" font-family="Helvetica,sans-Serif" font-size="10.00">OS2.1/CPinti/network</text>
<text text-anchor="middle" x="1745" y="-7.5" font-family="Helvetica,sans-Serif" font-size="10.00">/serveur.cpp</text>
</a>
</g>
</g>
<!-- Node1&#45;&gt;Node14 -->
<g id="edge13" class="edge">
<title>Node1&#45;&gt;Node14</title>
<path fill="none" stroke="midnightblue" d="M1071.62,-79.86C1191.46,-76.08 1458.63,-64.35 1681,-31 1683.93,-30.56 1686.92,-30.06 1689.94,-29.52"/>
<polygon fill="midnightblue" stroke="midnightblue" points="1071.41,-76.36 1061.52,-80.17 1071.62,-83.36 1071.41,-76.36"/>
</g>
<!-- Node15 -->
<g id="node15" class="node">
<title>Node15</title>
<g id="a_node15"><a xlink:href="wpr__net_8cpp.html" target="_top" xlink:title=" ">
<polygon fill="white" stroke="black" points="1818,-0.5 1818,-30.5 1928,-30.5 1928,-0.5 1818,-0.5"/>
<text text-anchor="start" x="1826" y="-18.5" font-family="Helvetica,sans-Serif" font-size="10.00">OS2.1/CPinti/network</text>
<text text-anchor="middle" x="1873" y="-7.5" font-family="Helvetica,sans-Serif" font-size="10.00">/wpr_net.cpp</text>
</a>
</g>
</g>
<!-- Node1&#45;&gt;Node15 -->
<g id="edge14" class="edge">
<title>Node1&#45;&gt;Node15</title>
<path fill="none" stroke="midnightblue" d="M1071.99,-80.93C1208.24,-78.95 1536.81,-70.16 1809,-31 1811.93,-30.58 1814.93,-30.09 1817.95,-29.56"/>
<polygon fill="midnightblue" stroke="midnightblue" points="1071.69,-77.43 1061.73,-81.07 1071.78,-84.43 1071.69,-77.43"/>
</g>
</g>
</svg>
