<?xml version="1.0" encoding="UTF-8" standalone="no"?>
<!DOCTYPE svg PUBLIC "-//W3C//DTD SVG 1.1//EN"
 "http://www.w3.org/Graphics/SVG/1.1/DTD/svg11.dtd">
<!-- Generated by graphviz version 2.44.0 ()
 -->
<!-- Title: OS2.1/CPinti/core/func_cpi.cpp Pages: 1 -->
<svg width="384pt" height="151pt"
 viewBox="0.00 0.00 383.50 151.00" xmlns="http://www.w3.org/2000/svg" xmlns:xlink="http://www.w3.org/1999/xlink">
<g id="graph0" class="graph" transform="scale(1 1) rotate(0) translate(4 147)">
<title>OS2.1/CPinti/core/func_cpi.cpp</title>
<polygon fill="white" stroke="transparent" points="-4,4 -4,-147 379.5,-147 379.5,4 -4,4"/>
<!-- Node1 -->
<g id="node1" class="node">
<title>Node1</title>
<g id="a_node1"><a xlink:title=" ">
<polygon fill="#bfbfbf" stroke="black" points="121,-112.5 121,-142.5 237,-142.5 237,-112.5 121,-112.5"/>
<text text-anchor="start" x="129" y="-130.5" font-family="Helvetica,sans-Serif" font-size="10.00">OS2.1/CPinti/core/func</text>
<text text-anchor="middle" x="179" y="-119.5" font-family="Helvetica,sans-Serif" font-size="10.00">_cpi.cpp</text>
</a>
</g>
</g>
<!-- Node2 -->
<g id="node2" class="node">
<title>Node2</title>
<g id="a_node2"><a xlink:title=" ">
<polygon fill="white" stroke="#bfbfbf" points="0,-0.5 0,-19.5 54,-19.5 54,-0.5 0,-0.5"/>
<text text-anchor="middle" x="27" y="-7.5" font-family="Helvetica,sans-Serif" font-size="10.00">iostream</text>
</a>
</g>
</g>
<!-- Node1&#45;&gt;Node2 -->
<g id="edge1" class="edge">
<title>Node1&#45;&gt;Node2</title>
<path fill="none" stroke="midnightblue" d="M120.88,-113.11C98.03,-105.42 73.01,-93.65 55,-76 42.13,-63.39 34.82,-43.9 30.92,-29.55"/>
<polygon fill="midnightblue" stroke="midnightblue" points="34.31,-28.68 28.57,-19.78 27.51,-30.32 34.31,-28.68"/>
</g>
<!-- Node3 -->
<g id="node3" class="node">
<title>Node3</title>
<g id="a_node3"><a xlink:title=" ">
<polygon fill="white" stroke="#bfbfbf" points="72,-0.5 72,-19.5 124,-19.5 124,-0.5 72,-0.5"/>
<text text-anchor="middle" x="98" y="-7.5" font-family="Helvetica,sans-Serif" font-size="10.00">sstream</text>
</a>
</g>
</g>
<!-- Node1&#45;&gt;Node3 -->
<g id="edge2" class="edge">
<title>Node1&#45;&gt;Node3</title>
<path fill="none" stroke="midnightblue" d="M170.63,-112.43C161.9,-97.99 147.61,-75.01 134,-56 127.08,-46.34 118.84,-35.96 111.98,-27.61"/>
<polygon fill="midnightblue" stroke="midnightblue" points="114.54,-25.21 105.46,-19.75 109.15,-29.68 114.54,-25.21"/>
</g>
<!-- Node4 -->
<g id="node4" class="node">
<title>Node4</title>
<g id="a_node4"><a xlink:title=" ">
<polygon fill="white" stroke="#bfbfbf" points="244,-56.5 244,-75.5 312,-75.5 312,-56.5 244,-56.5"/>
<text text-anchor="middle" x="278" y="-63.5" font-family="Helvetica,sans-Serif" font-size="10.00">sys/select.h</text>
</a>
</g>
</g>
<!-- Node1&#45;&gt;Node4 -->
<g id="edge3" class="edge">
<title>Node1&#45;&gt;Node4</title>
<path fill="none" stroke="midnightblue" d="M202.46,-112.4C218.33,-102.86 239.19,-90.32 254.97,-80.84"/>
<polygon fill="midnightblue" stroke="midnightblue" points="256.83,-83.81 263.59,-75.66 253.22,-77.81 256.83,-83.81"/>
</g>
<!-- Node5 -->
<g id="node5" class="node">
<title>Node5</title>
<g id="a_node5"><a xlink:href="func__cpi_8h.html" target="_top" xlink:title=" ">
<polygon fill="white" stroke="black" points="64.5,-56.5 64.5,-75.5 125.5,-75.5 125.5,-56.5 64.5,-56.5"/>
<text text-anchor="middle" x="95" y="-63.5" font-family="Helvetica,sans-Serif" font-size="10.00">func_cpi.h</text>
</a>
</g>
</g>
<!-- Node1&#45;&gt;Node5 -->
<g id="edge4" class="edge">
<title>Node1&#45;&gt;Node5</title>
<path fill="none" stroke="midnightblue" d="M159.09,-112.4C146.01,-103.13 128.92,-91.03 115.68,-81.65"/>
<polygon fill="midnightblue" stroke="midnightblue" points="117.41,-78.58 107.22,-75.66 113.36,-84.29 117.41,-78.58"/>
</g>
<!-- Node7 -->
<g id="node7" class="node">
<title>Node7</title>
<g id="a_node7"><a xlink:href="core_8h.html" target="_top" xlink:title=" ">
<polygon fill="white" stroke="black" points="182.5,-56.5 182.5,-75.5 225.5,-75.5 225.5,-56.5 182.5,-56.5"/>
<text text-anchor="middle" x="204" y="-63.5" font-family="Helvetica,sans-Serif" font-size="10.00">core.h</text>
</a>
</g>
</g>
<!-- Node1&#45;&gt;Node7 -->
<g id="edge8" class="edge">
<title>Node1&#45;&gt;Node7</title>
<path fill="none" stroke="midnightblue" d="M184.92,-112.4C188.37,-104.2 192.75,-93.78 196.44,-84.99"/>
<polygon fill="midnightblue" stroke="midnightblue" points="199.72,-86.23 200.36,-75.66 193.26,-83.52 199.72,-86.23"/>
</g>
<!-- Node10 -->
<g id="node10" class="node">
<title>Node10</title>
<g id="a_node10"><a xlink:title=" ">
<polygon fill="white" stroke="#bfbfbf" points="330.5,-56.5 330.5,-75.5 375.5,-75.5 375.5,-56.5 330.5,-56.5"/>
<text text-anchor="middle" x="353" y="-63.5" font-family="Helvetica,sans-Serif" font-size="10.00">stdio.h</text>
</a>
</g>
</g>
<!-- Node1&#45;&gt;Node10 -->
<g id="edge12" class="edge">
<title>Node1&#45;&gt;Node10</title>
<path fill="none" stroke="midnightblue" d="M220.24,-112.4C250.85,-101.93 292.02,-87.85 320.36,-78.16"/>
<polygon fill="midnightblue" stroke="midnightblue" points="321.85,-81.35 330.18,-74.8 319.58,-74.73 321.85,-81.35"/>
</g>
<!-- Node5&#45;&gt;Node2 -->
<g id="edge5" class="edge">
<title>Node5&#45;&gt;Node2</title>
<path fill="none" stroke="midnightblue" d="M84.07,-56.32C73.83,-48.18 58.28,-35.84 46,-26.09"/>
<polygon fill="midnightblue" stroke="midnightblue" points="48.13,-23.31 38.12,-19.83 43.78,-28.79 48.13,-23.31"/>
</g>
<!-- Node5&#45;&gt;Node3 -->
<g id="edge6" class="edge">
<title>Node5&#45;&gt;Node3</title>
<path fill="none" stroke="midnightblue" d="M95.5,-56.08C95.89,-49.01 96.45,-38.86 96.95,-29.99"/>
<polygon fill="midnightblue" stroke="midnightblue" points="100.45,-29.93 97.51,-19.75 93.46,-29.54 100.45,-29.93"/>
</g>
<!-- Node6 -->
<g id="node6" class="node">
<title>Node6</title>
<g id="a_node6"><a xlink:title=" ">
<polygon fill="white" stroke="#bfbfbf" points="142.5,-0.5 142.5,-19.5 203.5,-19.5 203.5,-0.5 142.5,-0.5"/>
<text text-anchor="middle" x="173" y="-7.5" font-family="Helvetica,sans-Serif" font-size="10.00">sys/time.h</text>
</a>
</g>
</g>
<!-- Node5&#45;&gt;Node6 -->
<g id="edge7" class="edge">
<title>Node5&#45;&gt;Node6</title>
<path fill="none" stroke="midnightblue" d="M107.53,-56.32C119.59,-47.98 138.03,-35.21 152.27,-25.35"/>
<polygon fill="midnightblue" stroke="midnightblue" points="154.27,-28.22 160.5,-19.65 150.28,-22.47 154.27,-28.22"/>
</g>
<!-- Node7&#45;&gt;Node6 -->
<g id="edge10" class="edge">
<title>Node7&#45;&gt;Node6</title>
<path fill="none" stroke="midnightblue" d="M198.88,-56.08C194.59,-48.61 188.34,-37.72 183.06,-28.52"/>
<polygon fill="midnightblue" stroke="midnightblue" points="186.04,-26.68 178.02,-19.75 179.97,-30.17 186.04,-26.68"/>
</g>
<!-- Node8 -->
<g id="node8" class="node">
<title>Node8</title>
<g id="a_node8"><a xlink:title=" ">
<polygon fill="white" stroke="#bfbfbf" points="296.5,-0.5 296.5,-19.5 349.5,-19.5 349.5,-0.5 296.5,-0.5"/>
<text text-anchor="middle" x="323" y="-7.5" font-family="Helvetica,sans-Serif" font-size="10.00">setjmp.h</text>
</a>
</g>
</g>
<!-- Node7&#45;&gt;Node8 -->
<g id="edge9" class="edge">
<title>Node7&#45;&gt;Node8</title>
<path fill="none" stroke="midnightblue" d="M222.86,-56.44C242.27,-47.64 272.73,-33.81 294.96,-23.72"/>
<polygon fill="midnightblue" stroke="midnightblue" points="296.57,-26.84 304.23,-19.52 293.68,-20.46 296.57,-26.84"/>
</g>
<!-- Node9 -->
<g id="node9" class="node">
<title>Node9</title>
<g id="a_node9"><a xlink:title=" ">
<polygon fill="white" stroke="#bfbfbf" points="222,-0.5 222,-19.5 278,-19.5 278,-0.5 222,-0.5"/>
<text text-anchor="middle" x="250" y="-7.5" font-family="Helvetica,sans-Serif" font-size="10.00">pthread.h</text>
</a>
</g>
</g>
<!-- Node7&#45;&gt;Node9 -->
<g id="edge11" class="edge">
<title>Node7&#45;&gt;Node9</title>
<path fill="none" stroke="midnightblue" d="M211.6,-56.08C218.23,-48.3 228.02,-36.8 236.06,-27.37"/>
<polygon fill="midnightblue" stroke="midnightblue" points="238.73,-29.63 242.55,-19.75 233.4,-25.09 238.73,-29.63"/>
</g>
</g>
</svg>
