<?xml version="1.0" encoding="UTF-8" standalone="no"?>
<!DOCTYPE svg PUBLIC "-//W3C//DTD SVG 1.1//EN"
 "http://www.w3.org/Graphics/SVG/1.1/DTD/svg11.dtd">
<!-- Generated by graphviz version 2.44.0 ()
 -->
<!-- Title: OS2.1/CPinti/core/int.cpp Pages: 1 -->
<svg width="549pt" height="140pt"
 viewBox="0.00 0.00 549.00 140.00" xmlns="http://www.w3.org/2000/svg" xmlns:xlink="http://www.w3.org/1999/xlink">
<g id="graph0" class="graph" transform="scale(1 1) rotate(0) translate(4 136)">
<title>OS2.1/CPinti/core/int.cpp</title>
<polygon fill="white" stroke="transparent" points="-4,4 -4,-136 545,-136 545,4 -4,4"/>
<!-- Node1 -->
<g id="node1" class="node">
<title>Node1</title>
<g id="a_node1"><a xlink:title=" ">
<polygon fill="#bfbfbf" stroke="black" points="188,-112.5 188,-131.5 314,-131.5 314,-112.5 188,-112.5"/>
<text text-anchor="middle" x="251" y="-119.5" font-family="Helvetica,sans-Serif" font-size="10.00">OS2.1/CPinti/core/int.cpp</text>
</a>
</g>
</g>
<!-- Node2 -->
<g id="node2" class="node">
<title>Node2</title>
<g id="a_node2"><a xlink:title=" ">
<polygon fill="white" stroke="#bfbfbf" points="0,-56.5 0,-75.5 50,-75.5 50,-56.5 0,-56.5"/>
<text text-anchor="middle" x="25" y="-63.5" font-family="Helvetica,sans-Serif" font-size="10.00">signal.h</text>
</a>
</g>
</g>
<!-- Node1&#45;&gt;Node2 -->
<g id="edge1" class="edge">
<title>Node1&#45;&gt;Node2</title>
<path fill="none" stroke="midnightblue" d="M213.04,-112.44C176.29,-104.08 118.78,-90.8 60.05,-76.21"/>
<polygon fill="midnightblue" stroke="midnightblue" points="60.78,-72.79 50.23,-73.76 59.09,-79.58 60.78,-72.79"/>
</g>
<!-- Node3 -->
<g id="node3" class="node">
<title>Node3</title>
<g id="a_node3"><a xlink:title=" ">
<polygon fill="white" stroke="#bfbfbf" points="68.5,-56.5 68.5,-75.5 113.5,-75.5 113.5,-56.5 68.5,-56.5"/>
<text text-anchor="middle" x="91" y="-63.5" font-family="Helvetica,sans-Serif" font-size="10.00">stdio.h</text>
</a>
</g>
</g>
<!-- Node1&#45;&gt;Node3 -->
<g id="edge2" class="edge">
<title>Node1&#45;&gt;Node3</title>
<path fill="none" stroke="midnightblue" d="M225.65,-112.44C197.94,-103.09 153.48,-88.09 123.29,-77.9"/>
<polygon fill="midnightblue" stroke="midnightblue" points="124.24,-74.52 113.65,-74.64 122,-81.16 124.24,-74.52"/>
</g>
<!-- Node4 -->
<g id="node4" class="node">
<title>Node4</title>
<g id="a_node4"><a xlink:title=" ">
<polygon fill="white" stroke="#bfbfbf" points="131.5,-56.5 131.5,-75.5 176.5,-75.5 176.5,-56.5 131.5,-56.5"/>
<text text-anchor="middle" x="154" y="-63.5" font-family="Helvetica,sans-Serif" font-size="10.00">cstdlib</text>
</a>
</g>
</g>
<!-- Node1&#45;&gt;Node4 -->
<g id="edge3" class="edge">
<title>Node1&#45;&gt;Node4</title>
<path fill="none" stroke="midnightblue" d="M235.42,-112.32C220,-103.74 196.19,-90.49 178.29,-80.52"/>
<polygon fill="midnightblue" stroke="midnightblue" points="179.99,-77.46 169.55,-75.65 176.58,-83.58 179.99,-77.46"/>
</g>
<!-- Node5 -->
<g id="node5" class="node">
<title>Node5</title>
<g id="a_node5"><a xlink:title=" ">
<polygon fill="white" stroke="#bfbfbf" points="194.5,-56.5 194.5,-75.5 241.5,-75.5 241.5,-56.5 194.5,-56.5"/>
<text text-anchor="middle" x="218" y="-63.5" font-family="Helvetica,sans-Serif" font-size="10.00">conio.h</text>
</a>
</g>
</g>
<!-- Node1&#45;&gt;Node5 -->
<g id="edge4" class="edge">
<title>Node1&#45;&gt;Node5</title>
<path fill="none" stroke="midnightblue" d="M245.55,-112.08C240.99,-104.61 234.33,-93.72 228.71,-84.52"/>
<polygon fill="midnightblue" stroke="midnightblue" points="231.55,-82.46 223.35,-75.75 225.58,-86.11 231.55,-82.46"/>
</g>
<!-- Node6 -->
<g id="node6" class="node">
<title>Node6</title>
<g id="a_node6"><a xlink:title=" ">
<polygon fill="white" stroke="#bfbfbf" points="260,-56.5 260,-75.5 310,-75.5 310,-56.5 260,-56.5"/>
<text text-anchor="middle" x="285" y="-63.5" font-family="Helvetica,sans-Serif" font-size="10.00">unistd.h</text>
</a>
</g>
</g>
<!-- Node1&#45;&gt;Node6 -->
<g id="edge5" class="edge">
<title>Node1&#45;&gt;Node6</title>
<path fill="none" stroke="midnightblue" d="M256.61,-112.08C261.37,-104.53 268.32,-93.49 274.15,-84.23"/>
<polygon fill="midnightblue" stroke="midnightblue" points="277.12,-86.08 279.49,-75.75 271.2,-82.35 277.12,-86.08"/>
</g>
<!-- Node7 -->
<g id="node7" class="node">
<title>Node7</title>
<g id="a_node7"><a xlink:href="int_8h.html" target="_top" xlink:title=" ">
<polygon fill="white" stroke="black" points="328.5,-56.5 328.5,-75.5 363.5,-75.5 363.5,-56.5 328.5,-56.5"/>
<text text-anchor="middle" x="346" y="-63.5" font-family="Helvetica,sans-Serif" font-size="10.00">int.h</text>
</a>
</g>
</g>
<!-- Node1&#45;&gt;Node7 -->
<g id="edge6" class="edge">
<title>Node1&#45;&gt;Node7</title>
<path fill="none" stroke="midnightblue" d="M266.26,-112.32C281.22,-103.82 304.25,-90.73 321.73,-80.8"/>
<polygon fill="midnightblue" stroke="midnightblue" points="323.81,-83.64 330.77,-75.65 320.35,-77.55 323.81,-83.64"/>
</g>
<!-- Node8 -->
<g id="node8" class="node">
<title>Node8</title>
<g id="a_node8"><a xlink:href="core_8h.html" target="_top" xlink:title=" ">
<polygon fill="white" stroke="black" points="381.5,-56.5 381.5,-75.5 424.5,-75.5 424.5,-56.5 381.5,-56.5"/>
<text text-anchor="middle" x="403" y="-63.5" font-family="Helvetica,sans-Serif" font-size="10.00">core.h</text>
</a>
</g>
</g>
<!-- Node1&#45;&gt;Node8 -->
<g id="edge7" class="edge">
<title>Node1&#45;&gt;Node8</title>
<path fill="none" stroke="midnightblue" d="M275.08,-112.44C301.29,-103.13 343.28,-88.22 371.95,-78.03"/>
<polygon fill="midnightblue" stroke="midnightblue" points="373.23,-81.29 381.49,-74.64 370.89,-74.69 373.23,-81.29"/>
</g>
<!-- Node12 -->
<g id="node12" class="node">
<title>Node12</title>
<g id="a_node12"><a xlink:href="debug_8h.html" target="_top" xlink:title=" ">
<polygon fill="white" stroke="black" points="485,-56.5 485,-75.5 535,-75.5 535,-56.5 485,-56.5"/>
<text text-anchor="middle" x="510" y="-63.5" font-family="Helvetica,sans-Serif" font-size="10.00">debug.h</text>
</a>
</g>
</g>
<!-- Node1&#45;&gt;Node12 -->
<g id="edge11" class="edge">
<title>Node1&#45;&gt;Node12</title>
<path fill="none" stroke="midnightblue" d="M292.04,-112.44C342.54,-101.92 427.41,-84.22 474.98,-74.3"/>
<polygon fill="midnightblue" stroke="midnightblue" points="475.74,-77.72 484.82,-72.25 474.31,-70.87 475.74,-77.72"/>
</g>
<!-- Node9 -->
<g id="node9" class="node">
<title>Node9</title>
<g id="a_node9"><a xlink:title=" ">
<polygon fill="white" stroke="#bfbfbf" points="262.5,-0.5 262.5,-19.5 315.5,-19.5 315.5,-0.5 262.5,-0.5"/>
<text text-anchor="middle" x="289" y="-7.5" font-family="Helvetica,sans-Serif" font-size="10.00">setjmp.h</text>
</a>
</g>
</g>
<!-- Node8&#45;&gt;Node9 -->
<g id="edge8" class="edge">
<title>Node8&#45;&gt;Node9</title>
<path fill="none" stroke="midnightblue" d="M384.94,-56.44C366.43,-47.68 337.42,-33.94 316.14,-23.86"/>
<polygon fill="midnightblue" stroke="midnightblue" points="317.51,-20.63 306.98,-19.52 314.52,-26.96 317.51,-20.63"/>
</g>
<!-- Node10 -->
<g id="node10" class="node">
<title>Node10</title>
<g id="a_node10"><a xlink:title=" ">
<polygon fill="white" stroke="#bfbfbf" points="333.5,-0.5 333.5,-19.5 394.5,-19.5 394.5,-0.5 333.5,-0.5"/>
<text text-anchor="middle" x="364" y="-7.5" font-family="Helvetica,sans-Serif" font-size="10.00">sys/time.h</text>
</a>
</g>
</g>
<!-- Node8&#45;&gt;Node10 -->
<g id="edge9" class="edge">
<title>Node8&#45;&gt;Node10</title>
<path fill="none" stroke="midnightblue" d="M396.56,-56.08C391.05,-48.46 382.97,-37.26 376.24,-27.94"/>
<polygon fill="midnightblue" stroke="midnightblue" points="379.01,-25.81 370.32,-19.75 373.34,-29.91 379.01,-25.81"/>
</g>
<!-- Node11 -->
<g id="node11" class="node">
<title>Node11</title>
<g id="a_node11"><a xlink:title=" ">
<polygon fill="white" stroke="#bfbfbf" points="413,-0.5 413,-19.5 469,-19.5 469,-0.5 413,-0.5"/>
<text text-anchor="middle" x="441" y="-7.5" font-family="Helvetica,sans-Serif" font-size="10.00">pthread.h</text>
</a>
</g>
</g>
<!-- Node8&#45;&gt;Node11 -->
<g id="edge10" class="edge">
<title>Node8&#45;&gt;Node11</title>
<path fill="none" stroke="midnightblue" d="M409.27,-56.08C414.64,-48.46 422.52,-37.26 429.08,-27.94"/>
<polygon fill="midnightblue" stroke="midnightblue" points="431.95,-29.94 434.84,-19.75 426.22,-25.91 431.95,-29.94"/>
</g>
<!-- Node13 -->
<g id="node13" class="node">
<title>Node13</title>
<g id="a_node13"><a xlink:title=" ">
<polygon fill="white" stroke="#bfbfbf" points="487,-0.5 487,-19.5 541,-19.5 541,-0.5 487,-0.5"/>
<text text-anchor="middle" x="514" y="-7.5" font-family="Helvetica,sans-Serif" font-size="10.00">iostream</text>
</a>
</g>
</g>
<!-- Node12&#45;&gt;Node13 -->
<g id="edge12" class="edge">
<title>Node12&#45;&gt;Node13</title>
<path fill="none" stroke="midnightblue" d="M510.66,-56.08C511.18,-49.01 511.94,-38.86 512.59,-29.99"/>
<polygon fill="midnightblue" stroke="midnightblue" points="516.1,-29.98 513.35,-19.75 509.12,-29.47 516.1,-29.98"/>
</g>
</g>
</svg>
