<?xml version="1.0" encoding="UTF-8" standalone="no"?>
<!DOCTYPE svg PUBLIC "-//W3C//DTD SVG 1.1//EN"
 "http://www.w3.org/Graphics/SVG/1.1/DTD/svg11.dtd">
<!-- Generated by graphviz version 2.44.0 ()
 -->
<!-- Title: OS2.1/CPinti/io/lecture.cpp Pages: 1 -->
<svg width="599pt" height="140pt"
 viewBox="0.00 0.00 598.50 140.00" xmlns="http://www.w3.org/2000/svg" xmlns:xlink="http://www.w3.org/1999/xlink">
<g id="graph0" class="graph" transform="scale(1 1) rotate(0) translate(4 136)">
<title>OS2.1/CPinti/io/lecture.cpp</title>
<polygon fill="white" stroke="transparent" points="-4,4 -4,-136 594.5,-136 594.5,4 -4,4"/>
<!-- Node1 -->
<g id="node1" class="node">
<title>Node1</title>
<g id="a_node1"><a xlink:title=" ">
<polygon fill="#bfbfbf" stroke="black" points="142.5,-112.5 142.5,-131.5 276.5,-131.5 276.5,-112.5 142.5,-112.5"/>
<text text-anchor="middle" x="209.5" y="-119.5" font-family="Helvetica,sans-Serif" font-size="10.00">OS2.1/CPinti/io/lecture.cpp</text>
</a>
</g>
</g>
<!-- Node2 -->
<g id="node2" class="node">
<title>Node2</title>
<g id="a_node2"><a xlink:title=" ">
<polygon fill="white" stroke="#bfbfbf" points="0,-56.5 0,-75.5 45,-75.5 45,-56.5 0,-56.5"/>
<text text-anchor="middle" x="22.5" y="-63.5" font-family="Helvetica,sans-Serif" font-size="10.00">stdio.h</text>
</a>
</g>
</g>
<!-- Node1&#45;&gt;Node2 -->
<g id="edge1" class="edge">
<title>Node1&#45;&gt;Node2</title>
<path fill="none" stroke="midnightblue" d="M179.87,-112.44C145.84,-102.62 90.2,-86.55 55.01,-76.39"/>
<polygon fill="midnightblue" stroke="midnightblue" points="55.81,-72.97 45.23,-73.56 53.86,-79.7 55.81,-72.97"/>
</g>
<!-- Node3 -->
<g id="node3" class="node">
<title>Node3</title>
<g id="a_node3"><a xlink:title=" ">
<polygon fill="white" stroke="#bfbfbf" points="63.5,-56.5 63.5,-75.5 109.5,-75.5 109.5,-56.5 63.5,-56.5"/>
<text text-anchor="middle" x="86.5" y="-63.5" font-family="Helvetica,sans-Serif" font-size="10.00">errno.h</text>
</a>
</g>
</g>
<!-- Node1&#45;&gt;Node3 -->
<g id="edge2" class="edge">
<title>Node1&#45;&gt;Node3</title>
<path fill="none" stroke="midnightblue" d="M190.01,-112.44C169.86,-103.6 138.18,-89.69 115.17,-79.59"/>
<polygon fill="midnightblue" stroke="midnightblue" points="116.46,-76.33 105.9,-75.52 113.65,-82.74 116.46,-76.33"/>
</g>
<!-- Node4 -->
<g id="node4" class="node">
<title>Node4</title>
<g id="a_node4"><a xlink:title=" ">
<polygon fill="white" stroke="#bfbfbf" points="127.5,-56.5 127.5,-75.5 175.5,-75.5 175.5,-56.5 127.5,-56.5"/>
<text text-anchor="middle" x="151.5" y="-63.5" font-family="Helvetica,sans-Serif" font-size="10.00">string.h</text>
</a>
</g>
</g>
<!-- Node1&#45;&gt;Node4 -->
<g id="edge3" class="edge">
<title>Node1&#45;&gt;Node4</title>
<path fill="none" stroke="midnightblue" d="M200.18,-112.32C191.61,-104.34 178.69,-92.31 168.31,-82.65"/>
<polygon fill="midnightblue" stroke="midnightblue" points="170.69,-80.09 160.99,-75.83 165.92,-85.21 170.69,-80.09"/>
</g>
<!-- Node5 -->
<g id="node5" class="node">
<title>Node5</title>
<g id="a_node5"><a xlink:href="_i_o_8h.html" target="_top" xlink:title=" ">
<polygon fill="white" stroke="black" points="193.5,-56.5 193.5,-75.5 225.5,-75.5 225.5,-56.5 193.5,-56.5"/>
<text text-anchor="middle" x="209.5" y="-63.5" font-family="Helvetica,sans-Serif" font-size="10.00">io.h</text>
</a>
</g>
</g>
<!-- Node1&#45;&gt;Node5 -->
<g id="edge4" class="edge">
<title>Node1&#45;&gt;Node5</title>
<path fill="none" stroke="midnightblue" d="M209.5,-112.08C209.5,-105.01 209.5,-94.86 209.5,-85.99"/>
<polygon fill="midnightblue" stroke="midnightblue" points="213,-85.75 209.5,-75.75 206,-85.75 213,-85.75"/>
</g>
<!-- Node6 -->
<g id="node6" class="node">
<title>Node6</title>
<g id="a_node6"><a xlink:href="func__cpi_8h.html" target="_top" xlink:title=" ">
<polygon fill="white" stroke="black" points="312,-56.5 312,-75.5 373,-75.5 373,-56.5 312,-56.5"/>
<text text-anchor="middle" x="342.5" y="-63.5" font-family="Helvetica,sans-Serif" font-size="10.00">func_cpi.h</text>
</a>
</g>
</g>
<!-- Node1&#45;&gt;Node6 -->
<g id="edge5" class="edge">
<title>Node1&#45;&gt;Node6</title>
<path fill="none" stroke="midnightblue" d="M230.57,-112.44C252.56,-103.52 287.23,-89.44 312.16,-79.32"/>
<polygon fill="midnightblue" stroke="midnightblue" points="313.58,-82.52 321.52,-75.52 310.94,-76.04 313.58,-82.52"/>
</g>
<!-- Node10 -->
<g id="node10" class="node">
<title>Node10</title>
<g id="a_node10"><a xlink:href="debug_8h.html" target="_top" xlink:title=" ">
<polygon fill="white" stroke="black" points="243.5,-56.5 243.5,-75.5 293.5,-75.5 293.5,-56.5 243.5,-56.5"/>
<text text-anchor="middle" x="268.5" y="-63.5" font-family="Helvetica,sans-Serif" font-size="10.00">debug.h</text>
</a>
</g>
</g>
<!-- Node1&#45;&gt;Node10 -->
<g id="edge9" class="edge">
<title>Node1&#45;&gt;Node10</title>
<path fill="none" stroke="midnightblue" d="M218.98,-112.32C227.7,-104.34 240.84,-92.31 251.4,-82.65"/>
<polygon fill="midnightblue" stroke="midnightblue" points="253.83,-85.17 258.85,-75.83 249.11,-80 253.83,-85.17"/>
</g>
<!-- Node11 -->
<g id="node11" class="node">
<title>Node11</title>
<g id="a_node11"><a xlink:href="core_8h.html" target="_top" xlink:title=" ">
<polygon fill="white" stroke="black" points="431,-56.5 431,-75.5 474,-75.5 474,-56.5 431,-56.5"/>
<text text-anchor="middle" x="452.5" y="-63.5" font-family="Helvetica,sans-Serif" font-size="10.00">core.h</text>
</a>
</g>
</g>
<!-- Node1&#45;&gt;Node11 -->
<g id="edge11" class="edge">
<title>Node1&#45;&gt;Node11</title>
<path fill="none" stroke="midnightblue" d="M248,-112.44C295.83,-101.82 376.51,-83.89 420.89,-74.02"/>
<polygon fill="midnightblue" stroke="midnightblue" points="421.82,-77.4 430.83,-71.82 420.31,-70.57 421.82,-77.4"/>
</g>
<!-- Node7 -->
<g id="node7" class="node">
<title>Node7</title>
<g id="a_node7"><a xlink:title=" ">
<polygon fill="white" stroke="#bfbfbf" points="241.5,-0.5 241.5,-19.5 295.5,-19.5 295.5,-0.5 241.5,-0.5"/>
<text text-anchor="middle" x="268.5" y="-7.5" font-family="Helvetica,sans-Serif" font-size="10.00">iostream</text>
</a>
</g>
</g>
<!-- Node6&#45;&gt;Node7 -->
<g id="edge6" class="edge">
<title>Node6&#45;&gt;Node7</title>
<path fill="none" stroke="midnightblue" d="M330.61,-56.32C319.35,-48.11 302.21,-35.6 288.79,-25.81"/>
<polygon fill="midnightblue" stroke="midnightblue" points="290.75,-22.9 280.61,-19.83 286.62,-28.56 290.75,-22.9"/>
</g>
<!-- Node8 -->
<g id="node8" class="node">
<title>Node8</title>
<g id="a_node8"><a xlink:title=" ">
<polygon fill="white" stroke="#bfbfbf" points="313.5,-0.5 313.5,-19.5 365.5,-19.5 365.5,-0.5 313.5,-0.5"/>
<text text-anchor="middle" x="339.5" y="-7.5" font-family="Helvetica,sans-Serif" font-size="10.00">sstream</text>
</a>
</g>
</g>
<!-- Node6&#45;&gt;Node8 -->
<g id="edge7" class="edge">
<title>Node6&#45;&gt;Node8</title>
<path fill="none" stroke="midnightblue" d="M342,-56.08C341.61,-49.01 341.05,-38.86 340.55,-29.99"/>
<polygon fill="midnightblue" stroke="midnightblue" points="344.04,-29.54 339.99,-19.75 337.05,-29.93 344.04,-29.54"/>
</g>
<!-- Node9 -->
<g id="node9" class="node">
<title>Node9</title>
<g id="a_node9"><a xlink:title=" ">
<polygon fill="white" stroke="#bfbfbf" points="384,-0.5 384,-19.5 445,-19.5 445,-0.5 384,-0.5"/>
<text text-anchor="middle" x="414.5" y="-7.5" font-family="Helvetica,sans-Serif" font-size="10.00">sys/time.h</text>
</a>
</g>
</g>
<!-- Node6&#45;&gt;Node9 -->
<g id="edge8" class="edge">
<title>Node6&#45;&gt;Node9</title>
<path fill="none" stroke="midnightblue" d="M354.07,-56.32C364.92,-48.18 381.38,-35.84 394.38,-26.09"/>
<polygon fill="midnightblue" stroke="midnightblue" points="396.82,-28.63 402.72,-19.83 392.62,-23.03 396.82,-28.63"/>
</g>
<!-- Node10&#45;&gt;Node7 -->
<g id="edge10" class="edge">
<title>Node10&#45;&gt;Node7</title>
<path fill="none" stroke="midnightblue" d="M268.5,-56.08C268.5,-49.01 268.5,-38.86 268.5,-29.99"/>
<polygon fill="midnightblue" stroke="midnightblue" points="272,-29.75 268.5,-19.75 265,-29.75 272,-29.75"/>
</g>
<!-- Node11&#45;&gt;Node9 -->
<g id="edge13" class="edge">
<title>Node11&#45;&gt;Node9</title>
<path fill="none" stroke="midnightblue" d="M446.23,-56.08C440.86,-48.46 432.98,-37.26 426.42,-27.94"/>
<polygon fill="midnightblue" stroke="midnightblue" points="429.28,-25.91 420.66,-19.75 423.55,-29.94 429.28,-25.91"/>
</g>
<!-- Node12 -->
<g id="node12" class="node">
<title>Node12</title>
<g id="a_node12"><a xlink:title=" ">
<polygon fill="white" stroke="#bfbfbf" points="463,-0.5 463,-19.5 516,-19.5 516,-0.5 463,-0.5"/>
<text text-anchor="middle" x="489.5" y="-7.5" font-family="Helvetica,sans-Serif" font-size="10.00">setjmp.h</text>
</a>
</g>
</g>
<!-- Node11&#45;&gt;Node12 -->
<g id="edge12" class="edge">
<title>Node11&#45;&gt;Node12</title>
<path fill="none" stroke="midnightblue" d="M458.61,-56.08C463.78,-48.53 471.35,-37.49 477.69,-28.23"/>
<polygon fill="midnightblue" stroke="midnightblue" points="480.74,-29.98 483.5,-19.75 474.96,-26.02 480.74,-29.98"/>
</g>
<!-- Node13 -->
<g id="node13" class="node">
<title>Node13</title>
<g id="a_node13"><a xlink:title=" ">
<polygon fill="white" stroke="#bfbfbf" points="534.5,-0.5 534.5,-19.5 590.5,-19.5 590.5,-0.5 534.5,-0.5"/>
<text text-anchor="middle" x="562.5" y="-7.5" font-family="Helvetica,sans-Serif" font-size="10.00">pthread.h</text>
</a>
</g>
</g>
<!-- Node11&#45;&gt;Node13 -->
<g id="edge14" class="edge">
<title>Node11&#45;&gt;Node13</title>
<path fill="none" stroke="midnightblue" d="M470.17,-56.32C487.89,-47.62 515.4,-34.12 535.79,-24.11"/>
<polygon fill="midnightblue" stroke="midnightblue" points="537.44,-27.2 544.87,-19.65 534.35,-20.92 537.44,-27.2"/>
</g>
</g>
</svg>
