<?xml version="1.0" encoding="UTF-8" standalone="no"?>
<!DOCTYPE svg PUBLIC "-//W3C//DTD SVG 1.1//EN"
 "http://www.w3.org/Graphics/SVG/1.1/DTD/svg11.dtd">
<!-- Generated by graphviz version 2.44.0 ()
 -->
<!-- Title: OS2.1/CPinti/include/meminfo.h Pages: 1 -->
<svg width="302pt" height="106pt"
 viewBox="0.00 0.00 301.50 106.00" xmlns="http://www.w3.org/2000/svg" xmlns:xlink="http://www.w3.org/1999/xlink">
<g id="graph0" class="graph" transform="scale(1 1) rotate(0) translate(4 102)">
<title>OS2.1/CPinti/include/meminfo.h</title>
<polygon fill="white" stroke="transparent" points="-4,4 -4,-102 297.5,-102 297.5,4 -4,4"/>
<!-- Node1 -->
<g id="node1" class="node">
<title>Node1</title>
<g id="a_node1"><a xlink:title=" ">
<polygon fill="#bfbfbf" stroke="black" points="94.5,-67.5 94.5,-97.5 201.5,-97.5 201.5,-67.5 94.5,-67.5"/>
<text text-anchor="start" x="102.5" y="-85.5" font-family="Helvetica,sans-Serif" font-size="10.00">OS2.1/CPinti/include</text>
<text text-anchor="middle" x="148" y="-74.5" font-family="Helvetica,sans-Serif" font-size="10.00">/meminfo.h</text>
</a>
</g>
</g>
<!-- Node2 -->
<g id="node2" class="node">
<title>Node2</title>
<g id="a_node2"><a xlink:href="buffer_8cpp.html" target="_top" xlink:title=" ">
<polygon fill="white" stroke="black" points="0,-6 0,-25 140,-25 140,-6 0,-6"/>
<text text-anchor="middle" x="70" y="-13" font-family="Helvetica,sans-Serif" font-size="10.00">OS2.1/CPinti/core/buffer.cpp</text>
</a>
</g>
</g>
<!-- Node1&#45;&gt;Node2 -->
<g id="edge1" class="edge">
<title>Node1&#45;&gt;Node2</title>
<path fill="none" stroke="midnightblue" d="M123.01,-60.67C108.6,-48.67 91.26,-34.22 80.43,-25.19"/>
<polygon fill="midnightblue" stroke="midnightblue" points="121.15,-63.68 131.08,-67.4 125.63,-58.31 121.15,-63.68"/>
</g>
<!-- Node3 -->
<g id="node3" class="node">
<title>Node3</title>
<g id="a_node3"><a xlink:href="meminfo_8cpp.html" target="_top" xlink:title=" ">
<polygon fill="white" stroke="black" points="158.5,-0.5 158.5,-30.5 293.5,-30.5 293.5,-0.5 158.5,-0.5"/>
<text text-anchor="start" x="166.5" y="-18.5" font-family="Helvetica,sans-Serif" font-size="10.00">OS2.1/CPinti/core/memoire</text>
<text text-anchor="middle" x="226" y="-7.5" font-family="Helvetica,sans-Serif" font-size="10.00">/meminfo.cpp</text>
</a>
</g>
</g>
<!-- Node1&#45;&gt;Node3 -->
<g id="edge2" class="edge">
<title>Node1&#45;&gt;Node3</title>
<path fill="none" stroke="midnightblue" d="M172.74,-60.88C184.59,-51.01 198.48,-39.43 209.11,-30.58"/>
<polygon fill="midnightblue" stroke="midnightblue" points="170.37,-58.31 164.92,-67.4 174.85,-63.68 170.37,-58.31"/>
</g>
</g>
</svg>
