<?xml version="1.0" encoding="UTF-8" standalone="no"?>
<!DOCTYPE svg PUBLIC "-//W3C//DTD SVG 1.1//EN"
 "http://www.w3.org/Graphics/SVG/1.1/DTD/svg11.dtd">
<!-- Generated by graphviz version 2.44.0 ()
 -->
<!-- Title: OS2.1/CPinti/core/memoire/meminfo.cpp Pages: 1 -->
<svg width="422pt" height="151pt"
 viewBox="0.00 0.00 422.00 151.00" xmlns="http://www.w3.org/2000/svg" xmlns:xlink="http://www.w3.org/1999/xlink">
<g id="graph0" class="graph" transform="scale(1 1) rotate(0) translate(4 147)">
<title>OS2.1/CPinti/core/memoire/meminfo.cpp</title>
<polygon fill="white" stroke="transparent" points="-4,4 -4,-147 418,-147 418,4 -4,4"/>
<!-- Node1 -->
<g id="node1" class="node">
<title>Node1</title>
<g id="a_node1"><a xlink:title=" ">
<polygon fill="#bfbfbf" stroke="black" points="108.5,-112.5 108.5,-142.5 243.5,-142.5 243.5,-112.5 108.5,-112.5"/>
<text text-anchor="start" x="116.5" y="-130.5" font-family="Helvetica,sans-Serif" font-size="10.00">OS2.1/CPinti/core/memoire</text>
<text text-anchor="middle" x="176" y="-119.5" font-family="Helvetica,sans-Serif" font-size="10.00">/meminfo.cpp</text>
</a>
</g>
</g>
<!-- Node2 -->
<g id="node2" class="node">
<title>Node2</title>
<g id="a_node2"><a xlink:title=" ">
<polygon fill="white" stroke="#bfbfbf" points="0,-0.5 0,-19.5 54,-19.5 54,-0.5 0,-0.5"/>
<text text-anchor="middle" x="27" y="-7.5" font-family="Helvetica,sans-Serif" font-size="10.00">iostream</text>
</a>
</g>
</g>
<!-- Node1&#45;&gt;Node2 -->
<g id="edge1" class="edge">
<title>Node1&#45;&gt;Node2</title>
<path fill="none" stroke="midnightblue" d="M108.48,-119.05C80.43,-112.36 50.24,-99.74 32,-76 21.99,-62.97 21.72,-43.81 23.37,-29.67"/>
<polygon fill="midnightblue" stroke="midnightblue" points="26.86,-30.04 24.95,-19.61 19.94,-28.95 26.86,-30.04"/>
</g>
<!-- Node3 -->
<g id="node3" class="node">
<title>Node3</title>
<g id="a_node3"><a xlink:title=" ">
<polygon fill="white" stroke="#bfbfbf" points="41,-56.5 41,-75.5 91,-75.5 91,-56.5 41,-56.5"/>
<text text-anchor="middle" x="66" y="-63.5" font-family="Helvetica,sans-Serif" font-size="10.00">unistd.h</text>
</a>
</g>
</g>
<!-- Node1&#45;&gt;Node3 -->
<g id="edge2" class="edge">
<title>Node1&#45;&gt;Node3</title>
<path fill="none" stroke="midnightblue" d="M149.93,-112.4C132.13,-102.77 108.69,-90.09 91.1,-80.58"/>
<polygon fill="midnightblue" stroke="midnightblue" points="92.47,-77.34 82.01,-75.66 89.14,-83.49 92.47,-77.34"/>
</g>
<!-- Node4 -->
<g id="node4" class="node">
<title>Node4</title>
<g id="a_node4"><a xlink:href="func__cpi_8h.html" target="_top" xlink:title=" ">
<polygon fill="white" stroke="black" points="109.5,-56.5 109.5,-75.5 170.5,-75.5 170.5,-56.5 109.5,-56.5"/>
<text text-anchor="middle" x="140" y="-63.5" font-family="Helvetica,sans-Serif" font-size="10.00">func_cpi.h</text>
</a>
</g>
</g>
<!-- Node1&#45;&gt;Node4 -->
<g id="edge3" class="edge">
<title>Node1&#45;&gt;Node4</title>
<path fill="none" stroke="midnightblue" d="M167.47,-112.4C162.4,-104.02 155.93,-93.33 150.54,-84.42"/>
<polygon fill="midnightblue" stroke="midnightblue" points="153.41,-82.4 145.24,-75.66 147.42,-86.03 153.41,-82.4"/>
</g>
<!-- Node7 -->
<g id="node7" class="node">
<title>Node7</title>
<g id="a_node7"><a xlink:title=" ">
<polygon fill="white" stroke="#bfbfbf" points="188.5,-56.5 188.5,-75.5 235.5,-75.5 235.5,-56.5 188.5,-56.5"/>
<text text-anchor="middle" x="212" y="-63.5" font-family="Helvetica,sans-Serif" font-size="10.00">stdlib.h</text>
</a>
</g>
</g>
<!-- Node1&#45;&gt;Node7 -->
<g id="edge7" class="edge">
<title>Node1&#45;&gt;Node7</title>
<path fill="none" stroke="midnightblue" d="M184.53,-112.4C189.6,-104.02 196.07,-93.33 201.46,-84.42"/>
<polygon fill="midnightblue" stroke="midnightblue" points="204.58,-86.03 206.76,-75.66 198.59,-82.4 204.58,-86.03"/>
</g>
<!-- Node8 -->
<g id="node8" class="node">
<title>Node8</title>
<g id="a_node8"><a xlink:href="meminfo_8h.html" target="_top" xlink:title=" ">
<polygon fill="white" stroke="black" points="254,-56.5 254,-75.5 316,-75.5 316,-56.5 254,-56.5"/>
<text text-anchor="middle" x="285" y="-63.5" font-family="Helvetica,sans-Serif" font-size="10.00">meminfo.h</text>
</a>
</g>
</g>
<!-- Node1&#45;&gt;Node8 -->
<g id="edge8" class="edge">
<title>Node1&#45;&gt;Node8</title>
<path fill="none" stroke="midnightblue" d="M201.83,-112.4C219.47,-102.77 242.7,-90.09 260.13,-80.58"/>
<polygon fill="midnightblue" stroke="midnightblue" points="262.04,-83.52 269.14,-75.66 258.69,-77.38 262.04,-83.52"/>
</g>
<!-- Node9 -->
<g id="node9" class="node">
<title>Node9</title>
<g id="a_node9"><a xlink:href="cpinti_8h.html" target="_top" xlink:title=" ">
<polygon fill="white" stroke="black" points="334,-56.5 334,-75.5 384,-75.5 384,-56.5 334,-56.5"/>
<text text-anchor="middle" x="359" y="-63.5" font-family="Helvetica,sans-Serif" font-size="10.00">CPinti.h</text>
</a>
</g>
</g>
<!-- Node1&#45;&gt;Node9 -->
<g id="edge9" class="edge">
<title>Node1&#45;&gt;Node9</title>
<path fill="none" stroke="midnightblue" d="M219.37,-112.4C251.46,-101.96 294.61,-87.94 324.4,-78.25"/>
<polygon fill="midnightblue" stroke="midnightblue" points="325.53,-81.56 333.96,-75.14 323.37,-74.91 325.53,-81.56"/>
</g>
<!-- Node4&#45;&gt;Node2 -->
<g id="edge4" class="edge">
<title>Node4&#45;&gt;Node2</title>
<path fill="none" stroke="midnightblue" d="M122.09,-56.44C103.75,-47.68 74.99,-33.94 53.91,-23.86"/>
<polygon fill="midnightblue" stroke="midnightblue" points="55.35,-20.67 44.82,-19.52 52.33,-26.99 55.35,-20.67"/>
</g>
<!-- Node5 -->
<g id="node5" class="node">
<title>Node5</title>
<g id="a_node5"><a xlink:title=" ">
<polygon fill="white" stroke="#bfbfbf" points="86,-0.5 86,-19.5 138,-19.5 138,-0.5 86,-0.5"/>
<text text-anchor="middle" x="112" y="-7.5" font-family="Helvetica,sans-Serif" font-size="10.00">sstream</text>
</a>
</g>
</g>
<!-- Node4&#45;&gt;Node5 -->
<g id="edge5" class="edge">
<title>Node4&#45;&gt;Node5</title>
<path fill="none" stroke="midnightblue" d="M135.38,-56.08C131.54,-48.69 125.98,-37.95 121.24,-28.81"/>
<polygon fill="midnightblue" stroke="midnightblue" points="124.25,-27.02 116.54,-19.75 118.03,-30.24 124.25,-27.02"/>
</g>
<!-- Node6 -->
<g id="node6" class="node">
<title>Node6</title>
<g id="a_node6"><a xlink:title=" ">
<polygon fill="white" stroke="#bfbfbf" points="156.5,-0.5 156.5,-19.5 217.5,-19.5 217.5,-0.5 156.5,-0.5"/>
<text text-anchor="middle" x="187" y="-7.5" font-family="Helvetica,sans-Serif" font-size="10.00">sys/time.h</text>
</a>
</g>
</g>
<!-- Node4&#45;&gt;Node6 -->
<g id="edge6" class="edge">
<title>Node4&#45;&gt;Node6</title>
<path fill="none" stroke="midnightblue" d="M147.76,-56.08C154.54,-48.3 164.54,-36.8 172.76,-27.37"/>
<polygon fill="midnightblue" stroke="midnightblue" points="175.46,-29.59 179.38,-19.75 170.18,-25 175.46,-29.59"/>
</g>
<!-- Node10 -->
<g id="node10" class="node">
<title>Node10</title>
<g id="a_node10"><a xlink:title=" ">
<polygon fill="white" stroke="#bfbfbf" points="300.5,-0.5 300.5,-19.5 351.5,-19.5 351.5,-0.5 300.5,-0.5"/>
<text text-anchor="middle" x="326" y="-7.5" font-family="Helvetica,sans-Serif" font-size="10.00">memory</text>
</a>
</g>
</g>
<!-- Node9&#45;&gt;Node10 -->
<g id="edge10" class="edge">
<title>Node9&#45;&gt;Node10</title>
<path fill="none" stroke="midnightblue" d="M353.55,-56.08C348.99,-48.61 342.33,-37.72 336.71,-28.52"/>
<polygon fill="midnightblue" stroke="midnightblue" points="339.55,-26.46 331.35,-19.75 333.58,-30.11 339.55,-26.46"/>
</g>
<!-- Node11 -->
<g id="node11" class="node">
<title>Node11</title>
<g id="a_node11"><a xlink:title=" ">
<polygon fill="white" stroke="#bfbfbf" points="370,-0.5 370,-19.5 414,-19.5 414,-0.5 370,-0.5"/>
<text text-anchor="middle" x="392" y="-7.5" font-family="Helvetica,sans-Serif" font-size="10.00">vector</text>
</a>
</g>
</g>
<!-- Node9&#45;&gt;Node11 -->
<g id="edge11" class="edge">
<title>Node9&#45;&gt;Node11</title>
<path fill="none" stroke="midnightblue" d="M364.45,-56.08C369.01,-48.61 375.67,-37.72 381.29,-28.52"/>
<polygon fill="midnightblue" stroke="midnightblue" points="384.42,-30.11 386.65,-19.75 378.45,-26.46 384.42,-30.11"/>
</g>
</g>
</svg>
