<?xml version="1.0" encoding="UTF-8" standalone="no"?>
<!DOCTYPE svg PUBLIC "-//W3C//DTD SVG 1.1//EN"
 "http://www.w3.org/Graphics/SVG/1.1/DTD/svg11.dtd">
<!-- Generated by graphviz version 2.44.0 ()
 -->
<!-- Title: cpinti::gestionnaire_tache::cpinti_get_nom_thread Pages: 1 -->
<svg width="280pt" height="50pt"
 viewBox="0.00 0.00 280.00 50.00" xmlns="http://www.w3.org/2000/svg" xmlns:xlink="http://www.w3.org/1999/xlink">
<g id="graph0" class="graph" transform="scale(1 1) rotate(0) translate(4 46)">
<title>cpinti::gestionnaire_tache::cpinti_get_nom_thread</title>
<polygon fill="white" stroke="transparent" points="-4,4 -4,-46 276,-46 276,4 -4,4"/>
<!-- Node1 -->
<g id="node1" class="node">
<title>Node1</title>
<g id="a_node1"><a xlink:title=" ">
<polygon fill="#bfbfbf" stroke="black" points="0,-0.5 0,-41.5 116,-41.5 116,-0.5 0,-0.5"/>
<text text-anchor="start" x="8" y="-29.5" font-family="Helvetica,sans-Serif" font-size="10.00">cpinti::gestionnaire</text>
<text text-anchor="start" x="8" y="-18.5" font-family="Helvetica,sans-Serif" font-size="10.00">_tache::cpinti_get_nom</text>
<text text-anchor="middle" x="58" y="-7.5" font-family="Helvetica,sans-Serif" font-size="10.00">_thread</text>
</a>
</g>
</g>
<!-- Node2 -->
<g id="node2" class="node">
<title>Node2</title>
<g id="a_node2"><a xlink:href="namespacecpinti_1_1gestionnaire__tache.html#a3662a5a014e912217bba894e2e39490a" target="_top" xlink:title=" ">
<polygon fill="white" stroke="black" points="152,-6 152,-36 272,-36 272,-6 152,-6"/>
<text text-anchor="start" x="160" y="-24" font-family="Helvetica,sans-Serif" font-size="10.00">cpinti::gestionnaire</text>
<text text-anchor="middle" x="212" y="-13" font-family="Helvetica,sans-Serif" font-size="10.00">_tache::get_NomThread</text>
</a>
</g>
</g>
<!-- Node1&#45;&gt;Node2 -->
<g id="edge1" class="edge">
<title>Node1&#45;&gt;Node2</title>
<path fill="none" stroke="midnightblue" d="M116.03,-21C124.45,-21 133.2,-21 141.82,-21"/>
<polygon fill="midnightblue" stroke="midnightblue" points="141.87,-24.5 151.87,-21 141.87,-17.5 141.87,-24.5"/>
</g>
</g>
</svg>
