<?xml version="1.0" encoding="UTF-8" standalone="no"?>
<!DOCTYPE svg PUBLIC "-//W3C//DTD SVG 1.1//EN"
 "http://www.w3.org/Graphics/SVG/1.1/DTD/svg11.dtd">
<!-- Generated by graphviz version 2.44.0 ()
 -->
<!-- Title: cpinti::cpinti_GEST_BUFF Pages: 1 -->
<svg width="396pt" height="196pt"
 viewBox="0.00 0.00 396.00 196.13" xmlns="http://www.w3.org/2000/svg" xmlns:xlink="http://www.w3.org/1999/xlink">
<g id="graph0" class="graph" transform="scale(1 1) rotate(0) translate(4 192.13)">
<title>cpinti::cpinti_GEST_BUFF</title>
<polygon fill="white" stroke="transparent" points="-4,4 -4,-192.13 392,-192.13 392,4 -4,4"/>
<!-- Node1 -->
<g id="node1" class="node">
<title>Node1</title>
<g id="a_node1"><a xlink:title=" ">
<polygon fill="#bfbfbf" stroke="black" points="257,-94 257,-113 388,-113 388,-94 257,-94"/>
<text text-anchor="middle" x="322.5" y="-101" font-family="Helvetica,sans-Serif" font-size="10.00">cpinti::cpinti_GEST_BUFF</text>
</a>
</g>
</g>
<!-- Node2 -->
<g id="node2" class="node">
<title>Node2</title>
<g id="a_node2"><a xlink:href="namespacecpinti_1_1net.html#a0c070039715652789e0814e8a98beb39" target="_top" xlink:title=" ">
<polygon fill="white" stroke="black" points="0,-100.5 0,-130.5 86,-130.5 86,-100.5 0,-100.5"/>
<text text-anchor="start" x="8" y="-118.5" font-family="Helvetica,sans-Serif" font-size="10.00">cpinti::net::cpinti</text>
<text text-anchor="middle" x="43" y="-107.5" font-family="Helvetica,sans-Serif" font-size="10.00">_client</text>
</a>
</g>
</g>
<!-- Node1&#45;&gt;Node2 -->
<g id="edge1" class="edge">
<title>Node1&#45;&gt;Node2</title>
<path fill="none" stroke="midnightblue" d="M305.48,-120.51C287.09,-138.66 255.07,-166.31 221,-177.5 179.2,-191.23 163.54,-192 122,-177.5 95.54,-168.27 71.33,-145.89 57.12,-130.7"/>
<polygon fill="midnightblue" stroke="midnightblue" points="308.19,-122.74 312.7,-113.16 303.2,-117.83 308.19,-122.74"/>
</g>
<!-- Node3 -->
<g id="node3" class="node">
<title>Node3</title>
<g id="a_node3"><a xlink:href="namespacecpinti.html#a8e50a29571c8f05af1d4735a6530688d" target="_top" xlink:title=" ">
<polygon fill="white" stroke="black" points="122,-137.5 122,-167.5 221,-167.5 221,-137.5 122,-137.5"/>
<text text-anchor="start" x="130" y="-155.5" font-family="Helvetica,sans-Serif" font-size="10.00">cpinti::cpinti_GEST</text>
<text text-anchor="middle" x="171.5" y="-144.5" font-family="Helvetica,sans-Serif" font-size="10.00">_BUFF_c</text>
</a>
</g>
</g>
<!-- Node1&#45;&gt;Node3 -->
<g id="edge2" class="edge">
<title>Node1&#45;&gt;Node3</title>
<path fill="none" stroke="midnightblue" d="M282.82,-116.22C263.06,-122.72 238.9,-130.66 218.22,-137.46"/>
<polygon fill="midnightblue" stroke="midnightblue" points="284.01,-119.51 292.42,-113.06 281.82,-112.86 284.01,-119.51"/>
</g>
<!-- Node4 -->
<g id="node4" class="node">
<title>Node4</title>
<g id="a_node4"><a xlink:href="namespacecpinti_1_1net.html#ae75f979d2adaeb1c19ba2a45f8ad2eeb" target="_top" xlink:title=" ">
<polygon fill="white" stroke="black" points="0,-32.5 0,-62.5 86,-62.5 86,-32.5 0,-32.5"/>
<text text-anchor="start" x="8" y="-50.5" font-family="Helvetica,sans-Serif" font-size="10.00">cpinti::net::cpinti</text>
<text text-anchor="middle" x="43" y="-39.5" font-family="Helvetica,sans-Serif" font-size="10.00">_serveur</text>
</a>
</g>
</g>
<!-- Node1&#45;&gt;Node4 -->
<g id="edge3" class="edge">
<title>Node1&#45;&gt;Node4</title>
<path fill="none" stroke="midnightblue" d="M273.85,-91.55C257.18,-87.52 238.3,-83.13 221,-79.5 175.16,-69.89 122.27,-60.56 86.33,-54.47"/>
<polygon fill="midnightblue" stroke="midnightblue" points="273.37,-95.03 283.91,-94 275.02,-88.23 273.37,-95.03"/>
</g>
<!-- Node5 -->
<g id="node5" class="node">
<title>Node5</title>
<g id="a_node5"><a xlink:href="namespacecpinti_1_1net__client.html#a2c0e37d915c8350e880ce82fe14cbe43" target="_top" xlink:title=" ">
<polygon fill="white" stroke="black" points="127,-88.5 127,-118.5 216,-118.5 216,-88.5 127,-88.5"/>
<text text-anchor="start" x="135" y="-106.5" font-family="Helvetica,sans-Serif" font-size="10.00">cpinti::net_client</text>
<text text-anchor="middle" x="171.5" y="-95.5" font-family="Helvetica,sans-Serif" font-size="10.00">::Demarrer_client</text>
</a>
</g>
</g>
<!-- Node1&#45;&gt;Node5 -->
<g id="edge4" class="edge">
<title>Node1&#45;&gt;Node5</title>
<path fill="none" stroke="midnightblue" d="M246.29,-103.5C235.98,-103.5 225.69,-103.5 216.21,-103.5"/>
<polygon fill="midnightblue" stroke="midnightblue" points="246.58,-107 256.58,-103.5 246.58,-100 246.58,-107"/>
</g>
<!-- Node6 -->
<g id="node6" class="node">
<title>Node6</title>
<g id="a_node6"><a xlink:href="namespacecpinti_1_1net__server.html#a8dd4cfd770dcd100f4ababcc7f3dbaa9" target="_top" xlink:title=" ">
<polygon fill="white" stroke="black" points="122.5,-0.5 122.5,-30.5 220.5,-30.5 220.5,-0.5 122.5,-0.5"/>
<text text-anchor="start" x="130.5" y="-18.5" font-family="Helvetica,sans-Serif" font-size="10.00">cpinti::net_server</text>
<text text-anchor="middle" x="171.5" y="-7.5" font-family="Helvetica,sans-Serif" font-size="10.00">::Demarrer_serveur</text>
</a>
</g>
</g>
<!-- Node1&#45;&gt;Node6 -->
<g id="edge6" class="edge">
<title>Node1&#45;&gt;Node6</title>
<path fill="none" stroke="midnightblue" d="M296.33,-88.64C269.03,-72.51 225.66,-46.9 198.16,-30.66"/>
<polygon fill="midnightblue" stroke="midnightblue" points="294.88,-91.84 305.27,-93.91 298.44,-85.82 294.88,-91.84"/>
</g>
<!-- Node5&#45;&gt;Node2 -->
<g id="edge5" class="edge">
<title>Node5&#45;&gt;Node2</title>
<path fill="none" stroke="midnightblue" d="M116.91,-108.58C106.69,-109.55 96.13,-110.55 86.33,-111.48"/>
<polygon fill="midnightblue" stroke="midnightblue" points="117.34,-112.06 126.97,-107.63 116.68,-105.09 117.34,-112.06"/>
</g>
<!-- Node6&#45;&gt;Node4 -->
<g id="edge7" class="edge">
<title>Node6&#45;&gt;Node4</title>
<path fill="none" stroke="midnightblue" d="M112.45,-30.19C103.62,-32.42 94.66,-34.68 86.26,-36.81"/>
<polygon fill="midnightblue" stroke="midnightblue" points="113.48,-33.53 122.31,-27.69 111.76,-26.75 113.48,-33.53"/>
</g>
</g>
</svg>
