<?xml version="1.0" encoding="UTF-8" standalone="no"?>
<!DOCTYPE svg PUBLIC "-//W3C//DTD SVG 1.1//EN"
 "http://www.w3.org/Graphics/SVG/1.1/DTD/svg11.dtd">
<!-- Generated by graphviz version 2.44.0 ()
 -->
<!-- Title: cpinti::interception::initialise_interception_exception Pages: 1 -->
<svg width="773pt" height="361pt"
 viewBox="0.00 0.00 773.00 361.00" xmlns="http://www.w3.org/2000/svg" xmlns:xlink="http://www.w3.org/1999/xlink">
<g id="graph0" class="graph" transform="scale(1 1) rotate(0) translate(4 357)">
<title>cpinti::interception::initialise_interception_exception</title>
<polygon fill="white" stroke="transparent" points="-4,4 -4,-357 769,-357 769,4 -4,4"/>
<!-- Node1 -->
<g id="node1" class="node">
<title>Node1</title>
<g id="a_node1"><a xlink:title=" ">
<polygon fill="#bfbfbf" stroke="black" points="0,-190 0,-231 112,-231 112,-190 0,-190"/>
<text text-anchor="start" x="8" y="-219" font-family="Helvetica,sans-Serif" font-size="10.00">cpinti::interception</text>
<text text-anchor="start" x="8" y="-208" font-family="Helvetica,sans-Serif" font-size="10.00">::initialise_interception</text>
<text text-anchor="middle" x="56" y="-197" font-family="Helvetica,sans-Serif" font-size="10.00">_exception</text>
</a>
</g>
</g>
<!-- Node2 -->
<g id="node2" class="node">
<title>Node2</title>
<g id="a_node2"><a xlink:href="namespacecpinti__dbg.html#a119c14f1b5f4849696decac82a512762" target="_top" xlink:title=" ">
<polygon fill="white" stroke="black" points="154.5,-220.5 154.5,-250.5 252.5,-250.5 252.5,-220.5 154.5,-220.5"/>
<text text-anchor="start" x="162.5" y="-238.5" font-family="Helvetica,sans-Serif" font-size="10.00">cpinti_dbg::CPINTI</text>
<text text-anchor="middle" x="203.5" y="-227.5" font-family="Helvetica,sans-Serif" font-size="10.00">_DEBUG</text>
</a>
</g>
</g>
<!-- Node1&#45;&gt;Node2 -->
<g id="edge1" class="edge">
<title>Node1&#45;&gt;Node2</title>
<path fill="none" stroke="midnightblue" d="M112.01,-219.95C122.5,-221.75 133.51,-223.65 144.1,-225.47"/>
<polygon fill="midnightblue" stroke="midnightblue" points="143.65,-228.94 154.09,-227.18 144.83,-222.04 143.65,-228.94"/>
</g>
<!-- Node4 -->
<g id="node4" class="node">
<title>Node4</title>
<g id="a_node4"><a xlink:href="namespacecpinti_1_1interception.html#a4c805b9e79a66eca888512879f8d9e10" target="_top" xlink:title=" ">
<polygon fill="white" stroke="black" points="148,-171.5 148,-201.5 259,-201.5 259,-171.5 148,-171.5"/>
<text text-anchor="start" x="156" y="-189.5" font-family="Helvetica,sans-Serif" font-size="10.00">cpinti::interception</text>
<text text-anchor="middle" x="203.5" y="-178.5" font-family="Helvetica,sans-Serif" font-size="10.00">::Erreur_Fatale_Signal</text>
</a>
</g>
</g>
<!-- Node1&#45;&gt;Node4 -->
<g id="edge3" class="edge">
<title>Node1&#45;&gt;Node4</title>
<path fill="none" stroke="midnightblue" d="M112.01,-201.43C120.45,-200.03 129.24,-198.58 137.87,-197.16"/>
<polygon fill="midnightblue" stroke="midnightblue" points="138.6,-200.59 147.9,-195.51 137.46,-193.68 138.6,-200.59"/>
</g>
<!-- Node3 -->
<g id="node3" class="node">
<title>Node3</title>
<g id="a_node3"><a xlink:href="_c_p_c___w_p_r_8h.html#a971c45e904568a2415966a3f7b705e30" target="_top" xlink:title=" ">
<polygon fill="white" stroke="black" points="295,-220.5 295,-250.5 411,-250.5 411,-220.5 295,-220.5"/>
<text text-anchor="start" x="303" y="-238.5" font-family="Helvetica,sans-Serif" font-size="10.00">cpc_cpinti_debug_plus</text>
<text text-anchor="middle" x="353" y="-227.5" font-family="Helvetica,sans-Serif" font-size="10.00">_cpinticore</text>
</a>
</g>
</g>
<!-- Node2&#45;&gt;Node3 -->
<g id="edge2" class="edge">
<title>Node2&#45;&gt;Node3</title>
<path fill="none" stroke="midnightblue" d="M252.8,-235.5C262.98,-235.5 273.91,-235.5 284.65,-235.5"/>
<polygon fill="midnightblue" stroke="midnightblue" points="284.87,-239 294.87,-235.5 284.87,-232 284.87,-239"/>
</g>
<!-- Node5 -->
<g id="node5" class="node">
<title>Node5</title>
<g id="a_node5"><a xlink:href="namespacecpinti_1_1interception.html#a1772e262cfb40d4016511caeae45b861" target="_top" xlink:title=" ">
<polygon fill="white" stroke="black" points="305.5,-171.5 305.5,-201.5 400.5,-201.5 400.5,-171.5 305.5,-171.5"/>
<text text-anchor="start" x="313.5" y="-189.5" font-family="Helvetica,sans-Serif" font-size="10.00">cpinti::interception</text>
<text text-anchor="middle" x="353" y="-178.5" font-family="Helvetica,sans-Serif" font-size="10.00">::Erreur_Fatale</text>
</a>
</g>
</g>
<!-- Node4&#45;&gt;Node5 -->
<g id="edge4" class="edge">
<title>Node4&#45;&gt;Node5</title>
<path fill="none" stroke="midnightblue" d="M259,-186.5C270.81,-186.5 283.32,-186.5 295.21,-186.5"/>
<polygon fill="midnightblue" stroke="midnightblue" points="295.47,-190 305.47,-186.5 295.47,-183 295.47,-190"/>
</g>
<!-- Node6 -->
<g id="node6" class="node">
<title>Node6</title>
<g id="a_node6"><a xlink:href="namespacecpinti_1_1gestionnaire__tache.html#ad538e6617b7db29fc971ae1980a2e8be" target="_top" xlink:title=" ">
<polygon fill="white" stroke="black" points="447,-322.5 447,-352.5 592,-352.5 592,-322.5 447,-322.5"/>
<text text-anchor="start" x="455" y="-340.5" font-family="Helvetica,sans-Serif" font-size="10.00">cpinti::gestionnaire</text>
<text text-anchor="middle" x="519.5" y="-329.5" font-family="Helvetica,sans-Serif" font-size="10.00">_tache::begin_SectionCritique</text>
</a>
</g>
</g>
<!-- Node5&#45;&gt;Node6 -->
<g id="edge5" class="edge">
<title>Node5&#45;&gt;Node6</title>
<path fill="none" stroke="midnightblue" d="M399.86,-201.54C403.95,-204.1 407.76,-207.06 411,-210.5 443.97,-245.49 412.96,-278.56 447,-312.5 448.47,-313.96 450.02,-315.34 451.65,-316.64"/>
<polygon fill="midnightblue" stroke="midnightblue" points="450.09,-319.8 460.34,-322.47 453.99,-313.99 450.09,-319.8"/>
</g>
<!-- Node7 -->
<g id="node7" class="node">
<title>Node7</title>
<g id="a_node7"><a xlink:href="int_8h.html#aff490aa8d020f62512732d4617a114de" target="_top" xlink:title=" ">
<polygon fill="white" stroke="black" points="483.5,-284 483.5,-303 555.5,-303 555.5,-284 483.5,-284"/>
<text text-anchor="middle" x="519.5" y="-291" font-family="Helvetica,sans-Serif" font-size="10.00">cpc_COLOR</text>
</a>
</g>
</g>
<!-- Node5&#45;&gt;Node7 -->
<g id="edge6" class="edge">
<title>Node5&#45;&gt;Node7</title>
<path fill="none" stroke="midnightblue" d="M398.41,-201.65C402.93,-204.21 407.23,-207.14 411,-210.5 435.35,-232.23 421.2,-254.51 447,-274.5 454.69,-280.45 464.08,-284.55 473.5,-287.36"/>
<polygon fill="midnightblue" stroke="midnightblue" points="472.7,-290.77 483.25,-289.86 474.43,-283.99 472.7,-290.77"/>
</g>
<!-- Node8 -->
<g id="node8" class="node">
<title>Node8</title>
<g id="a_node8"><a xlink:href="int_8h.html#a7acc1007d11ba847d997e4d3b2fe3983" target="_top" xlink:title=" ">
<polygon fill="white" stroke="black" points="481,-246 481,-265 558,-265 558,-246 481,-246"/>
<text text-anchor="middle" x="519.5" y="-253" font-family="Helvetica,sans-Serif" font-size="10.00">cpc_SCREEN</text>
</a>
</g>
</g>
<!-- Node5&#45;&gt;Node8 -->
<g id="edge7" class="edge">
<title>Node5&#45;&gt;Node8</title>
<path fill="none" stroke="midnightblue" d="M392.84,-201.57C399.02,-204.33 405.26,-207.34 411,-210.5 428.07,-219.89 429.37,-227.21 447,-235.5 454.63,-239.09 463.03,-242.15 471.3,-244.72"/>
<polygon fill="midnightblue" stroke="midnightblue" points="470.33,-248.08 480.91,-247.51 472.28,-241.36 470.33,-248.08"/>
</g>
<!-- Node9 -->
<g id="node9" class="node">
<title>Node9</title>
<g id="a_node9"><a xlink:href="namespacecpinti_1_1interception.html#a91bc0bcc1e6af66b82ec707691ec6679" target="_top" xlink:title=" ">
<polygon fill="white" stroke="black" points="472,-196.5 472,-226.5 567,-226.5 567,-196.5 472,-196.5"/>
<text text-anchor="start" x="480" y="-214.5" font-family="Helvetica,sans-Serif" font-size="10.00">cpinti::interception</text>
<text text-anchor="middle" x="519.5" y="-203.5" font-family="Helvetica,sans-Serif" font-size="10.00">::Error_Finalise</text>
</a>
</g>
</g>
<!-- Node5&#45;&gt;Node9 -->
<g id="edge8" class="edge">
<title>Node5&#45;&gt;Node9</title>
<path fill="none" stroke="midnightblue" d="M400.7,-193.6C419.79,-196.5 442.06,-199.88 462.05,-202.92"/>
<polygon fill="midnightblue" stroke="midnightblue" points="461.56,-206.39 471.97,-204.43 462.61,-199.47 461.56,-206.39"/>
</g>
<!-- Node12 -->
<g id="node12" class="node">
<title>Node12</title>
<g id="a_node12"><a xlink:href="namespacecpinti_1_1interception.html#ad1c99d051b6cfcaa8d4020c010d6e802" target="_top" xlink:title=" ">
<polygon fill="white" stroke="black" points="472,-147.5 472,-177.5 567,-177.5 567,-147.5 472,-147.5"/>
<text text-anchor="start" x="480" y="-165.5" font-family="Helvetica,sans-Serif" font-size="10.00">cpinti::interception</text>
<text text-anchor="middle" x="519.5" y="-154.5" font-family="Helvetica,sans-Serif" font-size="10.00">::Error_Logo</text>
</a>
</g>
</g>
<!-- Node5&#45;&gt;Node12 -->
<g id="edge11" class="edge">
<title>Node5&#45;&gt;Node12</title>
<path fill="none" stroke="midnightblue" d="M400.7,-179.69C419.79,-176.9 442.06,-173.65 462.05,-170.74"/>
<polygon fill="midnightblue" stroke="midnightblue" points="462.58,-174.2 471.97,-169.29 461.57,-167.27 462.58,-174.2"/>
</g>
<!-- Node13 -->
<g id="node13" class="node">
<title>Node13</title>
<g id="a_node13"><a xlink:href="namespacecpinti_1_1gestionnaire__tache.html#a7fe56d36b9f1a2cc2a0478fdeeced908" target="_top" xlink:title=" ">
<polygon fill="white" stroke="black" points="450,-98.5 450,-128.5 589,-128.5 589,-98.5 450,-98.5"/>
<text text-anchor="start" x="458" y="-116.5" font-family="Helvetica,sans-Serif" font-size="10.00">cpinti::gestionnaire</text>
<text text-anchor="middle" x="519.5" y="-105.5" font-family="Helvetica,sans-Serif" font-size="10.00">_tache::get_NombreThreads</text>
</a>
</g>
</g>
<!-- Node5&#45;&gt;Node13 -->
<g id="edge12" class="edge">
<title>Node5&#45;&gt;Node13</title>
<path fill="none" stroke="midnightblue" d="M379.91,-171.4C398.27,-161.07 423.68,-147.48 447,-137.5 451.36,-135.63 455.92,-133.82 460.53,-132.07"/>
<polygon fill="midnightblue" stroke="midnightblue" points="461.84,-135.32 470.03,-128.59 459.43,-128.74 461.84,-135.32"/>
</g>
<!-- Node14 -->
<g id="node14" class="node">
<title>Node14</title>
<g id="a_node14"><a xlink:href="namespacecpinti_1_1gestionnaire__tache.html#ab076831eb798dd962d6cdf867b7ff8b4" target="_top" xlink:title=" ">
<polygon fill="white" stroke="black" points="451.5,-49.5 451.5,-79.5 587.5,-79.5 587.5,-49.5 451.5,-49.5"/>
<text text-anchor="start" x="459.5" y="-67.5" font-family="Helvetica,sans-Serif" font-size="10.00">cpinti::gestionnaire</text>
<text text-anchor="middle" x="519.5" y="-56.5" font-family="Helvetica,sans-Serif" font-size="10.00">_tache::get_ThreadEnCours</text>
</a>
</g>
</g>
<!-- Node5&#45;&gt;Node14 -->
<g id="edge13" class="edge">
<title>Node5&#45;&gt;Node14</title>
<path fill="none" stroke="midnightblue" d="M364.57,-171.36C380.24,-149.99 411.6,-111.08 447,-88.5 449.57,-86.86 452.26,-85.33 455.03,-83.88"/>
<polygon fill="midnightblue" stroke="midnightblue" points="456.55,-87.03 464.09,-79.59 453.56,-80.71 456.55,-87.03"/>
</g>
<!-- Node15 -->
<g id="node15" class="node">
<title>Node15</title>
<g id="a_node15"><a xlink:href="namespacecpinti_1_1gestionnaire__tache.html#a2cb7408de395cda0909727daabbf14d9" target="_top" xlink:title=" ">
<polygon fill="white" stroke="black" points="448,-0.5 448,-30.5 591,-30.5 591,-0.5 448,-0.5"/>
<text text-anchor="start" x="456" y="-18.5" font-family="Helvetica,sans-Serif" font-size="10.00">cpinti::gestionnaire</text>
<text text-anchor="middle" x="519.5" y="-7.5" font-family="Helvetica,sans-Serif" font-size="10.00">_tache::state_SectionCritique</text>
</a>
</g>
</g>
<!-- Node5&#45;&gt;Node15 -->
<g id="edge14" class="edge">
<title>Node5&#45;&gt;Node15</title>
<path fill="none" stroke="midnightblue" d="M359.61,-171.17C371.27,-141.44 400.91,-75.66 447,-39.5 448.76,-38.12 450.6,-36.82 452.5,-35.59"/>
<polygon fill="midnightblue" stroke="midnightblue" points="454.24,-38.63 461.21,-30.66 450.79,-32.54 454.24,-38.63"/>
</g>
<!-- Node10 -->
<g id="node10" class="node">
<title>Node10</title>
<g id="a_node10"><a xlink:href="core_8h.html#acb62eccde8459fd70e1f617bdc00c49e" target="_top" xlink:title=" ">
<polygon fill="white" stroke="black" points="640.5,-224 640.5,-243 752.5,-243 752.5,-224 640.5,-224"/>
<text text-anchor="middle" x="696.5" y="-231" font-family="Helvetica,sans-Serif" font-size="10.00">cpc_CX_APM_MODE</text>
</a>
</g>
</g>
<!-- Node9&#45;&gt;Node10 -->
<g id="edge9" class="edge">
<title>Node9&#45;&gt;Node10</title>
<path fill="none" stroke="midnightblue" d="M567.4,-217.4C586.71,-219.82 609.42,-222.68 630.31,-225.3"/>
<polygon fill="midnightblue" stroke="midnightblue" points="630.04,-228.8 640.4,-226.57 630.91,-221.85 630.04,-228.8"/>
</g>
<!-- Node11 -->
<g id="node11" class="node">
<title>Node11</title>
<g id="a_node11"><a xlink:href="namespacecpinti_1_1gestionnaire__tache.html#a1dffbe4de63a3f294858ef36948b3115" target="_top" xlink:title=" ">
<polygon fill="white" stroke="black" points="628,-174.5 628,-204.5 765,-204.5 765,-174.5 628,-174.5"/>
<text text-anchor="start" x="636" y="-192.5" font-family="Helvetica,sans-Serif" font-size="10.00">cpinti::gestionnaire</text>
<text text-anchor="middle" x="696.5" y="-181.5" font-family="Helvetica,sans-Serif" font-size="10.00">_tache::end_SectionCritique</text>
</a>
</g>
</g>
<!-- Node9&#45;&gt;Node11 -->
<g id="edge10" class="edge">
<title>Node9&#45;&gt;Node11</title>
<path fill="none" stroke="midnightblue" d="M567.4,-205.6C582.88,-203.66 600.55,-201.44 617.72,-199.28"/>
<polygon fill="midnightblue" stroke="midnightblue" points="618.26,-202.74 627.74,-198.02 617.39,-195.79 618.26,-202.74"/>
</g>
</g>
</svg>
