<?xml version="1.0" encoding="UTF-8" standalone="no"?>
<!DOCTYPE svg PUBLIC "-//W3C//DTD SVG 1.1//EN"
 "http://www.w3.org/Graphics/SVG/1.1/DTD/svg11.dtd">
<!-- Generated by graphviz version 2.44.0 ()
 -->
<!-- Title: cpinti::gestionnaire_tache::SAUVEGARDER_CONTEXTE Pages: 1 -->
<svg width="371pt" height="88pt"
 viewBox="0.00 0.00 371.00 88.00" xmlns="http://www.w3.org/2000/svg" xmlns:xlink="http://www.w3.org/1999/xlink">
<g id="graph0" class="graph" transform="scale(1 1) rotate(0) translate(4 84)">
<title>cpinti::gestionnaire_tache::SAUVEGARDER_CONTEXTE</title>
<polygon fill="white" stroke="transparent" points="-4,4 -4,-84 367,-84 367,4 -4,4"/>
<!-- Node1 -->
<g id="node1" class="node">
<title>Node1</title>
<g id="a_node1"><a xlink:title=" ">
<polygon fill="#bfbfbf" stroke="black" points="0,-24.5 0,-54.5 182,-54.5 182,-24.5 0,-24.5"/>
<text text-anchor="start" x="8" y="-42.5" font-family="Helvetica,sans-Serif" font-size="10.00">cpinti::gestionnaire</text>
<text text-anchor="middle" x="91" y="-31.5" font-family="Helvetica,sans-Serif" font-size="10.00">_tache::SAUVEGARDER_CONTEXTE</text>
</a>
</g>
</g>
<!-- Node2 -->
<g id="node2" class="node">
<title>Node2</title>
<g id="a_node2"><a xlink:href="namespacecpinti_1_1gestionnaire__tache.html#ad538e6617b7db29fc971ae1980a2e8be" target="_top" xlink:title=" ">
<polygon fill="white" stroke="black" points="218,-49.5 218,-79.5 363,-79.5 363,-49.5 218,-49.5"/>
<text text-anchor="start" x="226" y="-67.5" font-family="Helvetica,sans-Serif" font-size="10.00">cpinti::gestionnaire</text>
<text text-anchor="middle" x="290.5" y="-56.5" font-family="Helvetica,sans-Serif" font-size="10.00">_tache::begin_SectionCritique</text>
</a>
</g>
</g>
<!-- Node1&#45;&gt;Node2 -->
<g id="edge1" class="edge">
<title>Node1&#45;&gt;Node2</title>
<path fill="none" stroke="midnightblue" d="M182.08,-50.9C190.71,-51.99 199.43,-53.1 207.97,-54.18"/>
<polygon fill="midnightblue" stroke="midnightblue" points="207.53,-57.65 217.89,-55.44 208.41,-50.71 207.53,-57.65"/>
</g>
<!-- Node3 -->
<g id="node3" class="node">
<title>Node3</title>
<g id="a_node3"><a xlink:href="namespacecpinti_1_1gestionnaire__tache.html#a1dffbe4de63a3f294858ef36948b3115" target="_top" xlink:title=" ">
<polygon fill="white" stroke="black" points="222,-0.5 222,-30.5 359,-30.5 359,-0.5 222,-0.5"/>
<text text-anchor="start" x="230" y="-18.5" font-family="Helvetica,sans-Serif" font-size="10.00">cpinti::gestionnaire</text>
<text text-anchor="middle" x="290.5" y="-7.5" font-family="Helvetica,sans-Serif" font-size="10.00">_tache::end_SectionCritique</text>
</a>
</g>
</g>
<!-- Node1&#45;&gt;Node3 -->
<g id="edge2" class="edge">
<title>Node1&#45;&gt;Node3</title>
<path fill="none" stroke="midnightblue" d="M182.08,-28.55C191.97,-27.35 201.98,-26.14 211.7,-24.95"/>
<polygon fill="midnightblue" stroke="midnightblue" points="212.21,-28.42 221.72,-23.74 211.37,-21.47 212.21,-28.42"/>
</g>
</g>
</svg>
