<?xml version="1.0" encoding="UTF-8" standalone="no"?>
<!DOCTYPE svg PUBLIC "-//W3C//DTD SVG 1.1//EN"
 "http://www.w3.org/Graphics/SVG/1.1/DTD/svg11.dtd">
<!-- Generated by graphviz version 2.44.0 ()
 -->
<!-- Title: cpinti::gestionnaire_tache::cpinti_get_pid_from_tid Pages: 1 -->
<svg width="286pt" height="78pt"
 viewBox="0.00 0.00 286.00 77.50" xmlns="http://www.w3.org/2000/svg" xmlns:xlink="http://www.w3.org/1999/xlink">
<g id="graph0" class="graph" transform="scale(1 1) rotate(0) translate(4 73.5)">
<title>cpinti::gestionnaire_tache::cpinti_get_pid_from_tid</title>
<polygon fill="white" stroke="transparent" points="-4,4 -4,-73.5 282,-73.5 282,4 -4,4"/>
<!-- Node1 -->
<g id="node1" class="node">
<title>Node1</title>
<g id="a_node1"><a xlink:title=" ">
<polygon fill="#bfbfbf" stroke="black" points="168,-17 168,-58 278,-58 278,-17 168,-17"/>
<text text-anchor="start" x="176" y="-46" font-family="Helvetica,sans-Serif" font-size="10.00">cpinti::gestionnaire</text>
<text text-anchor="start" x="176" y="-35" font-family="Helvetica,sans-Serif" font-size="10.00">_tache::cpinti_get_pid</text>
<text text-anchor="middle" x="223" y="-24" font-family="Helvetica,sans-Serif" font-size="10.00">_from_tid</text>
</a>
</g>
</g>
<!-- Node2 -->
<g id="node2" class="node">
<title>Node2</title>
<g id="a_node2"><a xlink:href="wpr__process_8cpp.html#a810f3b9ffddad79b4bf7ca9cc5940a5f" target="_top" xlink:title=" ">
<polygon fill="white" stroke="black" points="0,-50 0,-69 132,-69 132,-50 0,-50"/>
<text text-anchor="middle" x="66" y="-57" font-family="Helvetica,sans-Serif" font-size="10.00">xe_cpinti_get_pid_from_tid</text>
</a>
</g>
</g>
<!-- Node1&#45;&gt;Node2 -->
<g id="edge1" class="edge">
<title>Node1&#45;&gt;Node2</title>
<path fill="none" stroke="midnightblue" d="M157.63,-46.64C149.2,-47.83 140.55,-49.06 132.1,-50.26"/>
<polygon fill="midnightblue" stroke="midnightblue" points="158.38,-50.07 167.79,-45.19 157.4,-43.13 158.38,-50.07"/>
</g>
<!-- Node3 -->
<g id="node3" class="node">
<title>Node3</title>
<g id="a_node3"><a xlink:href="wpr__process_8cpp.html#a5e9f2368ec544d779f87da92d6f9eca8" target="_top" xlink:title=" ">
<polygon fill="white" stroke="black" points="8,-0.5 8,-30.5 124,-30.5 124,-0.5 8,-0.5"/>
<text text-anchor="start" x="16" y="-18.5" font-family="Helvetica,sans-Serif" font-size="10.00">xe_cpinti_get_pid_from</text>
<text text-anchor="middle" x="66" y="-7.5" font-family="Helvetica,sans-Serif" font-size="10.00">_tid_val</text>
</a>
</g>
</g>
<!-- Node1&#45;&gt;Node3 -->
<g id="edge2" class="edge">
<title>Node1&#45;&gt;Node3</title>
<path fill="none" stroke="midnightblue" d="M157.68,-28.37C146.54,-26.79 135.01,-25.15 124.08,-23.6"/>
<polygon fill="midnightblue" stroke="midnightblue" points="157.4,-31.87 167.79,-29.81 158.38,-24.93 157.4,-31.87"/>
</g>
</g>
</svg>
