<?xml version="1.0" encoding="UTF-8" standalone="no"?>
<!DOCTYPE svg PUBLIC "-//W3C//DTD SVG 1.1//EN"
 "http://www.w3.org/Graphics/SVG/1.1/DTD/svg11.dtd">
<!-- Generated by graphviz version 2.44.0 ()
 -->
<!-- Title: cpinti_dbg::CPINTI_DEBUG Pages: 1 -->
<svg width="603pt" height="1412pt"
 viewBox="0.00 0.00 603.00 1411.62" xmlns="http://www.w3.org/2000/svg" xmlns:xlink="http://www.w3.org/1999/xlink">
<g id="graph0" class="graph" transform="scale(1 1) rotate(0) translate(4 1407.62)">
<title>cpinti_dbg::CPINTI_DEBUG</title>
<polygon fill="white" stroke="transparent" points="-4,4 -4,-1407.62 599,-1407.62 599,4 -4,4"/>
<!-- Node1 -->
<g id="node1" class="node">
<title>Node1</title>
<g id="a_node1"><a xlink:title=" ">
<polygon fill="#bfbfbf" stroke="black" points="497,-675.5 497,-705.5 595,-705.5 595,-675.5 497,-675.5"/>
<text text-anchor="start" x="505" y="-693.5" font-family="Helvetica,sans-Serif" font-size="10.00">cpinti_dbg::CPINTI</text>
<text text-anchor="middle" x="546" y="-682.5" font-family="Helvetica,sans-Serif" font-size="10.00">_DEBUG</text>
</a>
</g>
</g>
<!-- Node2 -->
<g id="node2" class="node">
<title>Node2</title>
<g id="a_node2"><a xlink:href="namespacecpinti_1_1gestionnaire__tache.html#a0ac5449471b1ca1bd90d9febec477342" target="_top" xlink:title=" ">
<polygon fill="white" stroke="black" points="330,-1332.5 330,-1362.5 461,-1362.5 461,-1332.5 330,-1332.5"/>
<text text-anchor="start" x="338" y="-1350.5" font-family="Helvetica,sans-Serif" font-size="10.00">cpinti::gestionnaire</text>
<text text-anchor="middle" x="395.5" y="-1339.5" font-family="Helvetica,sans-Serif" font-size="10.00">_tache::ajouter_Processus</text>
</a>
</g>
</g>
<!-- Node1&#45;&gt;Node2 -->
<g id="edge1" class="edge">
<title>Node1&#45;&gt;Node2</title>
<path fill="none" stroke="midnightblue" d="M544.77,-716.01C543.33,-821.08 533.14,-1219.45 461,-1317.5 456.54,-1323.57 450.54,-1328.45 443.99,-1332.36"/>
<polygon fill="midnightblue" stroke="midnightblue" points="548.27,-715.76 544.89,-705.72 541.27,-715.68 548.27,-715.76"/>
</g>
<!-- Node3 -->
<g id="node3" class="node">
<title>Node3</title>
<g id="a_node3"><a xlink:href="namespacecpinti_1_1gestionnaire__tache.html#a8c7c5649614ba9fb24d07fc01370efdb" target="_top" xlink:title=" ">
<polygon fill="white" stroke="black" points="171,-1351 171,-1392 272,-1392 272,-1351 171,-1351"/>
<text text-anchor="start" x="179" y="-1380" font-family="Helvetica,sans-Serif" font-size="10.00">cpinti::gestionnaire</text>
<text text-anchor="start" x="179" y="-1369" font-family="Helvetica,sans-Serif" font-size="10.00">_tache::cpinti_creer</text>
<text text-anchor="middle" x="221.5" y="-1358" font-family="Helvetica,sans-Serif" font-size="10.00">_processus</text>
</a>
</g>
</g>
<!-- Node1&#45;&gt;Node3 -->
<g id="edge10" class="edge">
<title>Node1&#45;&gt;Node3</title>
<path fill="none" stroke="midnightblue" d="M543.83,-715.75C538.12,-833.88 511.32,-1328 461,-1372.5 409.82,-1417.76 325.54,-1404.26 272.08,-1388.95"/>
<polygon fill="midnightblue" stroke="midnightblue" points="547.34,-715.68 544.32,-705.52 540.35,-715.35 547.34,-715.68"/>
</g>
<!-- Node4 -->
<g id="node4" class="node">
<title>Node4</title>
<g id="a_node4"><a xlink:href="namespacecpinti_1_1gestionnaire__tache.html#a6e5e5771fd2998d286a459f65136f6ab" target="_top" xlink:title=" ">
<polygon fill="white" stroke="black" points="164,-1244.5 164,-1274.5 279,-1274.5 279,-1244.5 164,-1244.5"/>
<text text-anchor="start" x="172" y="-1262.5" font-family="Helvetica,sans-Serif" font-size="10.00">cpinti::gestionnaire</text>
<text text-anchor="middle" x="221.5" y="-1251.5" font-family="Helvetica,sans-Serif" font-size="10.00">_tache::ajouter_Thread</text>
</a>
</g>
</g>
<!-- Node1&#45;&gt;Node4 -->
<g id="edge3" class="edge">
<title>Node1&#45;&gt;Node4</title>
<path fill="none" stroke="midnightblue" d="M544.43,-715.76C541.82,-808.78 528,-1130.5 461,-1202.5 414.82,-1252.13 333.8,-1262.07 279.16,-1262.5"/>
<polygon fill="midnightblue" stroke="midnightblue" points="547.93,-715.68 544.7,-705.59 540.94,-715.49 547.93,-715.68"/>
</g>
<!-- Node5 -->
<g id="node5" class="node">
<title>Node5</title>
<g id="a_node5"><a xlink:href="namespacecpinti_1_1gestionnaire__tache.html#a0c6d8878452d6e0ebb31a9ae9910d859" target="_top" xlink:title=" ">
<polygon fill="white" stroke="black" points="6,-1261 6,-1302 107,-1302 107,-1261 6,-1261"/>
<text text-anchor="start" x="14" y="-1290" font-family="Helvetica,sans-Serif" font-size="10.00">cpinti::gestionnaire</text>
<text text-anchor="start" x="14" y="-1279" font-family="Helvetica,sans-Serif" font-size="10.00">_tache::cpinti_creer</text>
<text text-anchor="middle" x="56.5" y="-1268" font-family="Helvetica,sans-Serif" font-size="10.00">_thread</text>
</a>
</g>
</g>
<!-- Node1&#45;&gt;Node5 -->
<g id="edge11" class="edge">
<title>Node1&#45;&gt;Node5</title>
<path fill="none" stroke="midnightblue" d="M544.77,-715.9C543.38,-813.9 533.33,-1165.78 461,-1244.5 370.93,-1342.53 193.52,-1315.84 107.12,-1295.26"/>
<polygon fill="midnightblue" stroke="midnightblue" points="548.28,-715.78 544.9,-705.74 541.28,-715.69 548.28,-715.78"/>
</g>
<!-- Node6 -->
<g id="node6" class="node">
<title>Node6</title>
<g id="a_node6"><a xlink:href="namespacecpinti_1_1gestionnaire__fichier.html#ae04b7d30580d07875a05ce6d49a89191" target="_top" xlink:title=" ">
<polygon fill="white" stroke="black" points="338.5,-1021.5 338.5,-1051.5 452.5,-1051.5 452.5,-1021.5 338.5,-1021.5"/>
<text text-anchor="start" x="346.5" y="-1039.5" font-family="Helvetica,sans-Serif" font-size="10.00">cpinti::gestionnaire</text>
<text text-anchor="middle" x="395.5" y="-1028.5" font-family="Helvetica,sans-Serif" font-size="10.00">_fichier::Copier_Fichier</text>
</a>
</g>
</g>
<!-- Node1&#45;&gt;Node6 -->
<g id="edge5" class="edge">
<title>Node1&#45;&gt;Node6</title>
<path fill="none" stroke="midnightblue" d="M545.18,-715.84C544.28,-774.06 534.31,-919.04 461,-1006.5 455.92,-1012.56 449.35,-1017.46 442.35,-1021.41"/>
<polygon fill="midnightblue" stroke="midnightblue" points="548.69,-715.73 545.26,-705.71 541.69,-715.68 548.69,-715.73"/>
</g>
<!-- Node7 -->
<g id="node7" class="node">
<title>Node7</title>
<g id="a_node7"><a xlink:href="namespacecpinti_1_1gestionnaire__fichier.html#a52067ff600f55ed2731bb7f304f10273" target="_top" xlink:title=" ">
<polygon fill="white" stroke="black" points="167.5,-1021 167.5,-1062 275.5,-1062 275.5,-1021 167.5,-1021"/>
<text text-anchor="start" x="175.5" y="-1050" font-family="Helvetica,sans-Serif" font-size="10.00">cpinti::gestionnaire</text>
<text text-anchor="start" x="175.5" y="-1039" font-family="Helvetica,sans-Serif" font-size="10.00">_fichier::cpinti_Copier</text>
<text text-anchor="middle" x="221.5" y="-1028" font-family="Helvetica,sans-Serif" font-size="10.00">_Fichier</text>
</a>
</g>
</g>
<!-- Node1&#45;&gt;Node7 -->
<g id="edge9" class="edge">
<title>Node1&#45;&gt;Node7</title>
<path fill="none" stroke="midnightblue" d="M543.26,-715.66C537.42,-791.9 515.71,-1017.79 461,-1061.5 406.14,-1105.33 319.77,-1082.57 267.4,-1062.05"/>
<polygon fill="midnightblue" stroke="midnightblue" points="546.76,-715.77 544.01,-705.54 539.78,-715.26 546.76,-715.77"/>
</g>
<!-- Node8 -->
<g id="node8" class="node">
<title>Node8</title>
<g id="a_node8"><a xlink:href="namespacecpinti_1_1gestionnaire__tache.html#ac39e89c68667f074a252569a20c74975" target="_top" xlink:title=" ">
<polygon fill="white" stroke="black" points="3,-950 3,-991 110,-991 110,-950 3,-950"/>
<text text-anchor="start" x="11" y="-979" font-family="Helvetica,sans-Serif" font-size="10.00">cpinti::gestionnaire</text>
<text text-anchor="start" x="11" y="-968" font-family="Helvetica,sans-Serif" font-size="10.00">_tache::cpinti_arreter</text>
<text text-anchor="middle" x="56.5" y="-957" font-family="Helvetica,sans-Serif" font-size="10.00">_processus</text>
</a>
</g>
</g>
<!-- Node1&#45;&gt;Node8 -->
<g id="edge7" class="edge">
<title>Node1&#45;&gt;Node8</title>
<path fill="none" stroke="midnightblue" d="M544.56,-715.67C542.21,-766.83 529.21,-883.12 461,-942.5 362.75,-1028.03 195.03,-1004.31 110.1,-984.76"/>
<polygon fill="midnightblue" stroke="midnightblue" points="548.06,-715.63 544.92,-705.51 541.07,-715.38 548.06,-715.63"/>
</g>
<!-- Node9 -->
<g id="node9" class="node">
<title>Node9</title>
<g id="a_node9"><a xlink:href="namespacecpinti_1_1net.html#a0c070039715652789e0814e8a98beb39" target="_top" xlink:title=" ">
<polygon fill="white" stroke="black" points="13.5,-688.5 13.5,-718.5 99.5,-718.5 99.5,-688.5 13.5,-688.5"/>
<text text-anchor="start" x="21.5" y="-706.5" font-family="Helvetica,sans-Serif" font-size="10.00">cpinti::net::cpinti</text>
<text text-anchor="middle" x="56.5" y="-695.5" font-family="Helvetica,sans-Serif" font-size="10.00">_client</text>
</a>
</g>
</g>
<!-- Node1&#45;&gt;Node9 -->
<g id="edge8" class="edge">
<title>Node1&#45;&gt;Node9</title>
<path fill="none" stroke="midnightblue" d="M486.68,-704.43C409.31,-721 268.56,-744.54 149,-728.5 132.68,-726.31 115.15,-722.02 99.84,-717.6"/>
<polygon fill="midnightblue" stroke="midnightblue" points="487.68,-707.79 496.71,-702.24 486.19,-700.95 487.68,-707.79"/>
</g>
<!-- Node10 -->
<g id="node10" class="node">
<title>Node10</title>
<g id="a_node10"><a xlink:href="namespacecpinti__dbg.html#a8ac29b30b0d3e7b95ab20f421d7ec3d9" target="_top" xlink:title=" ">
<polygon fill="white" stroke="black" points="346.5,-536.5 346.5,-566.5 444.5,-566.5 444.5,-536.5 346.5,-536.5"/>
<text text-anchor="start" x="354.5" y="-554.5" font-family="Helvetica,sans-Serif" font-size="10.00">cpinti_dbg::CPINTI</text>
<text text-anchor="middle" x="395.5" y="-543.5" font-family="Helvetica,sans-Serif" font-size="10.00">_DEBUG_C</text>
</a>
</g>
</g>
<!-- Node1&#45;&gt;Node10 -->
<g id="edge12" class="edge">
<title>Node1&#45;&gt;Node10</title>
<path fill="none" stroke="midnightblue" d="M531.2,-666.39C516.41,-642.3 490.97,-605.48 461,-581.5 453.77,-575.71 445.24,-570.74 436.79,-566.61"/>
<polygon fill="midnightblue" stroke="midnightblue" points="528.37,-668.47 536.51,-675.25 534.37,-664.87 528.37,-668.47"/>
</g>
<!-- Node11 -->
<g id="node11" class="node">
<title>Node11</title>
<g id="a_node11"><a xlink:href="namespacecpinti_1_1gestionnaire__fichier.html#a01b259b43b24dd5a9f1db1dd4c6b3875" target="_top" xlink:title=" ">
<polygon fill="white" stroke="black" points="343,-477 343,-518 448,-518 448,-477 343,-477"/>
<text text-anchor="start" x="351" y="-506" font-family="Helvetica,sans-Serif" font-size="10.00">cpinti::gestionnaire</text>
<text text-anchor="start" x="351" y="-495" font-family="Helvetica,sans-Serif" font-size="10.00">_fichier::cpinti_Ecrire</text>
<text text-anchor="middle" x="395.5" y="-484" font-family="Helvetica,sans-Serif" font-size="10.00">_Fichier_complet</text>
</a>
</g>
</g>
<!-- Node1&#45;&gt;Node11 -->
<g id="edge13" class="edge">
<title>Node1&#45;&gt;Node11</title>
<path fill="none" stroke="midnightblue" d="M537.84,-665.57C526.66,-630.6 501.99,-566.87 461,-527.5 457.17,-523.82 452.81,-520.53 448.2,-517.61"/>
<polygon fill="midnightblue" stroke="midnightblue" points="534.59,-666.91 540.88,-675.44 541.28,-664.85 534.59,-666.91"/>
</g>
<!-- Node12 -->
<g id="node12" class="node">
<title>Node12</title>
<g id="a_node12"><a xlink:href="namespacecpinti_1_1gestionnaire__fichier.html#a0f57ea0f0a609783526dc0680b05e201" target="_top" xlink:title=" ">
<polygon fill="white" stroke="black" points="340.5,-319 340.5,-360 450.5,-360 450.5,-319 340.5,-319"/>
<text text-anchor="start" x="348.5" y="-348" font-family="Helvetica,sans-Serif" font-size="10.00">cpinti::gestionnaire</text>
<text text-anchor="start" x="348.5" y="-337" font-family="Helvetica,sans-Serif" font-size="10.00">_fichier::cpinti_Fichier</text>
<text text-anchor="middle" x="395.5" y="-326" font-family="Helvetica,sans-Serif" font-size="10.00">_Existe</text>
</a>
</g>
</g>
<!-- Node1&#45;&gt;Node12 -->
<g id="edge14" class="edge">
<title>Node1&#45;&gt;Node12</title>
<path fill="none" stroke="midnightblue" d="M544.81,-665.46C543.11,-607.89 531.58,-464.19 461,-374.5 456.67,-368.99 451.22,-364.24 445.33,-360.16"/>
<polygon fill="midnightblue" stroke="midnightblue" points="541.31,-665.56 545.03,-675.48 548.31,-665.41 541.31,-665.56"/>
</g>
<!-- Node13 -->
<g id="node13" class="node">
<title>Node13</title>
<g id="a_node13"><a xlink:href="namespacecpinti_1_1gestionnaire__fichier.html#aa88fdf5496d3109c3cf1b0c9f76c0d1d" target="_top" xlink:title=" ">
<polygon fill="white" stroke="black" points="173,-368 173,-409 270,-409 270,-368 173,-368"/>
<text text-anchor="start" x="181" y="-397" font-family="Helvetica,sans-Serif" font-size="10.00">cpinti::gestionnaire</text>
<text text-anchor="start" x="181" y="-386" font-family="Helvetica,sans-Serif" font-size="10.00">_fichier::cpinti_Lire</text>
<text text-anchor="middle" x="221.5" y="-375" font-family="Helvetica,sans-Serif" font-size="10.00">_Fichier_complet</text>
</a>
</g>
</g>
<!-- Node1&#45;&gt;Node13 -->
<g id="edge24" class="edge">
<title>Node1&#45;&gt;Node13</title>
<path fill="none" stroke="midnightblue" d="M541.21,-665.34C531.17,-602.36 501.84,-440.59 461,-407.5 407.42,-364.1 323.05,-368.99 270.34,-377.8"/>
<polygon fill="midnightblue" stroke="midnightblue" points="537.75,-665.9 542.75,-675.23 544.67,-664.81 537.75,-665.9"/>
</g>
<!-- Node14 -->
<g id="node14" class="node">
<title>Node14</title>
<g id="a_node14"><a xlink:href="namespacecpinti.html#af3fb396e744daa5441044b785ca8b200" target="_top" xlink:title=" ">
<polygon fill="white" stroke="black" points="330,-662 330,-681 461,-681 461,-662 330,-662"/>
<text text-anchor="middle" x="395.5" y="-669" font-family="Helvetica,sans-Serif" font-size="10.00">cpinti::cpinti_GEST_BUFF</text>
</a>
</g>
</g>
<!-- Node1&#45;&gt;Node14 -->
<g id="edge16" class="edge">
<title>Node1&#45;&gt;Node14</title>
<path fill="none" stroke="midnightblue" d="M486.74,-683.05C478.37,-681.97 469.71,-680.87 461.22,-679.78"/>
<polygon fill="midnightblue" stroke="midnightblue" points="486.42,-686.53 496.79,-684.33 487.31,-679.59 486.42,-686.53"/>
</g>
<!-- Node16 -->
<g id="node16" class="node">
<title>Node16</title>
<g id="a_node16"><a xlink:href="namespacecpinti_1_1net.html#ae75f979d2adaeb1c19ba2a45f8ad2eeb" target="_top" xlink:title=" ">
<polygon fill="white" stroke="black" points="13.5,-513.5 13.5,-543.5 99.5,-543.5 99.5,-513.5 13.5,-513.5"/>
<text text-anchor="start" x="21.5" y="-531.5" font-family="Helvetica,sans-Serif" font-size="10.00">cpinti::net::cpinti</text>
<text text-anchor="middle" x="56.5" y="-520.5" font-family="Helvetica,sans-Serif" font-size="10.00">_serveur</text>
</a>
</g>
</g>
<!-- Node1&#45;&gt;Node16 -->
<g id="edge25" class="edge">
<title>Node1&#45;&gt;Node16</title>
<path fill="none" stroke="midnightblue" d="M526.85,-667.3C511.28,-648.95 487.26,-624.09 461,-609.5 408.51,-580.35 376.8,-614.11 330,-576.5 302.11,-554.09 324.43,-523.31 294,-504.5 230.46,-465.23 138.54,-493.49 90.14,-513.42"/>
<polygon fill="midnightblue" stroke="midnightblue" points="524.32,-669.72 533.38,-675.2 529.71,-665.27 524.32,-669.72"/>
</g>
<!-- Node17 -->
<g id="node17" class="node">
<title>Node17</title>
<g id="a_node17"><a xlink:href="namespacecpinti_1_1net__client.html#a2c0e37d915c8350e880ce82fe14cbe43" target="_top" xlink:title=" ">
<polygon fill="white" stroke="black" points="177,-688.5 177,-718.5 266,-718.5 266,-688.5 177,-688.5"/>
<text text-anchor="start" x="185" y="-706.5" font-family="Helvetica,sans-Serif" font-size="10.00">cpinti::net_client</text>
<text text-anchor="middle" x="221.5" y="-695.5" font-family="Helvetica,sans-Serif" font-size="10.00">::Demarrer_client</text>
</a>
</g>
</g>
<!-- Node1&#45;&gt;Node17 -->
<g id="edge29" class="edge">
<title>Node1&#45;&gt;Node17</title>
<path fill="none" stroke="midnightblue" d="M486.47,-692.86C423,-695.42 323.16,-699.44 266.19,-701.74"/>
<polygon fill="midnightblue" stroke="midnightblue" points="486.87,-696.35 496.72,-692.45 486.59,-689.35 486.87,-696.35"/>
</g>
<!-- Node18 -->
<g id="node18" class="node">
<title>Node18</title>
<g id="a_node18"><a xlink:href="namespacecpinti_1_1net__server.html#a8dd4cfd770dcd100f4ababcc7f3dbaa9" target="_top" xlink:title=" ">
<polygon fill="white" stroke="black" points="172.5,-513.5 172.5,-543.5 270.5,-543.5 270.5,-513.5 172.5,-513.5"/>
<text text-anchor="start" x="180.5" y="-531.5" font-family="Helvetica,sans-Serif" font-size="10.00">cpinti::net_server</text>
<text text-anchor="middle" x="221.5" y="-520.5" font-family="Helvetica,sans-Serif" font-size="10.00">::Demarrer_serveur</text>
</a>
</g>
</g>
<!-- Node1&#45;&gt;Node18 -->
<g id="edge30" class="edge">
<title>Node1&#45;&gt;Node18</title>
<path fill="none" stroke="midnightblue" d="M504.65,-671.19C490.93,-664.9 475.42,-658.11 461,-652.5 403.89,-630.28 378.32,-647.18 330,-609.5 306.37,-591.07 317.57,-571 294,-552.5 287.1,-547.08 278.91,-542.86 270.59,-539.57"/>
<polygon fill="midnightblue" stroke="midnightblue" points="503.28,-674.41 513.83,-675.43 506.22,-668.06 503.28,-674.41"/>
</g>
<!-- Node19 -->
<g id="node19" class="node">
<title>Node19</title>
<g id="a_node19"><a xlink:href="namespacecpinti_1_1gestionnaire__fichier.html#a15ed875c00b9407b80b72b1f56d72e17" target="_top" xlink:title=" ">
<polygon fill="white" stroke="black" points="333,-259 333,-300 458,-300 458,-259 333,-259"/>
<text text-anchor="start" x="341" y="-288" font-family="Helvetica,sans-Serif" font-size="10.00">cpinti::gestionnaire</text>
<text text-anchor="start" x="341" y="-277" font-family="Helvetica,sans-Serif" font-size="10.00">_fichier::cpinti_Supprimer</text>
<text text-anchor="middle" x="395.5" y="-266" font-family="Helvetica,sans-Serif" font-size="10.00">_Fichier</text>
</a>
</g>
</g>
<!-- Node1&#45;&gt;Node19 -->
<g id="edge26" class="edge">
<title>Node1&#45;&gt;Node19</title>
<path fill="none" stroke="midnightblue" d="M542.34,-665.13C533.95,-589.18 505.85,-365.39 461,-309.5 458.22,-306.03 454.94,-302.95 451.37,-300.2"/>
<polygon fill="midnightblue" stroke="midnightblue" points="538.88,-665.66 543.44,-675.23 545.84,-664.91 538.88,-665.66"/>
</g>
<!-- Node20 -->
<g id="node20" class="node">
<title>Node20</title>
<g id="a_node20"><a xlink:href="namespacecpinti_1_1gestionnaire__fichier.html#a389584e265b41ce10ca6ca8ea808cd4f" target="_top" xlink:title=" ">
<polygon fill="white" stroke="black" points="343.5,-199 343.5,-240 447.5,-240 447.5,-199 343.5,-199"/>
<text text-anchor="start" x="351.5" y="-228" font-family="Helvetica,sans-Serif" font-size="10.00">cpinti::gestionnaire</text>
<text text-anchor="start" x="351.5" y="-217" font-family="Helvetica,sans-Serif" font-size="10.00">_fichier::cpinti_Taille</text>
<text text-anchor="middle" x="395.5" y="-206" font-family="Helvetica,sans-Serif" font-size="10.00">_Fichier</text>
</a>
</g>
</g>
<!-- Node1&#45;&gt;Node20 -->
<g id="edge27" class="edge">
<title>Node1&#45;&gt;Node20</title>
<path fill="none" stroke="midnightblue" d="M543.18,-665.1C536.71,-581.36 512.46,-315.55 461,-249.5 457.28,-244.73 452.62,-240.68 447.52,-237.26"/>
<polygon fill="midnightblue" stroke="midnightblue" points="539.7,-665.54 543.94,-675.25 546.68,-665.01 539.7,-665.54"/>
</g>
<!-- Node21 -->
<g id="node21" class="node">
<title>Node21</title>
<g id="a_node21"><a xlink:href="namespace_wrapper___cpcdos.html#a05d09b6fe335777e722d96ad69326bd3" target="_top" xlink:title=" ">
<polygon fill="white" stroke="black" points="336,-150.5 336,-180.5 455,-180.5 455,-150.5 336,-150.5"/>
<text text-anchor="start" x="344" y="-168.5" font-family="Helvetica,sans-Serif" font-size="10.00">Wrapper_Cpcdos::cpinti</text>
<text text-anchor="middle" x="395.5" y="-157.5" font-family="Helvetica,sans-Serif" font-size="10.00">_WRAPPER</text>
</a>
</g>
</g>
<!-- Node1&#45;&gt;Node21 -->
<g id="edge28" class="edge">
<title>Node1&#45;&gt;Node21</title>
<path fill="none" stroke="midnightblue" d="M544.02,-665.12C540.03,-573.82 522.12,-263.5 461,-189.5 458.18,-186.09 454.84,-183.17 451.17,-180.66"/>
<polygon fill="midnightblue" stroke="midnightblue" points="540.53,-665.3 544.44,-675.14 547.52,-665 540.53,-665.3"/>
</g>
<!-- Node22 -->
<g id="node22" class="node">
<title>Node22</title>
<g id="a_node22"><a xlink:href="namespacecpinti_1_1gestionnaire__tache.html#aace982c0d3bc1618caf70ececf929141" target="_top" xlink:title=" ">
<polygon fill="white" stroke="black" points="170.5,-884.5 170.5,-914.5 272.5,-914.5 272.5,-884.5 170.5,-884.5"/>
<text text-anchor="start" x="178.5" y="-902.5" font-family="Helvetica,sans-Serif" font-size="10.00">cpinti::gestionnaire</text>
<text text-anchor="middle" x="221.5" y="-891.5" font-family="Helvetica,sans-Serif" font-size="10.00">_tache::fermer_core</text>
</a>
</g>
</g>
<!-- Node1&#45;&gt;Node22 -->
<g id="edge31" class="edge">
<title>Node1&#45;&gt;Node22</title>
<path fill="none" stroke="midnightblue" d="M541.59,-715.62C534.57,-756.62 514.4,-837.18 461,-875.5 406.06,-914.93 324.77,-913.97 272.72,-908.01"/>
<polygon fill="midnightblue" stroke="midnightblue" points="545.06,-716.06 543.17,-705.64 538.15,-714.97 545.06,-716.06"/>
</g>
<!-- Node23 -->
<g id="node23" class="node">
<title>Node23</title>
<g id="a_node23"><a xlink:href="namespacecpinti_1_1interception.html#a71269205d7f5572d106bf3d75cfcf104" target="_top" xlink:title=" ">
<polygon fill="white" stroke="black" points="339.5,-91 339.5,-132 451.5,-132 451.5,-91 339.5,-91"/>
<text text-anchor="start" x="347.5" y="-120" font-family="Helvetica,sans-Serif" font-size="10.00">cpinti::interception</text>
<text text-anchor="start" x="347.5" y="-109" font-family="Helvetica,sans-Serif" font-size="10.00">::initialise_interception</text>
<text text-anchor="middle" x="395.5" y="-98" font-family="Helvetica,sans-Serif" font-size="10.00">_exception</text>
</a>
</g>
</g>
<!-- Node1&#45;&gt;Node23 -->
<g id="edge32" class="edge">
<title>Node1&#45;&gt;Node23</title>
<path fill="none" stroke="midnightblue" d="M544.23,-665.12C540.84,-568.67 524.45,-226.08 461,-141.5 458.33,-137.94 455.14,-134.79 451.62,-132.01"/>
<polygon fill="midnightblue" stroke="midnightblue" points="540.74,-665.51 544.57,-675.39 547.74,-665.28 540.74,-665.51"/>
</g>
<!-- Node24 -->
<g id="node24" class="node">
<title>Node24</title>
<g id="a_node24"><a xlink:href="namespacecpinti_1_1gestionnaire__tache.html#ad386876c980cb034a2f757e09a1c4977" target="_top" xlink:title=" ">
<polygon fill="white" stroke="black" points="152,-1195.5 152,-1225.5 291,-1225.5 291,-1195.5 152,-1195.5"/>
<text text-anchor="start" x="160" y="-1213.5" font-family="Helvetica,sans-Serif" font-size="10.00">cpinti::gestionnaire</text>
<text text-anchor="middle" x="221.5" y="-1202.5" font-family="Helvetica,sans-Serif" font-size="10.00">_tache::initialiser_Multitache</text>
</a>
</g>
</g>
<!-- Node1&#45;&gt;Node24 -->
<g id="edge33" class="edge">
<title>Node1&#45;&gt;Node24</title>
<path fill="none" stroke="midnightblue" d="M544.15,-715.92C540.63,-804.69 524.3,-1098.99 461,-1163.5 417.4,-1207.93 344.87,-1216.76 291.21,-1216.27"/>
<polygon fill="midnightblue" stroke="midnightblue" points="547.65,-715.82 544.53,-705.69 540.66,-715.56 547.65,-715.82"/>
</g>
<!-- Node25 -->
<g id="node25" class="node">
<title>Node25</title>
<g id="a_node25"><a xlink:href="namespacecpinti_1_1gestionnaire__tache.html#a640f909bd791a0d1c0f4d87e58fbb5ae" target="_top" xlink:title=" ">
<polygon fill="white" stroke="black" points="331,-1123.5 331,-1153.5 460,-1153.5 460,-1123.5 331,-1123.5"/>
<text text-anchor="start" x="339" y="-1141.5" font-family="Helvetica,sans-Serif" font-size="10.00">cpinti::gestionnaire</text>
<text text-anchor="middle" x="395.5" y="-1130.5" font-family="Helvetica,sans-Serif" font-size="10.00">_tache::Interruption_Timer</text>
</a>
</g>
</g>
<!-- Node1&#45;&gt;Node25 -->
<g id="edge34" class="edge">
<title>Node1&#45;&gt;Node25</title>
<path fill="none" stroke="midnightblue" d="M542.21,-715.99C533.25,-794.51 503.27,-1031.18 461,-1094.5 452.95,-1106.56 440.36,-1116.23 428.43,-1123.39"/>
<polygon fill="midnightblue" stroke="midnightblue" points="545.74,-715.93 543.38,-705.6 538.79,-715.14 545.74,-715.93"/>
</g>
<!-- Node29 -->
<g id="node29" class="node">
<title>Node29</title>
<g id="a_node29"><a xlink:href="namespacecpinti_1_1gestionnaire__fichier.html#a0639698a01d0468162c52cde6b75db06" target="_top" xlink:title=" ">
<polygon fill="white" stroke="black" points="344,-417 344,-458 447,-458 447,-417 344,-417"/>
<text text-anchor="start" x="352" y="-446" font-family="Helvetica,sans-Serif" font-size="10.00">cpinti::gestionnaire</text>
<text text-anchor="start" x="352" y="-435" font-family="Helvetica,sans-Serif" font-size="10.00">_fichier::Lire_Fichier</text>
<text text-anchor="middle" x="395.5" y="-424" font-family="Helvetica,sans-Serif" font-size="10.00">_complet</text>
</a>
</g>
</g>
<!-- Node1&#45;&gt;Node29 -->
<g id="edge41" class="edge">
<title>Node1&#45;&gt;Node29</title>
<path fill="none" stroke="midnightblue" d="M541.82,-665.39C534.9,-620.36 514.54,-525.22 461,-467.5 456.97,-463.15 452.18,-459.38 447.06,-456.12"/>
<polygon fill="midnightblue" stroke="midnightblue" points="538.38,-666.05 543.27,-675.45 545.31,-665.06 538.38,-666.05"/>
</g>
<!-- Node30 -->
<g id="node30" class="node">
<title>Node30</title>
<g id="a_node30"><a xlink:href="namespacecpinti_1_1net__ping.html#a4a1768e58ae8d951dae035575be366f5" target="_top" xlink:title=" ">
<polygon fill="white" stroke="black" points="343.5,-53 343.5,-72 447.5,-72 447.5,-53 343.5,-53"/>
<text text-anchor="middle" x="395.5" y="-60" font-family="Helvetica,sans-Serif" font-size="10.00">cpinti::net_ping::ping</text>
</a>
</g>
</g>
<!-- Node1&#45;&gt;Node30 -->
<g id="edge43" class="edge">
<title>Node1&#45;&gt;Node30</title>
<path fill="none" stroke="midnightblue" d="M545.04,-665.08C544.66,-561.32 538.09,-171.06 461,-81.5 457.34,-77.25 452.79,-73.93 447.81,-71.34"/>
<polygon fill="midnightblue" stroke="midnightblue" points="541.54,-665.26 545.05,-675.26 548.54,-665.25 541.54,-665.26"/>
</g>
<!-- Node32 -->
<g id="node32" class="node">
<title>Node32</title>
<g id="a_node32"><a xlink:href="namespacecpinti_1_1gestionnaire__tache.html#a828c970178672d3dbc14cdc8d5426968" target="_top" xlink:title=" ">
<polygon fill="white" stroke="black" points="340.5,-2.5 340.5,-32.5 450.5,-32.5 450.5,-2.5 340.5,-2.5"/>
<text text-anchor="start" x="348.5" y="-20.5" font-family="Helvetica,sans-Serif" font-size="10.00">cpinti::gestionnaire</text>
<text text-anchor="middle" x="395.5" y="-9.5" font-family="Helvetica,sans-Serif" font-size="10.00">_tache::SCHEDULER</text>
</a>
</g>
</g>
<!-- Node1&#45;&gt;Node32 -->
<g id="edge45" class="edge">
<title>Node1&#45;&gt;Node32</title>
<path fill="none" stroke="midnightblue" d="M545.02,-665.11C544.62,-557.89 538.06,-143.12 461,-43.5 457.68,-39.2 453.53,-35.61 448.95,-32.61"/>
<polygon fill="midnightblue" stroke="midnightblue" points="541.52,-665.32 545.04,-675.31 548.52,-665.3 541.52,-665.32"/>
</g>
<!-- Node34 -->
<g id="node34" class="node">
<title>Node34</title>
<g id="a_node34"><a xlink:href="namespacecpinti_1_1gestionnaire__tache.html#ac43c3c3801eaf41bc3e0b0d184461f96" target="_top" xlink:title=" ">
<polygon fill="white" stroke="black" points="149,-933.5 149,-963.5 294,-963.5 294,-933.5 149,-933.5"/>
<text text-anchor="start" x="157" y="-951.5" font-family="Helvetica,sans-Serif" font-size="10.00">cpinti::gestionnaire</text>
<text text-anchor="middle" x="221.5" y="-940.5" font-family="Helvetica,sans-Serif" font-size="10.00">_tache::supprimer_Processus</text>
</a>
</g>
</g>
<!-- Node1&#45;&gt;Node34 -->
<g id="edge47" class="edge">
<title>Node1&#45;&gt;Node34</title>
<path fill="none" stroke="midnightblue" d="M543.01,-715.65C537.96,-761.33 520.47,-857.71 461,-906.5 414.68,-944.5 346.03,-953.21 294.26,-953.46"/>
<polygon fill="midnightblue" stroke="midnightblue" points="546.49,-715.99 544,-705.69 539.53,-715.3 546.49,-715.99"/>
</g>
<!-- Node35 -->
<g id="node35" class="node">
<title>Node35</title>
<g id="a_node35"><a xlink:href="namespacecpinti_1_1gestionnaire__tache.html#ace8684d7861881e3535f5eaa6008b94f" target="_top" xlink:title=" ">
<polygon fill="white" stroke="black" points="331.5,-835.5 331.5,-865.5 459.5,-865.5 459.5,-835.5 331.5,-835.5"/>
<text text-anchor="start" x="339.5" y="-853.5" font-family="Helvetica,sans-Serif" font-size="10.00">cpinti::gestionnaire</text>
<text text-anchor="middle" x="395.5" y="-842.5" font-family="Helvetica,sans-Serif" font-size="10.00">_tache::supprimer_Thread</text>
</a>
</g>
</g>
<!-- Node1&#45;&gt;Node35 -->
<g id="edge49" class="edge">
<title>Node1&#45;&gt;Node35</title>
<path fill="none" stroke="midnightblue" d="M524.17,-712.94C493.45,-746.04 436.8,-807.08 410.54,-835.37"/>
<polygon fill="midnightblue" stroke="midnightblue" points="526.79,-715.26 531.03,-705.55 521.66,-710.5 526.79,-715.26"/>
</g>
<!-- Node2&#45;&gt;Node3 -->
<g id="edge2" class="edge">
<title>Node2&#45;&gt;Node3</title>
<path fill="none" stroke="midnightblue" d="M319.97,-1357.9C303.77,-1360.16 287.02,-1362.5 272.07,-1364.58"/>
<polygon fill="midnightblue" stroke="midnightblue" points="320.54,-1361.35 329.96,-1356.5 319.58,-1354.42 320.54,-1361.35"/>
</g>
<!-- Node4&#45;&gt;Node5 -->
<g id="edge4" class="edge">
<title>Node4&#45;&gt;Node5</title>
<path fill="none" stroke="midnightblue" d="M153.83,-1268.5C138.22,-1270.6 121.87,-1272.81 107.16,-1274.8"/>
<polygon fill="midnightblue" stroke="midnightblue" points="154.51,-1271.94 163.95,-1267.13 153.57,-1265 154.51,-1271.94"/>
</g>
<!-- Node6&#45;&gt;Node7 -->
<g id="edge6" class="edge">
<title>Node6&#45;&gt;Node7</title>
<path fill="none" stroke="midnightblue" d="M328.12,-1038.43C310.77,-1038.93 292.3,-1039.47 275.73,-1039.95"/>
<polygon fill="midnightblue" stroke="midnightblue" points="328.29,-1041.93 338.18,-1038.14 328.08,-1034.93 328.29,-1041.93"/>
</g>
<!-- Node12&#45;&gt;Node13 -->
<g id="edge15" class="edge">
<title>Node12&#45;&gt;Node13</title>
<path fill="none" stroke="midnightblue" d="M330.43,-357.75C310.47,-363.44 288.82,-369.61 270.18,-374.92"/>
<polygon fill="midnightblue" stroke="midnightblue" points="331.42,-361.11 340.08,-355 329.5,-354.38 331.42,-361.11"/>
</g>
<!-- Node14&#45;&gt;Node9 -->
<g id="edge17" class="edge">
<title>Node14&#45;&gt;Node9</title>
<path fill="none" stroke="midnightblue" d="M357.71,-658.43C348.6,-655.02 338.89,-651.25 330,-647.5 313.69,-640.63 311.27,-634.37 294,-630.5 231.12,-616.4 209.83,-609.21 149,-630.5 116.2,-641.98 86.39,-670.7 70.22,-688.5"/>
<polygon fill="midnightblue" stroke="midnightblue" points="356.72,-661.79 367.31,-661.96 359.14,-655.22 356.72,-661.79"/>
</g>
<!-- Node15 -->
<g id="node15" class="node">
<title>Node15</title>
<g id="a_node15"><a xlink:href="namespacecpinti.html#a8e50a29571c8f05af1d4735a6530688d" target="_top" xlink:title=" ">
<polygon fill="white" stroke="black" points="172,-639.5 172,-669.5 271,-669.5 271,-639.5 172,-639.5"/>
<text text-anchor="start" x="180" y="-657.5" font-family="Helvetica,sans-Serif" font-size="10.00">cpinti::cpinti_GEST</text>
<text text-anchor="middle" x="221.5" y="-646.5" font-family="Helvetica,sans-Serif" font-size="10.00">_BUFF_c</text>
</a>
</g>
</g>
<!-- Node14&#45;&gt;Node15 -->
<g id="edge18" class="edge">
<title>Node14&#45;&gt;Node15</title>
<path fill="none" stroke="midnightblue" d="M319.82,-664.12C303.38,-662.49 286.37,-660.81 271.27,-659.32"/>
<polygon fill="midnightblue" stroke="midnightblue" points="319.67,-667.62 329.96,-665.12 320.36,-660.65 319.67,-667.62"/>
</g>
<!-- Node14&#45;&gt;Node16 -->
<g id="edge19" class="edge">
<title>Node14&#45;&gt;Node16</title>
<path fill="none" stroke="midnightblue" d="M350.96,-658.14C343.71,-655.12 336.46,-651.58 330,-647.5 311.14,-635.58 312.95,-624.28 294,-612.5 260.88,-591.91 158.45,-559.04 99.83,-541.14"/>
<polygon fill="midnightblue" stroke="midnightblue" points="350.19,-661.59 360.78,-661.92 352.71,-655.06 350.19,-661.59"/>
</g>
<!-- Node14&#45;&gt;Node17 -->
<g id="edge20" class="edge">
<title>Node14&#45;&gt;Node17</title>
<path fill="none" stroke="midnightblue" d="M333.36,-682.88C311.16,-687 286.56,-691.58 266.17,-695.37"/>
<polygon fill="midnightblue" stroke="midnightblue" points="334.17,-686.28 343.36,-681.01 332.89,-679.4 334.17,-686.28"/>
</g>
<!-- Node14&#45;&gt;Node18 -->
<g id="edge22" class="edge">
<title>Node14&#45;&gt;Node18</title>
<path fill="none" stroke="midnightblue" d="M343.94,-657.54C338.85,-654.77 334.07,-651.46 330,-647.5 299.41,-617.76 323.98,-588.87 294,-558.5 287.47,-551.89 279.27,-546.66 270.77,-542.56"/>
<polygon fill="midnightblue" stroke="midnightblue" points="342.8,-660.88 353.34,-661.98 345.78,-654.55 342.8,-660.88"/>
</g>
<!-- Node17&#45;&gt;Node9 -->
<g id="edge21" class="edge">
<title>Node17&#45;&gt;Node9</title>
<path fill="none" stroke="midnightblue" d="M166.71,-703.5C144.89,-703.5 120.07,-703.5 99.61,-703.5"/>
<polygon fill="midnightblue" stroke="midnightblue" points="166.82,-707 176.82,-703.5 166.82,-700 166.82,-707"/>
</g>
<!-- Node18&#45;&gt;Node16 -->
<g id="edge23" class="edge">
<title>Node18&#45;&gt;Node16</title>
<path fill="none" stroke="midnightblue" d="M162.22,-528.5C141.55,-528.5 118.71,-528.5 99.65,-528.5"/>
<polygon fill="midnightblue" stroke="midnightblue" points="162.48,-532 172.48,-528.5 162.48,-525 162.48,-532"/>
</g>
<!-- Node25&#45;&gt;Node4 -->
<g id="edge35" class="edge">
<title>Node25&#45;&gt;Node4</title>
<path fill="none" stroke="midnightblue" d="M375.93,-1161.59C357.29,-1183.39 326.71,-1215.63 294,-1235.5 288.4,-1238.9 282.27,-1241.88 276.01,-1244.49"/>
<polygon fill="midnightblue" stroke="midnightblue" points="378.73,-1163.7 382.47,-1153.79 373.36,-1159.2 378.73,-1163.7"/>
</g>
<!-- Node25&#45;&gt;Node24 -->
<g id="edge39" class="edge">
<title>Node25&#45;&gt;Node24</title>
<path fill="none" stroke="midnightblue" d="M354.86,-1158.17C336.53,-1166.97 314.35,-1177.21 294,-1185.5 285.6,-1188.92 276.53,-1192.32 267.77,-1195.45"/>
<polygon fill="midnightblue" stroke="midnightblue" points="356.59,-1161.22 364.07,-1153.71 353.54,-1154.92 356.59,-1161.22"/>
</g>
<!-- Node26 -->
<g id="node26" class="node">
<title>Node26</title>
<g id="a_node26"><a xlink:href="namespacecpinti.html#add88e43780041b1587942a9bc7aa6f0d" target="_top" xlink:title=" ">
<polygon fill="white" stroke="black" points="0,-1138 0,-1157 113,-1157 113,-1138 0,-1138"/>
<text text-anchor="middle" x="56.5" y="-1145" font-family="Helvetica,sans-Serif" font-size="10.00">cpinti::cpinti_doevents</text>
</a>
</g>
</g>
<!-- Node25&#45;&gt;Node26 -->
<g id="edge36" class="edge">
<title>Node25&#45;&gt;Node26</title>
<path fill="none" stroke="midnightblue" d="M320.53,-1140.48C258.02,-1142.14 169.87,-1144.5 113.2,-1146.01"/>
<polygon fill="midnightblue" stroke="midnightblue" points="320.81,-1143.97 330.72,-1140.2 320.63,-1136.97 320.81,-1143.97"/>
</g>
<!-- Node27 -->
<g id="node27" class="node">
<title>Node27</title>
<g id="a_node27"><a xlink:href="namespacecpinti.html#a8235499e69d1e950b8ad549075f21a3d" target="_top" xlink:title=" ">
<polygon fill="white" stroke="black" points="169,-1157 169,-1176 274,-1176 274,-1157 169,-1157"/>
<text text-anchor="middle" x="221.5" y="-1164" font-family="Helvetica,sans-Serif" font-size="10.00">cpinti::cpinti_USleep</text>
</a>
</g>
</g>
<!-- Node25&#45;&gt;Node27 -->
<g id="edge37" class="edge">
<title>Node25&#45;&gt;Node27</title>
<path fill="none" stroke="midnightblue" d="M320.71,-1150.51C304.97,-1153.07 288.68,-1155.73 274,-1158.12"/>
<polygon fill="midnightblue" stroke="midnightblue" points="321.63,-1153.91 330.94,-1148.85 320.51,-1147 321.63,-1153.91"/>
</g>
<!-- Node28 -->
<g id="node28" class="node">
<title>Node28</title>
<g id="a_node28"><a xlink:href="core_8cpp.html#a8072a106077bf5b87885ed3fbafc7229" target="_top" xlink:title=" ">
<polygon fill="white" stroke="black" points="174,-1081 174,-1100 269,-1100 269,-1081 174,-1081"/>
<text text-anchor="middle" x="221.5" y="-1088" font-family="Helvetica,sans-Serif" font-size="10.00">Interruption_Timer</text>
</a>
</g>
</g>
<!-- Node25&#45;&gt;Node28 -->
<g id="edge40" class="edge">
<title>Node25&#45;&gt;Node28</title>
<path fill="none" stroke="midnightblue" d="M330.73,-1120.71C305.67,-1113.71 277.91,-1105.96 256.77,-1100.06"/>
<polygon fill="midnightblue" stroke="midnightblue" points="329.98,-1124.13 340.55,-1123.44 331.86,-1117.38 329.98,-1124.13"/>
</g>
<!-- Node27&#45;&gt;Node26 -->
<g id="edge38" class="edge">
<title>Node27&#45;&gt;Node26</title>
<path fill="none" stroke="midnightblue" d="M158.75,-1159.3C143.8,-1157.56 127.91,-1155.71 113.25,-1154"/>
<polygon fill="midnightblue" stroke="midnightblue" points="158.59,-1162.81 168.93,-1160.49 159.4,-1155.85 158.59,-1162.81"/>
</g>
<!-- Node29&#45;&gt;Node13 -->
<g id="edge42" class="edge">
<title>Node29&#45;&gt;Node13</title>
<path fill="none" stroke="midnightblue" d="M334.06,-420.28C313.11,-414.31 289.94,-407.71 270.16,-402.08"/>
<polygon fill="midnightblue" stroke="midnightblue" points="333.25,-423.69 343.82,-423.06 335.17,-416.96 333.25,-423.69"/>
</g>
<!-- Node31 -->
<g id="node31" class="node">
<title>Node31</title>
<g id="a_node31"><a xlink:href="namespacecpinti_1_1net.html#a127fd61520e3c48357ce8511fb41ca38" target="_top" xlink:title=" ">
<polygon fill="white" stroke="black" points="178.5,-49.5 178.5,-79.5 264.5,-79.5 264.5,-49.5 178.5,-49.5"/>
<text text-anchor="start" x="186.5" y="-67.5" font-family="Helvetica,sans-Serif" font-size="10.00">cpinti::net::cpinti</text>
<text text-anchor="middle" x="221.5" y="-56.5" font-family="Helvetica,sans-Serif" font-size="10.00">_ping_icmp</text>
</a>
</g>
</g>
<!-- Node30&#45;&gt;Node31 -->
<g id="edge44" class="edge">
<title>Node30&#45;&gt;Node31</title>
<path fill="none" stroke="midnightblue" d="M333.15,-63.21C310.5,-63.48 285.35,-63.77 264.76,-64.01"/>
<polygon fill="midnightblue" stroke="midnightblue" points="333.4,-66.71 343.36,-63.09 333.32,-59.71 333.4,-66.71"/>
</g>
<!-- Node33 -->
<g id="node33" class="node">
<title>Node33</title>
<g id="a_node33"><a xlink:href="namespacecpinti_1_1gestionnaire__tache.html#a673eddce3cf102d14f24f4b0a7b916ba" target="_top" xlink:title=" ">
<polygon fill="white" stroke="black" points="163.5,-0.5 163.5,-30.5 279.5,-30.5 279.5,-0.5 163.5,-0.5"/>
<text text-anchor="start" x="171.5" y="-18.5" font-family="Helvetica,sans-Serif" font-size="10.00">cpinti::gestionnaire</text>
<text text-anchor="middle" x="221.5" y="-7.5" font-family="Helvetica,sans-Serif" font-size="10.00">_tache::switch_context</text>
</a>
</g>
</g>
<!-- Node32&#45;&gt;Node33 -->
<g id="edge46" class="edge">
<title>Node32&#45;&gt;Node33</title>
<path fill="none" stroke="midnightblue" d="M329.94,-16.75C313.38,-16.56 295.68,-16.35 279.53,-16.16"/>
<polygon fill="midnightblue" stroke="midnightblue" points="330.04,-20.25 340.08,-16.87 330.12,-13.25 330.04,-20.25"/>
</g>
<!-- Node34&#45;&gt;Node8 -->
<g id="edge48" class="edge">
<title>Node34&#45;&gt;Node8</title>
<path fill="none" stroke="midnightblue" d="M138.6,-959.55C129.04,-960.84 119.5,-962.13 110.48,-963.35"/>
<polygon fill="midnightblue" stroke="midnightblue" points="139.09,-963.02 148.53,-958.21 138.15,-956.08 139.09,-963.02"/>
</g>
<!-- Node35&#45;&gt;Node22 -->
<g id="edge52" class="edge">
<title>Node35&#45;&gt;Node22</title>
<path fill="none" stroke="midnightblue" d="M331.8,-868.36C312.35,-873.9 291.17,-879.94 272.69,-885.2"/>
<polygon fill="midnightblue" stroke="midnightblue" points="332.83,-871.71 341.49,-865.6 330.91,-864.98 332.83,-871.71"/>
</g>
<!-- Node35&#45;&gt;Node34 -->
<g id="edge53" class="edge">
<title>Node35&#45;&gt;Node34</title>
<path fill="none" stroke="midnightblue" d="M369.67,-872.21C350.17,-888.38 321.76,-910.07 294,-924.5 287.61,-927.82 280.67,-930.82 273.7,-933.49"/>
<polygon fill="midnightblue" stroke="midnightblue" points="372.06,-874.77 377.46,-865.65 367.55,-869.42 372.06,-874.77"/>
</g>
<!-- Node36 -->
<g id="node36" class="node">
<title>Node36</title>
<g id="a_node36"><a xlink:href="namespacecpinti_1_1gestionnaire__tache.html#a575898d4f3044f265c999aca5721a17f" target="_top" xlink:title=" ">
<polygon fill="white" stroke="black" points="168,-776 168,-817 275,-817 275,-776 168,-776"/>
<text text-anchor="start" x="176" y="-805" font-family="Helvetica,sans-Serif" font-size="10.00">cpinti::gestionnaire</text>
<text text-anchor="start" x="176" y="-794" font-family="Helvetica,sans-Serif" font-size="10.00">_tache::cpinti_arreter</text>
<text text-anchor="middle" x="221.5" y="-783" font-family="Helvetica,sans-Serif" font-size="10.00">_thread</text>
</a>
</g>
</g>
<!-- Node35&#45;&gt;Node36 -->
<g id="edge50" class="edge">
<title>Node35&#45;&gt;Node36</title>
<path fill="none" stroke="midnightblue" d="M337.01,-832.45C317.07,-826.19 294.83,-819.21 275.29,-813.07"/>
<polygon fill="midnightblue" stroke="midnightblue" points="336,-835.8 346.59,-835.46 338.1,-829.12 336,-835.8"/>
</g>
<!-- Node37 -->
<g id="node37" class="node">
<title>Node37</title>
<g id="a_node37"><a xlink:href="namespacecpinti_1_1gestionnaire__tache.html#a0c0510966125e1a76026b112613397e5" target="_top" xlink:title=" ">
<polygon fill="white" stroke="black" points="161,-835.5 161,-865.5 282,-865.5 282,-835.5 161,-835.5"/>
<text text-anchor="start" x="169" y="-853.5" font-family="Helvetica,sans-Serif" font-size="10.00">cpinti::gestionnaire</text>
<text text-anchor="middle" x="221.5" y="-842.5" font-family="Helvetica,sans-Serif" font-size="10.00">_tache::cpinti_fin_thread</text>
</a>
</g>
</g>
<!-- Node35&#45;&gt;Node37 -->
<g id="edge51" class="edge">
<title>Node35&#45;&gt;Node37</title>
<path fill="none" stroke="midnightblue" d="M321.11,-850.5C308.1,-850.5 294.7,-850.5 282.13,-850.5"/>
<polygon fill="midnightblue" stroke="midnightblue" points="321.43,-854 331.43,-850.5 321.43,-847 321.43,-854"/>
</g>
</g>
</svg>
