<?xml version="1.0" encoding="UTF-8" standalone="no"?>
<!DOCTYPE svg PUBLIC "-//W3C//DTD SVG 1.1//EN"
 "http://www.w3.org/Graphics/SVG/1.1/DTD/svg11.dtd">
<!-- Generated by graphviz version 2.44.0 ()
 -->
<!-- Title: cpinti::gestionnaire_tache::begin_SectionCritique Pages: 1 -->
<svg width="695pt" height="362pt"
 viewBox="0.00 0.00 695.00 362.00" xmlns="http://www.w3.org/2000/svg" xmlns:xlink="http://www.w3.org/1999/xlink">
<g id="graph0" class="graph" transform="scale(1 1) rotate(0) translate(4 358)">
<title>cpinti::gestionnaire_tache::begin_SectionCritique</title>
<polygon fill="white" stroke="transparent" points="-4,4 -4,-358 691,-358 691,4 -4,4"/>
<!-- Node1 -->
<g id="node1" class="node">
<title>Node1</title>
<g id="a_node1"><a xlink:title=" ">
<polygon fill="#bfbfbf" stroke="black" points="542,-159.5 542,-189.5 687,-189.5 687,-159.5 542,-159.5"/>
<text text-anchor="start" x="550" y="-177.5" font-family="Helvetica,sans-Serif" font-size="10.00">cpinti::gestionnaire</text>
<text text-anchor="middle" x="614.5" y="-166.5" font-family="Helvetica,sans-Serif" font-size="10.00">_tache::begin_SectionCritique</text>
</a>
</g>
</g>
<!-- Node2 -->
<g id="node2" class="node">
<title>Node2</title>
<g id="a_node2"><a xlink:href="namespacecpinti_1_1gestionnaire__tache.html#a785f49984308a281ea2220d2dea93f63" target="_top" xlink:title=" ">
<polygon fill="white" stroke="black" points="360,-323.5 360,-353.5 470,-353.5 470,-323.5 360,-323.5"/>
<text text-anchor="start" x="368" y="-341.5" font-family="Helvetica,sans-Serif" font-size="10.00">cpinti::gestionnaire</text>
<text text-anchor="middle" x="415" y="-330.5" font-family="Helvetica,sans-Serif" font-size="10.00">_tache::ajouter_Timer</text>
</a>
</g>
</g>
<!-- Node1&#45;&gt;Node2 -->
<g id="edge1" class="edge">
<title>Node1&#45;&gt;Node2</title>
<path fill="none" stroke="midnightblue" d="M601.4,-198.79C584.43,-230.3 550.59,-284.76 506,-314.5 495.37,-321.59 482.73,-326.59 470.34,-330.11"/>
<polygon fill="midnightblue" stroke="midnightblue" points="604.57,-200.28 606.11,-189.8 598.37,-197.03 604.57,-200.28"/>
</g>
<!-- Node3 -->
<g id="node3" class="node">
<title>Node3</title>
<g id="a_node3"><a xlink:href="namespacecpinti_1_1interception.html#a1772e262cfb40d4016511caeae45b861" target="_top" xlink:title=" ">
<polygon fill="white" stroke="black" points="367.5,-274.5 367.5,-304.5 462.5,-304.5 462.5,-274.5 367.5,-274.5"/>
<text text-anchor="start" x="375.5" y="-292.5" font-family="Helvetica,sans-Serif" font-size="10.00">cpinti::interception</text>
<text text-anchor="middle" x="415" y="-281.5" font-family="Helvetica,sans-Serif" font-size="10.00">::Erreur_Fatale</text>
</a>
</g>
</g>
<!-- Node1&#45;&gt;Node3 -->
<g id="edge2" class="edge">
<title>Node1&#45;&gt;Node3</title>
<path fill="none" stroke="midnightblue" d="M592.61,-197.2C572.36,-217.88 539.82,-247.83 506,-265.5 492.67,-272.47 477.15,-277.54 462.79,-281.17"/>
<polygon fill="midnightblue" stroke="midnightblue" points="595.34,-199.4 599.74,-189.77 590.29,-194.55 595.34,-199.4"/>
</g>
<!-- Node6 -->
<g id="node6" class="node">
<title>Node6</title>
<g id="a_node6"><a xlink:href="namespacecpinti_1_1gestionnaire__tache.html#a8ceefba5730150b183a64422c1520ce2" target="_top" xlink:title=" ">
<polygon fill="white" stroke="black" points="366.5,-225.5 366.5,-255.5 463.5,-255.5 463.5,-225.5 366.5,-225.5"/>
<text text-anchor="start" x="374.5" y="-243.5" font-family="Helvetica,sans-Serif" font-size="10.00">cpinti::gestionnaire</text>
<text text-anchor="middle" x="415" y="-232.5" font-family="Helvetica,sans-Serif" font-size="10.00">_tache::IamInLive</text>
</a>
</g>
</g>
<!-- Node1&#45;&gt;Node6 -->
<g id="edge5" class="edge">
<title>Node1&#45;&gt;Node6</title>
<path fill="none" stroke="midnightblue" d="M558.79,-192.84C541.87,-198.51 523.17,-204.76 506,-210.5 491.47,-215.35 475.62,-220.64 461.33,-225.4"/>
<polygon fill="midnightblue" stroke="midnightblue" points="560.15,-196.07 568.52,-189.58 557.93,-189.43 560.15,-196.07"/>
</g>
<!-- Node7 -->
<g id="node7" class="node">
<title>Node7</title>
<g id="a_node7"><a xlink:href="namespacecpinti_1_1gestionnaire__tache.html#ad386876c980cb034a2f757e09a1c4977" target="_top" xlink:title=" ">
<polygon fill="white" stroke="black" points="149,-208.5 149,-238.5 288,-238.5 288,-208.5 149,-208.5"/>
<text text-anchor="start" x="157" y="-226.5" font-family="Helvetica,sans-Serif" font-size="10.00">cpinti::gestionnaire</text>
<text text-anchor="middle" x="218.5" y="-215.5" font-family="Helvetica,sans-Serif" font-size="10.00">_tache::initialiser_Multitache</text>
</a>
</g>
</g>
<!-- Node1&#45;&gt;Node7 -->
<g id="edge6" class="edge">
<title>Node1&#45;&gt;Node7</title>
<path fill="none" stroke="midnightblue" d="M531.75,-184.67C459.72,-193.63 355.99,-206.53 288.17,-214.96"/>
<polygon fill="midnightblue" stroke="midnightblue" points="532.2,-188.14 541.69,-183.43 531.34,-181.19 532.2,-188.14"/>
</g>
<!-- Node8 -->
<g id="node8" class="node">
<title>Node8</title>
<g id="a_node8"><a xlink:href="namespacecpinti_1_1gestionnaire__tache.html#a640f909bd791a0d1c0f4d87e58fbb5ae" target="_top" xlink:title=" ">
<polygon fill="white" stroke="black" points="350.5,-137.5 350.5,-167.5 479.5,-167.5 479.5,-137.5 350.5,-137.5"/>
<text text-anchor="start" x="358.5" y="-155.5" font-family="Helvetica,sans-Serif" font-size="10.00">cpinti::gestionnaire</text>
<text text-anchor="middle" x="415" y="-144.5" font-family="Helvetica,sans-Serif" font-size="10.00">_tache::Interruption_Timer</text>
</a>
</g>
</g>
<!-- Node1&#45;&gt;Node8 -->
<g id="edge7" class="edge">
<title>Node1&#45;&gt;Node8</title>
<path fill="none" stroke="midnightblue" d="M531.8,-165.4C514.45,-163.47 496.38,-161.45 479.81,-159.61"/>
<polygon fill="midnightblue" stroke="midnightblue" points="531.59,-168.9 541.92,-166.53 532.37,-161.94 531.59,-168.9"/>
</g>
<!-- Node12 -->
<g id="node12" class="node">
<title>Node12</title>
<g id="a_node12"><a xlink:href="namespacecpinti_1_1gestionnaire__tache.html#a9e12afb26403f340d75fd3c881b68da2" target="_top" xlink:title=" ">
<polygon fill="white" stroke="black" points="324,-88.5 324,-118.5 506,-118.5 506,-88.5 324,-88.5"/>
<text text-anchor="start" x="332" y="-106.5" font-family="Helvetica,sans-Serif" font-size="10.00">cpinti::gestionnaire</text>
<text text-anchor="middle" x="415" y="-95.5" font-family="Helvetica,sans-Serif" font-size="10.00">_tache::SAUVEGARDER_CONTEXTE</text>
</a>
</g>
</g>
<!-- Node1&#45;&gt;Node12 -->
<g id="edge13" class="edge">
<title>Node1&#45;&gt;Node12</title>
<path fill="none" stroke="midnightblue" d="M572.16,-155.28C552.38,-146.48 528.22,-136.3 506,-128.5 495.9,-124.95 485.03,-121.58 474.45,-118.51"/>
<polygon fill="midnightblue" stroke="midnightblue" points="570.93,-158.56 581.48,-159.47 573.8,-152.18 570.93,-158.56"/>
</g>
<!-- Node13 -->
<g id="node13" class="node">
<title>Node13</title>
<g id="a_node13"><a xlink:href="namespacecpinti_1_1gestionnaire__tache.html#a673eddce3cf102d14f24f4b0a7b916ba" target="_top" xlink:title=" ">
<polygon fill="white" stroke="black" points="160.5,-44.5 160.5,-74.5 276.5,-74.5 276.5,-44.5 160.5,-44.5"/>
<text text-anchor="start" x="168.5" y="-62.5" font-family="Helvetica,sans-Serif" font-size="10.00">cpinti::gestionnaire</text>
<text text-anchor="middle" x="218.5" y="-51.5" font-family="Helvetica,sans-Serif" font-size="10.00">_tache::switch_context</text>
</a>
</g>
</g>
<!-- Node1&#45;&gt;Node13 -->
<g id="edge15" class="edge">
<title>Node1&#45;&gt;Node13</title>
<path fill="none" stroke="midnightblue" d="M595.81,-151.56C576.53,-128.51 543.4,-94.2 506,-78.5 431.43,-47.18 336.3,-47.93 276.62,-52.68"/>
<polygon fill="midnightblue" stroke="midnightblue" points="593.24,-153.95 602.27,-159.49 598.67,-149.53 593.24,-153.95"/>
</g>
<!-- Node14 -->
<g id="node14" class="node">
<title>Node14</title>
<g id="a_node14"><a xlink:href="wpr__thread_8cpp.html#a7a5b1a5df2a8620a5b168488a8ca0b54" target="_top" xlink:title=" ">
<polygon fill="white" stroke="black" points="346.5,-0.5 346.5,-30.5 483.5,-30.5 483.5,-0.5 346.5,-0.5"/>
<text text-anchor="start" x="354.5" y="-18.5" font-family="Helvetica,sans-Serif" font-size="10.00">xe_cpinti_ENTRER_Section</text>
<text text-anchor="middle" x="415" y="-7.5" font-family="Helvetica,sans-Serif" font-size="10.00">Critique</text>
</a>
</g>
</g>
<!-- Node1&#45;&gt;Node14 -->
<g id="edge16" class="edge">
<title>Node1&#45;&gt;Node14</title>
<path fill="none" stroke="midnightblue" d="M599.58,-150.8C581.49,-121.97 547.28,-73.68 506,-45.5 497.16,-39.46 487,-34.56 476.77,-30.6"/>
<polygon fill="midnightblue" stroke="midnightblue" points="596.66,-152.73 604.87,-159.42 602.62,-149.07 596.66,-152.73"/>
</g>
<!-- Node4 -->
<g id="node4" class="node">
<title>Node4</title>
<g id="a_node4"><a xlink:href="namespacecpinti_1_1interception.html#a4c805b9e79a66eca888512879f8d9e10" target="_top" xlink:title=" ">
<polygon fill="white" stroke="black" points="163,-274.5 163,-304.5 274,-304.5 274,-274.5 163,-274.5"/>
<text text-anchor="start" x="171" y="-292.5" font-family="Helvetica,sans-Serif" font-size="10.00">cpinti::interception</text>
<text text-anchor="middle" x="218.5" y="-281.5" font-family="Helvetica,sans-Serif" font-size="10.00">::Erreur_Fatale_Signal</text>
</a>
</g>
</g>
<!-- Node3&#45;&gt;Node4 -->
<g id="edge3" class="edge">
<title>Node3&#45;&gt;Node4</title>
<path fill="none" stroke="midnightblue" d="M357.28,-289.5C331.14,-289.5 300.24,-289.5 274.34,-289.5"/>
<polygon fill="midnightblue" stroke="midnightblue" points="357.41,-293 367.41,-289.5 357.41,-286 357.41,-293"/>
</g>
<!-- Node5 -->
<g id="node5" class="node">
<title>Node5</title>
<g id="a_node5"><a xlink:href="namespacecpinti_1_1interception.html#a71269205d7f5572d106bf3d75cfcf104" target="_top" xlink:title=" ">
<polygon fill="white" stroke="black" points="0.5,-269 0.5,-310 112.5,-310 112.5,-269 0.5,-269"/>
<text text-anchor="start" x="8.5" y="-298" font-family="Helvetica,sans-Serif" font-size="10.00">cpinti::interception</text>
<text text-anchor="start" x="8.5" y="-287" font-family="Helvetica,sans-Serif" font-size="10.00">::initialise_interception</text>
<text text-anchor="middle" x="56.5" y="-276" font-family="Helvetica,sans-Serif" font-size="10.00">_exception</text>
</a>
</g>
</g>
<!-- Node4&#45;&gt;Node5 -->
<g id="edge4" class="edge">
<title>Node4&#45;&gt;Node5</title>
<path fill="none" stroke="midnightblue" d="M152.84,-289.5C139.53,-289.5 125.63,-289.5 112.68,-289.5"/>
<polygon fill="midnightblue" stroke="midnightblue" points="152.88,-293 162.88,-289.5 152.88,-286 152.88,-293"/>
</g>
<!-- Node8&#45;&gt;Node7 -->
<g id="edge11" class="edge">
<title>Node8&#45;&gt;Node7</title>
<path fill="none" stroke="midnightblue" d="M357.49,-170.84C346.35,-174.59 334.78,-178.59 324,-182.5 301.46,-190.67 276.46,-200.45 256.56,-208.42"/>
<polygon fill="midnightblue" stroke="midnightblue" points="358.76,-174.1 367.13,-167.61 356.53,-167.46 358.76,-174.1"/>
</g>
<!-- Node9 -->
<g id="node9" class="node">
<title>Node9</title>
<g id="a_node9"><a xlink:href="namespacecpinti.html#add88e43780041b1587942a9bc7aa6f0d" target="_top" xlink:title=" ">
<polygon fill="white" stroke="black" points="0,-151 0,-170 113,-170 113,-151 0,-151"/>
<text text-anchor="middle" x="56.5" y="-158" font-family="Helvetica,sans-Serif" font-size="10.00">cpinti::cpinti_doevents</text>
</a>
</g>
</g>
<!-- Node8&#45;&gt;Node9 -->
<g id="edge8" class="edge">
<title>Node8&#45;&gt;Node9</title>
<path fill="none" stroke="midnightblue" d="M339.82,-158C322.8,-159.04 304.78,-159.97 288,-160.5 228.4,-162.39 160.1,-162.08 113.41,-161.49"/>
<polygon fill="midnightblue" stroke="midnightblue" points="340.5,-161.46 350.26,-157.33 340.06,-154.47 340.5,-161.46"/>
</g>
<!-- Node10 -->
<g id="node10" class="node">
<title>Node10</title>
<g id="a_node10"><a xlink:href="namespacecpinti.html#a8235499e69d1e950b8ad549075f21a3d" target="_top" xlink:title=" ">
<polygon fill="white" stroke="black" points="166,-132 166,-151 271,-151 271,-132 166,-132"/>
<text text-anchor="middle" x="218.5" y="-139" font-family="Helvetica,sans-Serif" font-size="10.00">cpinti::cpinti_USleep</text>
</a>
</g>
</g>
<!-- Node8&#45;&gt;Node10 -->
<g id="edge9" class="edge">
<title>Node8&#45;&gt;Node10</title>
<path fill="none" stroke="midnightblue" d="M340.21,-148.33C317.15,-147.02 292.21,-145.61 271.02,-144.41"/>
<polygon fill="midnightblue" stroke="midnightblue" points="340.13,-151.83 350.31,-148.9 340.53,-144.84 340.13,-151.83"/>
</g>
<!-- Node11 -->
<g id="node11" class="node">
<title>Node11</title>
<g id="a_node11"><a xlink:href="core_8cpp.html#a8072a106077bf5b87885ed3fbafc7229" target="_top" xlink:title=" ">
<polygon fill="white" stroke="black" points="171,-94 171,-113 266,-113 266,-94 171,-94"/>
<text text-anchor="middle" x="218.5" y="-101" font-family="Helvetica,sans-Serif" font-size="10.00">Interruption_Timer</text>
</a>
</g>
</g>
<!-- Node8&#45;&gt;Node11 -->
<g id="edge12" class="edge">
<title>Node8&#45;&gt;Node11</title>
<path fill="none" stroke="midnightblue" d="M344.52,-135C315.14,-127.59 282.07,-119.26 257.32,-113.03"/>
<polygon fill="midnightblue" stroke="midnightblue" points="343.77,-138.42 354.32,-137.47 345.48,-131.63 343.77,-138.42"/>
</g>
<!-- Node10&#45;&gt;Node9 -->
<g id="edge10" class="edge">
<title>Node10&#45;&gt;Node9</title>
<path fill="none" stroke="midnightblue" d="M155.9,-148.82C141.79,-150.49 126.89,-152.26 113.06,-153.9"/>
<polygon fill="midnightblue" stroke="midnightblue" points="156.48,-152.27 165.99,-147.62 155.65,-145.32 156.48,-152.27"/>
</g>
<!-- Node12&#45;&gt;Node13 -->
<g id="edge14" class="edge">
<title>Node12&#45;&gt;Node13</title>
<path fill="none" stroke="midnightblue" d="M337.72,-86.24C317.34,-81.63 295.66,-76.73 276.51,-72.4"/>
<polygon fill="midnightblue" stroke="midnightblue" points="337.08,-89.69 347.61,-88.48 338.63,-82.86 337.08,-89.69"/>
</g>
</g>
</svg>
