<?xml version="1.0" encoding="UTF-8" standalone="no"?>
<!DOCTYPE svg PUBLIC "-//W3C//DTD SVG 1.1//EN"
 "http://www.w3.org/Graphics/SVG/1.1/DTD/svg11.dtd">
<!-- Generated by graphviz version 2.44.0 ()
 -->
<!-- Title: cpinti::fs::file_exist Pages: 1 -->
<svg width="382pt" height="50pt"
 viewBox="0.00 0.00 382.00 50.00" xmlns="http://www.w3.org/2000/svg" xmlns:xlink="http://www.w3.org/1999/xlink">
<g id="graph0" class="graph" transform="scale(1 1) rotate(0) translate(4 46)">
<title>cpinti::fs::file_exist</title>
<polygon fill="white" stroke="transparent" points="-4,4 -4,-46 378,-46 378,4 -4,4"/>
<!-- Node1 -->
<g id="node1" class="node">
<title>Node1</title>
<g id="a_node1"><a xlink:title="check if path exist and if it&#39;s a file">
<polygon fill="#bfbfbf" stroke="black" points="279,-11.5 279,-30.5 374,-30.5 374,-11.5 279,-11.5"/>
<text text-anchor="middle" x="326.5" y="-18.5" font-family="Helvetica,sans-Serif" font-size="10.00">cpinti::fs::file_exist</text>
</a>
</g>
</g>
<!-- Node2 -->
<g id="node2" class="node">
<title>Node2</title>
<g id="a_node2"><a xlink:href="namespacecpinti_1_1gestionnaire__fichier.html#a0f57ea0f0a609783526dc0680b05e201" target="_top" xlink:title=" ">
<polygon fill="white" stroke="black" points="133,-0.5 133,-41.5 243,-41.5 243,-0.5 133,-0.5"/>
<text text-anchor="start" x="141" y="-29.5" font-family="Helvetica,sans-Serif" font-size="10.00">cpinti::gestionnaire</text>
<text text-anchor="start" x="141" y="-18.5" font-family="Helvetica,sans-Serif" font-size="10.00">_fichier::cpinti_Fichier</text>
<text text-anchor="middle" x="188" y="-7.5" font-family="Helvetica,sans-Serif" font-size="10.00">_Existe</text>
</a>
</g>
</g>
<!-- Node1&#45;&gt;Node2 -->
<g id="edge1" class="edge">
<title>Node1&#45;&gt;Node2</title>
<path fill="none" stroke="midnightblue" d="M268.8,-21C260.39,-21 251.74,-21 243.38,-21"/>
<polygon fill="midnightblue" stroke="midnightblue" points="268.91,-24.5 278.91,-21 268.91,-17.5 268.91,-24.5"/>
</g>
<!-- Node3 -->
<g id="node3" class="node">
<title>Node3</title>
<g id="a_node3"><a xlink:href="namespacecpinti_1_1gestionnaire__fichier.html#aa88fdf5496d3109c3cf1b0c9f76c0d1d" target="_top" xlink:title=" ">
<polygon fill="white" stroke="black" points="0,-0.5 0,-41.5 97,-41.5 97,-0.5 0,-0.5"/>
<text text-anchor="start" x="8" y="-29.5" font-family="Helvetica,sans-Serif" font-size="10.00">cpinti::gestionnaire</text>
<text text-anchor="start" x="8" y="-18.5" font-family="Helvetica,sans-Serif" font-size="10.00">_fichier::cpinti_Lire</text>
<text text-anchor="middle" x="48.5" y="-7.5" font-family="Helvetica,sans-Serif" font-size="10.00">_Fichier_complet</text>
</a>
</g>
</g>
<!-- Node2&#45;&gt;Node3 -->
<g id="edge2" class="edge">
<title>Node2&#45;&gt;Node3</title>
<path fill="none" stroke="midnightblue" d="M122.39,-21C113.91,-21 105.35,-21 97.22,-21"/>
<polygon fill="midnightblue" stroke="midnightblue" points="122.66,-24.5 132.66,-21 122.66,-17.5 122.66,-24.5"/>
</g>
</g>
</svg>
