<?xml version="1.0" encoding="UTF-8" standalone="no"?>
<!DOCTYPE svg PUBLIC "-//W3C//DTD SVG 1.1//EN"
 "http://www.w3.org/Graphics/SVG/1.1/DTD/svg11.dtd">
<!-- Generated by graphviz version 2.44.0 ()
 -->
<!-- Title: cpinti::gestionnaire_fichier::Lire_Fichier_complet Pages: 1 -->
<svg width="244pt" height="50pt"
 viewBox="0.00 0.00 244.00 50.00" xmlns="http://www.w3.org/2000/svg" xmlns:xlink="http://www.w3.org/1999/xlink">
<g id="graph0" class="graph" transform="scale(1 1) rotate(0) translate(4 46)">
<title>cpinti::gestionnaire_fichier::Lire_Fichier_complet</title>
<polygon fill="white" stroke="transparent" points="-4,4 -4,-46 240,-46 240,4 -4,4"/>
<!-- Node1 -->
<g id="node1" class="node">
<title>Node1</title>
<g id="a_node1"><a xlink:title=" ">
<polygon fill="#bfbfbf" stroke="black" points="133,-0.5 133,-41.5 236,-41.5 236,-0.5 133,-0.5"/>
<text text-anchor="start" x="141" y="-29.5" font-family="Helvetica,sans-Serif" font-size="10.00">cpinti::gestionnaire</text>
<text text-anchor="start" x="141" y="-18.5" font-family="Helvetica,sans-Serif" font-size="10.00">_fichier::Lire_Fichier</text>
<text text-anchor="middle" x="184.5" y="-7.5" font-family="Helvetica,sans-Serif" font-size="10.00">_complet</text>
</a>
</g>
</g>
<!-- Node2 -->
<g id="node2" class="node">
<title>Node2</title>
<g id="a_node2"><a xlink:href="namespacecpinti_1_1gestionnaire__fichier.html#aa88fdf5496d3109c3cf1b0c9f76c0d1d" target="_top" xlink:title=" ">
<polygon fill="white" stroke="black" points="0,-0.5 0,-41.5 97,-41.5 97,-0.5 0,-0.5"/>
<text text-anchor="start" x="8" y="-29.5" font-family="Helvetica,sans-Serif" font-size="10.00">cpinti::gestionnaire</text>
<text text-anchor="start" x="8" y="-18.5" font-family="Helvetica,sans-Serif" font-size="10.00">_fichier::cpinti_Lire</text>
<text text-anchor="middle" x="48.5" y="-7.5" font-family="Helvetica,sans-Serif" font-size="10.00">_Fichier_complet</text>
</a>
</g>
</g>
<!-- Node1&#45;&gt;Node2 -->
<g id="edge1" class="edge">
<title>Node1&#45;&gt;Node2</title>
<path fill="none" stroke="midnightblue" d="M122.83,-21C114.21,-21 105.46,-21 97.14,-21"/>
<polygon fill="midnightblue" stroke="midnightblue" points="122.84,-24.5 132.84,-21 122.84,-17.5 122.84,-24.5"/>
</g>
</g>
</svg>
