<?xml version="1.0" encoding="UTF-8" standalone="no"?>
<!DOCTYPE svg PUBLIC "-//W3C//DTD SVG 1.1//EN"
 "http://www.w3.org/Graphics/SVG/1.1/DTD/svg11.dtd">
<!-- Generated by graphviz version 2.44.0 ()
 -->
<!-- Title: cpinti::gestionnaire_fichier::Copier_Fichier Pages: 1 -->
<svg width="449pt" height="176pt"
 viewBox="0.00 0.00 449.00 175.50" xmlns="http://www.w3.org/2000/svg" xmlns:xlink="http://www.w3.org/1999/xlink">
<g id="graph0" class="graph" transform="scale(1 1) rotate(0) translate(4 171.5)">
<title>cpinti::gestionnaire_fichier::Copier_Fichier</title>
<polygon fill="white" stroke="transparent" points="-4,4 -4,-171.5 445,-171.5 445,4 -4,4"/>
<!-- Node1 -->
<g id="node1" class="node">
<title>Node1</title>
<g id="a_node1"><a xlink:title=" ">
<polygon fill="#bfbfbf" stroke="black" points="0,-73.5 0,-103.5 114,-103.5 114,-73.5 0,-73.5"/>
<text text-anchor="start" x="8" y="-91.5" font-family="Helvetica,sans-Serif" font-size="10.00">cpinti::gestionnaire</text>
<text text-anchor="middle" x="57" y="-80.5" font-family="Helvetica,sans-Serif" font-size="10.00">_fichier::Copier_Fichier</text>
</a>
</g>
</g>
<!-- Node2 -->
<g id="node2" class="node">
<title>Node2</title>
<g id="a_node2"><a xlink:href="copier_8cpp.html#a1faa517d9540c051ecd632797117ab73" target="_top" xlink:title=" ">
<polygon fill="white" stroke="black" points="150,-148 150,-167 289,-167 289,-148 150,-148"/>
<text text-anchor="middle" x="219.5" y="-155" font-family="Helvetica,sans-Serif" font-size="10.00">cpc_CCP_Exec_Commande</text>
</a>
</g>
</g>
<!-- Node1&#45;&gt;Node2 -->
<g id="edge1" class="edge">
<title>Node1&#45;&gt;Node2</title>
<path fill="none" stroke="midnightblue" d="M82.25,-103.66C100.38,-114.5 126.07,-128.82 150,-138.5 155.86,-140.87 162.11,-143.05 168.37,-145.02"/>
<polygon fill="midnightblue" stroke="midnightblue" points="167.56,-148.43 178.15,-147.95 169.57,-141.73 167.56,-148.43"/>
</g>
<!-- Node3 -->
<g id="node3" class="node">
<title>Node3</title>
<g id="a_node3"><a xlink:href="namespacecpinti__dbg.html#a119c14f1b5f4849696decac82a512762" target="_top" xlink:title=" ">
<polygon fill="white" stroke="black" points="170.5,-98.5 170.5,-128.5 268.5,-128.5 268.5,-98.5 170.5,-98.5"/>
<text text-anchor="start" x="178.5" y="-116.5" font-family="Helvetica,sans-Serif" font-size="10.00">cpinti_dbg::CPINTI</text>
<text text-anchor="middle" x="219.5" y="-105.5" font-family="Helvetica,sans-Serif" font-size="10.00">_DEBUG</text>
</a>
</g>
</g>
<!-- Node1&#45;&gt;Node3 -->
<g id="edge2" class="edge">
<title>Node1&#45;&gt;Node3</title>
<path fill="none" stroke="midnightblue" d="M114.14,-97.24C129.05,-99.57 145.18,-102.08 160.2,-104.42"/>
<polygon fill="midnightblue" stroke="midnightblue" points="159.98,-107.93 170.4,-106.01 161.05,-101.01 159.98,-107.93"/>
</g>
<!-- Node5 -->
<g id="node5" class="node">
<title>Node5</title>
<g id="a_node5"><a xlink:href="namespacecpinti_1_1gestionnaire__fichier.html#aeb441af55c2ce6bf640075aa4265ac4d" target="_top" xlink:title=" ">
<polygon fill="white" stroke="black" points="164.5,-49.5 164.5,-79.5 274.5,-79.5 274.5,-49.5 164.5,-49.5"/>
<text text-anchor="start" x="172.5" y="-67.5" font-family="Helvetica,sans-Serif" font-size="10.00">cpinti::gestionnaire</text>
<text text-anchor="middle" x="219.5" y="-56.5" font-family="Helvetica,sans-Serif" font-size="10.00">_fichier::Taille_Fichier</text>
</a>
</g>
</g>
<!-- Node1&#45;&gt;Node5 -->
<g id="edge4" class="edge">
<title>Node1&#45;&gt;Node5</title>
<path fill="none" stroke="midnightblue" d="M114.14,-80.11C127.1,-78.17 140.99,-76.09 154.28,-74.1"/>
<polygon fill="midnightblue" stroke="midnightblue" points="154.92,-77.55 164.29,-72.61 153.88,-70.62 154.92,-77.55"/>
</g>
<!-- Node6 -->
<g id="node6" class="node">
<title>Node6</title>
<g id="a_node6"><a xlink:href="namespacecpinti_1_1_func___cpinti.html#ab7049ea2cc0148a042e823546c2ef76d" target="_top" xlink:title=" ">
<polygon fill="white" stroke="black" points="171.5,-0.5 171.5,-30.5 267.5,-30.5 267.5,-0.5 171.5,-0.5"/>
<text text-anchor="start" x="179.5" y="-18.5" font-family="Helvetica,sans-Serif" font-size="10.00">cpinti::Func_Cpinti</text>
<text text-anchor="middle" x="219.5" y="-7.5" font-family="Helvetica,sans-Serif" font-size="10.00">::to_string</text>
</a>
</g>
</g>
<!-- Node1&#45;&gt;Node6 -->
<g id="edge5" class="edge">
<title>Node1&#45;&gt;Node6</title>
<path fill="none" stroke="midnightblue" d="M84.52,-73.48C102.66,-63.51 127.42,-50.46 150,-40.5 154.92,-38.33 160.1,-36.19 165.31,-34.13"/>
<polygon fill="midnightblue" stroke="midnightblue" points="166.6,-37.38 174.68,-30.52 164.09,-30.85 166.6,-37.38"/>
</g>
<!-- Node4 -->
<g id="node4" class="node">
<title>Node4</title>
<g id="a_node4"><a xlink:href="_c_p_c___w_p_r_8h.html#a971c45e904568a2415966a3f7b705e30" target="_top" xlink:title=" ">
<polygon fill="white" stroke="black" points="325,-98.5 325,-128.5 441,-128.5 441,-98.5 325,-98.5"/>
<text text-anchor="start" x="333" y="-116.5" font-family="Helvetica,sans-Serif" font-size="10.00">cpc_cpinti_debug_plus</text>
<text text-anchor="middle" x="383" y="-105.5" font-family="Helvetica,sans-Serif" font-size="10.00">_cpinticore</text>
</a>
</g>
</g>
<!-- Node3&#45;&gt;Node4 -->
<g id="edge3" class="edge">
<title>Node3&#45;&gt;Node4</title>
<path fill="none" stroke="midnightblue" d="M268.52,-113.5C283.01,-113.5 299.19,-113.5 314.7,-113.5"/>
<polygon fill="midnightblue" stroke="midnightblue" points="314.76,-117 324.76,-113.5 314.76,-110 314.76,-117"/>
</g>
</g>
</svg>
