<?xml version="1.0" encoding="UTF-8" standalone="no"?>
<!DOCTYPE svg PUBLIC "-//W3C//DTD SVG 1.1//EN"
 "http://www.w3.org/Graphics/SVG/1.1/DTD/svg11.dtd">
<!-- Generated by graphviz version 2.44.0 ()
 -->
<!-- Title: cpinti::gestionnaire_tache::supprimer_Processus Pages: 1 -->
<svg width="621pt" height="137pt"
 viewBox="0.00 0.00 621.00 137.00" xmlns="http://www.w3.org/2000/svg" xmlns:xlink="http://www.w3.org/1999/xlink">
<g id="graph0" class="graph" transform="scale(1 1) rotate(0) translate(4 133)">
<title>cpinti::gestionnaire_tache::supprimer_Processus</title>
<polygon fill="white" stroke="transparent" points="-4,4 -4,-133 617,-133 617,4 -4,4"/>
<!-- Node1 -->
<g id="node1" class="node">
<title>Node1</title>
<g id="a_node1"><a xlink:title=" ">
<polygon fill="#bfbfbf" stroke="black" points="0,-49.5 0,-79.5 145,-79.5 145,-49.5 0,-49.5"/>
<text text-anchor="start" x="8" y="-67.5" font-family="Helvetica,sans-Serif" font-size="10.00">cpinti::gestionnaire</text>
<text text-anchor="middle" x="72.5" y="-56.5" font-family="Helvetica,sans-Serif" font-size="10.00">_tache::supprimer_Processus</text>
</a>
</g>
</g>
<!-- Node2 -->
<g id="node2" class="node">
<title>Node2</title>
<g id="a_node2"><a xlink:href="namespacecpinti__dbg.html#a119c14f1b5f4849696decac82a512762" target="_top" xlink:title=" ">
<polygon fill="white" stroke="black" points="354,-98.5 354,-128.5 452,-128.5 452,-98.5 354,-98.5"/>
<text text-anchor="start" x="362" y="-116.5" font-family="Helvetica,sans-Serif" font-size="10.00">cpinti_dbg::CPINTI</text>
<text text-anchor="middle" x="403" y="-105.5" font-family="Helvetica,sans-Serif" font-size="10.00">_DEBUG</text>
</a>
</g>
</g>
<!-- Node1&#45;&gt;Node2 -->
<g id="edge1" class="edge">
<title>Node1&#45;&gt;Node2</title>
<path fill="none" stroke="midnightblue" d="M132.38,-79.54C148.1,-83.18 165.13,-86.8 181,-89.5 235.89,-98.83 299.1,-105.26 343.82,-109.11"/>
<polygon fill="midnightblue" stroke="midnightblue" points="343.66,-112.6 353.92,-109.96 344.25,-105.63 343.66,-112.6"/>
</g>
<!-- Node4 -->
<g id="node4" class="node">
<title>Node4</title>
<g id="a_node4"><a xlink:href="namespacecpinti_1_1gestionnaire__tache.html#ace8684d7861881e3535f5eaa6008b94f" target="_top" xlink:title=" ">
<polygon fill="white" stroke="black" points="181,-49.5 181,-79.5 309,-79.5 309,-49.5 181,-49.5"/>
<text text-anchor="start" x="189" y="-67.5" font-family="Helvetica,sans-Serif" font-size="10.00">cpinti::gestionnaire</text>
<text text-anchor="middle" x="245" y="-56.5" font-family="Helvetica,sans-Serif" font-size="10.00">_tache::supprimer_Thread</text>
</a>
</g>
</g>
<!-- Node1&#45;&gt;Node4 -->
<g id="edge3" class="edge">
<title>Node1&#45;&gt;Node4</title>
<path fill="none" stroke="midnightblue" d="M145.31,-64.5C153.72,-64.5 162.31,-64.5 170.75,-64.5"/>
<polygon fill="midnightblue" stroke="midnightblue" points="170.93,-68 180.93,-64.5 170.93,-61 170.93,-68"/>
</g>
<!-- Node6 -->
<g id="node6" class="node">
<title>Node6</title>
<g id="a_node6"><a xlink:href="namespacecpinti_1_1_func___cpinti.html#ab7049ea2cc0148a042e823546c2ef76d" target="_top" xlink:title=" ">
<polygon fill="white" stroke="black" points="355,-0.5 355,-30.5 451,-30.5 451,-0.5 355,-0.5"/>
<text text-anchor="start" x="363" y="-18.5" font-family="Helvetica,sans-Serif" font-size="10.00">cpinti::Func_Cpinti</text>
<text text-anchor="middle" x="403" y="-7.5" font-family="Helvetica,sans-Serif" font-size="10.00">::to_string</text>
</a>
</g>
</g>
<!-- Node1&#45;&gt;Node6 -->
<g id="edge7" class="edge">
<title>Node1&#45;&gt;Node6</title>
<path fill="none" stroke="midnightblue" d="M132.38,-49.46C148.1,-45.82 165.13,-42.2 181,-39.5 236.24,-30.11 299.91,-23.65 344.68,-19.82"/>
<polygon fill="midnightblue" stroke="midnightblue" points="345.11,-23.3 354.78,-18.97 344.52,-16.32 345.11,-23.3"/>
</g>
<!-- Node3 -->
<g id="node3" class="node">
<title>Node3</title>
<g id="a_node3"><a xlink:href="_c_p_c___w_p_r_8h.html#a971c45e904568a2415966a3f7b705e30" target="_top" xlink:title=" ">
<polygon fill="white" stroke="black" points="497,-98.5 497,-128.5 613,-128.5 613,-98.5 497,-98.5"/>
<text text-anchor="start" x="505" y="-116.5" font-family="Helvetica,sans-Serif" font-size="10.00">cpc_cpinti_debug_plus</text>
<text text-anchor="middle" x="555" y="-105.5" font-family="Helvetica,sans-Serif" font-size="10.00">_cpinticore</text>
</a>
</g>
</g>
<!-- Node2&#45;&gt;Node3 -->
<g id="edge2" class="edge">
<title>Node2&#45;&gt;Node3</title>
<path fill="none" stroke="midnightblue" d="M452.29,-113.5C463.28,-113.5 475.16,-113.5 486.78,-113.5"/>
<polygon fill="midnightblue" stroke="midnightblue" points="486.91,-117 496.91,-113.5 486.91,-110 486.91,-117"/>
</g>
<!-- Node4&#45;&gt;Node2 -->
<g id="edge4" class="edge">
<title>Node4&#45;&gt;Node2</title>
<path fill="none" stroke="midnightblue" d="M294.08,-79.6C310.02,-84.61 327.92,-90.23 344.5,-95.44"/>
<polygon fill="midnightblue" stroke="midnightblue" points="343.49,-98.79 354.08,-98.45 345.59,-92.11 343.49,-98.79"/>
</g>
<!-- Node5 -->
<g id="node5" class="node">
<title>Node5</title>
<g id="a_node5"><a xlink:href="namespacecpinti_1_1gestionnaire__tache.html#a7216b6d2070ba00acea0233ccecd26ee" target="_top" xlink:title=" ">
<polygon fill="white" stroke="black" points="345,-49.5 345,-79.5 461,-79.5 461,-49.5 345,-49.5"/>
<text text-anchor="start" x="353" y="-67.5" font-family="Helvetica,sans-Serif" font-size="10.00">cpinti::gestionnaire</text>
<text text-anchor="middle" x="403" y="-56.5" font-family="Helvetica,sans-Serif" font-size="10.00">_tache::set_EtatThread</text>
</a>
</g>
</g>
<!-- Node4&#45;&gt;Node5 -->
<g id="edge5" class="edge">
<title>Node4&#45;&gt;Node5</title>
<path fill="none" stroke="midnightblue" d="M309,-64.5C317.42,-64.5 326.08,-64.5 334.57,-64.5"/>
<polygon fill="midnightblue" stroke="midnightblue" points="334.81,-68 344.81,-64.5 334.81,-61 334.81,-68"/>
</g>
<!-- Node4&#45;&gt;Node6 -->
<g id="edge6" class="edge">
<title>Node4&#45;&gt;Node6</title>
<path fill="none" stroke="midnightblue" d="M294.08,-49.4C310.24,-44.32 328.43,-38.61 345.2,-33.34"/>
<polygon fill="midnightblue" stroke="midnightblue" points="346.39,-36.64 354.88,-30.3 344.29,-29.96 346.39,-36.64"/>
</g>
</g>
</svg>
