<?xml version="1.0" encoding="UTF-8" standalone="no"?>
<!DOCTYPE svg PUBLIC "-//W3C//DTD SVG 1.1//EN"
 "http://www.w3.org/Graphics/SVG/1.1/DTD/svg11.dtd">
<!-- Generated by graphviz version 2.44.0 ()
 -->
<!-- Title: cpinti::net_client::Taille_Contenu Pages: 1 -->
<svg width="341pt" height="39pt"
 viewBox="0.00 0.00 341.00 39.00" xmlns="http://www.w3.org/2000/svg" xmlns:xlink="http://www.w3.org/1999/xlink">
<g id="graph0" class="graph" transform="scale(1 1) rotate(0) translate(4 35)">
<title>cpinti::net_client::Taille_Contenu</title>
<polygon fill="white" stroke="transparent" points="-4,4 -4,-35 337,-35 337,4 -4,4"/>
<!-- Node1 -->
<g id="node1" class="node">
<title>Node1</title>
<g id="a_node1"><a xlink:title=" ">
<polygon fill="#bfbfbf" stroke="black" points="247,-0.5 247,-30.5 333,-30.5 333,-0.5 247,-0.5"/>
<text text-anchor="start" x="255" y="-18.5" font-family="Helvetica,sans-Serif" font-size="10.00">cpinti::net_client</text>
<text text-anchor="middle" x="290" y="-7.5" font-family="Helvetica,sans-Serif" font-size="10.00">::Taille_Contenu</text>
</a>
</g>
</g>
<!-- Node2 -->
<g id="node2" class="node">
<title>Node2</title>
<g id="a_node2"><a xlink:href="namespacecpinti_1_1net__client.html#a2c0e37d915c8350e880ce82fe14cbe43" target="_top" xlink:title=" ">
<polygon fill="white" stroke="black" points="122,-0.5 122,-30.5 211,-30.5 211,-0.5 122,-0.5"/>
<text text-anchor="start" x="130" y="-18.5" font-family="Helvetica,sans-Serif" font-size="10.00">cpinti::net_client</text>
<text text-anchor="middle" x="166.5" y="-7.5" font-family="Helvetica,sans-Serif" font-size="10.00">::Demarrer_client</text>
</a>
</g>
</g>
<!-- Node1&#45;&gt;Node2 -->
<g id="edge1" class="edge">
<title>Node1&#45;&gt;Node2</title>
<path fill="none" stroke="midnightblue" d="M236.66,-15.5C228.18,-15.5 219.48,-15.5 211.23,-15.5"/>
<polygon fill="midnightblue" stroke="midnightblue" points="236.85,-19 246.85,-15.5 236.85,-12 236.85,-19"/>
</g>
<!-- Node3 -->
<g id="node3" class="node">
<title>Node3</title>
<g id="a_node3"><a xlink:href="namespacecpinti_1_1net.html#a0c070039715652789e0814e8a98beb39" target="_top" xlink:title=" ">
<polygon fill="white" stroke="black" points="0,-0.5 0,-30.5 86,-30.5 86,-0.5 0,-0.5"/>
<text text-anchor="start" x="8" y="-18.5" font-family="Helvetica,sans-Serif" font-size="10.00">cpinti::net::cpinti</text>
<text text-anchor="middle" x="43" y="-7.5" font-family="Helvetica,sans-Serif" font-size="10.00">_client</text>
</a>
</g>
</g>
<!-- Node2&#45;&gt;Node3 -->
<g id="edge2" class="edge">
<title>Node2&#45;&gt;Node3</title>
<path fill="none" stroke="midnightblue" d="M111.76,-15.5C103.27,-15.5 94.59,-15.5 86.4,-15.5"/>
<polygon fill="midnightblue" stroke="midnightblue" points="111.98,-19 121.98,-15.5 111.98,-12 111.98,-19"/>
</g>
</g>
</svg>
