<?xml version="1.0" encoding="UTF-8" standalone="no"?>
<!DOCTYPE svg PUBLIC "-//W3C//DTD SVG 1.1//EN"
 "http://www.w3.org/Graphics/SVG/1.1/DTD/svg11.dtd">
<!-- Generated by graphviz version 2.44.0 ()
 -->
<!-- Title: cpinti::interception::Erreur_Fatale Pages: 1 -->
<svg width="457pt" height="361pt"
 viewBox="0.00 0.00 457.00 361.00" xmlns="http://www.w3.org/2000/svg" xmlns:xlink="http://www.w3.org/1999/xlink">
<g id="graph0" class="graph" transform="scale(1 1) rotate(0) translate(4 357)">
<title>cpinti::interception::Erreur_Fatale</title>
<polygon fill="white" stroke="transparent" points="-4,4 -4,-357 453,-357 453,4 -4,4"/>
<!-- Node1 -->
<g id="node1" class="node">
<title>Node1</title>
<g id="a_node1"><a xlink:title=" ">
<polygon fill="#bfbfbf" stroke="black" points="0,-171.5 0,-201.5 95,-201.5 95,-171.5 0,-171.5"/>
<text text-anchor="start" x="8" y="-189.5" font-family="Helvetica,sans-Serif" font-size="10.00">cpinti::interception</text>
<text text-anchor="middle" x="47.5" y="-178.5" font-family="Helvetica,sans-Serif" font-size="10.00">::Erreur_Fatale</text>
</a>
</g>
</g>
<!-- Node2 -->
<g id="node2" class="node">
<title>Node2</title>
<g id="a_node2"><a xlink:href="namespacecpinti_1_1gestionnaire__tache.html#ad538e6617b7db29fc971ae1980a2e8be" target="_top" xlink:title=" ">
<polygon fill="white" stroke="black" points="131,-322.5 131,-352.5 276,-352.5 276,-322.5 131,-322.5"/>
<text text-anchor="start" x="139" y="-340.5" font-family="Helvetica,sans-Serif" font-size="10.00">cpinti::gestionnaire</text>
<text text-anchor="middle" x="203.5" y="-329.5" font-family="Helvetica,sans-Serif" font-size="10.00">_tache::begin_SectionCritique</text>
</a>
</g>
</g>
<!-- Node1&#45;&gt;Node2 -->
<g id="edge1" class="edge">
<title>Node1&#45;&gt;Node2</title>
<path fill="none" stroke="midnightblue" d="M54.5,-201.62C65.66,-227.89 92.07,-282.06 131,-312.5 133.28,-314.28 135.7,-315.95 138.22,-317.5"/>
<polygon fill="midnightblue" stroke="midnightblue" points="136.63,-320.62 147.08,-322.33 139.98,-314.47 136.63,-320.62"/>
</g>
<!-- Node3 -->
<g id="node3" class="node">
<title>Node3</title>
<g id="a_node3"><a xlink:href="int_8h.html#aff490aa8d020f62512732d4617a114de" target="_top" xlink:title=" ">
<polygon fill="white" stroke="black" points="167.5,-284 167.5,-303 239.5,-303 239.5,-284 167.5,-284"/>
<text text-anchor="middle" x="203.5" y="-291" font-family="Helvetica,sans-Serif" font-size="10.00">cpc_COLOR</text>
</a>
</g>
</g>
<!-- Node1&#45;&gt;Node3 -->
<g id="edge2" class="edge">
<title>Node1&#45;&gt;Node3</title>
<path fill="none" stroke="midnightblue" d="M58.6,-201.71C72.54,-221.48 99.54,-255.7 131,-274.5 139.1,-279.34 148.43,-282.97 157.63,-285.68"/>
<polygon fill="midnightblue" stroke="midnightblue" points="156.93,-289.11 167.49,-288.27 158.71,-282.34 156.93,-289.11"/>
</g>
<!-- Node4 -->
<g id="node4" class="node">
<title>Node4</title>
<g id="a_node4"><a xlink:href="int_8h.html#a7acc1007d11ba847d997e4d3b2fe3983" target="_top" xlink:title=" ">
<polygon fill="white" stroke="black" points="165,-246 165,-265 242,-265 242,-246 165,-246"/>
<text text-anchor="middle" x="203.5" y="-253" font-family="Helvetica,sans-Serif" font-size="10.00">cpc_SCREEN</text>
</a>
</g>
</g>
<!-- Node1&#45;&gt;Node4 -->
<g id="edge3" class="edge">
<title>Node1&#45;&gt;Node4</title>
<path fill="none" stroke="midnightblue" d="M70.41,-201.69C86.57,-212.33 109.41,-226.26 131,-235.5 138.58,-238.74 146.84,-241.62 154.96,-244.1"/>
<polygon fill="midnightblue" stroke="midnightblue" points="154.17,-247.51 164.75,-246.93 156.12,-240.79 154.17,-247.51"/>
</g>
<!-- Node5 -->
<g id="node5" class="node">
<title>Node5</title>
<g id="a_node5"><a xlink:href="namespacecpinti_1_1interception.html#a91bc0bcc1e6af66b82ec707691ec6679" target="_top" xlink:title=" ">
<polygon fill="white" stroke="black" points="156,-196.5 156,-226.5 251,-226.5 251,-196.5 156,-196.5"/>
<text text-anchor="start" x="164" y="-214.5" font-family="Helvetica,sans-Serif" font-size="10.00">cpinti::interception</text>
<text text-anchor="middle" x="203.5" y="-203.5" font-family="Helvetica,sans-Serif" font-size="10.00">::Error_Finalise</text>
</a>
</g>
</g>
<!-- Node1&#45;&gt;Node5 -->
<g id="edge4" class="edge">
<title>Node1&#45;&gt;Node5</title>
<path fill="none" stroke="midnightblue" d="M95.12,-194.07C111.03,-196.65 129,-199.57 145.62,-202.27"/>
<polygon fill="midnightblue" stroke="midnightblue" points="145.34,-205.77 155.77,-203.91 146.46,-198.86 145.34,-205.77"/>
</g>
<!-- Node8 -->
<g id="node8" class="node">
<title>Node8</title>
<g id="a_node8"><a xlink:href="namespacecpinti_1_1interception.html#ad1c99d051b6cfcaa8d4020c010d6e802" target="_top" xlink:title=" ">
<polygon fill="white" stroke="black" points="156,-147.5 156,-177.5 251,-177.5 251,-147.5 156,-147.5"/>
<text text-anchor="start" x="164" y="-165.5" font-family="Helvetica,sans-Serif" font-size="10.00">cpinti::interception</text>
<text text-anchor="middle" x="203.5" y="-154.5" font-family="Helvetica,sans-Serif" font-size="10.00">::Error_Logo</text>
</a>
</g>
</g>
<!-- Node1&#45;&gt;Node8 -->
<g id="edge7" class="edge">
<title>Node1&#45;&gt;Node8</title>
<path fill="none" stroke="midnightblue" d="M95.12,-179.23C111.03,-176.75 129,-173.95 145.62,-171.36"/>
<polygon fill="midnightblue" stroke="midnightblue" points="146.43,-174.78 155.77,-169.78 145.35,-167.86 146.43,-174.78"/>
</g>
<!-- Node9 -->
<g id="node9" class="node">
<title>Node9</title>
<g id="a_node9"><a xlink:href="namespacecpinti_1_1gestionnaire__tache.html#a7fe56d36b9f1a2cc2a0478fdeeced908" target="_top" xlink:title=" ">
<polygon fill="white" stroke="black" points="134,-98.5 134,-128.5 273,-128.5 273,-98.5 134,-98.5"/>
<text text-anchor="start" x="142" y="-116.5" font-family="Helvetica,sans-Serif" font-size="10.00">cpinti::gestionnaire</text>
<text text-anchor="middle" x="203.5" y="-105.5" font-family="Helvetica,sans-Serif" font-size="10.00">_tache::get_NombreThreads</text>
</a>
</g>
</g>
<!-- Node1&#45;&gt;Node9 -->
<g id="edge8" class="edge">
<title>Node1&#45;&gt;Node9</title>
<path fill="none" stroke="midnightblue" d="M70.91,-171.42C87.11,-160.96 109.8,-147.22 131,-137.5 135.06,-135.64 139.31,-133.85 143.62,-132.14"/>
<polygon fill="midnightblue" stroke="midnightblue" points="145.01,-135.36 153.12,-128.54 142.53,-128.81 145.01,-135.36"/>
</g>
<!-- Node10 -->
<g id="node10" class="node">
<title>Node10</title>
<g id="a_node10"><a xlink:href="namespacecpinti_1_1gestionnaire__tache.html#ab076831eb798dd962d6cdf867b7ff8b4" target="_top" xlink:title=" ">
<polygon fill="white" stroke="black" points="135.5,-49.5 135.5,-79.5 271.5,-79.5 271.5,-49.5 135.5,-49.5"/>
<text text-anchor="start" x="143.5" y="-67.5" font-family="Helvetica,sans-Serif" font-size="10.00">cpinti::gestionnaire</text>
<text text-anchor="middle" x="203.5" y="-56.5" font-family="Helvetica,sans-Serif" font-size="10.00">_tache::get_ThreadEnCours</text>
</a>
</g>
</g>
<!-- Node1&#45;&gt;Node10 -->
<g id="edge9" class="edge">
<title>Node1&#45;&gt;Node10</title>
<path fill="none" stroke="midnightblue" d="M57.47,-171.31C70.87,-149.88 98.09,-110.89 131,-88.5 133.26,-86.96 135.62,-85.52 138.06,-84.16"/>
<polygon fill="midnightblue" stroke="midnightblue" points="139.77,-87.22 147.15,-79.61 136.64,-80.96 139.77,-87.22"/>
</g>
<!-- Node11 -->
<g id="node11" class="node">
<title>Node11</title>
<g id="a_node11"><a xlink:href="namespacecpinti_1_1gestionnaire__tache.html#a2cb7408de395cda0909727daabbf14d9" target="_top" xlink:title=" ">
<polygon fill="white" stroke="black" points="132,-0.5 132,-30.5 275,-30.5 275,-0.5 132,-0.5"/>
<text text-anchor="start" x="140" y="-18.5" font-family="Helvetica,sans-Serif" font-size="10.00">cpinti::gestionnaire</text>
<text text-anchor="middle" x="203.5" y="-7.5" font-family="Helvetica,sans-Serif" font-size="10.00">_tache::state_SectionCritique</text>
</a>
</g>
</g>
<!-- Node1&#45;&gt;Node11 -->
<g id="edge10" class="edge">
<title>Node1&#45;&gt;Node11</title>
<path fill="none" stroke="midnightblue" d="M52.98,-171.18C62.44,-141.46 87.27,-75.71 131,-39.5 132.55,-38.22 134.17,-37 135.85,-35.85"/>
<polygon fill="midnightblue" stroke="midnightblue" points="137.86,-38.73 144.66,-30.61 134.28,-32.71 137.86,-38.73"/>
</g>
<!-- Node6 -->
<g id="node6" class="node">
<title>Node6</title>
<g id="a_node6"><a xlink:href="core_8h.html#acb62eccde8459fd70e1f617bdc00c49e" target="_top" xlink:title=" ">
<polygon fill="white" stroke="black" points="324.5,-224 324.5,-243 436.5,-243 436.5,-224 324.5,-224"/>
<text text-anchor="middle" x="380.5" y="-231" font-family="Helvetica,sans-Serif" font-size="10.00">cpc_CX_APM_MODE</text>
</a>
</g>
</g>
<!-- Node5&#45;&gt;Node6 -->
<g id="edge5" class="edge">
<title>Node5&#45;&gt;Node6</title>
<path fill="none" stroke="midnightblue" d="M251.4,-217.4C270.71,-219.82 293.42,-222.68 314.31,-225.3"/>
<polygon fill="midnightblue" stroke="midnightblue" points="314.04,-228.8 324.4,-226.57 314.91,-221.85 314.04,-228.8"/>
</g>
<!-- Node7 -->
<g id="node7" class="node">
<title>Node7</title>
<g id="a_node7"><a xlink:href="namespacecpinti_1_1gestionnaire__tache.html#a1dffbe4de63a3f294858ef36948b3115" target="_top" xlink:title=" ">
<polygon fill="white" stroke="black" points="312,-174.5 312,-204.5 449,-204.5 449,-174.5 312,-174.5"/>
<text text-anchor="start" x="320" y="-192.5" font-family="Helvetica,sans-Serif" font-size="10.00">cpinti::gestionnaire</text>
<text text-anchor="middle" x="380.5" y="-181.5" font-family="Helvetica,sans-Serif" font-size="10.00">_tache::end_SectionCritique</text>
</a>
</g>
</g>
<!-- Node5&#45;&gt;Node7 -->
<g id="edge6" class="edge">
<title>Node5&#45;&gt;Node7</title>
<path fill="none" stroke="midnightblue" d="M251.4,-205.6C266.88,-203.66 284.55,-201.44 301.72,-199.28"/>
<polygon fill="midnightblue" stroke="midnightblue" points="302.26,-202.74 311.74,-198.02 301.39,-195.79 302.26,-202.74"/>
</g>
</g>
</svg>
