<?xml version="1.0" encoding="UTF-8" standalone="no"?>
<!DOCTYPE svg PUBLIC "-//W3C//DTD SVG 1.1//EN"
 "http://www.w3.org/Graphics/SVG/1.1/DTD/svg11.dtd">
<!-- Generated by graphviz version 2.44.0 ()
 -->
<!-- Title: cpinti::gestionnaire_tache::switch_context Pages: 1 -->
<svg width="675pt" height="204pt"
 viewBox="0.00 0.00 675.00 203.92" xmlns="http://www.w3.org/2000/svg" xmlns:xlink="http://www.w3.org/1999/xlink">
<g id="graph0" class="graph" transform="scale(1 1) rotate(0) translate(4 199.92)">
<title>cpinti::gestionnaire_tache::switch_context</title>
<polygon fill="white" stroke="transparent" points="-4,4 -4,-199.92 671,-199.92 671,4 -4,4"/>
<!-- Node1 -->
<g id="node1" class="node">
<title>Node1</title>
<g id="a_node1"><a xlink:title=" ">
<polygon fill="#bfbfbf" stroke="black" points="0,-88.5 0,-118.5 116,-118.5 116,-88.5 0,-88.5"/>
<text text-anchor="start" x="8" y="-106.5" font-family="Helvetica,sans-Serif" font-size="10.00">cpinti::gestionnaire</text>
<text text-anchor="middle" x="58" y="-95.5" font-family="Helvetica,sans-Serif" font-size="10.00">_tache::switch_context</text>
</a>
</g>
</g>
<!-- Node2 -->
<g id="node2" class="node">
<title>Node2</title>
<g id="a_node2"><a xlink:href="namespacecpinti_1_1gestionnaire__tache.html#ad538e6617b7db29fc971ae1980a2e8be" target="_top" xlink:title=" ">
<polygon fill="white" stroke="black" points="370,-159.5 370,-189.5 515,-189.5 515,-159.5 370,-159.5"/>
<text text-anchor="start" x="378" y="-177.5" font-family="Helvetica,sans-Serif" font-size="10.00">cpinti::gestionnaire</text>
<text text-anchor="middle" x="442.5" y="-166.5" font-family="Helvetica,sans-Serif" font-size="10.00">_tache::begin_SectionCritique</text>
</a>
</g>
</g>
<!-- Node1&#45;&gt;Node2 -->
<g id="edge1" class="edge">
<title>Node1&#45;&gt;Node2</title>
<path fill="none" stroke="midnightblue" d="M71.93,-118.71C88.39,-136.76 118.69,-165.86 152,-177.5 219.06,-200.92 300.31,-197.57 359.64,-189.87"/>
<polygon fill="midnightblue" stroke="midnightblue" points="360.28,-193.31 369.71,-188.49 359.33,-186.38 360.28,-193.31"/>
</g>
<!-- Node3 -->
<g id="node3" class="node">
<title>Node3</title>
<g id="a_node3"><a xlink:href="namespacecpinti_1_1gestionnaire__tache.html#a1dffbe4de63a3f294858ef36948b3115" target="_top" xlink:title=" ">
<polygon fill="white" stroke="black" points="374,-91.5 374,-121.5 511,-121.5 511,-91.5 374,-91.5"/>
<text text-anchor="start" x="382" y="-109.5" font-family="Helvetica,sans-Serif" font-size="10.00">cpinti::gestionnaire</text>
<text text-anchor="middle" x="442.5" y="-98.5" font-family="Helvetica,sans-Serif" font-size="10.00">_tache::end_SectionCritique</text>
</a>
</g>
</g>
<!-- Node1&#45;&gt;Node3 -->
<g id="edge2" class="edge">
<title>Node1&#45;&gt;Node3</title>
<path fill="none" stroke="midnightblue" d="M107.78,-88.45C121.9,-84.76 137.44,-81.35 152,-79.5 232.24,-69.31 253.72,-69.57 334,-79.5 349.9,-81.47 366.83,-85.01 382.44,-88.9"/>
<polygon fill="midnightblue" stroke="midnightblue" points="381.92,-92.38 392.48,-91.49 383.67,-85.6 381.92,-92.38"/>
</g>
<!-- Node4 -->
<g id="node4" class="node">
<title>Node4</title>
<g id="a_node4"><a xlink:href="namespacecpinti_1_1gestionnaire__tache.html#a274df7153b0dc3bc1d58c243f3582442" target="_top" xlink:title=" ">
<polygon fill="white" stroke="black" points="159.5,-88.5 159.5,-118.5 326.5,-118.5 326.5,-88.5 159.5,-88.5"/>
<text text-anchor="start" x="167.5" y="-106.5" font-family="Helvetica,sans-Serif" font-size="10.00">cpinti::gestionnaire</text>
<text text-anchor="middle" x="243" y="-95.5" font-family="Helvetica,sans-Serif" font-size="10.00">_tache::RESTAURER_CONTEXTE</text>
</a>
</g>
</g>
<!-- Node1&#45;&gt;Node4 -->
<g id="edge3" class="edge">
<title>Node1&#45;&gt;Node4</title>
<path fill="none" stroke="midnightblue" d="M116.15,-103.5C126.67,-103.5 137.89,-103.5 149.15,-103.5"/>
<polygon fill="midnightblue" stroke="midnightblue" points="149.47,-107 159.47,-103.5 149.47,-100 149.47,-107"/>
</g>
<!-- Node5 -->
<g id="node5" class="node">
<title>Node5</title>
<g id="a_node5"><a xlink:href="namespacecpinti_1_1gestionnaire__tache.html#a9e12afb26403f340d75fd3c881b68da2" target="_top" xlink:title=" ">
<polygon fill="white" stroke="black" points="152,-137.5 152,-167.5 334,-167.5 334,-137.5 152,-137.5"/>
<text text-anchor="start" x="160" y="-155.5" font-family="Helvetica,sans-Serif" font-size="10.00">cpinti::gestionnaire</text>
<text text-anchor="middle" x="243" y="-144.5" font-family="Helvetica,sans-Serif" font-size="10.00">_tache::SAUVEGARDER_CONTEXTE</text>
</a>
</g>
</g>
<!-- Node1&#45;&gt;Node5 -->
<g id="edge4" class="edge">
<title>Node1&#45;&gt;Node5</title>
<path fill="none" stroke="midnightblue" d="M115.06,-118.59C127.24,-121.86 140.05,-125.3 152,-128.5 159.66,-130.55 167.69,-132.7 175.67,-134.83"/>
<polygon fill="midnightblue" stroke="midnightblue" points="174.78,-138.21 185.34,-137.41 176.58,-131.45 174.78,-138.21"/>
</g>
<!-- Node6 -->
<g id="node6" class="node">
<title>Node6</title>
<g id="a_node6"><a xlink:href="namespacecpinti_1_1gestionnaire__tache.html#a828c970178672d3dbc14cdc8d5426968" target="_top" xlink:title=" ">
<polygon fill="white" stroke="black" points="188,-0.5 188,-30.5 298,-30.5 298,-0.5 188,-0.5"/>
<text text-anchor="start" x="196" y="-18.5" font-family="Helvetica,sans-Serif" font-size="10.00">cpinti::gestionnaire</text>
<text text-anchor="middle" x="243" y="-7.5" font-family="Helvetica,sans-Serif" font-size="10.00">_tache::SCHEDULER</text>
</a>
</g>
</g>
<!-- Node1&#45;&gt;Node6 -->
<g id="edge7" class="edge">
<title>Node1&#45;&gt;Node6</title>
<path fill="none" stroke="midnightblue" d="M79.98,-88.4C98.32,-75.71 126,-57.73 152,-45.5 160.94,-41.29 170.64,-37.41 180.24,-33.93"/>
<polygon fill="midnightblue" stroke="midnightblue" points="181.5,-37.2 189.78,-30.59 179.19,-30.59 181.5,-37.2"/>
</g>
<!-- Node5&#45;&gt;Node2 -->
<g id="edge5" class="edge">
<title>Node5&#45;&gt;Node2</title>
<path fill="none" stroke="midnightblue" d="M334.08,-162.53C342.62,-163.49 351.24,-164.45 359.69,-165.39"/>
<polygon fill="midnightblue" stroke="midnightblue" points="359.57,-168.9 369.89,-166.52 360.34,-161.94 359.57,-168.9"/>
</g>
<!-- Node5&#45;&gt;Node3 -->
<g id="edge6" class="edge">
<title>Node5&#45;&gt;Node3</title>
<path fill="none" stroke="midnightblue" d="M308.67,-137.44C327.35,-133.09 347.89,-128.3 367.11,-123.83"/>
<polygon fill="midnightblue" stroke="midnightblue" points="368.08,-127.19 377.02,-121.52 366.49,-120.38 368.08,-127.19"/>
</g>
<!-- Node7 -->
<g id="node7" class="node">
<title>Node7</title>
<g id="a_node7"><a xlink:href="namespacecpinti__dbg.html#a119c14f1b5f4849696decac82a512762" target="_top" xlink:title=" ">
<polygon fill="white" stroke="black" points="393.5,-0.5 393.5,-30.5 491.5,-30.5 491.5,-0.5 393.5,-0.5"/>
<text text-anchor="start" x="401.5" y="-18.5" font-family="Helvetica,sans-Serif" font-size="10.00">cpinti_dbg::CPINTI</text>
<text text-anchor="middle" x="442.5" y="-7.5" font-family="Helvetica,sans-Serif" font-size="10.00">_DEBUG</text>
</a>
</g>
</g>
<!-- Node6&#45;&gt;Node7 -->
<g id="edge8" class="edge">
<title>Node6&#45;&gt;Node7</title>
<path fill="none" stroke="midnightblue" d="M298.23,-15.5C324.66,-15.5 356.47,-15.5 383.39,-15.5"/>
<polygon fill="midnightblue" stroke="midnightblue" points="383.45,-19 393.45,-15.5 383.45,-12 383.45,-19"/>
</g>
<!-- Node8 -->
<g id="node8" class="node">
<title>Node8</title>
<g id="a_node8"><a xlink:href="_c_p_c___w_p_r_8h.html#a971c45e904568a2415966a3f7b705e30" target="_top" xlink:title=" ">
<polygon fill="white" stroke="black" points="551,-0.5 551,-30.5 667,-30.5 667,-0.5 551,-0.5"/>
<text text-anchor="start" x="559" y="-18.5" font-family="Helvetica,sans-Serif" font-size="10.00">cpc_cpinti_debug_plus</text>
<text text-anchor="middle" x="609" y="-7.5" font-family="Helvetica,sans-Serif" font-size="10.00">_cpinticore</text>
</a>
</g>
</g>
<!-- Node7&#45;&gt;Node8 -->
<g id="edge9" class="edge">
<title>Node7&#45;&gt;Node8</title>
<path fill="none" stroke="midnightblue" d="M491.52,-15.5C506.91,-15.5 524.25,-15.5 540.76,-15.5"/>
<polygon fill="midnightblue" stroke="midnightblue" points="540.9,-19 550.9,-15.5 540.9,-12 540.9,-19"/>
</g>
</g>
</svg>
