<?xml version="1.0" encoding="UTF-8" standalone="no"?>
<!DOCTYPE svg PUBLIC "-//W3C//DTD SVG 1.1//EN"
 "http://www.w3.org/Graphics/SVG/1.1/DTD/svg11.dtd">
<!-- Generated by graphviz version 2.44.0 ()
 -->
<!-- Title: cpinti::gestionnaire_fichier::cpinti_Lire_Fichier_complet Pages: 1 -->
<svg width="537pt" height="167pt"
 viewBox="0.00 0.00 537.00 166.75" xmlns="http://www.w3.org/2000/svg" xmlns:xlink="http://www.w3.org/1999/xlink">
<g id="graph0" class="graph" transform="scale(1 1) rotate(0) translate(4 162.75)">
<title>cpinti::gestionnaire_fichier::cpinti_Lire_Fichier_complet</title>
<polygon fill="white" stroke="transparent" points="-4,4 -4,-162.75 533,-162.75 533,4 -4,4"/>
<!-- Node1 -->
<g id="node1" class="node">
<title>Node1</title>
<g id="a_node1"><a xlink:title=" ">
<polygon fill="#bfbfbf" stroke="black" points="0,-43.25 0,-84.25 97,-84.25 97,-43.25 0,-43.25"/>
<text text-anchor="start" x="8" y="-72.25" font-family="Helvetica,sans-Serif" font-size="10.00">cpinti::gestionnaire</text>
<text text-anchor="start" x="8" y="-61.25" font-family="Helvetica,sans-Serif" font-size="10.00">_fichier::cpinti_Lire</text>
<text text-anchor="middle" x="48.5" y="-50.25" font-family="Helvetica,sans-Serif" font-size="10.00">_Fichier_complet</text>
</a>
</g>
</g>
<!-- Node2 -->
<g id="node2" class="node">
<title>Node2</title>
<g id="a_node2"><a xlink:href="namespacecpinti__dbg.html#a119c14f1b5f4849696decac82a512762" target="_top" xlink:title=" ">
<polygon fill="white" stroke="black" points="279,-73.75 279,-103.75 377,-103.75 377,-73.75 279,-73.75"/>
<text text-anchor="start" x="287" y="-91.75" font-family="Helvetica,sans-Serif" font-size="10.00">cpinti_dbg::CPINTI</text>
<text text-anchor="middle" x="328" y="-80.75" font-family="Helvetica,sans-Serif" font-size="10.00">_DEBUG</text>
</a>
</g>
</g>
<!-- Node1&#45;&gt;Node2 -->
<g id="edge1" class="edge">
<title>Node1&#45;&gt;Node2</title>
<path fill="none" stroke="midnightblue" d="M97.2,-68.05C144.76,-72.33 217.85,-78.91 268.79,-83.5"/>
<polygon fill="midnightblue" stroke="midnightblue" points="268.72,-87.01 278.99,-84.42 269.34,-80.04 268.72,-87.01"/>
</g>
<!-- Node4 -->
<g id="node4" class="node">
<title>Node4</title>
<g id="a_node4"><a xlink:href="namespacecpinti_1_1gestionnaire__fichier.html#a0f57ea0f0a609783526dc0680b05e201" target="_top" xlink:title=" ">
<polygon fill="white" stroke="black" points="133,-117.25 133,-158.25 243,-158.25 243,-117.25 133,-117.25"/>
<text text-anchor="start" x="141" y="-146.25" font-family="Helvetica,sans-Serif" font-size="10.00">cpinti::gestionnaire</text>
<text text-anchor="start" x="141" y="-135.25" font-family="Helvetica,sans-Serif" font-size="10.00">_fichier::cpinti_Fichier</text>
<text text-anchor="middle" x="188" y="-124.25" font-family="Helvetica,sans-Serif" font-size="10.00">_Existe</text>
</a>
</g>
</g>
<!-- Node1&#45;&gt;Node4 -->
<g id="edge3" class="edge">
<title>Node1&#45;&gt;Node4</title>
<path fill="none" stroke="midnightblue" d="M87.8,-84.36C103.89,-93.02 122.77,-103.18 139.72,-112.3"/>
<polygon fill="midnightblue" stroke="midnightblue" points="138.44,-115.59 148.9,-117.25 141.76,-109.42 138.44,-115.59"/>
</g>
<!-- Node6 -->
<g id="node6" class="node">
<title>Node6</title>
<g id="a_node6"><a xlink:href="namespacecpinti_1_1gestionnaire__fichier.html#a0639698a01d0468162c52cde6b75db06" target="_top" xlink:title=" ">
<polygon fill="white" stroke="black" points="136.5,-19.25 136.5,-60.25 239.5,-60.25 239.5,-19.25 136.5,-19.25"/>
<text text-anchor="start" x="144.5" y="-48.25" font-family="Helvetica,sans-Serif" font-size="10.00">cpinti::gestionnaire</text>
<text text-anchor="start" x="144.5" y="-37.25" font-family="Helvetica,sans-Serif" font-size="10.00">_fichier::Lire_Fichier</text>
<text text-anchor="middle" x="188" y="-26.25" font-family="Helvetica,sans-Serif" font-size="10.00">_complet</text>
</a>
</g>
</g>
<!-- Node1&#45;&gt;Node6 -->
<g id="edge6" class="edge">
<title>Node1&#45;&gt;Node6</title>
<path fill="none" stroke="midnightblue" d="M97.2,-55.42C106.53,-53.79 116.43,-52.07 126.12,-50.37"/>
<polygon fill="midnightblue" stroke="midnightblue" points="126.85,-53.8 136.1,-48.63 125.65,-46.9 126.85,-53.8"/>
</g>
<!-- Node7 -->
<g id="node7" class="node">
<title>Node7</title>
<g id="a_node7"><a xlink:href="namespacecpinti_1_1_func___cpinti.html#ab7049ea2cc0148a042e823546c2ef76d" target="_top" xlink:title=" ">
<polygon fill="white" stroke="black" points="280,-0.75 280,-30.75 376,-30.75 376,-0.75 280,-0.75"/>
<text text-anchor="start" x="288" y="-18.75" font-family="Helvetica,sans-Serif" font-size="10.00">cpinti::Func_Cpinti</text>
<text text-anchor="middle" x="328" y="-7.75" font-family="Helvetica,sans-Serif" font-size="10.00">::to_string</text>
</a>
</g>
</g>
<!-- Node1&#45;&gt;Node7 -->
<g id="edge9" class="edge">
<title>Node1&#45;&gt;Node7</title>
<path fill="none" stroke="midnightblue" d="M73.2,-43.11C88.97,-30.79 110.81,-16.3 133,-9.75 177.6,3.42 230.48,0.65 269.76,-4.71"/>
<polygon fill="midnightblue" stroke="midnightblue" points="269.3,-8.18 279.7,-6.15 270.3,-1.25 269.3,-8.18"/>
</g>
<!-- Node3 -->
<g id="node3" class="node">
<title>Node3</title>
<g id="a_node3"><a xlink:href="_c_p_c___w_p_r_8h.html#a971c45e904568a2415966a3f7b705e30" target="_top" xlink:title=" ">
<polygon fill="white" stroke="black" points="413,-73.75 413,-103.75 529,-103.75 529,-73.75 413,-73.75"/>
<text text-anchor="start" x="421" y="-91.75" font-family="Helvetica,sans-Serif" font-size="10.00">cpc_cpinti_debug_plus</text>
<text text-anchor="middle" x="471" y="-80.75" font-family="Helvetica,sans-Serif" font-size="10.00">_cpinticore</text>
</a>
</g>
</g>
<!-- Node2&#45;&gt;Node3 -->
<g id="edge2" class="edge">
<title>Node2&#45;&gt;Node3</title>
<path fill="none" stroke="midnightblue" d="M377.13,-88.75C385.39,-88.75 394.1,-88.75 402.75,-88.75"/>
<polygon fill="midnightblue" stroke="midnightblue" points="402.84,-92.25 412.84,-88.75 402.84,-85.25 402.84,-92.25"/>
</g>
<!-- Node4&#45;&gt;Node2 -->
<g id="edge4" class="edge">
<title>Node4&#45;&gt;Node2</title>
<path fill="none" stroke="midnightblue" d="M243.15,-118.52C253.56,-114.82 264.45,-110.96 274.8,-107.28"/>
<polygon fill="midnightblue" stroke="midnightblue" points="276.27,-110.47 284.53,-103.83 273.93,-103.88 276.27,-110.47"/>
</g>
<!-- Node5 -->
<g id="node5" class="node">
<title>Node5</title>
<g id="a_node5"><a xlink:href="namespacecpinti_1_1fs.html#afea1850997e3f0f842b739a8d3aa6506" target="_top" xlink:title="check if path exist and if it&#39;s a file">
<polygon fill="white" stroke="black" points="280.5,-128.25 280.5,-147.25 375.5,-147.25 375.5,-128.25 280.5,-128.25"/>
<text text-anchor="middle" x="328" y="-135.25" font-family="Helvetica,sans-Serif" font-size="10.00">cpinti::fs::file_exist</text>
</a>
</g>
</g>
<!-- Node4&#45;&gt;Node5 -->
<g id="edge5" class="edge">
<title>Node4&#45;&gt;Node5</title>
<path fill="none" stroke="midnightblue" d="M243.15,-137.75C251.94,-137.75 261.07,-137.75 269.93,-137.75"/>
<polygon fill="midnightblue" stroke="midnightblue" points="270.17,-141.25 280.17,-137.75 270.17,-134.25 270.17,-141.25"/>
</g>
<!-- Node6&#45;&gt;Node2 -->
<g id="edge7" class="edge">
<title>Node6&#45;&gt;Node2</title>
<path fill="none" stroke="midnightblue" d="M239.6,-57.72C251.14,-61.81 263.42,-66.17 275.02,-70.29"/>
<polygon fill="midnightblue" stroke="midnightblue" points="273.97,-73.63 284.56,-73.68 276.31,-67.04 273.97,-73.63"/>
</g>
<!-- Node6&#45;&gt;Node7 -->
<g id="edge8" class="edge">
<title>Node6&#45;&gt;Node7</title>
<path fill="none" stroke="midnightblue" d="M239.6,-30.95C249.41,-29.24 259.75,-27.44 269.76,-25.7"/>
<polygon fill="midnightblue" stroke="midnightblue" points="270.36,-29.15 279.61,-23.99 269.16,-22.25 270.36,-29.15"/>
</g>
</g>
</svg>
