<?xml version="1.0" encoding="UTF-8" standalone="no"?>
<!DOCTYPE svg PUBLIC "-//W3C//DTD SVG 1.1//EN"
 "http://www.w3.org/Graphics/SVG/1.1/DTD/svg11.dtd">
<!-- Generated by graphviz version 2.44.0 ()
 -->
<!-- Title: cpinti::gestionnaire_fichier::cpinti_Copier_Fichier Pages: 1 -->
<svg width="593pt" height="176pt"
 viewBox="0.00 0.00 593.00 176.00" xmlns="http://www.w3.org/2000/svg" xmlns:xlink="http://www.w3.org/1999/xlink">
<g id="graph0" class="graph" transform="scale(1 1) rotate(0) translate(4 172)">
<title>cpinti::gestionnaire_fichier::cpinti_Copier_Fichier</title>
<polygon fill="white" stroke="transparent" points="-4,4 -4,-172 589,-172 589,4 -4,4"/>
<!-- Node1 -->
<g id="node1" class="node">
<title>Node1</title>
<g id="a_node1"><a xlink:title=" ">
<polygon fill="#bfbfbf" stroke="black" points="0,-110 0,-151 108,-151 108,-110 0,-110"/>
<text text-anchor="start" x="8" y="-139" font-family="Helvetica,sans-Serif" font-size="10.00">cpinti::gestionnaire</text>
<text text-anchor="start" x="8" y="-128" font-family="Helvetica,sans-Serif" font-size="10.00">_fichier::cpinti_Copier</text>
<text text-anchor="middle" x="54" y="-117" font-family="Helvetica,sans-Serif" font-size="10.00">_Fichier</text>
</a>
</g>
</g>
<!-- Node2 -->
<g id="node2" class="node">
<title>Node2</title>
<g id="a_node2"><a xlink:href="namespacecpinti_1_1gestionnaire__fichier.html#ae04b7d30580d07875a05ce6d49a89191" target="_top" xlink:title=" ">
<polygon fill="white" stroke="black" points="144,-93.5 144,-123.5 258,-123.5 258,-93.5 144,-93.5"/>
<text text-anchor="start" x="152" y="-111.5" font-family="Helvetica,sans-Serif" font-size="10.00">cpinti::gestionnaire</text>
<text text-anchor="middle" x="201" y="-100.5" font-family="Helvetica,sans-Serif" font-size="10.00">_fichier::Copier_Fichier</text>
</a>
</g>
</g>
<!-- Node1&#45;&gt;Node2 -->
<g id="edge1" class="edge">
<title>Node1&#45;&gt;Node2</title>
<path fill="none" stroke="midnightblue" d="M108.17,-122.43C116.53,-121.16 125.27,-119.84 133.89,-118.53"/>
<polygon fill="midnightblue" stroke="midnightblue" points="134.55,-121.97 143.91,-117.01 133.5,-115.05 134.55,-121.97"/>
</g>
<!-- Node4 -->
<g id="node4" class="node">
<title>Node4</title>
<g id="a_node4"><a xlink:href="namespacecpinti__dbg.html#a119c14f1b5f4849696decac82a512762" target="_top" xlink:title=" ">
<polygon fill="white" stroke="black" points="314.5,-137.5 314.5,-167.5 412.5,-167.5 412.5,-137.5 314.5,-137.5"/>
<text text-anchor="start" x="322.5" y="-155.5" font-family="Helvetica,sans-Serif" font-size="10.00">cpinti_dbg::CPINTI</text>
<text text-anchor="middle" x="363.5" y="-144.5" font-family="Helvetica,sans-Serif" font-size="10.00">_DEBUG</text>
</a>
</g>
</g>
<!-- Node1&#45;&gt;Node4 -->
<g id="edge7" class="edge">
<title>Node1&#45;&gt;Node4</title>
<path fill="none" stroke="midnightblue" d="M108.21,-134.31C162.91,-138.22 247.83,-144.3 304.29,-148.34"/>
<polygon fill="midnightblue" stroke="midnightblue" points="304.26,-151.84 314.49,-149.06 304.76,-144.86 304.26,-151.84"/>
</g>
<!-- Node3 -->
<g id="node3" class="node">
<title>Node3</title>
<g id="a_node3"><a xlink:href="copier_8cpp.html#a1faa517d9540c051ecd632797117ab73" target="_top" xlink:title=" ">
<polygon fill="white" stroke="black" points="294,-99 294,-118 433,-118 433,-99 294,-99"/>
<text text-anchor="middle" x="363.5" y="-106" font-family="Helvetica,sans-Serif" font-size="10.00">cpc_CCP_Exec_Commande</text>
</a>
</g>
</g>
<!-- Node2&#45;&gt;Node3 -->
<g id="edge2" class="edge">
<title>Node2&#45;&gt;Node3</title>
<path fill="none" stroke="midnightblue" d="M258.14,-108.5C266.45,-108.5 275.15,-108.5 283.82,-108.5"/>
<polygon fill="midnightblue" stroke="midnightblue" points="283.97,-112 293.97,-108.5 283.97,-105 283.97,-112"/>
</g>
<!-- Node2&#45;&gt;Node4 -->
<g id="edge3" class="edge">
<title>Node2&#45;&gt;Node4</title>
<path fill="none" stroke="midnightblue" d="M256.79,-123.52C272.13,-127.73 288.86,-132.31 304.39,-136.57"/>
<polygon fill="midnightblue" stroke="midnightblue" points="303.83,-140.05 314.4,-139.31 305.68,-133.29 303.83,-140.05"/>
</g>
<!-- Node6 -->
<g id="node6" class="node">
<title>Node6</title>
<g id="a_node6"><a xlink:href="namespacecpinti_1_1gestionnaire__fichier.html#aeb441af55c2ce6bf640075aa4265ac4d" target="_top" xlink:title=" ">
<polygon fill="white" stroke="black" points="308.5,-49.5 308.5,-79.5 418.5,-79.5 418.5,-49.5 308.5,-49.5"/>
<text text-anchor="start" x="316.5" y="-67.5" font-family="Helvetica,sans-Serif" font-size="10.00">cpinti::gestionnaire</text>
<text text-anchor="middle" x="363.5" y="-56.5" font-family="Helvetica,sans-Serif" font-size="10.00">_fichier::Taille_Fichier</text>
</a>
</g>
</g>
<!-- Node2&#45;&gt;Node6 -->
<g id="edge5" class="edge">
<title>Node2&#45;&gt;Node6</title>
<path fill="none" stroke="midnightblue" d="M256.79,-93.48C270.16,-89.81 284.58,-85.86 298.35,-82.09"/>
<polygon fill="midnightblue" stroke="midnightblue" points="299.51,-85.4 308.23,-79.38 297.66,-78.65 299.51,-85.4"/>
</g>
<!-- Node7 -->
<g id="node7" class="node">
<title>Node7</title>
<g id="a_node7"><a xlink:href="namespacecpinti_1_1_func___cpinti.html#ab7049ea2cc0148a042e823546c2ef76d" target="_top" xlink:title=" ">
<polygon fill="white" stroke="black" points="315.5,-0.5 315.5,-30.5 411.5,-30.5 411.5,-0.5 315.5,-0.5"/>
<text text-anchor="start" x="323.5" y="-18.5" font-family="Helvetica,sans-Serif" font-size="10.00">cpinti::Func_Cpinti</text>
<text text-anchor="middle" x="363.5" y="-7.5" font-family="Helvetica,sans-Serif" font-size="10.00">::to_string</text>
</a>
</g>
</g>
<!-- Node2&#45;&gt;Node7 -->
<g id="edge6" class="edge">
<title>Node2&#45;&gt;Node7</title>
<path fill="none" stroke="midnightblue" d="M218.89,-93.3C236.56,-78.02 265.64,-54.63 294,-39.5 297.75,-37.5 301.71,-35.61 305.74,-33.83"/>
<polygon fill="midnightblue" stroke="midnightblue" points="307.35,-36.95 315.25,-29.9 304.68,-30.48 307.35,-36.95"/>
</g>
<!-- Node5 -->
<g id="node5" class="node">
<title>Node5</title>
<g id="a_node5"><a xlink:href="_c_p_c___w_p_r_8h.html#a971c45e904568a2415966a3f7b705e30" target="_top" xlink:title=" ">
<polygon fill="white" stroke="black" points="469,-137.5 469,-167.5 585,-167.5 585,-137.5 469,-137.5"/>
<text text-anchor="start" x="477" y="-155.5" font-family="Helvetica,sans-Serif" font-size="10.00">cpc_cpinti_debug_plus</text>
<text text-anchor="middle" x="527" y="-144.5" font-family="Helvetica,sans-Serif" font-size="10.00">_cpinticore</text>
</a>
</g>
</g>
<!-- Node4&#45;&gt;Node5 -->
<g id="edge4" class="edge">
<title>Node4&#45;&gt;Node5</title>
<path fill="none" stroke="midnightblue" d="M412.52,-152.5C427.01,-152.5 443.19,-152.5 458.7,-152.5"/>
<polygon fill="midnightblue" stroke="midnightblue" points="458.76,-156 468.76,-152.5 458.76,-149 458.76,-156"/>
</g>
</g>
</svg>
