<?xml version="1.0" encoding="UTF-8" standalone="no"?>
<!DOCTYPE svg PUBLIC "-//W3C//DTD SVG 1.1//EN"
 "http://www.w3.org/Graphics/SVG/1.1/DTD/svg11.dtd">
<!-- Generated by graphviz version 2.44.0 ()
 -->
<!-- Title: cpinti::gestionnaire_tache::get_NombreThreads Pages: 1 -->
<svg width="608pt" height="104pt"
 viewBox="0.00 0.00 608.00 104.00" xmlns="http://www.w3.org/2000/svg" xmlns:xlink="http://www.w3.org/1999/xlink">
<g id="graph0" class="graph" transform="scale(1 1) rotate(0) translate(4 100)">
<title>cpinti::gestionnaire_tache::get_NombreThreads</title>
<polygon fill="white" stroke="transparent" points="-4,4 -4,-100 604,-100 604,4 -4,4"/>
<!-- Node1 -->
<g id="node1" class="node">
<title>Node1</title>
<g id="a_node1"><a xlink:title=" ">
<polygon fill="#bfbfbf" stroke="black" points="461,-33 461,-63 600,-63 600,-33 461,-33"/>
<text text-anchor="start" x="469" y="-51" font-family="Helvetica,sans-Serif" font-size="10.00">cpinti::gestionnaire</text>
<text text-anchor="middle" x="530.5" y="-40" font-family="Helvetica,sans-Serif" font-size="10.00">_tache::get_NombreThreads</text>
</a>
</g>
</g>
<!-- Node2 -->
<g id="node2" class="node">
<title>Node2</title>
<g id="a_node2"><a xlink:href="namespacecpinti_1_1gestionnaire__tache.html#af15aa72abaa04767218c7410cc0d72c2" target="_top" xlink:title=" ">
<polygon fill="white" stroke="black" points="295,-54.5 295,-95.5 425,-95.5 425,-54.5 295,-54.5"/>
<text text-anchor="start" x="303" y="-83.5" font-family="Helvetica,sans-Serif" font-size="10.00">cpinti::gestionnaire</text>
<text text-anchor="start" x="303" y="-72.5" font-family="Helvetica,sans-Serif" font-size="10.00">_tache::cpinti_get_nombre</text>
<text text-anchor="middle" x="360" y="-61.5" font-family="Helvetica,sans-Serif" font-size="10.00">_threads</text>
</a>
</g>
</g>
<!-- Node1&#45;&gt;Node2 -->
<g id="edge1" class="edge">
<title>Node1&#45;&gt;Node2</title>
<path fill="none" stroke="midnightblue" d="M450.89,-60.6C442.26,-61.98 433.55,-63.38 425.12,-64.73"/>
<polygon fill="midnightblue" stroke="midnightblue" points="451.64,-64.02 460.96,-58.98 450.54,-57.11 451.64,-64.02"/>
</g>
<!-- Node3 -->
<g id="node3" class="node">
<title>Node3</title>
<g id="a_node3"><a xlink:href="namespacecpinti_1_1interception.html#a1772e262cfb40d4016511caeae45b861" target="_top" xlink:title=" ">
<polygon fill="white" stroke="black" points="312.5,-6 312.5,-36 407.5,-36 407.5,-6 312.5,-6"/>
<text text-anchor="start" x="320.5" y="-24" font-family="Helvetica,sans-Serif" font-size="10.00">cpinti::interception</text>
<text text-anchor="middle" x="360" y="-13" font-family="Helvetica,sans-Serif" font-size="10.00">::Erreur_Fatale</text>
</a>
</g>
</g>
<!-- Node1&#45;&gt;Node3 -->
<g id="edge2" class="edge">
<title>Node1&#45;&gt;Node3</title>
<path fill="none" stroke="midnightblue" d="M450.79,-35.39C436,-33.02 420.98,-30.61 407.57,-28.46"/>
<polygon fill="midnightblue" stroke="midnightblue" points="450.54,-38.89 460.96,-37.02 451.64,-31.98 450.54,-38.89"/>
</g>
<!-- Node4 -->
<g id="node4" class="node">
<title>Node4</title>
<g id="a_node4"><a xlink:href="namespacecpinti_1_1interception.html#a4c805b9e79a66eca888512879f8d9e10" target="_top" xlink:title=" ">
<polygon fill="white" stroke="black" points="148,-6 148,-36 259,-36 259,-6 148,-6"/>
<text text-anchor="start" x="156" y="-24" font-family="Helvetica,sans-Serif" font-size="10.00">cpinti::interception</text>
<text text-anchor="middle" x="203.5" y="-13" font-family="Helvetica,sans-Serif" font-size="10.00">::Erreur_Fatale_Signal</text>
</a>
</g>
</g>
<!-- Node3&#45;&gt;Node4 -->
<g id="edge3" class="edge">
<title>Node3&#45;&gt;Node4</title>
<path fill="none" stroke="midnightblue" d="M302.21,-21C288.19,-21 273.19,-21 259.26,-21"/>
<polygon fill="midnightblue" stroke="midnightblue" points="302.23,-24.5 312.23,-21 302.23,-17.5 302.23,-24.5"/>
</g>
<!-- Node5 -->
<g id="node5" class="node">
<title>Node5</title>
<g id="a_node5"><a xlink:href="namespacecpinti_1_1interception.html#a71269205d7f5572d106bf3d75cfcf104" target="_top" xlink:title=" ">
<polygon fill="white" stroke="black" points="0,-0.5 0,-41.5 112,-41.5 112,-0.5 0,-0.5"/>
<text text-anchor="start" x="8" y="-29.5" font-family="Helvetica,sans-Serif" font-size="10.00">cpinti::interception</text>
<text text-anchor="start" x="8" y="-18.5" font-family="Helvetica,sans-Serif" font-size="10.00">::initialise_interception</text>
<text text-anchor="middle" x="56" y="-7.5" font-family="Helvetica,sans-Serif" font-size="10.00">_exception</text>
</a>
</g>
</g>
<!-- Node4&#45;&gt;Node5 -->
<g id="edge4" class="edge">
<title>Node4&#45;&gt;Node5</title>
<path fill="none" stroke="midnightblue" d="M137.7,-21C129.25,-21 120.66,-21 112.38,-21"/>
<polygon fill="midnightblue" stroke="midnightblue" points="137.91,-24.5 147.91,-21 137.91,-17.5 137.91,-24.5"/>
</g>
</g>
</svg>
