<?xml version="1.0" encoding="UTF-8" standalone="no"?>
<!DOCTYPE svg PUBLIC "-//W3C//DTD SVG 1.1//EN"
 "http://www.w3.org/Graphics/SVG/1.1/DTD/svg11.dtd">
<!-- Generated by graphviz version 2.44.0 ()
 -->
<!-- Title: cpinti::gestionnaire_tache::fermer_core Pages: 1 -->
<svg width="578pt" height="187pt"
 viewBox="0.00 0.00 578.00 186.50" xmlns="http://www.w3.org/2000/svg" xmlns:xlink="http://www.w3.org/1999/xlink">
<g id="graph0" class="graph" transform="scale(1 1) rotate(0) translate(4 182.5)">
<title>cpinti::gestionnaire_tache::fermer_core</title>
<polygon fill="white" stroke="transparent" points="-4,4 -4,-182.5 574,-182.5 574,4 -4,4"/>
<!-- Node1 -->
<g id="node1" class="node">
<title>Node1</title>
<g id="a_node1"><a xlink:title=" ">
<polygon fill="#bfbfbf" stroke="black" points="0,-71.5 0,-101.5 102,-101.5 102,-71.5 0,-71.5"/>
<text text-anchor="start" x="8" y="-89.5" font-family="Helvetica,sans-Serif" font-size="10.00">cpinti::gestionnaire</text>
<text text-anchor="middle" x="51" y="-78.5" font-family="Helvetica,sans-Serif" font-size="10.00">_tache::fermer_core</text>
</a>
</g>
</g>
<!-- Node2 -->
<g id="node2" class="node">
<title>Node2</title>
<g id="a_node2"><a xlink:href="namespacecpinti_1_1gestionnaire__tache.html#a051f776aa5fe3396914b5aa5e3ee4d4e" target="_top" xlink:title=" ">
<polygon fill="white" stroke="black" points="146,-137 146,-178 258,-178 258,-137 146,-137"/>
<text text-anchor="start" x="154" y="-166" font-family="Helvetica,sans-Serif" font-size="10.00">cpinti::gestionnaire</text>
<text text-anchor="start" x="154" y="-155" font-family="Helvetica,sans-Serif" font-size="10.00">_tache::check_Thread</text>
<text text-anchor="middle" x="202" y="-144" font-family="Helvetica,sans-Serif" font-size="10.00">_zombie</text>
</a>
</g>
</g>
<!-- Node1&#45;&gt;Node2 -->
<g id="edge1" class="edge">
<title>Node1&#45;&gt;Node2</title>
<path fill="none" stroke="midnightblue" d="M83.6,-101.56C102.51,-110.57 127.02,-122.25 148.74,-132.6"/>
<polygon fill="midnightblue" stroke="midnightblue" points="147.33,-135.8 157.86,-136.94 150.34,-129.48 147.33,-135.8"/>
</g>
<!-- Node3 -->
<g id="node3" class="node">
<title>Node3</title>
<g id="a_node3"><a xlink:href="namespacecpinti__dbg.html#a119c14f1b5f4849696decac82a512762" target="_top" xlink:title=" ">
<polygon fill="white" stroke="black" points="311,-98.5 311,-128.5 409,-128.5 409,-98.5 311,-98.5"/>
<text text-anchor="start" x="319" y="-116.5" font-family="Helvetica,sans-Serif" font-size="10.00">cpinti_dbg::CPINTI</text>
<text text-anchor="middle" x="360" y="-105.5" font-family="Helvetica,sans-Serif" font-size="10.00">_DEBUG</text>
</a>
</g>
</g>
<!-- Node1&#45;&gt;Node3 -->
<g id="edge2" class="edge">
<title>Node1&#45;&gt;Node3</title>
<path fill="none" stroke="midnightblue" d="M102.01,-90.9C156.42,-95.68 243.32,-103.33 300.77,-108.38"/>
<polygon fill="midnightblue" stroke="midnightblue" points="300.52,-111.87 310.79,-109.26 301.13,-104.9 300.52,-111.87"/>
</g>
<!-- Node5 -->
<g id="node5" class="node">
<title>Node5</title>
<g id="a_node5"><a xlink:href="namespacecpinti_1_1gestionnaire__tache.html#ace8684d7861881e3535f5eaa6008b94f" target="_top" xlink:title=" ">
<polygon fill="white" stroke="black" points="138,-49.5 138,-79.5 266,-79.5 266,-49.5 138,-49.5"/>
<text text-anchor="start" x="146" y="-67.5" font-family="Helvetica,sans-Serif" font-size="10.00">cpinti::gestionnaire</text>
<text text-anchor="middle" x="202" y="-56.5" font-family="Helvetica,sans-Serif" font-size="10.00">_tache::supprimer_Thread</text>
</a>
</g>
</g>
<!-- Node1&#45;&gt;Node5 -->
<g id="edge4" class="edge">
<title>Node1&#45;&gt;Node5</title>
<path fill="none" stroke="midnightblue" d="M102.03,-79.11C110.29,-77.89 119.01,-76.61 127.7,-75.32"/>
<polygon fill="midnightblue" stroke="midnightblue" points="128.49,-78.74 137.87,-73.82 127.47,-71.82 128.49,-78.74"/>
</g>
<!-- Node7 -->
<g id="node7" class="node">
<title>Node7</title>
<g id="a_node7"><a xlink:href="namespacecpinti_1_1_func___cpinti.html#ab7049ea2cc0148a042e823546c2ef76d" target="_top" xlink:title=" ">
<polygon fill="white" stroke="black" points="312,-0.5 312,-30.5 408,-30.5 408,-0.5 312,-0.5"/>
<text text-anchor="start" x="320" y="-18.5" font-family="Helvetica,sans-Serif" font-size="10.00">cpinti::Func_Cpinti</text>
<text text-anchor="middle" x="360" y="-7.5" font-family="Helvetica,sans-Serif" font-size="10.00">::to_string</text>
</a>
</g>
</g>
<!-- Node1&#45;&gt;Node7 -->
<g id="edge8" class="edge">
<title>Node1&#45;&gt;Node7</title>
<path fill="none" stroke="midnightblue" d="M73.91,-71.37C90.67,-60.6 114.79,-46.79 138,-39.5 191.8,-22.61 256.19,-17.18 301.54,-15.63"/>
<polygon fill="midnightblue" stroke="midnightblue" points="301.89,-19.13 311.78,-15.34 301.68,-12.13 301.89,-19.13"/>
</g>
<!-- Node4 -->
<g id="node4" class="node">
<title>Node4</title>
<g id="a_node4"><a xlink:href="_c_p_c___w_p_r_8h.html#a971c45e904568a2415966a3f7b705e30" target="_top" xlink:title=" ">
<polygon fill="white" stroke="black" points="454,-98.5 454,-128.5 570,-128.5 570,-98.5 454,-98.5"/>
<text text-anchor="start" x="462" y="-116.5" font-family="Helvetica,sans-Serif" font-size="10.00">cpc_cpinti_debug_plus</text>
<text text-anchor="middle" x="512" y="-105.5" font-family="Helvetica,sans-Serif" font-size="10.00">_cpinticore</text>
</a>
</g>
</g>
<!-- Node3&#45;&gt;Node4 -->
<g id="edge3" class="edge">
<title>Node3&#45;&gt;Node4</title>
<path fill="none" stroke="midnightblue" d="M409.29,-113.5C420.28,-113.5 432.16,-113.5 443.78,-113.5"/>
<polygon fill="midnightblue" stroke="midnightblue" points="443.91,-117 453.91,-113.5 443.91,-110 443.91,-117"/>
</g>
<!-- Node5&#45;&gt;Node3 -->
<g id="edge5" class="edge">
<title>Node5&#45;&gt;Node3</title>
<path fill="none" stroke="midnightblue" d="M251.08,-79.6C267.02,-84.61 284.92,-90.23 301.5,-95.44"/>
<polygon fill="midnightblue" stroke="midnightblue" points="300.49,-98.79 311.08,-98.45 302.59,-92.11 300.49,-98.79"/>
</g>
<!-- Node6 -->
<g id="node6" class="node">
<title>Node6</title>
<g id="a_node6"><a xlink:href="namespacecpinti_1_1gestionnaire__tache.html#a7216b6d2070ba00acea0233ccecd26ee" target="_top" xlink:title=" ">
<polygon fill="white" stroke="black" points="302,-49.5 302,-79.5 418,-79.5 418,-49.5 302,-49.5"/>
<text text-anchor="start" x="310" y="-67.5" font-family="Helvetica,sans-Serif" font-size="10.00">cpinti::gestionnaire</text>
<text text-anchor="middle" x="360" y="-56.5" font-family="Helvetica,sans-Serif" font-size="10.00">_tache::set_EtatThread</text>
</a>
</g>
</g>
<!-- Node5&#45;&gt;Node6 -->
<g id="edge6" class="edge">
<title>Node5&#45;&gt;Node6</title>
<path fill="none" stroke="midnightblue" d="M266,-64.5C274.42,-64.5 283.08,-64.5 291.57,-64.5"/>
<polygon fill="midnightblue" stroke="midnightblue" points="291.81,-68 301.81,-64.5 291.81,-61 291.81,-68"/>
</g>
<!-- Node5&#45;&gt;Node7 -->
<g id="edge7" class="edge">
<title>Node5&#45;&gt;Node7</title>
<path fill="none" stroke="midnightblue" d="M251.08,-49.4C267.24,-44.32 285.43,-38.61 302.2,-33.34"/>
<polygon fill="midnightblue" stroke="midnightblue" points="303.39,-36.64 311.88,-30.3 301.29,-29.96 303.39,-36.64"/>
</g>
</g>
</svg>
