<?xml version="1.0" encoding="UTF-8" standalone="no"?>
<!DOCTYPE svg PUBLIC "-//W3C//DTD SVG 1.1//EN"
 "http://www.w3.org/Graphics/SVG/1.1/DTD/svg11.dtd">
<!-- Generated by graphviz version 2.44.0 ()
 -->
<!-- Title: cpinti::gestionnaire_tache::supprimer_Thread Pages: 1 -->
<svg width="460pt" height="202pt"
 viewBox="0.00 0.00 460.00 202.00" xmlns="http://www.w3.org/2000/svg" xmlns:xlink="http://www.w3.org/1999/xlink">
<g id="graph0" class="graph" transform="scale(1 1) rotate(0) translate(4 198)">
<title>cpinti::gestionnaire_tache::supprimer_Thread</title>
<polygon fill="white" stroke="transparent" points="-4,4 -4,-198 456,-198 456,4 -4,4"/>
<!-- Node1 -->
<g id="node1" class="node">
<title>Node1</title>
<g id="a_node1"><a xlink:title=" ">
<polygon fill="#bfbfbf" stroke="black" points="324,-79 324,-109 452,-109 452,-79 324,-79"/>
<text text-anchor="start" x="332" y="-97" font-family="Helvetica,sans-Serif" font-size="10.00">cpinti::gestionnaire</text>
<text text-anchor="middle" x="388" y="-86" font-family="Helvetica,sans-Serif" font-size="10.00">_tache::supprimer_Thread</text>
</a>
</g>
</g>
<!-- Node2 -->
<g id="node2" class="node">
<title>Node2</title>
<g id="a_node2"><a xlink:href="namespacecpinti_1_1gestionnaire__tache.html#a575898d4f3044f265c999aca5721a17f" target="_top" xlink:title=" ">
<polygon fill="white" stroke="black" points="162,-152.5 162,-193.5 269,-193.5 269,-152.5 162,-152.5"/>
<text text-anchor="start" x="170" y="-181.5" font-family="Helvetica,sans-Serif" font-size="10.00">cpinti::gestionnaire</text>
<text text-anchor="start" x="170" y="-170.5" font-family="Helvetica,sans-Serif" font-size="10.00">_tache::cpinti_arreter</text>
<text text-anchor="middle" x="215.5" y="-159.5" font-family="Helvetica,sans-Serif" font-size="10.00">_thread</text>
</a>
</g>
</g>
<!-- Node1&#45;&gt;Node2 -->
<g id="edge1" class="edge">
<title>Node1&#45;&gt;Node2</title>
<path fill="none" stroke="midnightblue" d="M349.77,-113.72C331.36,-123.23 308.7,-134.6 288,-144 281.78,-146.83 275.2,-149.68 268.65,-152.43"/>
<polygon fill="midnightblue" stroke="midnightblue" points="351.45,-116.79 358.71,-109.07 348.22,-110.58 351.45,-116.79"/>
</g>
<!-- Node3 -->
<g id="node3" class="node">
<title>Node3</title>
<g id="a_node3"><a xlink:href="namespacecpinti_1_1gestionnaire__tache.html#a0c0510966125e1a76026b112613397e5" target="_top" xlink:title=" ">
<polygon fill="white" stroke="black" points="155,-104 155,-134 276,-134 276,-104 155,-104"/>
<text text-anchor="start" x="163" y="-122" font-family="Helvetica,sans-Serif" font-size="10.00">cpinti::gestionnaire</text>
<text text-anchor="middle" x="215.5" y="-111" font-family="Helvetica,sans-Serif" font-size="10.00">_tache::cpinti_fin_thread</text>
</a>
</g>
</g>
<!-- Node1&#45;&gt;Node3 -->
<g id="edge2" class="edge">
<title>Node1&#45;&gt;Node3</title>
<path fill="none" stroke="midnightblue" d="M313.97,-104.71C301.34,-106.56 288.35,-108.46 276.13,-110.26"/>
<polygon fill="midnightblue" stroke="midnightblue" points="314.61,-108.15 324,-103.24 313.59,-101.23 314.61,-108.15"/>
</g>
<!-- Node4 -->
<g id="node4" class="node">
<title>Node4</title>
<g id="a_node4"><a xlink:href="namespacecpinti_1_1gestionnaire__tache.html#aace982c0d3bc1618caf70ececf929141" target="_top" xlink:title=" ">
<polygon fill="white" stroke="black" points="164.5,-55 164.5,-85 266.5,-85 266.5,-55 164.5,-55"/>
<text text-anchor="start" x="172.5" y="-73" font-family="Helvetica,sans-Serif" font-size="10.00">cpinti::gestionnaire</text>
<text text-anchor="middle" x="215.5" y="-62" font-family="Helvetica,sans-Serif" font-size="10.00">_tache::fermer_core</text>
</a>
</g>
</g>
<!-- Node1&#45;&gt;Node4 -->
<g id="edge3" class="edge">
<title>Node1&#45;&gt;Node4</title>
<path fill="none" stroke="midnightblue" d="M313.69,-83.68C297.85,-81.45 281.45,-79.14 266.74,-77.07"/>
<polygon fill="midnightblue" stroke="midnightblue" points="313.61,-87.2 324,-85.13 314.58,-80.27 313.61,-87.2"/>
</g>
<!-- Node5 -->
<g id="node5" class="node">
<title>Node5</title>
<g id="a_node5"><a xlink:href="namespacecpinti_1_1gestionnaire__tache.html#ac43c3c3801eaf41bc3e0b0d184461f96" target="_top" xlink:title=" ">
<polygon fill="white" stroke="black" points="143,-6 143,-36 288,-36 288,-6 143,-6"/>
<text text-anchor="start" x="151" y="-24" font-family="Helvetica,sans-Serif" font-size="10.00">cpinti::gestionnaire</text>
<text text-anchor="middle" x="215.5" y="-13" font-family="Helvetica,sans-Serif" font-size="10.00">_tache::supprimer_Processus</text>
</a>
</g>
</g>
<!-- Node1&#45;&gt;Node5 -->
<g id="edge4" class="edge">
<title>Node1&#45;&gt;Node5</title>
<path fill="none" stroke="midnightblue" d="M348.83,-74.22C330.63,-65.12 308.43,-54.49 288,-46 279.74,-42.57 270.83,-39.2 262.19,-36.09"/>
<polygon fill="midnightblue" stroke="midnightblue" points="347.44,-77.44 357.95,-78.82 350.59,-71.19 347.44,-77.44"/>
</g>
<!-- Node6 -->
<g id="node6" class="node">
<title>Node6</title>
<g id="a_node6"><a xlink:href="namespacecpinti_1_1gestionnaire__tache.html#ac39e89c68667f074a252569a20c74975" target="_top" xlink:title=" ">
<polygon fill="white" stroke="black" points="0,-0.5 0,-41.5 107,-41.5 107,-0.5 0,-0.5"/>
<text text-anchor="start" x="8" y="-29.5" font-family="Helvetica,sans-Serif" font-size="10.00">cpinti::gestionnaire</text>
<text text-anchor="start" x="8" y="-18.5" font-family="Helvetica,sans-Serif" font-size="10.00">_tache::cpinti_arreter</text>
<text text-anchor="middle" x="53.5" y="-7.5" font-family="Helvetica,sans-Serif" font-size="10.00">_processus</text>
</a>
</g>
</g>
<!-- Node5&#45;&gt;Node6 -->
<g id="edge5" class="edge">
<title>Node5&#45;&gt;Node6</title>
<path fill="none" stroke="midnightblue" d="M132.78,-21C124.13,-21 115.5,-21 107.31,-21"/>
<polygon fill="midnightblue" stroke="midnightblue" points="132.92,-24.5 142.92,-21 132.92,-17.5 132.92,-24.5"/>
</g>
</g>
</svg>
