<?xml version="1.0" encoding="UTF-8" standalone="no"?>
<!DOCTYPE svg PUBLIC "-//W3C//DTD SVG 1.1//EN"
 "http://www.w3.org/Graphics/SVG/1.1/DTD/svg11.dtd">
<!-- Generated by graphviz version 2.44.0 ()
 -->
<!-- Title: cpinti::gestionnaire_tache::initialiser_Multitache Pages: 1 -->
<svg width="645pt" height="252pt"
 viewBox="0.00 0.00 645.00 251.50" xmlns="http://www.w3.org/2000/svg" xmlns:xlink="http://www.w3.org/1999/xlink">
<g id="graph0" class="graph" transform="scale(1 1) rotate(0) translate(4 247.5)">
<title>cpinti::gestionnaire_tache::initialiser_Multitache</title>
<polygon fill="white" stroke="transparent" points="-4,4 -4,-247.5 641,-247.5 641,4 -4,4"/>
<!-- Node1 -->
<g id="node1" class="node">
<title>Node1</title>
<g id="a_node1"><a xlink:title=" ">
<polygon fill="#bfbfbf" stroke="black" points="0,-93 0,-123 139,-123 139,-93 0,-93"/>
<text text-anchor="start" x="8" y="-111" font-family="Helvetica,sans-Serif" font-size="10.00">cpinti::gestionnaire</text>
<text text-anchor="middle" x="69.5" y="-100" font-family="Helvetica,sans-Serif" font-size="10.00">_tache::initialiser_Multitache</text>
</a>
</g>
</g>
<!-- Node2 -->
<g id="node2" class="node">
<title>Node2</title>
<g id="a_node2"><a xlink:href="namespacecpinti_1_1gestionnaire__tache.html#ad538e6617b7db29fc971ae1980a2e8be" target="_top" xlink:title=" ">
<polygon fill="white" stroke="black" points="340,-213 340,-243 485,-243 485,-213 340,-213"/>
<text text-anchor="start" x="348" y="-231" font-family="Helvetica,sans-Serif" font-size="10.00">cpinti::gestionnaire</text>
<text text-anchor="middle" x="412.5" y="-220" font-family="Helvetica,sans-Serif" font-size="10.00">_tache::begin_SectionCritique</text>
</a>
</g>
</g>
<!-- Node1&#45;&gt;Node2 -->
<g id="edge1" class="edge">
<title>Node1&#45;&gt;Node2</title>
<path fill="none" stroke="midnightblue" d="M88.09,-123.19C107.9,-139.47 141.67,-164.89 175,-179 224.28,-199.87 283.21,-212.11 329.92,-219.14"/>
<polygon fill="midnightblue" stroke="midnightblue" points="329.59,-222.62 339.99,-220.6 330.6,-215.7 329.59,-222.62"/>
</g>
<!-- Node3 -->
<g id="node3" class="node">
<title>Node3</title>
<g id="a_node3"><a xlink:href="namespacecpinti__dbg.html#a119c14f1b5f4849696decac82a512762" target="_top" xlink:title=" ">
<polygon fill="white" stroke="black" points="363.5,-164 363.5,-194 461.5,-194 461.5,-164 363.5,-164"/>
<text text-anchor="start" x="371.5" y="-182" font-family="Helvetica,sans-Serif" font-size="10.00">cpinti_dbg::CPINTI</text>
<text text-anchor="middle" x="412.5" y="-171" font-family="Helvetica,sans-Serif" font-size="10.00">_DEBUG</text>
</a>
</g>
</g>
<!-- Node1&#45;&gt;Node3 -->
<g id="edge2" class="edge">
<title>Node1&#45;&gt;Node3</title>
<path fill="none" stroke="midnightblue" d="M97.55,-123.08C118.14,-133.83 147.52,-147.63 175,-155 234.36,-170.91 304.68,-176.43 353.13,-178.27"/>
<polygon fill="midnightblue" stroke="midnightblue" points="353.01,-181.77 363.12,-178.61 353.25,-174.77 353.01,-181.77"/>
</g>
<!-- Node5 -->
<g id="node5" class="node">
<title>Node5</title>
<g id="a_node5"><a xlink:href="namespacecpinti_1_1gestionnaire__tache.html#a1dffbe4de63a3f294858ef36948b3115" target="_top" xlink:title=" ">
<polygon fill="white" stroke="black" points="344,-66 344,-96 481,-96 481,-66 344,-66"/>
<text text-anchor="start" x="352" y="-84" font-family="Helvetica,sans-Serif" font-size="10.00">cpinti::gestionnaire</text>
<text text-anchor="middle" x="412.5" y="-73" font-family="Helvetica,sans-Serif" font-size="10.00">_tache::end_SectionCritique</text>
</a>
</g>
</g>
<!-- Node1&#45;&gt;Node5 -->
<g id="edge4" class="edge">
<title>Node1&#45;&gt;Node5</title>
<path fill="none" stroke="midnightblue" d="M139.1,-102.57C195.33,-98.12 274.92,-91.81 333.56,-87.17"/>
<polygon fill="midnightblue" stroke="midnightblue" points="334.19,-90.63 343.89,-86.35 333.64,-83.65 334.19,-90.63"/>
</g>
<!-- Node6 -->
<g id="node6" class="node">
<title>Node6</title>
<g id="a_node6"><a xlink:href="namespacecpinti_1_1gestionnaire__tache.html#a640f909bd791a0d1c0f4d87e58fbb5ae" target="_top" xlink:title=" ">
<polygon fill="white" stroke="black" points="175,-115 175,-145 304,-145 304,-115 175,-115"/>
<text text-anchor="start" x="183" y="-133" font-family="Helvetica,sans-Serif" font-size="10.00">cpinti::gestionnaire</text>
<text text-anchor="middle" x="239.5" y="-122" font-family="Helvetica,sans-Serif" font-size="10.00">_tache::Interruption_Timer</text>
</a>
</g>
</g>
<!-- Node1&#45;&gt;Node6 -->
<g id="edge5" class="edge">
<title>Node1&#45;&gt;Node6</title>
<path fill="none" stroke="midnightblue" d="M139.32,-117.01C147.78,-118.12 156.46,-119.26 165,-120.37"/>
<polygon fill="midnightblue" stroke="midnightblue" points="164.55,-123.85 174.92,-121.67 165.46,-116.91 164.55,-123.85"/>
</g>
<!-- Node8 -->
<g id="node8" class="node">
<title>Node8</title>
<g id="a_node8"><a xlink:href="namespacecpinti_1_1_func___cpinti.html#ab7049ea2cc0148a042e823546c2ef76d" target="_top" xlink:title=" ">
<polygon fill="white" stroke="black" points="364.5,-17 364.5,-47 460.5,-47 460.5,-17 364.5,-17"/>
<text text-anchor="start" x="372.5" y="-35" font-family="Helvetica,sans-Serif" font-size="10.00">cpinti::Func_Cpinti</text>
<text text-anchor="middle" x="412.5" y="-24" font-family="Helvetica,sans-Serif" font-size="10.00">::to_string</text>
</a>
</g>
</g>
<!-- Node1&#45;&gt;Node8 -->
<g id="edge12" class="edge">
<title>Node1&#45;&gt;Node8</title>
<path fill="none" stroke="midnightblue" d="M137.87,-92.98C201.08,-78.9 294.58,-58.06 354.27,-44.76"/>
<polygon fill="midnightblue" stroke="midnightblue" points="355.28,-48.12 364.27,-42.53 353.75,-41.28 355.28,-48.12"/>
</g>
<!-- Node9 -->
<g id="node9" class="node">
<title>Node9</title>
<g id="a_node9"><a xlink:href="core_8h.html#a38ff9bb8615d0907ac0134f391a2fb57" target="_top" xlink:title=" ">
<polygon fill="white" stroke="black" points="196.5,-0.5 196.5,-19.5 282.5,-19.5 282.5,-0.5 196.5,-0.5"/>
<text text-anchor="middle" x="239.5" y="-7.5" font-family="Helvetica,sans-Serif" font-size="10.00">Thread_Updater</text>
</a>
</g>
</g>
<!-- Node1&#45;&gt;Node9 -->
<g id="edge11" class="edge">
<title>Node1&#45;&gt;Node9</title>
<path fill="none" stroke="midnightblue" d="M88.82,-92.83C108.98,-76.67 142.81,-51.12 175,-34 182.47,-30.03 190.75,-26.39 198.79,-23.22"/>
<polygon fill="midnightblue" stroke="midnightblue" points="200.29,-26.4 208.41,-19.59 197.82,-19.85 200.29,-26.4"/>
</g>
<!-- Node4 -->
<g id="node4" class="node">
<title>Node4</title>
<g id="a_node4"><a xlink:href="_c_p_c___w_p_r_8h.html#a971c45e904568a2415966a3f7b705e30" target="_top" xlink:title=" ">
<polygon fill="white" stroke="black" points="521,-164 521,-194 637,-194 637,-164 521,-164"/>
<text text-anchor="start" x="529" y="-182" font-family="Helvetica,sans-Serif" font-size="10.00">cpc_cpinti_debug_plus</text>
<text text-anchor="middle" x="579" y="-171" font-family="Helvetica,sans-Serif" font-size="10.00">_cpinticore</text>
</a>
</g>
</g>
<!-- Node3&#45;&gt;Node4 -->
<g id="edge3" class="edge">
<title>Node3&#45;&gt;Node4</title>
<path fill="none" stroke="midnightblue" d="M461.52,-179C476.91,-179 494.25,-179 510.76,-179"/>
<polygon fill="midnightblue" stroke="midnightblue" points="510.9,-182.5 520.9,-179 510.9,-175.5 510.9,-182.5"/>
</g>
<!-- Node6&#45;&gt;Node2 -->
<g id="edge6" class="edge">
<title>Node6&#45;&gt;Node2</title>
<path fill="none" stroke="midnightblue" d="M257.35,-145.17C276.29,-161.56 308.52,-187.54 340,-204 343.33,-205.74 346.81,-207.39 350.37,-208.95"/>
<polygon fill="midnightblue" stroke="midnightblue" points="349.33,-212.31 359.91,-212.87 351.99,-205.83 349.33,-212.31"/>
</g>
<!-- Node6&#45;&gt;Node3 -->
<g id="edge7" class="edge">
<title>Node6&#45;&gt;Node3</title>
<path fill="none" stroke="midnightblue" d="M293.2,-145.1C312.34,-150.59 334.07,-156.81 353.63,-162.42"/>
<polygon fill="midnightblue" stroke="midnightblue" points="352.76,-165.81 363.34,-165.2 354.69,-159.08 352.76,-165.81"/>
</g>
<!-- Node6&#45;&gt;Node5 -->
<g id="edge8" class="edge">
<title>Node6&#45;&gt;Node5</title>
<path fill="none" stroke="midnightblue" d="M293.2,-114.9C310.92,-109.82 330.85,-104.11 349.23,-98.84"/>
<polygon fill="midnightblue" stroke="midnightblue" points="350.32,-102.17 358.97,-96.05 348.4,-95.44 350.32,-102.17"/>
</g>
<!-- Node7 -->
<g id="node7" class="node">
<title>Node7</title>
<g id="a_node7"><a xlink:href="namespacecpinti_1_1gestionnaire__tache.html#a2cb7408de395cda0909727daabbf14d9" target="_top" xlink:title=" ">
<polygon fill="white" stroke="black" points="341,-115 341,-145 484,-145 484,-115 341,-115"/>
<text text-anchor="start" x="349" y="-133" font-family="Helvetica,sans-Serif" font-size="10.00">cpinti::gestionnaire</text>
<text text-anchor="middle" x="412.5" y="-122" font-family="Helvetica,sans-Serif" font-size="10.00">_tache::state_SectionCritique</text>
</a>
</g>
</g>
<!-- Node6&#45;&gt;Node7 -->
<g id="edge9" class="edge">
<title>Node6&#45;&gt;Node7</title>
<path fill="none" stroke="midnightblue" d="M304.17,-130C312.87,-130 321.88,-130 330.83,-130"/>
<polygon fill="midnightblue" stroke="midnightblue" points="330.88,-133.5 340.88,-130 330.88,-126.5 330.88,-133.5"/>
</g>
<!-- Node6&#45;&gt;Node8 -->
<g id="edge10" class="edge">
<title>Node6&#45;&gt;Node8</title>
<path fill="none" stroke="midnightblue" d="M257.35,-114.83C276.29,-98.44 308.52,-72.46 340,-56 344.79,-53.5 349.89,-51.18 355.08,-49.05"/>
<polygon fill="midnightblue" stroke="midnightblue" points="356.4,-52.29 364.46,-45.42 353.87,-45.76 356.4,-52.29"/>
</g>
</g>
</svg>
