<?xml version="1.0" encoding="UTF-8" standalone="no"?>
<!DOCTYPE svg PUBLIC "-//W3C//DTD SVG 1.1//EN"
 "http://www.w3.org/Graphics/SVG/1.1/DTD/svg11.dtd">
<!-- Generated by graphviz version 2.44.0 ()
 -->
<!-- Title: cpinti::gestionnaire_tache::cpinti_arreter_thread Pages: 1 -->
<svg width="583pt" height="137pt"
 viewBox="0.00 0.00 583.00 137.00" xmlns="http://www.w3.org/2000/svg" xmlns:xlink="http://www.w3.org/1999/xlink">
<g id="graph0" class="graph" transform="scale(1 1) rotate(0) translate(4 133)">
<title>cpinti::gestionnaire_tache::cpinti_arreter_thread</title>
<polygon fill="white" stroke="transparent" points="-4,4 -4,-133 579,-133 579,4 -4,4"/>
<!-- Node1 -->
<g id="node1" class="node">
<title>Node1</title>
<g id="a_node1"><a xlink:title=" ">
<polygon fill="#bfbfbf" stroke="black" points="0,-44 0,-85 107,-85 107,-44 0,-44"/>
<text text-anchor="start" x="8" y="-73" font-family="Helvetica,sans-Serif" font-size="10.00">cpinti::gestionnaire</text>
<text text-anchor="start" x="8" y="-62" font-family="Helvetica,sans-Serif" font-size="10.00">_tache::cpinti_arreter</text>
<text text-anchor="middle" x="53.5" y="-51" font-family="Helvetica,sans-Serif" font-size="10.00">_thread</text>
</a>
</g>
</g>
<!-- Node2 -->
<g id="node2" class="node">
<title>Node2</title>
<g id="a_node2"><a xlink:href="namespacecpinti_1_1gestionnaire__tache.html#ace8684d7861881e3535f5eaa6008b94f" target="_top" xlink:title=" ">
<polygon fill="white" stroke="black" points="143,-49.5 143,-79.5 271,-79.5 271,-49.5 143,-49.5"/>
<text text-anchor="start" x="151" y="-67.5" font-family="Helvetica,sans-Serif" font-size="10.00">cpinti::gestionnaire</text>
<text text-anchor="middle" x="207" y="-56.5" font-family="Helvetica,sans-Serif" font-size="10.00">_tache::supprimer_Thread</text>
</a>
</g>
</g>
<!-- Node1&#45;&gt;Node2 -->
<g id="edge1" class="edge">
<title>Node1&#45;&gt;Node2</title>
<path fill="none" stroke="midnightblue" d="M107.06,-64.5C115.35,-64.5 124.06,-64.5 132.72,-64.5"/>
<polygon fill="midnightblue" stroke="midnightblue" points="132.84,-68 142.84,-64.5 132.84,-61 132.84,-68"/>
</g>
<!-- Node3 -->
<g id="node3" class="node">
<title>Node3</title>
<g id="a_node3"><a xlink:href="namespacecpinti__dbg.html#a119c14f1b5f4849696decac82a512762" target="_top" xlink:title=" ">
<polygon fill="white" stroke="black" points="316,-98.5 316,-128.5 414,-128.5 414,-98.5 316,-98.5"/>
<text text-anchor="start" x="324" y="-116.5" font-family="Helvetica,sans-Serif" font-size="10.00">cpinti_dbg::CPINTI</text>
<text text-anchor="middle" x="365" y="-105.5" font-family="Helvetica,sans-Serif" font-size="10.00">_DEBUG</text>
</a>
</g>
</g>
<!-- Node2&#45;&gt;Node3 -->
<g id="edge2" class="edge">
<title>Node2&#45;&gt;Node3</title>
<path fill="none" stroke="midnightblue" d="M256.08,-79.6C272.02,-84.61 289.92,-90.23 306.5,-95.44"/>
<polygon fill="midnightblue" stroke="midnightblue" points="305.49,-98.79 316.08,-98.45 307.59,-92.11 305.49,-98.79"/>
</g>
<!-- Node5 -->
<g id="node5" class="node">
<title>Node5</title>
<g id="a_node5"><a xlink:href="namespacecpinti_1_1gestionnaire__tache.html#a7216b6d2070ba00acea0233ccecd26ee" target="_top" xlink:title=" ">
<polygon fill="white" stroke="black" points="307,-49.5 307,-79.5 423,-79.5 423,-49.5 307,-49.5"/>
<text text-anchor="start" x="315" y="-67.5" font-family="Helvetica,sans-Serif" font-size="10.00">cpinti::gestionnaire</text>
<text text-anchor="middle" x="365" y="-56.5" font-family="Helvetica,sans-Serif" font-size="10.00">_tache::set_EtatThread</text>
</a>
</g>
</g>
<!-- Node2&#45;&gt;Node5 -->
<g id="edge4" class="edge">
<title>Node2&#45;&gt;Node5</title>
<path fill="none" stroke="midnightblue" d="M271,-64.5C279.42,-64.5 288.08,-64.5 296.57,-64.5"/>
<polygon fill="midnightblue" stroke="midnightblue" points="296.81,-68 306.81,-64.5 296.81,-61 296.81,-68"/>
</g>
<!-- Node6 -->
<g id="node6" class="node">
<title>Node6</title>
<g id="a_node6"><a xlink:href="namespacecpinti_1_1_func___cpinti.html#ab7049ea2cc0148a042e823546c2ef76d" target="_top" xlink:title=" ">
<polygon fill="white" stroke="black" points="317,-0.5 317,-30.5 413,-30.5 413,-0.5 317,-0.5"/>
<text text-anchor="start" x="325" y="-18.5" font-family="Helvetica,sans-Serif" font-size="10.00">cpinti::Func_Cpinti</text>
<text text-anchor="middle" x="365" y="-7.5" font-family="Helvetica,sans-Serif" font-size="10.00">::to_string</text>
</a>
</g>
</g>
<!-- Node2&#45;&gt;Node6 -->
<g id="edge5" class="edge">
<title>Node2&#45;&gt;Node6</title>
<path fill="none" stroke="midnightblue" d="M256.08,-49.4C272.24,-44.32 290.43,-38.61 307.2,-33.34"/>
<polygon fill="midnightblue" stroke="midnightblue" points="308.39,-36.64 316.88,-30.3 306.29,-29.96 308.39,-36.64"/>
</g>
<!-- Node4 -->
<g id="node4" class="node">
<title>Node4</title>
<g id="a_node4"><a xlink:href="_c_p_c___w_p_r_8h.html#a971c45e904568a2415966a3f7b705e30" target="_top" xlink:title=" ">
<polygon fill="white" stroke="black" points="459,-98.5 459,-128.5 575,-128.5 575,-98.5 459,-98.5"/>
<text text-anchor="start" x="467" y="-116.5" font-family="Helvetica,sans-Serif" font-size="10.00">cpc_cpinti_debug_plus</text>
<text text-anchor="middle" x="517" y="-105.5" font-family="Helvetica,sans-Serif" font-size="10.00">_cpinticore</text>
</a>
</g>
</g>
<!-- Node3&#45;&gt;Node4 -->
<g id="edge3" class="edge">
<title>Node3&#45;&gt;Node4</title>
<path fill="none" stroke="midnightblue" d="M414.29,-113.5C425.28,-113.5 437.16,-113.5 448.78,-113.5"/>
<polygon fill="midnightblue" stroke="midnightblue" points="448.91,-117 458.91,-113.5 448.91,-110 448.91,-117"/>
</g>
</g>
</svg>
