<?xml version="1.0" encoding="UTF-8" standalone="no"?>
<!DOCTYPE svg PUBLIC "-//W3C//DTD SVG 1.1//EN"
 "http://www.w3.org/Graphics/SVG/1.1/DTD/svg11.dtd">
<!-- Generated by graphviz version 2.44.0 ()
 -->
<!-- Title: cpinti::gestionnaire_tache::cpinti_creer_processus Pages: 1 -->
<svg width="562pt" height="98pt"
 viewBox="0.00 0.00 562.00 98.00" xmlns="http://www.w3.org/2000/svg" xmlns:xlink="http://www.w3.org/1999/xlink">
<g id="graph0" class="graph" transform="scale(1 1) rotate(0) translate(4 94)">
<title>cpinti::gestionnaire_tache::cpinti_creer_processus</title>
<polygon fill="white" stroke="transparent" points="-4,4 -4,-94 558,-94 558,4 -4,4"/>
<!-- Node1 -->
<g id="node1" class="node">
<title>Node1</title>
<g id="a_node1"><a xlink:title=" ">
<polygon fill="#bfbfbf" stroke="black" points="0,-20 0,-61 101,-61 101,-20 0,-20"/>
<text text-anchor="start" x="8" y="-49" font-family="Helvetica,sans-Serif" font-size="10.00">cpinti::gestionnaire</text>
<text text-anchor="start" x="8" y="-38" font-family="Helvetica,sans-Serif" font-size="10.00">_tache::cpinti_creer</text>
<text text-anchor="middle" x="50.5" y="-27" font-family="Helvetica,sans-Serif" font-size="10.00">_processus</text>
</a>
</g>
</g>
<!-- Node2 -->
<g id="node2" class="node">
<title>Node2</title>
<g id="a_node2"><a xlink:href="namespacecpinti_1_1gestionnaire__tache.html#a0ac5449471b1ca1bd90d9febec477342" target="_top" xlink:title=" ">
<polygon fill="white" stroke="black" points="137,-25.5 137,-55.5 268,-55.5 268,-25.5 137,-25.5"/>
<text text-anchor="start" x="145" y="-43.5" font-family="Helvetica,sans-Serif" font-size="10.00">cpinti::gestionnaire</text>
<text text-anchor="middle" x="202.5" y="-32.5" font-family="Helvetica,sans-Serif" font-size="10.00">_tache::ajouter_Processus</text>
</a>
</g>
</g>
<!-- Node1&#45;&gt;Node2 -->
<g id="edge1" class="edge">
<title>Node1&#45;&gt;Node2</title>
<path fill="none" stroke="midnightblue" d="M101.03,-40.5C109.25,-40.5 117.93,-40.5 126.61,-40.5"/>
<polygon fill="midnightblue" stroke="midnightblue" points="126.77,-44 136.77,-40.5 126.77,-37 126.77,-44"/>
</g>
<!-- Node3 -->
<g id="node3" class="node">
<title>Node3</title>
<g id="a_node3"><a xlink:href="namespacecpinti__dbg.html#a119c14f1b5f4849696decac82a512762" target="_top" xlink:title=" ">
<polygon fill="white" stroke="black" points="304,-59.5 304,-89.5 402,-89.5 402,-59.5 304,-59.5"/>
<text text-anchor="start" x="312" y="-77.5" font-family="Helvetica,sans-Serif" font-size="10.00">cpinti_dbg::CPINTI</text>
<text text-anchor="middle" x="353" y="-66.5" font-family="Helvetica,sans-Serif" font-size="10.00">_DEBUG</text>
</a>
</g>
</g>
<!-- Node1&#45;&gt;Node3 -->
<g id="edge5" class="edge">
<title>Node1&#45;&gt;Node3</title>
<path fill="none" stroke="midnightblue" d="M101.21,-57.24C112.83,-60.53 125.25,-63.57 137,-65.5 189.56,-74.15 250.26,-75.96 293.73,-75.86"/>
<polygon fill="midnightblue" stroke="midnightblue" points="293.86,-79.36 303.84,-75.8 293.82,-72.36 293.86,-79.36"/>
</g>
<!-- Node5 -->
<g id="node5" class="node">
<title>Node5</title>
<g id="a_node5"><a xlink:href="namespacecpinti_1_1_func___cpinti.html#ab7049ea2cc0148a042e823546c2ef76d" target="_top" xlink:title=" ">
<polygon fill="white" stroke="black" points="305,-0.5 305,-30.5 401,-30.5 401,-0.5 305,-0.5"/>
<text text-anchor="start" x="313" y="-18.5" font-family="Helvetica,sans-Serif" font-size="10.00">cpinti::Func_Cpinti</text>
<text text-anchor="middle" x="353" y="-7.5" font-family="Helvetica,sans-Serif" font-size="10.00">::to_string</text>
</a>
</g>
</g>
<!-- Node1&#45;&gt;Node5 -->
<g id="edge6" class="edge">
<title>Node1&#45;&gt;Node5</title>
<path fill="none" stroke="midnightblue" d="M101.16,-23.4C112.78,-20.12 125.21,-17.19 137,-15.5 190.02,-7.91 251.15,-8.83 294.65,-11.1"/>
<polygon fill="midnightblue" stroke="midnightblue" points="294.57,-14.6 304.75,-11.67 294.97,-7.61 294.57,-14.6"/>
</g>
<!-- Node2&#45;&gt;Node3 -->
<g id="edge2" class="edge">
<title>Node2&#45;&gt;Node3</title>
<path fill="none" stroke="midnightblue" d="M268.2,-55.31C276.65,-57.25 285.26,-59.22 293.6,-61.13"/>
<polygon fill="midnightblue" stroke="midnightblue" points="293.06,-64.6 303.59,-63.42 294.63,-57.77 293.06,-64.6"/>
</g>
<!-- Node2&#45;&gt;Node5 -->
<g id="edge4" class="edge">
<title>Node2&#45;&gt;Node5</title>
<path fill="none" stroke="midnightblue" d="M268.2,-29.61C277.08,-28.11 286.14,-26.59 294.87,-25.12"/>
<polygon fill="midnightblue" stroke="midnightblue" points="295.65,-28.54 304.93,-23.42 294.49,-21.63 295.65,-28.54"/>
</g>
<!-- Node4 -->
<g id="node4" class="node">
<title>Node4</title>
<g id="a_node4"><a xlink:href="_c_p_c___w_p_r_8h.html#a971c45e904568a2415966a3f7b705e30" target="_top" xlink:title=" ">
<polygon fill="white" stroke="black" points="438,-59.5 438,-89.5 554,-89.5 554,-59.5 438,-59.5"/>
<text text-anchor="start" x="446" y="-77.5" font-family="Helvetica,sans-Serif" font-size="10.00">cpc_cpinti_debug_plus</text>
<text text-anchor="middle" x="496" y="-66.5" font-family="Helvetica,sans-Serif" font-size="10.00">_cpinticore</text>
</a>
</g>
</g>
<!-- Node3&#45;&gt;Node4 -->
<g id="edge3" class="edge">
<title>Node3&#45;&gt;Node4</title>
<path fill="none" stroke="midnightblue" d="M402.13,-74.5C410.39,-74.5 419.1,-74.5 427.75,-74.5"/>
<polygon fill="midnightblue" stroke="midnightblue" points="427.84,-78 437.84,-74.5 427.84,-71 427.84,-78"/>
</g>
</g>
</svg>
