<?xml version="1.0" encoding="UTF-8" standalone="no"?>
<!DOCTYPE svg PUBLIC "-//W3C//DTD SVG 1.1//EN"
 "http://www.w3.org/Graphics/SVG/1.1/DTD/svg11.dtd">
<!-- Generated by graphviz version 2.44.0 ()
 -->
<!-- Title: cpinti::gestionnaire_tache::end_SectionCritique Pages: 1 -->
<svg width="835pt" height="345pt"
 viewBox="0.00 0.00 835.00 345.00" xmlns="http://www.w3.org/2000/svg" xmlns:xlink="http://www.w3.org/1999/xlink">
<g id="graph0" class="graph" transform="scale(1 1) rotate(0) translate(4 341)">
<title>cpinti::gestionnaire_tache::end_SectionCritique</title>
<polygon fill="white" stroke="transparent" points="-4,4 -4,-341 831,-341 831,4 -4,4"/>
<!-- Node1 -->
<g id="node1" class="node">
<title>Node1</title>
<g id="a_node1"><a xlink:title=" ">
<polygon fill="#bfbfbf" stroke="black" points="690,-164.5 690,-194.5 827,-194.5 827,-164.5 690,-164.5"/>
<text text-anchor="start" x="698" y="-182.5" font-family="Helvetica,sans-Serif" font-size="10.00">cpinti::gestionnaire</text>
<text text-anchor="middle" x="758.5" y="-171.5" font-family="Helvetica,sans-Serif" font-size="10.00">_tache::end_SectionCritique</text>
</a>
</g>
</g>
<!-- Node2 -->
<g id="node2" class="node">
<title>Node2</title>
<g id="a_node2"><a xlink:href="namespacecpinti_1_1gestionnaire__tache.html#a785f49984308a281ea2220d2dea93f63" target="_top" xlink:title=" ">
<polygon fill="white" stroke="black" points="508,-306.5 508,-336.5 618,-336.5 618,-306.5 508,-306.5"/>
<text text-anchor="start" x="516" y="-324.5" font-family="Helvetica,sans-Serif" font-size="10.00">cpinti::gestionnaire</text>
<text text-anchor="middle" x="563" y="-313.5" font-family="Helvetica,sans-Serif" font-size="10.00">_tache::ajouter_Timer</text>
</a>
</g>
</g>
<!-- Node1&#45;&gt;Node2 -->
<g id="edge1" class="edge">
<title>Node1&#45;&gt;Node2</title>
<path fill="none" stroke="midnightblue" d="M743.01,-203.18C725.31,-230.07 692.89,-273.35 654,-297.5 643.15,-304.24 630.42,-309.1 618.01,-312.61"/>
<polygon fill="midnightblue" stroke="midnightblue" points="745.97,-205.04 748.43,-194.74 740.08,-201.26 745.97,-205.04"/>
</g>
<!-- Node3 -->
<g id="node3" class="node">
<title>Node3</title>
<g id="a_node3"><a xlink:href="namespacecpinti_1_1interception.html#a91bc0bcc1e6af66b82ec707691ec6679" target="_top" xlink:title=" ">
<polygon fill="white" stroke="black" points="515.5,-257.5 515.5,-287.5 610.5,-287.5 610.5,-257.5 515.5,-257.5"/>
<text text-anchor="start" x="523.5" y="-275.5" font-family="Helvetica,sans-Serif" font-size="10.00">cpinti::interception</text>
<text text-anchor="middle" x="563" y="-264.5" font-family="Helvetica,sans-Serif" font-size="10.00">::Error_Finalise</text>
</a>
</g>
</g>
<!-- Node1&#45;&gt;Node3 -->
<g id="edge2" class="edge">
<title>Node1&#45;&gt;Node3</title>
<path fill="none" stroke="midnightblue" d="M730.73,-200.93C710.63,-216.1 681.9,-235.9 654,-248.5 640.44,-254.62 625.01,-259.45 610.79,-263.11"/>
<polygon fill="midnightblue" stroke="midnightblue" points="732.98,-203.62 738.78,-194.75 728.72,-198.06 732.98,-203.62"/>
</g>
<!-- Node7 -->
<g id="node7" class="node">
<title>Node7</title>
<g id="a_node7"><a xlink:href="namespacecpinti_1_1gestionnaire__tache.html#a8ceefba5730150b183a64422c1520ce2" target="_top" xlink:title=" ">
<polygon fill="white" stroke="black" points="514.5,-208.5 514.5,-238.5 611.5,-238.5 611.5,-208.5 514.5,-208.5"/>
<text text-anchor="start" x="522.5" y="-226.5" font-family="Helvetica,sans-Serif" font-size="10.00">cpinti::gestionnaire</text>
<text text-anchor="middle" x="563" y="-215.5" font-family="Helvetica,sans-Serif" font-size="10.00">_tache::IamInLive</text>
</a>
</g>
</g>
<!-- Node1&#45;&gt;Node7 -->
<g id="edge6" class="edge">
<title>Node1&#45;&gt;Node7</title>
<path fill="none" stroke="midnightblue" d="M681.5,-196.78C657.99,-202.13 632.77,-207.86 611.75,-212.64"/>
<polygon fill="midnightblue" stroke="midnightblue" points="682.47,-200.15 691.45,-194.52 680.92,-193.32 682.47,-200.15"/>
</g>
<!-- Node8 -->
<g id="node8" class="node">
<title>Node8</title>
<g id="a_node8"><a xlink:href="namespacecpinti_1_1gestionnaire__tache.html#ad386876c980cb034a2f757e09a1c4977" target="_top" xlink:title=" ">
<polygon fill="white" stroke="black" points="297,-213.5 297,-243.5 436,-243.5 436,-213.5 297,-213.5"/>
<text text-anchor="start" x="305" y="-231.5" font-family="Helvetica,sans-Serif" font-size="10.00">cpinti::gestionnaire</text>
<text text-anchor="middle" x="366.5" y="-220.5" font-family="Helvetica,sans-Serif" font-size="10.00">_tache::initialiser_Multitache</text>
</a>
</g>
</g>
<!-- Node1&#45;&gt;Node8 -->
<g id="edge7" class="edge">
<title>Node1&#45;&gt;Node8</title>
<path fill="none" stroke="midnightblue" d="M679.7,-180.74C622.01,-182.68 541.64,-187.52 472,-199.5 452.7,-202.82 431.84,-208.23 413.86,-213.48"/>
<polygon fill="midnightblue" stroke="midnightblue" points="679.95,-184.24 689.84,-180.42 679.74,-177.24 679.95,-184.24"/>
</g>
<!-- Node9 -->
<g id="node9" class="node">
<title>Node9</title>
<g id="a_node9"><a xlink:href="namespacecpinti_1_1gestionnaire__tache.html#a640f909bd791a0d1c0f4d87e58fbb5ae" target="_top" xlink:title=" ">
<polygon fill="white" stroke="black" points="498.5,-120.5 498.5,-150.5 627.5,-150.5 627.5,-120.5 498.5,-120.5"/>
<text text-anchor="start" x="506.5" y="-138.5" font-family="Helvetica,sans-Serif" font-size="10.00">cpinti::gestionnaire</text>
<text text-anchor="middle" x="563" y="-127.5" font-family="Helvetica,sans-Serif" font-size="10.00">_tache::Interruption_Timer</text>
</a>
</g>
</g>
<!-- Node1&#45;&gt;Node9 -->
<g id="edge8" class="edge">
<title>Node1&#45;&gt;Node9</title>
<path fill="none" stroke="midnightblue" d="M681.67,-162.26C663.84,-158.2 645.02,-153.92 627.79,-150.01"/>
<polygon fill="midnightblue" stroke="midnightblue" points="680.92,-165.68 691.45,-164.48 682.47,-158.85 680.92,-165.68"/>
</g>
<!-- Node15 -->
<g id="node15" class="node">
<title>Node15</title>
<g id="a_node15"><a xlink:href="namespacecpinti_1_1gestionnaire__tache.html#a9e12afb26403f340d75fd3c881b68da2" target="_top" xlink:title=" ">
<polygon fill="white" stroke="black" points="472,-64.5 472,-94.5 654,-94.5 654,-64.5 472,-64.5"/>
<text text-anchor="start" x="480" y="-82.5" font-family="Helvetica,sans-Serif" font-size="10.00">cpinti::gestionnaire</text>
<text text-anchor="middle" x="563" y="-71.5" font-family="Helvetica,sans-Serif" font-size="10.00">_tache::SAUVEGARDER_CONTEXTE</text>
</a>
</g>
</g>
<!-- Node1&#45;&gt;Node15 -->
<g id="edge16" class="edge">
<title>Node1&#45;&gt;Node15</title>
<path fill="none" stroke="midnightblue" d="M729.61,-158.52C709.38,-143.98 680.95,-124.9 654,-111.5 641.08,-105.08 626.55,-99.32 612.99,-94.53"/>
<polygon fill="midnightblue" stroke="midnightblue" points="727.6,-161.39 737.75,-164.45 731.72,-155.73 727.6,-161.39"/>
</g>
<!-- Node16 -->
<g id="node16" class="node">
<title>Node16</title>
<g id="a_node16"><a xlink:href="namespacecpinti_1_1gestionnaire__tache.html#a673eddce3cf102d14f24f4b0a7b916ba" target="_top" xlink:title=" ">
<polygon fill="white" stroke="black" points="308.5,-0.5 308.5,-30.5 424.5,-30.5 424.5,-0.5 308.5,-0.5"/>
<text text-anchor="start" x="316.5" y="-18.5" font-family="Helvetica,sans-Serif" font-size="10.00">cpinti::gestionnaire</text>
<text text-anchor="middle" x="366.5" y="-7.5" font-family="Helvetica,sans-Serif" font-size="10.00">_tache::switch_context</text>
</a>
</g>
</g>
<!-- Node1&#45;&gt;Node16 -->
<g id="edge18" class="edge">
<title>Node1&#45;&gt;Node16</title>
<path fill="none" stroke="midnightblue" d="M744.95,-155.36C728.37,-126.15 696.26,-77.99 654,-54.5 582.26,-14.63 485.29,-9.78 424.59,-11.48"/>
<polygon fill="midnightblue" stroke="midnightblue" points="742.08,-157.4 749.97,-164.47 748.21,-154.02 742.08,-157.4"/>
</g>
<!-- Node4 -->
<g id="node4" class="node">
<title>Node4</title>
<g id="a_node4"><a xlink:href="namespacecpinti_1_1interception.html#a1772e262cfb40d4016511caeae45b861" target="_top" xlink:title=" ">
<polygon fill="white" stroke="black" points="319,-262.5 319,-292.5 414,-292.5 414,-262.5 319,-262.5"/>
<text text-anchor="start" x="327" y="-280.5" font-family="Helvetica,sans-Serif" font-size="10.00">cpinti::interception</text>
<text text-anchor="middle" x="366.5" y="-269.5" font-family="Helvetica,sans-Serif" font-size="10.00">::Erreur_Fatale</text>
</a>
</g>
</g>
<!-- Node3&#45;&gt;Node4 -->
<g id="edge3" class="edge">
<title>Node3&#45;&gt;Node4</title>
<path fill="none" stroke="midnightblue" d="M505.42,-273.95C476.39,-274.7 441.48,-275.6 414.04,-276.3"/>
<polygon fill="midnightblue" stroke="midnightblue" points="505.51,-277.45 515.41,-273.7 505.33,-270.46 505.51,-277.45"/>
</g>
<!-- Node5 -->
<g id="node5" class="node">
<title>Node5</title>
<g id="a_node5"><a xlink:href="namespacecpinti_1_1interception.html#a4c805b9e79a66eca888512879f8d9e10" target="_top" xlink:title=" ">
<polygon fill="white" stroke="black" points="149,-262.5 149,-292.5 260,-292.5 260,-262.5 149,-262.5"/>
<text text-anchor="start" x="157" y="-280.5" font-family="Helvetica,sans-Serif" font-size="10.00">cpinti::interception</text>
<text text-anchor="middle" x="204.5" y="-269.5" font-family="Helvetica,sans-Serif" font-size="10.00">::Erreur_Fatale_Signal</text>
</a>
</g>
</g>
<!-- Node4&#45;&gt;Node5 -->
<g id="edge4" class="edge">
<title>Node4&#45;&gt;Node5</title>
<path fill="none" stroke="midnightblue" d="M308.65,-277.5C292.89,-277.5 275.81,-277.5 260.17,-277.5"/>
<polygon fill="midnightblue" stroke="midnightblue" points="308.79,-281 318.79,-277.5 308.79,-274 308.79,-281"/>
</g>
<!-- Node6 -->
<g id="node6" class="node">
<title>Node6</title>
<g id="a_node6"><a xlink:href="namespacecpinti_1_1interception.html#a71269205d7f5572d106bf3d75cfcf104" target="_top" xlink:title=" ">
<polygon fill="white" stroke="black" points="0,-257 0,-298 112,-298 112,-257 0,-257"/>
<text text-anchor="start" x="8" y="-286" font-family="Helvetica,sans-Serif" font-size="10.00">cpinti::interception</text>
<text text-anchor="start" x="8" y="-275" font-family="Helvetica,sans-Serif" font-size="10.00">::initialise_interception</text>
<text text-anchor="middle" x="56" y="-264" font-family="Helvetica,sans-Serif" font-size="10.00">_exception</text>
</a>
</g>
</g>
<!-- Node5&#45;&gt;Node6 -->
<g id="edge5" class="edge">
<title>Node5&#45;&gt;Node6</title>
<path fill="none" stroke="midnightblue" d="M138.94,-277.5C129.98,-277.5 120.85,-277.5 112.09,-277.5"/>
<polygon fill="midnightblue" stroke="midnightblue" points="138.95,-281 148.95,-277.5 138.95,-274 138.95,-281"/>
</g>
<!-- Node9&#45;&gt;Node8 -->
<g id="edge14" class="edge">
<title>Node9&#45;&gt;Node8</title>
<path fill="none" stroke="midnightblue" d="M493.04,-154.42C485.68,-157.61 478.52,-161.29 472,-165.5 452.19,-178.3 455.72,-191.55 436,-204.5 430.84,-207.89 425.14,-210.86 419.31,-213.45"/>
<polygon fill="midnightblue" stroke="midnightblue" points="494.47,-157.61 502.42,-150.62 491.84,-151.13 494.47,-157.61"/>
</g>
<!-- Node10 -->
<g id="node10" class="node">
<title>Node10</title>
<g id="a_node10"><a xlink:href="namespacecpinti_1_1gestionnaire__tache.html#a6e5e5771fd2998d286a459f65136f6ab" target="_top" xlink:title=" ">
<polygon fill="white" stroke="black" points="309,-164.5 309,-194.5 424,-194.5 424,-164.5 309,-164.5"/>
<text text-anchor="start" x="317" y="-182.5" font-family="Helvetica,sans-Serif" font-size="10.00">cpinti::gestionnaire</text>
<text text-anchor="middle" x="366.5" y="-171.5" font-family="Helvetica,sans-Serif" font-size="10.00">_tache::ajouter_Thread</text>
</a>
</g>
</g>
<!-- Node9&#45;&gt;Node10 -->
<g id="edge9" class="edge">
<title>Node9&#45;&gt;Node10</title>
<path fill="none" stroke="midnightblue" d="M488.34,-152.16C467.06,-156.98 444.18,-162.15 424.12,-166.69"/>
<polygon fill="midnightblue" stroke="midnightblue" points="489.33,-155.53 498.31,-149.91 487.79,-148.7 489.33,-155.53"/>
</g>
<!-- Node12 -->
<g id="node12" class="node">
<title>Node12</title>
<g id="a_node12"><a xlink:href="namespacecpinti.html#add88e43780041b1587942a9bc7aa6f0d" target="_top" xlink:title=" ">
<polygon fill="white" stroke="black" points="148,-105 148,-124 261,-124 261,-105 148,-105"/>
<text text-anchor="middle" x="204.5" y="-112" font-family="Helvetica,sans-Serif" font-size="10.00">cpinti::cpinti_doevents</text>
</a>
</g>
</g>
<!-- Node9&#45;&gt;Node12 -->
<g id="edge11" class="edge">
<title>Node9&#45;&gt;Node12</title>
<path fill="none" stroke="midnightblue" d="M488.12,-131.15C420.57,-127.17 322.16,-121.37 261.07,-117.77"/>
<polygon fill="midnightblue" stroke="midnightblue" points="488.08,-134.65 498.26,-131.75 488.49,-127.66 488.08,-134.65"/>
</g>
<!-- Node13 -->
<g id="node13" class="node">
<title>Node13</title>
<g id="a_node13"><a xlink:href="namespacecpinti.html#a8235499e69d1e950b8ad549075f21a3d" target="_top" xlink:title=" ">
<polygon fill="white" stroke="black" points="314,-88 314,-107 419,-107 419,-88 314,-88"/>
<text text-anchor="middle" x="366.5" y="-95" font-family="Helvetica,sans-Serif" font-size="10.00">cpinti::cpinti_USleep</text>
</a>
</g>
</g>
<!-- Node9&#45;&gt;Node13 -->
<g id="edge12" class="edge">
<title>Node9&#45;&gt;Node13</title>
<path fill="none" stroke="midnightblue" d="M488.46,-121.13C464.3,-116.41 438.06,-111.28 416.21,-107.02"/>
<polygon fill="midnightblue" stroke="midnightblue" points="487.83,-124.57 498.31,-123.06 489.17,-117.7 487.83,-124.57"/>
</g>
<!-- Node14 -->
<g id="node14" class="node">
<title>Node14</title>
<g id="a_node14"><a xlink:href="core_8cpp.html#a8072a106077bf5b87885ed3fbafc7229" target="_top" xlink:title=" ">
<polygon fill="white" stroke="black" points="319,-50 319,-69 414,-69 414,-50 319,-50"/>
<text text-anchor="middle" x="366.5" y="-57" font-family="Helvetica,sans-Serif" font-size="10.00">Interruption_Timer</text>
</a>
</g>
</g>
<!-- Node9&#45;&gt;Node14 -->
<g id="edge15" class="edge">
<title>Node9&#45;&gt;Node14</title>
<path fill="none" stroke="midnightblue" d="M502.51,-116.88C492.14,-112.92 481.6,-108.43 472,-103.5 454.67,-94.6 453.63,-86.78 436,-78.5 428.07,-74.78 419.27,-71.66 410.69,-69.09"/>
<polygon fill="midnightblue" stroke="midnightblue" points="501.37,-120.19 511.96,-120.36 503.79,-113.62 501.37,-120.19"/>
</g>
<!-- Node11 -->
<g id="node11" class="node">
<title>Node11</title>
<g id="a_node11"><a xlink:href="namespacecpinti_1_1gestionnaire__tache.html#a0c6d8878452d6e0ebb31a9ae9910d859" target="_top" xlink:title=" ">
<polygon fill="white" stroke="black" points="154,-159 154,-200 255,-200 255,-159 154,-159"/>
<text text-anchor="start" x="162" y="-188" font-family="Helvetica,sans-Serif" font-size="10.00">cpinti::gestionnaire</text>
<text text-anchor="start" x="162" y="-177" font-family="Helvetica,sans-Serif" font-size="10.00">_tache::cpinti_creer</text>
<text text-anchor="middle" x="204.5" y="-166" font-family="Helvetica,sans-Serif" font-size="10.00">_thread</text>
</a>
</g>
</g>
<!-- Node10&#45;&gt;Node11 -->
<g id="edge10" class="edge">
<title>Node10&#45;&gt;Node11</title>
<path fill="none" stroke="midnightblue" d="M298.22,-179.5C283.73,-179.5 268.67,-179.5 255.01,-179.5"/>
<polygon fill="midnightblue" stroke="midnightblue" points="298.64,-183 308.64,-179.5 298.64,-176 298.64,-183"/>
</g>
<!-- Node13&#45;&gt;Node12 -->
<g id="edge13" class="edge">
<title>Node13&#45;&gt;Node12</title>
<path fill="none" stroke="midnightblue" d="M303.9,-104.05C289.79,-105.54 274.89,-107.13 261.06,-108.6"/>
<polygon fill="midnightblue" stroke="midnightblue" points="304.42,-107.51 313.99,-102.97 303.68,-100.55 304.42,-107.51"/>
</g>
<!-- Node15&#45;&gt;Node16 -->
<g id="edge17" class="edge">
<title>Node15&#45;&gt;Node16</title>
<path fill="none" stroke="midnightblue" d="M506.64,-61.28C477.06,-51.55 441.11,-39.72 413.15,-30.52"/>
<polygon fill="midnightblue" stroke="midnightblue" points="505.81,-64.69 516.4,-64.49 507.99,-58.04 505.81,-64.69"/>
</g>
</g>
</svg>
