<?xml version="1.0" encoding="UTF-8" standalone="no"?>
<!DOCTYPE svg PUBLIC "-//W3C//DTD SVG 1.1//EN"
 "http://www.w3.org/Graphics/SVG/1.1/DTD/svg11.dtd">
<!-- Generated by graphviz version 2.44.0 ()
 -->
<!-- Title: cpinti::gestionnaire_tache::cpinti_arreter_processus Pages: 1 -->
<svg width="764pt" height="137pt"
 viewBox="0.00 0.00 764.00 137.00" xmlns="http://www.w3.org/2000/svg" xmlns:xlink="http://www.w3.org/1999/xlink">
<g id="graph0" class="graph" transform="scale(1 1) rotate(0) translate(4 133)">
<title>cpinti::gestionnaire_tache::cpinti_arreter_processus</title>
<polygon fill="white" stroke="transparent" points="-4,4 -4,-133 760,-133 760,4 -4,4"/>
<!-- Node1 -->
<g id="node1" class="node">
<title>Node1</title>
<g id="a_node1"><a xlink:title=" ">
<polygon fill="#bfbfbf" stroke="black" points="0,-44 0,-85 107,-85 107,-44 0,-44"/>
<text text-anchor="start" x="8" y="-73" font-family="Helvetica,sans-Serif" font-size="10.00">cpinti::gestionnaire</text>
<text text-anchor="start" x="8" y="-62" font-family="Helvetica,sans-Serif" font-size="10.00">_tache::cpinti_arreter</text>
<text text-anchor="middle" x="53.5" y="-51" font-family="Helvetica,sans-Serif" font-size="10.00">_processus</text>
</a>
</g>
</g>
<!-- Node2 -->
<g id="node2" class="node">
<title>Node2</title>
<g id="a_node2"><a xlink:href="namespacecpinti__dbg.html#a119c14f1b5f4849696decac82a512762" target="_top" xlink:title=" ">
<polygon fill="white" stroke="black" points="497,-98.5 497,-128.5 595,-128.5 595,-98.5 497,-98.5"/>
<text text-anchor="start" x="505" y="-116.5" font-family="Helvetica,sans-Serif" font-size="10.00">cpinti_dbg::CPINTI</text>
<text text-anchor="middle" x="546" y="-105.5" font-family="Helvetica,sans-Serif" font-size="10.00">_DEBUG</text>
</a>
</g>
</g>
<!-- Node1&#45;&gt;Node2 -->
<g id="edge1" class="edge">
<title>Node1&#45;&gt;Node2</title>
<path fill="none" stroke="midnightblue" d="M107.06,-80.79C118.8,-84.02 131.26,-87.14 143,-89.5 222.45,-105.45 243.13,-106.24 324,-111.5 379.06,-115.08 441.99,-115.27 486.58,-114.75"/>
<polygon fill="midnightblue" stroke="midnightblue" points="486.7,-118.25 496.66,-114.62 486.61,-111.25 486.7,-118.25"/>
</g>
<!-- Node4 -->
<g id="node4" class="node">
<title>Node4</title>
<g id="a_node4"><a xlink:href="namespacecpinti_1_1gestionnaire__tache.html#ac43c3c3801eaf41bc3e0b0d184461f96" target="_top" xlink:title=" ">
<polygon fill="white" stroke="black" points="143,-49.5 143,-79.5 288,-79.5 288,-49.5 143,-49.5"/>
<text text-anchor="start" x="151" y="-67.5" font-family="Helvetica,sans-Serif" font-size="10.00">cpinti::gestionnaire</text>
<text text-anchor="middle" x="215.5" y="-56.5" font-family="Helvetica,sans-Serif" font-size="10.00">_tache::supprimer_Processus</text>
</a>
</g>
</g>
<!-- Node1&#45;&gt;Node4 -->
<g id="edge3" class="edge">
<title>Node1&#45;&gt;Node4</title>
<path fill="none" stroke="midnightblue" d="M107.33,-64.5C115.51,-64.5 124.12,-64.5 132.75,-64.5"/>
<polygon fill="midnightblue" stroke="midnightblue" points="132.88,-68 142.88,-64.5 132.88,-61 132.88,-68"/>
</g>
<!-- Node7 -->
<g id="node7" class="node">
<title>Node7</title>
<g id="a_node7"><a xlink:href="namespacecpinti_1_1_func___cpinti.html#ab7049ea2cc0148a042e823546c2ef76d" target="_top" xlink:title=" ">
<polygon fill="white" stroke="black" points="498,-0.5 498,-30.5 594,-30.5 594,-0.5 498,-0.5"/>
<text text-anchor="start" x="506" y="-18.5" font-family="Helvetica,sans-Serif" font-size="10.00">cpinti::Func_Cpinti</text>
<text text-anchor="middle" x="546" y="-7.5" font-family="Helvetica,sans-Serif" font-size="10.00">::to_string</text>
</a>
</g>
</g>
<!-- Node1&#45;&gt;Node7 -->
<g id="edge10" class="edge">
<title>Node1&#45;&gt;Node7</title>
<path fill="none" stroke="midnightblue" d="M107.04,-48.12C118.78,-44.89 131.25,-41.79 143,-39.5 264,-15.89 409.04,-13.42 487.59,-14.17"/>
<polygon fill="midnightblue" stroke="midnightblue" points="487.72,-17.67 497.76,-14.29 487.8,-10.67 487.72,-17.67"/>
</g>
<!-- Node3 -->
<g id="node3" class="node">
<title>Node3</title>
<g id="a_node3"><a xlink:href="_c_p_c___w_p_r_8h.html#a971c45e904568a2415966a3f7b705e30" target="_top" xlink:title=" ">
<polygon fill="white" stroke="black" points="640,-98.5 640,-128.5 756,-128.5 756,-98.5 640,-98.5"/>
<text text-anchor="start" x="648" y="-116.5" font-family="Helvetica,sans-Serif" font-size="10.00">cpc_cpinti_debug_plus</text>
<text text-anchor="middle" x="698" y="-105.5" font-family="Helvetica,sans-Serif" font-size="10.00">_cpinticore</text>
</a>
</g>
</g>
<!-- Node2&#45;&gt;Node3 -->
<g id="edge2" class="edge">
<title>Node2&#45;&gt;Node3</title>
<path fill="none" stroke="midnightblue" d="M595.29,-113.5C606.28,-113.5 618.16,-113.5 629.78,-113.5"/>
<polygon fill="midnightblue" stroke="midnightblue" points="629.91,-117 639.91,-113.5 629.91,-110 629.91,-117"/>
</g>
<!-- Node4&#45;&gt;Node2 -->
<g id="edge4" class="edge">
<title>Node4&#45;&gt;Node2</title>
<path fill="none" stroke="midnightblue" d="M275.38,-79.54C291.1,-83.18 308.13,-86.8 324,-89.5 378.89,-98.83 442.1,-105.26 486.82,-109.11"/>
<polygon fill="midnightblue" stroke="midnightblue" points="486.66,-112.6 496.92,-109.96 487.25,-105.63 486.66,-112.6"/>
</g>
<!-- Node5 -->
<g id="node5" class="node">
<title>Node5</title>
<g id="a_node5"><a xlink:href="namespacecpinti_1_1gestionnaire__tache.html#ace8684d7861881e3535f5eaa6008b94f" target="_top" xlink:title=" ">
<polygon fill="white" stroke="black" points="324,-49.5 324,-79.5 452,-79.5 452,-49.5 324,-49.5"/>
<text text-anchor="start" x="332" y="-67.5" font-family="Helvetica,sans-Serif" font-size="10.00">cpinti::gestionnaire</text>
<text text-anchor="middle" x="388" y="-56.5" font-family="Helvetica,sans-Serif" font-size="10.00">_tache::supprimer_Thread</text>
</a>
</g>
</g>
<!-- Node4&#45;&gt;Node5 -->
<g id="edge5" class="edge">
<title>Node4&#45;&gt;Node5</title>
<path fill="none" stroke="midnightblue" d="M288.31,-64.5C296.72,-64.5 305.31,-64.5 313.75,-64.5"/>
<polygon fill="midnightblue" stroke="midnightblue" points="313.93,-68 323.93,-64.5 313.93,-61 313.93,-68"/>
</g>
<!-- Node4&#45;&gt;Node7 -->
<g id="edge9" class="edge">
<title>Node4&#45;&gt;Node7</title>
<path fill="none" stroke="midnightblue" d="M275.38,-49.46C291.1,-45.82 308.13,-42.2 324,-39.5 379.24,-30.11 442.91,-23.65 487.68,-19.82"/>
<polygon fill="midnightblue" stroke="midnightblue" points="488.11,-23.3 497.78,-18.97 487.52,-16.32 488.11,-23.3"/>
</g>
<!-- Node5&#45;&gt;Node2 -->
<g id="edge6" class="edge">
<title>Node5&#45;&gt;Node2</title>
<path fill="none" stroke="midnightblue" d="M437.08,-79.6C453.02,-84.61 470.92,-90.23 487.5,-95.44"/>
<polygon fill="midnightblue" stroke="midnightblue" points="486.49,-98.79 497.08,-98.45 488.59,-92.11 486.49,-98.79"/>
</g>
<!-- Node6 -->
<g id="node6" class="node">
<title>Node6</title>
<g id="a_node6"><a xlink:href="namespacecpinti_1_1gestionnaire__tache.html#a7216b6d2070ba00acea0233ccecd26ee" target="_top" xlink:title=" ">
<polygon fill="white" stroke="black" points="488,-49.5 488,-79.5 604,-79.5 604,-49.5 488,-49.5"/>
<text text-anchor="start" x="496" y="-67.5" font-family="Helvetica,sans-Serif" font-size="10.00">cpinti::gestionnaire</text>
<text text-anchor="middle" x="546" y="-56.5" font-family="Helvetica,sans-Serif" font-size="10.00">_tache::set_EtatThread</text>
</a>
</g>
</g>
<!-- Node5&#45;&gt;Node6 -->
<g id="edge7" class="edge">
<title>Node5&#45;&gt;Node6</title>
<path fill="none" stroke="midnightblue" d="M452,-64.5C460.42,-64.5 469.08,-64.5 477.57,-64.5"/>
<polygon fill="midnightblue" stroke="midnightblue" points="477.81,-68 487.81,-64.5 477.81,-61 477.81,-68"/>
</g>
<!-- Node5&#45;&gt;Node7 -->
<g id="edge8" class="edge">
<title>Node5&#45;&gt;Node7</title>
<path fill="none" stroke="midnightblue" d="M437.08,-49.4C453.24,-44.32 471.43,-38.61 488.2,-33.34"/>
<polygon fill="midnightblue" stroke="midnightblue" points="489.39,-36.64 497.88,-30.3 487.29,-29.96 489.39,-36.64"/>
</g>
</g>
</svg>
