<?xml version="1.0" encoding="UTF-8" standalone="no"?>
<!DOCTYPE svg PUBLIC "-//W3C//DTD SVG 1.1//EN"
 "http://www.w3.org/Graphics/SVG/1.1/DTD/svg11.dtd">
<!-- Generated by graphviz version 2.44.0 ()
 -->
<!-- Title: cpinti::gestionnaire_tache::state_SectionCritique Pages: 1 -->
<svg width="640pt" height="209pt"
 viewBox="0.00 0.00 640.00 209.00" xmlns="http://www.w3.org/2000/svg" xmlns:xlink="http://www.w3.org/1999/xlink">
<g id="graph0" class="graph" transform="scale(1 1) rotate(0) translate(4 205)">
<title>cpinti::gestionnaire_tache::state_SectionCritique</title>
<polygon fill="white" stroke="transparent" points="-4,4 -4,-205 636,-205 636,4 -4,4"/>
<!-- Node1 -->
<g id="node1" class="node">
<title>Node1</title>
<g id="a_node1"><a xlink:title=" ">
<polygon fill="#bfbfbf" stroke="black" points="489,-107 489,-137 632,-137 632,-107 489,-107"/>
<text text-anchor="start" x="497" y="-125" font-family="Helvetica,sans-Serif" font-size="10.00">cpinti::gestionnaire</text>
<text text-anchor="middle" x="560.5" y="-114" font-family="Helvetica,sans-Serif" font-size="10.00">_tache::state_SectionCritique</text>
</a>
</g>
</g>
<!-- Node2 -->
<g id="node2" class="node">
<title>Node2</title>
<g id="a_node2"><a xlink:href="namespacecpinti_1_1interception.html#a1772e262cfb40d4016511caeae45b861" target="_top" xlink:title=" ">
<polygon fill="white" stroke="black" points="341,-148 341,-178 436,-178 436,-148 341,-148"/>
<text text-anchor="start" x="349" y="-166" font-family="Helvetica,sans-Serif" font-size="10.00">cpinti::interception</text>
<text text-anchor="middle" x="388.5" y="-155" font-family="Helvetica,sans-Serif" font-size="10.00">::Erreur_Fatale</text>
</a>
</g>
</g>
<!-- Node1&#45;&gt;Node2 -->
<g id="edge1" class="edge">
<title>Node1&#45;&gt;Node2</title>
<path fill="none" stroke="midnightblue" d="M487.1,-139.46C469.84,-143.62 451.87,-147.96 436.12,-151.76"/>
<polygon fill="midnightblue" stroke="midnightblue" points="488.26,-142.78 497.16,-137.03 486.62,-135.98 488.26,-142.78"/>
</g>
<!-- Node5 -->
<g id="node5" class="node">
<title>Node5</title>
<g id="a_node5"><a xlink:href="namespacecpinti_1_1gestionnaire__tache.html#a640f909bd791a0d1c0f4d87e58fbb5ae" target="_top" xlink:title=" ">
<polygon fill="white" stroke="black" points="324,-83 324,-113 453,-113 453,-83 324,-83"/>
<text text-anchor="start" x="332" y="-101" font-family="Helvetica,sans-Serif" font-size="10.00">cpinti::gestionnaire</text>
<text text-anchor="middle" x="388.5" y="-90" font-family="Helvetica,sans-Serif" font-size="10.00">_tache::Interruption_Timer</text>
</a>
</g>
</g>
<!-- Node1&#45;&gt;Node5 -->
<g id="edge4" class="edge">
<title>Node1&#45;&gt;Node5</title>
<path fill="none" stroke="midnightblue" d="M478.81,-110.61C470.18,-109.39 461.5,-108.16 453.11,-106.98"/>
<polygon fill="midnightblue" stroke="midnightblue" points="478.49,-114.1 488.88,-112.03 479.47,-107.17 478.49,-114.1"/>
</g>
<!-- Node3 -->
<g id="node3" class="node">
<title>Node3</title>
<g id="a_node3"><a xlink:href="namespacecpinti_1_1interception.html#a4c805b9e79a66eca888512879f8d9e10" target="_top" xlink:title=" ">
<polygon fill="white" stroke="black" points="163,-165 163,-195 274,-195 274,-165 163,-165"/>
<text text-anchor="start" x="171" y="-183" font-family="Helvetica,sans-Serif" font-size="10.00">cpinti::interception</text>
<text text-anchor="middle" x="218.5" y="-172" font-family="Helvetica,sans-Serif" font-size="10.00">::Erreur_Fatale_Signal</text>
</a>
</g>
</g>
<!-- Node2&#45;&gt;Node3 -->
<g id="edge2" class="edge">
<title>Node2&#45;&gt;Node3</title>
<path fill="none" stroke="midnightblue" d="M330.5,-168.77C312.27,-170.61 292.13,-172.65 274.07,-174.48"/>
<polygon fill="midnightblue" stroke="midnightblue" points="331.11,-172.22 340.7,-167.74 330.4,-165.26 331.11,-172.22"/>
</g>
<!-- Node4 -->
<g id="node4" class="node">
<title>Node4</title>
<g id="a_node4"><a xlink:href="namespacecpinti_1_1interception.html#a71269205d7f5572d106bf3d75cfcf104" target="_top" xlink:title=" ">
<polygon fill="white" stroke="black" points="0.5,-159.5 0.5,-200.5 112.5,-200.5 112.5,-159.5 0.5,-159.5"/>
<text text-anchor="start" x="8.5" y="-188.5" font-family="Helvetica,sans-Serif" font-size="10.00">cpinti::interception</text>
<text text-anchor="start" x="8.5" y="-177.5" font-family="Helvetica,sans-Serif" font-size="10.00">::initialise_interception</text>
<text text-anchor="middle" x="56.5" y="-166.5" font-family="Helvetica,sans-Serif" font-size="10.00">_exception</text>
</a>
</g>
</g>
<!-- Node3&#45;&gt;Node4 -->
<g id="edge3" class="edge">
<title>Node3&#45;&gt;Node4</title>
<path fill="none" stroke="midnightblue" d="M152.84,-180C139.53,-180 125.63,-180 112.68,-180"/>
<polygon fill="midnightblue" stroke="midnightblue" points="152.88,-183.5 162.88,-180 152.88,-176.5 152.88,-183.5"/>
</g>
<!-- Node6 -->
<g id="node6" class="node">
<title>Node6</title>
<g id="a_node6"><a xlink:href="namespacecpinti.html#add88e43780041b1587942a9bc7aa6f0d" target="_top" xlink:title=" ">
<polygon fill="white" stroke="black" points="0,-105.5 0,-124.5 113,-124.5 113,-105.5 0,-105.5"/>
<text text-anchor="middle" x="56.5" y="-112.5" font-family="Helvetica,sans-Serif" font-size="10.00">cpinti::cpinti_doevents</text>
</a>
</g>
</g>
<!-- Node5&#45;&gt;Node6 -->
<g id="edge5" class="edge">
<title>Node5&#45;&gt;Node6</title>
<path fill="none" stroke="midnightblue" d="M313.72,-113.69C305.08,-115.05 296.37,-116.21 288,-117 226.5,-122.82 210.77,-117.68 149,-117 137.4,-116.87 124.98,-116.66 113.14,-116.41"/>
<polygon fill="midnightblue" stroke="midnightblue" points="314.51,-117.11 323.79,-112.01 313.35,-110.2 314.51,-117.11"/>
</g>
<!-- Node7 -->
<g id="node7" class="node">
<title>Node7</title>
<g id="a_node7"><a xlink:href="namespacecpinti.html#a8235499e69d1e950b8ad549075f21a3d" target="_top" xlink:title=" ">
<polygon fill="white" stroke="black" points="166,-88.5 166,-107.5 271,-107.5 271,-88.5 166,-88.5"/>
<text text-anchor="middle" x="218.5" y="-95.5" font-family="Helvetica,sans-Serif" font-size="10.00">cpinti::cpinti_USleep</text>
</a>
</g>
</g>
<!-- Node5&#45;&gt;Node7 -->
<g id="edge6" class="edge">
<title>Node5&#45;&gt;Node7</title>
<path fill="none" stroke="midnightblue" d="M313.63,-98C299.28,-98 284.53,-98 271.08,-98"/>
<polygon fill="midnightblue" stroke="midnightblue" points="313.99,-101.5 323.99,-98 313.99,-94.5 313.99,-101.5"/>
</g>
<!-- Node8 -->
<g id="node8" class="node">
<title>Node8</title>
<g id="a_node8"><a xlink:href="namespacecpinti_1_1gestionnaire__tache.html#ad386876c980cb034a2f757e09a1c4977" target="_top" xlink:title=" ">
<polygon fill="white" stroke="black" points="149,-39 149,-69 288,-69 288,-39 149,-39"/>
<text text-anchor="start" x="157" y="-57" font-family="Helvetica,sans-Serif" font-size="10.00">cpinti::gestionnaire</text>
<text text-anchor="middle" x="218.5" y="-46" font-family="Helvetica,sans-Serif" font-size="10.00">_tache::initialiser_Multitache</text>
</a>
</g>
</g>
<!-- Node5&#45;&gt;Node8 -->
<g id="edge8" class="edge">
<title>Node5&#45;&gt;Node8</title>
<path fill="none" stroke="midnightblue" d="M320.32,-80.41C305.93,-76.64 290.85,-72.69 276.87,-69.03"/>
<polygon fill="midnightblue" stroke="midnightblue" points="319.59,-83.83 330.15,-82.98 321.37,-77.06 319.59,-83.83"/>
</g>
<!-- Node9 -->
<g id="node9" class="node">
<title>Node9</title>
<g id="a_node9"><a xlink:href="core_8cpp.html#a8072a106077bf5b87885ed3fbafc7229" target="_top" xlink:title=" ">
<polygon fill="white" stroke="black" points="171,-0.5 171,-19.5 266,-19.5 266,-0.5 171,-0.5"/>
<text text-anchor="middle" x="218.5" y="-7.5" font-family="Helvetica,sans-Serif" font-size="10.00">Interruption_Timer</text>
</a>
</g>
</g>
<!-- Node5&#45;&gt;Node9 -->
<g id="edge9" class="edge">
<title>Node5&#45;&gt;Node9</title>
<path fill="none" stroke="midnightblue" d="M361.14,-76.56C341.85,-61.75 314.53,-42.55 288,-30 279.26,-25.87 269.49,-22.4 260.13,-19.57"/>
<polygon fill="midnightblue" stroke="midnightblue" points="359.11,-79.41 369.14,-82.81 363.41,-73.9 359.11,-79.41"/>
</g>
<!-- Node7&#45;&gt;Node6 -->
<g id="edge7" class="edge">
<title>Node7&#45;&gt;Node6</title>
<path fill="none" stroke="midnightblue" d="M155.9,-104.55C141.79,-106.04 126.89,-107.63 113.06,-109.1"/>
<polygon fill="midnightblue" stroke="midnightblue" points="156.42,-108.01 165.99,-103.47 155.68,-101.05 156.42,-108.01"/>
</g>
</g>
</svg>
