<?xml version="1.0" encoding="UTF-8" standalone="no"?>
<!DOCTYPE svg PUBLIC "-//W3C//DTD SVG 1.1//EN"
 "http://www.w3.org/Graphics/SVG/1.1/DTD/svg11.dtd">
<!-- Generated by graphviz version 2.44.0 ()
 -->
<!-- Title: cpinti::gestionnaire_tache::end_SectionCritique Pages: 1 -->
<svg width="835pt" height="362pt"
 viewBox="0.00 0.00 835.00 362.00" xmlns="http://www.w3.org/2000/svg" xmlns:xlink="http://www.w3.org/1999/xlink">
<g id="graph0" class="graph" transform="scale(1 1) rotate(0) translate(4 358)">
<title>cpinti::gestionnaire_tache::end_SectionCritique</title>
<polygon fill="white" stroke="transparent" points="-4,4 -4,-358 831,-358 831,4 -4,4"/>
<!-- Node1 -->
<g id="node1" class="node">
<title>Node1</title>
<g id="a_node1"><a xlink:title=" ">
<polygon fill="#bfbfbf" stroke="black" points="690,-159.5 690,-189.5 827,-189.5 827,-159.5 690,-159.5"/>
<text text-anchor="start" x="698" y="-177.5" font-family="Helvetica,sans-Serif" font-size="10.00">cpinti::gestionnaire</text>
<text text-anchor="middle" x="758.5" y="-166.5" font-family="Helvetica,sans-Serif" font-size="10.00">_tache::end_SectionCritique</text>
</a>
</g>
</g>
<!-- Node2 -->
<g id="node2" class="node">
<title>Node2</title>
<g id="a_node2"><a xlink:href="namespacecpinti_1_1gestionnaire__tache.html#a785f49984308a281ea2220d2dea93f63" target="_top" xlink:title=" ">
<polygon fill="white" stroke="black" points="508,-323.5 508,-353.5 618,-353.5 618,-323.5 508,-323.5"/>
<text text-anchor="start" x="516" y="-341.5" font-family="Helvetica,sans-Serif" font-size="10.00">cpinti::gestionnaire</text>
<text text-anchor="middle" x="563" y="-330.5" font-family="Helvetica,sans-Serif" font-size="10.00">_tache::ajouter_Timer</text>
</a>
</g>
</g>
<!-- Node1&#45;&gt;Node2 -->
<g id="edge1" class="edge">
<title>Node1&#45;&gt;Node2</title>
<path fill="none" stroke="midnightblue" d="M746.08,-198.79C730.01,-230.31 697.71,-284.76 654,-314.5 643.44,-321.69 630.82,-326.72 618.43,-330.25"/>
<polygon fill="midnightblue" stroke="midnightblue" points="749.23,-200.31 750.54,-189.8 742.96,-197.2 749.23,-200.31"/>
</g>
<!-- Node3 -->
<g id="node3" class="node">
<title>Node3</title>
<g id="a_node3"><a xlink:href="namespacecpinti_1_1interception.html#a91bc0bcc1e6af66b82ec707691ec6679" target="_top" xlink:title=" ">
<polygon fill="white" stroke="black" points="515.5,-274.5 515.5,-304.5 610.5,-304.5 610.5,-274.5 515.5,-274.5"/>
<text text-anchor="start" x="523.5" y="-292.5" font-family="Helvetica,sans-Serif" font-size="10.00">cpinti::interception</text>
<text text-anchor="middle" x="563" y="-281.5" font-family="Helvetica,sans-Serif" font-size="10.00">::Error_Finalise</text>
</a>
</g>
</g>
<!-- Node1&#45;&gt;Node3 -->
<g id="edge2" class="edge">
<title>Node1&#45;&gt;Node3</title>
<path fill="none" stroke="midnightblue" d="M737.55,-197.23C718.18,-217.94 686.93,-247.9 654,-265.5 640.74,-272.59 625.23,-277.7 610.87,-281.32"/>
<polygon fill="midnightblue" stroke="midnightblue" points="740.19,-199.53 744.37,-189.79 735.04,-194.79 740.19,-199.53"/>
</g>
<!-- Node7 -->
<g id="node7" class="node">
<title>Node7</title>
<g id="a_node7"><a xlink:href="namespacecpinti_1_1gestionnaire__tache.html#a8ceefba5730150b183a64422c1520ce2" target="_top" xlink:title=" ">
<polygon fill="white" stroke="black" points="514.5,-225.5 514.5,-255.5 611.5,-255.5 611.5,-225.5 514.5,-225.5"/>
<text text-anchor="start" x="522.5" y="-243.5" font-family="Helvetica,sans-Serif" font-size="10.00">cpinti::gestionnaire</text>
<text text-anchor="middle" x="563" y="-232.5" font-family="Helvetica,sans-Serif" font-size="10.00">_tache::IamInLive</text>
</a>
</g>
</g>
<!-- Node1&#45;&gt;Node7 -->
<g id="edge6" class="edge">
<title>Node1&#45;&gt;Node7</title>
<path fill="none" stroke="midnightblue" d="M704.85,-192.96C688.56,-198.63 670.55,-204.86 654,-210.5 639.66,-215.38 624,-220.63 609.82,-225.35"/>
<polygon fill="midnightblue" stroke="midnightblue" points="706.45,-196.11 714.74,-189.51 704.15,-189.5 706.45,-196.11"/>
</g>
<!-- Node8 -->
<g id="node8" class="node">
<title>Node8</title>
<g id="a_node8"><a xlink:href="namespacecpinti_1_1gestionnaire__tache.html#ad386876c980cb034a2f757e09a1c4977" target="_top" xlink:title=" ">
<polygon fill="white" stroke="black" points="297,-208.5 297,-238.5 436,-238.5 436,-208.5 297,-208.5"/>
<text text-anchor="start" x="305" y="-226.5" font-family="Helvetica,sans-Serif" font-size="10.00">cpinti::gestionnaire</text>
<text text-anchor="middle" x="366.5" y="-215.5" font-family="Helvetica,sans-Serif" font-size="10.00">_tache::initialiser_Multitache</text>
</a>
</g>
</g>
<!-- Node1&#45;&gt;Node8 -->
<g id="edge7" class="edge">
<title>Node1&#45;&gt;Node8</title>
<path fill="none" stroke="midnightblue" d="M679.32,-184.32C608.22,-193.26 504.3,-206.31 436.29,-214.86"/>
<polygon fill="midnightblue" stroke="midnightblue" points="680.08,-187.75 689.57,-183.04 679.21,-180.81 680.08,-187.75"/>
</g>
<!-- Node9 -->
<g id="node9" class="node">
<title>Node9</title>
<g id="a_node9"><a xlink:href="namespacecpinti_1_1gestionnaire__tache.html#a640f909bd791a0d1c0f4d87e58fbb5ae" target="_top" xlink:title=" ">
<polygon fill="white" stroke="black" points="498.5,-137.5 498.5,-167.5 627.5,-167.5 627.5,-137.5 498.5,-137.5"/>
<text text-anchor="start" x="506.5" y="-155.5" font-family="Helvetica,sans-Serif" font-size="10.00">cpinti::gestionnaire</text>
<text text-anchor="middle" x="563" y="-144.5" font-family="Helvetica,sans-Serif" font-size="10.00">_tache::Interruption_Timer</text>
</a>
</g>
</g>
<!-- Node1&#45;&gt;Node9 -->
<g id="edge8" class="edge">
<title>Node1&#45;&gt;Node9</title>
<path fill="none" stroke="midnightblue" d="M679.77,-165.66C662.49,-163.7 644.38,-161.64 627.74,-159.75"/>
<polygon fill="midnightblue" stroke="midnightblue" points="679.49,-169.15 689.82,-166.81 680.28,-162.2 679.49,-169.15"/>
</g>
<!-- Node13 -->
<g id="node13" class="node">
<title>Node13</title>
<g id="a_node13"><a xlink:href="namespacecpinti_1_1gestionnaire__tache.html#a9e12afb26403f340d75fd3c881b68da2" target="_top" xlink:title=" ">
<polygon fill="white" stroke="black" points="472,-88.5 472,-118.5 654,-118.5 654,-88.5 472,-88.5"/>
<text text-anchor="start" x="480" y="-106.5" font-family="Helvetica,sans-Serif" font-size="10.00">cpinti::gestionnaire</text>
<text text-anchor="middle" x="563" y="-95.5" font-family="Helvetica,sans-Serif" font-size="10.00">_tache::SAUVEGARDER_CONTEXTE</text>
</a>
</g>
</g>
<!-- Node1&#45;&gt;Node13 -->
<g id="edge14" class="edge">
<title>Node1&#45;&gt;Node13</title>
<path fill="none" stroke="midnightblue" d="M717.5,-155.07C698.53,-146.28 675.37,-136.17 654,-128.5 644.08,-124.94 633.39,-121.57 622.97,-118.54"/>
<polygon fill="midnightblue" stroke="midnightblue" points="716.2,-158.32 726.74,-159.39 719.16,-151.98 716.2,-158.32"/>
</g>
<!-- Node14 -->
<g id="node14" class="node">
<title>Node14</title>
<g id="a_node14"><a xlink:href="namespacecpinti_1_1gestionnaire__tache.html#a673eddce3cf102d14f24f4b0a7b916ba" target="_top" xlink:title=" ">
<polygon fill="white" stroke="black" points="308.5,-44.5 308.5,-74.5 424.5,-74.5 424.5,-44.5 308.5,-44.5"/>
<text text-anchor="start" x="316.5" y="-62.5" font-family="Helvetica,sans-Serif" font-size="10.00">cpinti::gestionnaire</text>
<text text-anchor="middle" x="366.5" y="-51.5" font-family="Helvetica,sans-Serif" font-size="10.00">_tache::switch_context</text>
</a>
</g>
</g>
<!-- Node1&#45;&gt;Node14 -->
<g id="edge16" class="edge">
<title>Node1&#45;&gt;Node14</title>
<path fill="none" stroke="midnightblue" d="M740.66,-151.57C722.26,-128.53 690.48,-94.23 654,-78.5 579.73,-46.48 484.52,-47.42 424.74,-52.4"/>
<polygon fill="midnightblue" stroke="midnightblue" points="737.92,-153.75 746.82,-159.5 743.45,-149.46 737.92,-153.75"/>
</g>
<!-- Node15 -->
<g id="node15" class="node">
<title>Node15</title>
<g id="a_node15"><a xlink:href="wpr__thread_8cpp.html#a520c9d5f72dabb91d0538aae70ecec60" target="_top" xlink:title=" ">
<polygon fill="white" stroke="black" points="495.5,-0.5 495.5,-30.5 630.5,-30.5 630.5,-0.5 495.5,-0.5"/>
<text text-anchor="start" x="503.5" y="-18.5" font-family="Helvetica,sans-Serif" font-size="10.00">xe_cpinti_SORTIR_Section</text>
<text text-anchor="middle" x="563" y="-7.5" font-family="Helvetica,sans-Serif" font-size="10.00">Critique</text>
</a>
</g>
</g>
<!-- Node1&#45;&gt;Node15 -->
<g id="edge17" class="edge">
<title>Node1&#45;&gt;Node15</title>
<path fill="none" stroke="midnightblue" d="M744.08,-150.41C726.82,-121.52 694.23,-73.51 654,-45.5 645.35,-39.48 635.4,-34.59 625.34,-30.65"/>
<polygon fill="midnightblue" stroke="midnightblue" points="741.27,-152.54 749.34,-159.41 747.32,-149.01 741.27,-152.54"/>
</g>
<!-- Node4 -->
<g id="node4" class="node">
<title>Node4</title>
<g id="a_node4"><a xlink:href="namespacecpinti_1_1interception.html#a1772e262cfb40d4016511caeae45b861" target="_top" xlink:title=" ">
<polygon fill="white" stroke="black" points="319,-274.5 319,-304.5 414,-304.5 414,-274.5 319,-274.5"/>
<text text-anchor="start" x="327" y="-292.5" font-family="Helvetica,sans-Serif" font-size="10.00">cpinti::interception</text>
<text text-anchor="middle" x="366.5" y="-281.5" font-family="Helvetica,sans-Serif" font-size="10.00">::Erreur_Fatale</text>
</a>
</g>
</g>
<!-- Node3&#45;&gt;Node4 -->
<g id="edge3" class="edge">
<title>Node3&#45;&gt;Node4</title>
<path fill="none" stroke="midnightblue" d="M505.03,-289.5C476.09,-289.5 441.36,-289.5 414.04,-289.5"/>
<polygon fill="midnightblue" stroke="midnightblue" points="505.41,-293 515.41,-289.5 505.41,-286 505.41,-293"/>
</g>
<!-- Node5 -->
<g id="node5" class="node">
<title>Node5</title>
<g id="a_node5"><a xlink:href="namespacecpinti_1_1interception.html#a4c805b9e79a66eca888512879f8d9e10" target="_top" xlink:title=" ">
<polygon fill="white" stroke="black" points="149,-274.5 149,-304.5 260,-304.5 260,-274.5 149,-274.5"/>
<text text-anchor="start" x="157" y="-292.5" font-family="Helvetica,sans-Serif" font-size="10.00">cpinti::interception</text>
<text text-anchor="middle" x="204.5" y="-281.5" font-family="Helvetica,sans-Serif" font-size="10.00">::Erreur_Fatale_Signal</text>
</a>
</g>
</g>
<!-- Node4&#45;&gt;Node5 -->
<g id="edge4" class="edge">
<title>Node4&#45;&gt;Node5</title>
<path fill="none" stroke="midnightblue" d="M308.65,-289.5C292.89,-289.5 275.81,-289.5 260.17,-289.5"/>
<polygon fill="midnightblue" stroke="midnightblue" points="308.79,-293 318.79,-289.5 308.79,-286 308.79,-293"/>
</g>
<!-- Node6 -->
<g id="node6" class="node">
<title>Node6</title>
<g id="a_node6"><a xlink:href="namespacecpinti_1_1interception.html#a71269205d7f5572d106bf3d75cfcf104" target="_top" xlink:title=" ">
<polygon fill="white" stroke="black" points="0,-269 0,-310 112,-310 112,-269 0,-269"/>
<text text-anchor="start" x="8" y="-298" font-family="Helvetica,sans-Serif" font-size="10.00">cpinti::interception</text>
<text text-anchor="start" x="8" y="-287" font-family="Helvetica,sans-Serif" font-size="10.00">::initialise_interception</text>
<text text-anchor="middle" x="56" y="-276" font-family="Helvetica,sans-Serif" font-size="10.00">_exception</text>
</a>
</g>
</g>
<!-- Node5&#45;&gt;Node6 -->
<g id="edge5" class="edge">
<title>Node5&#45;&gt;Node6</title>
<path fill="none" stroke="midnightblue" d="M138.94,-289.5C129.98,-289.5 120.85,-289.5 112.09,-289.5"/>
<polygon fill="midnightblue" stroke="midnightblue" points="138.95,-293 148.95,-289.5 138.95,-286 138.95,-293"/>
</g>
<!-- Node9&#45;&gt;Node8 -->
<g id="edge12" class="edge">
<title>Node9&#45;&gt;Node8</title>
<path fill="none" stroke="midnightblue" d="M505.49,-170.84C494.35,-174.59 482.78,-178.59 472,-182.5 449.46,-190.67 424.46,-200.45 404.56,-208.42"/>
<polygon fill="midnightblue" stroke="midnightblue" points="506.76,-174.1 515.13,-167.61 504.53,-167.46 506.76,-174.1"/>
</g>
<!-- Node10 -->
<g id="node10" class="node">
<title>Node10</title>
<g id="a_node10"><a xlink:href="namespacecpinti.html#add88e43780041b1587942a9bc7aa6f0d" target="_top" xlink:title=" ">
<polygon fill="white" stroke="black" points="148,-151 148,-170 261,-170 261,-151 148,-151"/>
<text text-anchor="middle" x="204.5" y="-158" font-family="Helvetica,sans-Serif" font-size="10.00">cpinti::cpinti_doevents</text>
</a>
</g>
</g>
<!-- Node9&#45;&gt;Node10 -->
<g id="edge9" class="edge">
<title>Node9&#45;&gt;Node10</title>
<path fill="none" stroke="midnightblue" d="M487.82,-158C470.8,-159.04 452.78,-159.97 436,-160.5 376.4,-162.39 308.1,-162.08 261.41,-161.49"/>
<polygon fill="midnightblue" stroke="midnightblue" points="488.5,-161.46 498.26,-157.33 488.06,-154.47 488.5,-161.46"/>
</g>
<!-- Node11 -->
<g id="node11" class="node">
<title>Node11</title>
<g id="a_node11"><a xlink:href="namespacecpinti.html#a8235499e69d1e950b8ad549075f21a3d" target="_top" xlink:title=" ">
<polygon fill="white" stroke="black" points="314,-132 314,-151 419,-151 419,-132 314,-132"/>
<text text-anchor="middle" x="366.5" y="-139" font-family="Helvetica,sans-Serif" font-size="10.00">cpinti::cpinti_USleep</text>
</a>
</g>
</g>
<!-- Node9&#45;&gt;Node11 -->
<g id="edge10" class="edge">
<title>Node9&#45;&gt;Node11</title>
<path fill="none" stroke="midnightblue" d="M488.21,-148.33C465.15,-147.02 440.21,-145.61 419.02,-144.41"/>
<polygon fill="midnightblue" stroke="midnightblue" points="488.13,-151.83 498.31,-148.9 488.53,-144.84 488.13,-151.83"/>
</g>
<!-- Node12 -->
<g id="node12" class="node">
<title>Node12</title>
<g id="a_node12"><a xlink:href="core_8cpp.html#a8072a106077bf5b87885ed3fbafc7229" target="_top" xlink:title=" ">
<polygon fill="white" stroke="black" points="319,-94 319,-113 414,-113 414,-94 319,-94"/>
<text text-anchor="middle" x="366.5" y="-101" font-family="Helvetica,sans-Serif" font-size="10.00">Interruption_Timer</text>
</a>
</g>
</g>
<!-- Node9&#45;&gt;Node12 -->
<g id="edge13" class="edge">
<title>Node9&#45;&gt;Node12</title>
<path fill="none" stroke="midnightblue" d="M492.52,-135C463.14,-127.59 430.07,-119.26 405.32,-113.03"/>
<polygon fill="midnightblue" stroke="midnightblue" points="491.77,-138.42 502.32,-137.47 493.48,-131.63 491.77,-138.42"/>
</g>
<!-- Node11&#45;&gt;Node10 -->
<g id="edge11" class="edge">
<title>Node11&#45;&gt;Node10</title>
<path fill="none" stroke="midnightblue" d="M303.9,-148.82C289.79,-150.49 274.89,-152.26 261.06,-153.9"/>
<polygon fill="midnightblue" stroke="midnightblue" points="304.48,-152.27 313.99,-147.62 303.65,-145.32 304.48,-152.27"/>
</g>
<!-- Node13&#45;&gt;Node14 -->
<g id="edge15" class="edge">
<title>Node13&#45;&gt;Node14</title>
<path fill="none" stroke="midnightblue" d="M485.72,-86.24C465.34,-81.63 443.66,-76.73 424.51,-72.4"/>
<polygon fill="midnightblue" stroke="midnightblue" points="485.08,-89.69 495.61,-88.48 486.63,-82.86 485.08,-89.69"/>
</g>
</g>
</svg>
