<?xml version="1.0" encoding="UTF-8" standalone="no"?>
<!DOCTYPE svg PUBLIC "-//W3C//DTD SVG 1.1//EN"
 "http://www.w3.org/Graphics/SVG/1.1/DTD/svg11.dtd">
<!-- Generated by graphviz version 2.44.0 ()
 -->
<!-- Title: cpinti::net::cpinti_serveur Pages: 1 -->
<svg width="681pt" height="225pt"
 viewBox="0.00 0.00 681.00 225.35" xmlns="http://www.w3.org/2000/svg" xmlns:xlink="http://www.w3.org/1999/xlink">
<g id="graph0" class="graph" transform="scale(1 1) rotate(0) translate(4 221.35)">
<title>cpinti::net::cpinti_serveur</title>
<polygon fill="white" stroke="transparent" points="-4,4 -4,-221.35 677,-221.35 677,4 -4,4"/>
<!-- Node1 -->
<g id="node1" class="node">
<title>Node1</title>
<g id="a_node1"><a xlink:title=" ">
<polygon fill="#bfbfbf" stroke="black" points="0,-60.22 0,-90.22 86,-90.22 86,-60.22 0,-60.22"/>
<text text-anchor="start" x="8" y="-78.22" font-family="Helvetica,sans-Serif" font-size="10.00">cpinti::net::cpinti</text>
<text text-anchor="middle" x="43" y="-67.22" font-family="Helvetica,sans-Serif" font-size="10.00">_serveur</text>
</a>
</g>
</g>
<!-- Node2 -->
<g id="node2" class="node">
<title>Node2</title>
<g id="a_node2"><a xlink:href="namespacecpinti__dbg.html#a119c14f1b5f4849696decac82a512762" target="_top" xlink:title=" ">
<polygon fill="white" stroke="black" points="423,-185.22 423,-215.22 521,-215.22 521,-185.22 423,-185.22"/>
<text text-anchor="start" x="431" y="-203.22" font-family="Helvetica,sans-Serif" font-size="10.00">cpinti_dbg::CPINTI</text>
<text text-anchor="middle" x="472" y="-192.22" font-family="Helvetica,sans-Serif" font-size="10.00">_DEBUG</text>
</a>
</g>
</g>
<!-- Node1&#45;&gt;Node2 -->
<g id="edge1" class="edge">
<title>Node1&#45;&gt;Node2</title>
<path fill="none" stroke="midnightblue" d="M60.79,-90.4C94.67,-119.89 174.92,-184.04 256,-207.22 307.63,-221.98 369.1,-217.95 413.06,-211.58"/>
<polygon fill="midnightblue" stroke="midnightblue" points="413.64,-215.03 423,-210.06 412.58,-208.12 413.64,-215.03"/>
</g>
<!-- Node4 -->
<g id="node4" class="node">
<title>Node4</title>
<g id="a_node4"><a xlink:href="namespacecpinti.html#af3fb396e744daa5441044b785ca8b200" target="_top" xlink:title=" ">
<polygon fill="white" stroke="black" points="256,-15.72 256,-34.72 387,-34.72 387,-15.72 256,-15.72"/>
<text text-anchor="middle" x="321.5" y="-22.72" font-family="Helvetica,sans-Serif" font-size="10.00">cpinti::cpinti_GEST_BUFF</text>
</a>
</g>
</g>
<!-- Node1&#45;&gt;Node4 -->
<g id="edge3" class="edge">
<title>Node1&#45;&gt;Node4</title>
<path fill="none" stroke="midnightblue" d="M86.3,-67.57C132.06,-59.3 205.5,-46.02 257.94,-36.53"/>
<polygon fill="midnightblue" stroke="midnightblue" points="258.59,-39.97 267.8,-34.75 257.34,-33.09 258.59,-39.97"/>
</g>
<!-- Node5 -->
<g id="node5" class="node">
<title>Node5</title>
<g id="a_node5"><a xlink:href="namespacecpinti_1_1_func___cpinti.html#ab7049ea2cc0148a042e823546c2ef76d" target="_top" xlink:title=" ">
<polygon fill="white" stroke="black" points="424,-10.22 424,-40.22 520,-40.22 520,-10.22 424,-10.22"/>
<text text-anchor="start" x="432" y="-28.22" font-family="Helvetica,sans-Serif" font-size="10.00">cpinti::Func_Cpinti</text>
<text text-anchor="middle" x="472" y="-17.22" font-family="Helvetica,sans-Serif" font-size="10.00">::to_string</text>
</a>
</g>
</g>
<!-- Node1&#45;&gt;Node5 -->
<g id="edge12" class="edge">
<title>Node1&#45;&gt;Node5</title>
<path fill="none" stroke="midnightblue" d="M74.25,-60.17C88.5,-53.47 105.88,-45.84 122,-40.22 234.14,-1.17 268.99,6.96 387,-6.22 395.74,-7.2 404.91,-8.73 413.84,-10.51"/>
<polygon fill="midnightblue" stroke="midnightblue" points="413.27,-13.97 423.78,-12.61 414.72,-7.12 413.27,-13.97"/>
</g>
<!-- Node6 -->
<g id="node6" class="node">
<title>Node6</title>
<g id="a_node6"><a xlink:href="namespacecpinti_1_1net__server.html#a8dd4cfd770dcd100f4ababcc7f3dbaa9" target="_top" xlink:title=" ">
<polygon fill="white" stroke="black" points="122,-73.22 122,-103.22 220,-103.22 220,-73.22 122,-73.22"/>
<text text-anchor="start" x="130" y="-91.22" font-family="Helvetica,sans-Serif" font-size="10.00">cpinti::net_server</text>
<text text-anchor="middle" x="171" y="-80.22" font-family="Helvetica,sans-Serif" font-size="10.00">::Demarrer_serveur</text>
</a>
</g>
</g>
<!-- Node1&#45;&gt;Node6 -->
<g id="edge6" class="edge">
<title>Node1&#45;&gt;Node6</title>
<path fill="none" stroke="midnightblue" d="M86.31,-79.59C94.53,-80.43 103.28,-81.34 111.91,-82.23"/>
<polygon fill="midnightblue" stroke="midnightblue" points="111.63,-85.72 121.94,-83.26 112.35,-78.75 111.63,-85.72"/>
</g>
<!-- Node3 -->
<g id="node3" class="node">
<title>Node3</title>
<g id="a_node3"><a xlink:href="_c_p_c___w_p_r_8h.html#a971c45e904568a2415966a3f7b705e30" target="_top" xlink:title=" ">
<polygon fill="white" stroke="black" points="557,-185.22 557,-215.22 673,-215.22 673,-185.22 557,-185.22"/>
<text text-anchor="start" x="565" y="-203.22" font-family="Helvetica,sans-Serif" font-size="10.00">cpc_cpinti_debug_plus</text>
<text text-anchor="middle" x="615" y="-192.22" font-family="Helvetica,sans-Serif" font-size="10.00">_cpinticore</text>
</a>
</g>
</g>
<!-- Node2&#45;&gt;Node3 -->
<g id="edge2" class="edge">
<title>Node2&#45;&gt;Node3</title>
<path fill="none" stroke="midnightblue" d="M521.13,-200.22C529.39,-200.22 538.1,-200.22 546.75,-200.22"/>
<polygon fill="midnightblue" stroke="midnightblue" points="546.84,-203.72 556.84,-200.22 546.84,-196.72 546.84,-203.72"/>
</g>
<!-- Node4&#45;&gt;Node2 -->
<g id="edge4" class="edge">
<title>Node4&#45;&gt;Node2</title>
<path fill="none" stroke="midnightblue" d="M334.63,-34.78C348.15,-45.74 370.32,-64.6 387,-83.22 413.93,-113.28 440.29,-151.94 456.09,-176.41"/>
<polygon fill="midnightblue" stroke="midnightblue" points="453.28,-178.5 461.61,-185.04 459.18,-174.73 453.28,-178.5"/>
</g>
<!-- Node4&#45;&gt;Node5 -->
<g id="edge5" class="edge">
<title>Node4&#45;&gt;Node5</title>
<path fill="none" stroke="midnightblue" d="M387.2,-25.22C396.08,-25.22 405.14,-25.22 413.87,-25.22"/>
<polygon fill="midnightblue" stroke="midnightblue" points="413.93,-28.72 423.93,-25.22 413.93,-21.72 413.93,-28.72"/>
</g>
<!-- Node6&#45;&gt;Node2 -->
<g id="edge7" class="edge">
<title>Node6&#45;&gt;Node2</title>
<path fill="none" stroke="midnightblue" d="M180.55,-103.33C193.66,-124.88 220.95,-163.76 256,-181.22 304.7,-205.48 367.31,-208.33 412.4,-206.26"/>
<polygon fill="midnightblue" stroke="midnightblue" points="412.81,-209.74 422.6,-205.69 412.42,-202.75 412.81,-209.74"/>
</g>
<!-- Node6&#45;&gt;Node4 -->
<g id="edge8" class="edge">
<title>Node6&#45;&gt;Node4</title>
<path fill="none" stroke="midnightblue" d="M202.86,-73.19C218.62,-65.69 238.19,-56.65 256,-49.22 264.91,-45.5 274.62,-41.74 283.73,-38.33"/>
<polygon fill="midnightblue" stroke="midnightblue" points="285.16,-41.54 293.33,-34.8 282.73,-34.97 285.16,-41.54"/>
</g>
<!-- Node6&#45;&gt;Node5 -->
<g id="edge11" class="edge">
<title>Node6&#45;&gt;Node5</title>
<path fill="none" stroke="midnightblue" d="M220.3,-78.63C263.92,-69.9 329.83,-56.54 387,-44.22 395.71,-42.35 404.91,-40.31 413.91,-38.3"/>
<polygon fill="midnightblue" stroke="midnightblue" points="414.96,-41.65 423.95,-36.04 413.42,-34.82 414.96,-41.65"/>
</g>
<!-- Node7 -->
<g id="node7" class="node">
<title>Node7</title>
<g id="a_node7"><a xlink:href="namespacecpinti_1_1net__server.html#a708ee83cb866dad1998b1b0266b7a33e" target="_top" xlink:title=" ">
<polygon fill="white" stroke="black" points="276.5,-141.22 276.5,-171.22 366.5,-171.22 366.5,-141.22 276.5,-141.22"/>
<text text-anchor="start" x="284.5" y="-159.22" font-family="Helvetica,sans-Serif" font-size="10.00">cpinti::net_server</text>
<text text-anchor="middle" x="321.5" y="-148.22" font-family="Helvetica,sans-Serif" font-size="10.00">::Fermer_socket</text>
</a>
</g>
</g>
<!-- Node6&#45;&gt;Node7 -->
<g id="edge9" class="edge">
<title>Node6&#45;&gt;Node7</title>
<path fill="none" stroke="midnightblue" d="M198.81,-103.37C215.1,-112.3 236.45,-123.51 256,-132.22 259.87,-133.95 263.9,-135.65 267.98,-137.31"/>
<polygon fill="midnightblue" stroke="midnightblue" points="266.93,-140.66 277.52,-141.09 269.51,-134.16 266.93,-140.66"/>
</g>
<!-- Node8 -->
<g id="node8" class="node">
<title>Node8</title>
<g id="a_node8"><a xlink:href="namespacecpinti_1_1_func___cpinti.html#a4c04ec4733d1eae25c28a06400a54000" target="_top" xlink:title=" ">
<polygon fill="white" stroke="black" points="273.5,-92.22 273.5,-122.22 369.5,-122.22 369.5,-92.22 273.5,-92.22"/>
<text text-anchor="start" x="281.5" y="-110.22" font-family="Helvetica,sans-Serif" font-size="10.00">cpinti::Func_Cpinti</text>
<text text-anchor="middle" x="321.5" y="-99.22" font-family="Helvetica,sans-Serif" font-size="10.00">::to_int</text>
</a>
</g>
</g>
<!-- Node6&#45;&gt;Node8 -->
<g id="edge10" class="edge">
<title>Node6&#45;&gt;Node8</title>
<path fill="none" stroke="midnightblue" d="M220.21,-94.39C233.91,-96.14 248.96,-98.07 263.15,-99.88"/>
<polygon fill="midnightblue" stroke="midnightblue" points="262.92,-103.38 273.29,-101.18 263.81,-96.44 262.92,-103.38"/>
</g>
</g>
</svg>
