<?xml version="1.0" encoding="UTF-8" standalone="no"?>
<!DOCTYPE svg PUBLIC "-//W3C//DTD SVG 1.1//EN"
 "http://www.w3.org/Graphics/SVG/1.1/DTD/svg11.dtd">
<!-- Generated by graphviz version 2.44.0 ()
 -->
<!-- Title: cpinti::gestionnaire_tache::cpinti_creer_thread Pages: 1 -->
<svg width="546pt" height="127pt"
 viewBox="0.00 0.00 546.00 127.00" xmlns="http://www.w3.org/2000/svg" xmlns:xlink="http://www.w3.org/1999/xlink">
<g id="graph0" class="graph" transform="scale(1 1) rotate(0) translate(4 123)">
<title>cpinti::gestionnaire_tache::cpinti_creer_thread</title>
<polygon fill="white" stroke="transparent" points="-4,4 -4,-123 542,-123 542,4 -4,4"/>
<!-- Node1 -->
<g id="node1" class="node">
<title>Node1</title>
<g id="a_node1"><a xlink:title=" ">
<polygon fill="#bfbfbf" stroke="black" points="0,-39 0,-80 101,-80 101,-39 0,-39"/>
<text text-anchor="start" x="8" y="-68" font-family="Helvetica,sans-Serif" font-size="10.00">cpinti::gestionnaire</text>
<text text-anchor="start" x="8" y="-57" font-family="Helvetica,sans-Serif" font-size="10.00">_tache::cpinti_creer</text>
<text text-anchor="middle" x="50.5" y="-46" font-family="Helvetica,sans-Serif" font-size="10.00">_thread</text>
</a>
</g>
</g>
<!-- Node2 -->
<g id="node2" class="node">
<title>Node2</title>
<g id="a_node2"><a xlink:href="namespacecpinti_1_1gestionnaire__tache.html#a6e5e5771fd2998d286a459f65136f6ab" target="_top" xlink:title=" ">
<polygon fill="white" stroke="black" points="137,-44.5 137,-74.5 252,-74.5 252,-44.5 137,-44.5"/>
<text text-anchor="start" x="145" y="-62.5" font-family="Helvetica,sans-Serif" font-size="10.00">cpinti::gestionnaire</text>
<text text-anchor="middle" x="194.5" y="-51.5" font-family="Helvetica,sans-Serif" font-size="10.00">_tache::ajouter_Thread</text>
</a>
</g>
</g>
<!-- Node1&#45;&gt;Node2 -->
<g id="edge1" class="edge">
<title>Node1&#45;&gt;Node2</title>
<path fill="none" stroke="midnightblue" d="M101.16,-59.5C109.44,-59.5 118.15,-59.5 126.77,-59.5"/>
<polygon fill="midnightblue" stroke="midnightblue" points="126.82,-63 136.82,-59.5 126.82,-56 126.82,-63"/>
</g>
<!-- Node3 -->
<g id="node3" class="node">
<title>Node3</title>
<g id="a_node3"><a xlink:href="namespacecpinti__dbg.html#a119c14f1b5f4849696decac82a512762" target="_top" xlink:title=" ">
<polygon fill="white" stroke="black" points="288,-88.5 288,-118.5 386,-118.5 386,-88.5 288,-88.5"/>
<text text-anchor="start" x="296" y="-106.5" font-family="Helvetica,sans-Serif" font-size="10.00">cpinti_dbg::CPINTI</text>
<text text-anchor="middle" x="337" y="-95.5" font-family="Helvetica,sans-Serif" font-size="10.00">_DEBUG</text>
</a>
</g>
</g>
<!-- Node1&#45;&gt;Node3 -->
<g id="edge6" class="edge">
<title>Node1&#45;&gt;Node3</title>
<path fill="none" stroke="midnightblue" d="M101.34,-75.06C112.95,-78.24 125.34,-81.29 137,-83.5 183.92,-92.37 237.86,-97.49 277.74,-100.32"/>
<polygon fill="midnightblue" stroke="midnightblue" points="277.6,-103.81 287.82,-101 278.08,-96.83 277.6,-103.81"/>
</g>
<!-- Node6 -->
<g id="node6" class="node">
<title>Node6</title>
<g id="a_node6"><a xlink:href="namespacecpinti_1_1_func___cpinti.html#ab7049ea2cc0148a042e823546c2ef76d" target="_top" xlink:title=" ">
<polygon fill="white" stroke="black" points="289,-0.5 289,-30.5 385,-30.5 385,-0.5 289,-0.5"/>
<text text-anchor="start" x="297" y="-18.5" font-family="Helvetica,sans-Serif" font-size="10.00">cpinti::Func_Cpinti</text>
<text text-anchor="middle" x="337" y="-7.5" font-family="Helvetica,sans-Serif" font-size="10.00">::to_string</text>
</a>
</g>
</g>
<!-- Node1&#45;&gt;Node6 -->
<g id="edge7" class="edge">
<title>Node1&#45;&gt;Node6</title>
<path fill="none" stroke="midnightblue" d="M101.3,-43.22C112.91,-39.9 125.31,-36.75 137,-34.5 184.19,-25.43 238.54,-20.62 278.5,-18.1"/>
<polygon fill="midnightblue" stroke="midnightblue" points="278.83,-21.59 288.6,-17.5 278.41,-14.6 278.83,-21.59"/>
</g>
<!-- Node2&#45;&gt;Node3 -->
<g id="edge2" class="edge">
<title>Node2&#45;&gt;Node3</title>
<path fill="none" stroke="midnightblue" d="M243.46,-74.52C254.64,-78.02 266.66,-81.78 278.21,-85.4"/>
<polygon fill="midnightblue" stroke="midnightblue" points="277.19,-88.75 287.78,-88.4 279.28,-82.07 277.19,-88.75"/>
</g>
<!-- Node5 -->
<g id="node5" class="node">
<title>Node5</title>
<g id="a_node5"><a xlink:href="core_8h.html#a4dd1e87061b5a48e743b560149cb048b" target="_top" xlink:title=" ">
<polygon fill="white" stroke="black" points="294,-50 294,-69 380,-69 380,-50 294,-50"/>
<text text-anchor="middle" x="337" y="-57" font-family="Helvetica,sans-Serif" font-size="10.00">ptr_Update_TID</text>
</a>
</g>
</g>
<!-- Node2&#45;&gt;Node5 -->
<g id="edge4" class="edge">
<title>Node2&#45;&gt;Node5</title>
<path fill="none" stroke="midnightblue" d="M252.24,-59.5C262.64,-59.5 273.44,-59.5 283.7,-59.5"/>
<polygon fill="midnightblue" stroke="midnightblue" points="283.74,-63 293.74,-59.5 283.74,-56 283.74,-63"/>
</g>
<!-- Node2&#45;&gt;Node6 -->
<g id="edge5" class="edge">
<title>Node2&#45;&gt;Node6</title>
<path fill="none" stroke="midnightblue" d="M243.46,-44.48C254.89,-40.9 267.19,-37.05 278.98,-33.36"/>
<polygon fill="midnightblue" stroke="midnightblue" points="280.24,-36.63 288.73,-30.3 278.14,-29.95 280.24,-36.63"/>
</g>
<!-- Node4 -->
<g id="node4" class="node">
<title>Node4</title>
<g id="a_node4"><a xlink:href="_c_p_c___w_p_r_8h.html#a971c45e904568a2415966a3f7b705e30" target="_top" xlink:title=" ">
<polygon fill="white" stroke="black" points="422,-88.5 422,-118.5 538,-118.5 538,-88.5 422,-88.5"/>
<text text-anchor="start" x="430" y="-106.5" font-family="Helvetica,sans-Serif" font-size="10.00">cpc_cpinti_debug_plus</text>
<text text-anchor="middle" x="480" y="-95.5" font-family="Helvetica,sans-Serif" font-size="10.00">_cpinticore</text>
</a>
</g>
</g>
<!-- Node3&#45;&gt;Node4 -->
<g id="edge3" class="edge">
<title>Node3&#45;&gt;Node4</title>
<path fill="none" stroke="midnightblue" d="M386.13,-103.5C394.39,-103.5 403.1,-103.5 411.75,-103.5"/>
<polygon fill="midnightblue" stroke="midnightblue" points="411.84,-107 421.84,-103.5 411.84,-100 411.84,-107"/>
</g>
</g>
</svg>
