<?xml version="1.0" encoding="UTF-8" standalone="no"?>
<!DOCTYPE svg PUBLIC "-//W3C//DTD SVG 1.1//EN"
 "http://www.w3.org/Graphics/SVG/1.1/DTD/svg11.dtd">
<!-- Generated by graphviz version 2.44.0 ()
 -->
<!-- Title: cpinti::net::cpinti_client Pages: 1 -->
<svg width="680pt" height="335pt"
 viewBox="0.00 0.00 680.00 335.43" xmlns="http://www.w3.org/2000/svg" xmlns:xlink="http://www.w3.org/1999/xlink">
<g id="graph0" class="graph" transform="scale(1 1) rotate(0) translate(4 331.43)">
<title>cpinti::net::cpinti_client</title>
<polygon fill="white" stroke="transparent" points="-4,4 -4,-331.43 676,-331.43 676,4 -4,4"/>
<!-- Node1 -->
<g id="node1" class="node">
<title>Node1</title>
<g id="a_node1"><a xlink:title=" ">
<polygon fill="#bfbfbf" stroke="black" points="0,-236.77 0,-266.77 86,-266.77 86,-236.77 0,-236.77"/>
<text text-anchor="start" x="8" y="-254.77" font-family="Helvetica,sans-Serif" font-size="10.00">cpinti::net::cpinti</text>
<text text-anchor="middle" x="43" y="-243.77" font-family="Helvetica,sans-Serif" font-size="10.00">_client</text>
</a>
</g>
</g>
<!-- Node2 -->
<g id="node2" class="node">
<title>Node2</title>
<g id="a_node2"><a xlink:href="namespacecpinti__dbg.html#a119c14f1b5f4849696decac82a512762" target="_top" xlink:title=" ">
<polygon fill="white" stroke="black" points="422,-286.77 422,-316.77 520,-316.77 520,-286.77 422,-286.77"/>
<text text-anchor="start" x="430" y="-304.77" font-family="Helvetica,sans-Serif" font-size="10.00">cpinti_dbg::CPINTI</text>
<text text-anchor="middle" x="471" y="-293.77" font-family="Helvetica,sans-Serif" font-size="10.00">_DEBUG</text>
</a>
</g>
</g>
<!-- Node1&#45;&gt;Node2 -->
<g id="edge1" class="edge">
<title>Node1&#45;&gt;Node2</title>
<path fill="none" stroke="midnightblue" d="M73.49,-266.86C87.88,-273.84 105.58,-281.87 122,-287.77 233.27,-327.79 268.48,-333.9 386,-320.77 394.44,-319.83 403.26,-318.37 411.89,-316.67"/>
<polygon fill="midnightblue" stroke="midnightblue" points="412.82,-320.05 421.9,-314.58 411.39,-313.2 412.82,-320.05"/>
</g>
<!-- Node4 -->
<g id="node4" class="node">
<title>Node4</title>
<g id="a_node4"><a xlink:href="namespacecpinti.html#af3fb396e744daa5441044b785ca8b200" target="_top" xlink:title=" ">
<polygon fill="white" stroke="black" points="251,-292.27 251,-311.27 382,-311.27 382,-292.27 251,-292.27"/>
<text text-anchor="middle" x="316.5" y="-299.27" font-family="Helvetica,sans-Serif" font-size="10.00">cpinti::cpinti_GEST_BUFF</text>
</a>
</g>
</g>
<!-- Node1&#45;&gt;Node4 -->
<g id="edge3" class="edge">
<title>Node1&#45;&gt;Node4</title>
<path fill="none" stroke="midnightblue" d="M86.12,-259.53C130.95,-267.78 202.32,-280.93 253.55,-290.36"/>
<polygon fill="midnightblue" stroke="midnightblue" points="253.05,-293.83 263.51,-292.2 254.31,-286.94 253.05,-293.83"/>
</g>
<!-- Node5 -->
<g id="node5" class="node">
<title>Node5</title>
<g id="a_node5"><a xlink:href="namespacecpinti_1_1_func___cpinti.html#ab7049ea2cc0148a042e823546c2ef76d" target="_top" xlink:title=" ">
<polygon fill="white" stroke="black" points="423,-111.77 423,-141.77 519,-141.77 519,-111.77 423,-111.77"/>
<text text-anchor="start" x="431" y="-129.77" font-family="Helvetica,sans-Serif" font-size="10.00">cpinti::Func_Cpinti</text>
<text text-anchor="middle" x="471" y="-118.77" font-family="Helvetica,sans-Serif" font-size="10.00">::to_string</text>
</a>
</g>
</g>
<!-- Node1&#45;&gt;Node5 -->
<g id="edge14" class="edge">
<title>Node1&#45;&gt;Node5</title>
<path fill="none" stroke="midnightblue" d="M51.39,-236.47C73.59,-192.52 144.58,-66.06 247,-19.77 303.29,5.67 330.44,7.25 386,-19.77 421.03,-36.81 445.79,-76.3 458.97,-102.25"/>
<polygon fill="midnightblue" stroke="midnightblue" points="455.93,-104 463.45,-111.45 462.22,-100.93 455.93,-104"/>
</g>
<!-- Node6 -->
<g id="node6" class="node">
<title>Node6</title>
<g id="a_node6"><a xlink:href="namespacecpinti_1_1net__client.html#a2c0e37d915c8350e880ce82fe14cbe43" target="_top" xlink:title=" ">
<polygon fill="white" stroke="black" points="122,-171.77 122,-201.77 211,-201.77 211,-171.77 122,-171.77"/>
<text text-anchor="start" x="130" y="-189.77" font-family="Helvetica,sans-Serif" font-size="10.00">cpinti::net_client</text>
<text text-anchor="middle" x="166.5" y="-178.77" font-family="Helvetica,sans-Serif" font-size="10.00">::Demarrer_client</text>
</a>
</g>
</g>
<!-- Node1&#45;&gt;Node6 -->
<g id="edge6" class="edge">
<title>Node1&#45;&gt;Node6</title>
<path fill="none" stroke="midnightblue" d="M72.18,-236.7C88.78,-227.82 109.98,-216.48 127.97,-206.85"/>
<polygon fill="midnightblue" stroke="midnightblue" points="129.89,-209.79 137.05,-201.99 126.58,-203.62 129.89,-209.79"/>
</g>
<!-- Node3 -->
<g id="node3" class="node">
<title>Node3</title>
<g id="a_node3"><a xlink:href="_c_p_c___w_p_r_8h.html#a971c45e904568a2415966a3f7b705e30" target="_top" xlink:title=" ">
<polygon fill="white" stroke="black" points="556,-286.77 556,-316.77 672,-316.77 672,-286.77 556,-286.77"/>
<text text-anchor="start" x="564" y="-304.77" font-family="Helvetica,sans-Serif" font-size="10.00">cpc_cpinti_debug_plus</text>
<text text-anchor="middle" x="614" y="-293.77" font-family="Helvetica,sans-Serif" font-size="10.00">_cpinticore</text>
</a>
</g>
</g>
<!-- Node2&#45;&gt;Node3 -->
<g id="edge2" class="edge">
<title>Node2&#45;&gt;Node3</title>
<path fill="none" stroke="midnightblue" d="M520.13,-301.77C528.39,-301.77 537.1,-301.77 545.75,-301.77"/>
<polygon fill="midnightblue" stroke="midnightblue" points="545.84,-305.27 555.84,-301.77 545.84,-298.27 545.84,-305.27"/>
</g>
<!-- Node4&#45;&gt;Node2 -->
<g id="edge4" class="edge">
<title>Node4&#45;&gt;Node2</title>
<path fill="none" stroke="midnightblue" d="M382.17,-301.77C391.95,-301.77 401.99,-301.77 411.62,-301.77"/>
<polygon fill="midnightblue" stroke="midnightblue" points="411.89,-305.27 421.89,-301.77 411.89,-298.27 411.89,-305.27"/>
</g>
<!-- Node4&#45;&gt;Node5 -->
<g id="edge5" class="edge">
<title>Node4&#45;&gt;Node5</title>
<path fill="none" stroke="midnightblue" d="M330.7,-292.16C345.14,-281.3 368.56,-262.66 386,-243.77 413.37,-214.12 439.62,-175.36 455.28,-150.75"/>
<polygon fill="midnightblue" stroke="midnightblue" points="458.38,-152.39 460.74,-142.07 452.45,-148.67 458.38,-152.39"/>
</g>
<!-- Node6&#45;&gt;Node2 -->
<g id="edge8" class="edge">
<title>Node6&#45;&gt;Node2</title>
<path fill="none" stroke="midnightblue" d="M184.63,-201.93C199.98,-214.78 223.63,-232.82 247,-243.77 262.01,-250.81 351.09,-273.05 412.02,-287.86"/>
<polygon fill="midnightblue" stroke="midnightblue" points="411.37,-291.3 421.91,-290.26 413.02,-284.5 411.37,-291.3"/>
</g>
<!-- Node6&#45;&gt;Node4 -->
<g id="edge9" class="edge">
<title>Node6&#45;&gt;Node4</title>
<path fill="none" stroke="midnightblue" d="M176.98,-201.82C190.31,-221.83 216.42,-257.08 247,-277.77 253.24,-281.99 260.31,-285.56 267.47,-288.53"/>
<polygon fill="midnightblue" stroke="midnightblue" points="266.64,-291.96 277.23,-292.23 269.12,-285.41 266.64,-291.96"/>
</g>
<!-- Node6&#45;&gt;Node5 -->
<g id="edge13" class="edge">
<title>Node6&#45;&gt;Node5</title>
<path fill="none" stroke="midnightblue" d="M190.83,-171.64C206.16,-162.5 227,-151.53 247,-145.77 301.84,-129.97 367.17,-126.04 412.89,-125.57"/>
<polygon fill="midnightblue" stroke="midnightblue" points="412.93,-129.07 422.92,-125.52 412.9,-122.07 412.93,-129.07"/>
</g>
<!-- Node7 -->
<g id="node7" class="node">
<title>Node7</title>
<g id="a_node7"><a xlink:href="client_8cpp.html#ae8a0b5e4935368db9e1bb9a11f747815" target="_top" xlink:title=" ">
<polygon fill="white" stroke="black" points="247,-29.27 247,-48.27 386,-48.27 386,-29.27 247,-29.27"/>
<text text-anchor="middle" x="316.5" y="-36.27" font-family="Helvetica,sans-Serif" font-size="10.00">cpc_CCP_Exec_Commande</text>
</a>
</g>
</g>
<!-- Node6&#45;&gt;Node7 -->
<g id="edge7" class="edge">
<title>Node6&#45;&gt;Node7</title>
<path fill="none" stroke="midnightblue" d="M172.66,-171.46C182.61,-144.31 207.04,-87.8 247,-57.77 249.48,-55.9 252.14,-54.22 254.92,-52.7"/>
<polygon fill="midnightblue" stroke="midnightblue" points="256.54,-55.81 264.1,-48.39 253.56,-49.47 256.54,-55.81"/>
</g>
<!-- Node8 -->
<g id="node8" class="node">
<title>Node8</title>
<g id="a_node8"><a xlink:href="namespacecpinti_1_1net__client.html#a7174c9a899461216860c150fe3b86003" target="_top" xlink:title=" ">
<polygon fill="white" stroke="black" points="273.5,-204.77 273.5,-234.77 359.5,-234.77 359.5,-204.77 273.5,-204.77"/>
<text text-anchor="start" x="281.5" y="-222.77" font-family="Helvetica,sans-Serif" font-size="10.00">cpinti::net_client</text>
<text text-anchor="middle" x="316.5" y="-211.77" font-family="Helvetica,sans-Serif" font-size="10.00">::Fermer_socket</text>
</a>
</g>
</g>
<!-- Node6&#45;&gt;Node8 -->
<g id="edge10" class="edge">
<title>Node6&#45;&gt;Node8</title>
<path fill="none" stroke="midnightblue" d="M211.1,-196.49C227.57,-200.16 246.46,-204.38 263.61,-208.2"/>
<polygon fill="midnightblue" stroke="midnightblue" points="262.96,-211.64 273.48,-210.4 264.48,-204.81 262.96,-211.64"/>
</g>
<!-- Node9 -->
<g id="node9" class="node">
<title>Node9</title>
<g id="a_node9"><a xlink:href="namespacecpinti_1_1net__client.html#a02a8d450e9f17d46e14dca63c73da015" target="_top" xlink:title=" ">
<polygon fill="white" stroke="black" points="270,-155.77 270,-185.77 363,-185.77 363,-155.77 270,-155.77"/>
<text text-anchor="start" x="278" y="-173.77" font-family="Helvetica,sans-Serif" font-size="10.00">cpinti::net_client</text>
<text text-anchor="middle" x="316.5" y="-162.77" font-family="Helvetica,sans-Serif" font-size="10.00">::Resolution_DNS</text>
</a>
</g>
</g>
<!-- Node6&#45;&gt;Node9 -->
<g id="edge11" class="edge">
<title>Node6&#45;&gt;Node9</title>
<path fill="none" stroke="midnightblue" d="M211.1,-182.06C226.28,-180.42 243.53,-178.55 259.56,-176.82"/>
<polygon fill="midnightblue" stroke="midnightblue" points="260.33,-180.26 269.89,-175.7 259.58,-173.3 260.33,-180.26"/>
</g>
<!-- Node10 -->
<g id="node10" class="node">
<title>Node10</title>
<g id="a_node10"><a xlink:href="namespacecpinti_1_1net__client.html#ab5606ce2f0b2b7b830015f3c2312c25e" target="_top" xlink:title=" ">
<polygon fill="white" stroke="black" points="273.5,-67.77 273.5,-97.77 359.5,-97.77 359.5,-67.77 273.5,-67.77"/>
<text text-anchor="start" x="281.5" y="-85.77" font-family="Helvetica,sans-Serif" font-size="10.00">cpinti::net_client</text>
<text text-anchor="middle" x="316.5" y="-74.77" font-family="Helvetica,sans-Serif" font-size="10.00">::Taille_Contenu</text>
</a>
</g>
</g>
<!-- Node6&#45;&gt;Node10 -->
<g id="edge12" class="edge">
<title>Node6&#45;&gt;Node10</title>
<path fill="none" stroke="midnightblue" d="M180.91,-171.55C195.8,-155.34 221.15,-129.75 247,-112.77 252.76,-108.99 259.08,-105.48 265.47,-102.31"/>
<polygon fill="midnightblue" stroke="midnightblue" points="267.29,-105.32 274.84,-97.89 264.3,-98.99 267.29,-105.32"/>
</g>
</g>
</svg>
