<?xml version="1.0" encoding="UTF-8" standalone="no"?>
<!DOCTYPE svg PUBLIC "-//W3C//DTD SVG 1.1//EN"
 "http://www.w3.org/Graphics/SVG/1.1/DTD/svg11.dtd">
<!-- Generated by graphviz version 2.44.0 ()
 -->
<!-- Title: cpinti::gestionnaire_tache::ajouter_Thread Pages: 1 -->
<svg width="621pt" height="235pt"
 viewBox="0.00 0.00 621.00 235.00" xmlns="http://www.w3.org/2000/svg" xmlns:xlink="http://www.w3.org/1999/xlink">
<g id="graph0" class="graph" transform="scale(1 1) rotate(0) translate(4 231)">
<title>cpinti::gestionnaire_tache::ajouter_Thread</title>
<polygon fill="white" stroke="transparent" points="-4,4 -4,-231 617,-231 617,4 -4,4"/>
<!-- Node1 -->
<g id="node1" class="node">
<title>Node1</title>
<g id="a_node1"><a xlink:title=" ">
<polygon fill="#bfbfbf" stroke="black" points="0,-76.5 0,-106.5 115,-106.5 115,-76.5 0,-76.5"/>
<text text-anchor="start" x="8" y="-94.5" font-family="Helvetica,sans-Serif" font-size="10.00">cpinti::gestionnaire</text>
<text text-anchor="middle" x="57.5" y="-83.5" font-family="Helvetica,sans-Serif" font-size="10.00">_tache::ajouter_Thread</text>
</a>
</g>
</g>
<!-- Node2 -->
<g id="node2" class="node">
<title>Node2</title>
<g id="a_node2"><a xlink:href="namespacecpinti__dbg.html#a119c14f1b5f4849696decac82a512762" target="_top" xlink:title=" ">
<polygon fill="white" stroke="black" points="339.5,-196.5 339.5,-226.5 437.5,-226.5 437.5,-196.5 339.5,-196.5"/>
<text text-anchor="start" x="347.5" y="-214.5" font-family="Helvetica,sans-Serif" font-size="10.00">cpinti_dbg::CPINTI</text>
<text text-anchor="middle" x="388.5" y="-203.5" font-family="Helvetica,sans-Serif" font-size="10.00">_DEBUG</text>
</a>
</g>
</g>
<!-- Node1&#45;&gt;Node2 -->
<g id="edge1" class="edge">
<title>Node1&#45;&gt;Node2</title>
<path fill="none" stroke="midnightblue" d="M85.05,-106.52C103.24,-116.43 128.13,-129.24 151,-138.5 210.43,-162.57 280.93,-183.38 329.41,-196.55"/>
<polygon fill="midnightblue" stroke="midnightblue" points="328.53,-199.94 339.1,-199.17 330.36,-193.19 328.53,-199.94"/>
</g>
<!-- Node4 -->
<g id="node4" class="node">
<title>Node4</title>
<g id="a_node4"><a xlink:href="namespacecpinti_1_1gestionnaire__tache.html#a640f909bd791a0d1c0f4d87e58fbb5ae" target="_top" xlink:title=" ">
<polygon fill="white" stroke="black" points="151,-98.5 151,-128.5 280,-128.5 280,-98.5 151,-98.5"/>
<text text-anchor="start" x="159" y="-116.5" font-family="Helvetica,sans-Serif" font-size="10.00">cpinti::gestionnaire</text>
<text text-anchor="middle" x="215.5" y="-105.5" font-family="Helvetica,sans-Serif" font-size="10.00">_tache::Interruption_Timer</text>
</a>
</g>
</g>
<!-- Node1&#45;&gt;Node4 -->
<g id="edge3" class="edge">
<title>Node1&#45;&gt;Node4</title>
<path fill="none" stroke="midnightblue" d="M115.26,-99.5C123.59,-100.68 132.27,-101.9 140.87,-103.12"/>
<polygon fill="midnightblue" stroke="midnightblue" points="140.53,-106.6 150.92,-104.53 141.5,-99.67 140.53,-106.6"/>
</g>
<!-- Node8 -->
<g id="node8" class="node">
<title>Node8</title>
<g id="a_node8"><a xlink:href="namespacecpinti_1_1_func___cpinti.html#ab7049ea2cc0148a042e823546c2ef76d" target="_top" xlink:title=" ">
<polygon fill="white" stroke="black" points="340.5,-0.5 340.5,-30.5 436.5,-30.5 436.5,-0.5 340.5,-0.5"/>
<text text-anchor="start" x="348.5" y="-18.5" font-family="Helvetica,sans-Serif" font-size="10.00">cpinti::Func_Cpinti</text>
<text text-anchor="middle" x="388.5" y="-7.5" font-family="Helvetica,sans-Serif" font-size="10.00">::to_string</text>
</a>
</g>
</g>
<!-- Node1&#45;&gt;Node8 -->
<g id="edge10" class="edge">
<title>Node1&#45;&gt;Node8</title>
<path fill="none" stroke="midnightblue" d="M115.39,-83.09C160.4,-75.92 224.66,-64.57 280,-50.5 285.62,-49.07 308.97,-41.5 332.48,-33.76"/>
<polygon fill="midnightblue" stroke="midnightblue" points="333.76,-37.03 342.16,-30.57 331.57,-30.38 333.76,-37.03"/>
</g>
<!-- Node9 -->
<g id="node9" class="node">
<title>Node9</title>
<g id="a_node9"><a xlink:href="core_8h.html#a4dd1e87061b5a48e743b560149cb048b" target="_top" xlink:title=" ">
<polygon fill="white" stroke="black" points="172.5,-22 172.5,-41 258.5,-41 258.5,-22 172.5,-22"/>
<text text-anchor="middle" x="215.5" y="-29" font-family="Helvetica,sans-Serif" font-size="10.00">ptr_Update_TID</text>
</a>
</g>
</g>
<!-- Node1&#45;&gt;Node9 -->
<g id="edge9" class="edge">
<title>Node1&#45;&gt;Node9</title>
<path fill="none" stroke="midnightblue" d="M97.17,-76.35C113.73,-69.89 133.3,-62.29 151,-55.5 160.31,-51.93 170.4,-48.1 179.74,-44.57"/>
<polygon fill="midnightblue" stroke="midnightblue" points="181.02,-47.83 189.14,-41.02 178.55,-41.28 181.02,-47.83"/>
</g>
<!-- Node3 -->
<g id="node3" class="node">
<title>Node3</title>
<g id="a_node3"><a xlink:href="_c_p_c___w_p_r_8h.html#a971c45e904568a2415966a3f7b705e30" target="_top" xlink:title=" ">
<polygon fill="white" stroke="black" points="497,-196.5 497,-226.5 613,-226.5 613,-196.5 497,-196.5"/>
<text text-anchor="start" x="505" y="-214.5" font-family="Helvetica,sans-Serif" font-size="10.00">cpc_cpinti_debug_plus</text>
<text text-anchor="middle" x="555" y="-203.5" font-family="Helvetica,sans-Serif" font-size="10.00">_cpinticore</text>
</a>
</g>
</g>
<!-- Node2&#45;&gt;Node3 -->
<g id="edge2" class="edge">
<title>Node2&#45;&gt;Node3</title>
<path fill="none" stroke="midnightblue" d="M437.52,-211.5C452.91,-211.5 470.25,-211.5 486.76,-211.5"/>
<polygon fill="midnightblue" stroke="midnightblue" points="486.9,-215 496.9,-211.5 486.9,-208 486.9,-215"/>
</g>
<!-- Node4&#45;&gt;Node2 -->
<g id="edge5" class="edge">
<title>Node4&#45;&gt;Node2</title>
<path fill="none" stroke="midnightblue" d="M233.35,-128.67C252.29,-145.06 284.52,-171.04 316,-187.5 320.45,-189.83 325.18,-192 330,-194.01"/>
<polygon fill="midnightblue" stroke="midnightblue" points="328.74,-197.27 339.32,-197.66 331.29,-190.75 328.74,-197.27"/>
</g>
<!-- Node5 -->
<g id="node5" class="node">
<title>Node5</title>
<g id="a_node5"><a xlink:href="namespacecpinti_1_1gestionnaire__tache.html#ad538e6617b7db29fc971ae1980a2e8be" target="_top" xlink:title=" ">
<polygon fill="white" stroke="black" points="316,-147.5 316,-177.5 461,-177.5 461,-147.5 316,-147.5"/>
<text text-anchor="start" x="324" y="-165.5" font-family="Helvetica,sans-Serif" font-size="10.00">cpinti::gestionnaire</text>
<text text-anchor="middle" x="388.5" y="-154.5" font-family="Helvetica,sans-Serif" font-size="10.00">_tache::begin_SectionCritique</text>
</a>
</g>
</g>
<!-- Node4&#45;&gt;Node5 -->
<g id="edge4" class="edge">
<title>Node4&#45;&gt;Node5</title>
<path fill="none" stroke="midnightblue" d="M269.2,-128.6C286.92,-133.68 306.85,-139.39 325.23,-144.66"/>
<polygon fill="midnightblue" stroke="midnightblue" points="324.4,-148.06 334.97,-147.45 326.32,-141.33 324.4,-148.06"/>
</g>
<!-- Node6 -->
<g id="node6" class="node">
<title>Node6</title>
<g id="a_node6"><a xlink:href="namespacecpinti_1_1gestionnaire__tache.html#a1dffbe4de63a3f294858ef36948b3115" target="_top" xlink:title=" ">
<polygon fill="white" stroke="black" points="320,-98.5 320,-128.5 457,-128.5 457,-98.5 320,-98.5"/>
<text text-anchor="start" x="328" y="-116.5" font-family="Helvetica,sans-Serif" font-size="10.00">cpinti::gestionnaire</text>
<text text-anchor="middle" x="388.5" y="-105.5" font-family="Helvetica,sans-Serif" font-size="10.00">_tache::end_SectionCritique</text>
</a>
</g>
</g>
<!-- Node4&#45;&gt;Node6 -->
<g id="edge6" class="edge">
<title>Node4&#45;&gt;Node6</title>
<path fill="none" stroke="midnightblue" d="M280.17,-113.5C289.76,-113.5 299.74,-113.5 309.58,-113.5"/>
<polygon fill="midnightblue" stroke="midnightblue" points="309.76,-117 319.76,-113.5 309.76,-110 309.76,-117"/>
</g>
<!-- Node7 -->
<g id="node7" class="node">
<title>Node7</title>
<g id="a_node7"><a xlink:href="namespacecpinti_1_1gestionnaire__tache.html#a2cb7408de395cda0909727daabbf14d9" target="_top" xlink:title=" ">
<polygon fill="white" stroke="black" points="317,-49.5 317,-79.5 460,-79.5 460,-49.5 317,-49.5"/>
<text text-anchor="start" x="325" y="-67.5" font-family="Helvetica,sans-Serif" font-size="10.00">cpinti::gestionnaire</text>
<text text-anchor="middle" x="388.5" y="-56.5" font-family="Helvetica,sans-Serif" font-size="10.00">_tache::state_SectionCritique</text>
</a>
</g>
</g>
<!-- Node4&#45;&gt;Node7 -->
<g id="edge7" class="edge">
<title>Node4&#45;&gt;Node7</title>
<path fill="none" stroke="midnightblue" d="M269.2,-98.4C286.92,-93.32 306.85,-87.61 325.23,-82.34"/>
<polygon fill="midnightblue" stroke="midnightblue" points="326.32,-85.67 334.97,-79.55 324.4,-78.94 326.32,-85.67"/>
</g>
<!-- Node4&#45;&gt;Node8 -->
<g id="edge8" class="edge">
<title>Node4&#45;&gt;Node8</title>
<path fill="none" stroke="midnightblue" d="M255.37,-98.49C263.91,-94.3 272.6,-89.28 280,-83.5 299.91,-67.94 295.21,-53.86 316,-39.5 320.58,-36.34 325.61,-33.56 330.81,-31.14"/>
<polygon fill="midnightblue" stroke="midnightblue" points="332.45,-34.24 340.31,-27.13 329.73,-27.79 332.45,-34.24"/>
</g>
</g>
</svg>
