<?xml version="1.0" encoding="UTF-8" standalone="no"?>
<!DOCTYPE svg PUBLIC "-//W3C//DTD SVG 1.1//EN"
 "http://www.w3.org/Graphics/SVG/1.1/DTD/svg11.dtd">
<!-- Generated by graphviz version 2.44.0 ()
 -->
<!-- Title: cpinti::interception::Erreur_Fatale_Signal Pages: 1 -->
<svg width="604pt" height="361pt"
 viewBox="0.00 0.00 604.00 361.00" xmlns="http://www.w3.org/2000/svg" xmlns:xlink="http://www.w3.org/1999/xlink">
<g id="graph0" class="graph" transform="scale(1 1) rotate(0) translate(4 357)">
<title>cpinti::interception::Erreur_Fatale_Signal</title>
<polygon fill="white" stroke="transparent" points="-4,4 -4,-357 600,-357 600,4 -4,4"/>
<!-- Node1 -->
<g id="node1" class="node">
<title>Node1</title>
<g id="a_node1"><a xlink:title=" ">
<polygon fill="#bfbfbf" stroke="black" points="0,-171.5 0,-201.5 111,-201.5 111,-171.5 0,-171.5"/>
<text text-anchor="start" x="8" y="-189.5" font-family="Helvetica,sans-Serif" font-size="10.00">cpinti::interception</text>
<text text-anchor="middle" x="55.5" y="-178.5" font-family="Helvetica,sans-Serif" font-size="10.00">::Erreur_Fatale_Signal</text>
</a>
</g>
</g>
<!-- Node2 -->
<g id="node2" class="node">
<title>Node2</title>
<g id="a_node2"><a xlink:href="namespacecpinti_1_1interception.html#a1772e262cfb40d4016511caeae45b861" target="_top" xlink:title=" ">
<polygon fill="white" stroke="black" points="147,-171.5 147,-201.5 242,-201.5 242,-171.5 147,-171.5"/>
<text text-anchor="start" x="155" y="-189.5" font-family="Helvetica,sans-Serif" font-size="10.00">cpinti::interception</text>
<text text-anchor="middle" x="194.5" y="-178.5" font-family="Helvetica,sans-Serif" font-size="10.00">::Erreur_Fatale</text>
</a>
</g>
</g>
<!-- Node1&#45;&gt;Node2 -->
<g id="edge1" class="edge">
<title>Node1&#45;&gt;Node2</title>
<path fill="none" stroke="midnightblue" d="M111.04,-186.5C119.42,-186.5 128.09,-186.5 136.53,-186.5"/>
<polygon fill="midnightblue" stroke="midnightblue" points="136.66,-190 146.66,-186.5 136.66,-183 136.66,-190"/>
</g>
<!-- Node3 -->
<g id="node3" class="node">
<title>Node3</title>
<g id="a_node3"><a xlink:href="namespacecpinti_1_1gestionnaire__tache.html#ad538e6617b7db29fc971ae1980a2e8be" target="_top" xlink:title=" ">
<polygon fill="white" stroke="black" points="278,-322.5 278,-352.5 423,-352.5 423,-322.5 278,-322.5"/>
<text text-anchor="start" x="286" y="-340.5" font-family="Helvetica,sans-Serif" font-size="10.00">cpinti::gestionnaire</text>
<text text-anchor="middle" x="350.5" y="-329.5" font-family="Helvetica,sans-Serif" font-size="10.00">_tache::begin_SectionCritique</text>
</a>
</g>
</g>
<!-- Node2&#45;&gt;Node3 -->
<g id="edge2" class="edge">
<title>Node2&#45;&gt;Node3</title>
<path fill="none" stroke="midnightblue" d="M201.5,-201.62C212.66,-227.89 239.07,-282.06 278,-312.5 280.28,-314.28 282.7,-315.95 285.22,-317.5"/>
<polygon fill="midnightblue" stroke="midnightblue" points="283.63,-320.62 294.08,-322.33 286.98,-314.47 283.63,-320.62"/>
</g>
<!-- Node4 -->
<g id="node4" class="node">
<title>Node4</title>
<g id="a_node4"><a xlink:href="int_8h.html#aff490aa8d020f62512732d4617a114de" target="_top" xlink:title=" ">
<polygon fill="white" stroke="black" points="314.5,-284 314.5,-303 386.5,-303 386.5,-284 314.5,-284"/>
<text text-anchor="middle" x="350.5" y="-291" font-family="Helvetica,sans-Serif" font-size="10.00">cpc_COLOR</text>
</a>
</g>
</g>
<!-- Node2&#45;&gt;Node4 -->
<g id="edge3" class="edge">
<title>Node2&#45;&gt;Node4</title>
<path fill="none" stroke="midnightblue" d="M205.6,-201.71C219.54,-221.48 246.54,-255.7 278,-274.5 286.1,-279.34 295.43,-282.97 304.63,-285.68"/>
<polygon fill="midnightblue" stroke="midnightblue" points="303.93,-289.11 314.49,-288.27 305.71,-282.34 303.93,-289.11"/>
</g>
<!-- Node5 -->
<g id="node5" class="node">
<title>Node5</title>
<g id="a_node5"><a xlink:href="int_8h.html#a7acc1007d11ba847d997e4d3b2fe3983" target="_top" xlink:title=" ">
<polygon fill="white" stroke="black" points="312,-246 312,-265 389,-265 389,-246 312,-246"/>
<text text-anchor="middle" x="350.5" y="-253" font-family="Helvetica,sans-Serif" font-size="10.00">cpc_SCREEN</text>
</a>
</g>
</g>
<!-- Node2&#45;&gt;Node5 -->
<g id="edge4" class="edge">
<title>Node2&#45;&gt;Node5</title>
<path fill="none" stroke="midnightblue" d="M217.41,-201.69C233.57,-212.33 256.41,-226.26 278,-235.5 285.58,-238.74 293.84,-241.62 301.96,-244.1"/>
<polygon fill="midnightblue" stroke="midnightblue" points="301.17,-247.51 311.75,-246.93 303.12,-240.79 301.17,-247.51"/>
</g>
<!-- Node6 -->
<g id="node6" class="node">
<title>Node6</title>
<g id="a_node6"><a xlink:href="namespacecpinti_1_1interception.html#a91bc0bcc1e6af66b82ec707691ec6679" target="_top" xlink:title=" ">
<polygon fill="white" stroke="black" points="303,-196.5 303,-226.5 398,-226.5 398,-196.5 303,-196.5"/>
<text text-anchor="start" x="311" y="-214.5" font-family="Helvetica,sans-Serif" font-size="10.00">cpinti::interception</text>
<text text-anchor="middle" x="350.5" y="-203.5" font-family="Helvetica,sans-Serif" font-size="10.00">::Error_Finalise</text>
</a>
</g>
</g>
<!-- Node2&#45;&gt;Node6 -->
<g id="edge5" class="edge">
<title>Node2&#45;&gt;Node6</title>
<path fill="none" stroke="midnightblue" d="M242.12,-194.07C258.03,-196.65 276,-199.57 292.62,-202.27"/>
<polygon fill="midnightblue" stroke="midnightblue" points="292.34,-205.77 302.77,-203.91 293.46,-198.86 292.34,-205.77"/>
</g>
<!-- Node9 -->
<g id="node9" class="node">
<title>Node9</title>
<g id="a_node9"><a xlink:href="namespacecpinti_1_1interception.html#ad1c99d051b6cfcaa8d4020c010d6e802" target="_top" xlink:title=" ">
<polygon fill="white" stroke="black" points="303,-147.5 303,-177.5 398,-177.5 398,-147.5 303,-147.5"/>
<text text-anchor="start" x="311" y="-165.5" font-family="Helvetica,sans-Serif" font-size="10.00">cpinti::interception</text>
<text text-anchor="middle" x="350.5" y="-154.5" font-family="Helvetica,sans-Serif" font-size="10.00">::Error_Logo</text>
</a>
</g>
</g>
<!-- Node2&#45;&gt;Node9 -->
<g id="edge8" class="edge">
<title>Node2&#45;&gt;Node9</title>
<path fill="none" stroke="midnightblue" d="M242.12,-179.23C258.03,-176.75 276,-173.95 292.62,-171.36"/>
<polygon fill="midnightblue" stroke="midnightblue" points="293.43,-174.78 302.77,-169.78 292.35,-167.86 293.43,-174.78"/>
</g>
<!-- Node10 -->
<g id="node10" class="node">
<title>Node10</title>
<g id="a_node10"><a xlink:href="namespacecpinti_1_1gestionnaire__tache.html#a7fe56d36b9f1a2cc2a0478fdeeced908" target="_top" xlink:title=" ">
<polygon fill="white" stroke="black" points="281,-98.5 281,-128.5 420,-128.5 420,-98.5 281,-98.5"/>
<text text-anchor="start" x="289" y="-116.5" font-family="Helvetica,sans-Serif" font-size="10.00">cpinti::gestionnaire</text>
<text text-anchor="middle" x="350.5" y="-105.5" font-family="Helvetica,sans-Serif" font-size="10.00">_tache::get_NombreThreads</text>
</a>
</g>
</g>
<!-- Node2&#45;&gt;Node10 -->
<g id="edge9" class="edge">
<title>Node2&#45;&gt;Node10</title>
<path fill="none" stroke="midnightblue" d="M217.91,-171.42C234.11,-160.96 256.8,-147.22 278,-137.5 282.06,-135.64 286.31,-133.85 290.62,-132.14"/>
<polygon fill="midnightblue" stroke="midnightblue" points="292.01,-135.36 300.12,-128.54 289.53,-128.81 292.01,-135.36"/>
</g>
<!-- Node11 -->
<g id="node11" class="node">
<title>Node11</title>
<g id="a_node11"><a xlink:href="namespacecpinti_1_1gestionnaire__tache.html#ab076831eb798dd962d6cdf867b7ff8b4" target="_top" xlink:title=" ">
<polygon fill="white" stroke="black" points="282.5,-49.5 282.5,-79.5 418.5,-79.5 418.5,-49.5 282.5,-49.5"/>
<text text-anchor="start" x="290.5" y="-67.5" font-family="Helvetica,sans-Serif" font-size="10.00">cpinti::gestionnaire</text>
<text text-anchor="middle" x="350.5" y="-56.5" font-family="Helvetica,sans-Serif" font-size="10.00">_tache::get_ThreadEnCours</text>
</a>
</g>
</g>
<!-- Node2&#45;&gt;Node11 -->
<g id="edge10" class="edge">
<title>Node2&#45;&gt;Node11</title>
<path fill="none" stroke="midnightblue" d="M204.47,-171.31C217.87,-149.88 245.09,-110.89 278,-88.5 280.26,-86.96 282.62,-85.52 285.06,-84.16"/>
<polygon fill="midnightblue" stroke="midnightblue" points="286.77,-87.22 294.15,-79.61 283.64,-80.96 286.77,-87.22"/>
</g>
<!-- Node12 -->
<g id="node12" class="node">
<title>Node12</title>
<g id="a_node12"><a xlink:href="namespacecpinti_1_1gestionnaire__tache.html#a2cb7408de395cda0909727daabbf14d9" target="_top" xlink:title=" ">
<polygon fill="white" stroke="black" points="279,-0.5 279,-30.5 422,-30.5 422,-0.5 279,-0.5"/>
<text text-anchor="start" x="287" y="-18.5" font-family="Helvetica,sans-Serif" font-size="10.00">cpinti::gestionnaire</text>
<text text-anchor="middle" x="350.5" y="-7.5" font-family="Helvetica,sans-Serif" font-size="10.00">_tache::state_SectionCritique</text>
</a>
</g>
</g>
<!-- Node2&#45;&gt;Node12 -->
<g id="edge11" class="edge">
<title>Node2&#45;&gt;Node12</title>
<path fill="none" stroke="midnightblue" d="M199.98,-171.18C209.44,-141.46 234.27,-75.71 278,-39.5 279.55,-38.22 281.17,-37 282.85,-35.85"/>
<polygon fill="midnightblue" stroke="midnightblue" points="284.86,-38.73 291.66,-30.61 281.28,-32.71 284.86,-38.73"/>
</g>
<!-- Node7 -->
<g id="node7" class="node">
<title>Node7</title>
<g id="a_node7"><a xlink:href="core_8h.html#acb62eccde8459fd70e1f617bdc00c49e" target="_top" xlink:title=" ">
<polygon fill="white" stroke="black" points="471.5,-224 471.5,-243 583.5,-243 583.5,-224 471.5,-224"/>
<text text-anchor="middle" x="527.5" y="-231" font-family="Helvetica,sans-Serif" font-size="10.00">cpc_CX_APM_MODE</text>
</a>
</g>
</g>
<!-- Node6&#45;&gt;Node7 -->
<g id="edge6" class="edge">
<title>Node6&#45;&gt;Node7</title>
<path fill="none" stroke="midnightblue" d="M398.4,-217.4C417.71,-219.82 440.42,-222.68 461.31,-225.3"/>
<polygon fill="midnightblue" stroke="midnightblue" points="461.04,-228.8 471.4,-226.57 461.91,-221.85 461.04,-228.8"/>
</g>
<!-- Node8 -->
<g id="node8" class="node">
<title>Node8</title>
<g id="a_node8"><a xlink:href="namespacecpinti_1_1gestionnaire__tache.html#a1dffbe4de63a3f294858ef36948b3115" target="_top" xlink:title=" ">
<polygon fill="white" stroke="black" points="459,-174.5 459,-204.5 596,-204.5 596,-174.5 459,-174.5"/>
<text text-anchor="start" x="467" y="-192.5" font-family="Helvetica,sans-Serif" font-size="10.00">cpinti::gestionnaire</text>
<text text-anchor="middle" x="527.5" y="-181.5" font-family="Helvetica,sans-Serif" font-size="10.00">_tache::end_SectionCritique</text>
</a>
</g>
</g>
<!-- Node6&#45;&gt;Node8 -->
<g id="edge7" class="edge">
<title>Node6&#45;&gt;Node8</title>
<path fill="none" stroke="midnightblue" d="M398.4,-205.6C413.88,-203.66 431.55,-201.44 448.72,-199.28"/>
<polygon fill="midnightblue" stroke="midnightblue" points="449.26,-202.74 458.74,-198.02 448.39,-195.79 449.26,-202.74"/>
</g>
</g>
</svg>
