<?xml version="1.0" encoding="UTF-8" standalone="no"?>
<!DOCTYPE svg PUBLIC "-//W3C//DTD SVG 1.1//EN"
 "http://www.w3.org/Graphics/SVG/1.1/DTD/svg11.dtd">
<!-- Generated by graphviz version 2.44.0 ()
 -->
<!-- Title: cpinti::net_client::Demarrer_client Pages: 1 -->
<svg width="558pt" height="290pt"
 viewBox="0.00 0.00 558.00 289.50" xmlns="http://www.w3.org/2000/svg" xmlns:xlink="http://www.w3.org/1999/xlink">
<g id="graph0" class="graph" transform="scale(1 1) rotate(0) translate(4 285.5)">
<title>cpinti::net_client::Demarrer_client</title>
<polygon fill="white" stroke="transparent" points="-4,4 -4,-285.5 554,-285.5 554,4 -4,4"/>
<!-- Node1 -->
<g id="node1" class="node">
<title>Node1</title>
<g id="a_node1"><a xlink:title=" ">
<polygon fill="#bfbfbf" stroke="black" points="0,-142.5 0,-172.5 89,-172.5 89,-142.5 0,-142.5"/>
<text text-anchor="start" x="8" y="-160.5" font-family="Helvetica,sans-Serif" font-size="10.00">cpinti::net_client</text>
<text text-anchor="middle" x="44.5" y="-149.5" font-family="Helvetica,sans-Serif" font-size="10.00">::Demarrer_client</text>
</a>
</g>
</g>
<!-- Node2 -->
<g id="node2" class="node">
<title>Node2</title>
<g id="a_node2"><a xlink:href="client_8cpp.html#ae8a0b5e4935368db9e1bb9a11f747815" target="_top" xlink:title=" ">
<polygon fill="white" stroke="black" points="125,-262 125,-281 264,-281 264,-262 125,-262"/>
<text text-anchor="middle" x="194.5" y="-269" font-family="Helvetica,sans-Serif" font-size="10.00">cpc_CCP_Exec_Commande</text>
</a>
</g>
</g>
<!-- Node1&#45;&gt;Node2 -->
<g id="edge1" class="edge">
<title>Node1&#45;&gt;Node2</title>
<path fill="none" stroke="midnightblue" d="M55.25,-172.71C68.69,-192.56 94.73,-227.14 125,-247.5 131.25,-251.71 138.32,-255.26 145.49,-258.23"/>
<polygon fill="midnightblue" stroke="midnightblue" points="144.66,-261.66 155.25,-261.93 147.14,-255.11 144.66,-261.66"/>
</g>
<!-- Node3 -->
<g id="node3" class="node">
<title>Node3</title>
<g id="a_node3"><a xlink:href="namespacecpinti__dbg.html#a119c14f1b5f4849696decac82a512762" target="_top" xlink:title=" ">
<polygon fill="white" stroke="black" points="300,-211.5 300,-241.5 398,-241.5 398,-211.5 300,-211.5"/>
<text text-anchor="start" x="308" y="-229.5" font-family="Helvetica,sans-Serif" font-size="10.00">cpinti_dbg::CPINTI</text>
<text text-anchor="middle" x="349" y="-218.5" font-family="Helvetica,sans-Serif" font-size="10.00">_DEBUG</text>
</a>
</g>
</g>
<!-- Node1&#45;&gt;Node3 -->
<g id="edge2" class="edge">
<title>Node1&#45;&gt;Node3</title>
<path fill="none" stroke="midnightblue" d="M60.69,-172.51C75.64,-186.23 99.84,-205.66 125,-214.5 178.56,-233.32 243.81,-234.54 289.85,-232.13"/>
<polygon fill="midnightblue" stroke="midnightblue" points="290.18,-235.62 299.95,-231.53 289.76,-228.63 290.18,-235.62"/>
</g>
<!-- Node5 -->
<g id="node5" class="node">
<title>Node5</title>
<g id="a_node5"><a xlink:href="namespacecpinti.html#af3fb396e744daa5441044b785ca8b200" target="_top" xlink:title=" ">
<polygon fill="white" stroke="black" points="129,-186 129,-205 260,-205 260,-186 129,-186"/>
<text text-anchor="middle" x="194.5" y="-193" font-family="Helvetica,sans-Serif" font-size="10.00">cpinti::cpinti_GEST_BUFF</text>
</a>
</g>
</g>
<!-- Node1&#45;&gt;Node5 -->
<g id="edge4" class="edge">
<title>Node1&#45;&gt;Node5</title>
<path fill="none" stroke="midnightblue" d="M89.1,-168.7C107.09,-173.31 127.98,-178.68 146.32,-183.39"/>
<polygon fill="midnightblue" stroke="midnightblue" points="145.66,-186.83 156.21,-185.93 147.4,-180.05 145.66,-186.83"/>
</g>
<!-- Node6 -->
<g id="node6" class="node">
<title>Node6</title>
<g id="a_node6"><a xlink:href="namespacecpinti_1_1_func___cpinti.html#ab7049ea2cc0148a042e823546c2ef76d" target="_top" xlink:title=" ">
<polygon fill="white" stroke="black" points="301,-155.5 301,-185.5 397,-185.5 397,-155.5 301,-155.5"/>
<text text-anchor="start" x="309" y="-173.5" font-family="Helvetica,sans-Serif" font-size="10.00">cpinti::Func_Cpinti</text>
<text text-anchor="middle" x="349" y="-162.5" font-family="Helvetica,sans-Serif" font-size="10.00">::to_string</text>
</a>
</g>
</g>
<!-- Node1&#45;&gt;Node6 -->
<g id="edge10" class="edge">
<title>Node1&#45;&gt;Node6</title>
<path fill="none" stroke="midnightblue" d="M89.16,-159.38C142.26,-161.66 232.03,-165.52 290.66,-168.04"/>
<polygon fill="midnightblue" stroke="midnightblue" points="290.72,-171.54 300.86,-168.47 291.02,-164.55 290.72,-171.54"/>
</g>
<!-- Node7 -->
<g id="node7" class="node">
<title>Node7</title>
<g id="a_node7"><a xlink:href="namespacecpinti_1_1net__client.html#a7174c9a899461216860c150fe3b86003" target="_top" xlink:title=" ">
<polygon fill="white" stroke="black" points="151.5,-98.5 151.5,-128.5 237.5,-128.5 237.5,-98.5 151.5,-98.5"/>
<text text-anchor="start" x="159.5" y="-116.5" font-family="Helvetica,sans-Serif" font-size="10.00">cpinti::net_client</text>
<text text-anchor="middle" x="194.5" y="-105.5" font-family="Helvetica,sans-Serif" font-size="10.00">::Fermer_socket</text>
</a>
</g>
</g>
<!-- Node1&#45;&gt;Node7 -->
<g id="edge7" class="edge">
<title>Node1&#45;&gt;Node7</title>
<path fill="none" stroke="midnightblue" d="M89.1,-144.54C105.57,-139.64 124.46,-134.02 141.61,-128.93"/>
<polygon fill="midnightblue" stroke="midnightblue" points="142.89,-132.2 151.48,-125.99 140.9,-125.49 142.89,-132.2"/>
</g>
<!-- Node8 -->
<g id="node8" class="node">
<title>Node8</title>
<g id="a_node8"><a xlink:href="namespacecpinti_1_1net__client.html#a02a8d450e9f17d46e14dca63c73da015" target="_top" xlink:title=" ">
<polygon fill="white" stroke="black" points="148,-49.5 148,-79.5 241,-79.5 241,-49.5 148,-49.5"/>
<text text-anchor="start" x="156" y="-67.5" font-family="Helvetica,sans-Serif" font-size="10.00">cpinti::net_client</text>
<text text-anchor="middle" x="194.5" y="-56.5" font-family="Helvetica,sans-Serif" font-size="10.00">::Resolution_DNS</text>
</a>
</g>
</g>
<!-- Node1&#45;&gt;Node8 -->
<g id="edge8" class="edge">
<title>Node1&#45;&gt;Node8</title>
<path fill="none" stroke="midnightblue" d="M59.43,-142.43C74.36,-127.05 99.39,-103.36 125,-88.5 129.21,-86.06 133.7,-83.81 138.3,-81.75"/>
<polygon fill="midnightblue" stroke="midnightblue" points="139.95,-84.85 147.84,-77.78 137.26,-78.39 139.95,-84.85"/>
</g>
<!-- Node9 -->
<g id="node9" class="node">
<title>Node9</title>
<g id="a_node9"><a xlink:href="namespacecpinti_1_1net__client.html#ab5606ce2f0b2b7b830015f3c2312c25e" target="_top" xlink:title=" ">
<polygon fill="white" stroke="black" points="151.5,-0.5 151.5,-30.5 237.5,-30.5 237.5,-0.5 151.5,-0.5"/>
<text text-anchor="start" x="159.5" y="-18.5" font-family="Helvetica,sans-Serif" font-size="10.00">cpinti::net_client</text>
<text text-anchor="middle" x="194.5" y="-7.5" font-family="Helvetica,sans-Serif" font-size="10.00">::Taille_Contenu</text>
</a>
</g>
</g>
<!-- Node1&#45;&gt;Node9 -->
<g id="edge9" class="edge">
<title>Node1&#45;&gt;Node9</title>
<path fill="none" stroke="midnightblue" d="M51.92,-142.15C63.14,-117.15 88.63,-67.58 125,-39.5 130.11,-35.56 135.91,-32.23 141.92,-29.44"/>
<polygon fill="midnightblue" stroke="midnightblue" points="143.6,-32.53 151.49,-25.46 140.91,-26.07 143.6,-32.53"/>
</g>
<!-- Node4 -->
<g id="node4" class="node">
<title>Node4</title>
<g id="a_node4"><a xlink:href="_c_p_c___w_p_r_8h.html#a971c45e904568a2415966a3f7b705e30" target="_top" xlink:title=" ">
<polygon fill="white" stroke="black" points="434,-211.5 434,-241.5 550,-241.5 550,-211.5 434,-211.5"/>
<text text-anchor="start" x="442" y="-229.5" font-family="Helvetica,sans-Serif" font-size="10.00">cpc_cpinti_debug_plus</text>
<text text-anchor="middle" x="492" y="-218.5" font-family="Helvetica,sans-Serif" font-size="10.00">_cpinticore</text>
</a>
</g>
</g>
<!-- Node3&#45;&gt;Node4 -->
<g id="edge3" class="edge">
<title>Node3&#45;&gt;Node4</title>
<path fill="none" stroke="midnightblue" d="M398.13,-226.5C406.39,-226.5 415.1,-226.5 423.75,-226.5"/>
<polygon fill="midnightblue" stroke="midnightblue" points="423.84,-230 433.84,-226.5 423.84,-223 423.84,-230"/>
</g>
<!-- Node5&#45;&gt;Node3 -->
<g id="edge5" class="edge">
<title>Node5&#45;&gt;Node3</title>
<path fill="none" stroke="midnightblue" d="M242.5,-205.05C257.43,-208.09 274.13,-211.48 289.75,-214.66"/>
<polygon fill="midnightblue" stroke="midnightblue" points="289.34,-218.15 299.84,-216.71 290.74,-211.29 289.34,-218.15"/>
</g>
<!-- Node5&#45;&gt;Node6 -->
<g id="edge6" class="edge">
<title>Node5&#45;&gt;Node6</title>
<path fill="none" stroke="midnightblue" d="M253.59,-185.98C265.82,-183.97 278.71,-181.86 290.91,-179.86"/>
<polygon fill="midnightblue" stroke="midnightblue" points="291.65,-183.28 300.96,-178.21 290.52,-176.38 291.65,-183.28"/>
</g>
</g>
</svg>
