<?xml version="1.0" encoding="UTF-8" standalone="no"?>
<!DOCTYPE svg PUBLIC "-//W3C//DTD SVG 1.1//EN"
 "http://www.w3.org/Graphics/SVG/1.1/DTD/svg11.dtd">
<!-- Generated by graphviz version 2.44.0 ()
 -->
<!-- Title: cpinti::gestionnaire_tache::begin_SectionCritique Pages: 1 -->
<svg width="695pt" height="345pt"
 viewBox="0.00 0.00 695.00 345.00" xmlns="http://www.w3.org/2000/svg" xmlns:xlink="http://www.w3.org/1999/xlink">
<g id="graph0" class="graph" transform="scale(1 1) rotate(0) translate(4 341)">
<title>cpinti::gestionnaire_tache::begin_SectionCritique</title>
<polygon fill="white" stroke="transparent" points="-4,4 -4,-341 691,-341 691,4 -4,4"/>
<!-- Node1 -->
<g id="node1" class="node">
<title>Node1</title>
<g id="a_node1"><a xlink:title=" ">
<polygon fill="#bfbfbf" stroke="black" points="542,-164.5 542,-194.5 687,-194.5 687,-164.5 542,-164.5"/>
<text text-anchor="start" x="550" y="-182.5" font-family="Helvetica,sans-Serif" font-size="10.00">cpinti::gestionnaire</text>
<text text-anchor="middle" x="614.5" y="-171.5" font-family="Helvetica,sans-Serif" font-size="10.00">_tache::begin_SectionCritique</text>
</a>
</g>
</g>
<!-- Node2 -->
<g id="node2" class="node">
<title>Node2</title>
<g id="a_node2"><a xlink:href="namespacecpinti_1_1gestionnaire__tache.html#a785f49984308a281ea2220d2dea93f63" target="_top" xlink:title=" ">
<polygon fill="white" stroke="black" points="360,-306.5 360,-336.5 470,-336.5 470,-306.5 360,-306.5"/>
<text text-anchor="start" x="368" y="-324.5" font-family="Helvetica,sans-Serif" font-size="10.00">cpinti::gestionnaire</text>
<text text-anchor="middle" x="415" y="-313.5" font-family="Helvetica,sans-Serif" font-size="10.00">_tache::ajouter_Timer</text>
</a>
</g>
</g>
<!-- Node1&#45;&gt;Node2 -->
<g id="edge1" class="edge">
<title>Node1&#45;&gt;Node2</title>
<path fill="none" stroke="midnightblue" d="M598.23,-203.17C579.65,-230.05 545.78,-273.31 506,-297.5 495.22,-304.05 482.66,-308.84 470.39,-312.33"/>
<polygon fill="midnightblue" stroke="midnightblue" points="601.23,-204.97 603.93,-194.73 595.43,-201.05 601.23,-204.97"/>
</g>
<!-- Node3 -->
<g id="node3" class="node">
<title>Node3</title>
<g id="a_node3"><a xlink:href="namespacecpinti_1_1interception.html#a1772e262cfb40d4016511caeae45b861" target="_top" xlink:title=" ">
<polygon fill="white" stroke="black" points="367.5,-257.5 367.5,-287.5 462.5,-287.5 462.5,-257.5 367.5,-257.5"/>
<text text-anchor="start" x="375.5" y="-275.5" font-family="Helvetica,sans-Serif" font-size="10.00">cpinti::interception</text>
<text text-anchor="middle" x="415" y="-264.5" font-family="Helvetica,sans-Serif" font-size="10.00">::Erreur_Fatale</text>
</a>
</g>
</g>
<!-- Node1&#45;&gt;Node3 -->
<g id="edge2" class="edge">
<title>Node1&#45;&gt;Node3</title>
<path fill="none" stroke="midnightblue" d="M585.84,-200.68C564.9,-215.84 534.89,-235.75 506,-248.5 492.39,-254.51 476.94,-259.3 462.73,-262.97"/>
<polygon fill="midnightblue" stroke="midnightblue" points="587.97,-203.45 593.96,-194.71 583.83,-197.81 587.97,-203.45"/>
</g>
<!-- Node6 -->
<g id="node6" class="node">
<title>Node6</title>
<g id="a_node6"><a xlink:href="namespacecpinti_1_1gestionnaire__tache.html#a8ceefba5730150b183a64422c1520ce2" target="_top" xlink:title=" ">
<polygon fill="white" stroke="black" points="366.5,-208.5 366.5,-238.5 463.5,-238.5 463.5,-208.5 366.5,-208.5"/>
<text text-anchor="start" x="374.5" y="-226.5" font-family="Helvetica,sans-Serif" font-size="10.00">cpinti::gestionnaire</text>
<text text-anchor="middle" x="415" y="-215.5" font-family="Helvetica,sans-Serif" font-size="10.00">_tache::IamInLive</text>
</a>
</g>
</g>
<!-- Node1&#45;&gt;Node6 -->
<g id="edge5" class="edge">
<title>Node1&#45;&gt;Node6</title>
<path fill="none" stroke="midnightblue" d="M536.08,-196.75C511.59,-202.2 485.25,-208.07 463.51,-212.92"/>
<polygon fill="midnightblue" stroke="midnightblue" points="537.08,-200.11 546.08,-194.52 535.56,-193.28 537.08,-200.11"/>
</g>
<!-- Node7 -->
<g id="node7" class="node">
<title>Node7</title>
<g id="a_node7"><a xlink:href="namespacecpinti_1_1gestionnaire__tache.html#ad386876c980cb034a2f757e09a1c4977" target="_top" xlink:title=" ">
<polygon fill="white" stroke="black" points="149,-213.5 149,-243.5 288,-243.5 288,-213.5 149,-213.5"/>
<text text-anchor="start" x="157" y="-231.5" font-family="Helvetica,sans-Serif" font-size="10.00">cpinti::gestionnaire</text>
<text text-anchor="middle" x="218.5" y="-220.5" font-family="Helvetica,sans-Serif" font-size="10.00">_tache::initialiser_Multitache</text>
</a>
</g>
</g>
<!-- Node1&#45;&gt;Node7 -->
<g id="edge6" class="edge">
<title>Node1&#45;&gt;Node7</title>
<path fill="none" stroke="midnightblue" d="M531.68,-180.76C473.41,-182.72 393.44,-187.59 324,-199.5 304.7,-202.81 283.84,-208.22 265.86,-213.47"/>
<polygon fill="midnightblue" stroke="midnightblue" points="532.05,-184.25 541.94,-180.44 531.83,-177.25 532.05,-184.25"/>
</g>
<!-- Node8 -->
<g id="node8" class="node">
<title>Node8</title>
<g id="a_node8"><a xlink:href="namespacecpinti_1_1gestionnaire__tache.html#a640f909bd791a0d1c0f4d87e58fbb5ae" target="_top" xlink:title=" ">
<polygon fill="white" stroke="black" points="350.5,-120.5 350.5,-150.5 479.5,-150.5 479.5,-120.5 350.5,-120.5"/>
<text text-anchor="start" x="358.5" y="-138.5" font-family="Helvetica,sans-Serif" font-size="10.00">cpinti::gestionnaire</text>
<text text-anchor="middle" x="415" y="-127.5" font-family="Helvetica,sans-Serif" font-size="10.00">_tache::Interruption_Timer</text>
</a>
</g>
</g>
<!-- Node1&#45;&gt;Node8 -->
<g id="edge7" class="edge">
<title>Node1&#45;&gt;Node8</title>
<path fill="none" stroke="midnightblue" d="M536.14,-162.27C517.48,-158.11 497.74,-153.71 479.78,-149.71"/>
<polygon fill="midnightblue" stroke="midnightblue" points="535.56,-165.72 546.08,-164.48 537.08,-158.89 535.56,-165.72"/>
</g>
<!-- Node14 -->
<g id="node14" class="node">
<title>Node14</title>
<g id="a_node14"><a xlink:href="namespacecpinti_1_1gestionnaire__tache.html#a9e12afb26403f340d75fd3c881b68da2" target="_top" xlink:title=" ">
<polygon fill="white" stroke="black" points="324,-64.5 324,-94.5 506,-94.5 506,-64.5 324,-64.5"/>
<text text-anchor="start" x="332" y="-82.5" font-family="Helvetica,sans-Serif" font-size="10.00">cpinti::gestionnaire</text>
<text text-anchor="middle" x="415" y="-71.5" font-family="Helvetica,sans-Serif" font-size="10.00">_tache::SAUVEGARDER_CONTEXTE</text>
</a>
</g>
</g>
<!-- Node1&#45;&gt;Node14 -->
<g id="edge15" class="edge">
<title>Node1&#45;&gt;Node14</title>
<path fill="none" stroke="midnightblue" d="M584.02,-158.33C562.98,-143.86 533.63,-124.94 506,-111.5 492.88,-105.12 478.14,-99.34 464.45,-94.51"/>
<polygon fill="midnightblue" stroke="midnightblue" points="582.29,-161.39 592.49,-164.23 586.28,-155.64 582.29,-161.39"/>
</g>
<!-- Node15 -->
<g id="node15" class="node">
<title>Node15</title>
<g id="a_node15"><a xlink:href="namespacecpinti_1_1gestionnaire__tache.html#a673eddce3cf102d14f24f4b0a7b916ba" target="_top" xlink:title=" ">
<polygon fill="white" stroke="black" points="160.5,-0.5 160.5,-30.5 276.5,-30.5 276.5,-0.5 160.5,-0.5"/>
<text text-anchor="start" x="168.5" y="-18.5" font-family="Helvetica,sans-Serif" font-size="10.00">cpinti::gestionnaire</text>
<text text-anchor="middle" x="218.5" y="-7.5" font-family="Helvetica,sans-Serif" font-size="10.00">_tache::switch_context</text>
</a>
</g>
</g>
<!-- Node1&#45;&gt;Node15 -->
<g id="edge17" class="edge">
<title>Node1&#45;&gt;Node15</title>
<path fill="none" stroke="midnightblue" d="M600.45,-155.73C583.05,-126.55 549.34,-78.06 506,-54.5 434,-15.36 337.32,-10.28 276.72,-11.74"/>
<polygon fill="midnightblue" stroke="midnightblue" points="597.47,-157.57 605.52,-164.47 603.53,-154.06 597.47,-157.57"/>
</g>
<!-- Node4 -->
<g id="node4" class="node">
<title>Node4</title>
<g id="a_node4"><a xlink:href="namespacecpinti_1_1interception.html#a4c805b9e79a66eca888512879f8d9e10" target="_top" xlink:title=" ">
<polygon fill="white" stroke="black" points="163,-262.5 163,-292.5 274,-292.5 274,-262.5 163,-262.5"/>
<text text-anchor="start" x="171" y="-280.5" font-family="Helvetica,sans-Serif" font-size="10.00">cpinti::interception</text>
<text text-anchor="middle" x="218.5" y="-269.5" font-family="Helvetica,sans-Serif" font-size="10.00">::Erreur_Fatale_Signal</text>
</a>
</g>
</g>
<!-- Node3&#45;&gt;Node4 -->
<g id="edge3" class="edge">
<title>Node3&#45;&gt;Node4</title>
<path fill="none" stroke="midnightblue" d="M357.28,-273.96C331.14,-274.63 300.24,-275.42 274.34,-276.09"/>
<polygon fill="midnightblue" stroke="midnightblue" points="357.51,-277.45 367.41,-273.7 357.33,-270.46 357.51,-277.45"/>
</g>
<!-- Node5 -->
<g id="node5" class="node">
<title>Node5</title>
<g id="a_node5"><a xlink:href="namespacecpinti_1_1interception.html#a71269205d7f5572d106bf3d75cfcf104" target="_top" xlink:title=" ">
<polygon fill="white" stroke="black" points="0.5,-257 0.5,-298 112.5,-298 112.5,-257 0.5,-257"/>
<text text-anchor="start" x="8.5" y="-286" font-family="Helvetica,sans-Serif" font-size="10.00">cpinti::interception</text>
<text text-anchor="start" x="8.5" y="-275" font-family="Helvetica,sans-Serif" font-size="10.00">::initialise_interception</text>
<text text-anchor="middle" x="56.5" y="-264" font-family="Helvetica,sans-Serif" font-size="10.00">_exception</text>
</a>
</g>
</g>
<!-- Node4&#45;&gt;Node5 -->
<g id="edge4" class="edge">
<title>Node4&#45;&gt;Node5</title>
<path fill="none" stroke="midnightblue" d="M152.84,-277.5C139.53,-277.5 125.63,-277.5 112.68,-277.5"/>
<polygon fill="midnightblue" stroke="midnightblue" points="152.88,-281 162.88,-277.5 152.88,-274 152.88,-281"/>
</g>
<!-- Node8&#45;&gt;Node7 -->
<g id="edge13" class="edge">
<title>Node8&#45;&gt;Node7</title>
<path fill="none" stroke="midnightblue" d="M345.04,-154.42C337.68,-157.61 330.52,-161.29 324,-165.5 304.19,-178.3 307.72,-191.55 288,-204.5 282.84,-207.89 277.14,-210.86 271.31,-213.45"/>
<polygon fill="midnightblue" stroke="midnightblue" points="346.47,-157.61 354.42,-150.62 343.84,-151.13 346.47,-157.61"/>
</g>
<!-- Node9 -->
<g id="node9" class="node">
<title>Node9</title>
<g id="a_node9"><a xlink:href="namespacecpinti_1_1gestionnaire__tache.html#a6e5e5771fd2998d286a459f65136f6ab" target="_top" xlink:title=" ">
<polygon fill="white" stroke="black" points="161,-164.5 161,-194.5 276,-194.5 276,-164.5 161,-164.5"/>
<text text-anchor="start" x="169" y="-182.5" font-family="Helvetica,sans-Serif" font-size="10.00">cpinti::gestionnaire</text>
<text text-anchor="middle" x="218.5" y="-171.5" font-family="Helvetica,sans-Serif" font-size="10.00">_tache::ajouter_Thread</text>
</a>
</g>
</g>
<!-- Node8&#45;&gt;Node9 -->
<g id="edge8" class="edge">
<title>Node8&#45;&gt;Node9</title>
<path fill="none" stroke="midnightblue" d="M340.34,-152.16C319.06,-156.98 296.18,-162.15 276.12,-166.69"/>
<polygon fill="midnightblue" stroke="midnightblue" points="341.33,-155.53 350.31,-149.91 339.79,-148.7 341.33,-155.53"/>
</g>
<!-- Node11 -->
<g id="node11" class="node">
<title>Node11</title>
<g id="a_node11"><a xlink:href="namespacecpinti.html#add88e43780041b1587942a9bc7aa6f0d" target="_top" xlink:title=" ">
<polygon fill="white" stroke="black" points="0,-105 0,-124 113,-124 113,-105 0,-105"/>
<text text-anchor="middle" x="56.5" y="-112" font-family="Helvetica,sans-Serif" font-size="10.00">cpinti::cpinti_doevents</text>
</a>
</g>
</g>
<!-- Node8&#45;&gt;Node11 -->
<g id="edge10" class="edge">
<title>Node8&#45;&gt;Node11</title>
<path fill="none" stroke="midnightblue" d="M340.12,-131.15C272.57,-127.17 174.16,-121.37 113.07,-117.77"/>
<polygon fill="midnightblue" stroke="midnightblue" points="340.08,-134.65 350.26,-131.75 340.49,-127.66 340.08,-134.65"/>
</g>
<!-- Node12 -->
<g id="node12" class="node">
<title>Node12</title>
<g id="a_node12"><a xlink:href="namespacecpinti.html#a8235499e69d1e950b8ad549075f21a3d" target="_top" xlink:title=" ">
<polygon fill="white" stroke="black" points="166,-88 166,-107 271,-107 271,-88 166,-88"/>
<text text-anchor="middle" x="218.5" y="-95" font-family="Helvetica,sans-Serif" font-size="10.00">cpinti::cpinti_USleep</text>
</a>
</g>
</g>
<!-- Node8&#45;&gt;Node12 -->
<g id="edge11" class="edge">
<title>Node8&#45;&gt;Node12</title>
<path fill="none" stroke="midnightblue" d="M340.46,-121.13C316.3,-116.41 290.06,-111.28 268.21,-107.02"/>
<polygon fill="midnightblue" stroke="midnightblue" points="339.83,-124.57 350.31,-123.06 341.17,-117.7 339.83,-124.57"/>
</g>
<!-- Node13 -->
<g id="node13" class="node">
<title>Node13</title>
<g id="a_node13"><a xlink:href="core_8cpp.html#a8072a106077bf5b87885ed3fbafc7229" target="_top" xlink:title=" ">
<polygon fill="white" stroke="black" points="171,-50 171,-69 266,-69 266,-50 171,-50"/>
<text text-anchor="middle" x="218.5" y="-57" font-family="Helvetica,sans-Serif" font-size="10.00">Interruption_Timer</text>
</a>
</g>
</g>
<!-- Node8&#45;&gt;Node13 -->
<g id="edge14" class="edge">
<title>Node8&#45;&gt;Node13</title>
<path fill="none" stroke="midnightblue" d="M354.51,-116.88C344.14,-112.92 333.6,-108.43 324,-103.5 306.67,-94.6 305.63,-86.78 288,-78.5 280.07,-74.78 271.27,-71.66 262.69,-69.09"/>
<polygon fill="midnightblue" stroke="midnightblue" points="353.37,-120.19 363.96,-120.36 355.79,-113.62 353.37,-120.19"/>
</g>
<!-- Node10 -->
<g id="node10" class="node">
<title>Node10</title>
<g id="a_node10"><a xlink:href="namespacecpinti_1_1gestionnaire__tache.html#a0c6d8878452d6e0ebb31a9ae9910d859" target="_top" xlink:title=" ">
<polygon fill="white" stroke="black" points="6,-159 6,-200 107,-200 107,-159 6,-159"/>
<text text-anchor="start" x="14" y="-188" font-family="Helvetica,sans-Serif" font-size="10.00">cpinti::gestionnaire</text>
<text text-anchor="start" x="14" y="-177" font-family="Helvetica,sans-Serif" font-size="10.00">_tache::cpinti_creer</text>
<text text-anchor="middle" x="56.5" y="-166" font-family="Helvetica,sans-Serif" font-size="10.00">_thread</text>
</a>
</g>
</g>
<!-- Node9&#45;&gt;Node10 -->
<g id="edge9" class="edge">
<title>Node9&#45;&gt;Node10</title>
<path fill="none" stroke="midnightblue" d="M150.22,-179.5C135.73,-179.5 120.67,-179.5 107.01,-179.5"/>
<polygon fill="midnightblue" stroke="midnightblue" points="150.64,-183 160.64,-179.5 150.64,-176 150.64,-183"/>
</g>
<!-- Node12&#45;&gt;Node11 -->
<g id="edge12" class="edge">
<title>Node12&#45;&gt;Node11</title>
<path fill="none" stroke="midnightblue" d="M155.9,-104.05C141.79,-105.54 126.89,-107.13 113.06,-108.6"/>
<polygon fill="midnightblue" stroke="midnightblue" points="156.42,-107.51 165.99,-102.97 155.68,-100.55 156.42,-107.51"/>
</g>
<!-- Node14&#45;&gt;Node15 -->
<g id="edge16" class="edge">
<title>Node14&#45;&gt;Node15</title>
<path fill="none" stroke="midnightblue" d="M358.64,-61.28C329.06,-51.55 293.11,-39.72 265.15,-30.52"/>
<polygon fill="midnightblue" stroke="midnightblue" points="357.81,-64.69 368.4,-64.49 359.99,-58.04 357.81,-64.69"/>
</g>
</g>
</svg>
