<?xml version="1.0" encoding="UTF-8" standalone="no"?>
<!DOCTYPE svg PUBLIC "-//W3C//DTD SVG 1.1//EN"
 "http://www.w3.org/Graphics/SVG/1.1/DTD/svg11.dtd">
<!-- Generated by graphviz version 2.44.0 ()
 -->
<!-- Title: cpinti::gestionnaire_tache::cpinti_creer_thread Pages: 1 -->
<svg width="758pt" height="235pt"
 viewBox="0.00 0.00 758.00 235.00" xmlns="http://www.w3.org/2000/svg" xmlns:xlink="http://www.w3.org/1999/xlink">
<g id="graph0" class="graph" transform="scale(1 1) rotate(0) translate(4 231)">
<title>cpinti::gestionnaire_tache::cpinti_creer_thread</title>
<polygon fill="white" stroke="transparent" points="-4,4 -4,-231 754,-231 754,4 -4,4"/>
<!-- Node1 -->
<g id="node1" class="node">
<title>Node1</title>
<g id="a_node1"><a xlink:title=" ">
<polygon fill="#bfbfbf" stroke="black" points="0,-99 0,-140 101,-140 101,-99 0,-99"/>
<text text-anchor="start" x="8" y="-128" font-family="Helvetica,sans-Serif" font-size="10.00">cpinti::gestionnaire</text>
<text text-anchor="start" x="8" y="-117" font-family="Helvetica,sans-Serif" font-size="10.00">_tache::cpinti_creer</text>
<text text-anchor="middle" x="50.5" y="-106" font-family="Helvetica,sans-Serif" font-size="10.00">_thread</text>
</a>
</g>
</g>
<!-- Node2 -->
<g id="node2" class="node">
<title>Node2</title>
<g id="a_node2"><a xlink:href="namespacecpinti_1_1gestionnaire__tache.html#a6e5e5771fd2998d286a459f65136f6ab" target="_top" xlink:title=" ">
<polygon fill="white" stroke="black" points="137,-104.5 137,-134.5 252,-134.5 252,-104.5 137,-104.5"/>
<text text-anchor="start" x="145" y="-122.5" font-family="Helvetica,sans-Serif" font-size="10.00">cpinti::gestionnaire</text>
<text text-anchor="middle" x="194.5" y="-111.5" font-family="Helvetica,sans-Serif" font-size="10.00">_tache::ajouter_Thread</text>
</a>
</g>
</g>
<!-- Node1&#45;&gt;Node2 -->
<g id="edge1" class="edge">
<title>Node1&#45;&gt;Node2</title>
<path fill="none" stroke="midnightblue" d="M101.16,-119.5C109.44,-119.5 118.15,-119.5 126.77,-119.5"/>
<polygon fill="midnightblue" stroke="midnightblue" points="126.82,-123 136.82,-119.5 126.82,-116 126.82,-123"/>
</g>
<!-- Node3 -->
<g id="node3" class="node">
<title>Node3</title>
<g id="a_node3"><a xlink:href="namespacecpinti__dbg.html#a119c14f1b5f4849696decac82a512762" target="_top" xlink:title=" ">
<polygon fill="white" stroke="black" points="476.5,-196.5 476.5,-226.5 574.5,-226.5 574.5,-196.5 476.5,-196.5"/>
<text text-anchor="start" x="484.5" y="-214.5" font-family="Helvetica,sans-Serif" font-size="10.00">cpinti_dbg::CPINTI</text>
<text text-anchor="middle" x="525.5" y="-203.5" font-family="Helvetica,sans-Serif" font-size="10.00">_DEBUG</text>
</a>
</g>
</g>
<!-- Node1&#45;&gt;Node3 -->
<g id="edge12" class="edge">
<title>Node1&#45;&gt;Node3</title>
<path fill="none" stroke="midnightblue" d="M101.05,-137.59C148.4,-154.11 222.12,-177.82 288,-190.5 347.96,-202.04 417.72,-207.25 465.85,-209.6"/>
<polygon fill="midnightblue" stroke="midnightblue" points="465.94,-213.11 476.09,-210.07 466.26,-206.12 465.94,-213.11"/>
</g>
<!-- Node9 -->
<g id="node9" class="node">
<title>Node9</title>
<g id="a_node9"><a xlink:href="namespacecpinti_1_1_func___cpinti.html#ab7049ea2cc0148a042e823546c2ef76d" target="_top" xlink:title=" ">
<polygon fill="white" stroke="black" points="477.5,-0.5 477.5,-30.5 573.5,-30.5 573.5,-0.5 477.5,-0.5"/>
<text text-anchor="start" x="485.5" y="-18.5" font-family="Helvetica,sans-Serif" font-size="10.00">cpinti::Func_Cpinti</text>
<text text-anchor="middle" x="525.5" y="-7.5" font-family="Helvetica,sans-Serif" font-size="10.00">::to_string</text>
</a>
</g>
</g>
<!-- Node1&#45;&gt;Node9 -->
<g id="edge13" class="edge">
<title>Node1&#45;&gt;Node9</title>
<path fill="none" stroke="midnightblue" d="M96.63,-98.89C143.43,-78.52 219.24,-48.33 288,-33.5 348.19,-20.52 418.75,-16.56 467.04,-15.52"/>
<polygon fill="midnightblue" stroke="midnightblue" points="467.36,-19.01 477.29,-15.33 467.23,-12.01 467.36,-19.01"/>
</g>
<!-- Node2&#45;&gt;Node3 -->
<g id="edge2" class="edge">
<title>Node2&#45;&gt;Node3</title>
<path fill="none" stroke="midnightblue" d="M225.3,-134.58C243.13,-143.13 266.45,-153.48 288,-160.5 347.47,-179.87 417.78,-193.96 466.19,-202.36"/>
<polygon fill="midnightblue" stroke="midnightblue" points="465.73,-205.83 476.17,-204.07 466.91,-198.93 465.73,-205.83"/>
</g>
<!-- Node5 -->
<g id="node5" class="node">
<title>Node5</title>
<g id="a_node5"><a xlink:href="namespacecpinti_1_1gestionnaire__tache.html#a640f909bd791a0d1c0f4d87e58fbb5ae" target="_top" xlink:title=" ">
<polygon fill="white" stroke="black" points="288,-82.5 288,-112.5 417,-112.5 417,-82.5 288,-82.5"/>
<text text-anchor="start" x="296" y="-100.5" font-family="Helvetica,sans-Serif" font-size="10.00">cpinti::gestionnaire</text>
<text text-anchor="middle" x="352.5" y="-89.5" font-family="Helvetica,sans-Serif" font-size="10.00">_tache::Interruption_Timer</text>
</a>
</g>
</g>
<!-- Node2&#45;&gt;Node5 -->
<g id="edge4" class="edge">
<title>Node2&#45;&gt;Node5</title>
<path fill="none" stroke="midnightblue" d="M252.26,-111.5C260.59,-110.32 269.27,-109.1 277.87,-107.88"/>
<polygon fill="midnightblue" stroke="midnightblue" points="278.5,-111.33 287.92,-106.47 277.53,-104.4 278.5,-111.33"/>
</g>
<!-- Node2&#45;&gt;Node9 -->
<g id="edge11" class="edge">
<title>Node2&#45;&gt;Node9</title>
<path fill="none" stroke="midnightblue" d="M221.92,-104.4C240.06,-94.53 264.93,-81.95 288,-73.5 347.67,-51.65 418.8,-35.46 467.36,-25.82"/>
<polygon fill="midnightblue" stroke="midnightblue" points="468.23,-29.22 477.37,-23.87 466.89,-22.35 468.23,-29.22"/>
</g>
<!-- Node10 -->
<g id="node10" class="node">
<title>Node10</title>
<g id="a_node10"><a xlink:href="core_8h.html#a4dd1e87061b5a48e743b560149cb048b" target="_top" xlink:title=" ">
<polygon fill="white" stroke="black" points="309.5,-132 309.5,-151 395.5,-151 395.5,-132 309.5,-132"/>
<text text-anchor="middle" x="352.5" y="-139" font-family="Helvetica,sans-Serif" font-size="10.00">ptr_Update_TID</text>
</a>
</g>
</g>
<!-- Node2&#45;&gt;Node10 -->
<g id="edge10" class="edge">
<title>Node2&#45;&gt;Node10</title>
<path fill="none" stroke="midnightblue" d="M252.26,-127.5C267.55,-129.66 284.02,-131.98 299.06,-134.1"/>
<polygon fill="midnightblue" stroke="midnightblue" points="298.82,-137.61 309.21,-135.54 299.8,-130.67 298.82,-137.61"/>
</g>
<!-- Node4 -->
<g id="node4" class="node">
<title>Node4</title>
<g id="a_node4"><a xlink:href="_c_p_c___w_p_r_8h.html#a971c45e904568a2415966a3f7b705e30" target="_top" xlink:title=" ">
<polygon fill="white" stroke="black" points="634,-196.5 634,-226.5 750,-226.5 750,-196.5 634,-196.5"/>
<text text-anchor="start" x="642" y="-214.5" font-family="Helvetica,sans-Serif" font-size="10.00">cpc_cpinti_debug_plus</text>
<text text-anchor="middle" x="692" y="-203.5" font-family="Helvetica,sans-Serif" font-size="10.00">_cpinticore</text>
</a>
</g>
</g>
<!-- Node3&#45;&gt;Node4 -->
<g id="edge3" class="edge">
<title>Node3&#45;&gt;Node4</title>
<path fill="none" stroke="midnightblue" d="M574.52,-211.5C589.91,-211.5 607.25,-211.5 623.76,-211.5"/>
<polygon fill="midnightblue" stroke="midnightblue" points="623.9,-215 633.9,-211.5 623.9,-208 623.9,-215"/>
</g>
<!-- Node5&#45;&gt;Node3 -->
<g id="edge6" class="edge">
<title>Node5&#45;&gt;Node3</title>
<path fill="none" stroke="midnightblue" d="M402.35,-112.59C407.62,-115.39 412.64,-118.67 417,-122.5 441.83,-144.28 427.62,-166.37 453,-187.5 457.21,-191.01 461.96,-194.01 466.96,-196.58"/>
<polygon fill="midnightblue" stroke="midnightblue" points="465.6,-199.81 476.15,-200.75 468.49,-193.43 465.6,-199.81"/>
</g>
<!-- Node6 -->
<g id="node6" class="node">
<title>Node6</title>
<g id="a_node6"><a xlink:href="namespacecpinti_1_1gestionnaire__tache.html#ad538e6617b7db29fc971ae1980a2e8be" target="_top" xlink:title=" ">
<polygon fill="white" stroke="black" points="453,-147.5 453,-177.5 598,-177.5 598,-147.5 453,-147.5"/>
<text text-anchor="start" x="461" y="-165.5" font-family="Helvetica,sans-Serif" font-size="10.00">cpinti::gestionnaire</text>
<text text-anchor="middle" x="525.5" y="-154.5" font-family="Helvetica,sans-Serif" font-size="10.00">_tache::begin_SectionCritique</text>
</a>
</g>
</g>
<!-- Node5&#45;&gt;Node6 -->
<g id="edge5" class="edge">
<title>Node5&#45;&gt;Node6</title>
<path fill="none" stroke="midnightblue" d="M392.56,-112.57C400.67,-115.79 409.13,-119.2 417,-122.5 433.15,-129.26 436.68,-132.15 453,-138.5 457.76,-140.35 462.73,-142.2 467.73,-143.99"/>
<polygon fill="midnightblue" stroke="midnightblue" points="466.76,-147.36 477.35,-147.38 469.08,-140.76 466.76,-147.36"/>
</g>
<!-- Node7 -->
<g id="node7" class="node">
<title>Node7</title>
<g id="a_node7"><a xlink:href="namespacecpinti_1_1gestionnaire__tache.html#a1dffbe4de63a3f294858ef36948b3115" target="_top" xlink:title=" ">
<polygon fill="white" stroke="black" points="457,-98.5 457,-128.5 594,-128.5 594,-98.5 457,-98.5"/>
<text text-anchor="start" x="465" y="-116.5" font-family="Helvetica,sans-Serif" font-size="10.00">cpinti::gestionnaire</text>
<text text-anchor="middle" x="525.5" y="-105.5" font-family="Helvetica,sans-Serif" font-size="10.00">_tache::end_SectionCritique</text>
</a>
</g>
</g>
<!-- Node5&#45;&gt;Node7 -->
<g id="edge7" class="edge">
<title>Node5&#45;&gt;Node7</title>
<path fill="none" stroke="midnightblue" d="M417.17,-103.46C426.76,-104.35 436.74,-105.29 446.58,-106.21"/>
<polygon fill="midnightblue" stroke="midnightblue" points="446.48,-109.72 456.76,-107.16 447.13,-102.75 446.48,-109.72"/>
</g>
<!-- Node8 -->
<g id="node8" class="node">
<title>Node8</title>
<g id="a_node8"><a xlink:href="namespacecpinti_1_1gestionnaire__tache.html#a2cb7408de395cda0909727daabbf14d9" target="_top" xlink:title=" ">
<polygon fill="white" stroke="black" points="454,-49.5 454,-79.5 597,-79.5 597,-49.5 454,-49.5"/>
<text text-anchor="start" x="462" y="-67.5" font-family="Helvetica,sans-Serif" font-size="10.00">cpinti::gestionnaire</text>
<text text-anchor="middle" x="525.5" y="-56.5" font-family="Helvetica,sans-Serif" font-size="10.00">_tache::state_SectionCritique</text>
</a>
</g>
</g>
<!-- Node5&#45;&gt;Node8 -->
<g id="edge8" class="edge">
<title>Node5&#45;&gt;Node8</title>
<path fill="none" stroke="midnightblue" d="M417.17,-85.21C425.87,-83.53 434.88,-81.79 443.83,-80.07"/>
<polygon fill="midnightblue" stroke="midnightblue" points="444.72,-83.46 453.88,-78.13 443.39,-76.59 444.72,-83.46"/>
</g>
<!-- Node5&#45;&gt;Node9 -->
<g id="edge9" class="edge">
<title>Node5&#45;&gt;Node9</title>
<path fill="none" stroke="midnightblue" d="M388.83,-82.49C398.2,-78.06 408.17,-72.93 417,-67.5 434.27,-56.88 435.14,-49.08 453,-39.5 457.76,-36.95 462.84,-34.59 468.02,-32.44"/>
<polygon fill="midnightblue" stroke="midnightblue" points="469.35,-35.68 477.39,-28.79 466.8,-29.16 469.35,-35.68"/>
</g>
</g>
</svg>
