<?xml version="1.0" encoding="UTF-8" standalone="no"?>
<!DOCTYPE svg PUBLIC "-//W3C//DTD SVG 1.1//EN"
 "http://www.w3.org/Graphics/SVG/1.1/DTD/svg11.dtd">
<!-- Generated by graphviz version 2.44.0 ()
 -->
<!-- Title: cpinti::gestionnaire_tache::cpinti_fin_thread Pages: 1 -->
<svg width="597pt" height="137pt"
 viewBox="0.00 0.00 597.00 137.00" xmlns="http://www.w3.org/2000/svg" xmlns:xlink="http://www.w3.org/1999/xlink">
<g id="graph0" class="graph" transform="scale(1 1) rotate(0) translate(4 133)">
<title>cpinti::gestionnaire_tache::cpinti_fin_thread</title>
<polygon fill="white" stroke="transparent" points="-4,4 -4,-133 593,-133 593,4 -4,4"/>
<!-- Node1 -->
<g id="node1" class="node">
<title>Node1</title>
<g id="a_node1"><a xlink:title=" ">
<polygon fill="#bfbfbf" stroke="black" points="0,-49.5 0,-79.5 121,-79.5 121,-49.5 0,-49.5"/>
<text text-anchor="start" x="8" y="-67.5" font-family="Helvetica,sans-Serif" font-size="10.00">cpinti::gestionnaire</text>
<text text-anchor="middle" x="60.5" y="-56.5" font-family="Helvetica,sans-Serif" font-size="10.00">_tache::cpinti_fin_thread</text>
</a>
</g>
</g>
<!-- Node2 -->
<g id="node2" class="node">
<title>Node2</title>
<g id="a_node2"><a xlink:href="namespacecpinti_1_1gestionnaire__tache.html#ace8684d7861881e3535f5eaa6008b94f" target="_top" xlink:title=" ">
<polygon fill="white" stroke="black" points="157,-49.5 157,-79.5 285,-79.5 285,-49.5 157,-49.5"/>
<text text-anchor="start" x="165" y="-67.5" font-family="Helvetica,sans-Serif" font-size="10.00">cpinti::gestionnaire</text>
<text text-anchor="middle" x="221" y="-56.5" font-family="Helvetica,sans-Serif" font-size="10.00">_tache::supprimer_Thread</text>
</a>
</g>
</g>
<!-- Node1&#45;&gt;Node2 -->
<g id="edge1" class="edge">
<title>Node1&#45;&gt;Node2</title>
<path fill="none" stroke="midnightblue" d="M121.42,-64.5C129.65,-64.5 138.17,-64.5 146.61,-64.5"/>
<polygon fill="midnightblue" stroke="midnightblue" points="146.82,-68 156.82,-64.5 146.82,-61 146.82,-68"/>
</g>
<!-- Node3 -->
<g id="node3" class="node">
<title>Node3</title>
<g id="a_node3"><a xlink:href="namespacecpinti__dbg.html#a119c14f1b5f4849696decac82a512762" target="_top" xlink:title=" ">
<polygon fill="white" stroke="black" points="330,-98.5 330,-128.5 428,-128.5 428,-98.5 330,-98.5"/>
<text text-anchor="start" x="338" y="-116.5" font-family="Helvetica,sans-Serif" font-size="10.00">cpinti_dbg::CPINTI</text>
<text text-anchor="middle" x="379" y="-105.5" font-family="Helvetica,sans-Serif" font-size="10.00">_DEBUG</text>
</a>
</g>
</g>
<!-- Node2&#45;&gt;Node3 -->
<g id="edge2" class="edge">
<title>Node2&#45;&gt;Node3</title>
<path fill="none" stroke="midnightblue" d="M270.08,-79.6C286.02,-84.61 303.92,-90.23 320.5,-95.44"/>
<polygon fill="midnightblue" stroke="midnightblue" points="319.49,-98.79 330.08,-98.45 321.59,-92.11 319.49,-98.79"/>
</g>
<!-- Node5 -->
<g id="node5" class="node">
<title>Node5</title>
<g id="a_node5"><a xlink:href="namespacecpinti_1_1gestionnaire__tache.html#a7216b6d2070ba00acea0233ccecd26ee" target="_top" xlink:title=" ">
<polygon fill="white" stroke="black" points="321,-49.5 321,-79.5 437,-79.5 437,-49.5 321,-49.5"/>
<text text-anchor="start" x="329" y="-67.5" font-family="Helvetica,sans-Serif" font-size="10.00">cpinti::gestionnaire</text>
<text text-anchor="middle" x="379" y="-56.5" font-family="Helvetica,sans-Serif" font-size="10.00">_tache::set_EtatThread</text>
</a>
</g>
</g>
<!-- Node2&#45;&gt;Node5 -->
<g id="edge4" class="edge">
<title>Node2&#45;&gt;Node5</title>
<path fill="none" stroke="midnightblue" d="M285,-64.5C293.42,-64.5 302.08,-64.5 310.57,-64.5"/>
<polygon fill="midnightblue" stroke="midnightblue" points="310.81,-68 320.81,-64.5 310.81,-61 310.81,-68"/>
</g>
<!-- Node6 -->
<g id="node6" class="node">
<title>Node6</title>
<g id="a_node6"><a xlink:href="namespacecpinti_1_1_func___cpinti.html#ab7049ea2cc0148a042e823546c2ef76d" target="_top" xlink:title=" ">
<polygon fill="white" stroke="black" points="331,-0.5 331,-30.5 427,-30.5 427,-0.5 331,-0.5"/>
<text text-anchor="start" x="339" y="-18.5" font-family="Helvetica,sans-Serif" font-size="10.00">cpinti::Func_Cpinti</text>
<text text-anchor="middle" x="379" y="-7.5" font-family="Helvetica,sans-Serif" font-size="10.00">::to_string</text>
</a>
</g>
</g>
<!-- Node2&#45;&gt;Node6 -->
<g id="edge5" class="edge">
<title>Node2&#45;&gt;Node6</title>
<path fill="none" stroke="midnightblue" d="M270.08,-49.4C286.24,-44.32 304.43,-38.61 321.2,-33.34"/>
<polygon fill="midnightblue" stroke="midnightblue" points="322.39,-36.64 330.88,-30.3 320.29,-29.96 322.39,-36.64"/>
</g>
<!-- Node4 -->
<g id="node4" class="node">
<title>Node4</title>
<g id="a_node4"><a xlink:href="_c_p_c___w_p_r_8h.html#a971c45e904568a2415966a3f7b705e30" target="_top" xlink:title=" ">
<polygon fill="white" stroke="black" points="473,-98.5 473,-128.5 589,-128.5 589,-98.5 473,-98.5"/>
<text text-anchor="start" x="481" y="-116.5" font-family="Helvetica,sans-Serif" font-size="10.00">cpc_cpinti_debug_plus</text>
<text text-anchor="middle" x="531" y="-105.5" font-family="Helvetica,sans-Serif" font-size="10.00">_cpinticore</text>
</a>
</g>
</g>
<!-- Node3&#45;&gt;Node4 -->
<g id="edge3" class="edge">
<title>Node3&#45;&gt;Node4</title>
<path fill="none" stroke="midnightblue" d="M428.29,-113.5C439.28,-113.5 451.16,-113.5 462.78,-113.5"/>
<polygon fill="midnightblue" stroke="midnightblue" points="462.91,-117 472.91,-113.5 462.91,-110 462.91,-117"/>
</g>
</g>
</svg>
