<?xml version="1.0" encoding="UTF-8" standalone="no"?>
<!DOCTYPE svg PUBLIC "-//W3C//DTD SVG 1.1//EN"
 "http://www.w3.org/Graphics/SVG/1.1/DTD/svg11.dtd">
<!-- Generated by graphviz version 2.44.0 ()
 -->
<!-- Title: cpinti::Func_Cpinti::to_string Pages: 1 -->
<svg width="601pt" height="1111pt"
 viewBox="0.00 0.00 601.00 1111.00" xmlns="http://www.w3.org/2000/svg" xmlns:xlink="http://www.w3.org/1999/xlink">
<g id="graph0" class="graph" transform="scale(1 1) rotate(0) translate(4 1107)">
<title>cpinti::Func_Cpinti::to_string</title>
<polygon fill="white" stroke="transparent" points="-4,4 -4,-1107 597,-1107 597,4 -4,4"/>
<!-- Node1 -->
<g id="node1" class="node">
<title>Node1</title>
<g id="a_node1"><a xlink:title=" ">
<polygon fill="#bfbfbf" stroke="black" points="497,-552.5 497,-582.5 593,-582.5 593,-552.5 497,-552.5"/>
<text text-anchor="start" x="505" y="-570.5" font-family="Helvetica,sans-Serif" font-size="10.00">cpinti::Func_Cpinti</text>
<text text-anchor="middle" x="545" y="-559.5" font-family="Helvetica,sans-Serif" font-size="10.00">::to_string</text>
</a>
</g>
</g>
<!-- Node2 -->
<g id="node2" class="node">
<title>Node2</title>
<g id="a_node2"><a xlink:href="namespacecpinti_1_1gestionnaire__tache.html#a0ac5449471b1ca1bd90d9febec477342" target="_top" xlink:title=" ">
<polygon fill="white" stroke="black" points="330,-1072.5 330,-1102.5 461,-1102.5 461,-1072.5 330,-1072.5"/>
<text text-anchor="start" x="338" y="-1090.5" font-family="Helvetica,sans-Serif" font-size="10.00">cpinti::gestionnaire</text>
<text text-anchor="middle" x="395.5" y="-1079.5" font-family="Helvetica,sans-Serif" font-size="10.00">_tache::ajouter_Processus</text>
</a>
</g>
</g>
<!-- Node1&#45;&gt;Node2 -->
<g id="edge1" class="edge">
<title>Node1&#45;&gt;Node2</title>
<path fill="none" stroke="midnightblue" d="M542.76,-593.03C537.93,-682.88 517.76,-983.08 461,-1057.5 456.36,-1063.59 450.18,-1068.49 443.48,-1072.42"/>
<polygon fill="midnightblue" stroke="midnightblue" points="546.26,-593.08 543.28,-582.92 539.27,-592.72 546.26,-593.08"/>
</g>
<!-- Node3 -->
<g id="node3" class="node">
<title>Node3</title>
<g id="a_node3"><a xlink:href="namespacecpinti_1_1gestionnaire__tache.html#a8c7c5649614ba9fb24d07fc01370efdb" target="_top" xlink:title=" ">
<polygon fill="white" stroke="black" points="171,-1050 171,-1091 272,-1091 272,-1050 171,-1050"/>
<text text-anchor="start" x="179" y="-1079" font-family="Helvetica,sans-Serif" font-size="10.00">cpinti::gestionnaire</text>
<text text-anchor="start" x="179" y="-1068" font-family="Helvetica,sans-Serif" font-size="10.00">_tache::cpinti_creer</text>
<text text-anchor="middle" x="221.5" y="-1057" font-family="Helvetica,sans-Serif" font-size="10.00">_processus</text>
</a>
</g>
</g>
<!-- Node1&#45;&gt;Node3 -->
<g id="edge9" class="edge">
<title>Node1&#45;&gt;Node3</title>
<path fill="none" stroke="midnightblue" d="M542.93,-593.17C538.78,-679.56 520.91,-957.82 461,-1019.5 435.3,-1045.96 334.09,-1060.03 272.07,-1066.31"/>
<polygon fill="midnightblue" stroke="midnightblue" points="546.43,-593.1 543.39,-582.95 539.44,-592.78 546.43,-593.1"/>
</g>
<!-- Node4 -->
<g id="node4" class="node">
<title>Node4</title>
<g id="a_node4"><a xlink:href="namespacecpinti_1_1gestionnaire__tache.html#a6e5e5771fd2998d286a459f65136f6ab" target="_top" xlink:title=" ">
<polygon fill="white" stroke="black" points="164,-489.5 164,-519.5 279,-519.5 279,-489.5 164,-489.5"/>
<text text-anchor="start" x="172" y="-507.5" font-family="Helvetica,sans-Serif" font-size="10.00">cpinti::gestionnaire</text>
<text text-anchor="middle" x="221.5" y="-496.5" font-family="Helvetica,sans-Serif" font-size="10.00">_tache::ajouter_Thread</text>
</a>
</g>
</g>
<!-- Node1&#45;&gt;Node4 -->
<g id="edge3" class="edge">
<title>Node1&#45;&gt;Node4</title>
<path fill="none" stroke="midnightblue" d="M501.97,-548.4C489.05,-543.18 474.64,-538.01 461,-534.5 399.97,-518.8 327.96,-511.18 279.15,-507.58"/>
<polygon fill="midnightblue" stroke="midnightblue" points="500.94,-551.76 511.52,-552.37 503.63,-545.3 500.94,-551.76"/>
</g>
<!-- Node5 -->
<g id="node5" class="node">
<title>Node5</title>
<g id="a_node5"><a xlink:href="namespacecpinti_1_1gestionnaire__tache.html#a0c6d8878452d6e0ebb31a9ae9910d859" target="_top" xlink:title=" ">
<polygon fill="white" stroke="black" points="6,-506 6,-547 107,-547 107,-506 6,-506"/>
<text text-anchor="start" x="14" y="-535" font-family="Helvetica,sans-Serif" font-size="10.00">cpinti::gestionnaire</text>
<text text-anchor="start" x="14" y="-524" font-family="Helvetica,sans-Serif" font-size="10.00">_tache::cpinti_creer</text>
<text text-anchor="middle" x="56.5" y="-513" font-family="Helvetica,sans-Serif" font-size="10.00">_thread</text>
</a>
</g>
</g>
<!-- Node1&#45;&gt;Node5 -->
<g id="edge10" class="edge">
<title>Node1&#45;&gt;Node5</title>
<path fill="none" stroke="midnightblue" d="M486.79,-562.68C390.58,-554.57 198.02,-538.34 107.15,-530.68"/>
<polygon fill="midnightblue" stroke="midnightblue" points="486.65,-566.18 496.91,-563.53 487.24,-559.2 486.65,-566.18"/>
</g>
<!-- Node6 -->
<g id="node6" class="node">
<title>Node6</title>
<g id="a_node6"><a xlink:href="namespacecpinti_1_1gestionnaire__fichier.html#ae04b7d30580d07875a05ce6d49a89191" target="_top" xlink:title=" ">
<polygon fill="white" stroke="black" points="338.5,-925.5 338.5,-955.5 452.5,-955.5 452.5,-925.5 338.5,-925.5"/>
<text text-anchor="start" x="346.5" y="-943.5" font-family="Helvetica,sans-Serif" font-size="10.00">cpinti::gestionnaire</text>
<text text-anchor="middle" x="395.5" y="-932.5" font-family="Helvetica,sans-Serif" font-size="10.00">_fichier::Copier_Fichier</text>
</a>
</g>
</g>
<!-- Node1&#45;&gt;Node6 -->
<g id="edge5" class="edge">
<title>Node1&#45;&gt;Node6</title>
<path fill="none" stroke="midnightblue" d="M543.36,-592.8C540.73,-651.1 527.48,-797.31 461,-894.5 452.23,-907.33 438.63,-917.79 426.18,-925.48"/>
<polygon fill="midnightblue" stroke="midnightblue" points="546.86,-592.79 543.75,-582.66 539.87,-592.52 546.86,-592.79"/>
</g>
<!-- Node8 -->
<g id="node8" class="node">
<title>Node8</title>
<g id="a_node8"><a xlink:href="namespacecpinti_1_1gestionnaire__tache.html#ac39e89c68667f074a252569a20c74975" target="_top" xlink:title=" ">
<polygon fill="white" stroke="black" points="3,-96 3,-137 110,-137 110,-96 3,-96"/>
<text text-anchor="start" x="11" y="-125" font-family="Helvetica,sans-Serif" font-size="10.00">cpinti::gestionnaire</text>
<text text-anchor="start" x="11" y="-114" font-family="Helvetica,sans-Serif" font-size="10.00">_tache::cpinti_arreter</text>
<text text-anchor="middle" x="56.5" y="-103" font-family="Helvetica,sans-Serif" font-size="10.00">_processus</text>
</a>
</g>
</g>
<!-- Node1&#45;&gt;Node8 -->
<g id="edge7" class="edge">
<title>Node1&#45;&gt;Node8</title>
<path fill="none" stroke="midnightblue" d="M541.29,-542.11C533.27,-471.9 507.25,-277.58 461,-236.5 356.48,-143.66 276.48,-253.89 149,-196.5 118.79,-182.9 91.22,-155.89 74.41,-137.04"/>
<polygon fill="midnightblue" stroke="midnightblue" points="537.84,-542.72 542.43,-552.27 544.8,-541.95 537.84,-542.72"/>
</g>
<!-- Node9 -->
<g id="node9" class="node">
<title>Node9</title>
<g id="a_node9"><a xlink:href="namespacecpinti_1_1net.html#a0c070039715652789e0814e8a98beb39" target="_top" xlink:title=" ">
<polygon fill="white" stroke="black" points="13.5,-887.5 13.5,-917.5 99.5,-917.5 99.5,-887.5 13.5,-887.5"/>
<text text-anchor="start" x="21.5" y="-905.5" font-family="Helvetica,sans-Serif" font-size="10.00">cpinti::net::cpinti</text>
<text text-anchor="middle" x="56.5" y="-894.5" font-family="Helvetica,sans-Serif" font-size="10.00">_client</text>
</a>
</g>
</g>
<!-- Node1&#45;&gt;Node9 -->
<g id="edge8" class="edge">
<title>Node1&#45;&gt;Node9</title>
<path fill="none" stroke="midnightblue" d="M542.47,-592.59C537.11,-671.81 516.37,-914.42 461,-965.5 409.93,-1012.62 213.75,-1011.72 149,-986.5 113.43,-972.65 83.31,-937.8 68.1,-917.6"/>
<polygon fill="midnightblue" stroke="midnightblue" points="545.97,-592.74 543.13,-582.53 538.99,-592.28 545.97,-592.74"/>
</g>
<!-- Node10 -->
<g id="node10" class="node">
<title>Node10</title>
<g id="a_node10"><a xlink:href="namespacecpinti_1_1gestionnaire__fichier.html#a01b259b43b24dd5a9f1db1dd4c6b3875" target="_top" xlink:title=" ">
<polygon fill="white" stroke="black" points="343,-713 343,-754 448,-754 448,-713 343,-713"/>
<text text-anchor="start" x="351" y="-742" font-family="Helvetica,sans-Serif" font-size="10.00">cpinti::gestionnaire</text>
<text text-anchor="start" x="351" y="-731" font-family="Helvetica,sans-Serif" font-size="10.00">_fichier::cpinti_Ecrire</text>
<text text-anchor="middle" x="395.5" y="-720" font-family="Helvetica,sans-Serif" font-size="10.00">_Fichier_complet</text>
</a>
</g>
</g>
<!-- Node1&#45;&gt;Node10 -->
<g id="edge11" class="edge">
<title>Node1&#45;&gt;Node10</title>
<path fill="none" stroke="midnightblue" d="M533.29,-591.81C519.79,-620.26 494.26,-667.42 461,-698.5 455.23,-703.89 448.47,-708.73 441.54,-712.96"/>
<polygon fill="midnightblue" stroke="midnightblue" points="536.54,-593.13 537.56,-582.58 530.18,-590.19 536.54,-593.13"/>
</g>
<!-- Node11 -->
<g id="node11" class="node">
<title>Node11</title>
<g id="a_node11"><a xlink:href="namespacecpinti.html#af3fb396e744daa5441044b785ca8b200" target="_top" xlink:title=" ">
<polygon fill="white" stroke="black" points="330,-811 330,-830 461,-830 461,-811 330,-811"/>
<text text-anchor="middle" x="395.5" y="-818" font-family="Helvetica,sans-Serif" font-size="10.00">cpinti::cpinti_GEST_BUFF</text>
</a>
</g>
</g>
<!-- Node1&#45;&gt;Node11 -->
<g id="edge12" class="edge">
<title>Node1&#45;&gt;Node11</title>
<path fill="none" stroke="midnightblue" d="M541.72,-592.73C536.2,-639.24 518.06,-738.95 461,-796.5 454.77,-802.78 446.76,-807.43 438.51,-810.88"/>
<polygon fill="midnightblue" stroke="midnightblue" points="545.22,-592.94 542.82,-582.63 538.26,-592.19 545.22,-592.94"/>
</g>
<!-- Node13 -->
<g id="node13" class="node">
<title>Node13</title>
<g id="a_node13"><a xlink:href="namespacecpinti_1_1net.html#ae75f979d2adaeb1c19ba2a45f8ad2eeb" target="_top" xlink:title=" ">
<polygon fill="white" stroke="black" points="13.5,-712.5 13.5,-742.5 99.5,-742.5 99.5,-712.5 13.5,-712.5"/>
<text text-anchor="start" x="21.5" y="-730.5" font-family="Helvetica,sans-Serif" font-size="10.00">cpinti::net::cpinti</text>
<text text-anchor="middle" x="56.5" y="-719.5" font-family="Helvetica,sans-Serif" font-size="10.00">_serveur</text>
</a>
</g>
</g>
<!-- Node1&#45;&gt;Node13 -->
<g id="edge21" class="edge">
<title>Node1&#45;&gt;Node13</title>
<path fill="none" stroke="midnightblue" d="M530.97,-591.38C516.96,-614.53 492.39,-648.57 461,-665.5 338.05,-731.81 286.21,-677.27 149,-703.5 132.71,-706.61 115.03,-711.01 99.59,-715.18"/>
<polygon fill="midnightblue" stroke="midnightblue" points="534.14,-592.9 536.16,-582.5 528.09,-589.37 534.14,-592.9"/>
</g>
<!-- Node14 -->
<g id="node14" class="node">
<title>Node14</title>
<g id="a_node14"><a xlink:href="namespacecpinti_1_1net__client.html#a2c0e37d915c8350e880ce82fe14cbe43" target="_top" xlink:title=" ">
<polygon fill="white" stroke="black" points="177,-887.5 177,-917.5 266,-917.5 266,-887.5 177,-887.5"/>
<text text-anchor="start" x="185" y="-905.5" font-family="Helvetica,sans-Serif" font-size="10.00">cpinti::net_client</text>
<text text-anchor="middle" x="221.5" y="-894.5" font-family="Helvetica,sans-Serif" font-size="10.00">::Demarrer_client</text>
</a>
</g>
</g>
<!-- Node1&#45;&gt;Node14 -->
<g id="edge25" class="edge">
<title>Node1&#45;&gt;Node14</title>
<path fill="none" stroke="midnightblue" d="M543.98,-593.06C542.5,-646.76 531.23,-771.89 461,-839.5 408.09,-890.44 319.03,-901.4 266.01,-903.09"/>
<polygon fill="midnightblue" stroke="midnightblue" points="547.49,-592.8 544.17,-582.73 540.49,-592.67 547.49,-592.8"/>
</g>
<!-- Node15 -->
<g id="node15" class="node">
<title>Node15</title>
<g id="a_node15"><a xlink:href="namespacecpinti_1_1net__server.html#a8dd4cfd770dcd100f4ababcc7f3dbaa9" target="_top" xlink:title=" ">
<polygon fill="white" stroke="black" points="172.5,-712.5 172.5,-742.5 270.5,-742.5 270.5,-712.5 172.5,-712.5"/>
<text text-anchor="start" x="180.5" y="-730.5" font-family="Helvetica,sans-Serif" font-size="10.00">cpinti::net_server</text>
<text text-anchor="middle" x="221.5" y="-719.5" font-family="Helvetica,sans-Serif" font-size="10.00">::Demarrer_serveur</text>
</a>
</g>
</g>
<!-- Node1&#45;&gt;Node15 -->
<g id="edge26" class="edge">
<title>Node1&#45;&gt;Node15</title>
<path fill="none" stroke="midnightblue" d="M541.88,-592.83C536.71,-636.49 519.22,-724.93 461,-763.5 412.46,-795.66 387.46,-772.87 330,-763.5 323.27,-762.4 292.36,-751.96 265.4,-742.6"/>
<polygon fill="midnightblue" stroke="midnightblue" points="545.38,-593.07 542.95,-582.76 538.42,-592.33 545.38,-593.07"/>
</g>
<!-- Node16 -->
<g id="node16" class="node">
<title>Node16</title>
<g id="a_node16"><a xlink:href="namespacecpinti_1_1gestionnaire__fichier.html#aa88fdf5496d3109c3cf1b0c9f76c0d1d" target="_top" xlink:title=" ">
<polygon fill="white" stroke="black" points="173,-596 173,-637 270,-637 270,-596 173,-596"/>
<text text-anchor="start" x="181" y="-625" font-family="Helvetica,sans-Serif" font-size="10.00">cpinti::gestionnaire</text>
<text text-anchor="start" x="181" y="-614" font-family="Helvetica,sans-Serif" font-size="10.00">_fichier::cpinti_Lire</text>
<text text-anchor="middle" x="221.5" y="-603" font-family="Helvetica,sans-Serif" font-size="10.00">_Fichier_complet</text>
</a>
</g>
</g>
<!-- Node1&#45;&gt;Node16 -->
<g id="edge20" class="edge">
<title>Node1&#45;&gt;Node16</title>
<path fill="none" stroke="midnightblue" d="M486.95,-576.2C425.26,-585.6 328.04,-600.42 270.24,-609.22"/>
<polygon fill="midnightblue" stroke="midnightblue" points="487.55,-579.64 496.91,-574.68 486.49,-572.72 487.55,-579.64"/>
</g>
<!-- Node17 -->
<g id="node17" class="node">
<title>Node17</title>
<g id="a_node17"><a xlink:href="namespacecpinti_1_1gestionnaire__fichier.html#a15ed875c00b9407b80b72b1f56d72e17" target="_top" xlink:title=" ">
<polygon fill="white" stroke="black" points="333,-441 333,-482 458,-482 458,-441 333,-441"/>
<text text-anchor="start" x="341" y="-470" font-family="Helvetica,sans-Serif" font-size="10.00">cpinti::gestionnaire</text>
<text text-anchor="start" x="341" y="-459" font-family="Helvetica,sans-Serif" font-size="10.00">_fichier::cpinti_Supprimer</text>
<text text-anchor="middle" x="395.5" y="-448" font-family="Helvetica,sans-Serif" font-size="10.00">_Fichier</text>
</a>
</g>
</g>
<!-- Node1&#45;&gt;Node17 -->
<g id="edge22" class="edge">
<title>Node1&#45;&gt;Node17</title>
<path fill="none" stroke="midnightblue" d="M520.92,-545.44C504.83,-530.66 482.48,-511.27 461,-496.5 453.65,-491.45 445.5,-486.54 437.53,-482.08"/>
<polygon fill="midnightblue" stroke="midnightblue" points="518.58,-548.04 528.28,-552.29 523.34,-542.92 518.58,-548.04"/>
</g>
<!-- Node18 -->
<g id="node18" class="node">
<title>Node18</title>
<g id="a_node18"><a xlink:href="namespacecpinti_1_1gestionnaire__fichier.html#a389584e265b41ce10ca6ca8ea808cd4f" target="_top" xlink:title=" ">
<polygon fill="white" stroke="black" points="343.5,-381 343.5,-422 447.5,-422 447.5,-381 343.5,-381"/>
<text text-anchor="start" x="351.5" y="-410" font-family="Helvetica,sans-Serif" font-size="10.00">cpinti::gestionnaire</text>
<text text-anchor="start" x="351.5" y="-399" font-family="Helvetica,sans-Serif" font-size="10.00">_fichier::cpinti_Taille</text>
<text text-anchor="middle" x="395.5" y="-388" font-family="Helvetica,sans-Serif" font-size="10.00">_Fichier</text>
</a>
</g>
</g>
<!-- Node1&#45;&gt;Node18 -->
<g id="edge23" class="edge">
<title>Node1&#45;&gt;Node18</title>
<path fill="none" stroke="midnightblue" d="M534.43,-543.21C521.64,-513.46 496.4,-463.12 461,-431.5 456.95,-427.88 452.38,-424.62 447.6,-421.7"/>
<polygon fill="midnightblue" stroke="midnightblue" points="531.2,-544.58 538.28,-552.46 537.66,-541.88 531.2,-544.58"/>
</g>
<!-- Node19 -->
<g id="node19" class="node">
<title>Node19</title>
<g id="a_node19"><a xlink:href="namespace_wrapper___cpcdos.html#a05d09b6fe335777e722d96ad69326bd3" target="_top" xlink:title=" ">
<polygon fill="white" stroke="black" points="336,-332.5 336,-362.5 455,-362.5 455,-332.5 336,-332.5"/>
<text text-anchor="start" x="344" y="-350.5" font-family="Helvetica,sans-Serif" font-size="10.00">Wrapper_Cpcdos::cpinti</text>
<text text-anchor="middle" x="395.5" y="-339.5" font-family="Helvetica,sans-Serif" font-size="10.00">_WRAPPER</text>
</a>
</g>
</g>
<!-- Node1&#45;&gt;Node19 -->
<g id="edge24" class="edge">
<title>Node1&#45;&gt;Node19</title>
<path fill="none" stroke="midnightblue" d="M539.96,-542.44C532.06,-501.26 510.76,-419.1 461,-371.5 457.37,-368.03 453.2,-365.05 448.76,-362.5"/>
<polygon fill="midnightblue" stroke="midnightblue" points="536.55,-543.23 541.77,-552.44 543.44,-541.98 536.55,-543.23"/>
</g>
<!-- Node20 -->
<g id="node20" class="node">
<title>Node20</title>
<g id="a_node20"><a xlink:href="namespacecpinti_1_1gestionnaire__tache.html#aace982c0d3bc1618caf70ececf929141" target="_top" xlink:title=" ">
<polygon fill="white" stroke="black" points="170.5,-157.5 170.5,-187.5 272.5,-187.5 272.5,-157.5 170.5,-157.5"/>
<text text-anchor="start" x="178.5" y="-175.5" font-family="Helvetica,sans-Serif" font-size="10.00">cpinti::gestionnaire</text>
<text text-anchor="middle" x="221.5" y="-164.5" font-family="Helvetica,sans-Serif" font-size="10.00">_tache::fermer_core</text>
</a>
</g>
</g>
<!-- Node1&#45;&gt;Node20 -->
<g id="edge27" class="edge">
<title>Node1&#45;&gt;Node20</title>
<path fill="none" stroke="midnightblue" d="M541.93,-542.07C535.28,-466.97 511.84,-248.57 461,-202.5 410.13,-156.4 326.16,-157.16 272.63,-163.59"/>
<polygon fill="midnightblue" stroke="midnightblue" points="538.48,-542.79 542.83,-552.46 545.46,-542.2 538.48,-542.79"/>
</g>
<!-- Node21 -->
<g id="node21" class="node">
<title>Node21</title>
<g id="a_node21"><a xlink:href="namespacecpinti_1_1gestionnaire__tache.html#ad386876c980cb034a2f757e09a1c4977" target="_top" xlink:title=" ">
<polygon fill="white" stroke="black" points="152,-245.5 152,-275.5 291,-275.5 291,-245.5 152,-245.5"/>
<text text-anchor="start" x="160" y="-263.5" font-family="Helvetica,sans-Serif" font-size="10.00">cpinti::gestionnaire</text>
<text text-anchor="middle" x="221.5" y="-252.5" font-family="Helvetica,sans-Serif" font-size="10.00">_tache::initialiser_Multitache</text>
</a>
</g>
</g>
<!-- Node1&#45;&gt;Node21 -->
<g id="edge28" class="edge">
<title>Node1&#45;&gt;Node21</title>
<path fill="none" stroke="midnightblue" d="M540.63,-542.22C531.42,-477.34 503.66,-307.65 461,-273.5 412.2,-234.43 338.17,-236.87 285.55,-245.48"/>
<polygon fill="midnightblue" stroke="midnightblue" points="537.2,-542.95 542.04,-552.38 544.13,-541.99 537.2,-542.95"/>
</g>
<!-- Node22 -->
<g id="node22" class="node">
<title>Node22</title>
<g id="a_node22"><a xlink:href="namespacecpinti_1_1gestionnaire__tache.html#a640f909bd791a0d1c0f4d87e58fbb5ae" target="_top" xlink:title=" ">
<polygon fill="white" stroke="black" points="331,-283.5 331,-313.5 460,-313.5 460,-283.5 331,-283.5"/>
<text text-anchor="start" x="339" y="-301.5" font-family="Helvetica,sans-Serif" font-size="10.00">cpinti::gestionnaire</text>
<text text-anchor="middle" x="395.5" y="-290.5" font-family="Helvetica,sans-Serif" font-size="10.00">_tache::Interruption_Timer</text>
</a>
</g>
</g>
<!-- Node1&#45;&gt;Node22 -->
<g id="edge29" class="edge">
<title>Node1&#45;&gt;Node22</title>
<path fill="none" stroke="midnightblue" d="M542.42,-542.23C538.03,-493.3 521.64,-384.96 461,-322.5 457.67,-319.07 453.81,-316.13 449.66,-313.6"/>
<polygon fill="midnightblue" stroke="midnightblue" points="538.94,-542.58 543.22,-552.26 545.92,-542.02 538.94,-542.58"/>
</g>
<!-- Node26 -->
<g id="node26" class="node">
<title>Node26</title>
<g id="a_node26"><a xlink:href="namespacecpinti_1_1gestionnaire__fichier.html#a0639698a01d0468162c52cde6b75db06" target="_top" xlink:title=" ">
<polygon fill="white" stroke="black" points="344,-615 344,-656 447,-656 447,-615 344,-615"/>
<text text-anchor="start" x="352" y="-644" font-family="Helvetica,sans-Serif" font-size="10.00">cpinti::gestionnaire</text>
<text text-anchor="start" x="352" y="-633" font-family="Helvetica,sans-Serif" font-size="10.00">_fichier::Lire_Fichier</text>
<text text-anchor="middle" x="395.5" y="-622" font-family="Helvetica,sans-Serif" font-size="10.00">_complet</text>
</a>
</g>
</g>
<!-- Node1&#45;&gt;Node26 -->
<g id="edge36" class="edge">
<title>Node1&#45;&gt;Node26</title>
<path fill="none" stroke="midnightblue" d="M501.96,-586.88C482.96,-595.64 460.48,-606 441.17,-614.91"/>
<polygon fill="midnightblue" stroke="midnightblue" points="503.65,-589.96 511.26,-582.59 500.72,-583.6 503.65,-589.96"/>
</g>
<!-- Node27 -->
<g id="node27" class="node">
<title>Node27</title>
<g id="a_node27"><a xlink:href="namespacecpinti_1_1gestionnaire__tache.html#ac43c3c3801eaf41bc3e0b0d184461f96" target="_top" xlink:title=" ">
<polygon fill="white" stroke="black" points="149,-0.5 149,-30.5 294,-30.5 294,-0.5 149,-0.5"/>
<text text-anchor="start" x="157" y="-18.5" font-family="Helvetica,sans-Serif" font-size="10.00">cpinti::gestionnaire</text>
<text text-anchor="middle" x="221.5" y="-7.5" font-family="Helvetica,sans-Serif" font-size="10.00">_tache::supprimer_Processus</text>
</a>
</g>
</g>
<!-- Node1&#45;&gt;Node27 -->
<g id="edge38" class="edge">
<title>Node1&#45;&gt;Node27</title>
<path fill="none" stroke="midnightblue" d="M542.8,-542.02C538.18,-454.34 518.81,-166.7 461,-98.5 419.68,-49.76 348.1,-29.61 294.11,-21.3"/>
<polygon fill="midnightblue" stroke="midnightblue" points="539.31,-542.33 543.31,-552.14 546.3,-541.98 539.31,-542.33"/>
</g>
<!-- Node28 -->
<g id="node28" class="node">
<title>Node28</title>
<g id="a_node28"><a xlink:href="namespacecpinti_1_1gestionnaire__tache.html#ace8684d7861881e3535f5eaa6008b94f" target="_top" xlink:title=" ">
<polygon fill="white" stroke="black" points="331.5,-108.5 331.5,-138.5 459.5,-138.5 459.5,-108.5 331.5,-108.5"/>
<text text-anchor="start" x="339.5" y="-126.5" font-family="Helvetica,sans-Serif" font-size="10.00">cpinti::gestionnaire</text>
<text text-anchor="middle" x="395.5" y="-115.5" font-family="Helvetica,sans-Serif" font-size="10.00">_tache::supprimer_Thread</text>
</a>
</g>
</g>
<!-- Node1&#45;&gt;Node28 -->
<g id="edge40" class="edge">
<title>Node1&#45;&gt;Node28</title>
<path fill="none" stroke="midnightblue" d="M541.53,-542.24C533.41,-463.47 505.52,-223.85 461,-161.5 454.13,-151.87 443.99,-144.29 433.78,-138.51"/>
<polygon fill="midnightblue" stroke="midnightblue" points="538.05,-542.66 542.54,-552.25 545.02,-541.95 538.05,-542.66"/>
</g>
<!-- Node2&#45;&gt;Node3 -->
<g id="edge2" class="edge">
<title>Node2&#45;&gt;Node3</title>
<path fill="none" stroke="midnightblue" d="M319.97,-1080.13C303.77,-1078.53 287.02,-1076.88 272.07,-1075.4"/>
<polygon fill="midnightblue" stroke="midnightblue" points="319.67,-1083.62 329.96,-1081.12 320.36,-1076.65 319.67,-1083.62"/>
</g>
<!-- Node4&#45;&gt;Node5 -->
<g id="edge4" class="edge">
<title>Node4&#45;&gt;Node5</title>
<path fill="none" stroke="midnightblue" d="M153.83,-513.5C138.22,-515.6 121.87,-517.81 107.16,-519.8"/>
<polygon fill="midnightblue" stroke="midnightblue" points="154.51,-516.94 163.95,-512.13 153.57,-510 154.51,-516.94"/>
</g>
<!-- Node7 -->
<g id="node7" class="node">
<title>Node7</title>
<g id="a_node7"><a xlink:href="namespacecpinti_1_1gestionnaire__fichier.html#a52067ff600f55ed2731bb7f304f10273" target="_top" xlink:title=" ">
<polygon fill="white" stroke="black" points="167.5,-936 167.5,-977 275.5,-977 275.5,-936 167.5,-936"/>
<text text-anchor="start" x="175.5" y="-965" font-family="Helvetica,sans-Serif" font-size="10.00">cpinti::gestionnaire</text>
<text text-anchor="start" x="175.5" y="-954" font-family="Helvetica,sans-Serif" font-size="10.00">_fichier::cpinti_Copier</text>
<text text-anchor="middle" x="221.5" y="-943" font-family="Helvetica,sans-Serif" font-size="10.00">_Fichier</text>
</a>
</g>
</g>
<!-- Node6&#45;&gt;Node7 -->
<g id="edge6" class="edge">
<title>Node6&#45;&gt;Node7</title>
<path fill="none" stroke="midnightblue" d="M328.12,-946.67C310.77,-948.29 292.3,-950.01 275.73,-951.55"/>
<polygon fill="midnightblue" stroke="midnightblue" points="328.55,-950.15 338.18,-945.74 327.9,-943.18 328.55,-950.15"/>
</g>
<!-- Node11&#45;&gt;Node9 -->
<g id="edge13" class="edge">
<title>Node11&#45;&gt;Node9</title>
<path fill="none" stroke="midnightblue" d="M342.85,-832.32C293.11,-843.79 215.79,-861.85 149,-878.5 132.91,-882.51 115.27,-887.09 99.81,-891.17"/>
<polygon fill="midnightblue" stroke="midnightblue" points="343.76,-835.7 352.72,-830.04 342.19,-828.87 343.76,-835.7"/>
</g>
<!-- Node12 -->
<g id="node12" class="node">
<title>Node12</title>
<g id="a_node12"><a xlink:href="namespacecpinti.html#a8e50a29571c8f05af1d4735a6530688d" target="_top" xlink:title=" ">
<polygon fill="white" stroke="black" points="172,-761.5 172,-791.5 271,-791.5 271,-761.5 172,-761.5"/>
<text text-anchor="start" x="180" y="-779.5" font-family="Helvetica,sans-Serif" font-size="10.00">cpinti::cpinti_GEST</text>
<text text-anchor="middle" x="221.5" y="-768.5" font-family="Helvetica,sans-Serif" font-size="10.00">_BUFF_c</text>
</a>
</g>
</g>
<!-- Node11&#45;&gt;Node12 -->
<g id="edge14" class="edge">
<title>Node11&#45;&gt;Node12</title>
<path fill="none" stroke="midnightblue" d="M347.37,-808.44C323.7,-802.39 295.07,-795.06 271.19,-788.96"/>
<polygon fill="midnightblue" stroke="midnightblue" points="346.62,-811.87 357.18,-810.95 348.36,-805.08 346.62,-811.87"/>
</g>
<!-- Node11&#45;&gt;Node13 -->
<g id="edge15" class="edge">
<title>Node11&#45;&gt;Node13</title>
<path fill="none" stroke="midnightblue" d="M319.76,-826.04C269.73,-827.06 203.35,-823.12 149,-801.5 116.73,-788.66 86.97,-760.24 70.61,-742.6"/>
<polygon fill="midnightblue" stroke="midnightblue" points="319.95,-829.53 329.85,-825.76 319.76,-822.54 319.95,-829.53"/>
</g>
<!-- Node11&#45;&gt;Node14 -->
<g id="edge16" class="edge">
<title>Node11&#45;&gt;Node14</title>
<path fill="none" stroke="midnightblue" d="M368.05,-834.93C347.95,-845.71 319.5,-860.58 294,-872.5 283.03,-877.63 270.93,-882.86 259.86,-887.49"/>
<polygon fill="midnightblue" stroke="midnightblue" points="369.78,-837.97 376.92,-830.14 366.46,-831.81 369.78,-837.97"/>
</g>
<!-- Node11&#45;&gt;Node15 -->
<g id="edge18" class="edge">
<title>Node11&#45;&gt;Node15</title>
<path fill="none" stroke="midnightblue" d="M348.93,-807.04C342.28,-804.1 335.75,-800.61 330,-796.5 309.45,-781.81 314.7,-766.99 294,-752.5 287,-747.6 278.94,-743.57 270.82,-740.3"/>
<polygon fill="midnightblue" stroke="midnightblue" points="348.09,-810.47 358.68,-810.96 350.7,-803.98 348.09,-810.47"/>
</g>
<!-- Node14&#45;&gt;Node9 -->
<g id="edge17" class="edge">
<title>Node14&#45;&gt;Node9</title>
<path fill="none" stroke="midnightblue" d="M166.71,-902.5C144.89,-902.5 120.07,-902.5 99.61,-902.5"/>
<polygon fill="midnightblue" stroke="midnightblue" points="166.82,-906 176.82,-902.5 166.82,-899 166.82,-906"/>
</g>
<!-- Node15&#45;&gt;Node13 -->
<g id="edge19" class="edge">
<title>Node15&#45;&gt;Node13</title>
<path fill="none" stroke="midnightblue" d="M162.22,-727.5C141.55,-727.5 118.71,-727.5 99.65,-727.5"/>
<polygon fill="midnightblue" stroke="midnightblue" points="162.48,-731 172.48,-727.5 162.48,-724 162.48,-731"/>
</g>
<!-- Node22&#45;&gt;Node4 -->
<g id="edge30" class="edge">
<title>Node22&#45;&gt;Node4</title>
<path fill="none" stroke="midnightblue" d="M334.12,-319.13C332.69,-320.2 331.31,-321.32 330,-322.5 303.38,-346.4 311.78,-363.45 294,-394.5 274.08,-429.29 247.76,-468.23 233.25,-489.18"/>
<polygon fill="midnightblue" stroke="midnightblue" points="336.26,-321.91 342.79,-313.57 332.48,-316.02 336.26,-321.91"/>
</g>
<!-- Node22&#45;&gt;Node21 -->
<g id="edge34" class="edge">
<title>Node22&#45;&gt;Node21</title>
<path fill="none" stroke="midnightblue" d="M320.92,-282.24C310.79,-280.01 300.43,-277.72 290.42,-275.5"/>
<polygon fill="midnightblue" stroke="midnightblue" points="320.42,-285.72 330.94,-284.46 321.93,-278.88 320.42,-285.72"/>
</g>
<!-- Node23 -->
<g id="node23" class="node">
<title>Node23</title>
<g id="a_node23"><a xlink:href="namespacecpinti.html#add88e43780041b1587942a9bc7aa6f0d" target="_top" xlink:title=" ">
<polygon fill="white" stroke="black" points="0,-333 0,-352 113,-352 113,-333 0,-333"/>
<text text-anchor="middle" x="56.5" y="-340" font-family="Helvetica,sans-Serif" font-size="10.00">cpinti::cpinti_doevents</text>
</a>
</g>
</g>
<!-- Node22&#45;&gt;Node23 -->
<g id="edge31" class="edge">
<title>Node22&#45;&gt;Node23</title>
<path fill="none" stroke="midnightblue" d="M337.03,-318.21C334.6,-319.56 332.25,-320.99 330,-322.5 310.41,-335.64 315.61,-352.04 294,-361.5 222.5,-392.81 127.26,-367.35 82.61,-352.02"/>
<polygon fill="midnightblue" stroke="midnightblue" points="338.71,-321.28 346.06,-313.65 335.55,-315.03 338.71,-321.28"/>
</g>
<!-- Node24 -->
<g id="node24" class="node">
<title>Node24</title>
<g id="a_node24"><a xlink:href="namespacecpinti.html#a8235499e69d1e950b8ad549075f21a3d" target="_top" xlink:title=" ">
<polygon fill="white" stroke="black" points="169,-295 169,-314 274,-314 274,-295 169,-295"/>
<text text-anchor="middle" x="221.5" y="-302" font-family="Helvetica,sans-Serif" font-size="10.00">cpinti::cpinti_USleep</text>
</a>
</g>
</g>
<!-- Node22&#45;&gt;Node24 -->
<g id="edge32" class="edge">
<title>Node22&#45;&gt;Node24</title>
<path fill="none" stroke="midnightblue" d="M320.71,-301.07C304.97,-301.62 288.68,-302.19 274,-302.7"/>
<polygon fill="midnightblue" stroke="midnightblue" points="321.07,-304.56 330.94,-300.72 320.83,-297.57 321.07,-304.56"/>
</g>
<!-- Node25 -->
<g id="node25" class="node">
<title>Node25</title>
<g id="a_node25"><a xlink:href="core_8cpp.html#a8072a106077bf5b87885ed3fbafc7229" target="_top" xlink:title=" ">
<polygon fill="white" stroke="black" points="174,-333 174,-352 269,-352 269,-333 174,-333"/>
<text text-anchor="middle" x="221.5" y="-340" font-family="Helvetica,sans-Serif" font-size="10.00">Interruption_Timer</text>
</a>
</g>
</g>
<!-- Node22&#45;&gt;Node25 -->
<g id="edge35" class="edge">
<title>Node22&#45;&gt;Node25</title>
<path fill="none" stroke="midnightblue" d="M325.89,-316.05C303.29,-321.83 279.03,-328.04 259.68,-332.99"/>
<polygon fill="midnightblue" stroke="midnightblue" points="326.97,-319.39 335.79,-313.52 325.23,-312.61 326.97,-319.39"/>
</g>
<!-- Node24&#45;&gt;Node23 -->
<g id="edge33" class="edge">
<title>Node24&#45;&gt;Node23</title>
<path fill="none" stroke="midnightblue" d="M169.47,-316.4C146.56,-321.74 119.9,-327.95 98.34,-332.98"/>
<polygon fill="midnightblue" stroke="midnightblue" points="170.42,-319.77 179.37,-314.09 168.83,-312.95 170.42,-319.77"/>
</g>
<!-- Node26&#45;&gt;Node16 -->
<g id="edge37" class="edge">
<title>Node26&#45;&gt;Node16</title>
<path fill="none" stroke="midnightblue" d="M333.78,-628.79C312.9,-626.49 289.85,-623.94 270.16,-621.76"/>
<polygon fill="midnightblue" stroke="midnightblue" points="333.5,-632.28 343.82,-629.9 334.27,-625.33 333.5,-632.28"/>
</g>
<!-- Node27&#45;&gt;Node8 -->
<g id="edge39" class="edge">
<title>Node27&#45;&gt;Node8</title>
<path fill="none" stroke="midnightblue" d="M158.55,-34.63C155.27,-36.16 152.06,-37.78 149,-39.5 121.85,-54.75 95.1,-78.56 77.6,-95.67"/>
<polygon fill="midnightblue" stroke="midnightblue" points="160.16,-37.75 167.96,-30.58 157.39,-31.32 160.16,-37.75"/>
</g>
<!-- Node28&#45;&gt;Node20 -->
<g id="edge43" class="edge">
<title>Node28&#45;&gt;Node20</title>
<path fill="none" stroke="midnightblue" d="M331.8,-141.36C312.35,-146.9 291.17,-152.94 272.69,-158.2"/>
<polygon fill="midnightblue" stroke="midnightblue" points="332.83,-144.71 341.49,-138.6 330.91,-137.98 332.83,-144.71"/>
</g>
<!-- Node28&#45;&gt;Node27 -->
<g id="edge44" class="edge">
<title>Node28&#45;&gt;Node27</title>
<path fill="none" stroke="midnightblue" d="M372.84,-101.22C353.62,-82.54 324,-56.28 294,-39.5 288.06,-36.18 281.58,-33.21 275.03,-30.6"/>
<polygon fill="midnightblue" stroke="midnightblue" points="370.59,-103.93 380.17,-108.47 375.52,-98.95 370.59,-103.93"/>
</g>
<!-- Node29 -->
<g id="node29" class="node">
<title>Node29</title>
<g id="a_node29"><a xlink:href="namespacecpinti_1_1gestionnaire__tache.html#a575898d4f3044f265c999aca5721a17f" target="_top" xlink:title=" ">
<polygon fill="white" stroke="black" points="168,-49 168,-90 275,-90 275,-49 168,-49"/>
<text text-anchor="start" x="176" y="-78" font-family="Helvetica,sans-Serif" font-size="10.00">cpinti::gestionnaire</text>
<text text-anchor="start" x="176" y="-67" font-family="Helvetica,sans-Serif" font-size="10.00">_tache::cpinti_arreter</text>
<text text-anchor="middle" x="221.5" y="-56" font-family="Helvetica,sans-Serif" font-size="10.00">_thread</text>
</a>
</g>
</g>
<!-- Node28&#45;&gt;Node29 -->
<g id="edge41" class="edge">
<title>Node28&#45;&gt;Node29</title>
<path fill="none" stroke="midnightblue" d="M337.01,-105.45C317.07,-99.19 294.83,-92.21 275.29,-86.07"/>
<polygon fill="midnightblue" stroke="midnightblue" points="336,-108.8 346.59,-108.46 338.1,-102.12 336,-108.8"/>
</g>
<!-- Node30 -->
<g id="node30" class="node">
<title>Node30</title>
<g id="a_node30"><a xlink:href="namespacecpinti_1_1gestionnaire__tache.html#a0c0510966125e1a76026b112613397e5" target="_top" xlink:title=" ">
<polygon fill="white" stroke="black" points="161,-108.5 161,-138.5 282,-138.5 282,-108.5 161,-108.5"/>
<text text-anchor="start" x="169" y="-126.5" font-family="Helvetica,sans-Serif" font-size="10.00">cpinti::gestionnaire</text>
<text text-anchor="middle" x="221.5" y="-115.5" font-family="Helvetica,sans-Serif" font-size="10.00">_tache::cpinti_fin_thread</text>
</a>
</g>
</g>
<!-- Node28&#45;&gt;Node30 -->
<g id="edge42" class="edge">
<title>Node28&#45;&gt;Node30</title>
<path fill="none" stroke="midnightblue" d="M321.11,-123.5C308.1,-123.5 294.7,-123.5 282.13,-123.5"/>
<polygon fill="midnightblue" stroke="midnightblue" points="321.43,-127 331.43,-123.5 321.43,-120 321.43,-127"/>
</g>
</g>
</svg>
