<?xml version="1.0" encoding="UTF-8" standalone="no"?>
<!DOCTYPE svg PUBLIC "-//W3C//DTD SVG 1.1//EN"
 "http://www.w3.org/Graphics/SVG/1.1/DTD/svg11.dtd">
<!-- Generated by graphviz version 2.44.0 ()
 -->
<!-- Title: cpinti::Func_Cpinti::to_string Pages: 1 -->
<svg width="601pt" height="1171pt"
 viewBox="0.00 0.00 601.00 1171.26" xmlns="http://www.w3.org/2000/svg" xmlns:xlink="http://www.w3.org/1999/xlink">
<g id="graph0" class="graph" transform="scale(1 1) rotate(0) translate(4 1167.26)">
<title>cpinti::Func_Cpinti::to_string</title>
<polygon fill="white" stroke="transparent" points="-4,4 -4,-1167.26 597,-1167.26 597,4 -4,4"/>
<!-- Node1 -->
<g id="node1" class="node">
<title>Node1</title>
<g id="a_node1"><a xlink:title=" ">
<polygon fill="#bfbfbf" stroke="black" points="497,-616 497,-646 593,-646 593,-616 497,-616"/>
<text text-anchor="start" x="505" y="-634" font-family="Helvetica,sans-Serif" font-size="10.00">cpinti::Func_Cpinti</text>
<text text-anchor="middle" x="545" y="-623" font-family="Helvetica,sans-Serif" font-size="10.00">::to_string</text>
</a>
</g>
</g>
<!-- Node2 -->
<g id="node2" class="node">
<title>Node2</title>
<g id="a_node2"><a xlink:href="namespacecpinti_1_1gestionnaire__tache.html#a0ac5449471b1ca1bd90d9febec477342" target="_top" xlink:title=" ">
<polygon fill="white" stroke="black" points="330,-1091 330,-1121 461,-1121 461,-1091 330,-1091"/>
<text text-anchor="start" x="338" y="-1109" font-family="Helvetica,sans-Serif" font-size="10.00">cpinti::gestionnaire</text>
<text text-anchor="middle" x="395.5" y="-1098" font-family="Helvetica,sans-Serif" font-size="10.00">_tache::ajouter_Processus</text>
</a>
</g>
</g>
<!-- Node1&#45;&gt;Node2 -->
<g id="edge1" class="edge">
<title>Node1&#45;&gt;Node2</title>
<path fill="none" stroke="midnightblue" d="M542.29,-656.37C536.15,-740.56 512.81,-1009.23 461,-1076 456.31,-1082.05 450.1,-1086.93 443.4,-1090.85"/>
<polygon fill="midnightblue" stroke="midnightblue" points="545.78,-656.61 543,-646.39 538.8,-656.12 545.78,-656.61"/>
</g>
<!-- Node3 -->
<g id="node3" class="node">
<title>Node3</title>
<g id="a_node3"><a xlink:href="namespacecpinti_1_1gestionnaire__tache.html#a8c7c5649614ba9fb24d07fc01370efdb" target="_top" xlink:title=" ">
<polygon fill="white" stroke="black" points="171,-1114.5 171,-1155.5 272,-1155.5 272,-1114.5 171,-1114.5"/>
<text text-anchor="start" x="179" y="-1143.5" font-family="Helvetica,sans-Serif" font-size="10.00">cpinti::gestionnaire</text>
<text text-anchor="start" x="179" y="-1132.5" font-family="Helvetica,sans-Serif" font-size="10.00">_tache::cpinti_creer</text>
<text text-anchor="middle" x="221.5" y="-1121.5" font-family="Helvetica,sans-Serif" font-size="10.00">_processus</text>
</a>
</g>
</g>
<!-- Node1&#45;&gt;Node3 -->
<g id="edge9" class="edge">
<title>Node1&#45;&gt;Node3</title>
<path fill="none" stroke="midnightblue" d="M543.86,-656.16C542.78,-748.74 533.77,-1068.26 461,-1131 409.41,-1175.48 325.64,-1164.45 272.35,-1150.88"/>
<polygon fill="midnightblue" stroke="midnightblue" points="547.36,-656.06 543.96,-646.03 540.37,-656 547.36,-656.06"/>
</g>
<!-- Node4 -->
<g id="node4" class="node">
<title>Node4</title>
<g id="a_node4"><a xlink:href="namespacecpinti_1_1gestionnaire__tache.html#a6e5e5771fd2998d286a459f65136f6ab" target="_top" xlink:title=" ">
<polygon fill="white" stroke="black" points="338,-1003 338,-1033 453,-1033 453,-1003 338,-1003"/>
<text text-anchor="start" x="346" y="-1021" font-family="Helvetica,sans-Serif" font-size="10.00">cpinti::gestionnaire</text>
<text text-anchor="middle" x="395.5" y="-1010" font-family="Helvetica,sans-Serif" font-size="10.00">_tache::ajouter_Thread</text>
</a>
</g>
</g>
<!-- Node1&#45;&gt;Node4 -->
<g id="edge3" class="edge">
<title>Node1&#45;&gt;Node4</title>
<path fill="none" stroke="midnightblue" d="M541.34,-656.28C533.11,-730.01 505.89,-942.79 461,-994 458.01,-997.41 454.48,-1000.34 450.65,-1002.86"/>
<polygon fill="midnightblue" stroke="midnightblue" points="544.85,-656.39 542.46,-646.07 537.89,-655.63 544.85,-656.39"/>
</g>
<!-- Node5 -->
<g id="node5" class="node">
<title>Node5</title>
<g id="a_node5"><a xlink:href="namespacecpinti_1_1gestionnaire__tache.html#a51999b0d5e6551d7384fd8da9cd6620e" target="_top" xlink:title=" ">
<polygon fill="white" stroke="black" points="171,-1040.5 171,-1081.5 272,-1081.5 272,-1040.5 171,-1040.5"/>
<text text-anchor="start" x="179" y="-1069.5" font-family="Helvetica,sans-Serif" font-size="10.00">cpinti::gestionnaire</text>
<text text-anchor="start" x="179" y="-1058.5" font-family="Helvetica,sans-Serif" font-size="10.00">_tache::cpinti_creer</text>
<text text-anchor="middle" x="221.5" y="-1047.5" font-family="Helvetica,sans-Serif" font-size="10.00">_thread</text>
</a>
</g>
</g>
<!-- Node1&#45;&gt;Node5 -->
<g id="edge10" class="edge">
<title>Node1&#45;&gt;Node5</title>
<path fill="none" stroke="midnightblue" d="M542.75,-656.53C538.19,-738.28 519.49,-991.32 461,-1043 409.66,-1088.37 325.42,-1082.73 272.02,-1072.99"/>
<polygon fill="midnightblue" stroke="midnightblue" points="546.27,-656.34 543.3,-646.17 539.28,-655.97 546.27,-656.34"/>
</g>
<!-- Node6 -->
<g id="node6" class="node">
<title>Node6</title>
<g id="a_node6"><a xlink:href="namespacecpinti_1_1gestionnaire__fichier.html#ae04b7d30580d07875a05ce6d49a89191" target="_top" xlink:title=" ">
<polygon fill="white" stroke="black" points="338.5,-954 338.5,-984 452.5,-984 452.5,-954 338.5,-954"/>
<text text-anchor="start" x="346.5" y="-972" font-family="Helvetica,sans-Serif" font-size="10.00">cpinti::gestionnaire</text>
<text text-anchor="middle" x="395.5" y="-961" font-family="Helvetica,sans-Serif" font-size="10.00">_fichier::Copier_Fichier</text>
</a>
</g>
</g>
<!-- Node1&#45;&gt;Node6 -->
<g id="edge5" class="edge">
<title>Node1&#45;&gt;Node6</title>
<path fill="none" stroke="midnightblue" d="M544.06,-656.46C542.87,-713.71 532.35,-854.17 461,-939 455.91,-945.05 449.34,-949.95 442.34,-953.89"/>
<polygon fill="midnightblue" stroke="midnightblue" points="547.56,-656.21 544.19,-646.17 540.56,-656.12 547.56,-656.21"/>
</g>
<!-- Node8 -->
<g id="node8" class="node">
<title>Node8</title>
<g id="a_node8"><a xlink:href="namespacecpinti_1_1gestionnaire__tache.html#ac39e89c68667f074a252569a20c74975" target="_top" xlink:title=" ">
<polygon fill="white" stroke="black" points="3,-909.5 3,-950.5 110,-950.5 110,-909.5 3,-909.5"/>
<text text-anchor="start" x="11" y="-938.5" font-family="Helvetica,sans-Serif" font-size="10.00">cpinti::gestionnaire</text>
<text text-anchor="start" x="11" y="-927.5" font-family="Helvetica,sans-Serif" font-size="10.00">_tache::cpinti_arreter</text>
<text text-anchor="middle" x="56.5" y="-916.5" font-family="Helvetica,sans-Serif" font-size="10.00">_processus</text>
</a>
</g>
</g>
<!-- Node1&#45;&gt;Node8 -->
<g id="edge7" class="edge">
<title>Node1&#45;&gt;Node8</title>
<path fill="none" stroke="midnightblue" d="M544.22,-656.3C543.22,-709.9 532.85,-835.27 461,-900 410.7,-945.31 207.4,-939.4 110.01,-933.71"/>
<polygon fill="midnightblue" stroke="midnightblue" points="547.72,-656.32 544.31,-646.29 540.72,-656.25 547.72,-656.32"/>
</g>
<!-- Node9 -->
<g id="node9" class="node">
<title>Node9</title>
<g id="a_node9"><a xlink:href="namespacecpinti_1_1net.html#a0c070039715652789e0814e8a98beb39" target="_top" xlink:title=" ">
<polygon fill="white" stroke="black" points="13.5,-648 13.5,-678 99.5,-678 99.5,-648 13.5,-648"/>
<text text-anchor="start" x="21.5" y="-666" font-family="Helvetica,sans-Serif" font-size="10.00">cpinti::net::cpinti</text>
<text text-anchor="middle" x="56.5" y="-655" font-family="Helvetica,sans-Serif" font-size="10.00">_client</text>
</a>
</g>
</g>
<!-- Node1&#45;&gt;Node9 -->
<g id="edge8" class="edge">
<title>Node1&#45;&gt;Node9</title>
<path fill="none" stroke="midnightblue" d="M507.83,-650.57C493.61,-657.46 476.91,-664.58 461,-669 327.16,-706.23 286.69,-706.47 149,-688 132.68,-685.81 115.15,-681.52 99.84,-677.1"/>
<polygon fill="midnightblue" stroke="midnightblue" points="509.4,-653.71 516.78,-646.11 506.27,-647.44 509.4,-653.71"/>
</g>
<!-- Node10 -->
<g id="node10" class="node">
<title>Node10</title>
<g id="a_node10"><a xlink:href="namespacecpinti_1_1gestionnaire__fichier.html#a01b259b43b24dd5a9f1db1dd4c6b3875" target="_top" xlink:title=" ">
<polygon fill="white" stroke="black" points="343,-485.5 343,-526.5 448,-526.5 448,-485.5 343,-485.5"/>
<text text-anchor="start" x="351" y="-514.5" font-family="Helvetica,sans-Serif" font-size="10.00">cpinti::gestionnaire</text>
<text text-anchor="start" x="351" y="-503.5" font-family="Helvetica,sans-Serif" font-size="10.00">_fichier::cpinti_Ecrire</text>
<text text-anchor="middle" x="395.5" y="-492.5" font-family="Helvetica,sans-Serif" font-size="10.00">_Fichier_complet</text>
</a>
</g>
</g>
<!-- Node1&#45;&gt;Node10 -->
<g id="edge11" class="edge">
<title>Node1&#45;&gt;Node10</title>
<path fill="none" stroke="midnightblue" d="M526.25,-607.83C510.55,-588.38 486.27,-560.68 461,-541 454.37,-535.83 446.86,-531.01 439.38,-526.68"/>
<polygon fill="midnightblue" stroke="midnightblue" points="523.68,-610.22 532.63,-615.88 529.16,-605.87 523.68,-610.22"/>
</g>
<!-- Node11 -->
<g id="node11" class="node">
<title>Node11</title>
<g id="a_node11"><a xlink:href="namespacecpinti.html#af3fb396e744daa5441044b785ca8b200" target="_top" xlink:title=" ">
<polygon fill="white" stroke="black" points="330,-621.5 330,-640.5 461,-640.5 461,-621.5 330,-621.5"/>
<text text-anchor="middle" x="395.5" y="-628.5" font-family="Helvetica,sans-Serif" font-size="10.00">cpinti::cpinti_GEST_BUFF</text>
</a>
</g>
</g>
<!-- Node1&#45;&gt;Node11 -->
<g id="edge12" class="edge">
<title>Node1&#45;&gt;Node11</title>
<path fill="none" stroke="midnightblue" d="M486.84,-631C478.42,-631 469.7,-631 461.15,-631"/>
<polygon fill="midnightblue" stroke="midnightblue" points="486.92,-634.5 496.92,-631 486.92,-627.5 486.92,-634.5"/>
</g>
<!-- Node13 -->
<g id="node13" class="node">
<title>Node13</title>
<g id="a_node13"><a xlink:href="namespacecpinti_1_1net.html#ae75f979d2adaeb1c19ba2a45f8ad2eeb" target="_top" xlink:title=" ">
<polygon fill="white" stroke="black" points="13.5,-472 13.5,-502 99.5,-502 99.5,-472 13.5,-472"/>
<text text-anchor="start" x="21.5" y="-490" font-family="Helvetica,sans-Serif" font-size="10.00">cpinti::net::cpinti</text>
<text text-anchor="middle" x="56.5" y="-479" font-family="Helvetica,sans-Serif" font-size="10.00">_serveur</text>
</a>
</g>
</g>
<!-- Node1&#45;&gt;Node13 -->
<g id="edge22" class="edge">
<title>Node1&#45;&gt;Node13</title>
<path fill="none" stroke="midnightblue" d="M520.14,-609.14C504.38,-595.78 482.71,-579.33 461,-569 406.78,-543.2 376.7,-573.74 330,-536 301.86,-513.26 324.72,-482.1 294,-463 230.57,-423.55 138.61,-451.88 90.17,-471.87"/>
<polygon fill="midnightblue" stroke="midnightblue" points="517.96,-611.89 527.8,-615.8 522.55,-606.6 517.96,-611.89"/>
</g>
<!-- Node14 -->
<g id="node14" class="node">
<title>Node14</title>
<g id="a_node14"><a xlink:href="namespacecpinti_1_1net__client.html#a2c0e37d915c8350e880ce82fe14cbe43" target="_top" xlink:title=" ">
<polygon fill="white" stroke="black" points="177,-648 177,-678 266,-678 266,-648 177,-648"/>
<text text-anchor="start" x="185" y="-666" font-family="Helvetica,sans-Serif" font-size="10.00">cpinti::net_client</text>
<text text-anchor="middle" x="221.5" y="-655" font-family="Helvetica,sans-Serif" font-size="10.00">::Demarrer_client</text>
</a>
</g>
</g>
<!-- Node1&#45;&gt;Node14 -->
<g id="edge26" class="edge">
<title>Node1&#45;&gt;Node14</title>
<path fill="none" stroke="midnightblue" d="M486.86,-645.42C478.24,-647.21 469.42,-648.82 461,-650 393.45,-659.5 314.23,-662.16 266.24,-662.85"/>
<polygon fill="midnightblue" stroke="midnightblue" points="487.82,-648.79 496.86,-643.26 486.34,-641.95 487.82,-648.79"/>
</g>
<!-- Node15 -->
<g id="node15" class="node">
<title>Node15</title>
<g id="a_node15"><a xlink:href="namespacecpinti_1_1net__server.html#a8dd4cfd770dcd100f4ababcc7f3dbaa9" target="_top" xlink:title=" ">
<polygon fill="white" stroke="black" points="172.5,-472 172.5,-502 270.5,-502 270.5,-472 172.5,-472"/>
<text text-anchor="start" x="180.5" y="-490" font-family="Helvetica,sans-Serif" font-size="10.00">cpinti::net_server</text>
<text text-anchor="middle" x="221.5" y="-479" font-family="Helvetica,sans-Serif" font-size="10.00">::Demarrer_serveur</text>
</a>
</g>
</g>
<!-- Node1&#45;&gt;Node15 -->
<g id="edge27" class="edge">
<title>Node1&#45;&gt;Node15</title>
<path fill="none" stroke="midnightblue" d="M486.84,-616.76C427.82,-601.7 342.6,-578.78 330,-569 305.13,-549.7 318.84,-527.34 294,-508 287.16,-502.67 279,-498.7 270.69,-495.73"/>
<polygon fill="midnightblue" stroke="midnightblue" points="486.24,-620.22 496.8,-619.29 487.97,-613.44 486.24,-620.22"/>
</g>
<!-- Node16 -->
<g id="node16" class="node">
<title>Node16</title>
<g id="a_node16"><a xlink:href="namespacecpinti_1_1gestionnaire__tache.html#a7ad157c33a0e2a1cfe9adbde0c4760d8" target="_top" xlink:title=" ">
<polygon fill="white" stroke="black" points="337.5,-425.5 337.5,-466.5 453.5,-466.5 453.5,-425.5 337.5,-425.5"/>
<text text-anchor="start" x="345.5" y="-454.5" font-family="Helvetica,sans-Serif" font-size="10.00">cpinti::gestionnaire</text>
<text text-anchor="start" x="345.5" y="-443.5" font-family="Helvetica,sans-Serif" font-size="10.00">_tache::cpinti_get_nom</text>
<text text-anchor="middle" x="395.5" y="-432.5" font-family="Helvetica,sans-Serif" font-size="10.00">_processus</text>
</a>
</g>
</g>
<!-- Node1&#45;&gt;Node16 -->
<g id="edge20" class="edge">
<title>Node1&#45;&gt;Node16</title>
<path fill="none" stroke="midnightblue" d="M536.18,-605.84C524.62,-572.3 500.03,-512.9 461,-476 457.32,-472.52 453.16,-469.39 448.78,-466.58"/>
<polygon fill="midnightblue" stroke="midnightblue" points="533,-607.37 539.48,-615.76 539.64,-605.16 533,-607.37"/>
</g>
<!-- Node17 -->
<g id="node17" class="node">
<title>Node17</title>
<g id="a_node17"><a xlink:href="namespacecpinti_1_1gestionnaire__fichier.html#aa88fdf5496d3109c3cf1b0c9f76c0d1d" target="_top" xlink:title=" ">
<polygon fill="white" stroke="black" points="173,-350.5 173,-391.5 270,-391.5 270,-350.5 173,-350.5"/>
<text text-anchor="start" x="181" y="-379.5" font-family="Helvetica,sans-Serif" font-size="10.00">cpinti::gestionnaire</text>
<text text-anchor="start" x="181" y="-368.5" font-family="Helvetica,sans-Serif" font-size="10.00">_fichier::cpinti_Lire</text>
<text text-anchor="middle" x="221.5" y="-357.5" font-family="Helvetica,sans-Serif" font-size="10.00">_Fichier_complet</text>
</a>
</g>
</g>
<!-- Node1&#45;&gt;Node17 -->
<g id="edge21" class="edge">
<title>Node1&#45;&gt;Node17</title>
<path fill="none" stroke="midnightblue" d="M542,-605.75C536.98,-560.29 519.65,-464.85 461,-416 432.63,-392.37 331.33,-380.01 270.25,-374.55"/>
<polygon fill="midnightblue" stroke="midnightblue" points="538.54,-606.32 543.01,-615.92 545.51,-605.63 538.54,-606.32"/>
</g>
<!-- Node18 -->
<g id="node18" class="node">
<title>Node18</title>
<g id="a_node18"><a xlink:href="namespacecpinti_1_1gestionnaire__fichier.html#a15ed875c00b9407b80b72b1f56d72e17" target="_top" xlink:title=" ">
<polygon fill="white" stroke="black" points="333,-267.5 333,-308.5 458,-308.5 458,-267.5 333,-267.5"/>
<text text-anchor="start" x="341" y="-296.5" font-family="Helvetica,sans-Serif" font-size="10.00">cpinti::gestionnaire</text>
<text text-anchor="start" x="341" y="-285.5" font-family="Helvetica,sans-Serif" font-size="10.00">_fichier::cpinti_Supprimer</text>
<text text-anchor="middle" x="395.5" y="-274.5" font-family="Helvetica,sans-Serif" font-size="10.00">_Fichier</text>
</a>
</g>
</g>
<!-- Node1&#45;&gt;Node18 -->
<g id="edge23" class="edge">
<title>Node1&#45;&gt;Node18</title>
<path fill="none" stroke="midnightblue" d="M544.2,-605.9C543.35,-548.24 533.58,-404.64 461,-318 458.07,-314.5 454.63,-311.38 450.91,-308.61"/>
<polygon fill="midnightblue" stroke="midnightblue" points="540.7,-605.96 544.27,-615.94 547.7,-605.91 540.7,-605.96"/>
</g>
<!-- Node19 -->
<g id="node19" class="node">
<title>Node19</title>
<g id="a_node19"><a xlink:href="namespacecpinti_1_1gestionnaire__fichier.html#a389584e265b41ce10ca6ca8ea808cd4f" target="_top" xlink:title=" ">
<polygon fill="white" stroke="black" points="343.5,-207.5 343.5,-248.5 447.5,-248.5 447.5,-207.5 343.5,-207.5"/>
<text text-anchor="start" x="351.5" y="-236.5" font-family="Helvetica,sans-Serif" font-size="10.00">cpinti::gestionnaire</text>
<text text-anchor="start" x="351.5" y="-225.5" font-family="Helvetica,sans-Serif" font-size="10.00">_fichier::cpinti_Taille</text>
<text text-anchor="middle" x="395.5" y="-214.5" font-family="Helvetica,sans-Serif" font-size="10.00">_Fichier</text>
</a>
</g>
</g>
<!-- Node1&#45;&gt;Node19 -->
<g id="edge24" class="edge">
<title>Node1&#45;&gt;Node19</title>
<path fill="none" stroke="midnightblue" d="M541.29,-605.66C532.83,-530.81 504.88,-312.58 461,-258 457.29,-253.38 452.7,-249.44 447.69,-246.08"/>
<polygon fill="midnightblue" stroke="midnightblue" points="537.81,-606.07 542.39,-615.62 544.77,-605.3 537.81,-606.07"/>
</g>
<!-- Node20 -->
<g id="node20" class="node">
<title>Node20</title>
<g id="a_node20"><a xlink:href="namespace_wrapper___cpcdos.html#a05d09b6fe335777e722d96ad69326bd3" target="_top" xlink:title=" ">
<polygon fill="white" stroke="black" points="336,-159 336,-189 455,-189 455,-159 336,-159"/>
<text text-anchor="start" x="344" y="-177" font-family="Helvetica,sans-Serif" font-size="10.00">Wrapper_Cpcdos::cpinti</text>
<text text-anchor="middle" x="395.5" y="-166" font-family="Helvetica,sans-Serif" font-size="10.00">_WRAPPER</text>
</a>
</g>
</g>
<!-- Node1&#45;&gt;Node20 -->
<g id="edge25" class="edge">
<title>Node1&#45;&gt;Node20</title>
<path fill="none" stroke="midnightblue" d="M542.37,-605.9C536.53,-523.18 514.1,-260.79 461,-198 458.07,-194.53 454.59,-191.57 450.78,-189.03"/>
<polygon fill="midnightblue" stroke="midnightblue" points="538.88,-606.19 543.06,-615.93 545.87,-605.71 538.88,-606.19"/>
</g>
<!-- Node21 -->
<g id="node21" class="node">
<title>Node21</title>
<g id="a_node21"><a xlink:href="namespacecpinti_1_1gestionnaire__tache.html#aace982c0d3bc1618caf70ececf929141" target="_top" xlink:title=" ">
<polygon fill="white" stroke="black" points="170.5,-844 170.5,-874 272.5,-874 272.5,-844 170.5,-844"/>
<text text-anchor="start" x="178.5" y="-862" font-family="Helvetica,sans-Serif" font-size="10.00">cpinti::gestionnaire</text>
<text text-anchor="middle" x="221.5" y="-851" font-family="Helvetica,sans-Serif" font-size="10.00">_tache::fermer_core</text>
</a>
</g>
</g>
<!-- Node1&#45;&gt;Node21 -->
<g id="edge28" class="edge">
<title>Node1&#45;&gt;Node21</title>
<path fill="none" stroke="midnightblue" d="M541.51,-655.99C535.76,-699.19 517.39,-787.28 461,-830 406.81,-871.06 324.93,-871.59 272.6,-866.55"/>
<polygon fill="midnightblue" stroke="midnightblue" points="544.99,-656.38 542.71,-646.03 538.04,-655.54 544.99,-656.38"/>
</g>
<!-- Node22 -->
<g id="node22" class="node">
<title>Node22</title>
<g id="a_node22"><a xlink:href="namespacecpinti_1_1gestionnaire__tache.html#ad386876c980cb034a2f757e09a1c4977" target="_top" xlink:title=" ">
<polygon fill="white" stroke="black" points="152,-115 152,-145 291,-145 291,-115 152,-115"/>
<text text-anchor="start" x="160" y="-133" font-family="Helvetica,sans-Serif" font-size="10.00">cpinti::gestionnaire</text>
<text text-anchor="middle" x="221.5" y="-122" font-family="Helvetica,sans-Serif" font-size="10.00">_tache::initialiser_Multitache</text>
</a>
</g>
</g>
<!-- Node1&#45;&gt;Node22 -->
<g id="edge29" class="edge">
<title>Node1&#45;&gt;Node22</title>
<path fill="none" stroke="midnightblue" d="M543.54,-605.77C541.34,-515.74 528.92,-212.24 461,-150 416.04,-108.8 344.26,-108.27 291.17,-115.31"/>
<polygon fill="midnightblue" stroke="midnightblue" points="540.04,-605.97 543.77,-615.89 547.04,-605.82 540.04,-605.97"/>
</g>
<!-- Node23 -->
<g id="node23" class="node">
<title>Node23</title>
<g id="a_node23"><a xlink:href="namespacecpinti_1_1gestionnaire__tache.html#a640f909bd791a0d1c0f4d87e58fbb5ae" target="_top" xlink:title=" ">
<polygon fill="white" stroke="black" points="331,-71 331,-101 460,-101 460,-71 331,-71"/>
<text text-anchor="start" x="339" y="-89" font-family="Helvetica,sans-Serif" font-size="10.00">cpinti::gestionnaire</text>
<text text-anchor="middle" x="395.5" y="-78" font-family="Helvetica,sans-Serif" font-size="10.00">_tache::Interruption_Timer</text>
</a>
</g>
</g>
<!-- Node1&#45;&gt;Node23 -->
<g id="edge30" class="edge">
<title>Node1&#45;&gt;Node23</title>
<path fill="none" stroke="midnightblue" d="M543,-605.7C538.89,-513.22 520.59,-194.77 461,-116 456.38,-109.89 450.22,-104.99 443.52,-101.05"/>
<polygon fill="midnightblue" stroke="midnightblue" points="539.51,-605.99 543.43,-615.83 546.5,-605.69 539.51,-605.99"/>
</g>
<!-- Node27 -->
<g id="node27" class="node">
<title>Node27</title>
<g id="a_node27"><a xlink:href="namespacecpinti_1_1gestionnaire__fichier.html#a0639698a01d0468162c52cde6b75db06" target="_top" xlink:title=" ">
<polygon fill="white" stroke="black" points="344,-327.5 344,-368.5 447,-368.5 447,-327.5 344,-327.5"/>
<text text-anchor="start" x="352" y="-356.5" font-family="Helvetica,sans-Serif" font-size="10.00">cpinti::gestionnaire</text>
<text text-anchor="start" x="352" y="-345.5" font-family="Helvetica,sans-Serif" font-size="10.00">_fichier::Lire_Fichier</text>
<text text-anchor="middle" x="395.5" y="-334.5" font-family="Helvetica,sans-Serif" font-size="10.00">_complet</text>
</a>
</g>
</g>
<!-- Node1&#45;&gt;Node27 -->
<g id="edge36" class="edge">
<title>Node1&#45;&gt;Node27</title>
<path fill="none" stroke="midnightblue" d="M541.63,-605.5C535.9,-556.96 517.33,-450.11 461,-383 456.41,-377.54 450.75,-372.79 444.69,-368.7"/>
<polygon fill="midnightblue" stroke="midnightblue" points="538.18,-606.18 542.74,-615.74 545.14,-605.42 538.18,-606.18"/>
</g>
<!-- Node28 -->
<g id="node28" class="node">
<title>Node28</title>
<g id="a_node28"><a xlink:href="namespacecpinti_1_1gestionnaire__tache.html#ac43c3c3801eaf41bc3e0b0d184461f96" target="_top" xlink:title=" ">
<polygon fill="white" stroke="black" points="149,-893 149,-923 294,-923 294,-893 149,-893"/>
<text text-anchor="start" x="157" y="-911" font-family="Helvetica,sans-Serif" font-size="10.00">cpinti::gestionnaire</text>
<text text-anchor="middle" x="221.5" y="-900" font-family="Helvetica,sans-Serif" font-size="10.00">_tache::supprimer_Processus</text>
</a>
</g>
</g>
<!-- Node1&#45;&gt;Node28 -->
<g id="edge38" class="edge">
<title>Node1&#45;&gt;Node28</title>
<path fill="none" stroke="midnightblue" d="M542.83,-656.17C539.14,-704.28 523.92,-809.26 461,-863 415.18,-902.13 346.13,-911.59 294.1,-912.31"/>
<polygon fill="midnightblue" stroke="midnightblue" points="546.33,-656.22 543.49,-646.01 539.34,-655.76 546.33,-656.22"/>
</g>
<!-- Node29 -->
<g id="node29" class="node">
<title>Node29</title>
<g id="a_node29"><a xlink:href="namespacecpinti_1_1gestionnaire__tache.html#ace8684d7861881e3535f5eaa6008b94f" target="_top" xlink:title=" ">
<polygon fill="white" stroke="black" points="331.5,-790 331.5,-820 459.5,-820 459.5,-790 331.5,-790"/>
<text text-anchor="start" x="339.5" y="-808" font-family="Helvetica,sans-Serif" font-size="10.00">cpinti::gestionnaire</text>
<text text-anchor="middle" x="395.5" y="-797" font-family="Helvetica,sans-Serif" font-size="10.00">_tache::supprimer_Thread</text>
</a>
</g>
</g>
<!-- Node1&#45;&gt;Node29 -->
<g id="edge40" class="edge">
<title>Node1&#45;&gt;Node29</title>
<path fill="none" stroke="midnightblue" d="M524.36,-654.17C493.7,-690.34 435.3,-759.23 409.41,-789.77"/>
<polygon fill="midnightblue" stroke="midnightblue" points="527.37,-656.03 531.17,-646.14 522.03,-651.5 527.37,-656.03"/>
</g>
<!-- Node2&#45;&gt;Node3 -->
<g id="edge2" class="edge">
<title>Node2&#45;&gt;Node3</title>
<path fill="none" stroke="midnightblue" d="M319.97,-1118.57C303.77,-1121.3 287.02,-1124.12 272.07,-1126.64"/>
<polygon fill="midnightblue" stroke="midnightblue" points="320.69,-1121.99 329.96,-1116.88 319.52,-1115.09 320.69,-1121.99"/>
</g>
<!-- Node4&#45;&gt;Node5 -->
<g id="edge4" class="edge">
<title>Node4&#45;&gt;Node5</title>
<path fill="none" stroke="midnightblue" d="M327.83,-1034.67C309.26,-1039.31 289.41,-1044.27 272.02,-1048.62"/>
<polygon fill="midnightblue" stroke="midnightblue" points="328.85,-1038.02 337.7,-1032.2 327.15,-1031.23 328.85,-1038.02"/>
</g>
<!-- Node7 -->
<g id="node7" class="node">
<title>Node7</title>
<g id="a_node7"><a xlink:href="namespacecpinti_1_1gestionnaire__fichier.html#a52067ff600f55ed2731bb7f304f10273" target="_top" xlink:title=" ">
<polygon fill="white" stroke="black" points="167.5,-980.5 167.5,-1021.5 275.5,-1021.5 275.5,-980.5 167.5,-980.5"/>
<text text-anchor="start" x="175.5" y="-1009.5" font-family="Helvetica,sans-Serif" font-size="10.00">cpinti::gestionnaire</text>
<text text-anchor="start" x="175.5" y="-998.5" font-family="Helvetica,sans-Serif" font-size="10.00">_fichier::cpinti_Copier</text>
<text text-anchor="middle" x="221.5" y="-987.5" font-family="Helvetica,sans-Serif" font-size="10.00">_Fichier</text>
</a>
</g>
</g>
<!-- Node6&#45;&gt;Node7 -->
<g id="edge6" class="edge">
<title>Node6&#45;&gt;Node7</title>
<path fill="none" stroke="midnightblue" d="M328.12,-981.35C310.77,-984.58 292.3,-988.01 275.73,-991.1"/>
<polygon fill="midnightblue" stroke="midnightblue" points="328.99,-984.75 338.18,-979.48 327.71,-977.87 328.99,-984.75"/>
</g>
<!-- Node11&#45;&gt;Node9 -->
<g id="edge13" class="edge">
<title>Node11&#45;&gt;Node9</title>
<path fill="none" stroke="midnightblue" d="M319.63,-629.11C270.81,-628.94 205.83,-630.73 149,-639 132.75,-641.37 115.23,-645.55 99.92,-649.76"/>
<polygon fill="midnightblue" stroke="midnightblue" points="319.78,-632.61 329.8,-629.18 319.82,-625.61 319.78,-632.61"/>
</g>
<!-- Node12 -->
<g id="node12" class="node">
<title>Node12</title>
<g id="a_node12"><a xlink:href="namespacecpinti.html#a8e50a29571c8f05af1d4735a6530688d" target="_top" xlink:title=" ">
<polygon fill="white" stroke="black" points="172,-560 172,-590 271,-590 271,-560 172,-560"/>
<text text-anchor="start" x="180" y="-578" font-family="Helvetica,sans-Serif" font-size="10.00">cpinti::cpinti_GEST</text>
<text text-anchor="middle" x="221.5" y="-567" font-family="Helvetica,sans-Serif" font-size="10.00">_BUFF_c</text>
</a>
</g>
</g>
<!-- Node11&#45;&gt;Node12 -->
<g id="edge14" class="edge">
<title>Node11&#45;&gt;Node12</title>
<path fill="none" stroke="midnightblue" d="M355.16,-618.19C329.47,-609.83 295.81,-598.87 268.82,-590.08"/>
<polygon fill="midnightblue" stroke="midnightblue" points="354.34,-621.61 364.93,-621.37 356.51,-614.95 354.34,-621.61"/>
</g>
<!-- Node11&#45;&gt;Node13 -->
<g id="edge15" class="edge">
<title>Node11&#45;&gt;Node13</title>
<path fill="none" stroke="midnightblue" d="M346.94,-617.38C340.9,-614.51 335.07,-611.08 330,-607 306.95,-588.44 317.89,-568.46 294,-551 240.12,-511.62 213.41,-529.46 149,-512 132.95,-507.65 115.32,-502.84 99.86,-498.61"/>
<polygon fill="midnightblue" stroke="midnightblue" points="345.95,-620.77 356.53,-621.45 348.69,-614.32 345.95,-620.77"/>
</g>
<!-- Node11&#45;&gt;Node14 -->
<g id="edge16" class="edge">
<title>Node11&#45;&gt;Node14</title>
<path fill="none" stroke="midnightblue" d="M333.36,-642.38C311.16,-646.5 286.56,-651.08 266.17,-654.87"/>
<polygon fill="midnightblue" stroke="midnightblue" points="334.17,-645.78 343.36,-640.51 332.89,-638.9 334.17,-645.78"/>
</g>
<!-- Node11&#45;&gt;Node15 -->
<g id="edge18" class="edge">
<title>Node11&#45;&gt;Node15</title>
<path fill="none" stroke="midnightblue" d="M343.92,-617.06C338.84,-614.28 334.06,-610.96 330,-607 299.17,-576.91 324.21,-547.72 294,-517 287.49,-510.38 279.29,-505.15 270.79,-501.04"/>
<polygon fill="midnightblue" stroke="midnightblue" points="342.78,-620.39 353.32,-621.5 345.77,-614.06 342.78,-620.39"/>
</g>
<!-- Node14&#45;&gt;Node9 -->
<g id="edge17" class="edge">
<title>Node14&#45;&gt;Node9</title>
<path fill="none" stroke="midnightblue" d="M166.71,-663C144.89,-663 120.07,-663 99.61,-663"/>
<polygon fill="midnightblue" stroke="midnightblue" points="166.82,-666.5 176.82,-663 166.82,-659.5 166.82,-666.5"/>
</g>
<!-- Node15&#45;&gt;Node13 -->
<g id="edge19" class="edge">
<title>Node15&#45;&gt;Node13</title>
<path fill="none" stroke="midnightblue" d="M162.22,-487C141.55,-487 118.71,-487 99.65,-487"/>
<polygon fill="midnightblue" stroke="midnightblue" points="162.48,-490.5 172.48,-487 162.48,-483.5 162.48,-490.5"/>
</g>
<!-- Node23&#45;&gt;Node22 -->
<g id="edge34" class="edge">
<title>Node23&#45;&gt;Node22</title>
<path fill="none" stroke="midnightblue" d="M325.72,-103.59C310.99,-107.36 295.55,-111.31 281.24,-114.97"/>
<polygon fill="midnightblue" stroke="midnightblue" points="326.97,-106.89 335.79,-101.02 325.23,-100.11 326.97,-106.89"/>
</g>
<!-- Node24 -->
<g id="node24" class="node">
<title>Node24</title>
<g id="a_node24"><a xlink:href="namespacecpinti.html#add88e43780041b1587942a9bc7aa6f0d" target="_top" xlink:title=" ">
<polygon fill="white" stroke="black" points="0,-19.5 0,-38.5 113,-38.5 113,-19.5 0,-19.5"/>
<text text-anchor="middle" x="56.5" y="-26.5" font-family="Helvetica,sans-Serif" font-size="10.00">cpinti::cpinti_doevents</text>
</a>
</g>
</g>
<!-- Node23&#45;&gt;Node24 -->
<g id="edge31" class="edge">
<title>Node23&#45;&gt;Node24</title>
<path fill="none" stroke="midnightblue" d="M320.67,-71.8C311.69,-70.15 302.64,-68.51 294,-67 232.14,-56.19 160.98,-44.91 113,-37.48"/>
<polygon fill="midnightblue" stroke="midnightblue" points="320.28,-75.29 330.75,-73.67 321.56,-68.41 320.28,-75.29"/>
</g>
<!-- Node25 -->
<g id="node25" class="node">
<title>Node25</title>
<g id="a_node25"><a xlink:href="namespacecpinti.html#a8235499e69d1e950b8ad549075f21a3d" target="_top" xlink:title=" ">
<polygon fill="white" stroke="black" points="169,-0.5 169,-19.5 274,-19.5 274,-0.5 169,-0.5"/>
<text text-anchor="middle" x="221.5" y="-7.5" font-family="Helvetica,sans-Serif" font-size="10.00">cpinti::cpinti_USleep</text>
</a>
</g>
</g>
<!-- Node23&#45;&gt;Node25 -->
<g id="edge32" class="edge">
<title>Node23&#45;&gt;Node25</title>
<path fill="none" stroke="midnightblue" d="M359.27,-66.08C340.28,-55.77 316.23,-43.42 294,-34 281.34,-28.64 267.04,-23.64 254.57,-19.6"/>
<polygon fill="midnightblue" stroke="midnightblue" points="357.71,-69.22 368.16,-70.95 361.08,-63.08 357.71,-69.22"/>
</g>
<!-- Node26 -->
<g id="node26" class="node">
<title>Node26</title>
<g id="a_node26"><a xlink:href="core_8cpp.html#a8072a106077bf5b87885ed3fbafc7229" target="_top" xlink:title=" ">
<polygon fill="white" stroke="black" points="174,-76.5 174,-95.5 269,-95.5 269,-76.5 174,-76.5"/>
<text text-anchor="middle" x="221.5" y="-83.5" font-family="Helvetica,sans-Serif" font-size="10.00">Interruption_Timer</text>
</a>
</g>
</g>
<!-- Node23&#45;&gt;Node26 -->
<g id="edge35" class="edge">
<title>Node23&#45;&gt;Node26</title>
<path fill="none" stroke="midnightblue" d="M320.74,-86C303.23,-86 285.04,-86 269.13,-86"/>
<polygon fill="midnightblue" stroke="midnightblue" points="320.94,-89.5 330.94,-86 320.94,-82.5 320.94,-89.5"/>
</g>
<!-- Node25&#45;&gt;Node24 -->
<g id="edge33" class="edge">
<title>Node25&#45;&gt;Node24</title>
<path fill="none" stroke="midnightblue" d="M158.75,-17.2C143.8,-18.94 127.91,-20.79 113.25,-22.5"/>
<polygon fill="midnightblue" stroke="midnightblue" points="159.4,-20.65 168.93,-16.01 158.59,-13.69 159.4,-20.65"/>
</g>
<!-- Node27&#45;&gt;Node17 -->
<g id="edge37" class="edge">
<title>Node27&#45;&gt;Node17</title>
<path fill="none" stroke="midnightblue" d="M333.78,-356.12C312.9,-358.91 289.85,-361.99 270.16,-364.63"/>
<polygon fill="midnightblue" stroke="midnightblue" points="334.38,-359.57 343.82,-354.78 333.45,-352.63 334.38,-359.57"/>
</g>
<!-- Node28&#45;&gt;Node8 -->
<g id="edge39" class="edge">
<title>Node28&#45;&gt;Node8</title>
<path fill="none" stroke="midnightblue" d="M138.6,-919.05C129.04,-920.34 119.5,-921.63 110.48,-922.85"/>
<polygon fill="midnightblue" stroke="midnightblue" points="139.09,-922.52 148.53,-917.71 138.15,-915.58 139.09,-922.52"/>
</g>
<!-- Node29&#45;&gt;Node21 -->
<g id="edge43" class="edge">
<title>Node29&#45;&gt;Node21</title>
<path fill="none" stroke="midnightblue" d="M336.89,-823.09C315.32,-829.86 291.06,-837.48 270.45,-843.95"/>
<polygon fill="midnightblue" stroke="midnightblue" points="338.1,-826.38 346.59,-820.04 336,-819.7 338.1,-826.38"/>
</g>
<!-- Node29&#45;&gt;Node28 -->
<g id="edge44" class="edge">
<title>Node29&#45;&gt;Node28</title>
<path fill="none" stroke="midnightblue" d="M371.23,-827.11C351.84,-844.54 322.84,-868.43 294,-884 287.89,-887.3 281.25,-890.26 274.56,-892.88"/>
<polygon fill="midnightblue" stroke="midnightblue" points="373.65,-829.64 378.67,-820.31 368.93,-824.47 373.65,-829.64"/>
</g>
<!-- Node30 -->
<g id="node30" class="node">
<title>Node30</title>
<g id="a_node30"><a xlink:href="namespacecpinti_1_1gestionnaire__tache.html#a575898d4f3044f265c999aca5721a17f" target="_top" xlink:title=" ">
<polygon fill="white" stroke="black" points="168,-784.5 168,-825.5 275,-825.5 275,-784.5 168,-784.5"/>
<text text-anchor="start" x="176" y="-813.5" font-family="Helvetica,sans-Serif" font-size="10.00">cpinti::gestionnaire</text>
<text text-anchor="start" x="176" y="-802.5" font-family="Helvetica,sans-Serif" font-size="10.00">_tache::cpinti_arreter</text>
<text text-anchor="middle" x="221.5" y="-791.5" font-family="Helvetica,sans-Serif" font-size="10.00">_thread</text>
</a>
</g>
</g>
<!-- Node29&#45;&gt;Node30 -->
<g id="edge41" class="edge">
<title>Node29&#45;&gt;Node30</title>
<path fill="none" stroke="midnightblue" d="M321.33,-805C305.8,-805 289.7,-805 275.12,-805"/>
<polygon fill="midnightblue" stroke="midnightblue" points="321.43,-808.5 331.43,-805 321.43,-801.5 321.43,-808.5"/>
</g>
<!-- Node31 -->
<g id="node31" class="node">
<title>Node31</title>
<g id="a_node31"><a xlink:href="namespacecpinti_1_1gestionnaire__tache.html#a0c0510966125e1a76026b112613397e5" target="_top" xlink:title=" ">
<polygon fill="white" stroke="black" points="161,-736 161,-766 282,-766 282,-736 161,-736"/>
<text text-anchor="start" x="169" y="-754" font-family="Helvetica,sans-Serif" font-size="10.00">cpinti::gestionnaire</text>
<text text-anchor="middle" x="221.5" y="-743" font-family="Helvetica,sans-Serif" font-size="10.00">_tache::cpinti_fin_thread</text>
</a>
</g>
</g>
<!-- Node29&#45;&gt;Node31 -->
<g id="edge42" class="edge">
<title>Node29&#45;&gt;Node31</title>
<path fill="none" stroke="midnightblue" d="M336.89,-786.91C315.32,-780.14 291.06,-772.52 270.45,-766.05"/>
<polygon fill="midnightblue" stroke="midnightblue" points="336,-790.3 346.59,-789.96 338.1,-783.62 336,-790.3"/>
</g>
</g>
</svg>
