<?xml version="1.0" encoding="UTF-8" standalone="no"?>
<!DOCTYPE svg PUBLIC "-//W3C//DTD SVG 1.1//EN"
 "http://www.w3.org/Graphics/SVG/1.1/DTD/svg11.dtd">
<!-- Generated by graphviz version 2.44.0 ()
 -->
<!-- Title: cpinti::gestionnaire_tache::Interruption_Timer Pages: 1 -->
<svg width="461pt" height="135pt"
 viewBox="0.00 0.00 461.00 135.00" xmlns="http://www.w3.org/2000/svg" xmlns:xlink="http://www.w3.org/1999/xlink">
<g id="graph0" class="graph" transform="scale(1 1) rotate(0) translate(4 131)">
<title>cpinti::gestionnaire_tache::Interruption_Timer</title>
<polygon fill="white" stroke="transparent" points="-4,4 -4,-131 457,-131 457,4 -4,4"/>
<!-- Node1 -->
<g id="node1" class="node">
<title>Node1</title>
<g id="a_node1"><a xlink:title=" ">
<polygon fill="#bfbfbf" stroke="black" points="324,-61 324,-91 453,-91 453,-61 324,-61"/>
<text text-anchor="start" x="332" y="-79" font-family="Helvetica,sans-Serif" font-size="10.00">cpinti::gestionnaire</text>
<text text-anchor="middle" x="388.5" y="-68" font-family="Helvetica,sans-Serif" font-size="10.00">_tache::Interruption_Timer</text>
</a>
</g>
</g>
<!-- Node2 -->
<g id="node2" class="node">
<title>Node2</title>
<g id="a_node2"><a xlink:href="namespacecpinti.html#add88e43780041b1587942a9bc7aa6f0d" target="_top" xlink:title=" ">
<polygon fill="white" stroke="black" points="0,-107.5 0,-126.5 113,-126.5 113,-107.5 0,-107.5"/>
<text text-anchor="middle" x="56.5" y="-114.5" font-family="Helvetica,sans-Serif" font-size="10.00">cpinti::cpinti_doevents</text>
</a>
</g>
</g>
<!-- Node1&#45;&gt;Node2 -->
<g id="edge1" class="edge">
<title>Node1&#45;&gt;Node2</title>
<path fill="none" stroke="midnightblue" d="M350.16,-95.45C331.94,-103.88 309.38,-112.77 288,-117 229.12,-128.66 160.1,-126.65 113.04,-123"/>
<polygon fill="midnightblue" stroke="midnightblue" points="351.74,-98.58 359.27,-91.12 348.73,-92.26 351.74,-98.58"/>
</g>
<!-- Node3 -->
<g id="node3" class="node">
<title>Node3</title>
<g id="a_node3"><a xlink:href="namespacecpinti.html#a8235499e69d1e950b8ad549075f21a3d" target="_top" xlink:title=" ">
<polygon fill="white" stroke="black" points="166,-88.5 166,-107.5 271,-107.5 271,-88.5 166,-88.5"/>
<text text-anchor="middle" x="218.5" y="-95.5" font-family="Helvetica,sans-Serif" font-size="10.00">cpinti::cpinti_USleep</text>
</a>
</g>
</g>
<!-- Node1&#45;&gt;Node3 -->
<g id="edge2" class="edge">
<title>Node1&#45;&gt;Node3</title>
<path fill="none" stroke="midnightblue" d="M314.05,-85.62C299.57,-87.52 284.66,-89.47 271.08,-91.25"/>
<polygon fill="midnightblue" stroke="midnightblue" points="314.53,-89.09 323.99,-84.32 313.62,-82.15 314.53,-89.09"/>
</g>
<!-- Node4 -->
<g id="node4" class="node">
<title>Node4</title>
<g id="a_node4"><a xlink:href="namespacecpinti_1_1gestionnaire__tache.html#ad386876c980cb034a2f757e09a1c4977" target="_top" xlink:title=" ">
<polygon fill="white" stroke="black" points="149,-39 149,-69 288,-69 288,-39 149,-39"/>
<text text-anchor="start" x="157" y="-57" font-family="Helvetica,sans-Serif" font-size="10.00">cpinti::gestionnaire</text>
<text text-anchor="middle" x="218.5" y="-46" font-family="Helvetica,sans-Serif" font-size="10.00">_tache::initialiser_Multitache</text>
</a>
</g>
</g>
<!-- Node1&#45;&gt;Node4 -->
<g id="edge4" class="edge">
<title>Node1&#45;&gt;Node4</title>
<path fill="none" stroke="midnightblue" d="M314,-66.37C305.41,-65.25 296.67,-64.11 288.15,-62.99"/>
<polygon fill="midnightblue" stroke="midnightblue" points="313.62,-69.85 323.99,-67.68 314.53,-62.91 313.62,-69.85"/>
</g>
<!-- Node5 -->
<g id="node5" class="node">
<title>Node5</title>
<g id="a_node5"><a xlink:href="core_8cpp.html#a8072a106077bf5b87885ed3fbafc7229" target="_top" xlink:title=" ">
<polygon fill="white" stroke="black" points="171,-0.5 171,-19.5 266,-19.5 266,-0.5 171,-0.5"/>
<text text-anchor="middle" x="218.5" y="-7.5" font-family="Helvetica,sans-Serif" font-size="10.00">Interruption_Timer</text>
</a>
</g>
</g>
<!-- Node1&#45;&gt;Node5 -->
<g id="edge5" class="edge">
<title>Node1&#45;&gt;Node5</title>
<path fill="none" stroke="midnightblue" d="M348.83,-56.49C330.64,-47.74 308.49,-37.68 288,-30 277.79,-26.17 266.51,-22.62 256.09,-19.59"/>
<polygon fill="midnightblue" stroke="midnightblue" points="347.43,-59.7 357.95,-60.93 350.49,-53.4 347.43,-59.7"/>
</g>
<!-- Node3&#45;&gt;Node2 -->
<g id="edge3" class="edge">
<title>Node3&#45;&gt;Node2</title>
<path fill="none" stroke="midnightblue" d="M155.9,-105.32C141.79,-106.99 126.89,-108.76 113.06,-110.4"/>
<polygon fill="midnightblue" stroke="midnightblue" points="156.48,-108.77 165.99,-104.12 155.65,-101.82 156.48,-108.77"/>
</g>
</g>
</svg>
