<?xml version="1.0" encoding="UTF-8" standalone="no"?>
<!DOCTYPE svg PUBLIC "-//W3C//DTD SVG 1.1//EN"
 "http://www.w3.org/Graphics/SVG/1.1/DTD/svg11.dtd">
<!-- Generated by graphviz version 2.44.0 ()
 -->
<!-- Title: cpinti::interception::Error_Logo Pages: 1 -->
<svg width="529pt" height="50pt"
 viewBox="0.00 0.00 529.00 50.00" xmlns="http://www.w3.org/2000/svg" xmlns:xlink="http://www.w3.org/1999/xlink">
<g id="graph0" class="graph" transform="scale(1 1) rotate(0) translate(4 46)">
<title>cpinti::interception::Error_Logo</title>
<polygon fill="white" stroke="transparent" points="-4,4 -4,-46 525,-46 525,4 -4,4"/>
<!-- Node1 -->
<g id="node1" class="node">
<title>Node1</title>
<g id="a_node1"><a xlink:title=" ">
<polygon fill="#bfbfbf" stroke="black" points="426,-6 426,-36 521,-36 521,-6 426,-6"/>
<text text-anchor="start" x="434" y="-24" font-family="Helvetica,sans-Serif" font-size="10.00">cpinti::interception</text>
<text text-anchor="middle" x="473.5" y="-13" font-family="Helvetica,sans-Serif" font-size="10.00">::Error_Logo</text>
</a>
</g>
</g>
<!-- Node2 -->
<g id="node2" class="node">
<title>Node2</title>
<g id="a_node2"><a xlink:href="namespacecpinti_1_1interception.html#a1772e262cfb40d4016511caeae45b861" target="_top" xlink:title=" ">
<polygon fill="white" stroke="black" points="295,-6 295,-36 390,-36 390,-6 295,-6"/>
<text text-anchor="start" x="303" y="-24" font-family="Helvetica,sans-Serif" font-size="10.00">cpinti::interception</text>
<text text-anchor="middle" x="342.5" y="-13" font-family="Helvetica,sans-Serif" font-size="10.00">::Erreur_Fatale</text>
</a>
</g>
</g>
<!-- Node1&#45;&gt;Node2 -->
<g id="edge1" class="edge">
<title>Node1&#45;&gt;Node2</title>
<path fill="none" stroke="midnightblue" d="M415.9,-21C407.25,-21 398.4,-21 390,-21"/>
<polygon fill="midnightblue" stroke="midnightblue" points="415.93,-24.5 425.93,-21 415.93,-17.5 415.93,-24.5"/>
</g>
<!-- Node3 -->
<g id="node3" class="node">
<title>Node3</title>
<g id="a_node3"><a xlink:href="namespacecpinti_1_1interception.html#a4c805b9e79a66eca888512879f8d9e10" target="_top" xlink:title=" ">
<polygon fill="white" stroke="black" points="148,-6 148,-36 259,-36 259,-6 148,-6"/>
<text text-anchor="start" x="156" y="-24" font-family="Helvetica,sans-Serif" font-size="10.00">cpinti::interception</text>
<text text-anchor="middle" x="203.5" y="-13" font-family="Helvetica,sans-Serif" font-size="10.00">::Erreur_Fatale_Signal</text>
</a>
</g>
</g>
<!-- Node2&#45;&gt;Node3 -->
<g id="edge2" class="edge">
<title>Node2&#45;&gt;Node3</title>
<path fill="none" stroke="midnightblue" d="M284.6,-21C276.15,-21 267.47,-21 259.08,-21"/>
<polygon fill="midnightblue" stroke="midnightblue" points="284.74,-24.5 294.74,-21 284.74,-17.5 284.74,-24.5"/>
</g>
<!-- Node4 -->
<g id="node4" class="node">
<title>Node4</title>
<g id="a_node4"><a xlink:href="namespacecpinti_1_1interception.html#a71269205d7f5572d106bf3d75cfcf104" target="_top" xlink:title=" ">
<polygon fill="white" stroke="black" points="0,-0.5 0,-41.5 112,-41.5 112,-0.5 0,-0.5"/>
<text text-anchor="start" x="8" y="-29.5" font-family="Helvetica,sans-Serif" font-size="10.00">cpinti::interception</text>
<text text-anchor="start" x="8" y="-18.5" font-family="Helvetica,sans-Serif" font-size="10.00">::initialise_interception</text>
<text text-anchor="middle" x="56" y="-7.5" font-family="Helvetica,sans-Serif" font-size="10.00">_exception</text>
</a>
</g>
</g>
<!-- Node3&#45;&gt;Node4 -->
<g id="edge3" class="edge">
<title>Node3&#45;&gt;Node4</title>
<path fill="none" stroke="midnightblue" d="M137.7,-21C129.25,-21 120.66,-21 112.38,-21"/>
<polygon fill="midnightblue" stroke="midnightblue" points="137.91,-24.5 147.91,-21 137.91,-17.5 137.91,-24.5"/>
</g>
</g>
</svg>
