<?xml version="1.0" encoding="UTF-8" standalone="no"?>
<!DOCTYPE svg PUBLIC "-//W3C//DTD SVG 1.1//EN"
 "http://www.w3.org/Graphics/SVG/1.1/DTD/svg11.dtd">
<!-- Generated by graphviz version 2.44.0 ()
 -->
<!-- Title: cpinti::gestionnaire_tache::cpinti_get_nom_processus Pages: 1 -->
<svg width="443pt" height="147pt"
 viewBox="0.00 0.00 443.00 147.00" xmlns="http://www.w3.org/2000/svg" xmlns:xlink="http://www.w3.org/1999/xlink">
<g id="graph0" class="graph" transform="scale(1 1) rotate(0) translate(4 143)">
<title>cpinti::gestionnaire_tache::cpinti_get_nom_processus</title>
<polygon fill="white" stroke="transparent" points="-4,4 -4,-143 439,-143 439,4 -4,4"/>
<!-- Node1 -->
<g id="node1" class="node">
<title>Node1</title>
<g id="a_node1"><a xlink:title=" ">
<polygon fill="#bfbfbf" stroke="black" points="0,-49 0,-90 116,-90 116,-49 0,-49"/>
<text text-anchor="start" x="8" y="-78" font-family="Helvetica,sans-Serif" font-size="10.00">cpinti::gestionnaire</text>
<text text-anchor="start" x="8" y="-67" font-family="Helvetica,sans-Serif" font-size="10.00">_tache::cpinti_get_nom</text>
<text text-anchor="middle" x="58" y="-56" font-family="Helvetica,sans-Serif" font-size="10.00">_processus</text>
</a>
</g>
</g>
<!-- Node2 -->
<g id="node2" class="node">
<title>Node2</title>
<g id="a_node2"><a xlink:href="namespacecpinti__dbg.html#a119c14f1b5f4849696decac82a512762" target="_top" xlink:title=" ">
<polygon fill="white" stroke="black" points="160,-108.5 160,-138.5 258,-138.5 258,-108.5 160,-108.5"/>
<text text-anchor="start" x="168" y="-126.5" font-family="Helvetica,sans-Serif" font-size="10.00">cpinti_dbg::CPINTI</text>
<text text-anchor="middle" x="209" y="-115.5" font-family="Helvetica,sans-Serif" font-size="10.00">_DEBUG</text>
</a>
</g>
</g>
<!-- Node1&#45;&gt;Node2 -->
<g id="edge1" class="edge">
<title>Node1&#45;&gt;Node2</title>
<path fill="none" stroke="midnightblue" d="M115.76,-90.07C129.26,-94.96 143.58,-100.15 156.82,-104.95"/>
<polygon fill="midnightblue" stroke="midnightblue" points="155.64,-108.25 166.23,-108.36 158.02,-101.66 155.64,-108.25"/>
</g>
<!-- Node4 -->
<g id="node4" class="node">
<title>Node4</title>
<g id="a_node4"><a xlink:href="namespacecpinti_1_1gestionnaire__tache.html#a7cb713603998f80cdebd1c9dbc1e76d2" target="_top" xlink:title=" ">
<polygon fill="white" stroke="black" points="152,-49 152,-90 266,-90 266,-49 152,-49"/>
<text text-anchor="start" x="160" y="-78" font-family="Helvetica,sans-Serif" font-size="10.00">cpinti::gestionnaire</text>
<text text-anchor="start" x="160" y="-67" font-family="Helvetica,sans-Serif" font-size="10.00">_tache::cpinti_get_etat</text>
<text text-anchor="middle" x="209" y="-56" font-family="Helvetica,sans-Serif" font-size="10.00">_processus</text>
</a>
</g>
</g>
<!-- Node1&#45;&gt;Node4 -->
<g id="edge3" class="edge">
<title>Node1&#45;&gt;Node4</title>
<path fill="none" stroke="midnightblue" d="M116.18,-69.5C124.47,-69.5 133.05,-69.5 141.5,-69.5"/>
<polygon fill="midnightblue" stroke="midnightblue" points="141.71,-73 151.71,-69.5 141.71,-66 141.71,-73"/>
</g>
<!-- Node6 -->
<g id="node6" class="node">
<title>Node6</title>
<g id="a_node6"><a xlink:href="namespacecpinti_1_1_func___cpinti.html#ab7049ea2cc0148a042e823546c2ef76d" target="_top" xlink:title=" ">
<polygon fill="white" stroke="black" points="161,-0.5 161,-30.5 257,-30.5 257,-0.5 161,-0.5"/>
<text text-anchor="start" x="169" y="-18.5" font-family="Helvetica,sans-Serif" font-size="10.00">cpinti::Func_Cpinti</text>
<text text-anchor="middle" x="209" y="-7.5" font-family="Helvetica,sans-Serif" font-size="10.00">::to_string</text>
</a>
</g>
</g>
<!-- Node1&#45;&gt;Node6 -->
<g id="edge5" class="edge">
<title>Node1&#45;&gt;Node6</title>
<path fill="none" stroke="midnightblue" d="M115.76,-48.93C129.26,-44.04 143.58,-38.85 156.82,-34.05"/>
<polygon fill="midnightblue" stroke="midnightblue" points="158.02,-37.34 166.23,-30.64 155.64,-30.75 158.02,-37.34"/>
</g>
<!-- Node3 -->
<g id="node3" class="node">
<title>Node3</title>
<g id="a_node3"><a xlink:href="_c_p_c___w_p_r_8h.html#a971c45e904568a2415966a3f7b705e30" target="_top" xlink:title=" ">
<polygon fill="white" stroke="black" points="310.5,-108.5 310.5,-138.5 426.5,-138.5 426.5,-108.5 310.5,-108.5"/>
<text text-anchor="start" x="318.5" y="-126.5" font-family="Helvetica,sans-Serif" font-size="10.00">cpc_cpinti_debug_plus</text>
<text text-anchor="middle" x="368.5" y="-115.5" font-family="Helvetica,sans-Serif" font-size="10.00">_cpinticore</text>
</a>
</g>
</g>
<!-- Node2&#45;&gt;Node3 -->
<g id="edge2" class="edge">
<title>Node2&#45;&gt;Node3</title>
<path fill="none" stroke="midnightblue" d="M258.11,-123.5C271.36,-123.5 285.98,-123.5 300.1,-123.5"/>
<polygon fill="midnightblue" stroke="midnightblue" points="300.27,-127 310.27,-123.5 300.27,-120 300.27,-127"/>
</g>
<!-- Node5 -->
<g id="node5" class="node">
<title>Node5</title>
<g id="a_node5"><a xlink:href="namespacecpinti_1_1gestionnaire__tache.html#acface3e9bff6cc53f1d214c962f0196c" target="_top" xlink:title=" ">
<polygon fill="white" stroke="black" points="302,-54.5 302,-84.5 435,-84.5 435,-54.5 302,-54.5"/>
<text text-anchor="start" x="310" y="-72.5" font-family="Helvetica,sans-Serif" font-size="10.00">cpinti::gestionnaire</text>
<text text-anchor="middle" x="368.5" y="-61.5" font-family="Helvetica,sans-Serif" font-size="10.00">_tache::get_EtatProcessus</text>
</a>
</g>
</g>
<!-- Node4&#45;&gt;Node5 -->
<g id="edge4" class="edge">
<title>Node4&#45;&gt;Node5</title>
<path fill="none" stroke="midnightblue" d="M266.42,-69.5C274.57,-69.5 283.08,-69.5 291.54,-69.5"/>
<polygon fill="midnightblue" stroke="midnightblue" points="291.82,-73 301.82,-69.5 291.82,-66 291.82,-73"/>
</g>
</g>
</svg>
