<?xml version="1.0" encoding="UTF-8" standalone="no"?>
<!DOCTYPE svg PUBLIC "-//W3C//DTD SVG 1.1//EN"
 "http://www.w3.org/Graphics/SVG/1.1/DTD/svg11.dtd">
<!-- Generated by graphviz version 2.44.0 ()
 -->
<!-- Title: cpinti::gestionnaire_tache::state_SectionCritique Pages: 1 -->
<svg width="640pt" height="266pt"
 viewBox="0.00 0.00 640.00 266.00" xmlns="http://www.w3.org/2000/svg" xmlns:xlink="http://www.w3.org/1999/xlink">
<g id="graph0" class="graph" transform="scale(1 1) rotate(0) translate(4 262)">
<title>cpinti::gestionnaire_tache::state_SectionCritique</title>
<polygon fill="white" stroke="transparent" points="-4,4 -4,-262 636,-262 636,4 -4,4"/>
<!-- Node1 -->
<g id="node1" class="node">
<title>Node1</title>
<g id="a_node1"><a xlink:title=" ">
<polygon fill="#bfbfbf" stroke="black" points="489,-126 489,-156 632,-156 632,-126 489,-126"/>
<text text-anchor="start" x="497" y="-144" font-family="Helvetica,sans-Serif" font-size="10.00">cpinti::gestionnaire</text>
<text text-anchor="middle" x="560.5" y="-133" font-family="Helvetica,sans-Serif" font-size="10.00">_tache::state_SectionCritique</text>
</a>
</g>
</g>
<!-- Node2 -->
<g id="node2" class="node">
<title>Node2</title>
<g id="a_node2"><a xlink:href="namespacecpinti_1_1interception.html#a1772e262cfb40d4016511caeae45b861" target="_top" xlink:title=" ">
<polygon fill="white" stroke="black" points="341,-182 341,-212 436,-212 436,-182 341,-182"/>
<text text-anchor="start" x="349" y="-200" font-family="Helvetica,sans-Serif" font-size="10.00">cpinti::interception</text>
<text text-anchor="middle" x="388.5" y="-189" font-family="Helvetica,sans-Serif" font-size="10.00">::Erreur_Fatale</text>
</a>
</g>
</g>
<!-- Node1&#45;&gt;Node2 -->
<g id="edge1" class="edge">
<title>Node1&#45;&gt;Node2</title>
<path fill="none" stroke="midnightblue" d="M504.26,-159.2C481.92,-166.56 456.45,-174.95 435.18,-181.95"/>
<polygon fill="midnightblue" stroke="midnightblue" points="505.54,-162.46 513.94,-156.01 503.35,-155.81 505.54,-162.46"/>
</g>
<!-- Node5 -->
<g id="node5" class="node">
<title>Node5</title>
<g id="a_node5"><a xlink:href="namespacecpinti_1_1gestionnaire__tache.html#a640f909bd791a0d1c0f4d87e58fbb5ae" target="_top" xlink:title=" ">
<polygon fill="white" stroke="black" points="324,-102 324,-132 453,-132 453,-102 324,-102"/>
<text text-anchor="start" x="332" y="-120" font-family="Helvetica,sans-Serif" font-size="10.00">cpinti::gestionnaire</text>
<text text-anchor="middle" x="388.5" y="-109" font-family="Helvetica,sans-Serif" font-size="10.00">_tache::Interruption_Timer</text>
</a>
</g>
</g>
<!-- Node1&#45;&gt;Node5 -->
<g id="edge4" class="edge">
<title>Node1&#45;&gt;Node5</title>
<path fill="none" stroke="midnightblue" d="M478.81,-129.61C470.18,-128.39 461.5,-127.16 453.11,-125.98"/>
<polygon fill="midnightblue" stroke="midnightblue" points="478.49,-133.1 488.88,-131.03 479.47,-126.17 478.49,-133.1"/>
</g>
<!-- Node3 -->
<g id="node3" class="node">
<title>Node3</title>
<g id="a_node3"><a xlink:href="namespacecpinti_1_1interception.html#a4c805b9e79a66eca888512879f8d9e10" target="_top" xlink:title=" ">
<polygon fill="white" stroke="black" points="163,-219 163,-249 274,-249 274,-219 163,-219"/>
<text text-anchor="start" x="171" y="-237" font-family="Helvetica,sans-Serif" font-size="10.00">cpinti::interception</text>
<text text-anchor="middle" x="218.5" y="-226" font-family="Helvetica,sans-Serif" font-size="10.00">::Erreur_Fatale_Signal</text>
</a>
</g>
</g>
<!-- Node2&#45;&gt;Node3 -->
<g id="edge2" class="edge">
<title>Node2&#45;&gt;Node3</title>
<path fill="none" stroke="midnightblue" d="M330.76,-209.5C312.45,-213.53 292.21,-217.99 274.07,-221.98"/>
<polygon fill="midnightblue" stroke="midnightblue" points="331.69,-212.88 340.7,-207.31 330.18,-206.04 331.69,-212.88"/>
</g>
<!-- Node4 -->
<g id="node4" class="node">
<title>Node4</title>
<g id="a_node4"><a xlink:href="namespacecpinti_1_1interception.html#a71269205d7f5572d106bf3d75cfcf104" target="_top" xlink:title=" ">
<polygon fill="white" stroke="black" points="0.5,-216.5 0.5,-257.5 112.5,-257.5 112.5,-216.5 0.5,-216.5"/>
<text text-anchor="start" x="8.5" y="-245.5" font-family="Helvetica,sans-Serif" font-size="10.00">cpinti::interception</text>
<text text-anchor="start" x="8.5" y="-234.5" font-family="Helvetica,sans-Serif" font-size="10.00">::initialise_interception</text>
<text text-anchor="middle" x="56.5" y="-223.5" font-family="Helvetica,sans-Serif" font-size="10.00">_exception</text>
</a>
</g>
</g>
<!-- Node3&#45;&gt;Node4 -->
<g id="edge3" class="edge">
<title>Node3&#45;&gt;Node4</title>
<path fill="none" stroke="midnightblue" d="M152.84,-235.21C139.53,-235.46 125.63,-235.72 112.68,-235.97"/>
<polygon fill="midnightblue" stroke="midnightblue" points="152.95,-238.71 162.88,-235.02 152.82,-231.71 152.95,-238.71"/>
</g>
<!-- Node6 -->
<g id="node6" class="node">
<title>Node6</title>
<g id="a_node6"><a xlink:href="namespacecpinti_1_1gestionnaire__tache.html#a6e5e5771fd2998d286a459f65136f6ab" target="_top" xlink:title=" ">
<polygon fill="white" stroke="black" points="161,-165 161,-195 276,-195 276,-165 161,-165"/>
<text text-anchor="start" x="169" y="-183" font-family="Helvetica,sans-Serif" font-size="10.00">cpinti::gestionnaire</text>
<text text-anchor="middle" x="218.5" y="-172" font-family="Helvetica,sans-Serif" font-size="10.00">_tache::ajouter_Thread</text>
</a>
</g>
</g>
<!-- Node5&#45;&gt;Node6 -->
<g id="edge5" class="edge">
<title>Node5&#45;&gt;Node6</title>
<path fill="none" stroke="midnightblue" d="M337.64,-135.7C312.77,-145.02 283.09,-156.15 259.7,-164.92"/>
<polygon fill="midnightblue" stroke="midnightblue" points="339.13,-138.88 347.26,-132.09 336.67,-132.32 339.13,-138.88"/>
</g>
<!-- Node8 -->
<g id="node8" class="node">
<title>Node8</title>
<g id="a_node8"><a xlink:href="namespacecpinti.html#add88e43780041b1587942a9bc7aa6f0d" target="_top" xlink:title=" ">
<polygon fill="white" stroke="black" points="0,-107.5 0,-126.5 113,-126.5 113,-107.5 0,-107.5"/>
<text text-anchor="middle" x="56.5" y="-114.5" font-family="Helvetica,sans-Serif" font-size="10.00">cpinti::cpinti_doevents</text>
</a>
</g>
</g>
<!-- Node5&#45;&gt;Node8 -->
<g id="edge7" class="edge">
<title>Node5&#45;&gt;Node8</title>
<path fill="none" stroke="midnightblue" d="M313.59,-117C252.93,-117 168.33,-117 113.25,-117"/>
<polygon fill="midnightblue" stroke="midnightblue" points="313.87,-120.5 323.87,-117 313.87,-113.5 313.87,-120.5"/>
</g>
<!-- Node9 -->
<g id="node9" class="node">
<title>Node9</title>
<g id="a_node9"><a xlink:href="namespacecpinti.html#a8235499e69d1e950b8ad549075f21a3d" target="_top" xlink:title=" ">
<polygon fill="white" stroke="black" points="166,-88.5 166,-107.5 271,-107.5 271,-88.5 166,-88.5"/>
<text text-anchor="middle" x="218.5" y="-95.5" font-family="Helvetica,sans-Serif" font-size="10.00">cpinti::cpinti_USleep</text>
</a>
</g>
</g>
<!-- Node5&#45;&gt;Node9 -->
<g id="edge8" class="edge">
<title>Node5&#45;&gt;Node9</title>
<path fill="none" stroke="midnightblue" d="M314.05,-108.69C299.57,-107.06 284.66,-105.37 271.08,-103.83"/>
<polygon fill="midnightblue" stroke="midnightblue" points="313.66,-112.17 323.99,-109.82 314.44,-105.22 313.66,-112.17"/>
</g>
<!-- Node10 -->
<g id="node10" class="node">
<title>Node10</title>
<g id="a_node10"><a xlink:href="namespacecpinti_1_1gestionnaire__tache.html#ad386876c980cb034a2f757e09a1c4977" target="_top" xlink:title=" ">
<polygon fill="white" stroke="black" points="149,-39 149,-69 288,-69 288,-39 149,-39"/>
<text text-anchor="start" x="157" y="-57" font-family="Helvetica,sans-Serif" font-size="10.00">cpinti::gestionnaire</text>
<text text-anchor="middle" x="218.5" y="-46" font-family="Helvetica,sans-Serif" font-size="10.00">_tache::initialiser_Multitache</text>
</a>
</g>
</g>
<!-- Node5&#45;&gt;Node10 -->
<g id="edge10" class="edge">
<title>Node5&#45;&gt;Node10</title>
<path fill="none" stroke="midnightblue" d="M338.58,-98.15C322.49,-92 304.5,-85.16 288,-79 279.34,-75.77 270.05,-72.35 261.19,-69.1"/>
<polygon fill="midnightblue" stroke="midnightblue" points="337.74,-101.58 348.33,-101.89 340.24,-95.04 337.74,-101.58"/>
</g>
<!-- Node11 -->
<g id="node11" class="node">
<title>Node11</title>
<g id="a_node11"><a xlink:href="core_8cpp.html#a8072a106077bf5b87885ed3fbafc7229" target="_top" xlink:title=" ">
<polygon fill="white" stroke="black" points="171,-0.5 171,-19.5 266,-19.5 266,-0.5 171,-0.5"/>
<text text-anchor="middle" x="218.5" y="-7.5" font-family="Helvetica,sans-Serif" font-size="10.00">Interruption_Timer</text>
</a>
</g>
</g>
<!-- Node5&#45;&gt;Node11 -->
<g id="edge11" class="edge">
<title>Node5&#45;&gt;Node11</title>
<path fill="none" stroke="midnightblue" d="M367.74,-94.48C349.07,-74.53 319.31,-46 288,-29 280.95,-25.17 273.06,-22.06 265.22,-19.56"/>
<polygon fill="midnightblue" stroke="midnightblue" points="365.23,-96.92 374.57,-101.93 370.39,-92.19 365.23,-96.92"/>
</g>
<!-- Node7 -->
<g id="node7" class="node">
<title>Node7</title>
<g id="a_node7"><a xlink:href="namespacecpinti_1_1gestionnaire__tache.html#a0c6d8878452d6e0ebb31a9ae9910d859" target="_top" xlink:title=" ">
<polygon fill="white" stroke="black" points="6,-156.5 6,-197.5 107,-197.5 107,-156.5 6,-156.5"/>
<text text-anchor="start" x="14" y="-185.5" font-family="Helvetica,sans-Serif" font-size="10.00">cpinti::gestionnaire</text>
<text text-anchor="start" x="14" y="-174.5" font-family="Helvetica,sans-Serif" font-size="10.00">_tache::cpinti_creer</text>
<text text-anchor="middle" x="56.5" y="-163.5" font-family="Helvetica,sans-Serif" font-size="10.00">_thread</text>
</a>
</g>
</g>
<!-- Node6&#45;&gt;Node7 -->
<g id="edge6" class="edge">
<title>Node6&#45;&gt;Node7</title>
<path fill="none" stroke="midnightblue" d="M150.22,-178.74C135.73,-178.47 120.67,-178.18 107.01,-177.93"/>
<polygon fill="midnightblue" stroke="midnightblue" points="150.58,-182.25 160.64,-178.93 150.71,-175.25 150.58,-182.25"/>
</g>
<!-- Node9&#45;&gt;Node8 -->
<g id="edge9" class="edge">
<title>Node9&#45;&gt;Node8</title>
<path fill="none" stroke="midnightblue" d="M155.9,-105.32C141.79,-106.99 126.89,-108.76 113.06,-110.4"/>
<polygon fill="midnightblue" stroke="midnightblue" points="156.48,-108.77 165.99,-104.12 155.65,-101.82 156.48,-108.77"/>
</g>
</g>
</svg>
