<?xml version="1.0" encoding="UTF-8" standalone="no"?>
<!DOCTYPE svg PUBLIC "-//W3C//DTD SVG 1.1//EN"
 "http://www.w3.org/Graphics/SVG/1.1/DTD/svg11.dtd">
<!-- Generated by graphviz version 2.44.0 ()
 -->
<!-- Title: cpinti::gestionnaire_tache::get_ThreadEnCours Pages: 1 -->
<svg width="642pt" height="167pt"
 viewBox="0.00 0.00 642.00 167.00" xmlns="http://www.w3.org/2000/svg" xmlns:xlink="http://www.w3.org/1999/xlink">
<g id="graph0" class="graph" transform="scale(1 1) rotate(0) translate(4 163)">
<title>cpinti::gestionnaire_tache::get_ThreadEnCours</title>
<polygon fill="white" stroke="transparent" points="-4,4 -4,-163 638,-163 638,4 -4,4"/>
<!-- Node1 -->
<g id="node1" class="node">
<title>Node1</title>
<g id="a_node1"><a xlink:title=" ">
<polygon fill="#bfbfbf" stroke="black" points="498,-39 498,-69 634,-69 634,-39 498,-39"/>
<text text-anchor="start" x="506" y="-57" font-family="Helvetica,sans-Serif" font-size="10.00">cpinti::gestionnaire</text>
<text text-anchor="middle" x="566" y="-46" font-family="Helvetica,sans-Serif" font-size="10.00">_tache::get_ThreadEnCours</text>
</a>
</g>
</g>
<!-- Node2 -->
<g id="node2" class="node">
<title>Node2</title>
<g id="a_node2"><a xlink:href="namespacecpinti_1_1gestionnaire__tache.html#a990255915a7f8209717543277e291d6c" target="_top" xlink:title=" ">
<polygon fill="white" stroke="black" points="334,-87.5 334,-128.5 444,-128.5 444,-87.5 334,-87.5"/>
<text text-anchor="start" x="342" y="-116.5" font-family="Helvetica,sans-Serif" font-size="10.00">cpinti::gestionnaire</text>
<text text-anchor="start" x="342" y="-105.5" font-family="Helvetica,sans-Serif" font-size="10.00">_tache::cpinti_get_pid</text>
<text text-anchor="middle" x="389" y="-94.5" font-family="Helvetica,sans-Serif" font-size="10.00">_from_tid</text>
</a>
</g>
</g>
<!-- Node1&#45;&gt;Node2 -->
<g id="edge1" class="edge">
<title>Node1&#45;&gt;Node2</title>
<path fill="none" stroke="midnightblue" d="M506.55,-72.04C486.36,-78.27 463.84,-85.22 444.02,-91.33"/>
<polygon fill="midnightblue" stroke="midnightblue" points="507.73,-75.34 516.25,-69.04 505.67,-68.65 507.73,-75.34"/>
</g>
<!-- Node5 -->
<g id="node5" class="node">
<title>Node5</title>
<g id="a_node5"><a xlink:href="namespacecpinti_1_1interception.html#a1772e262cfb40d4016511caeae45b861" target="_top" xlink:title=" ">
<polygon fill="white" stroke="black" points="341.5,-39 341.5,-69 436.5,-69 436.5,-39 341.5,-39"/>
<text text-anchor="start" x="349.5" y="-57" font-family="Helvetica,sans-Serif" font-size="10.00">cpinti::interception</text>
<text text-anchor="middle" x="389" y="-46" font-family="Helvetica,sans-Serif" font-size="10.00">::Erreur_Fatale</text>
</a>
</g>
</g>
<!-- Node1&#45;&gt;Node5 -->
<g id="edge4" class="edge">
<title>Node1&#45;&gt;Node5</title>
<path fill="none" stroke="midnightblue" d="M487.68,-54C470.27,-54 452.33,-54 436.64,-54"/>
<polygon fill="midnightblue" stroke="midnightblue" points="487.84,-57.5 497.84,-54 487.84,-50.5 487.84,-57.5"/>
</g>
<!-- Node8 -->
<g id="node8" class="node">
<title>Node8</title>
<g id="a_node8"><a xlink:href="core_8cpp.html#a1c50515576b497a0146ca6ac62c2cf46" target="_top" xlink:title=" ">
<polygon fill="white" stroke="black" points="316,-0.5 316,-19.5 462,-19.5 462,-0.5 316,-0.5"/>
<text text-anchor="middle" x="389" y="-7.5" font-family="Helvetica,sans-Serif" font-size="10.00">xe_cpinti_get_ThreadEnCours</text>
</a>
</g>
</g>
<!-- Node1&#45;&gt;Node8 -->
<g id="edge7" class="edge">
<title>Node1&#45;&gt;Node8</title>
<path fill="none" stroke="midnightblue" d="M495.5,-36.53C472.42,-30.72 447.6,-24.48 427.83,-19.51"/>
<polygon fill="midnightblue" stroke="midnightblue" points="494.71,-39.94 505.26,-38.98 496.42,-33.15 494.71,-39.94"/>
</g>
<!-- Node3 -->
<g id="node3" class="node">
<title>Node3</title>
<g id="a_node3"><a xlink:href="wpr__process_8cpp.html#a810f3b9ffddad79b4bf7ca9cc5940a5f" target="_top" xlink:title=" ">
<polygon fill="white" stroke="black" points="148,-139.5 148,-158.5 280,-158.5 280,-139.5 148,-139.5"/>
<text text-anchor="middle" x="214" y="-146.5" font-family="Helvetica,sans-Serif" font-size="10.00">xe_cpinti_get_pid_from_tid</text>
</a>
</g>
</g>
<!-- Node2&#45;&gt;Node3 -->
<g id="edge2" class="edge">
<title>Node2&#45;&gt;Node3</title>
<path fill="none" stroke="midnightblue" d="M323.73,-123.23C300.82,-128.66 275.68,-134.62 255.34,-139.44"/>
<polygon fill="midnightblue" stroke="midnightblue" points="324.81,-126.57 333.74,-120.86 323.2,-119.76 324.81,-126.57"/>
</g>
<!-- Node4 -->
<g id="node4" class="node">
<title>Node4</title>
<g id="a_node4"><a xlink:href="wpr__process_8cpp.html#a5e9f2368ec544d779f87da92d6f9eca8" target="_top" xlink:title=" ">
<polygon fill="white" stroke="black" points="156,-90 156,-120 272,-120 272,-90 156,-90"/>
<text text-anchor="start" x="164" y="-108" font-family="Helvetica,sans-Serif" font-size="10.00">xe_cpinti_get_pid_from</text>
<text text-anchor="middle" x="214" y="-97" font-family="Helvetica,sans-Serif" font-size="10.00">_tid_val</text>
</a>
</g>
</g>
<!-- Node2&#45;&gt;Node4 -->
<g id="edge3" class="edge">
<title>Node2&#45;&gt;Node4</title>
<path fill="none" stroke="midnightblue" d="M323.42,-106.88C306.55,-106.59 288.5,-106.27 272.06,-105.99"/>
<polygon fill="midnightblue" stroke="midnightblue" points="323.68,-110.39 333.74,-107.06 323.8,-103.39 323.68,-110.39"/>
</g>
<!-- Node6 -->
<g id="node6" class="node">
<title>Node6</title>
<g id="a_node6"><a xlink:href="namespacecpinti_1_1interception.html#a4c805b9e79a66eca888512879f8d9e10" target="_top" xlink:title=" ">
<polygon fill="white" stroke="black" points="158.5,-39 158.5,-69 269.5,-69 269.5,-39 158.5,-39"/>
<text text-anchor="start" x="166.5" y="-57" font-family="Helvetica,sans-Serif" font-size="10.00">cpinti::interception</text>
<text text-anchor="middle" x="214" y="-46" font-family="Helvetica,sans-Serif" font-size="10.00">::Erreur_Fatale_Signal</text>
</a>
</g>
</g>
<!-- Node5&#45;&gt;Node6 -->
<g id="edge5" class="edge">
<title>Node5&#45;&gt;Node6</title>
<path fill="none" stroke="midnightblue" d="M331.07,-54C311.27,-54 289.12,-54 269.52,-54"/>
<polygon fill="midnightblue" stroke="midnightblue" points="331.18,-57.5 341.18,-54 331.18,-50.5 331.18,-57.5"/>
</g>
<!-- Node7 -->
<g id="node7" class="node">
<title>Node7</title>
<g id="a_node7"><a xlink:href="namespacecpinti_1_1interception.html#a71269205d7f5572d106bf3d75cfcf104" target="_top" xlink:title=" ">
<polygon fill="white" stroke="black" points="0,-33.5 0,-74.5 112,-74.5 112,-33.5 0,-33.5"/>
<text text-anchor="start" x="8" y="-62.5" font-family="Helvetica,sans-Serif" font-size="10.00">cpinti::interception</text>
<text text-anchor="start" x="8" y="-51.5" font-family="Helvetica,sans-Serif" font-size="10.00">::initialise_interception</text>
<text text-anchor="middle" x="56" y="-40.5" font-family="Helvetica,sans-Serif" font-size="10.00">_exception</text>
</a>
</g>
</g>
<!-- Node6&#45;&gt;Node7 -->
<g id="edge6" class="edge">
<title>Node6&#45;&gt;Node7</title>
<path fill="none" stroke="midnightblue" d="M148.42,-54C136.34,-54 123.82,-54 112.06,-54"/>
<polygon fill="midnightblue" stroke="midnightblue" points="148.44,-57.5 158.44,-54 148.44,-50.5 148.44,-57.5"/>
</g>
</g>
</svg>
