<?xml version="1.0" encoding="UTF-8" standalone="no"?>
<!DOCTYPE svg PUBLIC "-//W3C//DTD SVG 1.1//EN"
 "http://www.w3.org/Graphics/SVG/1.1/DTD/svg11.dtd">
<!-- Generated by graphviz version 2.44.0 ()
 -->
<!-- Title: cpinti::gestionnaire_tache::supprimer_Processus Pages: 1 -->
<svg width="296pt" height="50pt"
 viewBox="0.00 0.00 296.00 50.00" xmlns="http://www.w3.org/2000/svg" xmlns:xlink="http://www.w3.org/1999/xlink">
<g id="graph0" class="graph" transform="scale(1 1) rotate(0) translate(4 46)">
<title>cpinti::gestionnaire_tache::supprimer_Processus</title>
<polygon fill="white" stroke="transparent" points="-4,4 -4,-46 292,-46 292,4 -4,4"/>
<!-- Node1 -->
<g id="node1" class="node">
<title>Node1</title>
<g id="a_node1"><a xlink:title=" ">
<polygon fill="#bfbfbf" stroke="black" points="143,-6 143,-36 288,-36 288,-6 143,-6"/>
<text text-anchor="start" x="151" y="-24" font-family="Helvetica,sans-Serif" font-size="10.00">cpinti::gestionnaire</text>
<text text-anchor="middle" x="215.5" y="-13" font-family="Helvetica,sans-Serif" font-size="10.00">_tache::supprimer_Processus</text>
</a>
</g>
</g>
<!-- Node2 -->
<g id="node2" class="node">
<title>Node2</title>
<g id="a_node2"><a xlink:href="namespacecpinti_1_1gestionnaire__tache.html#ac39e89c68667f074a252569a20c74975" target="_top" xlink:title=" ">
<polygon fill="white" stroke="black" points="0,-0.5 0,-41.5 107,-41.5 107,-0.5 0,-0.5"/>
<text text-anchor="start" x="8" y="-29.5" font-family="Helvetica,sans-Serif" font-size="10.00">cpinti::gestionnaire</text>
<text text-anchor="start" x="8" y="-18.5" font-family="Helvetica,sans-Serif" font-size="10.00">_tache::cpinti_arreter</text>
<text text-anchor="middle" x="53.5" y="-7.5" font-family="Helvetica,sans-Serif" font-size="10.00">_processus</text>
</a>
</g>
</g>
<!-- Node1&#45;&gt;Node2 -->
<g id="edge1" class="edge">
<title>Node1&#45;&gt;Node2</title>
<path fill="none" stroke="midnightblue" d="M132.78,-21C124.13,-21 115.5,-21 107.31,-21"/>
<polygon fill="midnightblue" stroke="midnightblue" points="132.92,-24.5 142.92,-21 132.92,-17.5 132.92,-24.5"/>
</g>
</g>
</svg>
