<?xml version="1.0" encoding="UTF-8" standalone="no"?>
<!DOCTYPE svg PUBLIC "-//W3C//DTD SVG 1.1//EN"
 "http://www.w3.org/Graphics/SVG/1.1/DTD/svg11.dtd">
<!-- Generated by graphviz version 2.44.0 ()
 -->
<!-- Title: cpinti::net_server::Demarrer_serveur Pages: 1 -->
<svg width="559pt" height="201pt"
 viewBox="0.00 0.00 559.00 201.00" xmlns="http://www.w3.org/2000/svg" xmlns:xlink="http://www.w3.org/1999/xlink">
<g id="graph0" class="graph" transform="scale(1 1) rotate(0) translate(4 197)">
<title>cpinti::net_server::Demarrer_serveur</title>
<polygon fill="white" stroke="transparent" points="-4,4 -4,-197 555,-197 555,4 -4,4"/>
<!-- Node1 -->
<g id="node1" class="node">
<title>Node1</title>
<g id="a_node1"><a xlink:title=" ">
<polygon fill="#bfbfbf" stroke="black" points="0,-93.5 0,-123.5 98,-123.5 98,-93.5 0,-93.5"/>
<text text-anchor="start" x="8" y="-111.5" font-family="Helvetica,sans-Serif" font-size="10.00">cpinti::net_server</text>
<text text-anchor="middle" x="49" y="-100.5" font-family="Helvetica,sans-Serif" font-size="10.00">::Demarrer_serveur</text>
</a>
</g>
</g>
<!-- Node2 -->
<g id="node2" class="node">
<title>Node2</title>
<g id="a_node2"><a xlink:href="namespacecpinti__dbg.html#a119c14f1b5f4849696decac82a512762" target="_top" xlink:title=" ">
<polygon fill="white" stroke="black" points="301,-162.5 301,-192.5 399,-192.5 399,-162.5 301,-162.5"/>
<text text-anchor="start" x="309" y="-180.5" font-family="Helvetica,sans-Serif" font-size="10.00">cpinti_dbg::CPINTI</text>
<text text-anchor="middle" x="350" y="-169.5" font-family="Helvetica,sans-Serif" font-size="10.00">_DEBUG</text>
</a>
</g>
</g>
<!-- Node1&#45;&gt;Node2 -->
<g id="edge1" class="edge">
<title>Node1&#45;&gt;Node2</title>
<path fill="none" stroke="midnightblue" d="M66.21,-123.5C82.13,-137.21 107.79,-156.64 134,-165.5 184.93,-182.72 246.48,-184.38 290.65,-182.53"/>
<polygon fill="midnightblue" stroke="midnightblue" points="290.83,-186.02 300.64,-182.04 290.48,-179.03 290.83,-186.02"/>
</g>
<!-- Node4 -->
<g id="node4" class="node">
<title>Node4</title>
<g id="a_node4"><a xlink:href="namespacecpinti.html#af3fb396e744daa5441044b785ca8b200" target="_top" xlink:title=" ">
<polygon fill="white" stroke="black" points="134,-137 134,-156 265,-156 265,-137 134,-137"/>
<text text-anchor="middle" x="199.5" y="-144" font-family="Helvetica,sans-Serif" font-size="10.00">cpinti::cpinti_GEST_BUFF</text>
</a>
</g>
</g>
<!-- Node1&#45;&gt;Node4 -->
<g id="edge3" class="edge">
<title>Node1&#45;&gt;Node4</title>
<path fill="none" stroke="midnightblue" d="M98.21,-120.84C115.35,-125.22 134.6,-130.15 151.62,-134.5"/>
<polygon fill="midnightblue" stroke="midnightblue" points="150.79,-137.9 161.35,-136.99 152.53,-131.12 150.79,-137.9"/>
</g>
<!-- Node5 -->
<g id="node5" class="node">
<title>Node5</title>
<g id="a_node5"><a xlink:href="namespacecpinti_1_1_func___cpinti.html#ab7049ea2cc0148a042e823546c2ef76d" target="_top" xlink:title=" ">
<polygon fill="white" stroke="black" points="302,-106.5 302,-136.5 398,-136.5 398,-106.5 302,-106.5"/>
<text text-anchor="start" x="310" y="-124.5" font-family="Helvetica,sans-Serif" font-size="10.00">cpinti::Func_Cpinti</text>
<text text-anchor="middle" x="350" y="-113.5" font-family="Helvetica,sans-Serif" font-size="10.00">::to_string</text>
</a>
</g>
</g>
<!-- Node1&#45;&gt;Node5 -->
<g id="edge8" class="edge">
<title>Node1&#45;&gt;Node5</title>
<path fill="none" stroke="midnightblue" d="M98.04,-110.59C150.72,-112.88 235.23,-116.55 291.42,-119"/>
<polygon fill="midnightblue" stroke="midnightblue" points="291.43,-122.5 301.57,-119.44 291.74,-115.51 291.43,-122.5"/>
</g>
<!-- Node6 -->
<g id="node6" class="node">
<title>Node6</title>
<g id="a_node6"><a xlink:href="namespacecpinti_1_1net__server.html#a708ee83cb866dad1998b1b0266b7a33e" target="_top" xlink:title=" ">
<polygon fill="white" stroke="black" points="154.5,-49.5 154.5,-79.5 244.5,-79.5 244.5,-49.5 154.5,-49.5"/>
<text text-anchor="start" x="162.5" y="-67.5" font-family="Helvetica,sans-Serif" font-size="10.00">cpinti::net_server</text>
<text text-anchor="middle" x="199.5" y="-56.5" font-family="Helvetica,sans-Serif" font-size="10.00">::Fermer_socket</text>
</a>
</g>
</g>
<!-- Node1&#45;&gt;Node6 -->
<g id="edge6" class="edge">
<title>Node1&#45;&gt;Node6</title>
<path fill="none" stroke="midnightblue" d="M98.21,-94.21C112.94,-89.85 129.23,-85.02 144.33,-80.55"/>
<polygon fill="midnightblue" stroke="midnightblue" points="145.46,-83.87 154.05,-77.67 143.47,-77.16 145.46,-83.87"/>
</g>
<!-- Node7 -->
<g id="node7" class="node">
<title>Node7</title>
<g id="a_node7"><a xlink:href="namespacecpinti_1_1_func___cpinti.html#a4c04ec4733d1eae25c28a06400a54000" target="_top" xlink:title=" ">
<polygon fill="white" stroke="black" points="151.5,-0.5 151.5,-30.5 247.5,-30.5 247.5,-0.5 151.5,-0.5"/>
<text text-anchor="start" x="159.5" y="-18.5" font-family="Helvetica,sans-Serif" font-size="10.00">cpinti::Func_Cpinti</text>
<text text-anchor="middle" x="199.5" y="-7.5" font-family="Helvetica,sans-Serif" font-size="10.00">::to_int</text>
</a>
</g>
</g>
<!-- Node1&#45;&gt;Node7 -->
<g id="edge7" class="edge">
<title>Node1&#45;&gt;Node7</title>
<path fill="none" stroke="midnightblue" d="M65.24,-93.3C81.23,-78.03 107.66,-54.65 134,-39.5 136.85,-37.86 139.83,-36.3 142.88,-34.81"/>
<polygon fill="midnightblue" stroke="midnightblue" points="144.53,-37.91 152.19,-30.59 141.63,-31.54 144.53,-37.91"/>
</g>
<!-- Node3 -->
<g id="node3" class="node">
<title>Node3</title>
<g id="a_node3"><a xlink:href="_c_p_c___w_p_r_8h.html#a971c45e904568a2415966a3f7b705e30" target="_top" xlink:title=" ">
<polygon fill="white" stroke="black" points="435,-162.5 435,-192.5 551,-192.5 551,-162.5 435,-162.5"/>
<text text-anchor="start" x="443" y="-180.5" font-family="Helvetica,sans-Serif" font-size="10.00">cpc_cpinti_debug_plus</text>
<text text-anchor="middle" x="493" y="-169.5" font-family="Helvetica,sans-Serif" font-size="10.00">_cpinticore</text>
</a>
</g>
</g>
<!-- Node2&#45;&gt;Node3 -->
<g id="edge2" class="edge">
<title>Node2&#45;&gt;Node3</title>
<path fill="none" stroke="midnightblue" d="M399.13,-177.5C407.39,-177.5 416.1,-177.5 424.75,-177.5"/>
<polygon fill="midnightblue" stroke="midnightblue" points="424.84,-181 434.84,-177.5 424.84,-174 424.84,-181"/>
</g>
<!-- Node4&#45;&gt;Node2 -->
<g id="edge4" class="edge">
<title>Node4&#45;&gt;Node2</title>
<path fill="none" stroke="midnightblue" d="M246.27,-156.05C260.32,-158.99 275.98,-162.26 290.76,-165.34"/>
<polygon fill="midnightblue" stroke="midnightblue" points="290.31,-168.82 300.81,-167.44 291.74,-161.97 290.31,-168.82"/>
</g>
<!-- Node4&#45;&gt;Node5 -->
<g id="edge5" class="edge">
<title>Node4&#45;&gt;Node5</title>
<path fill="none" stroke="midnightblue" d="M257.07,-136.98C268.48,-135.06 280.48,-133.04 291.91,-131.11"/>
<polygon fill="midnightblue" stroke="midnightblue" points="292.49,-134.56 301.77,-129.45 291.33,-127.66 292.49,-134.56"/>
</g>
</g>
</svg>
