<?xml version="1.0" encoding="UTF-8" standalone="no"?>
<!DOCTYPE svg PUBLIC "-//W3C//DTD SVG 1.1//EN"
 "http://www.w3.org/Graphics/SVG/1.1/DTD/svg11.dtd">
<!-- Generated by graphviz version 2.44.0 ()
 -->
<!-- Title: cpinti::cpinti_GEST_BUFF Pages: 1 -->
<svg width="425pt" height="88pt"
 viewBox="0.00 0.00 425.00 88.00" xmlns="http://www.w3.org/2000/svg" xmlns:xlink="http://www.w3.org/1999/xlink">
<g id="graph0" class="graph" transform="scale(1 1) rotate(0) translate(4 84)">
<title>cpinti::cpinti_GEST_BUFF</title>
<polygon fill="white" stroke="transparent" points="-4,4 -4,-84 421,-84 421,4 -4,4"/>
<!-- Node1 -->
<g id="node1" class="node">
<title>Node1</title>
<g id="a_node1"><a xlink:title=" ">
<polygon fill="#bfbfbf" stroke="black" points="0,-30 0,-49 131,-49 131,-30 0,-30"/>
<text text-anchor="middle" x="65.5" y="-37" font-family="Helvetica,sans-Serif" font-size="10.00">cpinti::cpinti_GEST_BUFF</text>
</a>
</g>
</g>
<!-- Node2 -->
<g id="node2" class="node">
<title>Node2</title>
<g id="a_node2"><a xlink:href="namespacecpinti__dbg.html#a119c14f1b5f4849696decac82a512762" target="_top" xlink:title=" ">
<polygon fill="white" stroke="black" points="167,-49.5 167,-79.5 265,-79.5 265,-49.5 167,-49.5"/>
<text text-anchor="start" x="175" y="-67.5" font-family="Helvetica,sans-Serif" font-size="10.00">cpinti_dbg::CPINTI</text>
<text text-anchor="middle" x="216" y="-56.5" font-family="Helvetica,sans-Serif" font-size="10.00">_DEBUG</text>
</a>
</g>
</g>
<!-- Node1&#45;&gt;Node2 -->
<g id="edge1" class="edge">
<title>Node1&#45;&gt;Node2</title>
<path fill="none" stroke="midnightblue" d="M123.07,-49.02C134.11,-50.88 145.71,-52.83 156.81,-54.7"/>
<polygon fill="midnightblue" stroke="midnightblue" points="156.38,-58.18 166.82,-56.39 157.54,-51.28 156.38,-58.18"/>
</g>
<!-- Node4 -->
<g id="node4" class="node">
<title>Node4</title>
<g id="a_node4"><a xlink:href="namespacecpinti_1_1_func___cpinti.html#ab7049ea2cc0148a042e823546c2ef76d" target="_top" xlink:title=" ">
<polygon fill="white" stroke="black" points="168,-0.5 168,-30.5 264,-30.5 264,-0.5 168,-0.5"/>
<text text-anchor="start" x="176" y="-18.5" font-family="Helvetica,sans-Serif" font-size="10.00">cpinti::Func_Cpinti</text>
<text text-anchor="middle" x="216" y="-7.5" font-family="Helvetica,sans-Serif" font-size="10.00">::to_string</text>
</a>
</g>
</g>
<!-- Node1&#45;&gt;Node4 -->
<g id="edge3" class="edge">
<title>Node1&#45;&gt;Node4</title>
<path fill="none" stroke="midnightblue" d="M125.62,-29.95C136.28,-28.22 147.38,-26.43 157.99,-24.71"/>
<polygon fill="midnightblue" stroke="midnightblue" points="158.66,-28.15 167.97,-23.1 157.54,-21.24 158.66,-28.15"/>
</g>
<!-- Node3 -->
<g id="node3" class="node">
<title>Node3</title>
<g id="a_node3"><a xlink:href="_c_p_c___w_p_r_8h.html#a971c45e904568a2415966a3f7b705e30" target="_top" xlink:title=" ">
<polygon fill="white" stroke="black" points="301,-49.5 301,-79.5 417,-79.5 417,-49.5 301,-49.5"/>
<text text-anchor="start" x="309" y="-67.5" font-family="Helvetica,sans-Serif" font-size="10.00">cpc_cpinti_debug_plus</text>
<text text-anchor="middle" x="359" y="-56.5" font-family="Helvetica,sans-Serif" font-size="10.00">_cpinticore</text>
</a>
</g>
</g>
<!-- Node2&#45;&gt;Node3 -->
<g id="edge2" class="edge">
<title>Node2&#45;&gt;Node3</title>
<path fill="none" stroke="midnightblue" d="M265.13,-64.5C273.39,-64.5 282.1,-64.5 290.75,-64.5"/>
<polygon fill="midnightblue" stroke="midnightblue" points="290.84,-68 300.84,-64.5 290.84,-61 290.84,-68"/>
</g>
</g>
</svg>
