<?xml version="1.0" encoding="UTF-8" standalone="no"?>
<!DOCTYPE svg PUBLIC "-//W3C//DTD SVG 1.1//EN"
 "http://www.w3.org/Graphics/SVG/1.1/DTD/svg11.dtd">
<!-- Generated by graphviz version 2.44.0 ()
 -->
<!-- Title: cpinti::cpinti_doevents Pages: 1 -->
<svg width="760pt" height="235pt"
 viewBox="0.00 0.00 760.00 235.00" xmlns="http://www.w3.org/2000/svg" xmlns:xlink="http://www.w3.org/1999/xlink">
<g id="graph0" class="graph" transform="scale(1 1) rotate(0) translate(4 231)">
<title>cpinti::cpinti_doevents</title>
<polygon fill="white" stroke="transparent" points="-4,4 -4,-231 756,-231 756,4 -4,4"/>
<!-- Node1 -->
<g id="node1" class="node">
<title>Node1</title>
<g id="a_node1"><a xlink:title=" ">
<polygon fill="#bfbfbf" stroke="black" points="0,-104 0,-123 113,-123 113,-104 0,-104"/>
<text text-anchor="middle" x="56.5" y="-111" font-family="Helvetica,sans-Serif" font-size="10.00">cpinti::cpinti_doevents</text>
</a>
</g>
</g>
<!-- Node2 -->
<g id="node2" class="node">
<title>Node2</title>
<g id="a_node2"><a xlink:href="namespacecpinti.html#a8235499e69d1e950b8ad549075f21a3d" target="_top" xlink:title=" ">
<polygon fill="white" stroke="black" points="149,-123 149,-142 254,-142 254,-123 149,-123"/>
<text text-anchor="middle" x="201.5" y="-130" font-family="Helvetica,sans-Serif" font-size="10.00">cpinti::cpinti_USleep</text>
</a>
</g>
</g>
<!-- Node1&#45;&gt;Node2 -->
<g id="edge1" class="edge">
<title>Node1&#45;&gt;Node2</title>
<path fill="none" stroke="midnightblue" d="M113.2,-120.9C121.65,-122.02 130.42,-123.19 138.99,-124.33"/>
<polygon fill="midnightblue" stroke="midnightblue" points="138.55,-127.8 148.93,-125.65 139.48,-120.86 138.55,-127.8"/>
</g>
<!-- Node3 -->
<g id="node3" class="node">
<title>Node3</title>
<g id="a_node3"><a xlink:href="namespacecpinti_1_1gestionnaire__tache.html#a640f909bd791a0d1c0f4d87e58fbb5ae" target="_top" xlink:title=" ">
<polygon fill="white" stroke="black" points="290,-98.5 290,-128.5 419,-128.5 419,-98.5 290,-98.5"/>
<text text-anchor="start" x="298" y="-116.5" font-family="Helvetica,sans-Serif" font-size="10.00">cpinti::gestionnaire</text>
<text text-anchor="middle" x="354.5" y="-105.5" font-family="Helvetica,sans-Serif" font-size="10.00">_tache::Interruption_Timer</text>
</a>
</g>
</g>
<!-- Node1&#45;&gt;Node3 -->
<g id="edge9" class="edge">
<title>Node1&#45;&gt;Node3</title>
<path fill="none" stroke="midnightblue" d="M113.18,-113.5C160.28,-113.5 228.15,-113.5 279.76,-113.5"/>
<polygon fill="midnightblue" stroke="midnightblue" points="279.85,-117 289.85,-113.5 279.85,-110 279.85,-117"/>
</g>
<!-- Node2&#45;&gt;Node3 -->
<g id="edge2" class="edge">
<title>Node2&#45;&gt;Node3</title>
<path fill="none" stroke="midnightblue" d="M254.04,-126.01C262.33,-124.97 271.05,-123.87 279.74,-122.78"/>
<polygon fill="midnightblue" stroke="midnightblue" points="280.42,-126.22 289.9,-121.5 279.54,-119.28 280.42,-126.22"/>
</g>
<!-- Node4 -->
<g id="node4" class="node">
<title>Node4</title>
<g id="a_node4"><a xlink:href="namespacecpinti_1_1gestionnaire__tache.html#ad538e6617b7db29fc971ae1980a2e8be" target="_top" xlink:title=" ">
<polygon fill="white" stroke="black" points="455,-196.5 455,-226.5 600,-226.5 600,-196.5 455,-196.5"/>
<text text-anchor="start" x="463" y="-214.5" font-family="Helvetica,sans-Serif" font-size="10.00">cpinti::gestionnaire</text>
<text text-anchor="middle" x="527.5" y="-203.5" font-family="Helvetica,sans-Serif" font-size="10.00">_tache::begin_SectionCritique</text>
</a>
</g>
</g>
<!-- Node3&#45;&gt;Node4 -->
<g id="edge3" class="edge">
<title>Node3&#45;&gt;Node4</title>
<path fill="none" stroke="midnightblue" d="M372.77,-128.66C391.82,-144.77 423.91,-170.13 455,-186.5 459.04,-188.63 463.29,-190.63 467.63,-192.52"/>
<polygon fill="midnightblue" stroke="midnightblue" points="466.64,-195.89 477.22,-196.44 469.29,-189.41 466.64,-195.89"/>
</g>
<!-- Node5 -->
<g id="node5" class="node">
<title>Node5</title>
<g id="a_node5"><a xlink:href="namespacecpinti__dbg.html#a119c14f1b5f4849696decac82a512762" target="_top" xlink:title=" ">
<polygon fill="white" stroke="black" points="478.5,-147.5 478.5,-177.5 576.5,-177.5 576.5,-147.5 478.5,-147.5"/>
<text text-anchor="start" x="486.5" y="-165.5" font-family="Helvetica,sans-Serif" font-size="10.00">cpinti_dbg::CPINTI</text>
<text text-anchor="middle" x="527.5" y="-154.5" font-family="Helvetica,sans-Serif" font-size="10.00">_DEBUG</text>
</a>
</g>
</g>
<!-- Node3&#45;&gt;Node5 -->
<g id="edge4" class="edge">
<title>Node3&#45;&gt;Node5</title>
<path fill="none" stroke="midnightblue" d="M408.2,-128.6C427.34,-134.09 449.07,-140.31 468.63,-145.92"/>
<polygon fill="midnightblue" stroke="midnightblue" points="467.76,-149.31 478.34,-148.7 469.69,-142.58 467.76,-149.31"/>
</g>
<!-- Node7 -->
<g id="node7" class="node">
<title>Node7</title>
<g id="a_node7"><a xlink:href="namespacecpinti_1_1gestionnaire__tache.html#a1dffbe4de63a3f294858ef36948b3115" target="_top" xlink:title=" ">
<polygon fill="white" stroke="black" points="459,-98.5 459,-128.5 596,-128.5 596,-98.5 459,-98.5"/>
<text text-anchor="start" x="467" y="-116.5" font-family="Helvetica,sans-Serif" font-size="10.00">cpinti::gestionnaire</text>
<text text-anchor="middle" x="527.5" y="-105.5" font-family="Helvetica,sans-Serif" font-size="10.00">_tache::end_SectionCritique</text>
</a>
</g>
</g>
<!-- Node3&#45;&gt;Node7 -->
<g id="edge6" class="edge">
<title>Node3&#45;&gt;Node7</title>
<path fill="none" stroke="midnightblue" d="M419.17,-113.5C428.76,-113.5 438.74,-113.5 448.58,-113.5"/>
<polygon fill="midnightblue" stroke="midnightblue" points="448.76,-117 458.76,-113.5 448.76,-110 448.76,-117"/>
</g>
<!-- Node8 -->
<g id="node8" class="node">
<title>Node8</title>
<g id="a_node8"><a xlink:href="namespacecpinti_1_1gestionnaire__tache.html#a2cb7408de395cda0909727daabbf14d9" target="_top" xlink:title=" ">
<polygon fill="white" stroke="black" points="456,-49.5 456,-79.5 599,-79.5 599,-49.5 456,-49.5"/>
<text text-anchor="start" x="464" y="-67.5" font-family="Helvetica,sans-Serif" font-size="10.00">cpinti::gestionnaire</text>
<text text-anchor="middle" x="527.5" y="-56.5" font-family="Helvetica,sans-Serif" font-size="10.00">_tache::state_SectionCritique</text>
</a>
</g>
</g>
<!-- Node3&#45;&gt;Node8 -->
<g id="edge7" class="edge">
<title>Node3&#45;&gt;Node8</title>
<path fill="none" stroke="midnightblue" d="M408.2,-98.4C425.92,-93.32 445.85,-87.61 464.23,-82.34"/>
<polygon fill="midnightblue" stroke="midnightblue" points="465.32,-85.67 473.97,-79.55 463.4,-78.94 465.32,-85.67"/>
</g>
<!-- Node9 -->
<g id="node9" class="node">
<title>Node9</title>
<g id="a_node9"><a xlink:href="namespacecpinti_1_1_func___cpinti.html#ab7049ea2cc0148a042e823546c2ef76d" target="_top" xlink:title=" ">
<polygon fill="white" stroke="black" points="479.5,-0.5 479.5,-30.5 575.5,-30.5 575.5,-0.5 479.5,-0.5"/>
<text text-anchor="start" x="487.5" y="-18.5" font-family="Helvetica,sans-Serif" font-size="10.00">cpinti::Func_Cpinti</text>
<text text-anchor="middle" x="527.5" y="-7.5" font-family="Helvetica,sans-Serif" font-size="10.00">::to_string</text>
</a>
</g>
</g>
<!-- Node3&#45;&gt;Node9 -->
<g id="edge8" class="edge">
<title>Node3&#45;&gt;Node9</title>
<path fill="none" stroke="midnightblue" d="M372.35,-98.33C391.29,-81.94 423.52,-55.96 455,-39.5 459.79,-37 464.89,-34.68 470.08,-32.55"/>
<polygon fill="midnightblue" stroke="midnightblue" points="471.4,-35.79 479.46,-28.92 468.87,-29.26 471.4,-35.79"/>
</g>
<!-- Node6 -->
<g id="node6" class="node">
<title>Node6</title>
<g id="a_node6"><a xlink:href="_c_p_c___w_p_r_8h.html#a971c45e904568a2415966a3f7b705e30" target="_top" xlink:title=" ">
<polygon fill="white" stroke="black" points="636,-147.5 636,-177.5 752,-177.5 752,-147.5 636,-147.5"/>
<text text-anchor="start" x="644" y="-165.5" font-family="Helvetica,sans-Serif" font-size="10.00">cpc_cpinti_debug_plus</text>
<text text-anchor="middle" x="694" y="-154.5" font-family="Helvetica,sans-Serif" font-size="10.00">_cpinticore</text>
</a>
</g>
</g>
<!-- Node5&#45;&gt;Node6 -->
<g id="edge5" class="edge">
<title>Node5&#45;&gt;Node6</title>
<path fill="none" stroke="midnightblue" d="M576.52,-162.5C591.91,-162.5 609.25,-162.5 625.76,-162.5"/>
<polygon fill="midnightblue" stroke="midnightblue" points="625.9,-166 635.9,-162.5 625.9,-159 625.9,-166"/>
</g>
</g>
</svg>
