<?xml version="1.0" encoding="UTF-8" standalone="no"?>
<!DOCTYPE svg PUBLIC "-//W3C//DTD SVG 1.1//EN"
 "http://www.w3.org/Graphics/SVG/1.1/DTD/svg11.dtd">
<!-- Generated by graphviz version 2.44.0 ()
 -->
<!-- Title: OS2.1/CPinti/network/ping.cpp Pages: 1 -->
<svg width="1298pt" height="151pt"
 viewBox="0.00 0.00 1298.00 151.00" xmlns="http://www.w3.org/2000/svg" xmlns:xlink="http://www.w3.org/1999/xlink">
<g id="graph0" class="graph" transform="scale(1 1) rotate(0) translate(4 147)">
<title>OS2.1/CPinti/network/ping.cpp</title>
<polygon fill="white" stroke="transparent" points="-4,4 -4,-147 1294,-147 1294,4 -4,4"/>
<!-- Node1 -->
<g id="node1" class="node">
<title>Node1</title>
<g id="a_node1"><a xlink:title=" ">
<polygon fill="#bfbfbf" stroke="black" points="523.5,-112.5 523.5,-142.5 633.5,-142.5 633.5,-112.5 523.5,-112.5"/>
<text text-anchor="start" x="531.5" y="-130.5" font-family="Helvetica,sans-Serif" font-size="10.00">OS2.1/CPinti/network</text>
<text text-anchor="middle" x="578.5" y="-119.5" font-family="Helvetica,sans-Serif" font-size="10.00">/ping.cpp</text>
</a>
</g>
</g>
<!-- Node2 -->
<g id="node2" class="node">
<title>Node2</title>
<g id="a_node2"><a xlink:title=" ">
<polygon fill="white" stroke="#bfbfbf" points="0,-56.5 0,-75.5 45,-75.5 45,-56.5 0,-56.5"/>
<text text-anchor="middle" x="22.5" y="-63.5" font-family="Helvetica,sans-Serif" font-size="10.00">stdio.h</text>
</a>
</g>
</g>
<!-- Node1&#45;&gt;Node2 -->
<g id="edge1" class="edge">
<title>Node1&#45;&gt;Node2</title>
<path fill="none" stroke="midnightblue" d="M523.22,-124.57C428.78,-120.55 230.34,-108.87 54.99,-75.97"/>
<polygon fill="midnightblue" stroke="midnightblue" points="55.55,-72.51 45.07,-74.08 54.24,-79.39 55.55,-72.51"/>
</g>
<!-- Node3 -->
<g id="node3" class="node">
<title>Node3</title>
<g id="a_node3"><a xlink:title=" ">
<polygon fill="white" stroke="#bfbfbf" points="63,-56.5 63,-75.5 104,-75.5 104,-56.5 63,-56.5"/>
<text text-anchor="middle" x="83.5" y="-63.5" font-family="Helvetica,sans-Serif" font-size="10.00">ctime</text>
</a>
</g>
</g>
<!-- Node1&#45;&gt;Node3 -->
<g id="edge2" class="edge">
<title>Node1&#45;&gt;Node3</title>
<path fill="none" stroke="midnightblue" d="M523.24,-123.78C437.5,-118.84 267.26,-106.18 114.09,-75.73"/>
<polygon fill="midnightblue" stroke="midnightblue" points="114.53,-72.25 104.03,-73.7 113.14,-79.11 114.53,-72.25"/>
</g>
<!-- Node4 -->
<g id="node4" class="node">
<title>Node4</title>
<g id="a_node4"><a xlink:title=" ">
<polygon fill="white" stroke="#bfbfbf" points="122.5,-56.5 122.5,-75.5 172.5,-75.5 172.5,-56.5 122.5,-56.5"/>
<text text-anchor="middle" x="147.5" y="-63.5" font-family="Helvetica,sans-Serif" font-size="10.00">unistd.h</text>
</a>
</g>
</g>
<!-- Node1&#45;&gt;Node4 -->
<g id="edge3" class="edge">
<title>Node1&#45;&gt;Node4</title>
<path fill="none" stroke="midnightblue" d="M523.38,-121.13C447.28,-113.33 305.88,-97.41 186.5,-76 185.23,-75.77 183.94,-75.53 182.64,-75.28"/>
<polygon fill="midnightblue" stroke="midnightblue" points="183.11,-71.8 172.6,-73.18 181.67,-78.65 183.11,-71.8"/>
</g>
<!-- Node5 -->
<g id="node5" class="node">
<title>Node5</title>
<g id="a_node5"><a xlink:title=" ">
<polygon fill="white" stroke="#bfbfbf" points="583.5,-0.5 583.5,-19.5 651.5,-19.5 651.5,-0.5 583.5,-0.5"/>
<text text-anchor="middle" x="617.5" y="-7.5" font-family="Helvetica,sans-Serif" font-size="10.00">sys/select.h</text>
</a>
</g>
</g>
<!-- Node1&#45;&gt;Node5 -->
<g id="edge4" class="edge">
<title>Node1&#45;&gt;Node5</title>
<path fill="none" stroke="midnightblue" d="M523.44,-124.43C412.88,-119.26 177.82,-102.66 219.5,-56 242.74,-29.98 474.14,-17.1 573.04,-12.75"/>
<polygon fill="midnightblue" stroke="midnightblue" points="573.47,-16.24 583.31,-12.31 573.17,-9.24 573.47,-16.24"/>
</g>
<!-- Node6 -->
<g id="node6" class="node">
<title>Node6</title>
<g id="a_node6"><a xlink:title=" ">
<polygon fill="white" stroke="#bfbfbf" points="229,-56.5 229,-75.5 300,-75.5 300,-56.5 229,-56.5"/>
<text text-anchor="middle" x="264.5" y="-63.5" font-family="Helvetica,sans-Serif" font-size="10.00">sys/socket.h</text>
</a>
</g>
</g>
<!-- Node1&#45;&gt;Node6 -->
<g id="edge5" class="edge">
<title>Node1&#45;&gt;Node6</title>
<path fill="none" stroke="midnightblue" d="M523.34,-116.34C471.17,-106.69 390.4,-91.63 310.59,-76.19"/>
<polygon fill="midnightblue" stroke="midnightblue" points="310.84,-72.68 300.35,-74.21 309.51,-79.55 310.84,-72.68"/>
</g>
<!-- Node7 -->
<g id="node7" class="node">
<title>Node7</title>
<g id="a_node7"><a xlink:title=" ">
<polygon fill="white" stroke="#bfbfbf" points="318.5,-56.5 318.5,-75.5 382.5,-75.5 382.5,-56.5 318.5,-56.5"/>
<text text-anchor="middle" x="350.5" y="-63.5" font-family="Helvetica,sans-Serif" font-size="10.00">netinet/ip.h</text>
</a>
</g>
</g>
<!-- Node1&#45;&gt;Node7 -->
<g id="edge6" class="edge">
<title>Node1&#45;&gt;Node7</title>
<path fill="none" stroke="midnightblue" d="M524.76,-112.47C484.44,-101.95 430.02,-87.75 392.79,-78.03"/>
<polygon fill="midnightblue" stroke="midnightblue" points="393.32,-74.56 382.76,-75.42 391.56,-81.33 393.32,-74.56"/>
</g>
<!-- Node8 -->
<g id="node8" class="node">
<title>Node8</title>
<g id="a_node8"><a xlink:title=" ">
<polygon fill="white" stroke="#bfbfbf" points="400.5,-56.5 400.5,-75.5 462.5,-75.5 462.5,-56.5 400.5,-56.5"/>
<text text-anchor="middle" x="431.5" y="-63.5" font-family="Helvetica,sans-Serif" font-size="10.00">arpa/inet.h</text>
</a>
</g>
</g>
<!-- Node1&#45;&gt;Node8 -->
<g id="edge7" class="edge">
<title>Node1&#45;&gt;Node8</title>
<path fill="none" stroke="midnightblue" d="M543.66,-112.4C519,-102.42 486.21,-89.15 462.47,-79.53"/>
<polygon fill="midnightblue" stroke="midnightblue" points="463.47,-76.17 452.89,-75.66 460.85,-82.65 463.47,-76.17"/>
</g>
<!-- Node9 -->
<g id="node9" class="node">
<title>Node9</title>
<g id="a_node9"><a xlink:title=" ">
<polygon fill="white" stroke="#bfbfbf" points="480.5,-56.5 480.5,-75.5 528.5,-75.5 528.5,-56.5 480.5,-56.5"/>
<text text-anchor="middle" x="504.5" y="-63.5" font-family="Helvetica,sans-Serif" font-size="10.00">netdb.h</text>
</a>
</g>
</g>
<!-- Node1&#45;&gt;Node9 -->
<g id="edge8" class="edge">
<title>Node1&#45;&gt;Node9</title>
<path fill="none" stroke="midnightblue" d="M560.96,-112.4C549.66,-103.31 534.96,-91.49 523.39,-82.19"/>
<polygon fill="midnightblue" stroke="midnightblue" points="525.25,-79.2 515.27,-75.66 520.87,-84.65 525.25,-79.2"/>
</g>
<!-- Node10 -->
<g id="node10" class="node">
<title>Node10</title>
<g id="a_node10"><a xlink:title=" ">
<polygon fill="white" stroke="#bfbfbf" points="546.5,-56.5 546.5,-75.5 610.5,-75.5 610.5,-56.5 546.5,-56.5"/>
<text text-anchor="middle" x="578.5" y="-63.5" font-family="Helvetica,sans-Serif" font-size="10.00">netinet/in.h</text>
</a>
</g>
</g>
<!-- Node1&#45;&gt;Node10 -->
<g id="edge9" class="edge">
<title>Node1&#45;&gt;Node10</title>
<path fill="none" stroke="midnightblue" d="M578.5,-112.4C578.5,-104.47 578.5,-94.46 578.5,-85.86"/>
<polygon fill="midnightblue" stroke="midnightblue" points="582,-85.66 578.5,-75.66 575,-85.66 582,-85.66"/>
</g>
<!-- Node11 -->
<g id="node11" class="node">
<title>Node11</title>
<g id="a_node11"><a xlink:title=" ">
<polygon fill="white" stroke="#bfbfbf" points="628.5,-56.5 628.5,-75.5 676.5,-75.5 676.5,-56.5 628.5,-56.5"/>
<text text-anchor="middle" x="652.5" y="-63.5" font-family="Helvetica,sans-Serif" font-size="10.00">string.h</text>
</a>
</g>
</g>
<!-- Node1&#45;&gt;Node11 -->
<g id="edge10" class="edge">
<title>Node1&#45;&gt;Node11</title>
<path fill="none" stroke="midnightblue" d="M596.04,-112.4C607.34,-103.31 622.04,-91.49 633.61,-82.19"/>
<polygon fill="midnightblue" stroke="midnightblue" points="636.13,-84.65 641.73,-75.66 631.75,-79.2 636.13,-84.65"/>
</g>
<!-- Node12 -->
<g id="node12" class="node">
<title>Node12</title>
<g id="a_node12"><a xlink:title=" ">
<polygon fill="white" stroke="#bfbfbf" points="695,-56.5 695,-75.5 742,-75.5 742,-56.5 695,-56.5"/>
<text text-anchor="middle" x="718.5" y="-63.5" font-family="Helvetica,sans-Serif" font-size="10.00">stdlib.h</text>
</a>
</g>
</g>
<!-- Node1&#45;&gt;Node12 -->
<g id="edge11" class="edge">
<title>Node1&#45;&gt;Node12</title>
<path fill="none" stroke="midnightblue" d="M611.68,-112.4C635.06,-102.46 666.11,-89.26 688.71,-79.66"/>
<polygon fill="midnightblue" stroke="midnightblue" points="690.29,-82.79 698.13,-75.66 687.56,-76.35 690.29,-82.79"/>
</g>
<!-- Node13 -->
<g id="node13" class="node">
<title>Node13</title>
<g id="a_node13"><a xlink:title=" ">
<polygon fill="white" stroke="#bfbfbf" points="760,-56.5 760,-75.5 825,-75.5 825,-56.5 760,-56.5"/>
<text text-anchor="middle" x="792.5" y="-63.5" font-family="Helvetica,sans-Serif" font-size="10.00">sys/types.h</text>
</a>
</g>
</g>
<!-- Node1&#45;&gt;Node13 -->
<g id="edge12" class="edge">
<title>Node1&#45;&gt;Node13</title>
<path fill="none" stroke="midnightblue" d="M628.94,-112.47C666.51,-102.03 717.12,-87.96 752.05,-78.25"/>
<polygon fill="midnightblue" stroke="midnightblue" points="753.21,-81.56 761.91,-75.51 751.33,-74.81 753.21,-81.56"/>
</g>
<!-- Node14 -->
<g id="node14" class="node">
<title>Node14</title>
<g id="a_node14"><a xlink:title=" ">
<polygon fill="white" stroke="#bfbfbf" points="843.5,-56.5 843.5,-75.5 933.5,-75.5 933.5,-56.5 843.5,-56.5"/>
<text text-anchor="middle" x="888.5" y="-63.5" font-family="Helvetica,sans-Serif" font-size="10.00">netinet/ip_icmp.h</text>
</a>
</g>
</g>
<!-- Node1&#45;&gt;Node14 -->
<g id="edge13" class="edge">
<title>Node1&#45;&gt;Node14</title>
<path fill="none" stroke="midnightblue" d="M633.56,-115.93C690.07,-105.09 777.47,-88.31 833.84,-77.49"/>
<polygon fill="midnightblue" stroke="midnightblue" points="834.82,-80.87 843.98,-75.54 833.5,-73.99 834.82,-80.87"/>
</g>
<!-- Node15 -->
<g id="node15" class="node">
<title>Node15</title>
<g id="a_node15"><a xlink:title=" ">
<polygon fill="white" stroke="#bfbfbf" points="951.5,-56.5 951.5,-75.5 1007.5,-75.5 1007.5,-56.5 951.5,-56.5"/>
<text text-anchor="middle" x="979.5" y="-63.5" font-family="Helvetica,sans-Serif" font-size="10.00">pthread.h</text>
</a>
</g>
</g>
<!-- Node1&#45;&gt;Node15 -->
<g id="edge14" class="edge">
<title>Node1&#45;&gt;Node15</title>
<path fill="none" stroke="midnightblue" d="M633.67,-120.6C703.2,-112.77 826.53,-97.6 941.27,-76.07"/>
<polygon fill="midnightblue" stroke="midnightblue" points="942.11,-79.48 951.28,-74.17 940.8,-72.6 942.11,-79.48"/>
</g>
<!-- Node16 -->
<g id="node16" class="node">
<title>Node16</title>
<g id="a_node16"><a xlink:href="func__cpi_8h.html" target="_top" xlink:title=" ">
<polygon fill="white" stroke="black" points="1153.5,-56.5 1153.5,-75.5 1217.5,-75.5 1217.5,-56.5 1153.5,-56.5"/>
<text text-anchor="middle" x="1185.5" y="-63.5" font-family="Helvetica,sans-Serif" font-size="10.00">Func_cpi.h</text>
</a>
</g>
</g>
<!-- Node1&#45;&gt;Node16 -->
<g id="edge15" class="edge">
<title>Node1&#45;&gt;Node16</title>
<path fill="none" stroke="midnightblue" d="M633.82,-123.9C733.7,-118.7 950.91,-105.07 1143.33,-75.99"/>
<polygon fill="midnightblue" stroke="midnightblue" points="1143.99,-79.43 1153.34,-74.46 1142.93,-72.51 1143.99,-79.43"/>
</g>
<!-- Node20 -->
<g id="node20" class="node">
<title>Node20</title>
<g id="a_node20"><a xlink:href="debug_8h.html" target="_top" xlink:title=" ">
<polygon fill="white" stroke="black" points="1085.5,-56.5 1085.5,-75.5 1135.5,-75.5 1135.5,-56.5 1085.5,-56.5"/>
<text text-anchor="middle" x="1110.5" y="-63.5" font-family="Helvetica,sans-Serif" font-size="10.00">debug.h</text>
</a>
</g>
</g>
<!-- Node1&#45;&gt;Node20 -->
<g id="edge19" class="edge">
<title>Node1&#45;&gt;Node20</title>
<path fill="none" stroke="midnightblue" d="M633.8,-123.75C724.32,-118.62 909.83,-105.49 1075.47,-75.92"/>
<polygon fill="midnightblue" stroke="midnightblue" points="1076.13,-79.36 1085.35,-74.13 1074.89,-72.47 1076.13,-79.36"/>
</g>
<!-- Node21 -->
<g id="node21" class="node">
<title>Node21</title>
<g id="a_node21"><a xlink:href="ping_8h.html" target="_top" xlink:title=" ">
<polygon fill="white" stroke="black" points="1025.5,-56.5 1025.5,-75.5 1067.5,-75.5 1067.5,-56.5 1025.5,-56.5"/>
<text text-anchor="middle" x="1046.5" y="-63.5" font-family="Helvetica,sans-Serif" font-size="10.00">ping.h</text>
</a>
</g>
</g>
<!-- Node1&#45;&gt;Node21 -->
<g id="edge21" class="edge">
<title>Node1&#45;&gt;Node21</title>
<path fill="none" stroke="midnightblue" d="M633.62,-123.28C715.18,-117.83 872.82,-104.66 1015.1,-75.96"/>
<polygon fill="midnightblue" stroke="midnightblue" points="1016.22,-79.3 1025.31,-73.86 1014.81,-72.44 1016.22,-79.3"/>
</g>
<!-- Node17 -->
<g id="node17" class="node">
<title>Node17</title>
<g id="a_node17"><a xlink:title=" ">
<polygon fill="white" stroke="#bfbfbf" points="1084.5,-0.5 1084.5,-19.5 1138.5,-19.5 1138.5,-0.5 1084.5,-0.5"/>
<text text-anchor="middle" x="1111.5" y="-7.5" font-family="Helvetica,sans-Serif" font-size="10.00">iostream</text>
</a>
</g>
</g>
<!-- Node16&#45;&gt;Node17 -->
<g id="edge16" class="edge">
<title>Node16&#45;&gt;Node17</title>
<path fill="none" stroke="midnightblue" d="M1173.61,-56.32C1162.35,-48.11 1145.21,-35.6 1131.79,-25.81"/>
<polygon fill="midnightblue" stroke="midnightblue" points="1133.75,-22.9 1123.61,-19.83 1129.62,-28.56 1133.75,-22.9"/>
</g>
<!-- Node18 -->
<g id="node18" class="node">
<title>Node18</title>
<g id="a_node18"><a xlink:title=" ">
<polygon fill="white" stroke="#bfbfbf" points="1158.5,-0.5 1158.5,-19.5 1210.5,-19.5 1210.5,-0.5 1158.5,-0.5"/>
<text text-anchor="middle" x="1184.5" y="-7.5" font-family="Helvetica,sans-Serif" font-size="10.00">sstream</text>
</a>
</g>
</g>
<!-- Node16&#45;&gt;Node18 -->
<g id="edge17" class="edge">
<title>Node16&#45;&gt;Node18</title>
<path fill="none" stroke="midnightblue" d="M1185.33,-56.08C1185.2,-49.01 1185.02,-38.86 1184.85,-29.99"/>
<polygon fill="midnightblue" stroke="midnightblue" points="1188.35,-29.68 1184.66,-19.75 1181.35,-29.81 1188.35,-29.68"/>
</g>
<!-- Node19 -->
<g id="node19" class="node">
<title>Node19</title>
<g id="a_node19"><a xlink:title=" ">
<polygon fill="white" stroke="#bfbfbf" points="1229,-0.5 1229,-19.5 1290,-19.5 1290,-0.5 1229,-0.5"/>
<text text-anchor="middle" x="1259.5" y="-7.5" font-family="Helvetica,sans-Serif" font-size="10.00">sys/time.h</text>
</a>
</g>
</g>
<!-- Node16&#45;&gt;Node19 -->
<g id="edge18" class="edge">
<title>Node16&#45;&gt;Node19</title>
<path fill="none" stroke="midnightblue" d="M1197.39,-56.32C1208.65,-48.11 1225.79,-35.6 1239.21,-25.81"/>
<polygon fill="midnightblue" stroke="midnightblue" points="1241.38,-28.56 1247.39,-19.83 1237.25,-22.9 1241.38,-28.56"/>
</g>
<!-- Node20&#45;&gt;Node17 -->
<g id="edge20" class="edge">
<title>Node20&#45;&gt;Node17</title>
<path fill="none" stroke="midnightblue" d="M1110.67,-56.08C1110.8,-49.01 1110.98,-38.86 1111.15,-29.99"/>
<polygon fill="midnightblue" stroke="midnightblue" points="1114.65,-29.81 1111.34,-19.75 1107.65,-29.68 1114.65,-29.81"/>
</g>
<!-- Node21&#45;&gt;Node5 -->
<g id="edge22" class="edge">
<title>Node21&#45;&gt;Node5</title>
<path fill="none" stroke="midnightblue" d="M1025.31,-58.13C1022.37,-57.33 1019.38,-56.59 1016.5,-56 889.41,-29.99 736.24,-18.01 662.07,-13.41"/>
<polygon fill="midnightblue" stroke="midnightblue" points="661.91,-9.9 651.72,-12.79 661.49,-16.89 661.91,-9.9"/>
</g>
</g>
</svg>
