<?xml version="1.0" encoding="UTF-8" standalone="no"?>
<!DOCTYPE svg PUBLIC "-//W3C//DTD SVG 1.1//EN"
 "http://www.w3.org/Graphics/SVG/1.1/DTD/svg11.dtd">
<!-- Generated by graphviz version 2.44.0 ()
 -->
<!-- Title: OS2.1/CPinti/include/process.h Pages: 1 -->
<svg width="250pt" height="106pt"
 viewBox="0.00 0.00 249.50 106.00" xmlns="http://www.w3.org/2000/svg" xmlns:xlink="http://www.w3.org/1999/xlink">
<g id="graph0" class="graph" transform="scale(1 1) rotate(0) translate(4 102)">
<title>OS2.1/CPinti/include/process.h</title>
<polygon fill="white" stroke="transparent" points="-4,4 -4,-102 245.5,-102 245.5,4 -4,4"/>
<!-- Node1 -->
<g id="node1" class="node">
<title>Node1</title>
<g id="a_node1"><a xlink:title=" ">
<polygon fill="#bfbfbf" stroke="black" points="68,-67.5 68,-97.5 175,-97.5 175,-67.5 68,-67.5"/>
<text text-anchor="start" x="76" y="-85.5" font-family="Helvetica,sans-Serif" font-size="10.00">OS2.1/CPinti/include</text>
<text text-anchor="middle" x="121.5" y="-74.5" font-family="Helvetica,sans-Serif" font-size="10.00">/process.h</text>
</a>
</g>
</g>
<!-- Node2 -->
<g id="node2" class="node">
<title>Node2</title>
<g id="a_node2"><a xlink:href="wpr__process_8cpp.html" target="_top" xlink:title=" ">
<polygon fill="white" stroke="black" points="0,-0.5 0,-30.5 113,-30.5 113,-0.5 0,-0.5"/>
<text text-anchor="start" x="8" y="-18.5" font-family="Helvetica,sans-Serif" font-size="10.00">OS2.1/CPinti/core/wpr</text>
<text text-anchor="middle" x="56.5" y="-7.5" font-family="Helvetica,sans-Serif" font-size="10.00">_process.cpp</text>
</a>
</g>
</g>
<!-- Node1&#45;&gt;Node2 -->
<g id="edge1" class="edge">
<title>Node1&#45;&gt;Node2</title>
<path fill="none" stroke="midnightblue" d="M100.31,-60.31C90.56,-50.56 79.26,-39.26 70.58,-30.58"/>
<polygon fill="midnightblue" stroke="midnightblue" points="97.85,-62.8 107.4,-67.4 102.8,-57.85 97.85,-62.8"/>
</g>
<!-- Node3 -->
<g id="node3" class="node">
<title>Node3</title>
<g id="a_node3"><a xlink:href="wpr__net_8cpp.html" target="_top" xlink:title=" ">
<polygon fill="white" stroke="black" points="131.5,-0.5 131.5,-30.5 241.5,-30.5 241.5,-0.5 131.5,-0.5"/>
<text text-anchor="start" x="139.5" y="-18.5" font-family="Helvetica,sans-Serif" font-size="10.00">OS2.1/CPinti/network</text>
<text text-anchor="middle" x="186.5" y="-7.5" font-family="Helvetica,sans-Serif" font-size="10.00">/wpr_net.cpp</text>
</a>
</g>
</g>
<!-- Node1&#45;&gt;Node3 -->
<g id="edge2" class="edge">
<title>Node1&#45;&gt;Node3</title>
<path fill="none" stroke="midnightblue" d="M142.69,-60.31C152.44,-50.56 163.74,-39.26 172.42,-30.58"/>
<polygon fill="midnightblue" stroke="midnightblue" points="140.2,-57.85 135.6,-67.4 145.15,-62.8 140.2,-57.85"/>
</g>
</g>
</svg>
