<?xml version="1.0" encoding="UTF-8" standalone="no"?>
<!DOCTYPE svg PUBLIC "-//W3C//DTD SVG 1.1//EN"
 "http://www.w3.org/Graphics/SVG/1.1/DTD/svg11.dtd">
<!-- Generated by graphviz version 2.44.0 ()
 -->
<!-- Title: OS2.1/CPinti/network/serveur.cpp Pages: 1 -->
<svg width="1335pt" height="151pt"
 viewBox="0.00 0.00 1334.50 151.00" xmlns="http://www.w3.org/2000/svg" xmlns:xlink="http://www.w3.org/1999/xlink">
<g id="graph0" class="graph" transform="scale(1 1) rotate(0) translate(4 147)">
<title>OS2.1/CPinti/network/serveur.cpp</title>
<polygon fill="white" stroke="transparent" points="-4,4 -4,-147 1330.5,-147 1330.5,4 -4,4"/>
<!-- Node1 -->
<g id="node1" class="node">
<title>Node1</title>
<g id="a_node1"><a xlink:title=" ">
<polygon fill="#bfbfbf" stroke="black" points="597.5,-112.5 597.5,-142.5 707.5,-142.5 707.5,-112.5 597.5,-112.5"/>
<text text-anchor="start" x="605.5" y="-130.5" font-family="Helvetica,sans-Serif" font-size="10.00">OS2.1/CPinti/network</text>
<text text-anchor="middle" x="652.5" y="-119.5" font-family="Helvetica,sans-Serif" font-size="10.00">/serveur.cpp</text>
</a>
</g>
</g>
<!-- Node2 -->
<g id="node2" class="node">
<title>Node2</title>
<g id="a_node2"><a xlink:title=" ">
<polygon fill="white" stroke="#bfbfbf" points="0,-56.5 0,-75.5 45,-75.5 45,-56.5 0,-56.5"/>
<text text-anchor="middle" x="22.5" y="-63.5" font-family="Helvetica,sans-Serif" font-size="10.00">stdio.h</text>
</a>
</g>
</g>
<!-- Node1&#45;&gt;Node2 -->
<g id="edge1" class="edge">
<title>Node1&#45;&gt;Node2</title>
<path fill="none" stroke="midnightblue" d="M597.09,-125.49C492.52,-122.79 258.97,-113 55.06,-75.95"/>
<polygon fill="midnightblue" stroke="midnightblue" points="55.53,-72.48 45.06,-74.11 54.26,-79.37 55.53,-72.48"/>
</g>
<!-- Node3 -->
<g id="node3" class="node">
<title>Node3</title>
<g id="a_node3"><a xlink:title=" ">
<polygon fill="white" stroke="#bfbfbf" points="63,-56.5 63,-75.5 104,-75.5 104,-56.5 63,-56.5"/>
<text text-anchor="middle" x="83.5" y="-63.5" font-family="Helvetica,sans-Serif" font-size="10.00">ctime</text>
</a>
</g>
</g>
<!-- Node1&#45;&gt;Node3 -->
<g id="edge2" class="edge">
<title>Node1&#45;&gt;Node3</title>
<path fill="none" stroke="midnightblue" d="M597.28,-124.93C500.88,-121.4 295.67,-110.42 114.02,-75.68"/>
<polygon fill="midnightblue" stroke="midnightblue" points="114.51,-72.21 104.02,-73.74 113.17,-79.08 114.51,-72.21"/>
</g>
<!-- Node4 -->
<g id="node4" class="node">
<title>Node4</title>
<g id="a_node4"><a xlink:title=" ">
<polygon fill="white" stroke="#bfbfbf" points="122.5,-56.5 122.5,-75.5 172.5,-75.5 172.5,-56.5 122.5,-56.5"/>
<text text-anchor="middle" x="147.5" y="-63.5" font-family="Helvetica,sans-Serif" font-size="10.00">unistd.h</text>
</a>
</g>
</g>
<!-- Node1&#45;&gt;Node4 -->
<g id="edge3" class="edge">
<title>Node1&#45;&gt;Node4</title>
<path fill="none" stroke="midnightblue" d="M597.36,-123.31C510.9,-117.72 338.13,-104.14 182.86,-75.99"/>
<polygon fill="midnightblue" stroke="midnightblue" points="183.12,-72.48 172.65,-74.11 181.86,-79.36 183.12,-72.48"/>
</g>
<!-- Node5 -->
<g id="node5" class="node">
<title>Node5</title>
<g id="a_node5"><a xlink:title=" ">
<polygon fill="white" stroke="#bfbfbf" points="212.5,-0.5 212.5,-19.5 280.5,-19.5 280.5,-0.5 212.5,-0.5"/>
<text text-anchor="middle" x="246.5" y="-7.5" font-family="Helvetica,sans-Serif" font-size="10.00">sys/select.h</text>
</a>
</g>
</g>
<!-- Node1&#45;&gt;Node5 -->
<g id="edge4" class="edge">
<title>Node1&#45;&gt;Node5</title>
<path fill="none" stroke="midnightblue" d="M597.19,-123.97C509.54,-119.11 343.5,-106.13 293.5,-76 275.47,-65.14 262.35,-44.45 254.62,-29.32"/>
<polygon fill="midnightblue" stroke="midnightblue" points="257.61,-27.44 250.14,-19.92 251.29,-30.46 257.61,-27.44"/>
</g>
<!-- Node6 -->
<g id="node6" class="node">
<title>Node6</title>
<g id="a_node6"><a xlink:title=" ">
<polygon fill="white" stroke="#bfbfbf" points="303,-56.5 303,-75.5 374,-75.5 374,-56.5 303,-56.5"/>
<text text-anchor="middle" x="338.5" y="-63.5" font-family="Helvetica,sans-Serif" font-size="10.00">sys/socket.h</text>
</a>
</g>
</g>
<!-- Node1&#45;&gt;Node6 -->
<g id="edge5" class="edge">
<title>Node1&#45;&gt;Node6</title>
<path fill="none" stroke="midnightblue" d="M597.34,-116.34C545.17,-106.69 464.4,-91.63 384.59,-76.19"/>
<polygon fill="midnightblue" stroke="midnightblue" points="384.84,-72.68 374.35,-74.21 383.51,-79.55 384.84,-72.68"/>
</g>
<!-- Node7 -->
<g id="node7" class="node">
<title>Node7</title>
<g id="a_node7"><a xlink:title=" ">
<polygon fill="white" stroke="#bfbfbf" points="392.5,-56.5 392.5,-75.5 456.5,-75.5 456.5,-56.5 392.5,-56.5"/>
<text text-anchor="middle" x="424.5" y="-63.5" font-family="Helvetica,sans-Serif" font-size="10.00">netinet/ip.h</text>
</a>
</g>
</g>
<!-- Node1&#45;&gt;Node7 -->
<g id="edge6" class="edge">
<title>Node1&#45;&gt;Node7</title>
<path fill="none" stroke="midnightblue" d="M598.76,-112.47C558.44,-101.95 504.02,-87.75 466.79,-78.03"/>
<polygon fill="midnightblue" stroke="midnightblue" points="467.32,-74.56 456.76,-75.42 465.56,-81.33 467.32,-74.56"/>
</g>
<!-- Node8 -->
<g id="node8" class="node">
<title>Node8</title>
<g id="a_node8"><a xlink:title=" ">
<polygon fill="white" stroke="#bfbfbf" points="474.5,-56.5 474.5,-75.5 536.5,-75.5 536.5,-56.5 474.5,-56.5"/>
<text text-anchor="middle" x="505.5" y="-63.5" font-family="Helvetica,sans-Serif" font-size="10.00">arpa/inet.h</text>
</a>
</g>
</g>
<!-- Node1&#45;&gt;Node8 -->
<g id="edge7" class="edge">
<title>Node1&#45;&gt;Node8</title>
<path fill="none" stroke="midnightblue" d="M617.66,-112.4C593,-102.42 560.21,-89.15 536.47,-79.53"/>
<polygon fill="midnightblue" stroke="midnightblue" points="537.47,-76.17 526.89,-75.66 534.85,-82.65 537.47,-76.17"/>
</g>
<!-- Node9 -->
<g id="node9" class="node">
<title>Node9</title>
<g id="a_node9"><a xlink:title=" ">
<polygon fill="white" stroke="#bfbfbf" points="554.5,-56.5 554.5,-75.5 602.5,-75.5 602.5,-56.5 554.5,-56.5"/>
<text text-anchor="middle" x="578.5" y="-63.5" font-family="Helvetica,sans-Serif" font-size="10.00">netdb.h</text>
</a>
</g>
</g>
<!-- Node1&#45;&gt;Node9 -->
<g id="edge8" class="edge">
<title>Node1&#45;&gt;Node9</title>
<path fill="none" stroke="midnightblue" d="M634.96,-112.4C623.66,-103.31 608.96,-91.49 597.39,-82.19"/>
<polygon fill="midnightblue" stroke="midnightblue" points="599.25,-79.2 589.27,-75.66 594.87,-84.65 599.25,-79.2"/>
</g>
<!-- Node10 -->
<g id="node10" class="node">
<title>Node10</title>
<g id="a_node10"><a xlink:title=" ">
<polygon fill="white" stroke="#bfbfbf" points="620.5,-56.5 620.5,-75.5 684.5,-75.5 684.5,-56.5 620.5,-56.5"/>
<text text-anchor="middle" x="652.5" y="-63.5" font-family="Helvetica,sans-Serif" font-size="10.00">netinet/in.h</text>
</a>
</g>
</g>
<!-- Node1&#45;&gt;Node10 -->
<g id="edge9" class="edge">
<title>Node1&#45;&gt;Node10</title>
<path fill="none" stroke="midnightblue" d="M652.5,-112.4C652.5,-104.47 652.5,-94.46 652.5,-85.86"/>
<polygon fill="midnightblue" stroke="midnightblue" points="656,-85.66 652.5,-75.66 649,-85.66 656,-85.66"/>
</g>
<!-- Node11 -->
<g id="node11" class="node">
<title>Node11</title>
<g id="a_node11"><a xlink:title=" ">
<polygon fill="white" stroke="#bfbfbf" points="702.5,-56.5 702.5,-75.5 750.5,-75.5 750.5,-56.5 702.5,-56.5"/>
<text text-anchor="middle" x="726.5" y="-63.5" font-family="Helvetica,sans-Serif" font-size="10.00">string.h</text>
</a>
</g>
</g>
<!-- Node1&#45;&gt;Node11 -->
<g id="edge10" class="edge">
<title>Node1&#45;&gt;Node11</title>
<path fill="none" stroke="midnightblue" d="M670.04,-112.4C681.34,-103.31 696.04,-91.49 707.61,-82.19"/>
<polygon fill="midnightblue" stroke="midnightblue" points="710.13,-84.65 715.73,-75.66 705.75,-79.2 710.13,-84.65"/>
</g>
<!-- Node12 -->
<g id="node12" class="node">
<title>Node12</title>
<g id="a_node12"><a xlink:title=" ">
<polygon fill="white" stroke="#bfbfbf" points="769,-56.5 769,-75.5 816,-75.5 816,-56.5 769,-56.5"/>
<text text-anchor="middle" x="792.5" y="-63.5" font-family="Helvetica,sans-Serif" font-size="10.00">stdlib.h</text>
</a>
</g>
</g>
<!-- Node1&#45;&gt;Node12 -->
<g id="edge11" class="edge">
<title>Node1&#45;&gt;Node12</title>
<path fill="none" stroke="midnightblue" d="M685.68,-112.4C709.06,-102.46 740.11,-89.26 762.71,-79.66"/>
<polygon fill="midnightblue" stroke="midnightblue" points="764.29,-82.79 772.13,-75.66 761.56,-76.35 764.29,-82.79"/>
</g>
<!-- Node13 -->
<g id="node13" class="node">
<title>Node13</title>
<g id="a_node13"><a xlink:title=" ">
<polygon fill="white" stroke="#bfbfbf" points="834,-56.5 834,-75.5 899,-75.5 899,-56.5 834,-56.5"/>
<text text-anchor="middle" x="866.5" y="-63.5" font-family="Helvetica,sans-Serif" font-size="10.00">sys/types.h</text>
</a>
</g>
</g>
<!-- Node1&#45;&gt;Node13 -->
<g id="edge12" class="edge">
<title>Node1&#45;&gt;Node13</title>
<path fill="none" stroke="midnightblue" d="M702.94,-112.47C740.51,-102.03 791.12,-87.96 826.05,-78.25"/>
<polygon fill="midnightblue" stroke="midnightblue" points="827.21,-81.56 835.91,-75.51 825.33,-74.81 827.21,-81.56"/>
</g>
<!-- Node14 -->
<g id="node14" class="node">
<title>Node14</title>
<g id="a_node14"><a xlink:title=" ">
<polygon fill="white" stroke="#bfbfbf" points="917.5,-56.5 917.5,-75.5 973.5,-75.5 973.5,-56.5 917.5,-56.5"/>
<text text-anchor="middle" x="945.5" y="-63.5" font-family="Helvetica,sans-Serif" font-size="10.00">pthread.h</text>
</a>
</g>
</g>
<!-- Node1&#45;&gt;Node14 -->
<g id="edge13" class="edge">
<title>Node1&#45;&gt;Node14</title>
<path fill="none" stroke="midnightblue" d="M707.84,-116.15C759.57,-106.34 838.92,-90.91 907.5,-76 907.6,-75.98 907.7,-75.96 907.8,-75.94"/>
<polygon fill="midnightblue" stroke="midnightblue" points="908.31,-79.41 917.3,-73.8 906.78,-72.58 908.31,-79.41"/>
</g>
<!-- Node15 -->
<g id="node15" class="node">
<title>Node15</title>
<g id="a_node15"><a xlink:href="cpinti_8h.html" target="_top" xlink:title=" ">
<polygon fill="white" stroke="black" points="992,-56.5 992,-75.5 1039,-75.5 1039,-56.5 992,-56.5"/>
<text text-anchor="middle" x="1015.5" y="-63.5" font-family="Helvetica,sans-Serif" font-size="10.00">cpinti.h</text>
</a>
</g>
</g>
<!-- Node1&#45;&gt;Node15 -->
<g id="edge14" class="edge">
<title>Node1&#45;&gt;Node15</title>
<path fill="none" stroke="midnightblue" d="M707.73,-120.01C771.5,-112.08 879.66,-97.29 981.91,-75.91"/>
<polygon fill="midnightblue" stroke="midnightblue" points="982.73,-79.31 991.79,-73.82 981.28,-72.46 982.73,-79.31"/>
</g>
<!-- Node18 -->
<g id="node18" class="node">
<title>Node18</title>
<g id="a_node18"><a xlink:href="func__cpi_8h.html" target="_top" xlink:title=" ">
<polygon fill="white" stroke="black" points="1191.5,-56.5 1191.5,-75.5 1255.5,-75.5 1255.5,-56.5 1191.5,-56.5"/>
<text text-anchor="middle" x="1223.5" y="-63.5" font-family="Helvetica,sans-Serif" font-size="10.00">Func_cpi.h</text>
</a>
</g>
</g>
<!-- Node1&#45;&gt;Node18 -->
<g id="edge17" class="edge">
<title>Node1&#45;&gt;Node18</title>
<path fill="none" stroke="midnightblue" d="M707.71,-123.45C802.58,-117.72 1002.76,-103.53 1181.24,-76.02"/>
<polygon fill="midnightblue" stroke="midnightblue" points="1182,-79.44 1191.34,-74.45 1180.92,-72.53 1182,-79.44"/>
</g>
<!-- Node22 -->
<g id="node22" class="node">
<title>Node22</title>
<g id="a_node22"><a xlink:href="debug_8h.html" target="_top" xlink:title=" ">
<polygon fill="white" stroke="black" points="1123.5,-56.5 1123.5,-75.5 1173.5,-75.5 1173.5,-56.5 1123.5,-56.5"/>
<text text-anchor="middle" x="1148.5" y="-63.5" font-family="Helvetica,sans-Serif" font-size="10.00">debug.h</text>
</a>
</g>
</g>
<!-- Node1&#45;&gt;Node22 -->
<g id="edge21" class="edge">
<title>Node1&#45;&gt;Node22</title>
<path fill="none" stroke="midnightblue" d="M707.65,-123.16C792.81,-117.4 961.49,-103.67 1113.37,-75.95"/>
<polygon fill="midnightblue" stroke="midnightblue" points="1114.15,-79.37 1123.34,-74.11 1112.87,-72.49 1114.15,-79.37"/>
</g>
<!-- Node23 -->
<g id="node23" class="node">
<title>Node23</title>
<g id="a_node23"><a xlink:href="serveur_8h.html" target="_top" xlink:title=" ">
<polygon fill="white" stroke="black" points="190.5,-56.5 190.5,-75.5 246.5,-75.5 246.5,-56.5 190.5,-56.5"/>
<text text-anchor="middle" x="218.5" y="-63.5" font-family="Helvetica,sans-Serif" font-size="10.00">serveur.h</text>
</a>
</g>
</g>
<!-- Node1&#45;&gt;Node23 -->
<g id="edge23" class="edge">
<title>Node1&#45;&gt;Node23</title>
<path fill="none" stroke="midnightblue" d="M597.43,-120.86C521.38,-112.75 380.04,-96.47 260.5,-76 259.26,-75.79 258,-75.56 256.73,-75.33"/>
<polygon fill="midnightblue" stroke="midnightblue" points="257.39,-71.89 246.9,-73.42 256.05,-78.77 257.39,-71.89"/>
</g>
<!-- Node24 -->
<g id="node24" class="node">
<title>Node24</title>
<g id="a_node24"><a xlink:href="stack_8h.html" target="_top" xlink:title=" ">
<polygon fill="white" stroke="black" points="1057.5,-56.5 1057.5,-75.5 1105.5,-75.5 1105.5,-56.5 1057.5,-56.5"/>
<text text-anchor="middle" x="1081.5" y="-63.5" font-family="Helvetica,sans-Serif" font-size="10.00">stack.h</text>
</a>
</g>
</g>
<!-- Node1&#45;&gt;Node24 -->
<g id="edge25" class="edge">
<title>Node1&#45;&gt;Node24</title>
<path fill="none" stroke="midnightblue" d="M707.82,-121.74C784.55,-114.62 927.4,-99.47 1047.5,-76 1047.6,-75.98 1047.7,-75.96 1047.8,-75.94"/>
<polygon fill="midnightblue" stroke="midnightblue" points="1048.45,-79.38 1057.44,-73.79 1046.92,-72.55 1048.45,-79.38"/>
</g>
<!-- Node26 -->
<g id="node26" class="node">
<title>Node26</title>
<g id="a_node26"><a xlink:href="buffer_8h.html" target="_top" xlink:title=" ">
<polygon fill="white" stroke="black" points="1273.5,-56.5 1273.5,-75.5 1321.5,-75.5 1321.5,-56.5 1273.5,-56.5"/>
<text text-anchor="middle" x="1297.5" y="-63.5" font-family="Helvetica,sans-Serif" font-size="10.00">buffer.h</text>
</a>
</g>
</g>
<!-- Node1&#45;&gt;Node26 -->
<g id="edge30" class="edge">
<title>Node1&#45;&gt;Node26</title>
<path fill="none" stroke="midnightblue" d="M707.79,-125.34C813.96,-122.37 1053.69,-112.1 1263.5,-75.85"/>
<polygon fill="midnightblue" stroke="midnightblue" points="1264.22,-79.28 1273.47,-74.1 1263.01,-72.38 1264.22,-79.28"/>
</g>
<!-- Node16 -->
<g id="node16" class="node">
<title>Node16</title>
<g id="a_node16"><a xlink:title=" ">
<polygon fill="white" stroke="#bfbfbf" points="989,-0.5 989,-19.5 1040,-19.5 1040,-0.5 989,-0.5"/>
<text text-anchor="middle" x="1014.5" y="-7.5" font-family="Helvetica,sans-Serif" font-size="10.00">memory</text>
</a>
</g>
</g>
<!-- Node15&#45;&gt;Node16 -->
<g id="edge15" class="edge">
<title>Node15&#45;&gt;Node16</title>
<path fill="none" stroke="midnightblue" d="M1015.33,-56.08C1015.2,-49.01 1015.02,-38.86 1014.85,-29.99"/>
<polygon fill="midnightblue" stroke="midnightblue" points="1018.35,-29.68 1014.66,-19.75 1011.35,-29.81 1018.35,-29.68"/>
</g>
<!-- Node17 -->
<g id="node17" class="node">
<title>Node17</title>
<g id="a_node17"><a xlink:title=" ">
<polygon fill="white" stroke="#bfbfbf" points="926.5,-0.5 926.5,-19.5 970.5,-19.5 970.5,-0.5 926.5,-0.5"/>
<text text-anchor="middle" x="948.5" y="-7.5" font-family="Helvetica,sans-Serif" font-size="10.00">vector</text>
</a>
</g>
</g>
<!-- Node15&#45;&gt;Node17 -->
<g id="edge16" class="edge">
<title>Node15&#45;&gt;Node17</title>
<path fill="none" stroke="midnightblue" d="M1004.74,-56.32C994.73,-48.26 979.61,-36.08 967.57,-26.37"/>
<polygon fill="midnightblue" stroke="midnightblue" points="969.44,-23.38 959.46,-19.83 965.05,-28.83 969.44,-23.38"/>
</g>
<!-- Node19 -->
<g id="node19" class="node">
<title>Node19</title>
<g id="a_node19"><a xlink:title=" ">
<polygon fill="white" stroke="#bfbfbf" points="1122.5,-0.5 1122.5,-19.5 1176.5,-19.5 1176.5,-0.5 1122.5,-0.5"/>
<text text-anchor="middle" x="1149.5" y="-7.5" font-family="Helvetica,sans-Serif" font-size="10.00">iostream</text>
</a>
</g>
</g>
<!-- Node18&#45;&gt;Node19 -->
<g id="edge18" class="edge">
<title>Node18&#45;&gt;Node19</title>
<path fill="none" stroke="midnightblue" d="M1211.61,-56.32C1200.35,-48.11 1183.21,-35.6 1169.79,-25.81"/>
<polygon fill="midnightblue" stroke="midnightblue" points="1171.75,-22.9 1161.61,-19.83 1167.62,-28.56 1171.75,-22.9"/>
</g>
<!-- Node20 -->
<g id="node20" class="node">
<title>Node20</title>
<g id="a_node20"><a xlink:title=" ">
<polygon fill="white" stroke="#bfbfbf" points="1274.5,-0.5 1274.5,-19.5 1326.5,-19.5 1326.5,-0.5 1274.5,-0.5"/>
<text text-anchor="middle" x="1300.5" y="-7.5" font-family="Helvetica,sans-Serif" font-size="10.00">sstream</text>
</a>
</g>
</g>
<!-- Node18&#45;&gt;Node20 -->
<g id="edge19" class="edge">
<title>Node18&#45;&gt;Node20</title>
<path fill="none" stroke="midnightblue" d="M1235.87,-56.32C1247.66,-48.06 1265.63,-35.45 1279.64,-25.63"/>
<polygon fill="midnightblue" stroke="midnightblue" points="1281.98,-28.26 1288.16,-19.65 1277.96,-22.53 1281.98,-28.26"/>
</g>
<!-- Node21 -->
<g id="node21" class="node">
<title>Node21</title>
<g id="a_node21"><a xlink:title=" ">
<polygon fill="white" stroke="#bfbfbf" points="1195,-0.5 1195,-19.5 1256,-19.5 1256,-0.5 1195,-0.5"/>
<text text-anchor="middle" x="1225.5" y="-7.5" font-family="Helvetica,sans-Serif" font-size="10.00">sys/time.h</text>
</a>
</g>
</g>
<!-- Node18&#45;&gt;Node21 -->
<g id="edge20" class="edge">
<title>Node18&#45;&gt;Node21</title>
<path fill="none" stroke="midnightblue" d="M1223.83,-56.08C1224.09,-49.01 1224.47,-38.86 1224.8,-29.99"/>
<polygon fill="midnightblue" stroke="midnightblue" points="1228.3,-29.87 1225.18,-19.75 1221.31,-29.61 1228.3,-29.87"/>
</g>
<!-- Node22&#45;&gt;Node19 -->
<g id="edge22" class="edge">
<title>Node22&#45;&gt;Node19</title>
<path fill="none" stroke="midnightblue" d="M1148.67,-56.08C1148.8,-49.01 1148.98,-38.86 1149.15,-29.99"/>
<polygon fill="midnightblue" stroke="midnightblue" points="1152.65,-29.81 1149.34,-19.75 1145.65,-29.68 1152.65,-29.81"/>
</g>
<!-- Node23&#45;&gt;Node5 -->
<g id="edge24" class="edge">
<title>Node23&#45;&gt;Node5</title>
<path fill="none" stroke="midnightblue" d="M223.12,-56.08C226.96,-48.69 232.52,-37.95 237.26,-28.81"/>
<polygon fill="midnightblue" stroke="midnightblue" points="240.47,-30.24 241.96,-19.75 234.25,-27.02 240.47,-30.24"/>
</g>
<!-- Node24&#45;&gt;Node16 -->
<g id="edge27" class="edge">
<title>Node24&#45;&gt;Node16</title>
<path fill="none" stroke="midnightblue" d="M1070.74,-56.32C1060.73,-48.26 1045.61,-36.08 1033.57,-26.37"/>
<polygon fill="midnightblue" stroke="midnightblue" points="1035.44,-23.38 1025.46,-19.83 1031.05,-28.83 1035.44,-23.38"/>
</g>
<!-- Node24&#45;&gt;Node17 -->
<g id="edge28" class="edge">
<title>Node24&#45;&gt;Node17</title>
<path fill="none" stroke="midnightblue" d="M1060.43,-56.44C1038.44,-47.52 1003.77,-33.44 978.84,-23.32"/>
<polygon fill="midnightblue" stroke="midnightblue" points="980.06,-20.04 969.48,-19.52 977.42,-26.52 980.06,-20.04"/>
</g>
<!-- Node24&#45;&gt;Node19 -->
<g id="edge26" class="edge">
<title>Node24&#45;&gt;Node19</title>
<path fill="none" stroke="midnightblue" d="M1092.43,-56.32C1102.67,-48.18 1118.22,-35.84 1130.5,-26.09"/>
<polygon fill="midnightblue" stroke="midnightblue" points="1132.72,-28.79 1138.38,-19.83 1128.37,-23.31 1132.72,-28.79"/>
</g>
<!-- Node25 -->
<g id="node25" class="node">
<title>Node25</title>
<g id="a_node25"><a xlink:title=" ">
<polygon fill="white" stroke="#bfbfbf" points="1058.5,-0.5 1058.5,-19.5 1104.5,-19.5 1104.5,-0.5 1058.5,-0.5"/>
<text text-anchor="middle" x="1081.5" y="-7.5" font-family="Helvetica,sans-Serif" font-size="10.00">cstring</text>
</a>
</g>
</g>
<!-- Node24&#45;&gt;Node25 -->
<g id="edge29" class="edge">
<title>Node24&#45;&gt;Node25</title>
<path fill="none" stroke="midnightblue" d="M1081.5,-56.08C1081.5,-49.01 1081.5,-38.86 1081.5,-29.99"/>
<polygon fill="midnightblue" stroke="midnightblue" points="1085,-29.75 1081.5,-19.75 1078,-29.75 1085,-29.75"/>
</g>
</g>
</svg>
