<?xml version="1.0" encoding="UTF-8" standalone="no"?>
<!DOCTYPE svg PUBLIC "-//W3C//DTD SVG 1.1//EN"
 "http://www.w3.org/Graphics/SVG/1.1/DTD/svg11.dtd">
<!-- Generated by graphviz version 2.44.0 ()
 -->
<!-- Title: OS2.1/CPinti/include/stack.h Pages: 1 -->
<svg width="690pt" height="106pt"
 viewBox="0.00 0.00 690.00 106.00" xmlns="http://www.w3.org/2000/svg" xmlns:xlink="http://www.w3.org/1999/xlink">
<g id="graph0" class="graph" transform="scale(1 1) rotate(0) translate(4 102)">
<title>OS2.1/CPinti/include/stack.h</title>
<polygon fill="white" stroke="transparent" points="-4,4 -4,-102 686,-102 686,4 -4,4"/>
<!-- Node1 -->
<g id="node1" class="node">
<title>Node1</title>
<g id="a_node1"><a xlink:title=" ">
<polygon fill="#bfbfbf" stroke="black" points="317.5,-67.5 317.5,-97.5 424.5,-97.5 424.5,-67.5 317.5,-67.5"/>
<text text-anchor="start" x="325.5" y="-85.5" font-family="Helvetica,sans-Serif" font-size="10.00">OS2.1/CPinti/include</text>
<text text-anchor="middle" x="371" y="-74.5" font-family="Helvetica,sans-Serif" font-size="10.00">/stack.h</text>
</a>
</g>
</g>
<!-- Node2 -->
<g id="node2" class="node">
<title>Node2</title>
<g id="a_node2"><a xlink:href="buffer_8cpp.html" target="_top" xlink:title=" ">
<polygon fill="white" stroke="black" points="0,-6 0,-25 140,-25 140,-6 0,-6"/>
<text text-anchor="middle" x="70" y="-13" font-family="Helvetica,sans-Serif" font-size="10.00">OS2.1/CPinti/core/buffer.cpp</text>
</a>
</g>
</g>
<!-- Node1&#45;&gt;Node2 -->
<g id="edge1" class="edge">
<title>Node1&#45;&gt;Node2</title>
<path fill="none" stroke="midnightblue" d="M307.09,-67.7C247.24,-54.77 159.71,-35.87 109.44,-25.02"/>
<polygon fill="midnightblue" stroke="midnightblue" points="306.67,-71.19 317.19,-69.88 308.15,-64.35 306.67,-71.19"/>
</g>
<!-- Node3 -->
<g id="node3" class="node">
<title>Node3</title>
<g id="a_node3"><a xlink:href="stack_8cpp.html" target="_top" xlink:title=" ">
<polygon fill="white" stroke="black" points="158,-6 158,-25 298,-25 298,-6 158,-6"/>
<text text-anchor="middle" x="228" y="-13" font-family="Helvetica,sans-Serif" font-size="10.00">OS2.1/CPinti/core/stack.cpp</text>
</a>
</g>
</g>
<!-- Node1&#45;&gt;Node3 -->
<g id="edge2" class="edge">
<title>Node1&#45;&gt;Node3</title>
<path fill="none" stroke="midnightblue" d="M330.59,-63.13C303.07,-50.62 267.91,-34.64 246.72,-25.01"/>
<polygon fill="midnightblue" stroke="midnightblue" points="329.42,-66.44 339.97,-67.4 332.32,-60.07 329.42,-66.44"/>
</g>
<!-- Node4 -->
<g id="node4" class="node">
<title>Node4</title>
<g id="a_node4"><a xlink:href="client_8cpp.html" target="_top" xlink:title=" ">
<polygon fill="white" stroke="black" points="316,-0.5 316,-30.5 426,-30.5 426,-0.5 316,-0.5"/>
<text text-anchor="start" x="324" y="-18.5" font-family="Helvetica,sans-Serif" font-size="10.00">OS2.1/CPinti/network</text>
<text text-anchor="middle" x="371" y="-7.5" font-family="Helvetica,sans-Serif" font-size="10.00">/client.cpp</text>
</a>
</g>
</g>
<!-- Node1&#45;&gt;Node4 -->
<g id="edge3" class="edge">
<title>Node1&#45;&gt;Node4</title>
<path fill="none" stroke="midnightblue" d="M371,-57.11C371,-48.15 371,-38.32 371,-30.58"/>
<polygon fill="midnightblue" stroke="midnightblue" points="367.5,-57.4 371,-67.4 374.5,-57.4 367.5,-57.4"/>
</g>
<!-- Node5 -->
<g id="node5" class="node">
<title>Node5</title>
<g id="a_node5"><a xlink:href="serveur_8cpp.html" target="_top" xlink:title=" ">
<polygon fill="white" stroke="black" points="444,-0.5 444,-30.5 554,-30.5 554,-0.5 444,-0.5"/>
<text text-anchor="start" x="452" y="-18.5" font-family="Helvetica,sans-Serif" font-size="10.00">OS2.1/CPinti/network</text>
<text text-anchor="middle" x="499" y="-7.5" font-family="Helvetica,sans-Serif" font-size="10.00">/serveur.cpp</text>
</a>
</g>
</g>
<!-- Node1&#45;&gt;Node5 -->
<g id="edge4" class="edge">
<title>Node1&#45;&gt;Node5</title>
<path fill="none" stroke="midnightblue" d="M407.72,-62.85C427.96,-52.58 452.67,-40.03 471.28,-30.58"/>
<polygon fill="midnightblue" stroke="midnightblue" points="406.11,-59.75 398.77,-67.4 409.28,-65.99 406.11,-59.75"/>
</g>
<!-- Node6 -->
<g id="node6" class="node">
<title>Node6</title>
<g id="a_node6"><a xlink:href="wpr__net_8cpp.html" target="_top" xlink:title=" ">
<polygon fill="white" stroke="black" points="572,-0.5 572,-30.5 682,-30.5 682,-0.5 572,-0.5"/>
<text text-anchor="start" x="580" y="-18.5" font-family="Helvetica,sans-Serif" font-size="10.00">OS2.1/CPinti/network</text>
<text text-anchor="middle" x="627" y="-7.5" font-family="Helvetica,sans-Serif" font-size="10.00">/wpr_net.cpp</text>
</a>
</g>
</g>
<!-- Node1&#45;&gt;Node6 -->
<g id="edge5" class="edge">
<title>Node1&#45;&gt;Node6</title>
<path fill="none" stroke="midnightblue" d="M434.53,-65.37C476.63,-54.68 531.32,-40.79 571.64,-30.56"/>
<polygon fill="midnightblue" stroke="midnightblue" points="433.5,-62.02 424.67,-67.87 435.22,-68.81 433.5,-62.02"/>
</g>
</g>
</svg>
