<?xml version="1.0" encoding="UTF-8" standalone="no"?>
<!DOCTYPE svg PUBLIC "-//W3C//DTD SVG 1.1//EN"
 "http://www.w3.org/Graphics/SVG/1.1/DTD/svg11.dtd">
<!-- Generated by graphviz version 2.44.0 ()
 -->
<!-- Title: OS2.1/CPinti/network/wpr_net.cpp Pages: 1 -->
<svg width="904pt" height="151pt"
 viewBox="0.00 0.00 904.00 151.00" xmlns="http://www.w3.org/2000/svg" xmlns:xlink="http://www.w3.org/1999/xlink">
<g id="graph0" class="graph" transform="scale(1 1) rotate(0) translate(4 147)">
<title>OS2.1/CPinti/network/wpr_net.cpp</title>
<polygon fill="white" stroke="transparent" points="-4,4 -4,-147 900,-147 900,4 -4,4"/>
<!-- Node1 -->
<g id="node1" class="node">
<title>Node1</title>
<g id="a_node1"><a xlink:title=" ">
<polygon fill="#bfbfbf" stroke="black" points="428.5,-112.5 428.5,-142.5 538.5,-142.5 538.5,-112.5 428.5,-112.5"/>
<text text-anchor="start" x="436.5" y="-130.5" font-family="Helvetica,sans-Serif" font-size="10.00">OS2.1/CPinti/network</text>
<text text-anchor="middle" x="483.5" y="-119.5" font-family="Helvetica,sans-Serif" font-size="10.00">/wpr_net.cpp</text>
</a>
</g>
</g>
<!-- Node2 -->
<g id="node2" class="node">
<title>Node2</title>
<g id="a_node2"><a xlink:title=" ">
<polygon fill="white" stroke="#bfbfbf" points="0,-0.5 0,-19.5 51,-19.5 51,-0.5 0,-0.5"/>
<text text-anchor="middle" x="25.5" y="-7.5" font-family="Helvetica,sans-Serif" font-size="10.00">memory</text>
</a>
</g>
</g>
<!-- Node1&#45;&gt;Node2 -->
<g id="edge1" class="edge">
<title>Node1&#45;&gt;Node2</title>
<path fill="none" stroke="midnightblue" d="M428.32,-126.53C326.42,-125.54 113.78,-118.31 55.5,-76 40.45,-65.07 32.74,-44.7 28.94,-29.67"/>
<polygon fill="midnightblue" stroke="midnightblue" points="32.35,-28.9 26.81,-19.88 25.51,-30.39 32.35,-28.9"/>
</g>
<!-- Node3 -->
<g id="node3" class="node">
<title>Node3</title>
<g id="a_node3"><a xlink:href="cpinti_8h.html" target="_top" xlink:title=" ">
<polygon fill="white" stroke="black" points="65,-56.5 65,-75.5 112,-75.5 112,-56.5 65,-56.5"/>
<text text-anchor="middle" x="88.5" y="-63.5" font-family="Helvetica,sans-Serif" font-size="10.00">cpinti.h</text>
</a>
</g>
</g>
<!-- Node1&#45;&gt;Node3 -->
<g id="edge2" class="edge">
<title>Node1&#45;&gt;Node3</title>
<path fill="none" stroke="midnightblue" d="M428.24,-121.01C358.94,-113.63 236.38,-98.96 122.17,-75.89"/>
<polygon fill="midnightblue" stroke="midnightblue" points="122.7,-72.43 112.21,-73.85 121.3,-79.29 122.7,-72.43"/>
</g>
<!-- Node5 -->
<g id="node5" class="node">
<title>Node5</title>
<g id="a_node5"><a xlink:href="debug_8h.html" target="_top" xlink:title=" ">
<polygon fill="white" stroke="black" points="215.5,-56.5 215.5,-75.5 265.5,-75.5 265.5,-56.5 215.5,-56.5"/>
<text text-anchor="middle" x="240.5" y="-63.5" font-family="Helvetica,sans-Serif" font-size="10.00">debug.h</text>
</a>
</g>
</g>
<!-- Node1&#45;&gt;Node5 -->
<g id="edge5" class="edge">
<title>Node1&#45;&gt;Node5</title>
<path fill="none" stroke="midnightblue" d="M428.36,-113C381.47,-101.52 315.56,-85.38 275.57,-75.59"/>
<polygon fill="midnightblue" stroke="midnightblue" points="276.28,-72.16 265.74,-73.18 274.62,-78.96 276.28,-72.16"/>
</g>
<!-- Node7 -->
<g id="node7" class="node">
<title>Node7</title>
<g id="a_node7"><a xlink:href="func__cpi_8h.html" target="_top" xlink:title=" ">
<polygon fill="white" stroke="black" points="302,-56.5 302,-75.5 363,-75.5 363,-56.5 302,-56.5"/>
<text text-anchor="middle" x="332.5" y="-63.5" font-family="Helvetica,sans-Serif" font-size="10.00">func_cpi.h</text>
</a>
</g>
</g>
<!-- Node1&#45;&gt;Node7 -->
<g id="edge7" class="edge">
<title>Node1&#45;&gt;Node7</title>
<path fill="none" stroke="midnightblue" d="M447.72,-112.4C422.27,-102.37 388.4,-89.03 363.98,-79.4"/>
<polygon fill="midnightblue" stroke="midnightblue" points="365.06,-76.07 354.47,-75.66 362.49,-82.58 365.06,-76.07"/>
</g>
<!-- Node10 -->
<g id="node10" class="node">
<title>Node10</title>
<g id="a_node10"><a xlink:href="buffer_8h.html" target="_top" xlink:title=" ">
<polygon fill="white" stroke="black" points="494.5,-56.5 494.5,-75.5 542.5,-75.5 542.5,-56.5 494.5,-56.5"/>
<text text-anchor="middle" x="518.5" y="-63.5" font-family="Helvetica,sans-Serif" font-size="10.00">buffer.h</text>
</a>
</g>
</g>
<!-- Node1&#45;&gt;Node10 -->
<g id="edge11" class="edge">
<title>Node1&#45;&gt;Node10</title>
<path fill="none" stroke="midnightblue" d="M491.79,-112.4C496.72,-104.02 503.01,-93.33 508.25,-84.42"/>
<polygon fill="midnightblue" stroke="midnightblue" points="511.35,-86.05 513.41,-75.66 505.32,-82.5 511.35,-86.05"/>
</g>
<!-- Node11 -->
<g id="node11" class="node">
<title>Node11</title>
<g id="a_node11"><a xlink:href="stack_8h.html" target="_top" xlink:title=" ">
<polygon fill="white" stroke="black" points="130.5,-56.5 130.5,-75.5 178.5,-75.5 178.5,-56.5 130.5,-56.5"/>
<text text-anchor="middle" x="154.5" y="-63.5" font-family="Helvetica,sans-Serif" font-size="10.00">stack.h</text>
</a>
</g>
</g>
<!-- Node1&#45;&gt;Node11 -->
<g id="edge12" class="edge">
<title>Node1&#45;&gt;Node11</title>
<path fill="none" stroke="midnightblue" d="M428.43,-116.54C360.07,-104.18 245.55,-83.47 188.68,-73.18"/>
<polygon fill="midnightblue" stroke="midnightblue" points="189.22,-69.72 178.76,-71.39 187.98,-76.61 189.22,-69.72"/>
</g>
<!-- Node13 -->
<g id="node13" class="node">
<title>Node13</title>
<g id="a_node13"><a xlink:href="socket_8h.html" target="_top" xlink:title=" ">
<polygon fill="white" stroke="black" points="423,-56.5 423,-75.5 476,-75.5 476,-56.5 423,-56.5"/>
<text text-anchor="middle" x="449.5" y="-63.5" font-family="Helvetica,sans-Serif" font-size="10.00">socket.h</text>
</a>
</g>
</g>
<!-- Node1&#45;&gt;Node13 -->
<g id="edge17" class="edge">
<title>Node1&#45;&gt;Node13</title>
<path fill="none" stroke="midnightblue" d="M475.44,-112.4C470.65,-104.02 464.54,-93.33 459.46,-84.42"/>
<polygon fill="midnightblue" stroke="midnightblue" points="462.45,-82.6 454.45,-75.66 456.37,-86.08 462.45,-82.6"/>
</g>
<!-- Node19 -->
<g id="node19" class="node">
<title>Node19</title>
<g id="a_node19"><a xlink:href="ping_8h.html" target="_top" xlink:title=" ">
<polygon fill="white" stroke="black" points="560.5,-56.5 560.5,-75.5 602.5,-75.5 602.5,-56.5 560.5,-56.5"/>
<text text-anchor="middle" x="581.5" y="-63.5" font-family="Helvetica,sans-Serif" font-size="10.00">ping.h</text>
</a>
</g>
</g>
<!-- Node1&#45;&gt;Node19 -->
<g id="edge24" class="edge">
<title>Node1&#45;&gt;Node19</title>
<path fill="none" stroke="midnightblue" d="M506.72,-112.4C522.29,-102.95 542.7,-90.56 558.26,-81.11"/>
<polygon fill="midnightblue" stroke="midnightblue" points="560.51,-83.84 567.24,-75.66 556.88,-77.86 560.51,-83.84"/>
</g>
<!-- Node21 -->
<g id="node21" class="node">
<title>Node21</title>
<g id="a_node21"><a xlink:href="serveur_8h.html" target="_top" xlink:title=" ">
<polygon fill="white" stroke="black" points="620.5,-56.5 620.5,-75.5 676.5,-75.5 676.5,-56.5 620.5,-56.5"/>
<text text-anchor="middle" x="648.5" y="-63.5" font-family="Helvetica,sans-Serif" font-size="10.00">serveur.h</text>
</a>
</g>
</g>
<!-- Node1&#45;&gt;Node21 -->
<g id="edge26" class="edge">
<title>Node1&#45;&gt;Node21</title>
<path fill="none" stroke="midnightblue" d="M522.6,-112.4C550.66,-102.28 588.07,-88.79 614.81,-79.15"/>
<polygon fill="midnightblue" stroke="midnightblue" points="616.27,-82.34 624.49,-75.66 613.9,-75.76 616.27,-82.34"/>
</g>
<!-- Node22 -->
<g id="node22" class="node">
<title>Node22</title>
<g id="a_node22"><a xlink:href="client_8h.html" target="_top" xlink:title=" ">
<polygon fill="white" stroke="black" points="695,-56.5 695,-75.5 742,-75.5 742,-56.5 695,-56.5"/>
<text text-anchor="middle" x="718.5" y="-63.5" font-family="Helvetica,sans-Serif" font-size="10.00">client.h</text>
</a>
</g>
</g>
<!-- Node1&#45;&gt;Node22 -->
<g id="edge28" class="edge">
<title>Node1&#45;&gt;Node22</title>
<path fill="none" stroke="midnightblue" d="M538.88,-112.99C577.22,-103.56 629.66,-90.51 684.77,-76.15"/>
<polygon fill="midnightblue" stroke="midnightblue" points="685.93,-79.46 694.72,-73.55 684.16,-72.69 685.93,-79.46"/>
</g>
<!-- Node23 -->
<g id="node23" class="node">
<title>Node23</title>
<g id="a_node23"><a xlink:href="network_8h.html" target="_top" xlink:title=" ">
<polygon fill="white" stroke="black" points="760,-56.5 760,-75.5 819,-75.5 819,-56.5 760,-56.5"/>
<text text-anchor="middle" x="789.5" y="-63.5" font-family="Helvetica,sans-Serif" font-size="10.00">network.h</text>
</a>
</g>
</g>
<!-- Node1&#45;&gt;Node23 -->
<g id="edge29" class="edge">
<title>Node1&#45;&gt;Node23</title>
<path fill="none" stroke="midnightblue" d="M538.57,-116.89C590.63,-107.64 671.15,-92.87 749.61,-76.34"/>
<polygon fill="midnightblue" stroke="midnightblue" points="750.6,-79.7 759.66,-74.21 749.15,-72.86 750.6,-79.7"/>
</g>
<!-- Node24 -->
<g id="node24" class="node">
<title>Node24</title>
<g id="a_node24"><a xlink:href="process_8h.html" target="_top" xlink:title=" ">
<polygon fill="white" stroke="black" points="837,-56.5 837,-75.5 896,-75.5 896,-56.5 837,-56.5"/>
<text text-anchor="middle" x="866.5" y="-63.5" font-family="Helvetica,sans-Serif" font-size="10.00">process.h</text>
</a>
</g>
</g>
<!-- Node1&#45;&gt;Node24 -->
<g id="edge30" class="edge">
<title>Node1&#45;&gt;Node24</title>
<path fill="none" stroke="midnightblue" d="M538.72,-119.93C604.98,-111.7 719.62,-96.4 826.68,-76.23"/>
<polygon fill="midnightblue" stroke="midnightblue" points="827.51,-79.63 836.68,-74.32 826.2,-72.75 827.51,-79.63"/>
</g>
<!-- Node3&#45;&gt;Node2 -->
<g id="edge3" class="edge">
<title>Node3&#45;&gt;Node2</title>
<path fill="none" stroke="midnightblue" d="M78.38,-56.32C68.97,-48.26 54.76,-36.08 43.43,-26.37"/>
<polygon fill="midnightblue" stroke="midnightblue" points="45.68,-23.68 35.81,-19.83 41.12,-29 45.68,-23.68"/>
</g>
<!-- Node4 -->
<g id="node4" class="node">
<title>Node4</title>
<g id="a_node4"><a xlink:title=" ">
<polygon fill="white" stroke="#bfbfbf" points="69.5,-0.5 69.5,-19.5 113.5,-19.5 113.5,-0.5 69.5,-0.5"/>
<text text-anchor="middle" x="91.5" y="-7.5" font-family="Helvetica,sans-Serif" font-size="10.00">vector</text>
</a>
</g>
</g>
<!-- Node3&#45;&gt;Node4 -->
<g id="edge4" class="edge">
<title>Node3&#45;&gt;Node4</title>
<path fill="none" stroke="midnightblue" d="M89,-56.08C89.39,-49.01 89.95,-38.86 90.45,-29.99"/>
<polygon fill="midnightblue" stroke="midnightblue" points="93.95,-29.93 91.01,-19.75 86.96,-29.54 93.95,-29.93"/>
</g>
<!-- Node6 -->
<g id="node6" class="node">
<title>Node6</title>
<g id="a_node6"><a xlink:title=" ">
<polygon fill="white" stroke="#bfbfbf" points="195.5,-0.5 195.5,-19.5 249.5,-19.5 249.5,-0.5 195.5,-0.5"/>
<text text-anchor="middle" x="222.5" y="-7.5" font-family="Helvetica,sans-Serif" font-size="10.00">iostream</text>
</a>
</g>
</g>
<!-- Node5&#45;&gt;Node6 -->
<g id="edge6" class="edge">
<title>Node5&#45;&gt;Node6</title>
<path fill="none" stroke="midnightblue" d="M237.53,-56.08C235.12,-48.85 231.64,-38.41 228.63,-29.4"/>
<polygon fill="midnightblue" stroke="midnightblue" points="231.9,-28.13 225.42,-19.75 225.26,-30.34 231.9,-28.13"/>
</g>
<!-- Node7&#45;&gt;Node6 -->
<g id="edge8" class="edge">
<title>Node7&#45;&gt;Node6</title>
<path fill="none" stroke="midnightblue" d="M314.83,-56.32C297.11,-47.62 269.6,-34.12 249.21,-24.11"/>
<polygon fill="midnightblue" stroke="midnightblue" points="250.65,-20.92 240.13,-19.65 247.56,-27.2 250.65,-20.92"/>
</g>
<!-- Node8 -->
<g id="node8" class="node">
<title>Node8</title>
<g id="a_node8"><a xlink:title=" ">
<polygon fill="white" stroke="#bfbfbf" points="267.5,-0.5 267.5,-19.5 319.5,-19.5 319.5,-0.5 267.5,-0.5"/>
<text text-anchor="middle" x="293.5" y="-7.5" font-family="Helvetica,sans-Serif" font-size="10.00">sstream</text>
</a>
</g>
</g>
<!-- Node7&#45;&gt;Node8 -->
<g id="edge9" class="edge">
<title>Node7&#45;&gt;Node8</title>
<path fill="none" stroke="midnightblue" d="M326.06,-56.08C320.55,-48.46 312.47,-37.26 305.74,-27.94"/>
<polygon fill="midnightblue" stroke="midnightblue" points="308.51,-25.81 299.82,-19.75 302.84,-29.91 308.51,-25.81"/>
</g>
<!-- Node9 -->
<g id="node9" class="node">
<title>Node9</title>
<g id="a_node9"><a xlink:title=" ">
<polygon fill="white" stroke="#bfbfbf" points="338,-0.5 338,-19.5 399,-19.5 399,-0.5 338,-0.5"/>
<text text-anchor="middle" x="368.5" y="-7.5" font-family="Helvetica,sans-Serif" font-size="10.00">sys/time.h</text>
</a>
</g>
</g>
<!-- Node7&#45;&gt;Node9 -->
<g id="edge10" class="edge">
<title>Node7&#45;&gt;Node9</title>
<path fill="none" stroke="midnightblue" d="M338.44,-56.08C343.48,-48.53 350.84,-37.49 357.01,-28.23"/>
<polygon fill="midnightblue" stroke="midnightblue" points="360.03,-30.01 362.67,-19.75 354.21,-26.13 360.03,-30.01"/>
</g>
<!-- Node11&#45;&gt;Node2 -->
<g id="edge14" class="edge">
<title>Node11&#45;&gt;Node2</title>
<path fill="none" stroke="midnightblue" d="M134.06,-56.44C112.83,-47.56 79.4,-33.56 55.25,-23.45"/>
<polygon fill="midnightblue" stroke="midnightblue" points="56.42,-20.15 45.84,-19.52 53.72,-26.61 56.42,-20.15"/>
</g>
<!-- Node11&#45;&gt;Node4 -->
<g id="edge15" class="edge">
<title>Node11&#45;&gt;Node4</title>
<path fill="none" stroke="midnightblue" d="M144.38,-56.32C134.97,-48.26 120.76,-36.08 109.43,-26.37"/>
<polygon fill="midnightblue" stroke="midnightblue" points="111.68,-23.68 101.81,-19.83 107.12,-29 111.68,-23.68"/>
</g>
<!-- Node11&#45;&gt;Node6 -->
<g id="edge13" class="edge">
<title>Node11&#45;&gt;Node6</title>
<path fill="none" stroke="midnightblue" d="M165.43,-56.32C175.67,-48.18 191.22,-35.84 203.5,-26.09"/>
<polygon fill="midnightblue" stroke="midnightblue" points="205.72,-28.79 211.38,-19.83 201.37,-23.31 205.72,-28.79"/>
</g>
<!-- Node12 -->
<g id="node12" class="node">
<title>Node12</title>
<g id="a_node12"><a xlink:title=" ">
<polygon fill="white" stroke="#bfbfbf" points="131.5,-0.5 131.5,-19.5 177.5,-19.5 177.5,-0.5 131.5,-0.5"/>
<text text-anchor="middle" x="154.5" y="-7.5" font-family="Helvetica,sans-Serif" font-size="10.00">cstring</text>
</a>
</g>
</g>
<!-- Node11&#45;&gt;Node12 -->
<g id="edge16" class="edge">
<title>Node11&#45;&gt;Node12</title>
<path fill="none" stroke="midnightblue" d="M154.5,-56.08C154.5,-49.01 154.5,-38.86 154.5,-29.99"/>
<polygon fill="midnightblue" stroke="midnightblue" points="158,-29.75 154.5,-19.75 151,-29.75 158,-29.75"/>
</g>
<!-- Node13&#45;&gt;Node4 -->
<g id="edge18" class="edge">
<title>Node13&#45;&gt;Node4</title>
<path fill="none" stroke="midnightblue" d="M422.58,-61.81C358.24,-54.11 196.13,-34.21 123.76,-19.94"/>
<polygon fill="midnightblue" stroke="midnightblue" points="124.25,-16.47 113.75,-17.88 122.84,-23.33 124.25,-16.47"/>
</g>
<!-- Node14 -->
<g id="node14" class="node">
<title>Node14</title>
<g id="a_node14"><a xlink:title=" ">
<polygon fill="white" stroke="#bfbfbf" points="728,-0.5 728,-19.5 799,-19.5 799,-0.5 728,-0.5"/>
<text text-anchor="middle" x="763.5" y="-7.5" font-family="Helvetica,sans-Serif" font-size="10.00">sys/socket.h</text>
</a>
</g>
</g>
<!-- Node13&#45;&gt;Node14 -->
<g id="edge19" class="edge">
<title>Node13&#45;&gt;Node14</title>
<path fill="none" stroke="midnightblue" d="M476.17,-58.04C479.31,-57.31 482.47,-56.61 485.5,-56 585.1,-35.9 613.61,-38.12 717.69,-20.07"/>
<polygon fill="midnightblue" stroke="midnightblue" points="718.42,-23.49 727.67,-18.31 717.21,-16.6 718.42,-23.49"/>
</g>
<!-- Node15 -->
<g id="node15" class="node">
<title>Node15</title>
<g id="a_node15"><a xlink:title=" ">
<polygon fill="white" stroke="#bfbfbf" points="417.5,-0.5 417.5,-19.5 481.5,-19.5 481.5,-0.5 417.5,-0.5"/>
<text text-anchor="middle" x="449.5" y="-7.5" font-family="Helvetica,sans-Serif" font-size="10.00">netinet/ip.h</text>
</a>
</g>
</g>
<!-- Node13&#45;&gt;Node15 -->
<g id="edge20" class="edge">
<title>Node13&#45;&gt;Node15</title>
<path fill="none" stroke="midnightblue" d="M449.5,-56.08C449.5,-49.01 449.5,-38.86 449.5,-29.99"/>
<polygon fill="midnightblue" stroke="midnightblue" points="453,-29.75 449.5,-19.75 446,-29.75 453,-29.75"/>
</g>
<!-- Node16 -->
<g id="node16" class="node">
<title>Node16</title>
<g id="a_node16"><a xlink:title=" ">
<polygon fill="white" stroke="#bfbfbf" points="499.5,-0.5 499.5,-19.5 561.5,-19.5 561.5,-0.5 499.5,-0.5"/>
<text text-anchor="middle" x="530.5" y="-7.5" font-family="Helvetica,sans-Serif" font-size="10.00">arpa/inet.h</text>
</a>
</g>
</g>
<!-- Node13&#45;&gt;Node16 -->
<g id="edge21" class="edge">
<title>Node13&#45;&gt;Node16</title>
<path fill="none" stroke="midnightblue" d="M462.51,-56.32C475.03,-47.98 494.18,-35.21 508.97,-25.35"/>
<polygon fill="midnightblue" stroke="midnightblue" points="511.14,-28.11 517.52,-19.65 507.26,-22.29 511.14,-28.11"/>
</g>
<!-- Node17 -->
<g id="node17" class="node">
<title>Node17</title>
<g id="a_node17"><a xlink:title=" ">
<polygon fill="white" stroke="#bfbfbf" points="579.5,-0.5 579.5,-19.5 627.5,-19.5 627.5,-0.5 579.5,-0.5"/>
<text text-anchor="middle" x="603.5" y="-7.5" font-family="Helvetica,sans-Serif" font-size="10.00">netdb.h</text>
</a>
</g>
</g>
<!-- Node13&#45;&gt;Node17 -->
<g id="edge22" class="edge">
<title>Node13&#45;&gt;Node17</title>
<path fill="none" stroke="midnightblue" d="M473.9,-56.44C499.77,-47.37 540.82,-32.98 569.77,-22.83"/>
<polygon fill="midnightblue" stroke="midnightblue" points="571.19,-26.04 579.47,-19.43 568.87,-19.43 571.19,-26.04"/>
</g>
<!-- Node18 -->
<g id="node18" class="node">
<title>Node18</title>
<g id="a_node18"><a xlink:title=" ">
<polygon fill="white" stroke="#bfbfbf" points="645.5,-0.5 645.5,-19.5 709.5,-19.5 709.5,-0.5 645.5,-0.5"/>
<text text-anchor="middle" x="677.5" y="-7.5" font-family="Helvetica,sans-Serif" font-size="10.00">netinet/in.h</text>
</a>
</g>
</g>
<!-- Node13&#45;&gt;Node18 -->
<g id="edge23" class="edge">
<title>Node13&#45;&gt;Node18</title>
<path fill="none" stroke="midnightblue" d="M476.23,-58.27C479.35,-57.5 482.49,-56.73 485.5,-56 536.97,-43.54 596.33,-29.71 635.27,-20.71"/>
<polygon fill="midnightblue" stroke="midnightblue" points="636.24,-24.08 645.19,-18.42 634.66,-17.26 636.24,-24.08"/>
</g>
<!-- Node20 -->
<g id="node20" class="node">
<title>Node20</title>
<g id="a_node20"><a xlink:title=" ">
<polygon fill="white" stroke="#bfbfbf" points="817.5,-0.5 817.5,-19.5 885.5,-19.5 885.5,-0.5 817.5,-0.5"/>
<text text-anchor="middle" x="851.5" y="-7.5" font-family="Helvetica,sans-Serif" font-size="10.00">sys/select.h</text>
</a>
</g>
</g>
<!-- Node19&#45;&gt;Node20 -->
<g id="edge25" class="edge">
<title>Node19&#45;&gt;Node20</title>
<path fill="none" stroke="midnightblue" d="M602.73,-58.32C605.66,-57.48 608.65,-56.69 611.5,-56 694.99,-35.91 719.45,-37.01 807.38,-20.17"/>
<polygon fill="midnightblue" stroke="midnightblue" points="808.1,-23.59 817.25,-18.25 806.76,-16.72 808.1,-23.59"/>
</g>
<!-- Node21&#45;&gt;Node20 -->
<g id="edge27" class="edge">
<title>Node21&#45;&gt;Node20</title>
<path fill="none" stroke="midnightblue" d="M676.73,-57.49C711.27,-48.3 770.08,-32.66 809.83,-22.08"/>
<polygon fill="midnightblue" stroke="midnightblue" points="810.74,-25.46 819.5,-19.51 808.94,-18.7 810.74,-25.46"/>
</g>
</g>
</svg>
