<?xml version="1.0" encoding="UTF-8" standalone="no"?>
<!DOCTYPE svg PUBLIC "-//W3C//DTD SVG 1.1//EN"
 "http://www.w3.org/Graphics/SVG/1.1/DTD/svg11.dtd">
<!-- Generated by graphviz version 2.44.0 ()
 -->
<!-- Title: xe_cpinti_get_pid_from_tid_val Pages: 1 -->
<svg width="442pt" height="50pt"
 viewBox="0.00 0.00 442.00 50.00" xmlns="http://www.w3.org/2000/svg" xmlns:xlink="http://www.w3.org/1999/xlink">
<g id="graph0" class="graph" transform="scale(1 1) rotate(0) translate(4 46)">
<title>xe_cpinti_get_pid_from_tid_val</title>
<polygon fill="white" stroke="transparent" points="-4,4 -4,-46 438,-46 438,4 -4,4"/>
<!-- Node1 -->
<g id="node1" class="node">
<title>Node1</title>
<g id="a_node1"><a xlink:title=" ">
<polygon fill="#bfbfbf" stroke="black" points="0,-6 0,-36 116,-36 116,-6 0,-6"/>
<text text-anchor="start" x="8" y="-24" font-family="Helvetica,sans-Serif" font-size="10.00">xe_cpinti_get_pid_from</text>
<text text-anchor="middle" x="58" y="-13" font-family="Helvetica,sans-Serif" font-size="10.00">_tid_val</text>
</a>
</g>
</g>
<!-- Node2 -->
<g id="node2" class="node">
<title>Node2</title>
<g id="a_node2"><a xlink:href="namespacecpinti_1_1gestionnaire__tache.html#a990255915a7f8209717543277e291d6c" target="_top" xlink:title=" ">
<polygon fill="white" stroke="black" points="152,-0.5 152,-41.5 262,-41.5 262,-0.5 152,-0.5"/>
<text text-anchor="start" x="160" y="-29.5" font-family="Helvetica,sans-Serif" font-size="10.00">cpinti::gestionnaire</text>
<text text-anchor="start" x="160" y="-18.5" font-family="Helvetica,sans-Serif" font-size="10.00">_tache::cpinti_get_pid</text>
<text text-anchor="middle" x="207" y="-7.5" font-family="Helvetica,sans-Serif" font-size="10.00">_from_tid</text>
</a>
</g>
</g>
<!-- Node1&#45;&gt;Node2 -->
<g id="edge1" class="edge">
<title>Node1&#45;&gt;Node2</title>
<path fill="none" stroke="midnightblue" d="M116.25,-21C124.51,-21 133.05,-21 141.43,-21"/>
<polygon fill="midnightblue" stroke="midnightblue" points="141.55,-24.5 151.55,-21 141.55,-17.5 141.55,-24.5"/>
</g>
<!-- Node3 -->
<g id="node3" class="node">
<title>Node3</title>
<g id="a_node3"><a xlink:href="namespacecpinti_1_1gestionnaire__tache.html#ab076831eb798dd962d6cdf867b7ff8b4" target="_top" xlink:title=" ">
<polygon fill="white" stroke="black" points="298,-6 298,-36 434,-36 434,-6 298,-6"/>
<text text-anchor="start" x="306" y="-24" font-family="Helvetica,sans-Serif" font-size="10.00">cpinti::gestionnaire</text>
<text text-anchor="middle" x="366" y="-13" font-family="Helvetica,sans-Serif" font-size="10.00">_tache::get_ThreadEnCours</text>
</a>
</g>
</g>
<!-- Node2&#45;&gt;Node3 -->
<g id="edge2" class="edge">
<title>Node2&#45;&gt;Node3</title>
<path fill="none" stroke="midnightblue" d="M262.03,-21C270.32,-21 279.01,-21 287.68,-21"/>
<polygon fill="midnightblue" stroke="midnightblue" points="287.83,-24.5 297.83,-21 287.83,-17.5 287.83,-24.5"/>
</g>
</g>
</svg>
