<?xml version="1.0" encoding="UTF-8" standalone="no"?>
<!DOCTYPE svg PUBLIC "-//W3C//DTD SVG 1.1//EN"
 "http://www.w3.org/Graphics/SVG/1.1/DTD/svg11.dtd">
<!-- Generated by graphviz version 2.44.0 ()
 -->
<!-- Title: OS2.1/CPinti/core/wpr_exec.cpp Pages: 1 -->
<svg width="344pt" height="151pt"
 viewBox="0.00 0.00 343.50 151.00" xmlns="http://www.w3.org/2000/svg" xmlns:xlink="http://www.w3.org/1999/xlink">
<g id="graph0" class="graph" transform="scale(1 1) rotate(0) translate(4 147)">
<title>OS2.1/CPinti/core/wpr_exec.cpp</title>
<polygon fill="white" stroke="transparent" points="-4,4 -4,-147 339.5,-147 339.5,4 -4,4"/>
<!-- Node1 -->
<g id="node1" class="node">
<title>Node1</title>
<g id="a_node1"><a xlink:title=" ">
<polygon fill="#bfbfbf" stroke="black" points="68,-112.5 68,-142.5 181,-142.5 181,-112.5 68,-112.5"/>
<text text-anchor="start" x="76" y="-130.5" font-family="Helvetica,sans-Serif" font-size="10.00">OS2.1/CPinti/core/wpr</text>
<text text-anchor="middle" x="124.5" y="-119.5" font-family="Helvetica,sans-Serif" font-size="10.00">_exec.cpp</text>
</a>
</g>
</g>
<!-- Node2 -->
<g id="node2" class="node">
<title>Node2</title>
<g id="a_node2"><a xlink:title=" ">
<polygon fill="white" stroke="#bfbfbf" points="0,-0.5 0,-19.5 51,-19.5 51,-0.5 0,-0.5"/>
<text text-anchor="middle" x="25.5" y="-7.5" font-family="Helvetica,sans-Serif" font-size="10.00">memory</text>
</a>
</g>
</g>
<!-- Node1&#45;&gt;Node2 -->
<g id="edge1" class="edge">
<title>Node1&#45;&gt;Node2</title>
<path fill="none" stroke="midnightblue" d="M100.99,-112.32C87.33,-103.22 70.49,-90.42 58.5,-76 46.76,-61.89 37.73,-42.9 32.11,-29.1"/>
<polygon fill="midnightblue" stroke="midnightblue" points="35.35,-27.78 28.49,-19.71 28.82,-30.3 35.35,-27.78"/>
</g>
<!-- Node3 -->
<g id="node3" class="node">
<title>Node3</title>
<g id="a_node3"><a xlink:href="debug_8h.html" target="_top" xlink:title=" ">
<polygon fill="white" stroke="black" points="133.5,-56.5 133.5,-75.5 183.5,-75.5 183.5,-56.5 133.5,-56.5"/>
<text text-anchor="middle" x="158.5" y="-63.5" font-family="Helvetica,sans-Serif" font-size="10.00">debug.h</text>
</a>
</g>
</g>
<!-- Node1&#45;&gt;Node3 -->
<g id="edge2" class="edge">
<title>Node1&#45;&gt;Node3</title>
<path fill="none" stroke="midnightblue" d="M132.56,-112.4C137.35,-104.02 143.46,-93.33 148.54,-84.42"/>
<polygon fill="midnightblue" stroke="midnightblue" points="151.63,-86.08 153.55,-75.66 145.55,-82.6 151.63,-86.08"/>
</g>
<!-- Node5 -->
<g id="node5" class="node">
<title>Node5</title>
<g id="a_node5"><a xlink:href="cpinti_8h.html" target="_top" xlink:title=" ">
<polygon fill="white" stroke="black" points="68,-56.5 68,-75.5 115,-75.5 115,-56.5 68,-56.5"/>
<text text-anchor="middle" x="91.5" y="-63.5" font-family="Helvetica,sans-Serif" font-size="10.00">cpinti.h</text>
</a>
</g>
</g>
<!-- Node1&#45;&gt;Node5 -->
<g id="edge4" class="edge">
<title>Node1&#45;&gt;Node5</title>
<path fill="none" stroke="midnightblue" d="M116.68,-112.4C112.03,-104.02 106.1,-93.33 101.16,-84.42"/>
<polygon fill="midnightblue" stroke="midnightblue" points="104.21,-82.71 96.3,-75.66 98.09,-86.1 104.21,-82.71"/>
</g>
<!-- Node7 -->
<g id="node7" class="node">
<title>Node7</title>
<g id="a_node7"><a xlink:href="func__cpi_8h.html" target="_top" xlink:title=" ">
<polygon fill="white" stroke="black" points="203,-56.5 203,-75.5 264,-75.5 264,-56.5 203,-56.5"/>
<text text-anchor="middle" x="233.5" y="-63.5" font-family="Helvetica,sans-Serif" font-size="10.00">func_cpi.h</text>
</a>
</g>
</g>
<!-- Node1&#45;&gt;Node7 -->
<g id="edge7" class="edge">
<title>Node1&#45;&gt;Node7</title>
<path fill="none" stroke="midnightblue" d="M150.33,-112.4C167.97,-102.77 191.2,-90.09 208.63,-80.58"/>
<polygon fill="midnightblue" stroke="midnightblue" points="210.54,-83.52 217.64,-75.66 207.19,-77.38 210.54,-83.52"/>
</g>
<!-- Node4 -->
<g id="node4" class="node">
<title>Node4</title>
<g id="a_node4"><a xlink:title=" ">
<polygon fill="white" stroke="#bfbfbf" points="131.5,-0.5 131.5,-19.5 185.5,-19.5 185.5,-0.5 131.5,-0.5"/>
<text text-anchor="middle" x="158.5" y="-7.5" font-family="Helvetica,sans-Serif" font-size="10.00">iostream</text>
</a>
</g>
</g>
<!-- Node3&#45;&gt;Node4 -->
<g id="edge3" class="edge">
<title>Node3&#45;&gt;Node4</title>
<path fill="none" stroke="midnightblue" d="M158.5,-56.08C158.5,-49.01 158.5,-38.86 158.5,-29.99"/>
<polygon fill="midnightblue" stroke="midnightblue" points="162,-29.75 158.5,-19.75 155,-29.75 162,-29.75"/>
</g>
<!-- Node5&#45;&gt;Node2 -->
<g id="edge5" class="edge">
<title>Node5&#45;&gt;Node2</title>
<path fill="none" stroke="midnightblue" d="M80.9,-56.32C71.04,-48.26 56.15,-36.08 44.28,-26.37"/>
<polygon fill="midnightblue" stroke="midnightblue" points="46.25,-23.46 36.3,-19.83 41.82,-28.88 46.25,-23.46"/>
</g>
<!-- Node6 -->
<g id="node6" class="node">
<title>Node6</title>
<g id="a_node6"><a xlink:title=" ">
<polygon fill="white" stroke="#bfbfbf" points="69.5,-0.5 69.5,-19.5 113.5,-19.5 113.5,-0.5 69.5,-0.5"/>
<text text-anchor="middle" x="91.5" y="-7.5" font-family="Helvetica,sans-Serif" font-size="10.00">vector</text>
</a>
</g>
</g>
<!-- Node5&#45;&gt;Node6 -->
<g id="edge6" class="edge">
<title>Node5&#45;&gt;Node6</title>
<path fill="none" stroke="midnightblue" d="M91.5,-56.08C91.5,-49.01 91.5,-38.86 91.5,-29.99"/>
<polygon fill="midnightblue" stroke="midnightblue" points="95,-29.75 91.5,-19.75 88,-29.75 95,-29.75"/>
</g>
<!-- Node7&#45;&gt;Node4 -->
<g id="edge8" class="edge">
<title>Node7&#45;&gt;Node4</title>
<path fill="none" stroke="midnightblue" d="M221.45,-56.32C210.04,-48.11 192.67,-35.6 179.07,-25.81"/>
<polygon fill="midnightblue" stroke="midnightblue" points="180.93,-22.84 170.77,-19.83 176.84,-28.52 180.93,-22.84"/>
</g>
<!-- Node8 -->
<g id="node8" class="node">
<title>Node8</title>
<g id="a_node8"><a xlink:title=" ">
<polygon fill="white" stroke="#bfbfbf" points="283.5,-0.5 283.5,-19.5 335.5,-19.5 335.5,-0.5 283.5,-0.5"/>
<text text-anchor="middle" x="309.5" y="-7.5" font-family="Helvetica,sans-Serif" font-size="10.00">sstream</text>
</a>
</g>
</g>
<!-- Node7&#45;&gt;Node8 -->
<g id="edge9" class="edge">
<title>Node7&#45;&gt;Node8</title>
<path fill="none" stroke="midnightblue" d="M245.71,-56.32C257.28,-48.11 274.88,-35.6 288.66,-25.81"/>
<polygon fill="midnightblue" stroke="midnightblue" points="290.94,-28.48 297.07,-19.83 286.89,-22.77 290.94,-28.48"/>
</g>
<!-- Node9 -->
<g id="node9" class="node">
<title>Node9</title>
<g id="a_node9"><a xlink:title=" ">
<polygon fill="white" stroke="#bfbfbf" points="204,-0.5 204,-19.5 265,-19.5 265,-0.5 204,-0.5"/>
<text text-anchor="middle" x="234.5" y="-7.5" font-family="Helvetica,sans-Serif" font-size="10.00">sys/time.h</text>
</a>
</g>
</g>
<!-- Node7&#45;&gt;Node9 -->
<g id="edge10" class="edge">
<title>Node7&#45;&gt;Node9</title>
<path fill="none" stroke="midnightblue" d="M233.67,-56.08C233.8,-49.01 233.98,-38.86 234.15,-29.99"/>
<polygon fill="midnightblue" stroke="midnightblue" points="237.65,-29.81 234.34,-19.75 230.65,-29.68 237.65,-29.81"/>
</g>
</g>
</svg>
