<?xml version="1.0" encoding="UTF-8" standalone="no"?>
<!DOCTYPE svg PUBLIC "-//W3C//DTD SVG 1.1//EN"
 "http://www.w3.org/Graphics/SVG/1.1/DTD/svg11.dtd">
<!-- Generated by graphviz version 2.44.0 ()
 -->
<!-- Title: xe_cpinti_creer_thread Pages: 1 -->
<svg width="259pt" height="50pt"
 viewBox="0.00 0.00 259.00 50.00" xmlns="http://www.w3.org/2000/svg" xmlns:xlink="http://www.w3.org/1999/xlink">
<g id="graph0" class="graph" transform="scale(1 1) rotate(0) translate(4 46)">
<title>xe_cpinti_creer_thread</title>
<polygon fill="white" stroke="transparent" points="-4,4 -4,-46 255,-46 255,4 -4,4"/>
<!-- Node1 -->
<g id="node1" class="node">
<title>Node1</title>
<g id="a_node1"><a xlink:title=" ">
<polygon fill="#bfbfbf" stroke="black" points="0,-11.5 0,-30.5 114,-30.5 114,-11.5 0,-11.5"/>
<text text-anchor="middle" x="57" y="-18.5" font-family="Helvetica,sans-Serif" font-size="10.00">xe_cpinti_creer_thread</text>
</a>
</g>
</g>
<!-- Node2 -->
<g id="node2" class="node">
<title>Node2</title>
<g id="a_node2"><a xlink:href="namespacecpinti_1_1gestionnaire__tache.html#a0c6d8878452d6e0ebb31a9ae9910d859" target="_top" xlink:title=" ">
<polygon fill="white" stroke="black" points="150,-0.5 150,-41.5 251,-41.5 251,-0.5 150,-0.5"/>
<text text-anchor="start" x="158" y="-29.5" font-family="Helvetica,sans-Serif" font-size="10.00">cpinti::gestionnaire</text>
<text text-anchor="start" x="158" y="-18.5" font-family="Helvetica,sans-Serif" font-size="10.00">_tache::cpinti_creer</text>
<text text-anchor="middle" x="200.5" y="-7.5" font-family="Helvetica,sans-Serif" font-size="10.00">_thread</text>
</a>
</g>
</g>
<!-- Node1&#45;&gt;Node2 -->
<g id="edge1" class="edge">
<title>Node1&#45;&gt;Node2</title>
<path fill="none" stroke="midnightblue" d="M114.33,-21C122.66,-21 131.27,-21 139.66,-21"/>
<polygon fill="midnightblue" stroke="midnightblue" points="139.77,-24.5 149.77,-21 139.77,-17.5 139.77,-24.5"/>
</g>
</g>
</svg>
