<?xml version="1.0" encoding="UTF-8" standalone="no"?>
<!DOCTYPE svg PUBLIC "-//W3C//DTD SVG 1.1//EN"
 "http://www.w3.org/Graphics/SVG/1.1/DTD/svg11.dtd">
<!-- Generated by graphviz version 2.44.0 ()
 -->
<!-- Title: OS2.1/CPinti/core/wpr_thread.cpp Pages: 1 -->
<svg width="484pt" height="151pt"
 viewBox="0.00 0.00 484.00 151.00" xmlns="http://www.w3.org/2000/svg" xmlns:xlink="http://www.w3.org/1999/xlink">
<g id="graph0" class="graph" transform="scale(1 1) rotate(0) translate(4 147)">
<title>OS2.1/CPinti/core/wpr_thread.cpp</title>
<polygon fill="white" stroke="transparent" points="-4,4 -4,-147 480,-147 480,4 -4,4"/>
<!-- Node1 -->
<g id="node1" class="node">
<title>Node1</title>
<g id="a_node1"><a xlink:title=" ">
<polygon fill="#bfbfbf" stroke="black" points="135.5,-112.5 135.5,-142.5 248.5,-142.5 248.5,-112.5 135.5,-112.5"/>
<text text-anchor="start" x="143.5" y="-130.5" font-family="Helvetica,sans-Serif" font-size="10.00">OS2.1/CPinti/core/wpr</text>
<text text-anchor="middle" x="192" y="-119.5" font-family="Helvetica,sans-Serif" font-size="10.00">_thread.cpp</text>
</a>
</g>
</g>
<!-- Node2 -->
<g id="node2" class="node">
<title>Node2</title>
<g id="a_node2"><a xlink:title=" ">
<polygon fill="white" stroke="#bfbfbf" points="0,-56.5 0,-75.5 48,-75.5 48,-56.5 0,-56.5"/>
<text text-anchor="middle" x="24" y="-63.5" font-family="Helvetica,sans-Serif" font-size="10.00">string.h</text>
</a>
</g>
</g>
<!-- Node1&#45;&gt;Node2 -->
<g id="edge1" class="edge">
<title>Node1&#45;&gt;Node2</title>
<path fill="none" stroke="midnightblue" d="M152.19,-112.4C123.5,-102.24 85.19,-88.67 57.94,-79.02"/>
<polygon fill="midnightblue" stroke="midnightblue" points="59.04,-75.7 48.45,-75.66 56.7,-82.3 59.04,-75.7"/>
</g>
<!-- Node3 -->
<g id="node3" class="node">
<title>Node3</title>
<g id="a_node3"><a xlink:title=" ">
<polygon fill="white" stroke="#bfbfbf" points="66.5,-56.5 66.5,-75.5 111.5,-75.5 111.5,-56.5 66.5,-56.5"/>
<text text-anchor="middle" x="89" y="-63.5" font-family="Helvetica,sans-Serif" font-size="10.00">stdio.h</text>
</a>
</g>
</g>
<!-- Node1&#45;&gt;Node3 -->
<g id="edge2" class="edge">
<title>Node1&#45;&gt;Node3</title>
<path fill="none" stroke="midnightblue" d="M167.59,-112.4C151.08,-102.86 129.38,-90.32 112.96,-80.84"/>
<polygon fill="midnightblue" stroke="midnightblue" points="114.4,-77.63 103.99,-75.66 110.9,-83.69 114.4,-77.63"/>
</g>
<!-- Node4 -->
<g id="node4" class="node">
<title>Node4</title>
<g id="a_node4"><a xlink:href="func__cpi_8h.html" target="_top" xlink:title=" ">
<polygon fill="white" stroke="black" points="198.5,-56.5 198.5,-75.5 259.5,-75.5 259.5,-56.5 198.5,-56.5"/>
<text text-anchor="middle" x="229" y="-63.5" font-family="Helvetica,sans-Serif" font-size="10.00">func_cpi.h</text>
</a>
</g>
</g>
<!-- Node1&#45;&gt;Node4 -->
<g id="edge3" class="edge">
<title>Node1&#45;&gt;Node4</title>
<path fill="none" stroke="midnightblue" d="M200.77,-112.4C205.98,-104.02 212.63,-93.33 218.17,-84.42"/>
<polygon fill="midnightblue" stroke="midnightblue" points="221.31,-86 223.62,-75.66 215.36,-82.3 221.31,-86"/>
</g>
<!-- Node8 -->
<g id="node8" class="node">
<title>Node8</title>
<g id="a_node8"><a xlink:href="threads_8h.html" target="_top" xlink:title=" ">
<polygon fill="white" stroke="black" points="340,-56.5 340,-75.5 396,-75.5 396,-56.5 340,-56.5"/>
<text text-anchor="middle" x="368" y="-63.5" font-family="Helvetica,sans-Serif" font-size="10.00">threads.h</text>
</a>
</g>
</g>
<!-- Node1&#45;&gt;Node8 -->
<g id="edge7" class="edge">
<title>Node1&#45;&gt;Node8</title>
<path fill="none" stroke="midnightblue" d="M233.71,-112.4C263.99,-102.16 304.49,-88.47 333.07,-78.81"/>
<polygon fill="midnightblue" stroke="midnightblue" points="334.3,-82.09 342.65,-75.57 332.05,-75.46 334.3,-82.09"/>
</g>
<!-- Node9 -->
<g id="node9" class="node">
<title>Node9</title>
<g id="a_node9"><a xlink:href="core_8h.html" target="_top" xlink:title=" ">
<polygon fill="white" stroke="black" points="278.5,-56.5 278.5,-75.5 321.5,-75.5 321.5,-56.5 278.5,-56.5"/>
<text text-anchor="middle" x="300" y="-63.5" font-family="Helvetica,sans-Serif" font-size="10.00">core.h</text>
</a>
</g>
</g>
<!-- Node1&#45;&gt;Node9 -->
<g id="edge8" class="edge">
<title>Node1&#45;&gt;Node9</title>
<path fill="none" stroke="midnightblue" d="M217.59,-112.4C235.07,-102.77 258.09,-90.09 275.36,-80.58"/>
<polygon fill="midnightblue" stroke="midnightblue" points="277.22,-83.55 284.29,-75.66 273.84,-77.42 277.22,-83.55"/>
</g>
<!-- Node12 -->
<g id="node12" class="node">
<title>Node12</title>
<g id="a_node12"><a xlink:href="debug_8h.html" target="_top" xlink:title=" ">
<polygon fill="white" stroke="black" points="130,-56.5 130,-75.5 180,-75.5 180,-56.5 130,-56.5"/>
<text text-anchor="middle" x="155" y="-63.5" font-family="Helvetica,sans-Serif" font-size="10.00">debug.h</text>
</a>
</g>
</g>
<!-- Node1&#45;&gt;Node12 -->
<g id="edge12" class="edge">
<title>Node1&#45;&gt;Node12</title>
<path fill="none" stroke="midnightblue" d="M183.23,-112.4C178.02,-104.02 171.37,-93.33 165.83,-84.42"/>
<polygon fill="midnightblue" stroke="midnightblue" points="168.64,-82.3 160.38,-75.66 162.69,-86 168.64,-82.3"/>
</g>
<!-- Node5 -->
<g id="node5" class="node">
<title>Node5</title>
<g id="a_node5"><a xlink:title=" ">
<polygon fill="white" stroke="#bfbfbf" points="127,-0.5 127,-19.5 181,-19.5 181,-0.5 127,-0.5"/>
<text text-anchor="middle" x="154" y="-7.5" font-family="Helvetica,sans-Serif" font-size="10.00">iostream</text>
</a>
</g>
</g>
<!-- Node4&#45;&gt;Node5 -->
<g id="edge4" class="edge">
<title>Node4&#45;&gt;Node5</title>
<path fill="none" stroke="midnightblue" d="M216.95,-56.32C205.54,-48.11 188.17,-35.6 174.57,-25.81"/>
<polygon fill="midnightblue" stroke="midnightblue" points="176.43,-22.84 166.27,-19.83 172.34,-28.52 176.43,-22.84"/>
</g>
<!-- Node6 -->
<g id="node6" class="node">
<title>Node6</title>
<g id="a_node6"><a xlink:title=" ">
<polygon fill="white" stroke="#bfbfbf" points="199,-0.5 199,-19.5 251,-19.5 251,-0.5 199,-0.5"/>
<text text-anchor="middle" x="225" y="-7.5" font-family="Helvetica,sans-Serif" font-size="10.00">sstream</text>
</a>
</g>
</g>
<!-- Node4&#45;&gt;Node6 -->
<g id="edge5" class="edge">
<title>Node4&#45;&gt;Node6</title>
<path fill="none" stroke="midnightblue" d="M228.34,-56.08C227.82,-49.01 227.06,-38.86 226.41,-29.99"/>
<polygon fill="midnightblue" stroke="midnightblue" points="229.88,-29.47 225.65,-19.75 222.9,-29.98 229.88,-29.47"/>
</g>
<!-- Node7 -->
<g id="node7" class="node">
<title>Node7</title>
<g id="a_node7"><a xlink:title=" ">
<polygon fill="white" stroke="#bfbfbf" points="269.5,-0.5 269.5,-19.5 330.5,-19.5 330.5,-0.5 269.5,-0.5"/>
<text text-anchor="middle" x="300" y="-7.5" font-family="Helvetica,sans-Serif" font-size="10.00">sys/time.h</text>
</a>
</g>
</g>
<!-- Node4&#45;&gt;Node7 -->
<g id="edge6" class="edge">
<title>Node4&#45;&gt;Node7</title>
<path fill="none" stroke="midnightblue" d="M240.41,-56.32C251.11,-48.18 267.34,-35.84 280.16,-26.09"/>
<polygon fill="midnightblue" stroke="midnightblue" points="282.54,-28.67 288.39,-19.83 278.31,-23.1 282.54,-28.67"/>
</g>
<!-- Node9&#45;&gt;Node7 -->
<g id="edge10" class="edge">
<title>Node9&#45;&gt;Node7</title>
<path fill="none" stroke="midnightblue" d="M300,-56.08C300,-49.01 300,-38.86 300,-29.99"/>
<polygon fill="midnightblue" stroke="midnightblue" points="303.5,-29.75 300,-19.75 296.5,-29.75 303.5,-29.75"/>
</g>
<!-- Node10 -->
<g id="node10" class="node">
<title>Node10</title>
<g id="a_node10"><a xlink:title=" ">
<polygon fill="white" stroke="#bfbfbf" points="348.5,-0.5 348.5,-19.5 401.5,-19.5 401.5,-0.5 348.5,-0.5"/>
<text text-anchor="middle" x="375" y="-7.5" font-family="Helvetica,sans-Serif" font-size="10.00">setjmp.h</text>
</a>
</g>
</g>
<!-- Node9&#45;&gt;Node10 -->
<g id="edge9" class="edge">
<title>Node9&#45;&gt;Node10</title>
<path fill="none" stroke="midnightblue" d="M312.05,-56.32C323.46,-48.11 340.83,-35.6 354.43,-25.81"/>
<polygon fill="midnightblue" stroke="midnightblue" points="356.66,-28.52 362.73,-19.83 352.57,-22.84 356.66,-28.52"/>
</g>
<!-- Node11 -->
<g id="node11" class="node">
<title>Node11</title>
<g id="a_node11"><a xlink:title=" ">
<polygon fill="white" stroke="#bfbfbf" points="420,-0.5 420,-19.5 476,-19.5 476,-0.5 420,-0.5"/>
<text text-anchor="middle" x="448" y="-7.5" font-family="Helvetica,sans-Serif" font-size="10.00">pthread.h</text>
</a>
</g>
</g>
<!-- Node9&#45;&gt;Node11 -->
<g id="edge11" class="edge">
<title>Node9&#45;&gt;Node11</title>
<path fill="none" stroke="midnightblue" d="M321.52,-57.15C346.05,-48.2 386.42,-33.47 414.95,-23.06"/>
<polygon fill="midnightblue" stroke="midnightblue" points="416.3,-26.29 424.5,-19.58 413.9,-19.72 416.3,-26.29"/>
</g>
<!-- Node12&#45;&gt;Node5 -->
<g id="edge13" class="edge">
<title>Node12&#45;&gt;Node5</title>
<path fill="none" stroke="midnightblue" d="M154.83,-56.08C154.7,-49.01 154.52,-38.86 154.35,-29.99"/>
<polygon fill="midnightblue" stroke="midnightblue" points="157.85,-29.68 154.16,-19.75 150.85,-29.81 157.85,-29.68"/>
</g>
</g>
</svg>
