<?xml version="1.0" encoding="UTF-8" standalone="no"?>
<!DOCTYPE svg PUBLIC "-//W3C//DTD SVG 1.1//EN"
 "http://www.w3.org/Graphics/SVG/1.1/DTD/svg11.dtd">
<!-- Generated by graphviz version 2.44.0 ()
 -->
<!-- Title: xe_cpinti_get_pid_from_tid Pages: 1 -->
<svg width="458pt" height="50pt"
 viewBox="0.00 0.00 458.00 50.00" xmlns="http://www.w3.org/2000/svg" xmlns:xlink="http://www.w3.org/1999/xlink">
<g id="graph0" class="graph" transform="scale(1 1) rotate(0) translate(4 46)">
<title>xe_cpinti_get_pid_from_tid</title>
<polygon fill="white" stroke="transparent" points="-4,4 -4,-46 454,-46 454,4 -4,4"/>
<!-- Node1 -->
<g id="node1" class="node">
<title>Node1</title>
<g id="a_node1"><a xlink:title=" ">
<polygon fill="#bfbfbf" stroke="black" points="0,-11.5 0,-30.5 132,-30.5 132,-11.5 0,-11.5"/>
<text text-anchor="middle" x="66" y="-18.5" font-family="Helvetica,sans-Serif" font-size="10.00">xe_cpinti_get_pid_from_tid</text>
</a>
</g>
</g>
<!-- Node2 -->
<g id="node2" class="node">
<title>Node2</title>
<g id="a_node2"><a xlink:href="namespacecpinti_1_1gestionnaire__tache.html#a990255915a7f8209717543277e291d6c" target="_top" xlink:title=" ">
<polygon fill="white" stroke="black" points="168,-0.5 168,-41.5 278,-41.5 278,-0.5 168,-0.5"/>
<text text-anchor="start" x="176" y="-29.5" font-family="Helvetica,sans-Serif" font-size="10.00">cpinti::gestionnaire</text>
<text text-anchor="start" x="176" y="-18.5" font-family="Helvetica,sans-Serif" font-size="10.00">_tache::cpinti_get_pid</text>
<text text-anchor="middle" x="223" y="-7.5" font-family="Helvetica,sans-Serif" font-size="10.00">_from_tid</text>
</a>
</g>
</g>
<!-- Node1&#45;&gt;Node2 -->
<g id="edge1" class="edge">
<title>Node1&#45;&gt;Node2</title>
<path fill="none" stroke="midnightblue" d="M132.28,-21C140.64,-21 149.18,-21 157.52,-21"/>
<polygon fill="midnightblue" stroke="midnightblue" points="157.57,-24.5 167.57,-21 157.57,-17.5 157.57,-24.5"/>
</g>
<!-- Node3 -->
<g id="node3" class="node">
<title>Node3</title>
<g id="a_node3"><a xlink:href="namespacecpinti_1_1gestionnaire__tache.html#ab076831eb798dd962d6cdf867b7ff8b4" target="_top" xlink:title=" ">
<polygon fill="white" stroke="black" points="314,-6 314,-36 450,-36 450,-6 314,-6"/>
<text text-anchor="start" x="322" y="-24" font-family="Helvetica,sans-Serif" font-size="10.00">cpinti::gestionnaire</text>
<text text-anchor="middle" x="382" y="-13" font-family="Helvetica,sans-Serif" font-size="10.00">_tache::get_ThreadEnCours</text>
</a>
</g>
</g>
<!-- Node2&#45;&gt;Node3 -->
<g id="edge2" class="edge">
<title>Node2&#45;&gt;Node3</title>
<path fill="none" stroke="midnightblue" d="M278.03,-21C286.32,-21 295.01,-21 303.68,-21"/>
<polygon fill="midnightblue" stroke="midnightblue" points="303.83,-24.5 313.83,-21 303.83,-17.5 303.83,-24.5"/>
</g>
</g>
</svg>
